<svg viewBox="0 0 17 22" xmlns="http://www.w3.org/2000/svg">
<path d="M8.52119 6.92481C10.0375 6.92481 11.5539 6.92481 13.0702 6.92481C13.7043 6.92481 13.98 7.19811 13.98 7.83354C13.98 8.54412 13.9938 9.25471 13.9731 9.95846C13.9662 10.2249 14.0696 10.3957 14.2626 10.5666C14.7451 10.9902 15.2137 11.4275 15.6687 11.8852C16.4957 12.7188 16.9162 13.7437 16.9575 14.9052C16.992 16.0053 17.0471 17.1121 16.9231 18.2054C16.6887 20.2005 14.8071 21.8949 12.7807 21.9564C10.1202 22.0384 7.45975 21.9769 4.79927 21.9906C3.44146 21.9974 2.24217 21.5806 1.28412 20.5831C0.46392 19.7358 0.057266 18.7178 0.0296962 17.5563C0.00212647 16.504 -0.0185508 15.4587 0.105513 14.4133C0.222685 13.4362 0.650016 12.6095 1.33237 11.8989C1.78727 11.4275 2.26974 10.997 2.766 10.5666C2.9452 10.4162 3.02102 10.2523 3.02102 10.0131C3.00723 9.30254 3.01412 8.59878 3.01412 7.8882C3.01412 7.21177 3.3105 6.92481 3.99974 6.92481C5.50919 6.92481 7.01174 6.92481 8.52119 6.92481ZM8.51429 20.4464C9.85143 20.4464 11.1817 20.4533 12.5188 20.4464C14.1316 20.4328 15.3998 19.1756 15.4205 17.5768C15.4343 16.7295 15.4274 15.8891 15.4136 15.0419C15.3998 14.1741 15.0897 13.4362 14.4556 12.8213C13.9318 12.3157 13.401 11.8169 12.8427 11.3455C12.5464 11.0927 12.4223 10.7989 12.4292 10.4299C12.4292 9.8833 12.4223 9.3367 12.4361 8.79009C12.443 8.54412 12.3534 8.46213 12.1053 8.46213C9.69979 8.46896 7.30122 8.46896 4.89576 8.46213C4.64074 8.46213 4.57182 8.55095 4.57871 8.79009C4.59249 9.39819 4.57871 9.99946 4.5856 10.6076C4.5856 10.8809 4.48221 11.0927 4.27544 11.2771C3.66201 11.8169 3.05548 12.3567 2.47651 12.9306C1.96647 13.4362 1.70456 14.0443 1.62874 14.7549C1.53914 15.6226 1.59428 16.4972 1.58739 17.3649C1.5736 19.1619 2.86249 20.4396 4.66831 20.4396C5.94341 20.4533 7.22541 20.4464 8.51429 20.4464Z"/>
<path d="M0.00212647 4.62224C0.00212647 3.84332 0.470813 3.11907 1.18073 2.86627C2.24906 2.48365 3.33118 2.12835 4.4064 1.76623C6.01923 1.21962 7.63206 0.67302 9.25179 0.133249C10.4304 -0.26304 11.4505 0.242569 11.8571 1.41094C12.0088 1.84822 12.1604 2.27867 12.3051 2.72279C12.4292 3.09858 12.312 3.31039 11.9398 3.4402C8.40401 4.62224 4.87508 5.80427 1.33926 6.9863C0.925714 7.12295 0.725833 7.02046 0.581092 6.61734C0.422566 6.15956 0.264039 5.69495 0.112406 5.23717C0.0434811 5.02536 -0.0116584 4.80672 0.00212647 4.62224Z" />
<path d="M8.81067 19.6334C7.33569 19.6334 6.12951 19.6334 4.92333 19.6334C4.66831 19.6334 4.4064 19.6197 4.15138 19.5787C3.19333 19.4079 2.4903 18.629 2.42827 17.6656C2.36623 16.6749 2.36623 15.6841 2.46962 14.7003C2.52476 14.2015 2.7591 13.7915 3.1244 13.4567C3.68269 12.9375 4.24098 12.4113 4.80616 11.9057C5.17835 11.5778 5.38512 11.1952 5.39202 10.7032C5.39891 10.3752 5.44026 10.3479 5.75732 10.3821C5.97788 10.4094 6.20533 10.4231 6.42588 10.4504C7.25987 10.5597 7.91465 10.9492 8.39023 11.6393C8.64525 12.0151 8.91406 12.384 9.34139 12.5958C10.3821 13.1151 11.4022 13.0604 12.3741 12.425C12.5808 12.2884 12.698 12.2884 12.8703 12.466C13.1874 12.794 13.5251 13.0946 13.8628 13.4021C14.366 13.8598 14.5796 14.4406 14.5934 15.0965C14.6072 15.9301 14.6141 16.7705 14.6003 17.6041C14.5796 18.6495 13.7319 19.5309 12.6773 19.5992C11.2988 19.688 9.92035 19.606 8.81067 19.6334ZM6.34317 16.4084C6.87389 16.4084 7.28055 16.0053 7.28055 15.486C7.28055 14.9804 6.85322 14.5704 6.32939 14.5704C5.79867 14.5773 5.39891 14.9736 5.39891 15.4997C5.4058 16.0189 5.81935 16.4152 6.34317 16.4084ZM10.7612 17.4333C10.7543 17.0097 10.4235 16.6817 10.0031 16.6954C9.61019 16.7022 9.27246 17.0507 9.27246 17.4401C9.27246 17.8432 9.61708 18.1849 10.0237 18.1917C10.4442 18.1917 10.7681 17.8569 10.7612 17.4333ZM11.03 14.6866C11.0231 14.9667 11.2575 15.2127 11.5401 15.2195C11.8227 15.2264 12.0639 14.9941 12.0708 14.7071C12.0777 14.4201 11.8502 14.181 11.5676 14.1741C11.2851 14.1673 11.0369 14.4065 11.03 14.6866Z" />
</svg>
