<svg viewBox="0 0 20 22" xmlns="http://www.w3.org/2000/svg">
<path d="M9.98867 22C7.43909 22 4.88952 22 2.34561 22C1.00283 22 0.00566572 20.9984 0 19.642C0 17.2498 0 14.8517 0 12.4594C0 11.0687 0.991501 10.0614 2.36827 10.05C3.80737 10.0443 5.24079 10.0443 6.67989 10.0557C6.96317 10.0557 7.17847 9.9813 7.37111 9.76955C7.70538 9.40326 8.06799 9.05987 8.41926 8.70503C8.73088 8.39026 9.09348 8.23001 9.54108 8.23573C10.6176 8.24718 11.6941 8.24145 12.7705 8.23573C13.1785 8.23573 13.5127 8.37881 13.8017 8.66497C14.187 9.05415 14.5779 9.4376 14.9575 9.8325C15.1048 9.98703 15.2691 10.0557 15.4844 10.05C16.204 10.0443 16.9292 10.0385 17.6487 10.05C18.7705 10.0614 19.6601 10.7597 19.9263 11.8184C19.9773 12.0188 20 12.2248 20 12.4366C20 14.8403 20 17.244 20 19.642C20 20.9984 19.0028 22 17.6601 22C15.0992 22 12.5439 22 9.98867 22ZM15.8584 15.8132C15.9037 13.4209 14.017 11.0344 11.1501 11.0229C8.35694 11.0115 6.41926 13.2836 6.40227 15.756C6.3796 18.32 8.38527 20.5921 11.1501 20.5807C14.0057 20.5692 15.8924 18.1998 15.8584 15.8132ZM3.4221 14.6343C4.03399 14.6343 4.54391 14.1249 4.54391 13.524C4.54391 12.9116 4.04533 12.4079 3.43343 12.3908C2.83286 12.3736 2.32295 12.8944 2.32295 13.5068C2.31728 14.1306 2.80453 14.6285 3.4221 14.6343Z" />
<path d="M15.915 3.3309C15.8867 3.78875 15.9717 4.36107 15.8754 4.93339C15.7451 5.71747 15.1105 6.32412 14.323 6.42142C14.1417 6.44431 14.0397 6.50727 14.0057 6.69613C13.966 6.885 13.9094 7.06814 13.847 7.25128C13.779 7.46876 13.6714 7.53172 13.4618 7.46876C13.1785 7.38864 12.8952 7.36574 12.6006 7.36574C11.5864 7.37147 10.5779 7.37147 9.56374 7.36574C9.30878 7.36574 9.05382 7.39436 8.8102 7.46304C8.58357 7.52599 8.47592 7.46876 8.40793 7.24556C8.35127 7.06241 8.28895 6.87927 8.24929 6.69041C8.21529 6.51871 8.12464 6.44431 7.949 6.42142C7.16713 6.3184 6.57223 5.78042 6.39659 5.00779C6.35693 4.84754 6.33994 4.68157 6.33994 4.52132C6.33427 3.65139 6.33427 2.77575 6.33994 1.90582C6.3456 0.944326 6.94617 0.206035 7.85269 0.0228928C7.96034 0 8.07932 0 8.19263 0C10.153 0 12.1133 0 14.0737 0C15.0992 0 15.898 0.80697 15.915 1.84859C15.9207 2.30072 15.915 2.75858 15.915 3.3309ZM11.1161 4.55566C11.9207 4.55566 12.7309 4.55566 13.5354 4.55566C13.8924 4.55566 14.0567 4.39541 14.0567 4.03485C14.0623 3.48542 14.0623 2.936 14.0567 2.38085C14.051 2.03746 13.881 1.87148 13.5411 1.87148C11.932 1.87148 10.3286 1.87148 8.71954 1.87148C8.3626 1.87148 8.21529 2.02029 8.21529 2.37512C8.20963 2.92455 8.21529 3.47398 8.21529 4.02912C8.21529 4.42975 8.3456 4.55566 8.73654 4.55566C9.52974 4.55566 10.3229 4.55566 11.1161 4.55566Z" />
<path d="M3.64309 9.19713C3.24649 9.19713 2.84989 9.19713 2.45329 9.19713C1.94337 9.19141 1.73374 8.92814 1.84139 8.41877C1.9717 7.8121 2.44195 7.38286 3.09351 7.31418C3.50144 7.27412 3.91504 7.26839 4.32297 7.33135C4.96887 7.43437 5.45612 7.98952 5.48445 8.6477C5.50144 8.96247 5.28048 9.18568 4.93487 9.1914C4.50994 9.20285 4.07935 9.19713 3.64309 9.19713Z" />
<path d="M14.0906 15.8017C14.0906 17.4672 12.7592 18.8121 11.1218 18.8064C9.49574 18.8007 8.15296 17.4386 8.15862 15.7846C8.16429 14.1477 9.50707 12.7913 11.1275 12.7913C12.7649 12.797 14.0906 14.142 14.0906 15.8017Z" />
</svg>
