<svg width="30" height="30" viewBox="0 0 30 30" fill="none" xmlns="http://www.w3.org/2000/svg">
<path d="M30 13.5568C30 22.5681 24.3805 28.9601 16.9086 29.8799C13.4684 30.3009 10.2462 29.6149 7.28852 27.822C6.93049 27.6038 6.63473 27.5882 6.24557 27.7129C4.82902 28.1962 3.3969 28.6483 1.96479 29.1004C1.73129 29.1784 1.46666 29.3811 1.24873 29.194C1.0308 28.9913 1.24873 28.7263 1.32656 28.4924C1.77799 27.1049 2.24498 25.7173 2.71198 24.3298C2.83651 23.9712 2.82094 23.6906 2.60301 23.3476C-0.401316 18.6705 -0.852744 13.6972 1.49779 8.66148C3.78606 3.75052 7.75552 0.866306 13.1259 0.14915C17.9827 -0.505645 22.2168 1.00662 25.6725 4.46768C28.5679 7.36748 29.9689 10.9221 30 13.5568ZM19.8818 23.3008C20.053 23.3008 20.2398 23.332 20.4111 23.3008C22.6059 22.9266 23.9291 21.773 24.0069 19.6839C24.0225 19.3253 23.9758 19.0291 23.6022 18.8576C22.4814 18.3275 21.3606 17.7818 20.2398 17.2518C19.7884 17.0335 19.3992 17.1738 19.119 17.5636C18.8233 17.9533 18.5431 18.3431 18.2473 18.7328C17.7492 19.372 17.4223 19.4656 16.6751 19.1694C14.2 18.1716 12.3788 16.4255 10.9933 14.1649C10.7754 13.8063 10.7754 13.4633 11.0556 13.1515C11.3514 12.7929 11.6783 12.4499 11.974 12.0914C12.2542 11.7484 12.3632 11.3898 12.1764 10.9533C11.6938 9.83076 11.2424 8.69266 10.7598 7.55457C10.6664 7.32071 10.5263 7.05567 10.2617 7.02449C9.42113 6.89977 8.5961 6.82182 7.89561 7.47661C6.6036 8.69266 6.19887 10.1893 6.4635 11.8887C6.69699 13.4321 7.53758 14.7105 8.40931 15.9578C10.8844 19.4656 14.0288 22.0068 18.2629 23.0826C18.8077 23.2073 19.337 23.332 19.8818 23.3008Z" fill="#68B262"/>
</svg>
