<svg width="50" height="50" viewBox="0 0 50 50" fill="none" xmlns="http://www.w3.org/2000/svg">
    <circle cx="25" cy="25" r="25" fill="#cccccc" />
    <path d="M26.1545 20.5224C26.1545 21.4294 26.1531 22.3378 26.1545 23.2448C26.1545 23.4887 26.1642 23.7436 26.407 23.8806C26.6721 24.0313 26.9094 23.897 27.13 23.7504C27.7919 23.3079 28.2331 22.6653 28.68 22.0364C29.6763 20.6306 30.5421 19.1468 31.1999 17.5561C31.4344 16.9902 31.7757 16.7162 32.4154 16.7449C33.2813 16.7833 34.1486 16.7463 35.0158 16.7573C35.8886 16.7682 36.2494 17.2779 35.9317 18.0863C35.2156 19.9045 34.1264 21.5116 32.9982 23.0955C32.7693 23.4175 32.5597 23.7532 32.3308 24.0751C32.0075 24.53 32.0879 24.9191 32.464 25.3124C33.3104 26.1947 34.1291 27.1018 34.9728 27.9855C35.6222 28.6665 36.1259 29.4406 36.5422 30.2723C36.8752 30.9381 36.5145 31.6164 35.761 31.6438C34.6356 31.6849 33.5075 31.6616 32.3807 31.6451C31.9894 31.6396 31.7313 31.4067 31.5051 31.0861C30.5449 29.7297 29.3405 28.6034 28.0361 27.5745C27.9681 27.521 27.8932 27.4772 27.8182 27.4333C27.0106 26.9648 26.6179 27.1675 26.5874 28.0855C26.568 28.6665 26.5846 29.2501 26.5791 29.8324C26.5694 30.8888 25.8936 31.541 24.8335 31.5821C22.258 31.6821 20.1641 30.5915 18.2895 28.9967C16.4189 27.4046 15.184 25.3302 13.967 23.2531C13.0456 21.676 12.27 20.0346 11.7801 18.2713C11.4596 17.1149 11.8009 16.6696 13.022 16.6682C13.7505 16.6668 14.4777 16.6737 15.2062 16.6668C15.7806 16.6614 16.1484 16.9094 16.3426 17.4533C16.8519 18.8741 17.3847 20.2867 18.0896 21.6267C18.6599 22.7091 19.3094 23.7381 20.1877 24.6081C20.3098 24.7287 20.4389 24.8479 20.5846 24.937C20.9731 25.1767 21.234 25.074 21.3714 24.6396C21.4074 24.5259 21.4366 24.4053 21.4352 24.2875C21.4158 22.7489 21.524 21.2075 21.3381 19.6702C21.2465 18.9193 20.8205 18.3398 20.4028 17.7492C20.246 17.5287 20.0184 17.3176 20.1697 17.0135C20.3223 16.7052 20.6304 16.7559 20.9023 16.7545C22.2719 16.7518 23.6429 16.7504 25.0125 16.7545C25.8839 16.7573 26.1462 17.0231 26.1503 17.9027C26.1545 18.7755 26.1517 19.6496 26.1517 20.5224H26.1545Z" fill="white" />
</svg>