<svg viewBox="0 0 17 22" xmlns="http://www.w3.org/2000/svg">
<path d="M8.49311 5.74794C10.6537 5.74794 12.8143 5.74794 14.9671 5.74794C15.517 5.74794 15.627 5.85313 15.5642 6.3866C15.4306 7.52116 15.2813 8.65573 15.1399 9.79029C14.9513 11.2855 14.7628 12.7882 14.5742 14.2835C14.3621 15.929 14.1578 17.5745 13.9535 19.2275C13.8671 19.9413 13.7728 20.6626 13.6943 21.3764C13.6314 21.9249 13.5528 22 12.9872 22C9.97018 22 6.96105 22 3.94406 22C3.4648 22 3.37052 21.9324 3.31552 21.4891C3.08768 19.7008 2.86769 17.9126 2.6477 16.1243C2.42771 14.3436 2.19987 12.5703 1.97202 10.7896C1.78346 9.31693 1.5949 7.85177 1.4142 6.37909C1.35134 5.84562 1.46134 5.74043 2.01131 5.74043C4.17977 5.74794 6.33251 5.74794 8.49311 5.74794ZM8.14742 16.8531C8.54025 16.8306 8.94094 16.7404 9.30235 16.5526C10.3002 16.0191 11.0937 15.2753 11.6358 14.3135C11.9815 13.7049 12.0444 13.0512 11.7772 12.3825C11.7065 12.2022 11.6201 12.1346 11.408 12.2022C9.25521 12.8934 7.70744 14.2534 6.59178 16.1093C6.51322 16.237 6.53679 16.3122 6.66249 16.3873C7.10247 16.6653 7.58173 16.8306 8.14742 16.8531ZM10.4809 10.8572C9.73448 10.3012 8.9488 10.0908 8.1317 10.3839C6.65464 10.9098 5.63326 11.9091 5.13043 13.3443C4.92616 13.9078 5.04401 14.4638 5.35042 15.0273C6.62321 13.1339 8.26527 11.7063 10.4809 10.8572Z" />
<path d="M8.50098 4.26025C5.88469 4.26025 3.26054 4.26025 0.644252 4.26025C0.0549971 4.26025 0 4.20765 0 3.65916C0 3.3511 0 3.04304 0 2.72746C0 2.36681 0.109994 2.26913 0.494974 2.26161C0.722819 2.26161 0.950664 2.2541 1.17065 2.26161C1.38278 2.27664 1.46921 2.18648 1.50849 1.99864C1.64206 1.45765 1.79133 0.924181 1.9249 0.383197C1.98775 0.120219 2.13703 0 2.43559 0C6.4818 0.00751367 10.5202 0.00751367 14.5664 0C14.8571 0 14.9985 0.120219 15.0614 0.375683C15.1949 0.916667 15.3442 1.45014 15.4778 1.98361C15.5249 2.17896 15.6192 2.26913 15.8392 2.26161C16.0749 2.24659 16.3106 2.2541 16.5463 2.26161C16.8763 2.26913 16.9941 2.38183 16.9941 2.68989C17.002 3.05806 17.002 3.41872 16.9941 3.78689C16.9941 4.15506 16.8841 4.26025 16.507 4.26025C15.1556 4.26025 13.7964 4.26025 12.4451 4.26025C11.133 4.26025 9.81306 4.26025 8.50098 4.26025Z"/>
</svg>
