<svg viewBox="0 0 21 22" xmlns="http://www.w3.org/2000/svg">
<path d="M10.4862 15.1434C13.3641 15.1434 16.2419 15.1434 19.1197 15.1434C19.4402 15.1434 19.4402 15.1434 19.4402 14.8189C19.4402 11.8683 19.4402 8.91779 19.4341 5.96723C19.4341 5.76892 19.4885 5.63071 19.6457 5.50451C20.0266 5.19804 20.3954 4.87354 20.7642 4.55505C20.9033 4.43486 20.9698 4.46491 20.9819 4.63918C20.9879 4.72932 21 4.81946 21 4.9096C21 9.056 21 13.2024 21 17.3488C21 18.118 20.6191 18.4966 19.8452 18.4966C17.4632 18.4966 15.0871 18.4966 12.7051 18.4966C12.3907 18.4966 12.3907 18.4966 12.3907 18.8031C12.3907 19.1696 12.3967 19.5362 12.3907 19.9088C12.3846 20.083 12.439 20.1491 12.6204 20.1431C13.0678 20.1311 13.5092 20.1371 13.9566 20.1431C14.3495 20.1431 14.5249 20.3174 14.5309 20.702C14.5309 20.9664 14.537 21.2248 14.5309 21.4892C14.5249 21.7716 14.3858 21.9339 14.1017 21.982C14.0049 22 13.9082 22 13.8115 22C11.5987 22 9.38588 22 7.16705 22C7.07636 22 6.98567 21.994 6.89498 21.982C6.60478 21.9399 6.44759 21.7716 6.44154 21.4832C6.42945 21.2128 6.42945 20.9424 6.44154 20.6719C6.45363 20.3354 6.6471 20.1431 6.98567 20.1431C7.44516 20.1371 7.90464 20.1311 8.37017 20.1431C8.56364 20.1491 8.61806 20.077 8.61201 19.8967C8.59992 19.5242 8.59992 19.1456 8.61201 18.773C8.6241 18.5567 8.5455 18.4906 8.32785 18.4906C6.08484 18.4966 3.84182 18.4966 1.59275 18.4966C1.41742 18.4966 1.24814 18.4966 1.07281 18.4966C0.407761 18.4786 0.00873293 18.0819 0.00268705 17.4149C-0.00335882 15.9306 0.00268705 14.4403 0.00268705 12.956C0.00268705 10.2518 0.00268705 7.54767 0.00268705 4.84349C0.00268705 4.26059 0.268705 3.86999 0.758421 3.75581C0.855155 3.73178 0.951889 3.73178 1.04862 3.73178C4.94821 3.73178 8.8478 3.73178 12.7474 3.73178C12.7837 3.73178 12.826 3.72577 12.8623 3.73178C12.9046 3.73779 12.965 3.73779 12.9832 3.76783C13.0255 3.82192 12.9711 3.86398 12.9348 3.90004C12.7534 4.11036 12.5418 4.30266 12.3907 4.53101C12.0158 5.11391 11.514 5.27015 10.8127 5.26414C7.82 5.22208 4.82729 5.24612 1.83459 5.24612C1.51416 5.24612 1.51416 5.24612 1.51416 5.56461C1.51416 8.62934 1.51416 11.6941 1.51416 14.7588C1.51416 15.1434 1.51416 15.1434 1.91318 15.1434C4.77288 15.1434 7.63258 15.1434 10.4862 15.1434ZM10.462 17.4329C10.8006 17.439 11.0908 17.1685 11.1029 16.832C11.115 16.5015 10.8308 16.207 10.4983 16.195C10.1598 16.183 9.86955 16.4594 9.86351 16.796C9.85746 17.1445 10.1235 17.4269 10.462 17.4329Z" />
<path d="M20.7823 1.89292C20.7944 2.51789 20.5224 3.00464 20.0568 3.40125C19.156 4.17645 18.2612 4.95165 17.3543 5.73286C16.3628 6.58617 15.3713 7.4455 14.3737 8.29882C14.1682 8.47309 14.1742 8.47309 14.0412 8.23272C13.6845 7.57771 13.1948 7.04288 12.5056 6.72439C12.3181 6.63425 12.3423 6.56214 12.4572 6.42993C13.9626 4.69926 15.462 2.96258 16.9674 1.22589C17.1367 1.0336 17.2939 0.83529 17.4692 0.649003C18.0012 0.0901393 18.6481 -0.132204 19.4039 0.0781207C20.1354 0.282436 20.5828 0.775198 20.7582 1.50833C20.7642 1.54439 20.7763 1.58044 20.7763 1.6165C20.7884 1.71265 20.7823 1.80278 20.7823 1.89292Z" />
<path d="M9.07148 12.7277C8.53945 12.7097 8.10415 12.6676 7.67489 12.5835C7.49956 12.5474 7.3726 12.4513 7.31819 12.277C7.26377 12.0967 7.33632 11.9465 7.48142 11.8383C8.15856 11.3336 8.49713 10.6305 8.70873 9.84325C8.78733 9.56081 8.86592 9.27837 8.97475 9.00796C9.3375 8.12459 10.2565 7.55972 11.1452 7.66188C12.1428 7.78206 12.9348 8.52721 13.0799 9.49471C13.1887 10.2098 12.9892 10.8348 12.4813 11.3516C11.6893 12.1568 10.7039 12.5655 9.58538 12.6796C9.37982 12.7037 9.18031 12.7397 9.07148 12.7277Z" />
</svg>
