<svg viewBox="0 0 24 20" xmlns="http://www.w3.org/2000/svg">
<path fill-rule="evenodd" clip-rule="evenodd" d="M8.67204 0.00581111C10.0318 -0.0430854 11.385 0.217108 12.6296 0.766806C13.8743 1.3165 14.978 2.14138 15.8577 3.17935C16.5677 4.01711 17.1169 4.97606 17.4801 6.00776L17.9982 6.00776C19.2727 6.00693 20.5151 6.41213 21.5438 7.1646C22.5726 7.91722 23.3349 8.97809 23.7199 10.1933C24.1049 11.4085 24.0927 12.7147 23.685 13.9225C23.2773 15.1303 22.4953 16.1767 21.4525 16.9099C21.0007 17.2276 20.377 17.1189 20.0593 16.6671C19.7416 16.2153 19.8504 15.5915 20.3021 15.2739C20.9971 14.7852 21.5183 14.0877 21.7901 13.2828C22.0618 12.4779 22.0699 11.6073 21.8133 10.7974C21.5567 9.98749 21.0487 9.28043 20.3629 8.77881C19.6772 8.27718 18.8495 8.0071 17.9998 8.00776H16.7398C16.2832 8.00776 15.8846 7.69855 15.7711 7.25632C15.5082 6.23148 15.0161 5.27964 14.332 4.47246C13.6479 3.66528 12.7895 3.02381 11.8216 2.59632C10.8537 2.16884 9.80137 1.96649 8.74392 2.00452C7.68646 2.04254 6.65141 2.31995 5.7167 2.81585C4.78198 3.31175 3.97195 4.01322 3.34759 4.86745C2.72323 5.72167 2.30081 6.7064 2.11212 7.74748C1.92343 8.78857 1.9734 9.85889 2.25825 10.8779C2.5431 11.8969 3.05543 12.838 3.75665 13.6303C4.12267 14.0439 4.0841 14.6759 3.67052 15.0419C3.25694 15.4079 2.62495 15.3694 2.25893 14.9558C1.35721 13.9369 0.698401 12.7267 0.332096 11.4163C-0.0342092 10.106 -0.0984594 8.72959 0.144182 7.39081C0.386824 6.05203 0.930034 4.78574 1.73291 3.68727C2.53579 2.5888 3.57742 1.68677 4.77937 1.0491C5.98132 0.41142 7.31228 0.0547076 8.67204 0.00581111ZM12.0025 9.00582C12.5548 9.00582 13.0025 9.45354 13.0025 10.0058V16.5859L15.2931 14.2955C15.6836 13.9049 16.3168 13.905 16.7073 14.2955C17.0978 14.686 17.0978 15.3192 16.7073 15.7097L12.7096 19.7071C12.3191 20.0976 11.686 20.0976 11.2954 19.7071L7.29778 15.7097C6.90724 15.3192 6.90723 14.686 7.29774 14.2955C7.68825 13.905 8.32141 13.9049 8.71195 14.2955L11.0025 16.5859V10.0058C11.0025 9.45354 11.4502 9.00582 12.0025 9.00582Z"/>
</svg>
