<svg viewBox="0 0 22 15" xmlns="http://www.w3.org/2000/svg">
<path d="M2.20761 14.9995C1.68352 14.9932 1.23865 14.7605 0.812066 14.4712C0.580491 14.3076 0.361104 14.1252 0.16 13.9177C-0.0532922 13.6912 -0.0593863 13.6912 0.178282 13.5026C1.04364 12.7855 1.75665 11.9364 2.32339 10.9552C2.81701 10.1061 3.17047 9.20035 3.29845 8.20657C3.31063 8.09964 3.30454 8.01788 3.23751 7.92353C2.81701 7.31342 2.96937 6.66558 3.60924 6.33222C3.69456 6.28819 3.74941 6.22529 3.79207 6.13095C3.94442 5.81646 4.09067 5.49568 4.29787 5.20635C4.39538 5.06798 4.3771 5.02395 4.21865 4.97363C3.29235 4.69059 2.37215 4.38868 1.44585 4.09935C1.40319 4.08677 1.36053 4.07419 1.31787 4.05533C1.10458 3.97985 0.988794 3.83518 0.994888 3.60246C1.00098 3.37603 1.12286 3.24395 1.32397 3.17476C2.08573 2.92946 2.85358 2.69045 3.61534 2.45144C6.15656 1.64635 8.69779 0.847546 11.2329 0.0424559C11.4097 -0.014152 11.5681 -0.014152 11.7448 0.0424559C15.0234 1.08656 18.2959 2.11808 21.5746 3.1496C21.6599 3.17476 21.7513 3.19992 21.8244 3.26282C21.9524 3.37603 22.0194 3.52699 21.9951 3.7031C21.9646 3.90437 21.8244 4.00501 21.6477 4.0679C20.569 4.40755 19.4965 4.75349 18.4178 5.09314C16.2057 5.7913 13.9935 6.48946 11.7814 7.19392C11.5925 7.25682 11.4157 7.25682 11.2268 7.19392C9.8191 6.74106 8.40528 6.30077 6.99145 5.8542C6.91832 5.82904 6.79644 5.84162 6.78425 5.74098C6.77816 5.64664 6.89395 5.62777 6.96708 5.59003C8.12495 4.96105 9.36814 4.59625 10.6357 4.31321C10.9709 4.23773 11.3061 4.18741 11.6473 4.11822C11.9581 4.05533 12.1348 3.83518 12.0983 3.57101C12.0556 3.28797 11.8484 3.11186 11.5376 3.1496C10.4955 3.27539 9.49002 3.53328 8.49059 3.86034C7.56429 4.16854 6.67456 4.54593 5.88233 5.13717C5.46793 5.43907 5.12057 5.80388 4.87681 6.26303C4.7854 6.43915 4.75493 6.5901 4.87072 6.78508C5.0962 7.18134 5.03526 7.65936 4.71227 7.97385C4.55992 8.1248 4.54164 8.27576 4.54773 8.47703C4.63914 9.9677 4.61476 11.4458 4.20646 12.8924C4.05411 13.4334 3.83472 13.9428 3.48127 14.3768C3.14609 14.7794 2.7317 15.0121 2.20761 14.9995Z" />
<path d="M11.1049 12.7855C9.78863 12.7541 8.26511 12.276 6.9366 11.2068C6.69284 11.0118 6.48564 10.7854 6.28454 10.5464C5.79092 9.95512 5.65076 9.28212 5.85186 8.52106C5.99202 7.98014 6.15047 7.4518 6.3211 6.91717C6.37595 6.74106 6.45517 6.70961 6.62581 6.75992C8.03354 7.21279 9.45346 7.64678 10.8612 8.10593C11.2939 8.24431 11.7022 8.24431 12.1348 8.10593C13.5243 7.65307 14.9137 7.22537 16.3032 6.77879C16.5165 6.70961 16.614 6.74106 16.6871 6.97378C16.8943 7.65307 17.1259 8.32608 17.2173 9.04311C17.2721 9.45194 17.1564 9.80417 16.9492 10.1375C16.5226 10.8231 15.9193 11.3137 15.2489 11.7163C14.0728 12.427 12.8174 12.7918 11.1049 12.7855Z"/>
</svg>
