<svg viewBox="0 0 20 22" xmlns="http://www.w3.org/2000/svg">
<path fill-rule="evenodd" clip-rule="evenodd" d="M8 1.87891C7.66848 1.87891 7.35054 2.0106 7.11612 2.24502C6.8817 2.47944 6.75 2.79739 6.75 3.12891V4.37891H13.25V3.12891C13.25 2.79739 13.1183 2.47944 12.8839 2.24502C12.6495 2.0106 12.3315 1.87891 12 1.87891H8ZM14.75 4.37891V3.12891C14.75 2.39956 14.4603 1.70009 13.9445 1.18436C13.4288 0.668638 12.7293 0.378906 12 0.378906H8C7.27065 0.378906 6.57118 0.668638 6.05546 1.18436C5.53973 1.70009 5.25 2.39956 5.25 3.12891V4.37891H1C0.585786 4.37891 0.25 4.71469 0.25 5.12891C0.25 5.54312 0.585786 5.87891 1 5.87891H2.25V19.1289C2.25 19.8583 2.53973 20.5577 3.05546 21.0735C3.57118 21.5892 4.27065 21.8789 5 21.8789H15C15.7293 21.8789 16.4288 21.5892 16.9445 21.0735C17.4603 20.5577 17.75 19.8583 17.75 19.1289V5.87891H19C19.4142 5.87891 19.75 5.54312 19.75 5.12891C19.75 4.71469 19.4142 4.37891 19 4.37891H14.75ZM3.75 5.87891V19.1289C3.75 19.4604 3.8817 19.7784 4.11612 20.0128C4.35054 20.2472 4.66848 20.3789 5 20.3789H15C15.3315 20.3789 15.6495 20.2472 15.8839 20.0128C16.1183 19.7784 16.25 19.4604 16.25 19.1289V5.87891H3.75ZM8 9.37891C8.41421 9.37891 8.75 9.71469 8.75 10.1289V16.1289C8.75 16.5431 8.41421 16.8789 8 16.8789C7.58579 16.8789 7.25 16.5431 7.25 16.1289V10.1289C7.25 9.71469 7.58579 9.37891 8 9.37891ZM12 9.37891C12.4142 9.37891 12.75 9.71469 12.75 10.1289V16.1289C12.75 16.5431 12.4142 16.8789 12 16.8789C11.5858 16.8789 11.25 16.5431 11.25 16.1289V10.1289C11.25 9.71469 11.5858 9.37891 12 9.37891Z"/>
</svg>
