<svg width="50" height="50" viewBox="0 0 50 50" fill="none" xmlns="http://www.w3.org/2000/svg">
    <circle cx="25" cy="25" r="25" fill="#cccccc" />
    <path d="M22.38 31.0545C22.38 29.6426 22.355 28.2306 22.39 26.8211C22.4075 26.1227 22.235 25.8011 21.4526 25.8162C20.0052 25.8438 20.0027 25.8011 20.0002 24.2936C20.0002 24.075 20.0002 23.854 20.0002 23.6354C20.0027 22.0375 20.0027 22.0073 21.5451 21.9747C22.2176 21.9596 22.4 21.6782 22.39 21.0576C22.3775 20.1833 22.3325 19.309 22.5325 18.4372C22.945 16.6182 24.0374 15.5253 25.8547 15.1912C27.2146 14.9424 28.5895 15.0077 29.9619 15.0077C30.5693 15.0077 30.7843 15.3042 30.7643 15.8871C30.7393 16.6082 30.7293 17.3317 30.7668 18.0503C30.7993 18.6935 30.5418 18.9774 29.9069 18.9673C29.3769 18.9598 28.847 18.9799 28.317 19C27.6771 19.0226 27.3421 19.3542 27.3446 20.0075C27.3446 20.1004 27.3396 20.1959 27.3346 20.2888C27.2821 21.9621 27.2821 21.9621 28.9145 21.9621C30.8843 21.9621 30.8843 21.9621 30.6043 23.9419C30.3393 25.8187 30.3393 25.8589 28.4495 25.8136C27.5996 25.7935 27.2996 26.0473 27.3121 26.9241C27.3571 29.7456 27.3046 32.5695 27.3421 35.391C27.3521 36.2477 27.0596 36.5818 26.2022 36.5341C25.2073 36.4813 24.2049 36.5115 23.2075 36.519C22.6175 36.5241 22.37 36.2603 22.3775 35.6598C22.3975 34.1247 22.385 32.5871 22.385 31.0495C22.3825 31.0545 22.38 31.0545 22.38 31.0545Z" fill="white" />
</svg>