<svg viewBox="0 0 17 22" xmlns="http://www.w3.org/2000/svg">
    <path d="M3.20593 18.3424C3.17124 17.9066 3.13656 17.4776 3.10881 17.0485C3.00475 15.4823 3.11575 13.9364 3.67073 12.4519C4.19102 11.0354 5.07205 9.86413 6.18201 8.83585C6.83412 8.23658 7.54865 7.70541 8.2285 7.14019C8.56149 6.86099 8.87367 6.57498 9.13728 6.22767C9.35928 5.92804 9.48415 5.59436 9.47027 5.22663C9.4564 4.54564 9.72695 3.98723 10.2264 3.53097C11.4543 2.40054 12.6822 1.27691 13.9101 0.153286C14.028 0.0443282 14.146 -0.0510097 14.3264 0.0307085C14.4998 0.112427 14.5275 0.262244 14.4998 0.41887C14.4027 1.02495 14.6524 1.50845 15.0062 1.98514C15.6236 2.80913 16.1855 3.66717 16.7891 4.49797C17.0111 4.80441 17.0319 5.13129 16.9694 5.47178C16.7613 6.5205 15.9289 7.2151 14.7911 7.29682C14.0072 7.3513 13.6049 7.84842 13.6881 8.61793C13.7297 9.01971 13.8546 9.40107 13.9656 9.78242C14.3125 10.9946 14.3055 12.2203 14.0489 13.4461C13.9934 13.7117 13.9587 13.9841 13.9587 14.2565C13.9656 16.4833 13.9587 18.7169 13.9587 20.9438C13.9587 21.1753 13.9448 21.4068 13.813 21.6043C13.5979 21.9244 13.2233 22.0606 12.8348 21.9584C12.4672 21.8563 12.2244 21.5362 12.2244 21.1344C12.2174 20.2151 12.2244 19.2958 12.2174 18.3765C12.2174 18.2879 12.2452 18.1926 12.1897 18.0972C11.8983 18.4037 11.6833 18.7101 11.7179 19.1732C11.7665 19.8338 11.7318 20.5011 11.7249 21.1617C11.7179 21.543 11.4821 21.8495 11.1352 21.9516C10.7745 22.0606 10.4137 21.9584 10.1779 21.6656C10.0322 21.4886 9.99057 21.2843 9.99057 21.0663C9.98363 20.4807 9.99057 19.8951 9.99057 19.3026C9.99057 19.1596 10.0322 19.037 10.0877 18.9076C10.6427 17.5729 10.6843 16.1905 10.3721 14.8013C10.1501 13.8002 9.48415 13.1329 8.5823 12.6698C8.36725 12.5608 8.14526 12.6153 8.03426 12.7992C7.9302 12.9694 7.97876 13.1873 8.19382 13.2963C9.30378 13.8615 9.72001 14.7945 9.76164 15.9726C9.79632 16.9668 9.72001 17.927 9.27603 18.8327C8.98466 19.4252 8.55455 19.8882 7.9302 20.29C8.20769 20.29 8.40887 20.29 8.61005 20.29C9.07485 20.2968 9.44946 20.6169 9.48415 21.0323C9.52577 21.5158 9.25522 21.8767 8.76267 21.9652C8.64474 21.9857 8.51987 21.9925 8.40194 21.9925C7.47234 21.9925 6.54969 21.9789 5.6201 21.9993C5.14142 22.0129 4.78069 21.829 4.47545 21.5022C4.26039 21.2774 4.08696 21.0255 3.94128 20.7531C3.88578 20.6441 3.80947 20.5624 3.67766 20.5284C2.2139 20.1334 1.32593 19.1255 0.750141 17.8044C0.306157 16.7829 0.125788 15.707 0.0356036 14.6038C-0.0476435 13.6027 0.000917327 12.6153 0.333906 11.6551C0.646082 10.8311 1.07619 10.0684 1.43693 9.27849C1.63117 8.84947 1.84623 8.42726 1.95029 7.971C2.05435 7.52155 2.01966 7.09934 1.66586 6.73841C1.31206 6.37068 1.33287 5.89399 1.68667 5.5535C2.0266 5.22663 2.53995 5.23344 2.89375 5.58755C3.60829 6.3162 3.85109 7.18105 3.64991 8.16848C3.51811 8.81542 3.26143 9.42149 2.977 10.014C2.6787 10.6405 2.35958 11.2533 2.09597 11.8935C1.76298 12.7038 1.70748 13.5415 1.76992 14.3995C1.83929 15.2712 1.94335 16.1292 2.26246 16.9464C2.47058 17.4775 2.7342 17.9679 3.20593 18.3424Z" />
</svg>