<svg width="30" height="30" viewBox="0 0 30 30" fill="none" xmlns="http://www.w3.org/2000/svg">
<circle cx="15" cy="15" r="15" fill="#ED5338"/>
<path fill-rule="evenodd" clip-rule="evenodd" d="M15.0132 7.5C15.379 7.5 15.6756 7.79654 15.6756 8.16235V14.3509H21.8641C22.2299 14.3509 22.5265 14.6474 22.5265 15.0132C22.5265 15.379 22.2299 15.6756 21.8641 15.6756H15.6756V21.8641C15.6756 22.2299 15.379 22.5265 15.0132 22.5265C14.6474 22.5265 14.3509 22.2299 14.3509 21.8641V15.6756H8.16235C7.79654 15.6756 7.5 15.379 7.5 15.0132C7.5 14.6474 7.79654 14.3509 8.16235 14.3509H14.3509V8.16235C14.3509 7.79654 14.6474 7.5 15.0132 7.5Z" fill="white"/>
</svg>
