<svg viewBox="0 0 19 18" xmlns="http://www.w3.org/2000/svg">
<path fill-rule="evenodd" clip-rule="evenodd" d="M15.1667 1.75C14.8317 1.75 14.512 1.88175 14.2775 2.11376L2.62045 13.6482L2.03337 15.9718L4.39714 15.387L16.0558 3.85102C16.1719 3.73622 16.2635 3.60036 16.3258 3.45141C16.3882 3.30247 16.4202 3.14312 16.4202 2.98239C16.4202 2.82166 16.3882 2.66231 16.3258 2.51337C16.2635 2.36442 16.1719 2.22856 16.0558 2.11376C15.9398 1.99894 15.8016 1.90744 15.6489 1.84487C15.4963 1.7823 15.3324 1.75 15.1667 1.75ZM13.2225 1.0475C13.7395 0.53597 14.439 0.25 15.1667 0.25C15.5272 0.25 15.8843 0.320248 16.2178 0.456926C16.5513 0.59361 16.8548 0.794158 17.1109 1.0475C17.3669 1.30086 17.5705 1.60207 17.7095 1.93415C17.8485 2.26624 17.9202 2.62246 17.9202 2.98239C17.9202 3.34232 17.8485 3.69854 17.7095 4.03063C17.5705 4.36271 17.3669 4.66392 17.1109 4.91728L5.30531 16.5986C5.20919 16.6937 5.08915 16.7611 4.95789 16.7935L1.18011 17.7281C0.924373 17.7913 0.654191 17.7158 0.468368 17.529C0.282544 17.3423 0.208331 17.0717 0.272866 16.8163L1.21731 13.0783C1.25078 12.9458 1.31981 12.825 1.41694 12.7288L13.2225 1.0475ZM8.75002 17C8.75002 16.5858 9.0858 16.25 9.50002 16.25H18C18.4142 16.25 18.75 16.5858 18.75 17C18.75 17.4142 18.4142 17.75 18 17.75H9.50002C9.0858 17.75 8.75002 17.4142 8.75002 17Z"/>
</svg>
