<svg viewBox="0 0 16 16" xmlns="http://www.w3.org/2000/svg">
<path fill-rule="evenodd" clip-rule="evenodd" d="M1.07107 0.927223C1.41535 0.582944 1.97353 0.582944 2.31781 0.927223L8.14214 6.75155L13.9665 0.927223C14.3107 0.582944 14.8689 0.582945 15.2132 0.927223C15.5575 1.2715 15.5575 1.82969 15.2132 2.17397L9.38888 7.99829L15.2132 13.8226C15.5575 14.1669 15.5575 14.7251 15.2132 15.0694C14.8689 15.4136 14.3107 15.4136 13.9665 15.0694L8.14214 9.24503L2.31781 15.0694C1.97353 15.4136 1.41535 15.4136 1.07107 15.0694C0.726789 14.7251 0.726789 14.1669 1.07107 13.8226L6.89539 7.99829L1.07107 2.17397C0.726789 1.82969 0.726789 1.2715 1.07107 0.927223Z"/>
</svg>
