<svg viewBox="0 0 23 24" xmlns="http://www.w3.org/2000/svg">
<path d="M0.5 14.4782C0.5 11.4661 0.5 8.44583 0.5 5.43367C0.5 4.91545 0.5 4.91545 1.02873 4.91545C2.44142 4.91545 3.85411 4.90736 5.27507 4.92355C5.51465 4.92355 5.61378 4.85877 5.67161 4.62395C6.25817 2.30816 7.73695 0.826375 10.0749 0.186697C12.6277 -0.501564 15.5274 0.769694 16.7584 3.06929C17.0227 3.56322 17.2375 4.08144 17.3532 4.62395C17.4027 4.85068 17.5101 4.91545 17.7332 4.91545C19.1789 4.90736 20.6247 4.91545 22.0704 4.91545C22.5 4.91545 22.5 4.92355 22.5 5.33651C22.5 7.9438 22.5 10.5592 22.5 13.1665C22.5 13.6523 22.2604 14.0005 21.8474 14.1301C21.4591 14.2596 21.0377 14.1462 20.7734 13.8466C20.5916 13.6361 20.5421 13.3851 20.5421 13.1098C20.5421 11.1584 20.5421 9.20696 20.5421 7.24744C20.5421 6.81829 20.5421 6.81829 20.0959 6.81829C19.3772 6.81829 18.6502 6.81829 17.9315 6.81829C17.4854 6.81829 17.4854 6.81829 17.4854 7.27173C17.4854 8.43773 17.4854 9.59563 17.4854 10.7616C17.4854 11.1989 17.2375 11.539 16.841 11.6685C16.4444 11.8062 16.0231 11.6847 15.7587 11.3608C15.5852 11.1422 15.5357 10.8912 15.5357 10.6159C15.5357 9.47417 15.5274 8.33247 15.5439 7.18267C15.5439 6.89117 15.4613 6.8021 15.1639 6.8021C12.7186 6.81019 10.2732 6.81019 7.81956 6.8021C7.53868 6.8021 7.4478 6.88307 7.4478 7.16647C7.46433 8.33247 7.45606 9.49036 7.45606 10.6564C7.45606 11.296 7.06778 11.7252 6.49775 11.7252C5.92771 11.7171 5.52291 11.2879 5.51465 10.6564C5.50638 9.51465 5.51465 8.37295 5.51465 7.22315C5.51465 6.81829 5.51465 6.81019 5.10984 6.81019C4.37458 6.81019 3.64758 6.81019 2.91232 6.81019C2.48273 6.81019 2.48273 6.81019 2.48273 7.23125C2.48273 11.377 2.48273 15.5309 2.48273 19.6766C2.48273 20.3163 2.48273 20.9479 2.48273 21.5876C2.48273 22.0815 2.48273 22.0815 2.97015 22.0815C5.7377 22.0815 8.50526 22.0815 11.2728 22.0815C11.4463 22.0815 11.6198 22.0815 11.7933 22.1382C12.2724 22.2839 12.5451 22.6969 12.479 23.1908C12.4211 23.628 12.0411 23.9681 11.5702 23.9924C11.4959 24.0005 11.4298 23.9924 11.3554 23.9924C7.89392 23.9924 4.44067 23.9924 0.979159 23.9924C0.516523 23.9924 0.516523 23.9924 0.516523 23.539C0.5 20.5268 0.5 17.5066 0.5 14.4782ZM11.4959 4.90736C12.669 4.90736 13.8504 4.90736 15.0235 4.90736C15.4365 4.90736 15.4448 4.89926 15.3126 4.52679C14.7343 2.96403 13.1729 1.88711 11.4793 1.9033C9.76925 1.92759 8.24916 3.01261 7.68738 4.59966C7.58825 4.88306 7.67912 4.92355 7.93522 4.91545C9.12486 4.90736 10.3062 4.90736 11.4959 4.90736Z" />
<path d="M18.7327 16.8906C18.7327 17.2711 18.7492 17.6598 18.7245 18.0404C18.7079 18.3157 18.7988 18.4209 19.088 18.4128C19.848 18.3966 20.6163 18.4047 21.3764 18.4128C21.839 18.4209 22.2355 18.5667 22.4173 19.0201C22.6486 19.6031 22.3099 20.2023 21.6738 20.2995C21.0872 20.3885 20.5007 20.3238 19.9141 20.34C19.658 20.3481 19.4019 20.34 19.1375 20.34C18.7162 20.34 18.7162 20.34 18.7162 20.7691C18.7162 21.4979 18.7162 22.2266 18.7162 22.9554C18.7162 23.5869 18.3527 23.9918 17.7661 23.9999C17.2126 24.008 16.783 23.5869 16.7665 22.9796C16.75 22.2833 16.7583 21.5869 16.7583 20.8825C16.7583 20.3319 16.7583 20.3319 16.2047 20.3319C15.5108 20.3319 14.8251 20.34 14.1311 20.3238C13.462 20.3076 13.0489 19.9594 13.0241 19.4169C12.9993 18.8906 13.3215 18.4938 13.8585 18.4209C14.4781 18.34 15.0977 18.4047 15.7173 18.3885C15.9404 18.3804 16.1717 18.3804 16.3948 18.3885C16.6591 18.4047 16.7583 18.3076 16.7583 18.0404C16.7417 17.2954 16.75 16.5424 16.7583 15.7974C16.7665 15.1416 17.1796 14.7124 17.7661 14.7286C18.2866 14.7367 18.6914 15.1173 18.6997 15.6274C18.741 16.0566 18.7327 16.4776 18.7327 16.8906Z" />
</svg>
