<svg width="14" height="8" viewBox="0 0 14 8" fill="none" xmlns="http://www.w3.org/2000/svg">
<path d="M0.999787 0.207031H12.1718C12.3695 0.207073 12.5628 0.265745 12.7272 0.375629C12.8917 0.485514 13.0198 0.641677 13.0955 0.824377C13.1711 1.00708 13.1909 1.20811 13.1524 1.40206C13.1138 1.59602 13.0186 1.77418 12.8788 1.91403L7.29279 7.50003C7.10526 7.6875 6.85095 7.79282 6.58579 7.79282C6.32062 7.79282 6.06631 7.6875 5.87879 7.50003L0.292787 1.91403C0.152977 1.77418 0.057771 1.59602 0.0192034 1.40206C-0.0193641 1.20811 0.000439122 1.00708 0.0761092 0.824377C0.151779 0.641677 0.279919 0.485514 0.444329 0.375629C0.608738 0.265745 0.802037 0.207073 0.999787 0.207031Z" fill="#374957"/>
</svg>
