<svg viewBox="0 0 22 21"  xmlns="http://www.w3.org/2000/svg">
<path d="M0.00247878 5.68383C-0.0171342 5.14742 0.0809308 4.59229 0.25091 4.05588C0.368588 3.68788 0.636633 3.61926 0.92429 3.89371C1.77419 4.70456 2.62408 5.51542 3.47398 6.32628C4.05583 6.87516 4.79459 6.8814 5.38298 6.33251C5.80139 5.93956 6.2198 5.54661 6.63168 5.14118C7.21353 4.57358 7.20699 3.875 6.62514 3.31987C5.78832 2.51525 4.95149 1.71687 4.11467 0.91849C3.78779 0.606622 3.85317 0.344653 4.30427 0.226144C6.83434 -0.428779 9.8286 0.288517 11.3519 3.03919C12.1299 4.4426 11.888 5.76491 10.8746 6.9812C10.7373 7.14961 10.7569 7.21822 10.9138 7.3492C12.6856 8.80251 14.4507 10.262 16.2159 11.7216C17.8242 13.0501 19.439 14.3662 21.0276 15.701C22.2044 16.6928 22.3286 18.6201 21.3153 19.8114C20.1124 21.2211 18.0464 21.4082 16.6147 20.2044C16.2159 19.8676 15.889 19.4434 15.536 19.0567C13.6858 17.0171 11.8422 14.9775 9.99204 12.9379C9.23367 12.1021 8.46876 11.2663 7.71693 10.4242C7.5731 10.262 7.49465 10.2433 7.31159 10.3806C6.55322 10.9669 5.69679 11.3224 4.69653 11.2538C3.78779 11.1914 3.01634 10.8109 2.32335 10.287C0.773924 9.12685 0.00247878 7.59246 0.00247878 5.68383ZM20.0012 17.7968C20.0077 17.0982 19.3867 16.5056 18.6348 16.4994C17.9222 16.4932 17.2881 17.092 17.2881 17.7843C17.2815 18.4891 17.9157 19.0879 18.6479 19.0817C19.3801 19.0817 20.0012 18.4891 20.0012 17.7968Z"/>
<path d="M5.13608 13.4816C5.7637 13.4816 6.39132 13.4878 7.02547 13.4816C7.30005 13.4753 7.49618 13.5751 7.63347 13.7997C8.26763 14.8351 8.90178 15.8705 9.54247 16.9059C9.67976 17.1304 9.67976 17.3425 9.54247 17.5671C8.90178 18.6087 8.26109 19.6503 7.6204 20.692C7.49618 20.8978 7.31313 20.9976 7.05816 20.9976C5.77677 20.9914 4.49539 20.9914 3.20747 20.9976C2.93289 20.9976 2.7433 20.8916 2.606 20.6733C1.97839 19.6503 1.35731 18.6274 0.723156 17.6107C0.566252 17.355 0.57279 17.118 0.729694 16.8622C1.35731 15.858 1.97185 14.8476 2.58639 13.8371C2.73676 13.5876 2.93943 13.4753 3.2467 13.4816C3.87431 13.4878 4.50193 13.4816 5.13608 13.4816ZM5.10993 15.384C4.08352 15.3715 3.1944 16.2135 3.17478 17.2178C3.15517 18.2157 4.03775 19.0765 5.09032 19.089C6.16903 19.1014 7.05816 18.2532 7.05816 17.2178C7.0647 16.226 6.17557 15.3902 5.10993 15.384Z"/>
</svg>
