<svg viewBox="0 0 19 19" xmlns="http://www.w3.org/2000/svg">
<path fill-rule="evenodd" clip-rule="evenodd" d="M12.6543 2.42094C11.1277 1.74075 9.42218 1.57224 7.79205 1.94055C6.16191 2.30886 4.6945 3.19425 3.60867 4.46467C2.52284 5.73509 1.87676 7.32247 1.7668 8.99008C1.65684 10.6577 2.08888 12.3162 2.9985 13.7182C3.90811 15.1202 5.24655 16.1906 6.81421 16.7697C8.38188 17.3489 10.0948 17.4058 11.6974 16.932C13.3 16.4581 14.7066 15.4789 15.7072 14.1403C16.7079 12.8018 17.249 11.1757 17.25 9.50443V8.72286C17.25 8.30865 17.5858 7.97286 18 7.97286C18.4142 7.97286 18.75 8.30865 18.75 8.72286V9.50486C18.7489 11.4996 18.103 13.4409 16.9086 15.0385C15.7143 16.6361 14.0355 17.8048 12.1227 18.3704C10.2099 18.936 8.16546 18.868 6.29438 18.1768C4.4233 17.4855 2.82581 16.2079 1.74014 14.5346C0.654471 12.8612 0.138807 10.8818 0.270051 8.89138C0.401295 6.90101 1.17242 5.00639 2.46841 3.49009C3.7644 1.97378 5.51583 0.917023 7.46147 0.477429C9.40712 0.0378361 11.4427 0.238956 13.2648 1.05079C13.6431 1.21938 13.8132 1.66276 13.6446 2.04112C13.476 2.41947 13.0326 2.58952 12.6543 2.42094ZM18.5301 2.17427C18.8231 2.46702 18.8233 2.94189 18.5306 3.23493L10.0306 11.7434C9.88997 11.8842 9.69917 11.9633 9.50019 11.9634C9.30121 11.9634 9.11037 11.8844 8.96967 11.7437L6.41967 9.19369C6.12678 8.9008 6.12678 8.42593 6.41967 8.13303C6.71257 7.84014 7.18744 7.84014 7.48033 8.13303L9.49974 10.1524L17.4694 2.1748C17.7622 1.88176 18.237 1.88152 18.5301 2.17427Z"/>
</svg>
