<svg viewBox="0 0 33 18" xmlns="http://www.w3.org/2000/svg">
<path fill-rule="evenodd" clip-rule="evenodd" d="M33 8.71753C33 8.16524 32.5523 7.71753 32 7.71753L1 7.71753C0.447716 7.71753 3.4048e-08 8.16525 7.60483e-08 8.71753C1.18049e-07 9.26982 0.447716 9.71753 1 9.71753L32 9.71753C32.5523 9.71753 33 9.26981 33 8.71753Z" />
<path fill-rule="evenodd" clip-rule="evenodd" d="M8.67183 0.259307C8.26275 -0.111738 7.63034 -0.0809054 7.25929 0.328172L0.259292 8.0457C-0.086441 8.42687 -0.086441 9.0082 0.259292 9.38937L7.25929 17.1069C7.63034 17.516 8.26275 17.5468 8.67183 17.1758C9.08091 16.8047 9.11174 16.1723 8.74069 15.7632L2.35007 8.71754L8.74069 1.67184C9.11174 1.26276 9.08091 0.630351 8.67183 0.259307Z" />
</svg>
