<svg viewBox="0 0 22 22" xmlns="http://www.w3.org/2000/svg">
<path fill-rule="evenodd" clip-rule="evenodd" d="M6.30009 1.05462C8.54474 -0.00613678 11.0822 -0.276376 13.4999 0.287845C15.9176 0.852065 18.0734 2.21756 19.6166 4.1623C21.1599 6.10704 21.9999 8.51665 22 10.9993V11.9994C22 13.0602 21.5786 14.0777 20.8284 14.8278C20.0783 15.578 19.0609 15.9994 18 15.9994C16.9391 15.9994 15.9217 15.578 15.1716 14.8278C15.0128 14.669 14.8687 14.4983 14.7403 14.3176C13.8244 15.3493 12.4881 15.9994 11 15.9994C8.23859 15.9994 6.00001 13.7608 6.00001 10.9994C6.00001 8.23796 8.23859 5.99938 11 5.99938C12.1256 5.99938 13.1644 6.37133 14 6.99901C14.0002 6.4469 14.4478 5.99938 15 5.99938C15.5523 5.99938 16 6.4471 16 6.99938V11.9994C16 12.5298 16.2107 13.0385 16.5858 13.4136C16.9609 13.7887 17.4696 13.9994 18 13.9994C18.5304 13.9994 19.0392 13.7887 19.4142 13.4136C19.7893 13.0385 20 12.5298 20 11.9994V10.9994C20 10.9994 20 10.9995 20 10.9994C19.9999 8.96819 19.3126 6.99666 18.05 5.40552C16.7873 3.81437 15.0235 2.69715 13.0454 2.23551C11.0673 1.77388 8.99115 1.99498 7.15462 2.86287C5.3181 3.73077 3.82917 5.1944 2.92994 7.01579C2.03072 8.83718 1.77408 10.9092 2.20176 12.8949C2.62944 14.8807 3.71629 16.6634 5.28558 17.9531C6.85487 19.2428 8.8143 19.9638 10.8453 19.9987C12.8762 20.0336 14.8593 19.3805 16.472 18.1454C16.9105 17.8097 17.5382 17.8929 17.874 18.3314C18.2097 18.7699 18.1265 19.3975 17.688 19.7333C15.7169 21.2428 13.2932 22.0411 10.8109 21.9984C8.32859 21.9557 5.93372 21.0745 4.0157 19.4982C2.09768 17.9219 0.769317 15.7431 0.246595 13.316C-0.276127 10.889 0.03754 8.35656 1.13659 6.13041C2.23565 3.90427 4.05545 2.11538 6.30009 1.05462ZM14 10.9994C14 9.34253 12.6569 7.99938 11 7.99938C9.34316 7.99938 8.00001 9.34253 8.00001 10.9994C8.00001 12.6562 9.34316 13.9994 11 13.9994C12.6569 13.9994 14 12.6562 14 10.9994Z"/>
</svg>
