<svg viewBox="0 0 12 12" xmlns="http://www.w3.org/2000/svg">
<path fill-rule="evenodd" clip-rule="evenodd" d="M0.9191 0.900725C1.17776 0.64206 1.59714 0.64206 1.85581 0.900724L6.23175 5.27667L10.6077 0.900725C10.8664 0.642059 11.2857 0.64206 11.5444 0.900725C11.8031 1.15939 11.8031 1.57877 11.5444 1.83743L7.16846 6.21338L11.5444 10.5893C11.8031 10.848 11.8031 11.2674 11.5444 11.526C11.2857 11.7847 10.8664 11.7847 10.6077 11.526L6.23175 7.15009L1.85581 11.526C1.59714 11.7847 1.17776 11.7847 0.9191 11.526C0.660435 11.2674 0.660435 10.848 0.919099 10.5893L5.29505 6.21338L0.919099 1.83743C0.660435 1.57877 0.660435 1.15939 0.9191 0.900725Z"/>
</svg>
