<svg viewBox="0 0 26 25" xmlns="http://www.w3.org/2000/svg">
<path fill-rule="evenodd" clip-rule="evenodd" d="M24.5016 0.291478C24.8929 0.68122 24.8942 1.31438 24.5044 1.70569L22.7991 3.41786L25.7085 6.33897C26.0972 6.72917 26.0972 7.36015 25.7085 7.75035L21.4942 11.9816C21.3065 12.17 21.0516 12.2759 20.7857 12.2759C20.5197 12.2759 20.2648 12.17 20.0771 11.9816L17.1734 9.06618L13.594 12.6599C14.003 13.1886 14.342 13.7699 14.6013 14.3895C14.9903 15.3193 15.1923 16.317 15.1956 17.3253C15.199 18.3335 15.0037 19.3326 14.6209 20.2649C14.238 21.1973 13.6752 22.0447 12.9645 22.7582C12.2538 23.4717 11.4094 24.0373 10.4797 24.4221C9.54995 24.8069 8.55345 25.0033 7.54759 25C6.54174 24.9966 5.54658 24.7935 4.61945 24.4024C3.69233 24.0113 2.85168 23.4401 2.14579 22.7218L2.13831 22.7142C0.750274 21.2713 -0.0170594 19.3396 0.00028785 17.3353C0.0176351 15.3309 0.818334 13.4129 2.23118 11.9944C3.64415 10.5757 5.55639 9.7703 7.55627 9.75285C9.22446 9.73829 10.8412 10.273 12.1658 11.2597L23.0874 0.294311C23.4771 -0.0969948 24.1103 -0.0982629 24.5016 0.291478ZM11.559 13.3665C11.5482 13.3569 11.5376 13.3471 11.5272 13.3369C10.4665 12.3084 9.04666 11.7399 7.57372 11.7528C6.10078 11.7656 4.69099 12.3588 3.64822 13.4057C2.60532 14.4528 2.01304 15.8701 2.00021 17.3526C1.9874 18.8332 2.55366 20.259 3.57598 21.3238C4.09622 21.8521 4.71499 22.2721 5.39673 22.5596C6.08009 22.8479 6.81335 22.9975 7.55432 23C8.29529 23.0025 9.02953 22.8578 9.71479 22.5741C10.4001 22.2905 11.0229 21.8735 11.5475 21.3468C12.072 20.8202 12.4878 20.1944 12.7708 19.5053C13.0537 18.8162 13.1981 18.0775 13.1957 17.3319C13.1932 16.5863 13.0438 15.8487 12.7563 15.1615C12.4757 14.491 12.0691 13.8816 11.559 13.3665ZM18.5847 7.64913L20.7857 9.85887L23.5886 7.04466L21.3877 4.83492L18.5847 7.64913Z"/>
</svg>
