<svg viewBox="0 0 13 22" xmlns="http://www.w3.org/2000/svg">
<path d="M6.52871 8.73722C5.78528 8.75681 5.04184 8.81559 4.29841 8.93314C3.78476 9.01804 3.49415 9.42295 3.58876 9.91276C3.62932 10.1348 3.69014 10.3634 3.71042 10.5854C3.74421 10.8597 3.62256 10.9773 3.3387 10.9903C3.07512 10.9969 2.8183 10.9903 2.55471 10.9903C2.19651 10.9903 2.10865 10.912 2.04107 10.5854C1.8248 9.49479 1.60852 8.40415 1.39225 7.32003C0.973224 5.22365 0.547439 3.12726 0.128412 1.03087C0.0608265 0.691268 0.141929 0.397382 0.425786 0.175335C0.682609 -0.0205893 0.966466 -0.0401817 1.25708 0.0904344C1.50039 0.194927 1.66259 0.384321 1.72342 0.639022C1.77073 0.828415 1.85183 0.854538 2.02755 0.7827C3.74421 0.13615 5.52845 -0.0793665 7.35325 0.0251264C8.62385 0.0969652 9.86065 0.358197 11.0434 0.815354C11.1988 0.874131 11.3002 0.893723 11.3543 0.691268C11.503 0.175335 11.922 -0.0793665 12.3951 0.038188C12.8479 0.149212 13.0777 0.554121 12.9763 1.08312C12.7398 2.25866 12.4965 3.43421 12.2599 4.60975C11.8612 6.56899 11.4692 8.52823 11.0704 10.494C10.9758 10.9512 10.9217 10.9969 10.4351 10.9969C10.2053 10.9969 9.97555 11.0034 9.75252 10.9903C9.4619 10.9773 9.34025 10.8336 9.3808 10.5593C9.41459 10.3438 9.4619 10.1283 9.50245 9.91276C9.59031 9.42948 9.30646 9.03764 8.80633 8.9462C8.05613 8.80906 7.29918 8.75681 6.52871 8.73722ZM6.65037 1.59252C5.94748 1.59252 5.41356 1.6317 4.87288 1.69048C4.08213 1.77538 3.31167 1.95171 2.55471 2.18682C2.23706 2.28478 2.11541 2.5003 2.17624 2.80725C2.23031 3.10113 2.28437 3.40155 2.35196 3.69544C2.4263 4.02851 2.6223 4.16566 2.97374 4.11994C3.08864 4.10688 3.20353 4.07422 3.31842 4.0481C4.17 3.83912 5.03508 3.71503 5.92045 3.68238C7.3127 3.63013 8.68467 3.77381 10.0296 4.133C10.4486 4.24403 10.6717 4.10688 10.7663 3.68891C10.8204 3.4538 10.8609 3.21216 10.9082 2.97052C11.0028 2.49377 10.915 2.34356 10.4284 2.19335C9.14425 1.78844 7.8331 1.60558 6.65037 1.59252ZM6.40706 5.26283C6.1232 5.24324 5.72445 5.27589 5.33246 5.31508C4.63633 5.38038 3.94021 5.47835 3.26436 5.66121C2.95346 5.74611 2.82505 5.94856 2.87236 6.24898C2.8994 6.42531 2.93319 6.60165 2.96698 6.77798C3.0616 7.30697 3.26436 7.44412 3.80504 7.3331C4.56875 7.18289 5.33246 7.07839 6.10969 7.0588C7.23836 7.02615 8.34675 7.13064 9.45514 7.35922C9.79307 7.43106 10.0093 7.28738 10.0972 6.96737C10.1513 6.77798 10.1851 6.58858 10.2256 6.39266C10.3135 5.9551 10.1783 5.75264 9.73224 5.64162C8.67116 5.39998 7.60331 5.26283 6.40706 5.26283Z" />
<path d="M6.49492 15.6991C4.6093 15.6991 2.73043 15.6991 0.844813 15.6991C0.216272 15.6991 0 15.4901 0 14.8958C0 14.3602 0 13.8182 0 13.2827C0 12.7928 0.243306 12.5512 0.743435 12.5512C4.57551 12.5512 8.41433 12.5512 12.2464 12.5512C12.733 12.5512 12.9831 12.7863 12.9898 13.2565C12.9966 13.8378 12.9966 14.4125 12.9898 14.9937C12.9831 15.4639 12.7398 15.6991 12.2464 15.6991C10.3337 15.6991 8.41433 15.6991 6.49492 15.6991Z"/>
<path d="M12.0301 19.291C12.0301 20.0159 12.0301 20.7408 12.0301 21.4658C12.0301 21.8315 11.9558 21.9425 11.699 21.9621C11.2597 22.0013 11.138 21.9229 11.0772 21.5245C10.8947 20.2837 10.7257 19.0363 10.55 17.7954C10.5162 17.5342 10.4689 17.2795 10.4486 17.0183C10.4284 16.7113 10.523 16.6134 10.8339 16.6134C11.0975 16.6068 11.3543 16.6068 11.6179 16.6134C11.922 16.6199 12.0234 16.7113 12.0234 17.0117C12.0301 17.7759 12.0301 18.5334 12.0301 19.291Z" />
<path d="M1.60176 16.6134C1.73018 16.6134 1.85183 16.6134 1.98024 16.6134C2.31817 16.6199 2.4263 16.7179 2.39251 17.0509C2.35196 17.4232 2.29113 17.7954 2.24382 18.1677C2.08162 19.3041 1.91941 20.4404 1.75045 21.5768C1.69638 21.936 1.29763 22.1123 0.973224 21.9229C0.817779 21.8315 0.817779 21.6878 0.817779 21.5376C0.817779 20.2314 0.817779 18.9318 0.817779 17.6256C0.817779 17.4167 0.81102 17.2011 0.817779 16.9922C0.824537 16.7244 0.925915 16.6264 1.20301 16.6199C1.33818 16.6068 1.46659 16.6134 1.60176 16.6134Z" />
</svg>
