<svg width="102" height="90" viewBox="0 0 102 90" fill="none" xmlns="http://www.w3.org/2000/svg">
<path fill-rule="evenodd" clip-rule="evenodd" d="M69.2812 7L94.1635 7.08254C98.1132 7.09567 101.344 10.3025 101.344 14.2377V66.6514C101.344 70.5869 98.1132 73.8065 94.1635 73.8065H76.6697V89.1144L61.4728 73.8065H18.1807C14.2313 73.8065 11 70.5866 11 66.6514V26.5501V14.2377C11 10.3022 14.2313 7.08902 18.1807 7.08254L69.2812 7Z" fill="#ECDDD0"/>
<path fill-rule="evenodd" clip-rule="evenodd" d="M54.5169 1.99716C54.5185 2.82559 53.8482 3.49843 53.0197 3.5L9.1835 3.58288C9.18349 3.58288 9.1835 3.58288 9.1835 3.58288C6.05256 3.58883 3.5 6.13831 3.5 9.23766V21.5501C3.5 22.3786 2.82843 23.0501 2 23.0501C1.17157 23.0501 0.5 22.3786 0.5 21.5501V9.23766C0.5 4.466 4.40996 0.591939 9.1778 0.582881L53.0141 0.500003C53.8425 0.498437 54.5153 1.16874 54.5169 1.99716ZM58.7816 1.995C58.7843 1.16658 59.4581 0.497249 60.2866 0.500009L85.1686 0.582886C85.1687 0.582886 85.1686 0.582886 85.1686 0.582886C89.933 0.598389 93.8444 4.46462 93.8444 9.23766V61.6514C93.8444 66.4204 89.9365 70.3066 85.1638 70.3066H69.17V84.1144C69.17 84.7221 68.8033 85.2697 68.2415 85.5013C67.6796 85.7328 67.0336 85.6025 66.6055 85.1712L51.8486 70.3066H9.18065C4.40828 70.3066 0.5 66.4205 0.5 61.6514V39.0567C0.5 38.2283 1.17157 37.5567 2 37.5567C2.82843 37.5567 3.5 38.2283 3.5 39.0567V61.6514C3.5 64.7534 6.05492 67.3066 9.18065 67.3066H52.4731C52.8729 67.3066 53.256 67.4661 53.5377 67.7498L66.17 80.4744V68.8066C66.17 67.9781 66.8416 67.3066 67.67 67.3066H85.1638C88.2898 67.3066 90.8444 64.7535 90.8444 61.6514V9.23766C90.8444 6.14042 88.2932 3.59302 85.1589 3.58287L60.2766 3.49999C59.4481 3.49723 58.7788 2.82343 58.7816 1.995ZM2 27.4483C2.82843 27.4483 3.5 28.1199 3.5 28.9483V31.6454C3.5 32.4738 2.82843 33.1454 2 33.1454C1.17157 33.1454 0.5 32.4738 0.5 31.6454V28.9483C0.5 28.1199 1.17157 27.4483 2 27.4483Z" fill="#556269"/>
<path d="M27.3415 39.3549C30.7079 39.3549 33.4369 36.6357 33.4369 33.2815C33.4369 29.9272 30.7079 27.208 27.3415 27.208C23.9751 27.208 21.2461 29.9272 21.2461 33.2815C21.2461 36.6357 23.9751 39.3549 27.3415 39.3549Z" fill="#FEFEFE"/>
<path d="M47.5456 39.3549C50.912 39.3549 53.641 36.6357 53.641 33.2815C53.641 29.9272 50.912 27.208 47.5456 27.208C44.1792 27.208 41.4502 29.9272 41.4502 33.2815C41.4502 36.6357 44.1792 39.3549 47.5456 39.3549Z" fill="#FEFEFE"/>
<path d="M67.7536 39.3549C71.12 39.3549 73.849 36.6357 73.849 33.2815C73.849 29.9272 71.12 27.208 67.7536 27.208C64.3872 27.208 61.6582 29.9272 61.6582 33.2815C61.6582 36.6357 64.3872 39.3549 67.7536 39.3549Z" fill="#FEFEFE"/>
</svg>
