<svg viewBox="0 0 17 19" xmlns="http://www.w3.org/2000/svg">
<path fill-rule="evenodd" clip-rule="evenodd" d="M13.5 1.5C12.3954 1.5 11.5 2.39543 11.5 3.5C11.5 3.85298 11.5914 4.18461 11.7519 4.47248C11.7595 4.48338 11.7667 4.49466 11.7735 4.50632C11.7803 4.51788 11.7865 4.5296 11.7922 4.54146C12.1435 5.11632 12.777 5.5 13.5 5.5C14.6046 5.5 15.5 4.60457 15.5 3.5C15.5 2.39543 14.6046 1.5 13.5 1.5ZM11.1964 5.422C11.7468 6.08084 12.5744 6.5 13.5 6.5C15.1569 6.5 16.5 5.15685 16.5 3.5C16.5 1.84315 15.1569 0.5 13.5 0.5C11.8431 0.5 10.5 1.84315 10.5 3.5C10.5 3.8726 10.5679 4.22934 10.6921 4.55851L5.80356 7.41134C5.25325 6.75249 4.42557 6.33333 3.5 6.33333C1.84315 6.33333 0.5 7.67648 0.5 9.33333C0.5 10.9902 1.84315 12.3333 3.5 12.3333C4.42568 12.3333 5.25344 11.9141 5.80375 11.2551L10.6935 14.1045C10.5684 14.4346 10.5 14.7927 10.5 15.1667C10.5 16.8235 11.8431 18.1667 13.5 18.1667C15.1569 18.1667 16.5 16.8235 16.5 15.1667C16.5 13.5098 15.1569 12.1667 13.5 12.1667C12.5759 12.1667 11.7493 12.5845 11.199 13.2416L6.30803 10.3916C6.43211 10.0625 6.5 9.70583 6.5 9.33333C6.5 8.96073 6.43207 8.60399 6.30792 8.27483L11.1964 5.422ZM5.20785 8.29199C5.21356 8.3038 5.21977 8.31549 5.2265 8.32701C5.23328 8.33863 5.24046 8.34988 5.24801 8.36075C5.40853 8.64864 5.5 8.98031 5.5 9.33333C5.5 9.68635 5.40854 10.018 5.24802 10.3059C5.2404 10.3169 5.23317 10.3282 5.22634 10.3399C5.21967 10.3514 5.21351 10.363 5.20784 10.3747C4.85654 10.9496 4.22308 11.3333 3.5 11.3333C2.39543 11.3333 1.5 10.4379 1.5 9.33333C1.5 8.22876 2.39543 7.33333 3.5 7.33333C4.22308 7.33333 4.85654 7.71706 5.20785 8.29199ZM11.7317 14.2315C11.7502 14.2095 11.7671 14.1857 11.782 14.1601C11.7965 14.1352 11.8086 14.1096 11.8184 14.0836C12.1744 13.5319 12.7946 13.1667 13.5 13.1667C14.6046 13.1667 15.5 14.0621 15.5 15.1667C15.5 16.2712 14.6046 17.1667 13.5 17.1667C12.3954 17.1667 11.5 16.2712 11.5 15.1667C11.5 14.8288 11.5838 14.5105 11.7317 14.2315Z"/>
</svg>
