<svg width="25" height="19" viewBox="0 0 25 19" fill="none" xmlns="http://www.w3.org/2000/svg">
<path d="M0 9.5C0 9.5 4.54545 0 12.5 0C20.4545 0 25 9.5 25 9.5C25 9.5 20.4545 19 12.5 19C4.54545 19 0 9.5 0 9.5Z" fill="#D6D6D6"/>
<path d="M12.5 13C14.433 13 16 11.433 16 9.5C16 7.567 14.433 6 12.5 6C10.567 6 9 7.567 9 9.5C9 11.433 10.567 13 12.5 13Z" fill="#D6D6D6"/>
<path fill-rule="evenodd" clip-rule="evenodd" d="M12.5 7C11.1193 7 10 8.11929 10 9.5C10 10.8807 11.1193 12 12.5 12C13.8807 12 15 10.8807 15 9.5C15 8.11929 13.8807 7 12.5 7ZM8 9.5C8 7.01472 10.0147 5 12.5 5C14.9853 5 17 7.01472 17 9.5C17 11.9853 14.9853 14 12.5 14C10.0147 14 8 11.9853 8 9.5Z" fill="#FAFAFA"/>
</svg>
