<svg viewBox="0 0 22 22" xmlns="http://www.w3.org/2000/svg">
<path d="M0.0839968 21.993C0.662365 20.6112 1.24073 19.2619 1.80839 17.9125C1.99047 17.4915 2.16184 17.0705 2.35463 16.6495C2.46173 16.4228 2.44031 16.2501 2.27965 16.0558C-0.205187 12.9793 -0.547924 9.5249 0.715917 5.89783C1.5085 3.62011 3.19005 2.08724 5.36428 1.1265C7.58136 0.144165 9.90554 -0.136501 12.3154 0.0578067C14.0291 0.19814 15.6678 0.586755 17.1994 1.38557C19.952 2.84288 21.505 5.14219 21.9013 8.24031C22.1477 10.1618 21.9442 12.0293 21.1623 13.8213C20.2733 15.8507 18.7738 17.2972 16.7817 18.1824C13.4186 19.6721 9.95909 19.7153 6.46746 18.6681C6.18899 18.5818 5.97478 18.5926 5.71773 18.7437C3.97191 19.8016 2.21539 20.8379 0.469575 21.8742C0.36247 21.939 0.276786 22.0254 0.0839968 21.993ZM5.51423 11.0146C6.36036 11.0254 6.86375 10.5396 6.87446 9.70841C6.88517 8.888 6.34965 8.33747 5.52494 8.32667C4.72165 8.32667 4.17541 8.84483 4.15399 9.64365C4.14328 10.4748 4.6681 11.0038 5.51423 11.0146ZM11.0194 11.0146C11.8549 11.0146 12.3368 10.5288 12.3475 9.68682C12.3475 8.83403 11.8441 8.33747 10.998 8.33747C10.2054 8.33747 9.63778 8.87721 9.6592 9.63285C9.66991 10.5072 10.1626 11.0146 11.0194 11.0146ZM17.8099 9.67603C17.8099 8.82324 17.3386 8.33747 16.5032 8.33747C15.6571 8.33747 15.1537 8.83403 15.1537 9.68682C15.1537 10.5396 15.6357 11.0146 16.4711 11.0146C17.3493 11.0146 17.8099 10.5504 17.8099 9.67603Z" />
</svg>
