<svg width="100" height="109" viewBox="0 0 100 109" fill="none" xmlns="http://www.w3.org/2000/svg">
<path fill-rule="evenodd" clip-rule="evenodd" d="M25.1225 20.3172L6.58984 17.6828L66.2347 2.1936L75.7564 9.35475L92.637 9.07959L33.998 25.5489L25.1225 20.3172Z" fill="#F9F4F0"/>
<path fill-rule="evenodd" clip-rule="evenodd" d="M38.238 106.302L21.124 91.9393L25.1246 20.3171L34.0001 25.5489L38.238 106.302Z" fill="#ECDDD0"/>
<path fill-rule="evenodd" clip-rule="evenodd" d="M65.8569 0.741775C66.3036 0.62578 66.7788 0.721836 67.1453 1.00221L75.1239 7.10532L93.3095 7.59706C94.0891 7.61814 94.7225 8.23311 94.7666 9.01175L99.4973 92.601C99.5383 93.3258 99.0546 93.9758 98.3486 94.1447L39.2106 108.286C38.9787 108.342 38.737 108.341 38.5054 108.285L1.33312 99.1932C0.628332 99.0208 0.147955 98.3687 0.192285 97.6445L5.09252 17.5912C5.13218 16.9432 5.58427 16.3942 6.21268 16.231L65.8569 0.741775ZM8.0204 18.8611L3.26325 96.5769L38.8657 105.284L96.4313 91.5186L91.8493 10.5587L74.5576 10.0911C74.2421 10.0826 73.9374 9.97478 73.6868 9.78306L65.9033 3.82923L8.0204 18.8611Z" fill="#556269"/>
<path fill-rule="evenodd" clip-rule="evenodd" d="M74.0304 21.253C74.8538 21.1623 75.5949 21.7563 75.6857 22.5798C76.883 33.4474 72.3187 41.0609 66.0061 42.7794C62.8497 43.6387 59.4749 42.92 56.61 40.5696C53.7686 38.2387 51.4843 34.361 50.2312 28.9359C50.0448 28.1288 50.5479 27.3233 51.3551 27.1368C52.1623 26.9504 52.9678 27.4536 53.1542 28.2607C54.3048 33.2419 56.3236 36.4544 58.5128 38.2503C60.6783 40.0268 63.0613 40.4719 65.218 39.8847C69.5316 38.7104 73.8145 32.9904 72.7037 22.9083C72.613 22.0849 73.207 21.3438 74.0304 21.253Z" fill="#556269"/>
<path fill-rule="evenodd" clip-rule="evenodd" d="M43.2832 22.9407L72.7238 14.669C72.7238 14.669 73.0187 13.7551 74.144 10.2676C74.0164 7.592 71.016 5.16345 65.1434 2.98063C60.3842 1.05693 55.726 0.54417 51.1244 1.12479C48.7946 1.41905 48.5213 2.32534 48.1971 3.60253L43.2832 22.9407Z" fill="#ECDDD0"/>
</svg>
