<svg viewBox="0 0 18 20" xmlns="http://www.w3.org/2000/svg">
<path d="M17.9977 15.1933C17.9977 15.6244 17.9977 16.0501 17.9977 16.4812C17.9977 18.0911 16.7217 19.2971 15.2192 19.117C14.0409 18.9752 12.8832 18.7078 11.7615 18.3094C10.4751 17.8564 9.25565 17.2507 8.10308 16.4921C6.94022 15.7281 5.86483 14.844 4.90778 13.8072C3.12232 11.8808 1.79995 9.64333 0.92523 7.11118C0.467288 5.78508 0.174 4.42078 0.0196372 3.01827C-0.145016 1.523 0.739995 0.284211 2.13955 0.0277226C2.20129 0.0168082 2.26818 0.00589378 2.32993 0.00589378C3.2561 0.00589378 4.18228 -0.0104778 5.10845 0.011351C6.18384 0.0331798 7.17176 0.939076 7.37243 2.11238C7.5268 2.99099 7.72747 3.85323 7.97959 4.71001C8.26259 5.68139 8.04648 6.57092 7.36214 7.30764C7.21807 7.46044 7.074 7.6187 6.92478 7.7715C6.82187 7.86973 6.81158 7.95705 6.88876 8.08802C7.67087 9.33226 8.61248 10.4128 9.73932 11.3078C9.94514 11.4715 10.1612 11.6188 10.3671 11.7826C10.4957 11.8862 10.5832 11.8753 10.6964 11.7498C10.9125 11.5151 11.1131 11.2696 11.3653 11.0731C12.0753 10.5219 12.8472 10.3637 13.6807 10.6747C14.4165 10.9476 15.1677 11.1441 15.9395 11.2696C17.123 11.466 17.9926 12.552 17.9977 13.829C18.0029 14.2765 17.9977 14.7349 17.9977 15.1933ZM16.3357 15.1933C16.3357 14.7895 16.3357 14.3911 16.3357 13.9873C16.3357 13.3542 16.1248 13.0759 15.5279 12.9777C14.7252 12.8413 13.9431 12.6393 13.1765 12.3446C12.8266 12.2082 12.523 12.2846 12.2606 12.5684C11.9621 12.8904 11.6637 13.2069 11.3601 13.5234C10.9536 13.9545 10.614 13.9927 10.1149 13.6817C8.96237 12.9559 7.92299 12.0936 7.00711 11.0513C6.24559 10.189 5.58697 9.25587 5.03642 8.23537C4.83574 7.85882 4.87176 7.47681 5.15476 7.16575C5.47378 6.81649 5.78765 6.46723 6.11695 6.13434C6.43082 5.81782 6.48742 5.45219 6.34335 5.03198C6.07064 4.2516 5.88541 3.44394 5.76706 2.6199C5.67959 2.03052 5.41203 1.76857 4.85118 1.76312C4.07937 1.75766 3.30756 1.75766 2.53574 1.76312C1.9646 1.77403 1.61986 2.18878 1.68161 2.79453C1.75879 3.52579 1.87199 4.2516 2.04693 4.9665C2.47914 6.75646 3.17378 8.42637 4.12568 9.97622C5.02098 11.4333 6.09637 12.7157 7.37758 13.7963C9.22993 15.3625 11.2984 16.4594 13.6138 17.0324C14.2416 17.1852 14.8693 17.3325 15.5125 17.3544C15.9961 17.3707 16.3255 17.016 16.3306 16.503C16.3357 16.0665 16.3357 15.6299 16.3357 15.1933Z" />
</svg>
