<svg viewBox="0 0 23 24" xmlns="http://www.w3.org/2000/svg">
<path fill-rule="evenodd" clip-rule="evenodd" d="M19.4395 2.93945C19.1421 2.93945 18.8568 3.05759 18.6466 3.26788L9.34242 12.572L8.81382 14.6864L10.9282 14.1578L20.2323 4.85367C20.4426 4.64338 20.5608 4.35817 20.5608 4.06077C20.5608 3.76338 20.4426 3.47817 20.2323 3.26788C20.0221 3.05759 19.7368 2.93945 19.4395 2.93945ZM17.2323 1.85367C17.8177 1.26831 18.6116 0.939453 19.4395 0.939453C20.2673 0.939453 21.0612 1.26831 21.6466 1.85367C22.2319 2.43903 22.5608 3.23295 22.5608 4.06077C22.5608 4.8886 22.2319 5.68252 21.6466 6.26788L12.1466 15.7679C12.0184 15.896 11.8578 15.987 11.682 16.0309L7.68199 17.0309C7.34121 17.1161 6.98073 17.0163 6.73235 16.7679C6.48397 16.5195 6.38412 16.159 6.46931 15.8182L7.46931 11.8182C7.51327 11.6424 7.60419 11.4818 7.73235 11.3537L17.2323 1.85367ZM1.31813 3.93945C1.88074 3.37684 2.6438 3.06077 3.43945 3.06077H10.4395C10.9917 3.06077 11.4395 3.50849 11.4395 4.06077C11.4395 4.61306 10.9917 5.06077 10.4395 5.06077H3.43945C3.17424 5.06077 2.91988 5.16613 2.73235 5.35367C2.54481 5.5412 2.43945 5.79556 2.43945 6.06077V20.0608C2.43945 20.326 2.54481 20.5803 2.73235 20.7679C2.91988 20.9554 3.17424 21.0608 3.43945 21.0608H17.4395C17.7047 21.0608 17.959 20.9554 18.1466 20.7679C18.3341 20.5803 18.4395 20.326 18.4395 20.0608V13.0608C18.4395 12.5085 18.8872 12.0608 19.4395 12.0608C19.9917 12.0608 20.4395 12.5085 20.4395 13.0608V20.0608C20.4395 20.8564 20.1234 21.6195 19.5608 22.1821C18.9982 22.7447 18.2351 23.0608 17.4395 23.0608H3.43945C2.6438 23.0608 1.88074 22.7447 1.31813 22.1821C0.755524 21.6195 0.439453 20.8564 0.439453 20.0608V6.06077C0.439453 5.26512 0.755523 4.50206 1.31813 3.93945Z" />
</svg>
