<svg width="30" height="30" viewBox="0 0 30 30" fill="none" xmlns="http://www.w3.org/2000/svg">
<path d="M30 15.0391C30 23.316 23.2691 30 14.9454 30C6.68404 29.9844 -0.0155896 23.2535 2.72468e-05 14.9297C0.0156441 6.66842 6.74651 -0.0155895 15.0859 2.73103e-05C23.316 0.0156442 30 6.74651 30 15.0391ZM21.6606 9.93235C21.6918 9.19835 21.4576 9.04218 20.7392 9.32329C16.7725 10.8694 12.8215 12.431 8.8704 13.9771C8.62053 14.0708 8.33943 14.1957 8.35504 14.5393C8.37066 14.8673 8.63615 14.9922 8.90163 15.0859C9.63562 15.3514 10.3852 15.57 11.1036 15.8511C11.5096 16.0073 11.822 15.9917 12.1968 15.7418C14.3988 14.3051 16.632 12.8995 18.8652 11.5096C19.0994 11.3535 19.443 10.9631 19.646 11.2442C19.8334 11.494 19.3649 11.7127 19.1463 11.9157C17.4284 13.4774 15.695 15.0234 13.9771 16.5695C13.7116 16.8038 13.6179 16.9755 13.9771 17.241C15.4139 18.3186 16.8194 19.4274 18.2561 20.505C18.9901 21.0515 19.5211 20.8329 19.7085 19.9115C20.1458 17.7252 20.5674 15.5544 21.0047 13.3681C21.2077 12.1968 21.4576 11.0099 21.6606 9.93235Z" fill="#45A4D0"/>
</svg>
