<svg width="31" height="30" viewBox="0 0 31 30" fill="none" xmlns="http://www.w3.org/2000/svg">
<path d="M14.8787 25.9843C13.7579 25.5255 13.0616 26.3071 12.3824 27.1737C11.822 27.8703 11.2276 28.533 10.6163 29.1787C9.954 29.9093 9.15587 30.1981 8.2049 29.8583C7.32186 29.5525 6.82939 28.7709 6.82939 27.7174C6.82939 26.9358 6.81241 26.1542 6.82939 25.3556C6.82939 25.0158 6.7275 24.7949 6.40485 24.676C2.80476 23.2147 1.00471 20.3772 0.342429 16.6901C-0.133055 14.0735 -0.116074 11.4398 0.410355 8.85718C1.41227 4.04867 4.16328 1.36406 8.98605 0.480522C11.4993 0.0217598 14.0296 -0.0801874 16.5768 0.0557422C18.1901 0.140698 19.8033 0.191672 21.3826 0.548487C26.3582 1.66991 29.1262 4.69434 29.7885 9.75772C30.0942 12.0685 30.1111 14.3623 29.7036 16.6561C28.8375 21.6516 26.0186 24.5061 21.026 25.4576C19.0561 25.8484 17.0353 25.8824 14.8787 25.9843ZM21.7392 17.7946C21.96 16.945 21.5185 16.4353 20.6694 16.0954C20.0411 15.8576 19.4467 15.5007 18.8354 15.1949C18.241 14.906 17.6467 14.923 17.0523 15.1949C16.6447 15.3818 16.2542 15.6027 15.9485 15.9255C15.6428 16.2314 15.3711 16.2653 14.9806 16.0784C13.5371 15.3818 12.4163 14.3793 11.5842 13.02C11.1427 12.2724 10.9729 11.6777 11.6691 10.9471C12.2635 10.3184 12.5861 9.48586 12.1786 8.60231C11.788 7.73576 11.3295 6.8862 10.905 6.03664C10.8031 5.84974 10.6842 5.62885 10.4635 5.62885C9.42757 5.57788 8.37472 5.40797 7.44073 6.05364C5.91239 7.0901 5.1652 9.06108 5.77653 10.8282C6.82939 13.8696 8.47661 16.5542 11.0408 18.5592C12.8069 19.9354 14.7088 21.0908 16.8995 21.6685C19.192 22.2293 22.0789 20.1563 21.7392 17.7946ZM15.3372 4.1846C15.2862 4.1846 15.1164 4.1846 14.9466 4.20159C14.607 4.26956 14.4202 4.45646 14.4202 4.81328C14.4202 5.13611 14.607 5.32301 14.9126 5.39098C15.0824 5.42496 15.2523 5.42496 15.4221 5.44195C17.8504 5.66284 19.7014 6.81824 20.9581 8.90816C21.5694 9.92763 21.7902 11.066 21.8751 12.2384C21.909 12.6122 22.0958 12.9011 22.5204 12.8671C22.911 12.8331 23.1147 12.5443 23.1147 12.1705C23.1147 11.7627 23.0638 11.3719 23.0128 10.9641C22.5204 7.34496 19.0901 4.25257 15.3372 4.1846ZM20.3637 11.9666C20.3298 9.45187 18.3769 7.34497 15.6598 6.92019C14.8956 6.80125 14.4541 6.97116 14.4202 7.42992C14.3692 8.17753 14.9636 8.12656 15.4391 8.17753C17.5278 8.48338 18.9203 9.91064 19.1241 12.0175C19.175 12.4763 19.2939 12.9011 19.8373 12.8671C20.3807 12.8501 20.3807 12.3914 20.3637 11.9666ZM15.2523 9.63878C14.8787 9.63878 14.5051 9.65577 14.4371 10.1315C14.3692 10.5733 14.6579 10.7942 15.0655 10.8621C15.8976 10.9811 16.3391 11.4738 16.4579 12.2724C16.5089 12.6632 16.7466 12.9181 17.1542 12.8501C17.5448 12.7991 17.6976 12.5103 17.6976 12.1195C17.6806 10.8621 16.5259 9.67276 15.2523 9.63878Z" fill="#4C4E9B"/>
</svg>
