<svg viewBox="0 0 16 19" xmlns="http://www.w3.org/2000/svg">
<path fill-rule="evenodd" clip-rule="evenodd" d="M1.49398 0.725922C2.13714 0.476011 3.10555 0.25 4.5 0.25C5.95362 0.25 7.15947 0.718665 8.23013 1.13479L8.27164 1.15092C9.37815 1.58088 10.3474 1.95 11.5 1.95C12.7305 1.95 13.5121 1.75101 13.9627 1.57592C14.1886 1.48816 14.3344 1.40521 14.4146 1.3533C14.4548 1.32725 14.4789 1.30872 14.4888 1.30087C14.4901 1.29979 14.4912 1.29891 14.492 1.29824C14.7078 1.09946 15.0206 1.04446 15.292 1.15919C15.5696 1.27653 15.75 1.54863 15.75 1.85V12.05C15.75 12.2527 15.668 12.4467 15.5226 12.588L15 12.05C15.5226 12.588 15.5222 12.5883 15.5218 12.5887L15.521 12.5895L15.5193 12.5912L15.5156 12.5947L15.5072 12.6026C15.5011 12.6082 15.494 12.6146 15.486 12.6217C15.4699 12.6359 15.4499 12.6529 15.4258 12.6722C15.3775 12.7108 15.3128 12.7587 15.23 12.8123C15.064 12.9198 14.827 13.0493 14.506 13.1741C13.8629 13.424 12.8945 13.65 11.5 13.65C10.0464 13.65 8.84053 13.1813 7.76987 12.7652L7.72836 12.7491C6.62185 12.3191 5.65256 11.95 4.5 11.95C3.26945 11.95 2.48786 12.149 2.03727 12.3241C1.92093 12.3693 1.82583 12.4132 1.75 12.4523V18C1.75 18.4142 1.41421 18.75 1 18.75C0.585786 18.75 0.25 18.4142 0.25 18V1.85C0.25 1.64732 0.332032 1.45327 0.477411 1.31204L1 1.85C0.477411 1.31204 0.477808 1.31165 0.478209 1.31127L0.47903 1.31047L0.480737 1.30883L0.484415 1.30532L0.492836 1.29742C0.498928 1.29178 0.505977 1.28538 0.51401 1.27829C0.530078 1.2641 0.550071 1.24713 0.574203 1.22782C0.622494 1.18919 0.687211 1.14132 0.770047 1.08767C0.93598 0.98021 1.17297 0.850657 1.49398 0.725922ZM1.75 2.25228V10.8339C2.38532 10.6232 3.27946 10.45 4.5 10.45C5.95362 10.45 7.15947 10.9187 8.23013 11.3348L8.27164 11.3509C9.37815 11.7809 10.3474 12.15 11.5 12.15C12.7305 12.15 13.5121 11.951 13.9627 11.7759C14.0791 11.7307 14.1742 11.6868 14.25 11.6477V3.06608C13.6147 3.27685 12.7205 3.45 11.5 3.45C10.0464 3.45 8.84053 2.98133 7.76987 2.56521L7.72836 2.54908C6.62185 2.11912 5.65256 1.75 4.5 1.75C3.26945 1.75 2.48786 1.94899 2.03727 2.12408C1.92093 2.16928 1.82583 2.21321 1.75 2.25228Z"/>
</svg>
