<svg width="50" height="50" viewBox="0 0 50 50" fill="none" xmlns="http://www.w3.org/2000/svg">
    <circle cx="25" cy="25" r="25" fill="#CCCCCC" />
    <path d="M24.1669 36.67C22.2578 36.618 20.3358 36.696 18.4267 36.5661C14.6474 36.3323 11.9721 33.644 11.7773 29.8518C11.5955 26.3323 11.6864 22.8129 11.7124 19.2934C11.7254 18.2674 11.8682 17.2544 12.2059 16.2804C13.115 13.7349 14.9721 12.3193 17.5955 11.8648C18.3877 11.7219 19.1799 11.67 19.9721 11.67C22.9462 11.67 25.9072 11.657 28.8812 11.683C29.9462 11.696 31.0241 11.8129 32.0371 12.1765C34.5955 13.0726 36.0111 14.9297 36.4786 17.5531C36.6215 18.3323 36.6734 19.1245 36.6734 19.9297C36.6734 22.9038 36.6864 25.8648 36.6605 28.8388C36.6475 29.9297 36.5306 31.0077 36.1669 32.0466C35.2579 34.5921 33.4007 36.0206 30.7773 36.4622C28.5825 36.8129 26.3617 36.6051 24.1669 36.67ZM13.9851 23.6051C13.9851 25.0077 13.9981 25.9427 13.9851 26.8778C13.9721 27.8388 14.0241 28.7869 14.089 29.7479C14.2189 31.9427 15.4007 33.4622 17.4397 34.0077C17.9851 34.1505 18.5565 34.2284 19.115 34.2414C22.5046 34.3193 25.8942 34.3323 29.2838 34.2414C30.7643 34.2025 32.154 33.8518 33.1669 32.644C34.0241 31.631 34.2449 30.3973 34.2838 29.1375C34.3747 25.7869 34.3877 22.4232 34.2838 19.0726C34.2449 17.657 33.9332 16.3064 32.8033 15.2804C31.8293 14.3973 30.6345 14.0986 29.3877 14.0856C25.8033 14.0206 22.2189 13.8388 18.6345 14.0726C17.3617 14.1505 16.1799 14.5142 15.2708 15.5012C14.4526 16.3843 14.1799 17.4622 14.076 18.618C13.9202 20.4232 14.0241 22.2414 13.9851 23.6051Z" fill="white" />
    <path d="M30.6473 24.1637C30.6473 27.7481 27.7512 30.6313 24.1668 30.6313C20.6214 30.6313 17.7253 27.7352 17.7253 24.1767C17.7253 20.5923 20.6214 17.7092 24.2058 17.7092C27.7642 17.7092 30.6473 20.6053 30.6473 24.1637ZM24.2188 20.0858C21.9331 20.0728 20.1279 21.8391 20.1149 24.1118C20.1019 26.4105 21.8551 28.2157 24.1279 28.2416C26.4525 28.2546 28.2577 26.4884 28.2707 24.1897C28.2707 21.891 26.5045 20.0988 24.2188 20.0858Z" fill="white" />
    <path d="M30.8293 19.0338C29.9461 19.0338 29.3098 18.3845 29.3098 17.4884C29.3098 16.6183 29.9851 15.9429 30.8552 15.9559C31.6864 15.9559 32.4007 16.6832 32.4007 17.5144C32.3877 18.3845 31.7124 19.0338 30.8293 19.0338Z" fill="white" />
</svg>