<svg viewBox="0 0 40 40" fill="none" xmlns="http://www.w3.org/2000/svg">
<path d="M40 20C40 31.0457 31.0457 40 20 40C8.9543 40 0 31.0457 0 20C0 8.9543 8.9543 0 20 0C31.0457 0 40 8.9543 40 20Z" fill="#556269"/>
<path d="M28.9977 25.1933C28.9977 25.6244 28.9977 26.0501 28.9977 26.4812C28.9977 28.0911 27.7217 29.2971 26.2192 29.117C25.0409 28.9752 23.8832 28.7078 22.7615 28.3094C21.4751 27.8564 20.2557 27.2507 19.1031 26.4921C17.9402 25.7281 16.8648 24.844 15.9078 23.8072C14.1223 21.8808 12.8 19.6433 11.9252 17.1112C11.4673 15.7851 11.174 14.4208 11.0196 13.0183C10.855 11.523 11.74 10.2842 13.1395 10.0277C13.2013 10.0168 13.2682 10.0059 13.3299 10.0059C14.2561 10.0059 15.1823 9.98952 16.1085 10.0114C17.1838 10.0332 18.1718 10.9391 18.3724 12.1124C18.5268 12.991 18.7275 13.8532 18.9796 14.71C19.2626 15.6814 19.0465 16.5709 18.3621 17.3076C18.2181 17.4604 18.074 17.6187 17.9248 17.7715C17.8219 17.8697 17.8116 17.957 17.8888 18.088C18.6709 19.3323 19.6125 20.4128 20.7393 21.3078C20.9451 21.4715 21.1612 21.6188 21.3671 21.7826C21.4957 21.8862 21.5832 21.8753 21.6964 21.7498C21.9125 21.5151 22.1131 21.2696 22.3653 21.0731C23.0753 20.5219 23.8472 20.3637 24.6807 20.6747C25.4165 20.9476 26.1677 21.1441 26.9395 21.2696C28.123 21.466 28.9926 22.552 28.9977 23.829C29.0029 24.2765 28.9977 24.7349 28.9977 25.1933ZM27.3357 25.1933C27.3357 24.7895 27.3357 24.3911 27.3357 23.9873C27.3357 23.3542 27.1248 23.0759 26.5279 22.9777C25.7252 22.8413 24.9431 22.6393 24.1765 22.3446C23.8266 22.2082 23.523 22.2846 23.2606 22.5684C22.9621 22.8904 22.6637 23.2069 22.3601 23.5234C21.9536 23.9545 21.614 23.9927 21.1149 23.6817C19.9624 22.9559 18.923 22.0936 18.0071 21.0513C17.2456 20.189 16.587 19.2559 16.0364 18.2354C15.8357 17.8588 15.8718 17.4768 16.1548 17.1658C16.4738 16.8165 16.7876 16.4672 17.117 16.1343C17.4308 15.8178 17.4874 15.4522 17.3434 15.032C17.0706 14.2516 16.8854 13.4439 16.7671 12.6199C16.6796 12.0305 16.412 11.7686 15.8512 11.7631C15.0794 11.7577 14.3076 11.7577 13.5357 11.7631C12.9646 11.774 12.6199 12.1888 12.6816 12.7945C12.7588 13.5258 12.872 14.2516 13.0469 14.9665C13.4791 16.7565 14.1738 18.4264 15.1257 19.9762C16.021 21.4333 17.0964 22.7157 18.3776 23.7963C20.2299 25.3625 22.2984 26.4594 24.6138 27.0324C25.2416 27.1852 25.8693 27.3325 26.5125 27.3544C26.9961 27.3707 27.3255 27.016 27.3306 26.503C27.3357 26.0665 27.3357 25.6299 27.3357 25.1933Z" fill="white"/>
</svg>
