<svg viewBox="0 0 23 23" xmlns="http://www.w3.org/2000/svg">
<path fill-rule="evenodd" clip-rule="evenodd" d="M-4.9583e-07 11.3433C-5.19971e-07 10.791 0.447715 10.3433 0.999999 10.3433L10.3433 10.3433L10.3433 1.00001C10.3433 0.447719 10.791 5.25036e-06 11.3433 5.22622e-06C11.8955 5.20208e-06 12.3433 0.447719 12.3433 1.00001L12.3433 10.3433L21.6865 10.3433C22.2388 10.3433 22.6865 10.791 22.6865 11.3433C22.6865 11.8955 22.2388 12.3433 21.6865 12.3433L12.3433 12.3433L12.3433 21.6865C12.3433 22.2388 11.8955 22.6865 11.3433 22.6865C10.791 22.6865 10.3433 22.2388 10.3433 21.6865L10.3433 12.3433L1 12.3433C0.447715 12.3433 -4.71688e-07 11.8955 -4.9583e-07 11.3433Z"/>
</svg>
