<svg width="29" height="29" viewBox="0 0 29 29" fill="none" xmlns="http://www.w3.org/2000/svg">
<path d="M29 14.5C29 22.5081 22.5081 29 14.5 29C6.49187 29 0 22.5081 0 14.5C0 6.49187 6.49187 0 14.5 0C22.5081 0 29 6.49187 29 14.5Z" fill="#E9E8E5"/>
<path d="M13.6719 18.4811H15.6699C15.6699 18.1151 15.6819 17.8241 15.7059 17.6081C15.7299 17.3861 15.8229 17.1371 15.9849 16.8611C16.1529 16.5791 16.3869 16.3211 16.6869 16.0871C16.9929 15.8471 17.2929 15.5711 17.5869 15.2591C17.9649 14.8631 18.2739 14.4221 18.5139 13.9361C18.7599 13.4501 18.8829 12.9191 18.8829 12.3431C18.8829 11.9171 18.8109 11.5061 18.6669 11.1101C18.5289 10.7081 18.3219 10.3511 18.0459 10.0391C17.6679 9.59505 17.1939 9.27405 16.6239 9.07605C16.0599 8.87805 15.4599 8.77905 14.8239 8.77905C14.3799 8.77905 13.9359 8.84805 13.4919 8.98605C13.0479 9.11805 12.6519 9.32205 12.3039 9.59805C11.8959 9.90405 11.5719 10.3061 11.3319 10.8041C11.0919 11.2961 10.9479 11.8211 10.8999 12.3791H12.8799C12.8739 12.1091 12.9129 11.8601 12.9969 11.6321C13.0869 11.3981 13.2249 11.2031 13.4109 11.0471C13.5849 10.8851 13.8009 10.7651 14.0589 10.6871C14.3169 10.6091 14.5929 10.5701 14.8869 10.5701C15.2049 10.5701 15.5109 10.6181 15.8049 10.7141C16.0989 10.8101 16.3419 10.9811 16.5339 11.2271C16.7679 11.5151 16.8849 11.8991 16.8849 12.3791C16.8849 12.6911 16.8429 12.9821 16.7589 13.2521C16.6809 13.5221 16.5219 13.7891 16.2819 14.0531C15.9939 14.3591 15.7179 14.6111 15.4539 14.8091C15.1959 15.0011 14.9559 15.1991 14.7339 15.4031C14.5179 15.6011 14.3289 15.8621 14.1669 16.1861C13.9749 16.5281 13.8429 16.8881 13.7709 17.2661C13.7049 17.6441 13.6719 18.0491 13.6719 18.4811ZM13.6809 22.0001H15.6699V19.8221H13.6809V22.0001Z" fill="white"/>
</svg>
