<svg viewBox="0 0 19 22" xmlns="http://www.w3.org/2000/svg">
<path d="M17.8971 20.6236C17.7265 20.6236 17.5618 20.6236 17.3912 20.6236C17.1382 20.6236 17.1265 20.6121 17.2088 20.3834C17.4853 19.6629 17.603 18.9196 17.5324 18.1534C17.4029 16.8211 16.5323 15.6432 15.1263 15.4145C14.2263 15.2658 13.3909 15.4831 12.6085 15.9234C11.7731 16.398 11.1378 17.0727 10.526 17.7875C9.39651 19.1197 8.12583 20.2976 6.55514 21.1439C5.51389 21.7043 4.4197 22.0416 3.20785 21.9959C1.8254 21.9444 0.595904 21.1439 0.184111 19.966C-0.192386 18.8967 0.0370421 17.8961 0.613552 16.9469C0.872394 16.5238 1.19006 16.1521 1.54891 15.809C1.67245 15.689 1.69598 15.6146 1.55479 15.4831C1.21948 15.1686 1.22536 15.2658 1.50185 14.8656C3.4961 11.9551 5.49036 9.05042 7.48461 6.1457C7.59639 5.9856 7.64933 5.82549 7.64345 5.62537C7.59639 4.67619 7.8317 3.78419 8.2729 2.94365C8.40232 2.69777 8.41409 2.69777 8.61999 2.89218C11.0613 5.26513 13.5086 7.6438 15.9499 10.0168C16.1617 10.2226 16.1617 10.234 15.897 10.3656C14.991 10.8173 14.0262 11.0403 13.0026 10.9774C12.9026 10.9717 12.8203 10.9945 12.732 11.0517C11.2025 12.0466 9.66123 13.0187 8.14937 14.0308C6.93163 14.8427 5.70802 15.6489 4.47264 16.438C4.12556 16.661 3.76083 16.8611 3.41375 17.0899C3.31374 17.1528 3.24315 17.1413 3.16079 17.0613C3.06078 16.9583 2.94901 16.8611 2.849 16.7582C2.78429 16.6896 2.71958 16.6725 2.6431 16.7468C2.06659 17.29 1.59597 17.8904 1.47832 18.6909C1.32537 19.7258 2.01365 20.3434 2.8137 20.5092C3.64317 20.6807 4.43146 20.5206 5.2021 20.2061C6.27865 19.7659 7.18459 19.0911 8.01995 18.3249C8.60822 17.7875 9.13767 17.1928 9.65535 16.5867C10.4731 15.6203 11.4202 14.797 12.632 14.3281C14.3851 13.6534 16.0381 13.802 17.4912 15.0486C18.356 15.7862 18.7913 16.7639 18.9501 17.8618C19.0736 18.7195 18.956 19.5543 18.7266 20.3834C18.6736 20.5664 18.5913 20.6521 18.3912 20.6293C18.2383 20.6121 18.0677 20.6236 17.8971 20.6236ZM8.04936 11.5034C8.08465 11.4806 8.11995 11.4634 8.14348 11.4405C8.40821 11.1832 8.67293 10.9259 8.93766 10.6686C9.02001 10.5943 8.96707 10.5428 8.90824 10.4913C8.66705 10.2569 8.41997 10.0225 8.17878 9.78232C8.08465 9.69083 8.01406 9.69083 7.92582 9.78232C7.69639 10.011 7.46108 10.234 7.21989 10.457C7.11988 10.5485 7.10223 10.6171 7.20812 10.7201C7.44932 10.9488 7.68463 11.1832 7.92582 11.4119C7.96112 11.4405 8.0023 11.4691 8.04936 11.5034Z" />
<path d="M18.9678 5.51101C18.9266 6.90619 18.456 8.14127 17.4971 9.18765C17.2853 9.42209 17.2794 9.42209 17.0617 9.21052C14.5322 6.74609 12.0026 4.28736 9.4671 1.82865C9.24944 1.61708 9.24944 1.61708 9.47887 1.41695C11.6849 -0.515716 15.1204 -0.487126 17.2794 1.59993C18.2677 2.56054 18.8266 3.72129 18.9325 5.08216C18.9442 5.22511 18.956 5.36806 18.9678 5.51101Z" />
</svg>
