<svg width="30" height="30" viewBox="0 0 30 30" fill="none" xmlns="http://www.w3.org/2000/svg">
<circle cx="15" cy="15" r="15" fill="#CCCCCC"/>
<path d="M10.815 14.6568C11.1049 14.64 11.3688 14.8164 11.6283 14.9802C11.9874 15.2069 12.3681 15.3917 12.7704 15.5386C13.1987 15.6982 13.6443 15.7738 14.0985 15.8157C14.8988 15.8871 15.6861 15.8115 16.4475 15.5596C16.9407 15.3959 17.3862 15.1355 17.8232 14.8584C18.1736 14.6359 18.5499 14.5603 18.9436 14.7576C19.6098 15.0935 19.6834 15.9417 19.134 16.4246C18.1519 17.2812 16.9753 17.6717 15.6948 17.8312C15.6472 17.8354 15.5823 17.8186 15.565 17.869C15.5434 17.9278 15.6126 17.9572 15.6472 17.995C16.5816 18.9061 17.516 19.8131 18.4504 20.7243C18.6494 20.9174 18.7879 21.1316 18.8009 21.4129C18.8138 21.816 18.524 22.2317 18.1087 22.4122C17.7237 22.576 17.3257 22.5046 17.0056 22.1981C16.3134 21.5305 15.6212 20.8544 14.9334 20.1826C14.8988 20.149 14.8642 20.1154 14.8296 20.0818C14.6782 19.9517 14.6003 19.9517 14.4575 20.0902C13.8779 20.6487 13.3068 21.2113 12.7271 21.7698C12.5454 21.9461 12.3681 22.1351 12.1691 22.2947C11.6802 22.6936 11.0227 22.45 10.7502 22.0847C10.3824 21.5934 10.4646 21.0308 10.9362 20.6235C11.265 20.338 11.5678 20.023 11.8836 19.7165C12.2772 19.3344 12.6709 18.9523 13.0646 18.5702C13.2679 18.3729 13.4669 18.1755 13.6702 17.9782C13.7005 17.9488 13.7481 17.9194 13.7351 17.8774C13.7221 17.827 13.6659 17.8438 13.6226 17.8396C12.818 17.743 12.035 17.5709 11.3125 17.2014C10.8107 16.9452 10.3219 16.6597 9.9585 16.223C9.70326 15.9207 9.69029 15.5806 9.8763 15.2363C10.058 14.8878 10.3305 14.6484 10.815 14.6568Z" fill="white"/>
<path d="M14.6438 6.75028C16.8933 6.75028 18.7621 8.51801 18.7491 10.7938C18.7362 12.9647 16.9582 14.7282 14.6178 14.7408C12.3769 14.7534 10.5168 12.9898 10.5168 10.7518C10.5124 8.42984 12.5024 6.72508 14.6438 6.75028ZM14.6351 8.83713C13.5363 8.83293 12.6668 9.66851 12.6625 10.735C12.6581 11.8729 13.5363 12.6581 14.6394 12.6581C15.7988 12.6539 16.5905 11.7848 16.6034 10.7644C16.6207 9.70211 15.7296 8.84133 14.6351 8.83713Z" fill="white"/>
</svg>
