<svg width="50" height="50" viewBox="0 0 50 50" fill="none" xmlns="http://www.w3.org/2000/svg">
    <circle cx="25" cy="25" r="25" fill="#cccccc" />
    <path d="M25.4667 15.0123C23.6325 15.0123 22.2981 14.9809 20.9648 15.0191C18.6102 15.0858 16.2536 15.1457 13.9082 15.393C12.2803 15.5647 11.022 16.594 10.597 18.1139C10.3086 19.1481 10.1865 20.2078 10.1074 21.2714C9.96167 23.2417 9.98733 25.2159 10.0335 27.1871C10.0705 28.7158 10.2008 30.2426 10.5652 31.7419C10.945 33.3059 12.3286 34.4098 13.9965 34.5629C15.9487 34.7424 17.903 34.8347 19.8604 34.9132C23.0905 35.0437 26.3217 35.0044 29.5508 34.9485C31.7114 34.9112 33.874 34.7944 36.0274 34.5629C37.7364 34.3794 39.0174 33.3913 39.432 31.8135C39.701 30.7891 39.8272 29.7441 39.9021 28.6903C40.0479 26.6455 39.9894 24.5987 39.9658 22.5538C39.9494 21.1478 39.8087 19.7427 39.4803 18.3631C39.0666 16.6224 37.799 15.5578 35.9463 15.3832C34.0588 15.2056 32.165 15.1428 30.2703 15.0633C28.5018 14.9877 26.7343 15.0554 25.4667 15.0123ZM21.1999 25.2688C21.1999 23.8726 21.1988 22.4763 21.1999 21.0791C21.1999 20.6307 21.207 20.6267 21.6371 20.8397C22.1719 21.1046 22.7036 21.3754 23.2383 21.6393C25.5252 22.7717 27.812 23.902 30.0978 25.0363C30.2056 25.0893 30.3657 25.1128 30.3657 25.2649C30.3657 25.3778 30.2385 25.4082 30.1502 25.4513C27.2855 26.8751 24.4187 28.2949 21.5571 29.7226C21.245 29.8786 21.1937 29.7814 21.1958 29.4929C21.204 28.0869 21.1999 26.6779 21.1999 25.2688Z" fill="white" />
</svg>