<svg viewBox="0 0 33 18" xmlns="http://www.w3.org/2000/svg">
<path fill-rule="evenodd" clip-rule="evenodd" d="M-7.60483e-08 8.71753C-3.4048e-08 8.16524 0.447715 7.71753 1 7.71753L32 7.71753C32.5523 7.71753 33 8.16525 33 8.71753C33 9.26982 32.5523 9.71753 32 9.71753L1 9.71753C0.447715 9.71753 -1.18049e-07 9.26981 -7.60483e-08 8.71753Z" />
<path fill-rule="evenodd" clip-rule="evenodd" d="M24.3282 0.259307C24.7373 -0.111738 25.3697 -0.0809054 25.7407 0.328172L32.7407 8.0457C33.0864 8.42687 33.0864 9.0082 32.7407 9.38937L25.7407 17.1069C25.3697 17.516 24.7373 17.5468 24.3282 17.1758C23.9191 16.8047 23.8883 16.1723 24.2593 15.7632L30.6499 8.71754L24.2593 1.67184C23.8883 1.26276 23.9191 0.630351 24.3282 0.259307Z" />
</svg>
