<svg viewBox="0 0 22 22" xmlns="http://www.w3.org/2000/svg">
<path d="M9.6606 10.9771C9.6606 7.55025 9.6606 4.12911 9.6606 0.702249C9.6606 0.616435 9.65488 0.53062 9.66632 0.444806C9.6892 0.17592 9.86078 0.0100117 10.1296 0.00429073C10.7072 -0.00143024 11.2849 -0.00143024 11.8682 0.00429073C12.1542 0.00429073 12.3315 0.181641 12.3429 0.479131C12.3544 0.736575 12.3429 0.994019 12.3429 1.25146C12.3429 7.93928 12.3429 14.6214 12.3429 21.3092C12.3429 21.4007 12.3487 21.498 12.3372 21.5895C12.3029 21.8355 12.137 21.9957 11.8911 21.9957C11.3078 22.0014 10.7187 22.0014 10.1353 21.9957C9.8665 21.9957 9.70064 21.8241 9.67204 21.5552C9.66632 21.4694 9.66632 21.3836 9.66632 21.2978C9.6606 17.8594 9.6606 14.4211 9.6606 10.9771Z" />
<path d="M16.1405 4.38656C17.0041 4.38656 17.8678 4.39228 18.7371 4.38083C18.9544 4.38083 19.1374 4.44377 19.3033 4.58107C20.1211 5.26759 20.939 5.94266 21.7569 6.62918C22.0886 6.9095 22.0771 7.18983 21.7454 7.47016C20.939 8.13951 20.1269 8.80887 19.3262 9.48966C19.1489 9.63841 18.9544 9.71278 18.7199 9.71278C16.9698 9.70706 15.2197 9.71278 13.4639 9.71278C13.1837 9.71278 13.178 9.70134 13.178 9.42101C13.178 7.84202 13.178 6.26303 13.178 4.67832C13.178 4.38656 13.178 4.38083 13.4811 4.38083C14.3676 4.38656 15.2541 4.38656 16.1405 4.38656Z" />
<path d="M5.87445 7.06397C4.98796 7.06397 4.10147 7.05825 3.21499 7.06397C3.02053 7.06397 2.85467 7.01248 2.70597 6.88662C1.88812 6.2001 1.05882 5.51359 0.240966 4.82707C-0.0850322 4.55246 -0.0793129 4.26642 0.252405 3.98609C1.05882 3.31673 1.86524 2.64738 2.67166 1.96658C2.84323 1.81784 3.02625 1.75491 3.25502 1.75491C5.01084 1.76063 6.76665 1.76063 8.52819 1.76063C8.81987 1.76063 8.81987 1.76063 8.81987 2.04096C8.81987 3.61995 8.81987 5.19893 8.81987 6.77792C8.81987 7.05825 8.81987 7.06397 8.52819 7.06397C7.64742 7.06397 6.76093 7.06397 5.87445 7.06397Z" />
</svg>
