<svg viewBox="0 0 22 21" xmlns="http://www.w3.org/2000/svg">
<path d="M4.03765 8.74971C3.77302 9.10283 3.56252 9.43116 3.37607 9.77808C3.23775 10.0321 3.02123 10.125 2.7566 10.1002C1.81836 10.0011 1.00643 9.56126 0.23058 9.05327C0.0200788 8.91078 -0.0520931 8.66298 0.0381218 8.41518C0.597454 6.86643 1.14476 5.31768 1.75822 3.79371C1.89655 3.44679 2.16719 3.1866 2.43784 2.9388C2.87689 2.52374 3.36405 2.17062 3.86324 1.84229C4.29627 1.55112 4.73531 1.26615 5.17436 0.98118C5.42095 0.82011 5.5292 0.82011 5.73369 1.01835C7.10496 2.36267 9.70916 1.84848 10.5151 0.256364C10.6354 0.0147591 10.7857 -0.0471909 11.0383 0.0333441C11.9525 0.336899 12.8667 0.646649 13.7328 1.0803C14.4785 1.452 15.0198 2.09009 15.5791 2.691C16.343 3.50255 17.0527 4.36365 17.7744 5.21856C17.8165 5.26812 17.8646 5.32388 17.9067 5.37963C18.1112 5.65841 18.1112 5.93099 17.8766 6.17879C17.2632 6.82307 16.5956 7.3992 15.9039 7.94436C15.6874 8.11782 15.4288 8.09304 15.2002 7.8948C14.9416 7.67178 14.695 7.43637 14.3943 7.16379C14.4244 7.60983 14.4424 8.00012 14.4725 8.3904C14.4906 8.65059 14.5086 8.91698 14.5507 9.17717C14.5868 9.40019 14.4906 9.42497 14.3161 9.3878C13.6906 9.2639 13.0591 9.16478 12.4457 8.97273C11.4954 8.67537 10.7316 9.17097 10.3407 9.94535C10.0279 10.5648 9.81742 11.2277 9.58888 11.8844C9.03556 13.4455 8.4642 15.0005 7.97704 16.5926C7.93494 16.7227 7.88682 16.8156 7.73646 16.8218C7.28539 16.8528 6.84033 16.8961 6.38925 16.9147C5.89006 16.9395 5.55928 16.6421 5.50515 16.128C5.24653 13.7243 4.74133 11.3702 4.13388 9.04088C4.10381 8.94795 4.07975 8.86742 4.03765 8.74971Z"/>
<path d="M17.4797 20.9972C17.203 20.9972 16.9264 21.0034 16.6437 20.9972C16.2588 20.9911 16.0844 20.83 16.0543 20.4459C15.9701 19.4547 15.8979 18.4573 15.8197 17.4661C15.8077 17.2864 15.7897 17.113 15.7776 16.9333C15.7716 16.8528 15.7776 16.7599 15.6814 16.7413C15.5731 16.7227 15.5491 16.8218 15.525 16.9023C15.3145 17.5404 15.11 18.1785 14.8995 18.8166C14.7432 19.2998 14.5868 19.783 14.4244 20.2662C14.2861 20.6751 14.1297 20.7804 13.7267 20.6627C12.0908 20.2043 10.497 19.6343 9.02955 18.7423C8.64463 18.5069 8.5905 18.3334 8.72883 17.8936C9.45055 15.5766 10.2144 13.2845 11.0443 11.0109C11.1466 10.7383 11.2488 10.4595 11.4293 10.2303C11.6037 10.0073 11.8202 9.91439 12.1029 9.98873C13.7809 10.4472 15.495 10.7259 17.2211 10.918C18.2856 11.0357 19.3562 11.1224 20.4327 11.1162C20.8657 11.1162 21.0522 11.2711 21.1184 11.7109C21.3469 13.2597 21.5754 14.8146 21.7078 16.3758C21.804 17.4971 21.9002 18.6246 21.9964 19.7459C22.0205 20.0432 21.9243 20.2105 21.6536 20.322C20.7094 20.7061 19.723 20.8795 18.7126 20.9477C18.3036 20.9787 17.8947 20.9972 17.4797 20.9972Z"/>
</svg>
