<svg viewBox="0 0 22 20" xmlns="http://www.w3.org/2000/svg">
<path fill-rule="evenodd" clip-rule="evenodd" d="M1.05546 1.05546C1.57118 0.539732 2.27065 0.25 3 0.25L7 0.25C7.41421 0.25 7.75 0.585787 7.75 1C7.75 1.41421 7.41421 1.75 7 1.75L3 1.75C2.66848 1.75 2.35054 1.8817 2.11612 2.11612C1.8817 2.35054 1.75 2.66848 1.75 3V17C1.75 17.3315 1.8817 17.6495 2.11612 17.8839C2.35054 18.1183 2.66848 18.25 3 18.25H7C7.41421 18.25 7.75 18.5858 7.75 19C7.75 19.4142 7.41421 19.75 7 19.75H3C2.27065 19.75 1.57118 19.4603 1.05546 18.9445C0.539732 18.4288 0.25 17.7293 0.25 17V3C0.25 2.27065 0.539732 1.57118 1.05546 1.05546ZM15.4697 4.46967C15.7626 4.17678 16.2374 4.17678 16.5303 4.46967L21.5303 9.46967C21.8232 9.76257 21.8232 10.2374 21.5303 10.5303L16.5303 15.5303C16.2374 15.8232 15.7626 15.8232 15.4697 15.5303C15.1768 15.2374 15.1768 14.7626 15.4697 14.4697L19.1893 10.75L9 10.75C8.58579 10.75 8.25 10.4142 8.25 10C8.25 9.58579 8.58579 9.25 9 9.25L19.1893 9.25L15.4697 5.53033C15.1768 5.23744 15.1768 4.76256 15.4697 4.46967Z"/>
</svg>
