<svg width="40" height="38" xmlns="http://www.w3.org/2000/svg" xmlns:svg="http://www.w3.org/2000/svg" xmlns:xlink="http://www.w3.org/1999/xlink">
 <g class="layer">
  <title>Layer 1</title>
  <path d="m37.21,11.43c0.2,0 0.39,0 0.49,0c0.26,-0.13 0.45,-0.26 0.68,-0.33c0.1,-0.03 0.23,-0.03 0.29,0.07c-0.1,0.06 -0.23,0.09 -0.32,0.16l0,0.32c-0.13,0.07 -0.26,0.13 -0.49,0.26l-0.58,0c-0.07,0.33 -0.29,0.49 -0.46,0.65c-0.09,0.03 -0.16,0.03 -0.26,0.06c0.23,0.13 0.23,0.13 0.68,0.1c0.07,-0.1 0.17,-0.23 0.23,-0.36c0.33,0.17 0.59,0.3 0.88,0.43c0,0.12 -0.13,0.12 -0.17,0.22c-0.19,0.13 -0.42,-0.03 -0.61,0.13c0.16,0.1 0.32,0.23 0.49,0.33l0,0.22c-0.1,0.03 -0.2,0.03 -0.26,0.1c-0.13,0.1 -0.26,0.26 -0.39,0.39c0.06,0.06 0.09,0.09 0.13,0.13c-0.1,0.09 -0.1,0.09 -0.23,0.13c-0.13,0.09 -0.03,0.26 -0.07,0.38c0.1,0.2 0.3,0.3 0.49,0.36l0,0.58c-0.03,0.04 -0.13,0.04 -0.13,0.07c-0.03,0.1 -0.03,0.22 -0.03,0.39c-0.03,0.03 -0.13,0.13 -0.23,0.19c-0.26,-0.03 -0.42,-0.29 -0.68,-0.13c-0.06,0.03 -0.06,0.07 0,0.13c0.07,0.07 0.07,0.13 0.1,0.19c0.03,0.04 0.03,0.1 0.06,0.13l0.36,0c0.03,0.1 0.06,0.2 0.1,0.3c0.29,0.13 0.61,0.25 0.84,0.51c0.26,-0.06 0.23,-0.38 0.39,-0.51c0.1,-0.26 -0.07,-0.55 0.13,-0.85c0.03,0.2 0,0.39 0.1,0.49c0.13,0.16 0.09,0.29 0.13,0.49c0.19,0.16 0.42,0.32 0.64,0.48c-0.06,0.07 -0.09,0.13 -0.16,0.19c0.2,0.23 0.29,-0.03 0.42,-0.09c0.04,0.06 0.04,0.16 0.07,0.22c-0.07,0.07 -0.13,0.13 -0.16,0.2c0.06,0.06 0.09,0.13 0.16,0.16l0,0.29c0.06,0.1 0.13,0.2 0.16,0.23c-0.03,0.16 -0.39,0.32 -0.65,0.39c-0.1,-0.17 0.03,-0.36 -0.1,-0.49c-0.06,0.03 -0.16,0.07 -0.22,0.13c-0.03,-0.1 -0.1,-0.19 -0.13,-0.29c-0.03,0 -0.03,0.03 -0.07,0.03l0,0.39c0.17,0.06 0.33,0.16 0.49,0.26c-0.2,0.29 -0.2,0.29 -0.2,0.65c-0.09,-0.04 -0.16,0.03 -0.16,0.13c0,0.09 0,0.22 0.16,0.19c0.07,0.26 -0.16,0.42 -0.22,0.65c-0.03,0.09 -0.13,0.16 -0.23,0.26l0,0.55c0.1,0.03 0.16,0.03 0.26,0.06c0.03,0.07 0.03,0.13 0.07,0.2c-0.04,0.03 -0.04,0.06 -0.07,0.09c-0.49,0.52 -1,1.01 -1.49,1.52c-0.07,0 -0.1,0 -0.16,0c-0.29,0.3 -0.59,0.55 -0.85,0.88c-0.26,0.32 -0.64,0.45 -0.9,0.74c-0.26,-0.03 -0.23,0.2 -0.36,0.33c-0.06,0.09 -0.16,0.25 -0.32,0.16c-0.33,0.35 -0.65,0.68 -0.98,1l-0.16,0c-0.29,0.26 -0.52,0.62 -0.91,0.78c-0.03,0.03 -0.06,0.06 -0.13,0.13c-0.09,0.09 0.04,0.29 -0.19,0.29c-0.13,0 -0.16,0.13 -0.26,0.16c-0.06,0.03 -0.16,0.03 -0.23,0.07c-0.13,0.09 -0.22,0.22 -0.35,0.35c-0.13,0.1 -0.2,0.23 -0.39,0.26c-0.13,0.03 -0.23,0.19 -0.36,0.32l-0.16,0c-0.03,0.1 -0.07,0.2 -0.1,0.3c-0.06,0 -0.13,0.03 -0.22,0.06c-0.1,0.19 -0.2,0.42 -0.3,0.62c-0.06,0 -0.09,0 -0.13,0.03c-0.32,0.32 -0.61,0.64 -0.97,0.97l0,0.06c-0.16,0.13 -0.39,0.1 -0.45,0.36c0.09,0.1 0.19,0.03 0.29,0.06c-0.16,0.33 -0.16,0.33 -0.16,0.65c-0.04,0.03 -0.13,0.03 -0.13,0.07c-0.03,0.09 0.06,0.13 0.13,0.09l0,0.26c-0.13,0.13 -0.26,0.26 -0.46,0.29c-0.13,0.04 -0.19,0.26 -0.42,0.29c-0.06,-0.03 -0.13,-0.09 -0.22,-0.16c-0.07,0.16 -0.26,0.13 -0.39,0.23l0,0.19c0.03,0.04 0.06,0.07 0.06,0.07c0.23,0 0.49,0 0.71,0c-0.06,0.35 -0.42,0.35 -0.64,0.48c-0.13,0.07 -0.33,0.04 -0.43,0.2c-0.16,-0.03 -0.22,0.1 -0.32,0.16c-0.13,0.13 -0.45,0.26 -0.78,0.32c-0.03,0 -0.1,0.07 -0.13,0.1c-0.03,0.03 -0.03,0.03 -0.09,0.1c-0.1,-0.1 -0.17,-0.2 -0.26,-0.29c0.03,-0.1 0.06,-0.17 0.13,-0.23c0.03,-0.03 0.03,-0.06 0.06,-0.13c-0.1,0 -0.16,-0.03 -0.23,-0.03c-0.19,0.19 0,0.42 -0.13,0.61c-0.13,0 -0.19,-0.16 -0.26,-0.19c-0.03,-0.1 -0.03,-0.16 -0.06,-0.26l-0.39,0c-0.06,0.1 -0.16,0.23 -0.26,0.39c-0.13,-0.16 -0.26,-0.26 -0.36,-0.39c-0.09,-0.13 -0.12,-0.26 -0.22,-0.45l0,-0.26c-0.07,-0.07 -0.1,-0.13 -0.16,-0.16l0,-0.33c0.06,-0.06 0.09,-0.13 0.16,-0.19l0,-0.26c0,-0.03 0,-0.07 0,-0.07c0.16,-0.19 0.32,-0.35 0.48,-0.55c0.13,-0.19 0.17,-0.42 0.36,-0.61c-0.06,-0.03 -0.16,-0.07 -0.23,-0.1c-0.13,0.13 -0.22,0.29 -0.35,0.33c-0.13,0.03 -0.26,0.06 -0.33,0.19c-0.09,0.16 -0.29,0.1 -0.39,0.23c-0.03,0.09 -0.03,0.16 -0.06,0.22c-0.13,0.04 -0.26,0.04 -0.42,0.07c0,0.06 -0.03,0.16 -0.07,0.26c-0.06,0.03 -0.19,0.03 -0.26,0.09c-0.09,0.07 -0.19,0.2 -0.29,0.3l-0.65,0c-0.06,0.06 -0.13,0.09 -0.19,0.16l-0.32,0c-0.07,-0.07 -0.13,-0.1 -0.17,-0.16c-0.13,0.09 -0.06,0.25 -0.06,0.38c-0.16,0.1 -0.36,0.2 -0.49,0.36c-0.16,0.16 -0.16,0.39 -0.32,0.52c0.03,0.19 -0.16,0.26 -0.23,0.39l-0.49,0c-0.06,0.06 -0.16,0.16 -0.22,0.22c0,0.13 -0.03,0.26 -0.03,0.42c-0.23,-0.09 -0.39,-0.19 -0.62,-0.32c0,0.23 -0.03,0.39 -0.03,0.58c-0.13,0.07 -0.16,0.23 -0.33,0.23l0,-0.26c-0.19,-0.19 -0.39,0 -0.61,-0.1c-0.04,0.13 -0.04,0.2 -0.07,0.29c-0.06,0.04 -0.16,0.07 -0.29,0.1c0,0.13 -0.03,0.26 -0.03,0.39c-0.07,0.06 -0.16,0.16 -0.23,0.23c-0.13,-0.04 -0.26,0.06 -0.39,-0.07c0.03,-0.06 0.1,-0.1 0.13,-0.16c-0.19,-0.13 -0.19,-0.13 -0.45,0.16c0.03,0.03 0.06,0.07 0.13,0.13c0.1,0.16 0,0.36 0.06,0.55c-0.19,0.2 -0.45,0 -0.61,0.13c-0.07,0.16 0.29,0.19 0.16,0.32c-0.16,0.2 -0.26,0.13 -0.36,0.13l0,-0.26c-0.06,-0.03 -0.16,-0.09 -0.19,-0.06c-0.2,0.16 -0.49,0.16 -0.59,0.42c0.04,0.07 0.1,0.1 0.13,0.16c-0.13,0.13 -0.26,0.04 -0.42,0.07c-0.03,-0.1 -0.06,-0.2 -0.09,-0.29c-0.17,-0.1 -0.36,-0.04 -0.56,-0.04c-0.09,0.1 -0.19,0.2 -0.32,0.33c-0.06,0 -0.19,0 -0.36,0.03c-0.03,-0.06 -0.09,-0.19 -0.16,-0.29c0.03,-0.03 0.07,-0.07 0.13,-0.16c-0.03,-0.26 -0.29,-0.36 -0.42,-0.55c-0.1,-0.04 -0.16,-0.04 -0.23,-0.07c0.16,-0.16 0.36,-0.32 0.46,-0.45c0,-0.16 0,-0.26 0,-0.36c0.09,-0.03 0.26,0.07 0.32,-0.09c-0.1,-0.07 -0.13,-0.2 -0.29,-0.2c0,0.1 0,0.2 -0.03,0.29c-0.2,0 -0.26,0.26 -0.42,0.33c-0.1,-0.2 -0.2,-0.42 -0.3,-0.62c-0.06,0 -0.09,-0.03 -0.16,-0.03c-0.19,0.1 -0.36,0.19 -0.55,0.32c-0.1,-0.13 -0.23,-0.26 -0.39,-0.45l0,-0.45c0.03,-0.13 0.16,-0.1 0.29,-0.1c0.04,-0.07 0.04,-0.16 0.07,-0.26c0.03,-0.03 0.1,-0.1 0.16,-0.16c-0.06,-0.03 -0.16,-0.07 -0.26,-0.1c-0.1,0.13 -0.19,0.26 -0.29,0.39c-0.1,-0.1 -0.16,-0.13 -0.2,-0.19l-0.19,0c-0.03,0.06 -0.03,0.12 -0.1,0.25c0.13,0.1 0.26,0.2 0.39,0.3c-0.03,0.06 -0.06,0.09 -0.1,0.09c-0.25,0.04 -0.51,0.04 -0.77,0.04c-0.1,-0.07 -0.2,-0.13 -0.26,-0.17c-0.23,-0.06 -0.29,0.33 -0.52,0.1c0,-0.03 0.03,-0.06 0.03,-0.1c0.1,-0.13 0.1,-0.13 0,-0.32c-0.03,0.03 -0.06,0.06 -0.13,0.13c-0.06,-0.03 -0.13,-0.1 -0.23,-0.13c-0.16,-0.07 -0.19,0.16 -0.35,0.16c-0.16,-0.06 -0.33,-0.16 -0.49,-0.26c0.1,-0.09 0.16,-0.16 0.26,-0.26c0.13,0.07 0.26,0.13 0.42,0.2c0.2,-0.1 0.29,-0.29 0.46,-0.42l0,-0.2c0.06,-0.03 0.13,-0.06 0.22,-0.09c0.1,0.06 0.17,0.16 0.26,0.22c0,0.13 0.03,0.26 0.03,0.36c0.07,0.1 0.17,0.16 0.26,0.26c0.04,-0.2 0.07,-0.33 0.1,-0.49c0.07,0 0.13,-0.03 0.23,-0.06c0.03,-0.07 0.03,-0.13 0.06,-0.23c-0.13,-0.06 -0.22,-0.1 -0.35,-0.16l0,-0.16c0.06,-0.13 0.16,-0.1 0.29,-0.1c0.1,0 0.23,0 0.19,-0.16c0.04,-0.03 0.1,-0.03 0.13,-0.07c0.07,-0.03 0.13,-0.06 0.2,-0.13c0.03,0.1 0,0.23 0.16,0.13c-0.03,-0.03 -0.1,-0.06 -0.16,-0.13c0,0 0.03,-0.03 0,-0.06c0,-0.03 -0.04,-0.07 -0.07,-0.07c-0.22,0.04 -0.42,-0.13 -0.65,-0.19c-0.09,-0.03 -0.22,0 -0.29,0c-0.19,0.19 -0.35,0.36 -0.55,0.55c-0.19,-0.23 -0.36,-0.42 -0.45,-0.55l-0.29,0c-0.04,-0.13 0.13,-0.16 0.16,-0.26c-0.07,-0.06 -0.16,-0.16 -0.23,-0.23l-0.16,0c-0.03,0.1 -0.1,0.23 -0.16,0.33c-0.04,-0.03 -0.1,-0.1 -0.13,-0.16c-0.26,0.13 -0.52,0.22 -0.75,0.38c-0.16,0.1 -0.29,0.07 -0.48,0.04c0.03,-0.1 0.09,-0.16 0.16,-0.26c-0.16,-0.03 -0.33,-0.03 -0.49,-0.07c0.07,-0.09 0.1,-0.13 0.16,-0.19c-0.06,-0.07 -0.09,-0.16 -0.16,-0.26c0.07,-0.1 0.13,-0.16 0.2,-0.26c-0.04,-0.06 -0.1,-0.1 -0.17,-0.16c-0.03,-0.26 0.26,-0.32 0.3,-0.52c-0.17,-0.13 -0.36,-0.03 -0.59,-0.06c-0.03,0.16 -0.06,0.32 -0.1,0.51c-0.19,-0.19 0,-0.48 -0.25,-0.58l0,-0.52c0.03,-0.06 0.09,-0.09 0.16,-0.16c-0.13,-0.13 -0.26,-0.26 -0.42,-0.42l-0.3,0c-0.09,-0.03 -0.13,-0.19 -0.26,-0.16c0.04,-0.13 -0.13,-0.16 -0.16,-0.26l0,-0.32c0.03,-0.04 0.1,-0.1 0.13,-0.13l0,-0.36c-0.03,-0.03 -0.06,-0.06 -0.13,-0.13l0,-0.81c0.07,-0.13 0.13,-0.26 0.2,-0.42c0.26,-0.13 0.55,-0.19 0.74,-0.45c-0.13,-0.07 -0.26,-0.13 -0.45,-0.23l-0.26,0c-0.1,0.1 -0.1,0.26 -0.26,0.23c0,-0.13 -0.06,-0.16 -0.16,-0.13c-0.03,-0.1 0,-0.23 -0.16,-0.13c0.03,0.03 0.09,0.06 0.16,0.13c0,0.1 0.03,0.16 0.16,0.13l0,0.26c-0.06,0.06 -0.16,0.16 -0.23,0.22c-0.06,-0.06 -0.16,-0.09 -0.22,-0.16c-0.13,0.07 -0.3,0.13 -0.46,0.23c-0.03,-0.13 -0.03,-0.23 -0.06,-0.32c0.13,-0.07 0.22,-0.1 0.32,-0.13c-0.29,-0.2 -0.61,-0.26 -0.84,-0.52c0,-0.07 0.03,-0.13 0.03,-0.26c0.1,0.06 0.13,0.1 0.2,0.16c0.13,-0.06 0.26,-0.13 0.42,-0.19c0,-0.13 0.03,-0.26 0.03,-0.36c0.06,-0.1 0.16,-0.16 0.23,-0.23l0.52,0c0.03,-0.06 0.03,-0.16 0.06,-0.19c0.16,-0.19 0.32,-0.36 0.49,-0.55l0,-0.16c0.09,-0.07 0.22,-0.1 0.32,-0.16c0,-0.1 0,-0.17 -0.03,-0.26c0.1,-0.04 0.23,0 0.13,-0.16c-0.03,0.03 -0.07,0.09 -0.13,0.16c-0.07,-0.04 -0.13,0.06 -0.16,0.09c-0.1,0.1 -0.2,0.07 -0.3,-0.03c0.07,-0.06 0.1,-0.13 0.17,-0.19c-0.07,-0.07 -0.17,-0.13 -0.26,-0.2c-0.17,0.2 -0.33,0.39 -0.59,0.72l0,0.55c-0.16,0.06 -0.32,0.09 -0.42,0.22l-0.48,0c-0.04,-0.03 -0.1,-0.09 -0.13,-0.13c-0.17,0.04 -0.23,0.2 -0.36,0.29l-0.45,0c-0.07,-0.09 -0.17,-0.22 -0.26,-0.32l-0.3,0l0,-0.26c0.23,-0.1 0.46,-0.22 0.65,-0.32c0.04,-0.16 -0.06,-0.23 -0.13,-0.29c-0.06,-0.07 -0.09,-0.2 -0.13,-0.29c0,-0.1 -0.06,-0.2 -0.06,-0.26c-0.03,-0.1 0.03,-0.23 -0.1,-0.29c-0.03,0.09 -0.06,0.19 -0.1,0.32c-0.13,0 -0.25,0.03 -0.38,0.03c-0.04,0.1 -0.07,0.2 -0.1,0.32c-0.1,0 -0.23,0.04 -0.29,0c-0.26,-0.16 -0.59,-0.25 -0.78,-0.58c0,-0.06 -0.03,-0.19 -0.03,-0.35c-0.07,0 -0.13,-0.04 -0.23,-0.07c-0.1,-0.06 -0.2,-0.16 -0.26,-0.23l0,-0.55c0.1,-0.03 0.16,-0.03 0.26,-0.06c0.26,-0.26 0.52,-0.55 0.81,-0.81l0.16,0c0.07,-0.06 0.13,-0.1 0.2,-0.16l0.32,0c0.03,-0.1 0.03,-0.2 0.1,-0.29c0.06,-0.1 0.13,-0.16 0.09,-0.29c-0.03,-0.07 -0.09,-0.1 -0.16,-0.17l0,-0.25c0.1,0.03 0.16,0.09 0.26,0.16c0.2,-0.16 0,-0.29 -0.1,-0.42l0,-0.39l0.26,0c0.07,-0.1 0.1,-0.23 0.17,-0.33c0.06,0 0.13,0 0.16,0c0.06,0 0.1,0 0.16,0c0.03,0 0.03,-0.06 0.07,-0.13c-0.2,0 -0.39,-0.03 -0.56,-0.03c-0.09,-0.03 -0.13,-0.22 -0.26,-0.06l0,0.55l-0.25,0c-0.07,-0.07 -0.13,-0.1 -0.2,-0.16l-0.32,0c-0.1,-0.17 -0.1,-0.2 0.13,-0.42c-0.07,-0.07 -0.1,-0.13 -0.17,-0.2c0.17,-0.03 0.33,-0.06 0.49,-0.1c0,-0.22 -0.23,-0.06 -0.26,-0.16c-0.06,-0.16 -0.23,-0.06 -0.32,-0.16c-0.07,-0.16 0.03,-0.39 -0.2,-0.52c0.07,-0.06 0.1,-0.13 0.16,-0.19l0,-0.33c-0.09,-0.06 -0.22,-0.09 -0.32,-0.16c0.1,-0.09 0.16,-0.16 0.23,-0.22c0.22,0.03 0.39,-0.07 0.58,-0.17c0.16,-0.09 0.33,-0.16 0.49,-0.22c-0.16,-0.23 -0.26,-0.39 -0.36,-0.62l0,-0.45c0.07,-0.06 0.1,-0.13 0.16,-0.19l0,-0.33c0.16,-0.16 0.33,-0.32 0.46,-0.48c0,0 0,-0.04 -0.04,-0.07c-0.13,0 -0.26,-0.03 -0.48,-0.06c0.39,-0.26 0.45,-0.65 0.65,-0.94c0.19,-0.03 0.39,0.03 0.58,-0.07c-0.13,-0.13 -0.23,-0.26 -0.36,-0.42c0.07,-0.09 0.13,-0.19 0.2,-0.29c0,-0.19 0,-0.42 0,-0.65c0,-0.03 -0.03,-0.03 -0.07,-0.06c-0.06,0.03 -0.09,0.1 -0.19,0.16c-0.03,-0.06 -0.07,-0.13 -0.1,-0.16c0.1,-0.23 0.29,-0.32 0.42,-0.49c0.23,0.04 0.29,-0.19 0.49,-0.32l0.65,0c0.06,-0.19 0.16,-0.36 0.29,-0.49c0.13,-0.16 0.36,-0.12 0.45,-0.29c0.1,-0.16 0.33,-0.19 0.46,-0.29c-0.07,-0.06 -0.1,-0.13 -0.17,-0.16l0,-0.32c0.17,-0.1 0.3,-0.2 0.49,-0.23c0.23,-0.03 0.26,-0.29 0.42,-0.32c0.23,-0.04 0.29,-0.2 0.49,-0.33c0.06,0 0.19,0 0.29,0c0.13,-0.09 0.26,-0.16 0.29,-0.35c0.03,-0.26 0.26,-0.29 0.46,-0.36c0.03,-0.06 0.03,-0.16 0.06,-0.23c0.13,-0.09 0.26,-0.03 0.39,-0.06c0.13,-0.16 0.13,-0.49 0.42,-0.49c0.1,0 0.16,-0.13 0.26,-0.19c0.29,-0.29 0.58,-0.58 0.88,-0.87l0,-0.17c0.06,-0.06 0.16,-0.16 0.22,-0.22c0.2,0 0.36,-0.07 0.55,0.03c0,0.13 0.04,0.26 0.04,0.42c0.19,0.06 0.38,0.06 0.61,0c0,-0.03 0,-0.06 0,-0.06c-0.16,-0.17 -0.29,-0.33 -0.45,-0.46c0.06,-0.06 0.09,-0.13 0.16,-0.16c0,-0.06 0,-0.1 0,-0.19c0.1,-0.04 0.19,-0.07 0.29,-0.1c0.03,-0.1 0.07,-0.2 0.1,-0.29c0.06,0 0.13,0 0.19,0c0.07,-0.1 0.1,-0.23 0.17,-0.33l0.16,0c0.06,0.07 0.13,0.1 0.16,0.17c0.13,0.03 0.19,-0.07 0.29,-0.13c0.07,-0.07 0.2,-0.07 0.29,-0.1l0,-0.36c0.2,-0.19 0.39,-0.39 0.59,-0.58c0.06,0.07 0.16,0.16 0.26,0.26c-0.17,0.16 -0.36,0.32 -0.52,0.45c0.09,0.1 0.16,0.16 0.22,0.26c0.2,-0.19 0.39,-0.39 0.59,-0.58l0,-0.32c0.06,-0.07 0.09,-0.13 0.16,-0.17c-0.03,-0.03 -0.1,-0.09 -0.13,-0.13c0,-0.03 0,-0.06 0,-0.06c0.29,-0.23 0.36,-0.68 0.75,-0.87l0.45,0c0.1,-0.1 0.19,-0.23 0.29,-0.36c0.1,0.06 0.13,0.13 0.2,0.19c0.03,-0.03 0.06,-0.09 0.12,-0.13c0.13,-0.03 0.23,0.23 0.39,0.1c0,-0.16 0.04,-0.16 0.04,-0.19c0,-0.23 0,-0.46 0,-0.65c0.22,-0.1 0.42,-0.29 0.71,-0.26c0.1,-0.1 0.23,-0.23 0.36,-0.32c0.06,0.06 0.16,0.16 0.22,0.22c-0.03,0.07 -0.09,0.13 -0.16,0.2c0.13,0.06 0.26,0.13 0.42,0.22c0.29,-0.22 0.36,-0.58 0.42,-0.93c0.13,-0.07 0.26,-0.04 0.39,-0.04c0.07,0.17 0.16,0.33 0.23,0.49c-0.07,0.03 -0.13,0.06 -0.16,0.1c-0.03,0.06 0,0.16 0,0.22c-0.16,0.03 -0.33,-0.03 -0.49,0.07c0.07,0.03 0.13,0.06 0.2,0.09c0.06,0 0.16,0 0.13,0.13c-0.1,0.04 -0.2,0.07 -0.33,0.13c0.13,0.07 0.26,0.13 0.36,0.17c-0.07,0.06 -0.13,0.12 -0.13,0.12c-0.1,0.2 0.03,0.33 -0.13,0.46l-0.2,0c-0.03,-0.29 -0.29,-0.46 -0.45,-0.65c-0.29,0 -0.58,0 -0.87,0c-0.04,0 -0.1,-0.03 -0.17,-0.06c-0.03,0 -0.06,-0.17 -0.16,-0.07c0,0.16 -0.1,0.32 0.07,0.45c0.16,0.07 0.22,-0.09 0.32,-0.16c0.06,0.1 0.1,0.23 0.16,0.36c0.13,-0.07 0.23,-0.13 0.33,-0.2c0.09,0.1 0.03,0.2 0.06,0.3c-0.1,0.03 -0.26,-0.07 -0.32,0.09c0.22,0.07 0.22,0.07 0.32,-0.09c0.1,-0.07 0.16,-0.1 0.16,-0.1c0.13,0.06 0.26,0.13 0.33,0.16c0,0.19 -0.04,0.29 -0.16,0.26c-0.17,0 -0.17,0.1 -0.17,0.26c0.13,0.03 0.13,0.22 0.33,0.22c0.03,0.1 0,0.23 0.16,0.13c-0.03,-0.03 -0.1,-0.06 -0.16,-0.13c0,-0.06 0,-0.12 0,-0.22c0.06,-0.07 0.16,-0.16 0.22,-0.23c0.1,0.03 0.17,0.23 0.33,0.13c0.06,-0.03 0.1,-0.1 0.16,-0.16l0.32,0c0.07,-0.07 0.13,-0.16 0.23,-0.23c0.1,-0.09 0.2,-0.26 0.26,-0.26c0.42,-0.06 1.2,-0.48 1.36,-0.74c0,-0.03 0,0 0,0c-0.1,-0.16 -0.16,-0.29 -0.22,-0.45c-0.07,0.03 -0.17,0.03 -0.23,0.06c0.06,0.07 0.13,0.13 0.16,0.19c-0.1,0.1 -0.16,0.23 -0.36,0.26c-0.16,0.04 -0.29,0.17 -0.45,0.26c-0.13,0.07 -0.26,0.13 -0.42,0.2c-0.26,-0.2 -0.42,-0.49 -0.55,-0.81c0.06,-0.03 0.13,-0.07 0.16,-0.1c0.03,-0.06 0,-0.16 0,-0.23c0.06,0 0.16,-0.03 0.23,0c0.06,0.04 0.06,0.1 0.09,0.17c-0.16,0 -0.16,0.09 -0.16,0.19c0,0.13 -0.06,0.29 0.16,0.26c0.04,0.1 0,0.23 0.17,0.13c-0.04,-0.03 -0.1,-0.07 -0.17,-0.13c0,-0.13 0,-0.32 0,-0.49c0.17,-0.03 0.26,-0.16 0.33,-0.29c0,-0.06 0,-0.13 -0.03,-0.16c-0.1,-0.06 -0.23,-0.06 -0.36,-0.16c-0.13,-0.1 -0.07,-0.26 -0.16,-0.36c-0.04,-0.03 -0.07,-0.06 -0.1,-0.09c0.13,-0.13 0.26,-0.26 0.39,-0.43c0.1,0.17 0.16,0.23 0.19,0.26l0.36,0c0.03,-0.09 0.06,-0.19 0.1,-0.32c0.06,0.06 0.16,0.13 0.22,0.16c0.1,0.03 0.2,0 0.3,0c0.03,0.03 0.06,0.07 0.09,0.1c0.04,0.13 -0.03,0.19 -0.09,0.29c-0.07,0.06 -0.07,0.19 -0.1,0.26c-0.07,0 -0.13,0 -0.2,0.03c-0.09,0.13 -0.19,0.29 -0.26,0.45c-0.03,0.07 0.04,0.13 0.07,0.23c0.06,-0.06 0.1,-0.1 0.13,-0.16c0.13,-0.03 0.29,-0.03 0.45,-0.07c-0.06,-0.09 -0.13,-0.16 -0.19,-0.22c0.1,-0.07 0.23,-0.1 0.32,-0.16c0.1,-0.07 0.2,-0.2 0.29,-0.3c0.1,0.07 0.2,0.13 0.3,0.2c0.06,-0.03 0.16,-0.1 0.26,-0.13l0,0.42c0.06,0.07 0.09,0.13 0.16,0.16c-0.07,0.1 -0.16,0.16 -0.23,0.23l-0.49,0c-0.09,0.06 -0.13,0.16 -0.06,0.29c0.1,0.1 0.26,0.03 0.36,0.06c0.09,0.07 0.19,0.13 0.26,0.2c0.22,-0.1 0.32,-0.32 0.48,-0.42c0.03,-0.1 0.03,-0.16 0.07,-0.26l0.39,0c0.06,-0.13 0.16,-0.26 0.22,-0.36l0.26,0c0.07,-0.09 0.1,-0.22 0.16,-0.32c0.07,0.06 0.13,0.1 0.17,0.16c0.06,-0.06 0.13,-0.1 0.19,-0.16c0.23,0.03 0.42,0.29 0.68,0.13c0.1,-0.1 -0.06,-0.1 -0.06,-0.16c-0.17,-0.16 -0.1,-0.29 -0.1,-0.39c0.1,-0.1 0.16,-0.16 0.23,-0.26c0.22,0.16 0.29,0.42 0.42,0.68c-0.07,0.06 -0.1,0.16 -0.2,0.26c0.1,0.19 0.2,0.42 0.33,0.65c-0.1,0.09 -0.2,0.19 -0.3,0.29l0,0.39c0.13,0.09 0.2,0.06 0.3,0c0.19,-0.1 0.13,-0.33 0.29,-0.46c0.13,-0.13 0.32,-0.22 0.23,-0.42c0.22,-0.1 0.29,0.03 0.38,0.13c0.13,0 0.26,0 0.43,0l0,0.26c-0.07,0.06 -0.1,0.13 -0.2,0.19c0.16,0.04 0.33,0.07 0.45,0.07c0.1,0.13 0.04,0.26 0.04,0.42c-0.1,0.03 -0.2,0.06 -0.29,0.1c0.06,0.16 0.16,0.29 0.22,0.45l0.07,0c-0.04,0.1 0.03,0.23 -0.07,0.29c-0.09,0.03 -0.19,0.07 -0.39,0.13c0.3,0.1 0.49,0.1 0.68,0.07c0.1,-0.1 0.17,-0.17 0.23,-0.23l0,-0.29c0.1,0 0.16,-0.07 0.16,-0.16l0.23,0c0.13,0.22 0.19,0.48 0.42,0.64c0.07,-0.03 0.1,-0.09 0.16,-0.16l0.49,0c0.03,-0.03 0.06,-0.06 0.13,-0.13c0.06,0.03 0.13,0.1 0.23,0.16c0.22,-0.03 0.39,-0.29 0.68,-0.09c-0.04,0.06 -0.1,0.13 -0.16,0.22c-0.04,0.2 0.16,0.26 0.25,0.39l0.33,0c0.06,-0.06 0.13,-0.1 0.16,-0.16c0.07,0 0.1,0 0.16,0c0.13,0.1 0.04,0.26 0.07,0.39c-0.16,0.22 -0.36,0.06 -0.62,0.13c-0.03,0.06 -0.13,0.19 -0.16,0.26c-0.16,0.03 -0.26,0.06 -0.32,0.06c0.03,0.03 0.03,0.1 0.03,0.13c0.06,0.1 0.1,0.23 0.16,0.36c0.03,-0.04 0.1,-0.1 0.13,-0.13c0.1,-0.1 0.26,0 0.36,-0.03c0.06,0.06 0.09,0.09 0.16,0.16c0.16,0 0.35,0.03 0.55,0.03c0.03,0.06 0.03,0.16 0.06,0.23c-0.13,0.06 -0.29,0.16 -0.42,0.22c-0.03,-0.03 -0.09,-0.06 -0.16,-0.13c-0.06,0.07 -0.1,0.1 -0.16,0.16c-0.07,-0.06 -0.1,-0.09 -0.2,-0.16c-0.03,0.1 -0.03,0.16 -0.06,0.26c-0.2,0.1 -0.42,0.2 -0.62,0.33c0.1,0.16 0.26,0.06 0.39,0.09c0.07,-0.06 0.13,-0.09 0.2,-0.16c0.03,0.03 0.06,0.07 0.09,0.1c0.04,0.19 -0.09,0.39 0.13,0.58c0.04,-0.16 0.04,-0.32 0.1,-0.48c0.07,-0.13 0.16,-0.26 0.26,-0.43c0.1,0.07 0.19,0.1 0.32,0.2c0.04,-0.1 0.1,-0.26 0.13,-0.29c0.2,0 0.26,0 0.36,-0.04c0.03,-0.09 0.07,-0.16 0.1,-0.25c0.03,-0.04 0.1,-0.07 0.13,-0.07c0.09,0 0.22,0 0.32,0l0,0.26c-0.06,0.06 -0.16,0.16 -0.23,0.23c-0.12,0 -0.25,0.03 -0.42,0.03c0.07,0.1 0.1,0.13 0.17,0.23c-0.04,0.03 -0.07,0.09 -0.13,0.19l0,0.65c-0.13,0.09 -0.23,0.09 -0.33,0c0.03,-0.07 0.1,-0.1 0.13,-0.16c-0.03,-0.07 -0.1,-0.1 -0.13,-0.17c-0.03,-0.13 0.03,-0.26 -0.03,-0.38c-0.16,0.03 -0.2,0.16 -0.29,0.22c-0.07,0.16 0.09,0.23 0.16,0.33c-0.13,0.12 -0.26,0.03 -0.42,0.06c-0.03,0.06 -0.07,0.13 -0.07,0.16c0.26,0.26 0.49,0.49 0.72,0.71c-0.17,0.17 -0.26,0.33 -0.39,0.39c-0.16,0.1 -0.1,0.33 -0.23,0.42l-0.32,0c-0.07,0.07 -0.13,0.1 -0.17,0.17l-0.35,0c-0.03,0.16 -0.07,0.29 -0.07,0.45c-0.26,0.13 -0.52,-0.03 -0.77,0.1c0.06,0.06 0.09,0.12 0.16,0.19c-0.07,0.1 -0.1,0.16 -0.13,0.26c-0.1,0.03 -0.23,0 -0.13,0.16c0.03,-0.03 0.06,-0.1 0.13,-0.16c0.09,0 0.26,0 0.39,0c0.09,-0.1 0.19,-0.2 0.29,-0.29c0.29,0 0.52,-0.16 0.78,-0.23l0,-0.23c0.06,-0.03 0.13,-0.06 0.22,-0.06c0.1,0.16 0.17,0.29 0.26,0.45c-0.03,0.03 -0.06,0.07 -0.16,0.16c0.1,0.04 0.19,0.1 0.29,0.13c0.07,0.13 0.2,0.1 0.33,0.1c0.06,-0.13 0.22,-0.16 0.22,-0.32c0.13,-0.04 0.17,0.13 0.26,0.16c0.07,0 0.16,0.03 0.23,0c0.26,-0.16 0.58,-0.16 0.84,-0.32c0.13,-0.07 0.26,-0.2 0.39,-0.33c0.07,0.07 0.13,0.16 0.23,0.29c-0.1,0.07 -0.23,0.16 -0.33,0.23c0.04,0.19 -0.03,0.32 0.07,0.45c0.13,-0.03 0.23,-0.26 0.42,-0.06c-0.03,0.06 -0.1,0.16 -0.16,0.26c0.03,0.06 0.06,0.16 0.1,0.19c0.22,0.07 0.42,0.2 0.64,0.32c-0.03,0 0,0 0,0c0.17,-0.16 0.33,-0.32 0.46,-0.48c0.09,0 0.26,0.03 0.32,0c0.2,-0.16 0.49,-0.19 0.62,-0.45c0.13,-0.04 0.26,-0.04 0.39,-0.07c0.03,0 0.03,-0.1 0.06,-0.13c0.33,0.07 0.49,-0.26 0.81,-0.29c0.07,0.03 0.13,0.26 0.33,0.26c0.03,0.1 0,0.23 0.16,0.13c-0.03,-0.03 -0.1,-0.07 -0.16,-0.13c0,-0.07 0,-0.13 0,-0.23c-0.07,-0.06 -0.1,-0.13 -0.17,-0.16c0.1,-0.13 0.26,-0.06 0.39,-0.06c0.1,-0.17 0.23,-0.33 0.33,-0.49l0.87,0c0.07,0.07 0.13,0.16 0.2,0.23c-0.07,0.13 -0.13,0.26 -0.2,0.42c-0.06,0 -0.13,0 -0.22,0.03c-0.04,-0.16 -0.04,-0.32 -0.07,-0.52c-0.1,0.04 -0.19,0.04 -0.32,0.07c0.06,0.06 0.13,0.09 0.13,0.13c0.13,0.19 0,0.39 0.06,0.55c-0.16,0.16 -0.29,0.29 -0.42,0.42c-0.1,0.03 -0.23,-0.07 -0.23,0.13c0.16,0.13 0.36,0 0.59,0.09c0.03,0.04 0.13,0.13 0.19,0.2c0.03,0.16 0.03,0.26 -0.16,0.26c-0.03,0 -0.1,0.03 -0.16,0.09c0.09,0.04 0.19,0.07 0.29,0.1c0.03,0.03 0.03,0.1 0.06,0.13c-0.13,-0.03 -0.16,0.13 -0.26,0.16c-0.03,-0.03 -0.06,-0.06 -0.13,-0.13c-0.03,0.04 -0.09,0.07 -0.16,0.13c-0.06,-0.03 -0.16,-0.09 -0.23,-0.13c-0.16,0 -0.16,0 -0.19,0.26c0.1,0.13 0.26,0.04 0.39,0.1c0.06,0.1 0.13,0.23 0.19,0.39c-0.03,0.03 -0.06,0.1 -0.09,0.13c0.19,0.29 0.29,-0.03 0.45,-0.07c0.07,0 0.19,0 0.29,0.04c-0.16,-0.26 -0.16,-0.17 -0.13,-0.13c-0.09,0 -0.19,0 -0.32,0.03c0,0.13 0.03,0.22 0.03,0.32c0.13,-0.03 0.23,-0.06 0.29,-0.1l0,-0.25zm-15.98,-0.1c-0.03,-0.13 -0.03,-0.26 -0.16,-0.13c0.03,0.03 0.1,0.06 0.13,0.06c0.03,0.13 0.03,0.26 0.16,0.13c-0.06,-0.06 -0.1,-0.09 -0.13,-0.06zm-7.75,23.66c0.13,-0.03 0.26,-0.03 0.13,-0.16c-0.03,0.03 -0.06,0.09 -0.06,0.13c-0.13,0.03 -0.26,0.03 -0.13,0.16c0.06,-0.03 0.1,-0.1 0.06,-0.13zm21.95,-21.56c-0.1,0 -0.16,0.07 -0.13,0.16c-0.13,0.04 -0.26,0.04 -0.13,0.17c0.03,-0.04 0.06,-0.1 0.1,-0.17c0.09,0 0.16,-0.06 0.13,-0.16c0.13,-0.03 0.26,-0.03 0.13,-0.16c-0.07,0.07 -0.1,0.1 -0.1,0.16zm-1.59,0.97c-0.13,0.04 -0.26,0.04 -0.13,0.17c0.03,-0.04 0.07,-0.1 0.07,-0.13c0.13,-0.04 0.26,-0.04 0.13,-0.17c-0.07,0.04 -0.1,0.1 -0.07,0.13zm-26.35,5.44c0.03,0.13 0.03,0.26 0.16,0.13c-0.03,-0.03 -0.1,-0.06 -0.13,-0.06c-0.03,-0.13 -0.03,-0.26 -0.16,-0.13c0.03,0.06 0.06,0.09 0.13,0.06zm-3.96,-0.1c0.13,-0.03 0.26,-0.03 0.13,-0.16c-0.03,0.03 -0.06,0.1 -0.06,0.13c-0.13,0.03 -0.26,0.03 -0.13,0.16c0.03,-0.03 0.1,-0.09 0.06,-0.13zm33.03,-5.11c-0.03,-0.13 -0.03,-0.26 -0.16,-0.13c0.03,0.03 0.1,0.07 0.16,0.1c0.1,0.16 0.1,0.16 0.33,0.1c-0.07,-0.2 -0.23,-0.07 -0.33,-0.07zm-24.66,4.43c-0.07,0 -0.17,-0.03 -0.23,0c-0.07,0.04 -0.07,0.1 -0.1,0.17l-0.39,0c-0.13,-0.07 -0.19,-0.29 -0.39,-0.1c0,0.06 0,0.13 -0.03,0.19c0.13,0.07 0.23,0.1 0.33,0.17l0,0.25l-0.39,0c-0.13,-0.06 -0.2,-0.29 -0.39,-0.13c-0.07,0.13 -0.03,0.3 -0.03,0.46c-0.17,0.03 -0.33,-0.03 -0.49,0.06c0,0.07 0.03,0.16 0.03,0.29c0.1,-0.09 0.16,-0.13 0.2,-0.19c0.06,0 0.16,0 0.22,-0.03c0.04,0.13 0.04,0.26 0.17,0.13c-0.04,-0.04 -0.1,-0.07 -0.17,-0.1l0,-0.16l0.59,0c0.06,-0.13 0.22,-0.16 0.22,-0.33c0.23,-0.09 0.39,-0.25 0.49,-0.48c0.06,0 0.16,0.03 0.23,0c0.06,-0.07 0.09,-0.13 0.13,-0.2c0.09,0 0.16,-0.06 0.16,-0.16c0.13,0.04 0.16,-0.16 0.26,-0.16c0.16,0 0.22,-0.1 0.32,-0.19c0.03,-0.04 0.03,-0.07 0.03,-0.1c-0.13,-0.06 -0.26,-0.13 -0.38,-0.19c-0.04,0.03 -0.1,0.09 -0.17,0.13c-0.06,-0.07 -0.13,-0.1 -0.16,-0.13c-0.1,0.09 -0.16,0.16 -0.26,0.22c0.13,0.07 0.23,0.1 0.33,0.16l0,0.26c-0.07,0 -0.13,0.04 -0.13,0.16zm22.52,-7.47c-0.06,0 -0.16,-0.03 -0.22,0c-0.07,0.03 -0.07,0.09 0.03,0.42c-0.06,-0.1 -0.1,-0.2 -0.16,-0.26c-0.07,-0.07 -0.16,-0.1 -0.23,-0.13c-0.26,0.26 -0.49,0.49 -0.74,0.74c0.06,0.04 0.13,0.04 0.19,0.07c0.06,-0.07 0.13,-0.13 0.19,-0.16c0.07,0.06 0.13,0.09 0.17,0.16c0.13,-0.03 0.26,0.06 0.39,-0.07c-0.04,-0.06 -0.1,-0.16 -0.13,-0.22c0.13,-0.03 0.22,-0.07 0.16,-0.39c0.06,0 0.16,0.03 0.23,0c0.06,-0.03 0.06,-0.1 0.06,-0.13c0.13,-0.03 0.26,-0.03 0.13,-0.16c0,0.03 -0.03,0.1 -0.07,0.13zm-18.96,-8c0.03,0.13 0.03,0.26 0.16,0.13c-0.03,-0.03 -0.09,-0.06 -0.16,-0.09c-0.03,-0.1 0.07,-0.26 -0.1,-0.33c-0.03,0.26 -0.03,0.26 0.1,0.29zm3.15,10c0.09,0 0.19,0 0.32,0c0,-0.12 0,-0.22 0.03,-0.32c0.07,0 0.16,0 0.26,-0.03c0.03,-0.26 0.03,-0.26 -0.26,-0.45c0,0.16 0,0.32 -0.03,0.45c-0.16,0.03 -0.29,0.16 -0.29,0.32c-0.13,0.03 -0.26,0.03 -0.13,0.16c0.03,-0.03 0.06,-0.06 0.1,-0.13zm15,0c-0.09,0 -0.19,0 -0.32,0.04c0,0.13 0,0.19 0.03,0.32c0.16,-0.1 0.29,-0.16 0.26,-0.32c0.13,-0.04 0.26,-0.04 0.13,-0.16c-0.03,0.03 -0.06,0.06 -0.1,0.12zm-8.16,-2.88c0.03,0.13 0.03,0.26 0.16,0.13c-0.03,-0.03 -0.1,-0.06 -0.16,-0.09c-0.04,-0.1 0.06,-0.26 -0.1,-0.33c-0.07,0.1 -0.2,0.13 -0.2,0.29c0.1,0.07 0.2,0.07 0.3,0zm-8.89,3.37c-0.06,0.26 -0.06,0.26 0.2,0.55c0.03,-0.06 0.06,-0.16 0.1,-0.23c-0.1,-0.09 -0.17,-0.19 -0.13,0.2c-0.13,0.03 -0.26,0.03 -0.13,0.16c-0.04,-0.06 0.03,-0.1 -0.04,-0.68zm9.53,19.81c0,0.03 0,0.06 0,0.06c0.1,0.07 0.17,0.1 0.26,0.17c0.07,-0.1 0.2,-0.13 0.2,-0.3c-0.16,-0.03 -0.33,-0.09 -0.39,0.13c-0.13,0.04 -0.26,0.04 -0.13,0.17c0.03,-0.04 0.06,-0.07 0.06,-0.23zm12.09,-14.08c-0.25,-0.23 -0.25,-0.23 -0.48,-0.2c0,0.1 0.03,0.2 0.03,0.26c0.2,0 0.36,0.1 0.42,-0.13c0.13,-0.03 0.26,-0.03 0.13,-0.16c-0.03,0.03 -0.06,0.1 -0.1,0.23zm-6.67,-6.22c-0.1,0 -0.2,0 -0.29,0.04c-0.04,0.39 -0.04,0.39 0.03,0.48c0.06,0 0.13,0 0.19,-0.03c0.1,-0.16 0.03,-0.32 0.07,-0.49c0.16,-0.09 0.16,-0.09 0.09,-0.32c-0.19,0.07 -0.06,0.23 -0.09,0.32zm-30.05,9.29c-0.1,-0.16 -0.1,-0.16 -0.33,-0.09c0.07,0.16 0.23,0.06 0.33,0.09l0,0.26c-0.07,0.39 -0.36,0.33 -0.49,0.49l0,0.32c0.13,0.1 0.2,0.29 0.42,0.23c0.07,-0.1 0.17,-0.23 0.26,-0.32l0.23,0c0.1,-0.2 0.16,-0.43 0.26,-0.62c0,-0.03 0.1,-0.03 0.13,-0.1c0,0.13 0,0.26 0.16,0.16c-0.03,-0.03 -0.1,-0.06 -0.16,-0.09c-0.03,-0.16 -0.16,-0.23 -0.29,-0.33l-0.52,0zm36.89,-4.37c-0.1,0 -0.17,0.04 -0.26,0.04c-0.03,-0.13 -0.07,-0.23 -0.13,-0.39c-0.1,0.13 -0.2,0.19 -0.26,0.29c0.03,0.16 -0.03,0.32 0,0.36c0.23,0.13 0.36,0 0.48,0.13c0.04,0.09 0.07,0.19 0.1,0.29c0.1,-0.04 0.16,-0.04 0.23,-0.07c0.03,-0.19 -0.03,-0.42 0.06,-0.58c0.1,-0.16 0.17,-0.36 0.26,-0.52c-0.16,-0.06 -0.26,-0.13 -0.45,-0.23l0,0.68l-0.03,0zm-34.65,4.63c-0.17,0.1 -0.26,0.16 -0.39,0.23c-0.2,0 -0.46,-0.03 -0.68,0.03c0,0.29 0,0.58 0,0.84c0,0.04 0.06,0.07 0.06,0.1c0.13,-0.13 0.29,-0.26 0.42,-0.39c0,-0.06 0,-0.13 0,-0.19c0.23,-0.1 0.46,-0.23 0.65,-0.33c-0.03,-0.06 -0.03,-0.13 -0.06,-0.29zm28.42,-10.19c-0.13,0.09 -0.22,0.16 -0.29,0.22c0.16,0.17 0.46,-0.03 0.55,0.23c0.1,-0.06 0.23,-0.13 0.39,-0.23c-0.03,-0.19 0.36,-0.38 0.16,-0.74c-0.13,0.06 -0.29,0.13 -0.42,0.19c-0.03,0.1 -0.03,0.17 -0.06,0.26c-0.13,0.03 -0.23,0.03 -0.33,0.07zm-16.14,-8.55c0.07,0.07 0.16,0.16 0.23,0.23c0.26,-0.16 0.39,-0.39 0.52,-0.65c0.09,-0.03 0.16,-0.03 0.32,-0.06c-0.13,-0.13 -0.23,-0.2 -0.32,-0.29c-0.13,0.22 -0.33,0.12 -0.49,0.19c-0.1,0.1 -0.16,0.16 -0.23,0.23l0,0.35l-0.03,0zm11.64,3.24c0.29,-0.23 0.48,-0.45 0.58,-0.81c-0.13,-0.1 -0.23,0 -0.32,0.06c-0.1,0.07 -0.26,0.04 -0.39,0.07c-0.03,0.13 -0.23,0.13 -0.2,0.39c0.07,0.06 0.1,0.22 0.33,0.29zm4.76,6.44c-0.13,0.13 -0.26,0.29 -0.42,0.42c-0.16,0.13 -0.39,0.13 -0.49,0.39c0.04,0.06 0.04,0.13 0.07,0.16c0.26,-0.13 0.52,-0.26 0.78,-0.42c-0.23,-0.19 0.39,-0.26 0.06,-0.55zm-1.52,-3.82c0.29,-0.16 0.55,-0.29 0.81,-0.42c-0.13,-0.13 -0.26,-0.29 -0.42,-0.42c-0.13,0.16 -0.33,0.26 -0.42,0.45c0.03,0.16 0.03,0.26 0.03,0.39zm-27.16,11.46l-0.36,0c-0.1,0.13 -0.29,0.16 -0.26,0.35c0.1,0.17 0.19,0.33 0.42,0.3c0.03,-0.1 0.03,-0.2 0.1,-0.26c0.1,-0.1 0.19,-0.2 0.1,-0.39zm9.85,-16.09c0.16,0 0.26,0 0.36,0c0.13,0 0.16,-0.19 0.32,-0.16c0.1,0.03 0.23,0.03 0.29,-0.06c-0.16,-0.1 -0.29,-0.2 -0.45,-0.26c-0.1,-0.04 -0.2,0 -0.26,0c-0.1,0.09 -0.2,0.16 -0.26,0.22l0,0.26zm11.05,-3.23c0.07,0.16 -0.03,0.29 0.1,0.42c0.07,0 0.13,0 0.19,-0.04c0.07,-0.03 0.13,-0.09 0.2,-0.13c0.06,-0.03 0.13,-0.03 0.19,-0.06c0,-0.07 0,-0.13 0,-0.19c0,-0.07 0,-0.13 -0.03,-0.3c-0.16,0.3 -0.39,0.2 -0.65,0.3zm10.08,15.99c-0.09,0.22 -0.09,0.22 0.13,0.35c0.26,-0.16 0.42,-0.52 0.78,-0.58c-0.13,-0.16 -0.26,-0.07 -0.42,-0.1c-0.1,0.1 -0.19,0.23 -0.26,0.33l-0.23,0zm1.37,-0.91c0,0.03 0.03,0.06 0.03,0.1l0.55,0c0.06,-0.07 0.16,-0.17 0.32,-0.33l-0.55,0c-0.16,0.1 -0.26,0.16 -0.35,0.23zm-0.13,-5.6c0.09,0.03 0.19,0.03 0.25,0.1c0.1,0.06 0.2,0.19 0.3,0.29c0.03,-0.07 0.06,-0.13 0.06,-0.16c-0.16,-0.2 -0.29,-0.39 -0.42,-0.55c-0.1,0.03 -0.16,0.06 -0.23,0.09l0,0.23l0.04,0zm-29.11,8.93c0,0 0.03,-0.06 0.03,-0.13c-0.1,-0.16 -0.16,-0.32 -0.26,-0.48l-0.16,0c-0.03,0.06 -0.07,0.13 -0.07,0.16c0.17,0.19 0.33,0.32 0.46,0.45zm17.34,-11.42c0.19,-0.23 0.36,-0.36 0.49,-0.52c-0.26,-0.07 -0.26,-0.07 -0.49,0.03l0,0.49zm-22.21,8.74c-0.06,-0.04 -0.12,-0.07 -0.25,-0.1c-0.07,0.1 -0.13,0.19 -0.2,0.32c0.1,0.07 0.26,0.13 0.39,0.2c0.1,-0.13 0.03,-0.26 0.06,-0.42zm0.82,-3.47c-0.1,0.07 -0.23,0.1 -0.36,0.16c0.16,0.13 0.32,0.13 0.52,0c-0.07,-0.12 0.03,-0.25 -0.1,-0.42c-0.06,0 -0.16,0.04 -0.29,0.04c0.13,0.13 0.16,0.16 0.23,0.22zm4.08,16.12c-0.19,0.1 -0.32,0 -0.45,0.1c0.03,0.13 0.16,0.19 0.22,0.29c0.07,0 0.13,-0.03 0.23,-0.03l0,-0.36zm-3.92,-11.29c0.09,0.09 0.22,0.12 0.32,0c-0.03,-0.13 0.07,-0.26 -0.06,-0.39c-0.13,0 -0.17,0.13 -0.26,0.22l0,0.17zm32.48,-9.68c0.03,0.13 0.03,0.22 0.06,0.32c0.1,-0.03 0.2,-0.03 0.29,-0.06c-0.03,-0.1 -0.03,-0.2 -0.06,-0.26l-0.29,0zm-2.37,16.31c-0.06,0.39 -0.06,0.39 0.03,0.55c0.07,-0.06 0.17,-0.16 0.17,-0.16c-0.07,-0.13 -0.1,-0.23 -0.2,-0.39zm-4.67,-22.17c-0.13,0.03 -0.22,0.03 -0.32,0.06c0.03,0.13 0.03,0.2 0.06,0.33c0.1,-0.04 0.2,-0.04 0.26,-0.07l0,-0.32zm-3.89,-0.45c0.2,-0.1 0.33,-0.2 0.46,-0.26c-0.1,-0.13 -0.23,-0.07 -0.33,-0.07c-0.03,0 -0.09,0.03 -0.16,0.07l0,0.26l0.03,0zm4.18,4.2c0.39,0.07 0.39,0.07 0.56,-0.03c-0.07,-0.06 -0.17,-0.16 -0.17,-0.16c-0.13,0.06 -0.22,0.13 -0.39,0.19zm-14.78,-3.07c-0.13,0 -0.16,0 -0.16,0c-0.03,0 -0.1,0.03 -0.13,0.06c0.03,0.04 0.03,0.07 0.07,0.1c0.06,0.07 0.09,0.1 0.19,0.19c0,-0.09 0,-0.19 0.03,-0.35zm10.7,6.86c0.07,-0.39 0.07,-0.39 -0.03,-0.52c-0.1,0.13 -0.1,0.29 0.03,0.52zm-12.22,-6.05c-0.1,0.13 -0.23,0.19 -0.26,0.32c0.1,0.07 0.2,0.07 0.29,-0.03c0,-0.07 -0.03,-0.16 -0.03,-0.29zm24.54,10.06c-0.13,-0.09 -0.23,-0.13 -0.33,0c0.1,0.07 0.13,0.2 0.3,0.23c0,-0.1 0.03,-0.16 0.03,-0.23zm-23.28,2.24c0.1,-0.13 0.13,-0.23 0,-0.36c-0.03,0.13 -0.19,0.13 -0.19,0.33c0.06,0 0.13,0.03 0.19,0.03zm6.62,-16.77c0,0.13 0,0.16 0,0.2c0,0.03 0.03,0.09 0.06,0.12c0.03,-0.03 0.07,-0.03 0.1,-0.06c0.06,-0.06 0.1,-0.1 0.19,-0.19c-0.13,0 -0.19,-0.04 -0.35,-0.07zm-7.17,16.67c-0.09,-0.1 -0.22,-0.13 -0.32,0c0,0.1 -0.07,0.19 0.1,0.23c0.06,-0.07 0.13,-0.13 0.22,-0.23zm6.1,-15.99c-0.1,0.13 -0.13,0.23 0,0.32c0.09,0 0.19,0.07 0.22,-0.09c-0.06,-0.07 -0.13,-0.13 -0.22,-0.23zm13.51,12.56c0.13,-0.03 0.3,0.13 0.46,-0.03c-0.16,-0.13 -0.33,-0.13 -0.46,0.03zm-27.13,7.77c-0.13,-0.13 -0.22,-0.13 -0.35,-0.03c0,0.06 0.03,0.16 0.03,0.22c0.13,-0.06 0.23,-0.13 0.32,-0.19zm-2.82,0.26c-0.16,0.03 -0.19,0.16 -0.29,0.22c0.1,0.13 0.23,0.13 0.33,0c0,-0.09 0,-0.16 -0.04,-0.22zm14.98,-8.32c0.1,-0.13 0.13,-0.23 0,-0.36c-0.03,0.13 -0.2,0.13 -0.2,0.33c0.04,0.03 0.13,0.03 0.2,0.03zm-14.2,9.13c0.1,-0.13 0.13,-0.23 0,-0.33c-0.1,0 -0.19,-0.06 -0.23,0.1c0.07,0.06 0.13,0.13 0.23,0.23zm2.27,0c0.1,-0.13 0.13,-0.23 0,-0.33c-0.1,0 -0.19,-0.06 -0.23,0.1c0.1,0.06 0.17,0.13 0.23,0.23zm30.34,-7.58c-0.39,-0.06 -0.39,-0.06 -0.52,0.07c0.16,0.06 0.29,0.06 0.52,-0.07zm-22.43,15.44c0.1,0.1 0.23,0.13 0.32,0c0,-0.1 0.07,-0.19 -0.09,-0.23c-0.07,0.07 -0.13,0.17 -0.23,0.23zm14.59,-14.89c-0.13,-0.13 -0.23,-0.13 -0.36,-0.03c0,0.06 0.03,0.16 0.03,0.23c0.1,-0.07 0.2,-0.13 0.33,-0.2zm-7.04,-11.91c0.03,0 0.07,0 0.1,0c0,-0.06 0.03,-0.16 0.03,-0.23c0,-0.03 -0.03,-0.06 -0.06,-0.06c-0.04,0 -0.1,0.03 -0.1,0.06c0,0.1 0.03,0.17 0.03,0.23zm2.27,5.05c0,0.03 0,0.06 0,0.1c0.07,0 0.13,0.03 0.23,0.03c0.03,0 0.06,-0.03 0.06,-0.07c0,-0.03 -0.03,-0.09 -0.06,-0.09c-0.07,0 -0.13,0 -0.23,0.03zm-17.92,1.1c0.03,0 0.06,0 0.09,0c0,-0.06 0.04,-0.16 0.04,-0.23c0,-0.03 -0.04,-0.06 -0.07,-0.06c-0.03,0 -0.1,0.03 -0.1,0.06c0,0.07 0,0.17 0.04,0.23zm22.39,-0.32c-0.09,0.13 -0.16,0.26 0.04,0.32c0.06,-0.1 0.09,-0.19 -0.04,-0.32zm-19.09,22.72c0.1,-0.16 0.16,-0.26 -0.03,-0.32c-0.1,0.09 -0.07,0.19 0.03,0.32zm10.34,-29.65c-0.03,0 -0.06,0 -0.1,0c0,0.06 -0.03,0.16 -0.03,0.23c0,0.03 0.03,0.06 0.07,0.06c0.03,0 0.09,-0.03 0.09,-0.06c0,-0.1 -0.03,-0.17 -0.03,-0.23zm16.37,14.47c0.1,0.13 0.23,0.13 0.33,0c-0.13,-0.1 -0.23,-0.1 -0.33,0zm-29.2,-0.2c0,0.04 0,0.07 0,0.1c0.06,0 0.13,0.03 0.22,0.03c0.04,0 0.07,-0.03 0.07,-0.06c0,-0.03 -0.03,-0.1 -0.07,-0.1c-0.09,0 -0.16,0 -0.22,0.03zm7.65,-0.12c0.09,0.12 0.22,0.12 0.32,0c-0.13,-0.13 -0.23,-0.13 -0.32,0zm7.84,-13.63c0,0.03 0,0.06 0,0.1c0.06,0 0.13,0.03 0.23,0.03c0.03,0 0.06,-0.03 0.06,-0.07c0,-0.03 -0.03,-0.09 -0.06,-0.09c-0.07,0 -0.17,0 -0.23,0.03zm-17.89,18.03c0.09,-0.16 0.16,-0.26 -0.04,-0.33c-0.09,0.1 -0.06,0.2 0.04,0.33zm11.05,-5.02c0.03,0 0.07,0 0.1,0c0,-0.06 0.03,-0.16 0.03,-0.23c0,-0.03 -0.03,-0.06 -0.06,-0.06c-0.04,0 -0.1,0.03 -0.1,0.06c0,0.1 0,0.17 0.03,0.23zm13.23,-10.2c0,0.04 0,0.07 0,0.1c0.06,0 0.13,0.03 0.22,0.03c0.04,0 0.07,-0.03 0.07,-0.06c0,-0.03 -0.03,-0.1 -0.07,-0.1c-0.09,0 -0.16,0 -0.22,0.03zm-5.45,-3.72c0,-0.03 0,-0.06 0,-0.1c-0.06,0 -0.13,-0.03 -0.23,-0.03c-0.03,0 -0.06,0.03 -0.06,0.07c0,0.03 0.03,0.09 0.06,0.09c0.07,0 0.17,-0.03 0.23,-0.03zm-2.72,11.95c0.03,0 0.06,0 0.09,0c0,-0.07 0.04,-0.17 0.04,-0.23c0,-0.03 -0.04,-0.07 -0.07,-0.07c-0.03,0 -0.1,0.04 -0.1,0.07c0,0.06 0.04,0.16 0.04,0.23zm9.62,6.57c-0.16,-0.1 -0.25,-0.17 -0.32,0.03c0.1,0.06 0.16,0.06 0.32,-0.03zm6.52,-8.13c-0.1,-0.13 -0.23,-0.13 -0.32,0c0.09,0.13 0.19,0.13 0.32,0zm-1.33,-1.94c0,-0.03 0,-0.06 0,-0.1c-0.06,0 -0.13,-0.03 -0.23,-0.03c-0.03,0 -0.06,0.03 -0.06,0.07c0,0.03 0.03,0.09 0.06,0.09c0.07,0 0.13,-0.03 0.23,-0.03zm-20.55,-7.83c0.1,0.13 0.23,0.13 0.32,0c-0.13,-0.13 -0.22,-0.13 -0.32,0zm11.73,1.36c-0.03,-0.04 -0.03,-0.07 -0.06,-0.1c-0.03,0.03 -0.07,0.03 -0.07,0.06c0,0.04 0.04,0.07 0.07,0.1c0,-0.03 0.03,-0.06 0.06,-0.06zm2.08,-0.1c-0.03,0.03 -0.07,0.03 -0.1,0.06c0.03,0.04 0.03,0.07 0.07,0.07c0.03,0 0.06,-0.03 0.09,-0.07c-0.03,-0.03 -0.03,-0.03 -0.06,-0.06zm-5.38,1.94c0.03,-0.03 0.03,-0.03 0.06,-0.06c-0.03,-0.04 -0.06,-0.04 -0.09,-0.07c0,0 -0.04,0.03 -0.07,0.07c0.03,0.03 0.07,0.03 0.1,0.06zm-0.52,0.2c-0.03,0.03 -0.07,0.03 -0.07,0.06c0,0.03 0.04,0.06 0.07,0.1c0.03,-0.04 0.06,-0.04 0.06,-0.07c-0.03,-0.03 -0.03,-0.06 -0.06,-0.09zm6.26,1.1c-0.04,-0.04 -0.04,-0.07 -0.07,-0.1c-0.03,0.03 -0.06,0.03 -0.06,0.06c0,0.04 0.03,0.07 0.06,0.1c0.03,-0.03 0.07,-0.03 0.07,-0.06zm-0.82,0.16c-0.03,-0.03 -0.03,-0.07 -0.06,-0.1c-0.03,0.03 -0.06,0.03 -0.06,0.07c0,0.03 0.03,0.06 0.06,0.09c0.03,-0.03 0.03,-0.03 0.06,-0.06zm-13.51,2.33c0.03,0.03 0.03,0.03 0.06,0.06c0.03,-0.03 0.03,-0.06 0.07,-0.09c0,0 -0.04,-0.04 -0.07,-0.07c0,0 -0.03,0.07 -0.06,0.1zm21.29,0.55c-0.03,0.03 -0.06,0.03 -0.06,0.06c0,0.04 0.03,0.07 0.06,0.1c0.04,-0.03 0.07,-0.03 0.07,-0.06c-0.03,-0.04 -0.03,-0.07 -0.07,-0.1zm-8.75,6.41c-0.03,-0.03 -0.03,-0.07 -0.06,-0.1c-0.03,0.03 -0.07,0.03 -0.07,0.07c0,0.03 0.04,0.06 0.07,0.09c0.03,-0.03 0.03,-0.06 0.06,-0.06zm-16.11,0.29c0.03,0.03 0.03,0.06 0.07,0.1c0.03,-0.04 0.06,-0.04 0.06,-0.07c0,-0.03 -0.03,-0.06 -0.06,-0.1c-0.04,0 -0.07,0.04 -0.07,0.07zm26.06,-2.49c-0.03,-0.04 -0.03,-0.04 -0.06,-0.07c-0.03,0.03 -0.03,0.07 -0.07,0.1c0,0 0.04,0.03 0.07,0.06c0.03,-0.03 0.06,-0.06 0.06,-0.09zm2.73,3.07c-0.04,0.03 -0.07,0.03 -0.07,0.07c0,0.03 0.03,0.06 0.07,0.09c0.03,-0.03 0.06,-0.03 0.06,-0.06c-0.03,-0.03 -0.06,-0.07 -0.06,-0.1zm-14.2,0.16c-0.03,0.04 -0.07,0.04 -0.07,0.07c0,0.03 0.04,0.06 0.07,0.1c0.03,-0.04 0.06,-0.04 0.06,-0.07c-0.03,0 -0.06,-0.06 -0.06,-0.1zm8.17,0.52c-0.04,0.03 -0.07,0.03 -0.1,0.07c0.03,0.03 0.03,0.06 0.06,0.06c0.04,0 0.07,-0.03 0.1,-0.06c0,0 -0.03,-0.04 -0.06,-0.07zm4.11,0.87c-0.03,-0.03 -0.03,-0.03 -0.06,-0.06c-0.03,0.03 -0.03,0.06 -0.07,0.1c0,0 0.04,0.03 0.07,0.06c0.03,-0.03 0.06,-0.06 0.06,-0.1zm-31.86,1.07c0.03,-0.03 0.03,-0.03 0.07,-0.06c-0.04,-0.03 -0.07,-0.03 -0.1,-0.07c0,0 -0.03,0.04 -0.07,0.07c0.04,0.03 0.07,0.06 0.1,0.06zm4.47,-0.03c-0.03,-0.03 -0.03,-0.06 -0.06,-0.06c-0.03,0 -0.07,0.03 -0.1,0.06c0.03,0.03 0.03,0.07 0.07,0.07c0.03,-0.04 0.06,-0.07 0.09,-0.07zm-7.52,0.97c-0.03,-0.03 -0.03,-0.06 -0.06,-0.06c-0.03,0 -0.07,0.03 -0.1,0.06c0.03,0.03 0.03,0.07 0.07,0.07c0.03,0 0.06,-0.04 0.09,-0.07zm3.6,0c-0.03,-0.03 -0.03,-0.06 -0.06,-0.06c-0.04,0 -0.07,0.03 -0.1,0.06c0.03,0.03 0.03,0.07 0.06,0.07c0.04,0 0.07,-0.04 0.1,-0.07zm1.59,0c-0.03,-0.03 -0.03,-0.03 -0.07,-0.06c-0.03,0.03 -0.03,0.06 -0.06,0.09c0,0 0.03,0.04 0.06,0.07c0.04,-0.03 0.07,-0.07 0.07,-0.1zm9.46,-7.51c-0.03,0.03 -0.06,0.03 -0.09,0.07c0.03,0.03 0.03,0.06 0.06,0.06c0.03,0 0.07,-0.03 0.1,-0.06c-0.03,-0.04 -0.07,-0.04 -0.07,-0.07zm-16.46,8.81c-0.03,-0.04 -0.03,-0.04 -0.07,-0.07c0,0.07 -0.03,0.1 -0.06,0.13c0,0 0.03,0.03 0.06,0.07c0.04,-0.04 0.04,-0.07 0.07,-0.13zm3.01,-9.52c0.03,-0.03 0.07,-0.03 0.1,-0.06c-0.03,-0.04 -0.03,-0.07 -0.07,-0.07c-0.03,0 -0.06,0.03 -0.09,0.07c0.03,0.03 0.03,0.03 0.06,0.06zm-0.94,11.94c0.03,-0.03 0.07,-0.06 0.07,-0.06c-0.04,-0.03 -0.07,-0.03 -0.1,-0.07c0,0 -0.03,0.04 -0.06,0.07c0.03,0.03 0.06,0.03 0.09,0.06zm0.94,0.04c-0.03,0.03 -0.03,0.03 -0.06,0.06c0.03,0.03 0.06,0.03 0.09,0.07c0,0 0.04,-0.04 0.07,-0.07c-0.03,-0.03 -0.07,-0.03 -0.1,-0.06zm14.85,2.94c0.03,-0.03 0.06,-0.03 0.1,-0.06c-0.04,-0.04 -0.04,-0.07 -0.07,-0.07c-0.03,0 -0.06,0.03 -0.1,0.07c0.04,0.03 0.07,0.03 0.07,0.06zm-0.52,0.46c0.03,0.03 0.03,0.03 0.06,0.06c0.04,-0.03 0.04,-0.06 0.07,-0.1c0,0 -0.03,-0.03 -0.07,-0.06c-0.03,0.03 -0.03,0.06 -0.06,0.1zm-3.37,1.23c-0.03,0.03 -0.07,0.03 -0.07,0.06c0,0.03 0.04,0.06 0.07,0.1c0.03,-0.04 0.06,-0.04 0.06,-0.07c0,-0.03 -0.03,-0.06 -0.06,-0.09zm6.94,1.71c-0.04,-0.03 -0.04,-0.03 -0.07,-0.06c-0.03,0.03 -0.03,0.06 -0.06,0.09c0,0 0.03,0.04 0.06,0.07c0,-0.03 0.03,-0.07 0.07,-0.1zm-12.52,0.45c-0.03,0.04 -0.03,0.04 -0.06,0.07c0.03,0.03 0.06,0.03 0.1,0.06c0,0 0.03,-0.03 0.06,-0.06c-0.03,-0.03 -0.06,-0.03 -0.1,-0.07zm12.97,0.13c0.03,-0.03 0.03,-0.03 0.06,-0.06c-0.03,-0.03 -0.06,-0.03 -0.09,-0.07c0,0 -0.04,0.04 -0.07,0.07c0.03,0.03 0.07,0.03 0.1,0.06zm-0.29,0.1c-0.03,-0.03 -0.03,-0.06 -0.07,-0.06c-0.03,0 -0.06,0.03 -0.09,0.06c0.03,0.03 0.03,0.07 0.06,0.07c0.03,-0.04 0.07,-0.04 0.1,-0.07zm-18.09,-19.36c0.03,0.04 0.03,0.04 0.06,0.07c0.04,-0.03 0.04,-0.07 0.07,-0.1c0,0 -0.03,-0.03 -0.07,-0.06c-0.03,0.03 -0.03,0.06 -0.06,0.09zm7.65,20.53c-0.03,-0.04 -0.03,-0.07 -0.06,-0.07c-0.04,0 -0.07,0.03 -0.1,0.07c0.03,0.03 0.03,0.06 0.06,0.06c0.04,-0.03 0.07,-0.03 0.1,-0.06zm3.34,0.25c-0.03,0.04 -0.03,0.04 -0.07,0.07c0.04,0.03 0.07,0.03 0.1,0.06c0,0 0.03,-0.03 0.07,-0.06c-0.04,0 -0.07,-0.03 -0.1,-0.07zm-4.67,1.43c-0.03,-0.03 -0.03,-0.07 -0.06,-0.1c-0.04,0.03 -0.07,0.03 -0.07,0.07c0,0.03 0.03,0.06 0.07,0.09c0.03,-0.03 0.03,-0.03 0.06,-0.06zm1.59,0.23c-0.03,0.03 -0.07,0.03 -0.07,0.06c0,0.03 0.04,0.06 0.07,0.1c0.03,-0.04 0.06,-0.04 0.06,-0.07c-0.03,-0.03 -0.06,-0.06 -0.06,-0.09zm2.4,1.68c-0.03,0.03 -0.03,0.03 -0.07,0.06c0.04,0.04 0.07,0.04 0.1,0.07c0,0 0.03,-0.03 0.07,-0.07c0,-0.03 -0.07,-0.06 -0.1,-0.06zm19.84,-24.28c-0.04,-0.03 -0.04,-0.06 -0.07,-0.09c-0.03,0.03 -0.06,0.03 -0.06,0.06c0,0.03 0.03,0.06 0.06,0.1c0.03,-0.04 0.07,-0.07 0.07,-0.07zm2.43,-0.13c0.03,-0.03 0.03,-0.03 0.06,-0.06c-0.03,-0.03 -0.06,-0.03 -0.1,-0.07c0,0 -0.03,0.04 -0.06,0.07c0.03,0 0.06,0.03 0.1,0.06zm-16.53,-0.81c-0.04,0.04 -0.04,0.04 -0.07,0.07c0.03,0.03 0.07,0.03 0.1,0.06c0,0 0.03,-0.03 0.06,-0.06c-0.03,0 -0.06,-0.03 -0.09,-0.07zm15.55,-0.32c-0.03,0.03 -0.06,0.03 -0.09,0.06c0.03,0.04 0.03,0.07 0.06,0.07c0.03,0 0.07,-0.03 0.1,-0.07c-0.03,-0.03 -0.07,-0.03 -0.07,-0.06zm-0.48,-0.03c0.03,-0.03 0.03,-0.03 0.06,-0.07c-0.03,-0.03 -0.06,-0.03 -0.09,-0.06c0,0 -0.04,0.03 -0.07,0.06c0,0.04 0.07,0.04 0.1,0.07zm1.1,-0.49c-0.03,0.03 -0.06,0.03 -0.06,0.07c0,0.03 0.03,0.06 0.06,0.09c0.03,-0.03 0.07,-0.03 0.07,-0.06c-0.04,-0.03 -0.04,-0.07 -0.07,-0.1zm-20.13,-7.57c0.03,0.03 0.03,0.06 0.07,0.1c0.03,-0.04 0.06,-0.04 0.06,-0.07c0,-0.03 -0.03,-0.06 -0.06,-0.1c-0.04,0.04 -0.07,0.07 -0.07,0.07z" fill="#1a594a" id="svg_1" transform="matrix(1 0 0 1 0 0)"/>
  <use fill="#feb904" id="svg_6" transform="matrix(3.12656 0 0 3.12656 2.90824 25.8484)" x="-0.01" xlink:href="#svg_5" y="-7.71"/>
 </g>
 <defs>
  <symbol height="11px" id="svg_5" version="1.1" viewBox="0 0 11 11" width="11px" xmlns="http://www.w3.org/2000/svg">
   <path d="m7.57,3.69l-0.85,0.64c0.76,0.43 1.28,1.24 1.28,2.17c0,1.38 -1.12,2.5 -2.5,2.5s-2.5,-1.12 -2.5,-2.5c0,-0.93 0.52,-1.74 1.28,-2.17l-0.85,-0.64c-0.86,0.64 -1.43,1.66 -1.43,2.81c0,1.93 1.57,3.5 3.5,3.5s3.5,-1.57 3.5,-3.5c0,-1.15 -0.57,-2.17 -1.43,-2.81zm-0.07,-1.19l-1,-1.5l-2,0l-1,1.5l2,1.5l2,-1.5z"/>
  </symbol>
 </defs>
</svg>