<svg width="116" height="61" viewBox="0 0 116 61" fill="none" xmlns="http://www.w3.org/2000/svg">
<g>
<path d="M97.7017 58.9554C106.477 58.5392 105.797 53.8714 104.175 51.891C103.539 51.1135 106.388 48.4423 106.913 47.5424C107.798 46.0237 105.531 43.5746 105.676 43.3106C109.191 36.9107 118.572 37.5953 115.329 31.812C106.964 19.2818 107.461 20.1306 106.802 16.1044C106.802 16.1044 108.732 15.4844 108.683 13.4622C108.67 12.9344 107.477 11.3503 107.318 10.795C106.203 6.91132 103.593 2.52118 96.0131 0.581192C95.9597 0.66934 93.7862 -0.284862 89.3517 0.85996L79.6687 0.785769C78.6014 0.588538 77.4055 0.461458 76.0684 0.409671C75.8571 0.413711 75.6458 0.417751 75.4348 0.418486C75.119 0.334745 74.7857 0.389103 74.4535 0.437584L74.4498 0.437217C74.1759 0.316014 73.8808 0.412976 73.5887 0.482393L73.5905 0.483127C73.6269 0.484964 73.6632 0.490473 73.6992 0.497819C73.6639 0.476516 73.6269 0.468436 73.5883 0.482393C73.1675 0.367433 72.7175 0.459989 72.2778 0.47872C72.1696 0.4868 72.0617 0.491575 71.9535 0.496717C71.767 0.306831 71.5308 0.451908 71.3103 0.49231C71.1998 0.487902 71.0893 0.480189 70.9785 0.475415C70.4632 0.0581806 69.8423 0.185628 69.2113 0.362291L67.886 0.662729L67.6536 0.660158C67.4686 0.588538 67.2729 0.603964 67.073 0.653914L66.7961 0.651343C66.4343 0.526467 66.0766 0.447501 65.7355 0.615717C65.6184 0.555482 65.4994 0.500757 65.3767 0.457785C65.2643 0.277449 65.1183 0.137881 64.9963 0.134576C64.3894 0.118782 63.7474 0.0769121 63.235 0.414445C63.063 0.390572 62.8851 0.412976 62.6953 0.533445C62.5084 0.34356 62.2812 0.464396 62.0595 0.538955C61.0538 0.257983 59.6299 0.502226 58.1607 0.487168C58.0284 0.486066 57.8794 0.487168 57.6914 0.394245C57.2225 -0.0707359 56.5656 -0.0707358 55.909 0.11511C55.7211 0.208032 55.5335 0.208032 55.2521 0.208032C54.3142 0.208032 53.3759 0.4868 52.5315 1.04434L52.4425 1.09465C52.3139 1.08584 52.1889 1.10163 52.0707 1.15709C51.8575 1.10384 51.6651 1.11375 51.5157 1.26691C51.4416 1.25038 51.3678 1.23679 51.2937 1.22027C50.5115 1.09796 49.7482 1.1009 49.0045 1.23936C48.8295 1.27315 48.6998 1.46231 48.4785 1.33155C48.2227 1.19125 47.9869 1.22908 47.7548 1.30401C47.743 1.26471 47.7189 1.24744 47.6825 1.2592C47.4549 1.12918 47.3055 1.30694 47.1191 1.33853C46.6876 1.30658 46.2516 1.24047 45.8442 1.36167C45.8216 1.3624 45.8008 1.36497 45.7826 1.36975C45.6455 1.38811 45.5091 1.40795 45.3719 1.42558C45.2725 1.42631 45.1725 1.42374 45.0727 1.42447C44.88 1.36644 44.689 1.3176 44.517 1.41676H44.5141C44.1908 1.42043 43.8672 1.42741 43.5435 1.43145C43.489 1.40427 43.4464 1.41346 43.4156 1.459V1.45937C43.1869 1.38077 42.9649 1.35139 42.7591 1.45165L42.7647 1.44174C42.4792 1.44284 42.1934 1.44431 41.908 1.44541C41.763 1.44945 41.5951 1.32751 41.4742 1.46635C41.2537 1.47222 41.0338 1.48104 40.8136 1.48728C40.2279 1.52805 39.6418 1.56551 39.0557 1.60297C38.7562 1.62979 38.4566 1.65366 38.1567 1.67753C38.0555 1.68157 37.9536 1.68525 37.852 1.68929C37.5184 1.69369 37.1847 1.70141 36.8518 1.70875V1.70949L36.8511 1.70581C36.0611 1.52805 35.4038 2.04518 34.6086 1.83951C34.546 1.86264 34.5067 1.90855 34.4907 1.98128C34.4952 1.99119 34.4989 2.00111 34.5022 2.01139C34.4752 2.02204 34.4507 2.03857 34.4292 2.05988C34.4755 2.21487 34.3899 2.27988 34.2928 2.33938C34.2479 2.47895 34.2739 2.57334 34.4455 2.57077C34.5185 2.53771 34.5919 2.50796 34.665 2.47491C34.8915 2.46536 35.1176 2.45911 35.3441 2.44956C35.726 2.57187 36.0722 2.45507 36.4333 2.43928C36.9126 2.43708 37.412 2.52632 37.842 2.30449C38.2435 2.45654 38.6398 2.49437 39.0309 2.43303C39.4546 2.42202 39.8787 2.41467 40.3024 2.40365H40.3028C40.53 2.40035 40.7573 2.39374 40.9845 2.38749L40.9879 2.38492C41.224 2.46719 41.4501 2.49768 41.6444 2.35113C41.7471 2.36876 41.849 2.38345 41.9517 2.39814C42.3065 2.5131 42.6171 2.35517 42.9563 2.37794C43.2392 2.39263 43.522 2.4099 43.8053 2.42459C44.3109 2.53551 44.7598 2.3706 45.2314 2.3133C45.2766 2.3133 45.32 2.30412 45.3608 2.28869C45.4916 2.42532 45.5802 2.32946 45.6763 2.27327C45.7471 2.29604 45.8179 2.31624 45.889 2.33938C45.9995 2.33497 46.1096 2.3302 46.2197 2.32285C46.5852 2.31 46.9511 2.29677 47.3167 2.28061C47.5357 2.27474 47.7552 2.26886 47.9739 2.26004L47.9713 2.25747C48.2597 2.28759 48.5571 2.40843 48.8332 2.30559C48.9415 2.30742 49.0501 2.30632 49.1584 2.30816C49.2206 2.3155 49.2825 2.32285 49.3448 2.32909C48.8714 2.46462 48.3995 2.61411 47.9257 2.74596C47.6073 2.70519 47.3007 2.86386 46.9901 2.96339C46.9589 2.92079 46.9167 2.90867 46.8633 2.9296C46.5797 2.90683 46.3053 3.02142 46.0314 3.1294C45.9598 3.15218 45.8879 3.17531 45.8164 3.19809C45.7871 3.16503 45.7511 3.15952 45.7089 3.18743C45.4979 3.11398 45.3074 3.29909 45.105 3.33802C44.3576 3.39422 36.1263 3.4853 37.6711 3.9029C37.4809 3.95726 37.2904 4.01162 37.1002 4.06671C36.8852 4.0612 41.631 4.16441 41.4364 4.29333L41.4309 4.29626C41.0768 4.3183 40.7436 4.4597 40.4184 4.65106C40.3439 4.67677 40.269 4.70248 40.1942 4.72856C40.004 4.70946 39.8286 4.75904 39.687 4.94158C39.6214 4.97096 39.5562 5.00071 39.4905 5.0301C39.4653 5.0323 39.4405 5.03561 39.4164 5.03965C38.3109 4.99998 36.8184 4.86115 35.8691 5.21117C35.862 5.21043 35.8553 5.2097 35.8487 5.20933C35.1402 5.14763 34.46 5.24092 33.7771 5.31878C33.4846 5.20566 33.2555 5.34559 33.0086 5.41538C32.8603 5.42566 32.7128 5.43888 32.5649 5.44917C32.1701 5.35551 31.8023 5.39664 31.4539 5.53254C31.1269 5.53989 30.8007 5.5498 30.4737 5.55715C30.1067 5.57625 29.7119 5.47635 29.389 5.68202C29.2259 5.52887 29.0835 5.60416 28.939 5.65411C28.609 5.67394 28.2783 5.69378 27.948 5.71361C27.858 5.67945 27.8109 5.71067 27.8061 5.80727C28.1753 6.18483 28.5308 5.89027 28.8934 5.95822C29.0027 5.95381 29.1124 5.95234 29.2218 5.95088C29.5925 6.03058 29.9729 5.8675 30.4318 6.21128C29.9792 6.31081 29.6085 6.39566 29.2377 6.48013C29.1136 6.42063 29.0086 6.43091 28.9278 6.52935C28.5979 6.52751 28.2476 6.37178 27.9358 6.51135C27.5925 6.55983 27.2492 6.60868 26.906 6.65716C26.8062 6.6579 26.7069 6.66157 26.6075 6.66524C26.2758 6.67589 25.9436 6.68324 25.6122 6.69389C25.3568 6.71776 25.101 6.74164 24.8455 6.76551C24.83 6.83786 24.814 6.91059 24.7981 6.98294C25.058 6.96494 25.3171 6.94695 25.577 6.93189C25.9521 6.72584 26.3829 7.14308 26.764 7.00461L26.8174 7.01012L26.8585 6.97927C27.224 7.10598 27.3935 6.61309 27.7727 6.78534C28.1697 6.8015 28.5671 6.8173 28.9645 6.8364C29.6085 6.75743 30.2057 6.34387 30.9286 6.84264C31.4553 6.71629 31.9818 6.58958 32.5078 6.45993C32.5278 6.46213 32.5471 6.4636 32.566 6.4636C33.1421 6.4996 33.7126 6.50657 34.2594 6.38207C34.3076 6.39419 34.3484 6.38207 34.3818 6.35195C34.447 6.35672 34.5122 6.36444 34.5771 6.36921C34.8374 6.35121 35.0976 6.32991 35.3578 6.31191C35.8231 6.25168 36.3336 6.44267 36.7732 6.24176C36.9975 6.31926 37.2162 6.3446 37.4227 6.2649L37.4301 6.27555C37.2225 6.46581 37.029 6.67957 36.8555 6.92418C36.5641 7.04905 36.2902 7.19707 36.0559 7.42111C35.9065 7.43103 35.7575 7.44168 35.6077 7.44902C35.4646 7.48392 34.2843 7.56472 34.3936 7.68776C34.4733 7.70061 34.5523 7.71016 34.6305 7.71677L34.6261 7.72302C34.0648 8.54353 34.1286 8.94827 34.9367 9.26487C35.4676 9.47533 32.0081 9.8382 32.5553 10.0127C33.1132 10.3212 33.7771 10.5625 34.5482 10.3304L38.4025 10.3553C38.6031 10.4112 38.8092 10.3888 39.0186 10.3072L39.0231 10.3054L39.0268 10.3039H39.0275L39.0323 10.3021L39.0368 10.3002C39.6125 10.2628 39.0865 10.5618 39.6618 10.5239C39.7386 10.5478 40.9196 10.2477 40.976 10.1181C41.0401 10.0979 41.1043 10.0773 41.1684 10.0571C41.9339 9.94876 42.7057 9.7552 43.4657 9.73353C43.4501 9.76768 42.0184 10.6492 41.9699 10.6308C41.6247 10.4982 41.3916 10.6712 41.2258 11.0355L40.4511 11.2673L40.4162 11.2647C40.421 11.1905 40.4262 11.1134 40.4303 11.0389C39.8557 10.8997 39.3437 11.0752 38.8677 11.4333L38.8548 11.4432C38.8362 11.4425 38.8177 11.441 38.7988 11.4377C38.6839 11.3092 38.5916 11.365 38.5004 11.4304C38.1304 11.4561 37.7608 11.4818 37.3912 11.5071C36.8889 11.4366 36.4196 11.5281 35.9499 11.6166C35.5732 11.5931 35.1955 11.5571 34.8407 11.6563C34.2246 11.5097 33.6896 11.8259 33.0824 11.7286C32.483 11.6522 33.1032 11.8083 32.5263 11.8454C31.2948 11.8876 30.0615 11.9233 28.8314 11.9747C28.3091 11.9986 27.792 12.0496 27.2722 12.0856C27.0947 12.0081 26.9556 12.0893 26.8107 12.1455C26.4374 12.1649 26.0644 12.1848 25.6911 12.2042C25.4828 12.1069 25.3827 12.2538 25.2656 12.3611C25.2248 12.3636 25.1859 12.3728 25.1492 12.3875C24.751 12.2601 24.3696 12.2149 24.0422 12.4547C23.4361 12.3853 22.8433 12.386 22.2813 12.5517C22.0003 12.4551 21.7597 12.5425 21.518 12.627C21.0031 12.678 20.4886 12.7295 19.974 12.7838C19.6356 12.7357 19.2941 12.6758 18.9901 12.8238C18.5457 12.8613 18.0934 12.88 17.7319 13.15C17.3783 12.8609 17.094 13.1291 16.7766 13.1327C16.5249 13.0416 16.3147 13.1305 16.1016 13.2044C16.0511 13.1864 16.0111 13.1952 15.9822 13.2374C15.7271 13.2675 15.4725 13.294 15.2174 13.3237C15.2104 13.3226 15.2044 13.3234 15.1992 13.3259C14.8704 13.2525 14.5794 13.338 14.2899 13.4295C13.9036 13.3788 13.5188 13.334 13.2089 13.579C13.0984 13.63 12.9887 13.6873 12.8541 13.5882C12.6094 13.4192 12.4663 13.5808 12.3103 13.6972C12.1357 13.6844 11.9618 13.6719 11.7872 13.6591C11.6623 13.7175 11.537 13.7755 11.412 13.8372C11.1651 13.547 10.9275 13.7373 10.6866 13.7325C10.5635 13.9705 10.3129 13.9536 10.0949 14.0032C9.93216 14.0392 9.79203 14.1108 9.69527 14.2511C9.62558 14.3058 9.55588 14.3602 9.48619 14.4179C8.9164 14.0697 8.50751 14.4733 8.02707 14.5438C7.73902 14.3716 7.50622 14.4777 7.27563 14.5931C7.09139 14.6243 6.90603 14.6526 6.72179 14.6838C6.41224 14.5967 6.15979 14.6981 5.9192 14.8388C5.48101 14.6551 5.12105 14.863 4.73106 14.921C4.46897 14.9673 4.20576 15.0103 3.9433 15.0566C3.33867 15.1201 2.71513 15.1139 2.15758 15.3478C-0.699505 15.8033 -0.760302 15.7404 2.22282 15.5017C2.23098 15.5035 2.23765 15.5028 2.24321 15.5002C2.83709 15.6233 3.35943 15.4474 3.88992 15.3052C4.1546 15.2777 4.41892 15.2501 4.68398 15.2255C5.10808 15.2336 5.52846 15.2292 5.90474 15.054C6.18463 15.112 6.43745 15.0635 6.67471 14.9512C6.81891 14.9383 6.96275 14.9218 7.10696 14.9056C7.41354 14.8626 7.71938 14.8197 8.02558 14.78C8.46006 14.8461 8.8734 14.8329 9.22484 14.5912C10.1019 14.5302 10.9787 14.4696 11.8558 14.4087C12.1375 14.4417 12.4059 14.4168 12.6562 14.3158C13.0921 14.3661 13.5025 14.3161 13.8836 14.1501C14.1004 14.1384 14.3181 14.1262 14.5346 14.1145C15.1099 14.174 15.6534 14.0958 16.1772 13.9356C16.3136 14.0348 16.4263 13.9959 16.5331 13.9202C16.6558 13.9892 16.7636 13.9878 16.8545 13.8978C17.0717 13.9573 17.2674 13.9312 17.442 13.8199C17.4995 13.8218 17.5581 13.8273 17.6152 13.8295C18.1038 13.9011 18.5501 13.8052 18.982 13.648C19.2363 13.8071 19.3642 13.4075 19.623 13.5849C20.1738 13.7141 20.6609 13.5283 21.1733 13.4681C21.9173 13.5129 22.6405 13.4501 23.3475 13.3112H23.3479C23.6856 13.4086 23.9751 13.3296 24.2413 13.1684C24.6153 13.4526 24.916 13.1742 25.2541 13.1819C25.3797 13.2444 25.4913 13.2525 25.5718 13.1382C25.7872 13.1357 26.0029 13.1302 26.2183 13.1276C26.6064 13.2091 26.9675 13.1316 27.3341 13.0905C27.6544 13.0622 27.9744 13.0369 28.295 13.0115L28.364 13.0192L28.4166 12.9814C29.5547 12.9862 30.6906 12.9755 31.8046 12.8426C32.3617 12.8536 32.9115 12.8279 33.4383 12.6982C33.7816 12.6869 34.153 12.8565 34.4711 12.6824C34.8629 12.6894 35.2552 12.6997 35.6474 12.7063L35.7067 12.7148L35.7463 12.6714L36.2031 12.6369C36.2375 13.0292 35.5654 13.2495 34.4889 13.7083C34.4778 13.6594 34.4507 13.6366 34.4066 13.6333C33.796 13.5081 33.1999 13.4626 32.6605 13.7233C32.6138 13.7079 32.5771 13.7167 32.5504 13.7527C32.0162 13.4736 31.6203 13.9165 31.1243 13.8394C31.1117 13.8387 31.0991 13.8387 31.0872 13.8394C29.8042 13.8398 28.5267 13.8743 27.2711 14.026C27.0932 13.936 26.9716 14.0561 26.8277 14.0939C26.2105 13.9165 25.6767 14.2111 25.0824 14.1652C24.7495 14.1575 24.3948 14.0238 24.0975 14.2118C23.8024 14.2136 23.4947 14.1604 23.2289 14.2937C22.6294 14.2515 22.0474 14.2735 21.5314 14.5449L21.5369 14.5504C21.081 14.4395 20.638 14.4359 20.205 14.5156C20.02 14.4322 19.9014 14.5457 19.7679 14.6173C19.2648 14.531 18.8133 14.6867 18.3418 14.744C18.2917 14.7216 18.2509 14.7256 18.2191 14.7528L16.4741 14.8737C16.0782 14.9133 15.6819 14.9504 15.286 14.9901C15.1462 14.8817 15.0421 14.9449 14.9401 15.0173C14.7674 14.9669 14.6157 14.9993 14.4771 15.0834C13.5703 15.0562 12.7077 15.2215 11.8387 15.3625C11.7924 15.3438 11.7546 15.3526 11.7257 15.389C11.451 15.3585 11.1811 15.3493 10.9398 15.4679C10.2569 15.4753 9.59407 15.5649 8.9494 15.7272C8.90825 15.7085 8.87451 15.7169 8.84931 15.7496C8.73921 15.7478 8.62836 15.7496 8.51752 15.7478C8.32252 15.6405 8.20278 15.7665 8.06747 15.8473C7.98258 15.829 7.91252 15.8558 7.8469 15.8962L7.33606 16.0097C6.99167 15.8877 6.68731 15.974 6.38518 16.0692C8.0671 15.847 1.75498 17.1244 11.0699 15.9674C11.332 15.9527 11.5941 15.9406 11.8562 15.9289C12.7081 15.8014 13.5603 15.674 14.4118 15.5469C14.5334 15.6005 14.6458 15.6145 14.7314 15.512C14.7737 15.5124 14.813 15.5035 14.8489 15.4856C15.3182 15.6159 15.7768 15.6314 16.228 15.5645C16.232 15.5656 16.2354 15.5649 16.238 15.563C16.3811 15.6152 16.5234 15.6674 16.6661 15.7166C16.8719 15.862 17.0432 15.7739 17.2207 15.7265L17.22 15.7375C17.2018 15.7401 17.1833 15.7434 17.1648 15.7471C17.1106 15.7768 17.0695 15.8187 17.0424 15.8756C16.883 15.7882 16.8026 15.9413 16.6962 16.0122C16.6613 16.0343 16.6291 16.0592 16.6005 16.0894C16.5968 16.0655 16.5857 16.049 16.5675 16.0398C16.5416 16.0262 16.5231 16.0214 16.5112 16.028C16.2246 16.1162 15.8839 16.0097 15.6222 16.1827C15.5466 16.2098 15.4713 16.2396 15.3953 16.2668C15.0157 16.0449 14.7303 16.2943 14.4026 16.3325C14.357 16.3417 14.311 16.3512 14.2654 16.3604C14.1323 16.2796 14.04 16.3358 13.9559 16.4192C13.9125 16.4034 13.8747 16.4093 13.8424 16.4361C13.5651 16.3685 13.3105 16.3986 13.0743 16.5143C12.4056 16.601 11.7368 16.6906 11.068 16.7806C10.9183 16.8063 10.7685 16.8324 10.6187 16.8585C10.4326 16.8867 10.2473 16.9183 10.0612 16.947C9.48693 16.9525 8.93642 17.0465 8.39667 17.1835L8.36923 17.1864L8.3659 17.1868C8.15644 17.2099 7.94699 17.2301 7.73754 17.2507C7.69009 17.2415 7.64931 17.2507 7.61335 17.2783C7.06284 17.1923 6.56794 17.3477 6.06007 17.4479C5.66414 17.0597 5.46989 17.492 5.18593 17.5581C5.01058 17.4681 4.88046 17.5545 4.74441 17.6169C4.48268 17.6474 4.2217 17.6779 3.95961 17.7054C3.42467 17.6679 2.93199 17.7675 2.48047 18.0036C2.40484 18.0025 2.36332 18.0426 2.35035 18.1182C2.87676 18.2835 3.35386 18.0613 3.8699 18.1462C4.28028 18.1021 4.69102 18.0584 5.1014 18.0143C5.98889 18.2259 6.7444 17.8942 7.53624 17.712C7.69194 17.7168 7.8773 17.8185 7.97813 17.6349C8.68916 17.744 9.35792 17.676 9.97627 17.3969C10.0882 17.3613 10.1957 17.2981 10.3284 17.3914C11.0532 17.4156 11.7349 17.2628 12.4274 17.1527C13.2841 17.1802 14.1086 17.0516 14.936 16.9415C14.9798 16.9169 15.0235 16.8952 15.0676 16.8702C15.1759 16.8783 15.2841 16.8864 15.3928 16.8941C15.61 16.8853 15.8269 16.8765 16.0437 16.8676C16.2343 16.8357 16.4256 16.8041 16.6157 16.7721C16.8808 16.825 17.1373 16.8353 17.3653 16.7108C17.812 16.6987 18.258 16.6833 18.7047 16.6708C18.8511 16.6484 18.9976 16.6289 19.144 16.6061C19.3575 16.5665 19.5584 16.4688 19.7976 16.5485C19.944 16.5228 20.0904 16.497 20.2369 16.4713C20.6131 16.3711 21.0621 16.5073 21.3879 16.2429C21.6018 16.2311 21.8157 16.2194 22.0292 16.2076C22.5 16.4045 22.9071 16.1962 23.3442 16.1849C23.8806 16.2469 24.3803 16.1287 24.8904 16.0622C25.4657 16.3108 25.9673 16.0835 26.5008 16.0468C26.8941 16.0225 27.3015 16.0688 27.7026 16.0846C27.964 16.1812 30.0099 15.8301 30.2046 15.9292C30.6105 16.1367 29.1862 16.8298 28.7584 17.1571C28.2302 17.5611 28.5404 17.6125 27.5243 17.9464C27.4809 17.9184 27.4494 17.9265 27.4313 17.9713C27.0928 17.9794 26.7536 17.9871 26.4151 17.9952C26.2821 17.8678 26.1916 17.9519 26.0971 18.0172C26.0893 18.0169 26.0819 18.0176 26.0745 18.0183C25.9284 18.0257 25.7827 18.0356 25.6363 18.0429C25.0583 18.083 24.4808 18.123 23.9028 18.163C23.5247 18.1337 23.1503 18.1223 22.8025 18.2427C21.9696 18.285 21.1125 18.2328 20.3536 18.5707C20.2446 18.5656 20.136 18.5608 20.027 18.559C19.7523 18.5098 19.5017 18.5645 19.2571 18.6435C19.1781 18.6956 19.0991 18.7507 19.0205 18.8025C18.9112 18.7915 18.8011 18.7805 18.6921 18.7694C18.466 18.7386 18.2339 18.6739 18.0304 18.7841C17.9581 18.8139 17.8865 18.8469 17.8142 18.8767C17.1848 18.7279 16.6269 18.9435 16.0359 18.9938C15.5192 18.8341 15.1321 19.1154 14.698 19.2385C14.698 19.2385 11.9229 19.1444 15.0409 19.8011H15.0413C15.071 19.8019 15.1006 19.8011 15.1299 19.7989C15.3168 19.7934 15.5036 19.7857 15.6904 19.778L15.7523 19.7923L15.7998 19.7582C16.3963 19.6579 16.9927 19.5573 17.5896 19.457C17.5974 19.457 17.6052 19.4562 17.6122 19.4559C17.8261 19.4441 18.0404 19.4349 18.2547 19.4232C18.506 19.4089 18.7584 19.3975 19.0098 19.3832C19.5718 19.2976 20.1331 19.2091 20.6947 19.1206C21.4039 19.0405 22.159 19.1338 22.81 18.8249C23.164 18.8095 23.5143 19.179 23.8698 19.006C24.1075 19.0824 24.3303 19.0791 24.5338 18.9722L24.5319 18.9703C24.5512 18.9799 24.5679 18.9766 24.5838 18.9659C24.675 18.9604 24.7662 18.956 24.8578 18.9498H24.86C25.2463 19.0284 25.5966 18.9391 25.9521 18.8679C26.0941 18.8613 26.2365 18.8543 26.3788 18.8506C27.0253 18.8763 30.6457 18.606 31.3375 18.5627C31.8857 18.6644 32.3918 18.5612 32.8945 18.4426C32.9641 18.447 33.0338 18.4543 33.1032 18.4591C33.6922 18.5579 34.1871 18.3621 34.6687 18.1241C34.6839 18.126 34.6972 18.1263 34.7095 18.1256L35.1955 18.1436C35.5106 18.0194 35.7593 18.2225 36.0025 18.4506C35.5636 18.5961 35.2889 19.0739 34.7451 19.0063C34.3666 18.9707 34.077 19.1922 33.7337 19.2564C33.3923 19.3079 33.0513 19.3597 32.7102 19.4111C32.4652 19.3009 32.3558 19.5444 32.1649 19.5764C31.9035 19.2502 31.6641 19.4529 31.4183 19.4915C31.3078 19.4897 31.1966 19.4882 31.0861 19.4897C31.0379 19.4713 31.0005 19.4801 30.9745 19.522C30.3347 19.4919 29.7123 19.5506 29.1032 19.6674C28.8644 19.6032 28.6468 19.634 28.4444 19.7317C28.3195 19.7897 28.1949 19.8511 28.07 19.9098C27.4509 19.6425 26.8559 19.7549 26.2524 19.7409C25.9336 19.4963 25.8265 19.8852 25.5922 19.8952C25.3345 19.9069 25.0769 19.9154 24.8192 19.9271C24.771 19.9216 24.7277 19.9271 24.6891 19.9414L23.9173 20.0266C23.6834 19.9341 23.4758 19.9826 23.2722 20.059C23.0587 20.0553 22.8448 20.0516 22.6313 20.0476C22.4022 20.0604 22.1735 20.0733 21.9436 20.0828C21.7438 20.2176 21.809 20.3374 22.0089 20.4538C22.1983 20.4189 22.3877 20.384 22.5768 20.3491C22.8066 20.4233 23.0183 20.3866 23.2263 20.3319C23.1062 20.9423 22.5023 20.5651 22.1901 20.7854C22.1434 20.7917 22.0982 20.8009 22.0567 20.8225C21.6704 20.7439 21.2986 20.7417 20.9583 20.8956C20.3773 20.874 19.8209 20.9496 19.2886 21.12C19.0231 21.0951 18.7555 21.0639 18.5305 21.21C18.3607 21.1909 18.1957 21.1869 18.0708 21.3103C17.5206 21.1281 17.0357 21.2949 16.5383 21.3948C16.2491 21.3342 15.9781 21.3562 15.7264 21.4664C15.5588 21.4594 15.392 21.4524 15.2244 21.4425C15.1966 21.4939 15.1978 21.5373 15.2282 21.5725C15.2604 21.6074 15.2823 21.6218 15.2945 21.6144C15.4847 21.7191 15.6671 21.7562 15.832 21.6335L15.8324 21.6331C16.0511 21.6364 16.2706 21.6431 16.4893 21.6464C17.0561 21.8741 17.5332 21.6544 18.0307 21.5365C18.3195 21.5476 18.6083 21.5553 18.8971 21.5634C18.9712 21.527 19.0454 21.4877 19.1195 21.4517C19.8209 21.4249 20.48 21.1961 21.2048 21.2853C21.4595 21.2585 21.7141 21.2313 21.9692 21.2075C22.0159 21.2137 22.06 21.2104 22.1008 21.192C22.7291 21.4062 23.2415 20.9581 23.8609 21.123C24.1393 21.2093 24.4003 21.213 24.6331 21.0694L24.635 21.0506C24.8767 21.1858 25.0865 21.1219 25.2941 21.0392L25.2852 21.0367C25.6559 21.008 26.0259 20.9761 26.3962 20.9471C26.6861 21.0389 26.8882 20.9008 27.0847 20.7473C27.3416 20.8989 27.4583 20.6642 27.6359 20.5978C28.1731 21.0532 28.6446 20.791 29.1295 20.683C29.7634 20.6672 30.4237 20.7766 31.009 20.528C31.6366 20.68 32.2038 20.4946 32.7973 20.4538C33.1417 20.5383 33.4579 20.4854 33.7638 20.3803L33.8268 20.3851L33.8724 20.3447C34.2198 20.4817 34.6791 20.2433 34.9982 20.1901C35.8668 20.2283 36.7384 20.2797 37.5728 20.1225C37.7289 20.2217 37.885 20.3216 38.0411 20.42C38.0893 20.9011 37.7641 21.0246 37.4264 21.1373C37.3215 21.1549 37.217 21.1693 37.1124 21.1869C44.8318 21.4073 40.0025 21.6115 41.1206 21.9802C40.8696 21.9883 40.6183 21.9964 40.3677 22.0045C40.3502 22.0063 40.3332 22.0089 40.3165 22.0125C40.0233 22.0588 39.73 22.1029 39.4372 22.1495C39.1135 22.144 38.7743 22.0496 38.4752 22.1852C37.373 22.4691 26.1427 22.1194 25.0557 22.4742L25.0569 22.4724C24.7733 22.4114 24.5267 22.5183 24.3151 22.6355C23.8769 22.8738 33.4309 22.9726 32.8863 22.8896C32.288 22.7974 31.7719 23.0475 31.3189 23.3924C31.2162 23.3777 31.1147 23.3664 31.0127 23.3546C30.2876 23.3741 29.521 23.0828 28.8244 23.3263C28.1731 23.1978 27.6533 23.5658 27.0431 23.5926C26.3369 23.2815 25.8131 23.8361 25.1551 23.7513C24.923 23.8541 24.576 23.8346 24.6806 24.2838C24.6824 24.3301 24.688 24.3764 24.6965 24.4223C24.4778 24.5677 24.2591 24.7132 24.0404 24.859C24.0303 24.8942 24.0255 24.9266 24.0263 24.9552C24.0081 24.9541 23.9899 24.9526 23.9714 24.9508C23.7271 24.9244 23.5314 25.1954 23.5254 25.4812C23.5162 25.9689 23.3549 25.6141 23.2111 25.5807C22.5723 25.4242 21.6163 25.7386 21.2938 26.1695C21.2485 26.1841 21.2029 26.1999 21.1577 26.215C21.1466 26.1856 21.124 26.1838 21.0765 26.2407C20.9597 26.2984 20.843 26.3531 20.7266 26.4108C20.3399 26.1551 19.9929 26.3065 19.6849 26.4302C19.0947 26.6635 18.4571 26.7204 17.832 26.8287C17.782 26.8262 17.7357 26.8353 17.6934 26.8537C17.6315 26.8331 17.5703 26.8126 17.5084 26.7891C17.1155 26.7079 16.7692 26.8467 16.4026 26.8846C16.3818 26.882 16.3622 26.8809 16.3433 26.8813C15.8869 26.8644 15.4821 27.0311 15.0524 27.1082C14.8081 26.8989 14.5586 27.2607 14.3147 26.9826C14.2391 26.9665 14.1861 26.9947 14.1568 27.0653L14.1575 27.0844C14.1327 27.0906 14.1093 27.1009 14.0882 27.1159C13.9488 26.8699 13.7757 26.9573 13.6089 26.9808C13.6152 26.9015 13.5811 26.8016 13.5014 26.6792C12.903 26.2771 12.5394 26.6499 12.1509 26.9404C12.0749 26.9705 11.9985 26.9973 11.9225 27.0274C11.7357 26.9565 11.597 27.0377 11.4617 27.1277L11.4632 27.1244C11.2278 27.0447 11.0124 27.0689 10.8089 27.1608L10.7996 27.1615C7.35496 26.8045 11.6712 28.4745 13.878 28.0698C14.0745 28.0779 14.271 28.0834 14.4678 28.0892C14.8315 28.058 15.1952 28.0297 15.5596 27.9982C15.6789 28.0768 15.7868 28.0599 15.8891 28.0033C16.8007 28.0301 17.6656 27.8461 18.5497 27.7473C18.7166 27.7793 18.8715 27.7715 18.9872 27.6456C19.2419 27.6929 19.5025 27.7712 19.7275 27.6316L19.7282 27.6312V27.6316C20.1093 27.5989 20.4908 27.5662 20.8726 27.5335C21.1199 27.6467 21.3438 27.4201 21.5955 27.5949C22.8615 27.7925 24.0029 27.4002 25.2059 27.2978C25.2214 27.2966 25.2366 27.2941 25.2518 27.2915C25.5054 27.3462 25.8105 27.387 26.0648 27.2383C26.0971 27.2416 26.1297 27.2456 26.1619 27.25C26.1923 27.2845 26.2632 27.2867 26.3084 27.2911C26.3117 27.3102 26.3121 27.3286 26.3084 27.3455C26.255 27.3877 26.1994 27.427 26.1419 27.4612C26.1293 27.4638 26.116 27.4663 26.1019 27.4685C25.8654 27.502 25.6285 27.5372 25.392 27.5732C25.3527 27.5622 25.3123 27.5486 25.2715 27.5321C25.2037 27.5247 25.1373 27.5258 25.0717 27.5365C25.0072 27.5589 24.9438 27.5842 24.88 27.6096C24.6061 27.6173 24.3325 27.6261 24.0841 27.7282C24.04 27.7165 23.9944 27.7003 23.9481 27.6797C23.5266 27.6437 23.1269 27.7179 22.7236 27.7708C22.6513 27.8097 22.5805 27.852 22.5101 27.8953C22.2635 27.9111 22.017 27.9276 21.7701 27.9423C21.5499 27.9949 21.3301 28.0507 21.1102 28.1028C19.8472 28.1098 18.6491 28.3915 17.4165 28.5296C17.24 28.4518 17.1321 28.5744 17.0024 28.6328C16.7585 28.5472 16.5635 28.6725 16.3462 28.703C15.7557 28.5829 15.2226 28.728 14.6851 28.8521C14.5483 28.775 14.4434 28.829 14.3403 28.8914C12.1105 28.5384 12.5383 30.0832 14.6246 29.9517C14.6843 30.0223 14.7459 30.0395 14.8081 29.9855C14.989 30.001 15.1703 30.0197 15.3512 30.0377C15.6052 30.2312 15.8524 30.2015 16.0986 30.135C16.218 30.0836 16.3373 30.0318 16.4563 29.9767C17.2945 29.8504 18.0545 29.969 18.7907 29.5205C18.8126 29.5205 18.9653 29.4438 18.9835 29.4401C19.3749 29.4041 19.7657 29.3648 20.1568 29.3263C20.9946 29.5194 21.723 29.0967 22.5494 29.2253C22.9935 29.3061 23.3783 29.1522 23.7805 29.0655C24.0874 29.0504 24.4218 29.1356 24.6746 28.923C24.7358 28.9869 24.7992 29.035 24.8737 28.9773C25.3323 28.9582 25.7942 28.9505 26.2172 28.7919C26.5545 28.8455 26.8856 28.8653 27.1977 28.7632V28.7695C28.2046 28.7059 29.2133 28.6475 30.1946 28.4679C30.2268 28.4642 30.2594 28.4584 30.2924 28.4496L30.2898 28.4525C31.0005 28.1991 32.2086 28.2927 31.1428 28.5939C30.9946 28.6042 30.847 28.6174 30.6991 28.6277C30.3043 28.534 29.9365 28.5752 29.5881 28.7111C29.2611 28.718 28.9349 28.7283 28.6079 28.7357C28.2409 28.7548 27.8461 28.6552 27.5236 28.8605C27.3601 28.7074 27.2181 28.7827 27.0732 28.833C26.7432 28.8528 26.4125 28.8723 26.0822 28.8925C25.9918 28.8583 25.9447 28.8896 25.9399 28.9862C26.3091 29.3641 26.6646 29.0695 27.0272 29.1375C27.1365 29.1327 27.2459 29.1316 27.3553 29.1301C27.726 29.2098 28.1063 29.0468 28.5649 29.3905C28.1126 29.4901 27.7419 29.5749 27.3712 29.6594C27.247 29.5999 27.1421 29.6102 27.0617 29.709C26.7314 29.7071 26.3814 29.5514 26.0693 29.6906C25.726 29.7395 25.3827 29.7879 25.0394 29.8364C24.9397 29.8371 24.8407 29.8408 24.741 29.8445C24.4096 29.8551 24.0771 29.8625 23.7456 29.8731C23.4902 29.897 23.2344 29.9209 22.979 29.9448C22.9634 30.0171 22.9475 30.0898 22.9319 30.1622C23.1914 30.1442 23.4509 30.1262 23.7108 30.1111C24.086 29.9051 24.5171 30.3223 24.8978 30.1839L24.9516 30.1894L24.9923 30.1585C25.3579 30.2852 25.5273 29.7927 25.9069 29.965C26.3039 29.9811 26.701 29.9969 27.0987 30.016C27.7423 29.937 28.3399 29.5235 29.0628 30.0223C29.5892 29.8959 30.1156 29.7692 30.642 29.6395C30.6617 29.6418 30.6809 29.6432 30.7002 29.6432C31.0731 29.6667 34.0937 29.5617 34.0937 29.5617C34.166 30.0432 34.3339 30.7278 33.6841 30.896C32.4611 31.2126 30.7225 31.1946 31.3423 31.6651C29.8943 32.0563 34.3247 31.6214 34.7999 31.6945C34.6357 31.7948 34.5286 32.0776 34.3228 32.042C33.9792 31.9869 33.65 32.0056 33.3367 32.1044C33.2941 32.0842 33.2578 32.089 33.2274 32.1191C32.9916 32.0519 29.1162 32.1411 28.9093 32.2414C28.6913 32.2535 28.473 32.2656 28.255 32.2781C27.8869 32.2987 27.5184 32.3196 27.1503 32.3406C26.7695 32.2946 26.3981 32.2943 26.0544 32.4269C25.8361 32.421 25.6177 32.4155 25.3986 32.4096C25.1306 32.4012 24.8537 32.3582 24.6302 32.5216C24.4837 32.5271 24.3366 32.5323 24.1901 32.5378C24.0011 32.4607 23.8228 32.4669 23.653 32.533C23.3942 32.5558 23.1351 32.5786 22.8767 32.6017C22.8304 32.5782 22.7922 32.5848 22.7625 32.6208C22.5423 32.6285 22.3221 32.6362 22.1019 32.6447C21.4446 32.9341 25.3649 32.7354 24.6958 32.9829C24.5486 32.9877 24.4014 32.9928 24.2539 32.9973C23.9629 33.0079 23.6392 32.8426 23.3846 33.0457C22.7866 32.8621 22.2346 33.0505 21.6545 33.0116C21.6348 33.0119 21.6155 33.0141 21.5963 33.0178L20.9946 33.0814C20.9545 33.0505 20.919 33.0505 20.8882 33.0814C20.5119 33.1284 20.1353 33.175 19.759 33.2217C19.3534 33.2606 18.9483 33.2992 18.5423 33.3381C17.5173 33.4277 20.5219 33.5173 19.4969 33.6069C19.2578 33.5438 19.028 33.5335 18.8185 33.6345C18.0604 33.319 17.4865 33.7818 16.8218 33.8633C16.6928 33.7674 16.5853 33.7807 16.4956 33.885V33.8853L16.1972 33.8449C15.5829 34.048 16.0434 34.5281 15.4947 34.8002C15.0091 35.0412 15.7049 35.7827 15.6041 35.9653C15.389 36.3535 15.8283 36.6348 16.0181 36.9085L16.4345 37.0194C16.5205 37.0954 16.5902 37.2052 16.6713 37.2912C16.5305 37.2893 16.3944 37.3114 16.2684 37.3911C15.9729 37.3929 15.6656 37.3396 15.3994 37.473C14.8 37.4307 14.218 37.4524 13.7019 37.7242L13.7079 37.7301C13.2515 37.6191 12.8089 37.6155 12.3759 37.6952C12.1905 37.6118 12.0723 37.7253 11.9385 37.7969C11.4354 37.711 10.9842 37.8663 10.5123 37.9236C10.4623 37.9012 10.4215 37.9049 10.3896 37.9321L8.64467 38.0529C-6.13155 39.54 8.8367 38.8962 8.39852 38.7441C8.4026 38.7452 8.40593 38.7445 8.40853 38.7423C8.55162 38.7945 8.69398 38.8466 8.8367 38.8958C9.04245 39.0413 9.21409 38.9531 9.39129 38.9057L9.39055 38.9168C9.37238 38.9193 9.35385 38.9226 9.33568 38.9263C9.28119 38.9561 9.24041 38.9979 9.21298 39.0549C9.05357 38.9674 8.97312 39.1206 8.86673 39.1915C8.83188 39.2135 8.79963 39.2385 8.77109 39.2683C8.76738 39.2447 8.75626 39.2279 8.73809 39.2187C8.71214 39.2051 8.69361 39.2003 8.68174 39.2069C7.9418 39.2605 5.48546 40.3139 8.21391 40.0462C8.40445 40.0146 8.59574 39.9826 8.78591 39.9507C9.05097 40.0036 9.30751 40.0138 9.53549 39.8893C9.9822 39.8768 10.4282 39.8614 10.8749 39.8493C11.0213 39.8265 11.1677 39.8071 11.3142 39.7846C11.5277 39.745 11.7286 39.6473 11.9677 39.727C12.1142 39.7013 12.2606 39.6756 12.407 39.6499C12.7833 39.5496 13.2322 39.6858 13.5581 39.4214C13.772 39.4097 13.9859 39.3979 14.1994 39.3861C14.4485 39.4905 14.6795 39.4813 14.9071 39.4475C14.6773 39.6925 14.3466 39.5569 14.0508 39.5533C13.9251 39.6084 13.914 39.6947 14.0252 39.8144C14.3707 39.9022 14.681 39.7946 15.0057 39.7678L15.071 39.7722L15.1232 39.7398C15.7227 39.673 16.3169 39.5904 16.8367 39.2969C16.9894 39.2998 17.1444 39.3134 17.2975 39.3182C17.7764 39.4288 18.212 39.2561 18.671 39.2245C19.0643 39.2003 19.4713 39.2466 19.8728 39.2624C20.4237 38.833 21.1807 39.4383 21.7553 39.1287C20.4263 40.2011 22.1694 39.3303 20.4263 40.2012C20.8786 40.4987 21.1659 40.1934 21.4947 40.3165C23.1507 40.5435 23.4917 40.575 21.5414 40.6581C21.323 40.8531 20.959 40.7756 20.7014 40.8619C20.5657 40.7598 20.4619 40.7914 20.3762 40.9001C20.149 40.9746 19.9217 41.0496 19.6941 41.1241C19.6508 41.0962 19.6192 41.1043 19.6011 41.1491L18.896 41.1656C18.7344 41.0217 18.5838 40.9666 18.4771 41.1094C18.3981 41.0933 18.3336 41.1487 18.2669 41.1947C18.2591 41.1943 18.2517 41.195 18.2439 41.1958C18.0982 41.2031 17.9522 41.213 17.8061 41.2204L17.4057 41.2483C17.4072 41.2376 17.4083 41.2262 17.4087 41.2145C17.4146 41.1006 17.2767 41.1348 17.2007 41.1715C16.8934 41.2171 16.5853 41.2626 16.278 41.3081L16.1853 41.3331L16.0726 41.3408C15.6949 41.3111 15.3201 41.2997 14.9724 41.4202C14.1394 41.4624 13.2823 41.4102 12.5234 41.7481C12.4144 41.7434 12.3058 41.7382 12.1968 41.7368C11.9221 41.6875 11.6715 41.7423 11.4272 41.8212C11.3483 41.8734 11.2689 41.9285 11.1904 41.9803C11.081 41.9693 10.9713 41.9582 10.8619 41.9472L10.8363 41.9435L10.975 41.7702L10.8363 41.9435C10.618 41.912 10.3959 41.8558 10.1998 41.9619C10.1275 41.9917 10.056 42.0247 9.98369 42.0545C8.04189 42.5183 2.27287 43.8938 9.75941 42.6348C9.76719 42.6348 9.77497 42.634 9.78239 42.6337C9.89249 42.6274 10.0026 42.6223 10.1123 42.6171C10.1138 42.6282 10.1201 42.6362 10.1316 42.6414C10.1587 42.6542 10.1802 42.6561 10.1954 42.6469C10.3663 42.6502 10.559 42.7523 10.737 42.5844C10.8845 42.5771 11.0321 42.5698 11.1792 42.5613C11.7412 42.4761 12.3025 42.3872 12.8641 42.2987C13.5733 42.2186 14.3288 42.3119 14.9794 42.003C15.3334 41.9876 15.6841 42.3571 16.0393 42.1841C16.2769 42.2605 16.4997 42.2576 16.7032 42.1503L16.7014 42.1485C16.7206 42.158 16.7377 42.1547 16.7533 42.1441C16.8448 42.1386 16.9357 42.1342 17.0272 42.1279H17.0298C17.4161 42.2069 17.7664 42.1173 18.1219 42.046C18.2639 42.0394 18.4063 42.0324 18.5486 42.0288C19.2029 42.0548 19.8554 42.0717 20.4459 41.8198L20.5041 41.8157L20.5505 41.7816C20.6895 41.8278 20.8274 41.8741 20.9668 41.9233C24.7651 41.6288 23.2296 42.2983 23.5881 42.6693C23.4776 42.6675 23.3664 42.666 23.2559 42.6675C23.2077 42.6491 23.1703 42.6579 23.1443 42.7001C22.5041 42.67 21.8821 42.7288 21.273 42.8452C21.0343 42.7809 20.8163 42.8118 20.6142 42.9095C20.4893 42.9675 20.3647 43.0292 20.2398 43.0876C19.6207 42.8202 19.0254 42.933 18.4222 42.9187C18.1034 42.6741 17.9959 43.063 17.762 43.0729C17.5043 43.0847 17.2467 43.0931 16.989 43.1049C16.9408 43.0994 16.8978 43.1049 16.8585 43.1192L16.0871 43.2044C15.8535 43.1119 15.6456 43.1607 15.4421 43.2367C15.2285 43.2331 15.0146 43.2294 14.8011 43.2254C14.572 43.2382 14.3433 43.2511 14.1134 43.2606C13.914 43.3954 13.9789 43.5151 14.1787 43.6316L14.225 43.6231L14.2387 43.8174L14.1105 43.9794C13.7657 43.9232 13.4343 43.9353 13.1281 44.0738C12.5472 44.0521 11.9911 44.1278 11.4584 44.2982C11.1929 44.2732 10.9253 44.242 10.7003 44.3878C10.5305 44.3687 10.3655 44.3647 10.2406 44.4877C9.69045 44.3059 9.20556 44.4727 8.70807 44.5722C7.02948 44.22 7.36609 45.2836 8.00223 44.8109L8.0026 44.8106C8.22132 44.8139 8.44041 44.8205 8.6595 44.8238C9.22669 45.0515 9.7038 44.8319 10.2013 44.7136C10.4901 44.7246 10.7789 44.7327 11.0676 44.7404C11.1418 44.704 11.2159 44.6647 11.2901 44.6287C11.9915 44.6016 12.6506 44.3731 13.3753 44.4624C13.63 44.4356 13.8847 44.4084 14.1397 44.3845C14.1865 44.3908 11.0951 44.3878 11.1359 44.3691C11.7642 44.5832 15.412 44.1351 16.0315 44.3C16.3095 44.3863 16.5709 44.39 16.8041 44.2464L16.8059 44.2277C17.0476 44.3628 17.2574 44.2989 17.465 44.2163L17.4561 44.2137C17.8268 44.1851 18.1968 44.1531 18.5675 44.1245C18.8574 44.2159 19.0595 44.0778 19.2559 43.9247C19.5128 44.0764 19.6296 43.842 19.8072 43.7752C20.3444 44.2306 20.8159 43.9684 21.3012 43.8604C21.9351 43.8446 22.5953 43.9541 23.1807 43.7054C23.8079 43.8575 23.4806 43.6723 24.0741 43.6312C24.4189 43.7157 24.7347 43.6628 25.0405 43.5578C27.2678 43.7326 27.6018 43.4299 30.0144 43.1442C30.8148 43.0829 33.5873 43.2423 34.3628 43.0149C34.8407 43.2239 35.2911 43.084 35.7549 43.1166C35.9906 43.3021 36.1927 43.2103 36.3969 43.1343C36.5089 43.1328 36.622 43.1372 36.7339 43.1357C36.9352 43.2022 37.1365 43.2661 37.3374 43.3293C37.6285 43.6848 37.2937 43.7047 37.1628 43.8317C36.3577 43.7234 35.5899 43.795 34.8496 44.0044C34.5193 44.018 34.189 44.0319 33.8587 44.0451C33.601 44.0653 34.3643 43.9416 33.981 43.8016C33.9695 43.8027 33.9584 43.8042 33.948 43.8064C33.5921 43.853 33.1914 43.6852 32.8692 43.8909C32.6101 43.9151 32.3514 43.9423 32.0919 43.9665C31.8665 43.8611 31.6585 43.9159 31.4479 43.943C31.204 43.8512 30.9953 43.9184 30.7921 44.0099C30.2769 44.058 29.7623 44.109 29.247 44.1575C28.996 44.1656 28.7447 44.1737 28.4941 44.1818C28.4767 44.1836 28.4596 44.1865 28.4429 44.1898C28.1497 44.2361 27.8565 44.2802 27.5636 44.3268C27.24 44.3213 26.9008 44.2269 26.6016 44.3625C25.4995 44.6464 24.2632 44.2964 23.1766 44.6515L23.1777 44.6497C22.8941 44.5887 22.6476 44.6956 22.4359 44.8128C21.9977 45.0511 21.5573 45.1499 21.0128 45.0666C20.4148 44.9747 19.8984 45.2245 19.4457 45.5694C19.3431 45.5547 19.2415 45.5429 19.1395 45.5315C18.4144 45.5506 17.6478 45.2597 16.9512 45.5033C16.3003 45.3747 15.7801 45.7427 15.17 45.7695C14.5779 46.3304 14.7774 48.1179 19.5184 48.8011C20.5927 48.9557 17.6037 49.6146 20.6176 50.4528C20.9453 50.4546 21.2726 50.4535 21.6 50.4528C21.8761 50.5358 22.1338 50.5273 22.3696 50.4024H22.3703C22.6557 50.4726 22.8975 50.369 23.1455 50.2926C23.6114 50.2915 24.0867 50.3268 24.4937 50.0998C24.5594 50.1233 24.6242 50.1435 24.6891 50.167C25.0239 50.2026 25.3538 50.2107 25.6648 50.1178C25.8172 50.1013 25.9688 50.0811 26.1208 50.0645C26.7395 50.0249 26.1349 49.9848 26.7532 49.9452C26.7733 49.9518 28.0151 49.9544 28.0333 49.9533C28.2906 49.9863 27.3104 49.954 27.5414 49.8688C27.8821 49.9224 28.2094 49.9059 28.523 49.8159C28.6813 49.8919 28.8211 49.8666 28.9527 49.7953C30.03 49.792 29.5035 49.7487 30.5556 49.6106L30.5545 49.6139C31.5425 49.7314 32.4648 49.5125 33.4157 49.4405C35.6585 49.3965 32.1085 49.6054 35.3234 49.2345C36.0129 49.218 36.7024 49.2011 37.3919 49.1842C37.6607 49.1967 37.9376 49.2393 38.1656 49.0872C39.3393 49.3043 33.6162 50.1891 34.8222 50.1975C35.1224 50.279 35.4249 50.3727 35.6963 50.2177C35.8742 50.2456 36.0526 50.2768 36.2305 50.3047C36.4259 50.3485 36.6216 50.3918 36.817 50.4366C36.8151 50.4498 36.8136 50.4641 36.8129 50.4785C36.7936 50.812 36.9893 50.996 37.2144 51.1403C37.2188 51.1587 37.2259 51.1778 37.2362 51.1969C36.8841 51.3174 36.5204 51.386 36.1419 51.4375C35.9024 51.4665 35.1465 51.314 35.756 52.1033C35.9421 52.3446 35.6311 52.3571 35.5432 52.4655C35.3482 52.7057 35.0216 52.6289 34.758 52.706C34.2939 52.5118 33.948 52.7993 33.5454 52.8585C31.5139 52.5033 31.039 53.1126 28.2902 52.6917C28.1727 52.5819 28.0441 52.9749 27.9043 52.9874C27.5017 52.8662 27.1362 52.9507 26.771 53.0414C26.5779 52.9367 27.703 53.0803 27.5732 53.1545C27.1477 53.1468 26.7076 53.0843 26.3525 53.3418C26.1864 53.3157 26.02 53.29 25.8535 53.2665L25.8531 53.2647L25.815 53.261C25.5492 53.149 25.3019 53.1663 25.0676 53.2695C24.5838 53.2162 24.1531 53.3514 23.7264 53.5019C23.7193 53.5016 23.7123 53.5019 23.706 53.5019H23.7052H23.7019C23.4854 53.5049 23.2685 53.5082 23.052 53.5141C22.8659 53.4307 22.7443 53.5508 22.602 53.6074C22.4344 53.6283 22.4593 53.7198 22.5608 53.8369C22.6702 53.8263 22.7796 53.8156 22.8886 53.805C23.1151 53.7491 23.3412 53.6929 23.5673 53.6367C24.0396 53.8432 24.4422 53.6195 24.8778 53.6019C25.1621 53.6165 25.4468 53.6309 25.7315 53.6452C25.8046 53.6805 25.878 53.7128 25.9514 53.748C26.1416 54.0481 26.0148 54.1594 25.7619 54.1954C25.6504 54.2248 25.5473 54.2663 25.5139 54.3989C26.0322 54.732 26.2672 54.2163 26.6472 54.134C26.7358 54.2644 26.8244 54.3948 26.913 54.5285L26.834 54.6831C26.7836 54.6908 26.7336 54.6997 26.6835 54.7088C26.5842 54.7313 26.4923 54.7658 26.4055 54.8143C26.3336 54.8624 26.2654 54.9138 26.2183 54.9814L26.0867 55.006C25.7149 55.0401 25.3434 55.0747 24.972 55.1088C24.8211 55.1272 24.6702 55.1452 24.5197 55.1635C24.1134 55.1635 23.6841 55.064 23.326 55.28C22.8548 55.2587 22.3836 55.2377 21.9125 55.2164C21.6693 55.0229 21.4795 55.2425 21.2567 55.2065C21.0925 55.3068 20.9115 55.3531 20.7058 55.3174C20.3622 55.2623 21.6296 55.2811 21.3164 55.3799C21.2734 55.3597 21.237 55.3641 21.207 55.3942C20.9712 55.3273 20.7458 55.3193 20.539 55.4199C18.1045 55.5551 18.0352 56.5162 19.7927 57.5079C20.3855 57.8425 19.7638 58.6538 21.6626 58.8026C23.1317 58.8676 24.5601 58.6946 26.0096 58.6469C26.2361 58.76 26.5527 58.6274 26.6661 59.0494C26.7492 59.3568 26.8963 59.1192 26.969 59.0814C27.2118 58.9565 27.4101 58.7372 27.7408 58.8323C28.1712 59.0975 28.592 58.9098 29.0187 59.0075C29.1677 59.0204 29.2518 59.3719 29.4435 59.1662C29.5766 58.9741 29.8387 59.1232 29.9999 59.0053C30.566 58.9135 31.1436 58.8929 31.7352 58.9543C32.1805 59.0299 32.596 58.984 32.9793 58.8037C33.2018 58.8555 33.4198 58.8727 33.6233 58.7956V58.7952C35.0109 58.9936 36.3158 58.6806 37.6744 58.7008C37.8894 58.6898 38.1048 58.6788 38.3195 58.6678C38.9063 58.6436 39.4928 58.6189 40.0796 58.5947C40.2957 58.591 40.5122 58.5877 40.7284 58.5844C41.4479 58.7174 42.1252 58.5962 42.8114 58.5301L42.8047 58.5227C44.0032 58.5062 46.8673 59.752 48.0659 59.7355C51.3811 60.0921 51.1761 60.0528 54.034 60.6195C55.066 60.8983 56.1919 60.9912 57.2239 60.9912C64.5792 60.9912 94.9651 59.0762 97.7028 58.9462L97.7017 58.9554ZM70.7883 0.47064C70.8476 0.502594 70.9095 0.51655 70.9789 0.476149C70.9169 0.46109 70.8532 0.461825 70.7883 0.47064ZM76.0684 0.410038C76.0832 0.416282 76.0984 0.421791 76.114 0.426933C76.0984 0.421424 76.0832 0.415915 76.0684 0.410038ZM26.8693 25.2531L26.8441 25.238C26.939 25.1668 27.0795 25.1547 27.2092 25.1278C27.0954 25.1679 26.9827 25.2123 26.8693 25.2531ZM14.2402 43.8255C14.3184 43.788 14.3459 43.7293 14.3073 43.6595C14.2988 43.6441 14.2832 43.6334 14.2662 43.6239L14.7481 43.535C14.9783 43.6092 15.19 43.5724 15.3979 43.5177C15.2775 44.1281 14.6739 43.7509 14.3618 43.9713C14.3151 43.9776 14.2699 43.9867 14.2283 44.0084C14.1894 44.0007 14.0882 44.0176 14.1123 43.9875L14.2406 43.8255H14.2402ZM40.675 23.9819C40.4978 24.0344 40.325 24.1013 40.1352 24.1145C39.8957 24.1402 39.657 24.1663 39.4598 24.304C39.4327 24.3569 39.4042 24.4014 39.3745 24.4388C39.1054 24.4553 38.8366 24.4711 38.5675 24.4873C38.4136 24.4296 38.2605 24.3742 38.1185 24.3782C37.9788 24.3444 37.8457 24.3474 37.7237 24.4025C37.6748 24.4399 37.6277 24.4869 37.581 24.5354C37.3248 24.5229 37.0572 24.4392 36.8196 24.5387C36.8066 24.5222 36.7936 24.5049 36.7806 24.4866C36.5953 24.3999 36.4251 24.4087 36.2668 24.4943C36.2223 24.5218 36.1842 24.5545 36.1526 24.5934C35.9703 24.5743 35.7957 24.5964 35.6281 24.6559L35.6207 24.6537C35.5706 24.6478 35.521 24.6474 35.4728 24.6518C34.999 24.5354 34.5612 24.6136 34.1345 24.7506C34.0778 24.7268 34.0207 24.6996 33.9636 24.6753C33.4679 24.7966 32.9719 24.9148 32.477 25.0393L32.4674 25.0309C32.0911 24.9762 31.7104 24.8909 31.3664 25.0481C31.1925 25.029 31.019 25.0103 30.8455 24.9942C30.6972 24.8957 30.4048 24.8942 30.5779 24.5846L30.9938 24.48C31.0539 24.4954 31.1132 24.5126 31.1729 24.5339C31.3768 24.5508 31.5858 24.5799 31.6922 24.3613L31.7148 24.3367C31.7182 24.3569 31.7234 24.3775 31.7315 24.3992C32.3414 24.7106 32.8318 24.3911 33.3682 24.3106C33.4146 24.2842 33.4561 24.2537 33.4913 24.2181C33.5984 24.2298 33.7041 24.2357 33.8034 24.2074C33.8416 24.2306 33.882 24.2504 33.9239 24.2688C35.4149 24.3701 36.847 24.1839 38.2635 23.9246C38.361 23.8783 38.4581 23.8332 38.556 23.7924C39.29 23.8736 39.9914 23.7057 40.7213 23.7571C40.7306 23.86 40.7117 23.9305 40.6757 23.9819H40.675ZM36.1178 24.7797L36.1371 24.8046L36.1056 24.7881H36.1052L36.1178 24.7797ZM28.4863 25.4679L28.4845 25.4764L28.4852 25.4793L28.4874 25.4676L28.4859 25.4679H28.4863ZM28.3373 25.1341C27.9833 24.9607 27.6741 24.9879 27.3783 25.0735C27.4457 25.0382 27.4987 24.9831 27.5225 24.8898L27.5199 24.8744C27.6974 24.8362 27.8746 24.798 28.0518 24.7569L28.0541 24.7595L28.077 24.7591C28.0752 24.8215 28.0922 24.8755 28.1486 24.877C28.4222 24.8774 28.3621 25.014 28.3373 25.1337V25.1341ZM28.5438 36.0512C28.801 36.0332 29.0587 36.0156 29.316 35.9976C29.749 36.1059 30.1126 35.9017 30.5167 35.8815C30.6984 35.9274 30.8689 35.9168 31.0346 35.8808C31.1302 35.9642 31.0728 36.0505 31.0409 36.1357C31.0164 36.0949 30.9782 36.0758 30.9286 36.0769C30.8148 36.1313 30.7006 36.1856 30.5868 36.2404C30.2646 36.2253 29.9703 36.305 29.6863 36.4174C28.6798 36.5305 27.62 36.3219 26.625 36.5055C26.46 36.4178 26.3154 36.4714 26.1682 36.5063C25.9136 36.5548 25.6585 36.6036 25.4038 36.6495C25.3045 36.6378 25.2055 36.6227 25.1058 36.608C24.7065 36.6139 24.3069 36.6198 23.9076 36.626C23.4439 36.593 26.1668 36.7241 25.7668 36.8945C25.7556 36.8456 25.7286 36.8229 25.6845 36.8196C25.0739 36.6943 24.4774 36.6488 23.9384 36.9096C23.8917 36.8941 23.855 36.9029 23.8283 36.9389C23.2941 36.6594 23.7931 37.1027 23.2971 37.0253C23.2841 37.0245 23.2719 37.0245 23.26 37.0253C21.977 37.0256 20.6995 37.0601 19.4435 37.2115C19.266 37.1215 19.144 37.2416 19.0002 37.2794C18.7844 37.2173 18.5787 37.2133 18.3774 37.2317C18.7959 37.1498 19.1725 36.9584 19.5269 36.7101C19.5685 36.6929 19.6107 36.6756 19.6526 36.6587C19.7601 36.6558 19.868 36.6525 19.9759 36.6495C20.222 36.7064 20.4685 36.7626 20.7143 36.8192C20.9646 36.9768 21.1803 36.9389 21.3772 36.7895L21.4276 36.7968L21.4572 36.7582L21.458 36.7579C21.8891 36.64 22.3885 36.9746 22.8029 36.7446C22.8671 36.7575 22.9312 36.7704 22.9957 36.7832C23.7201 36.7424 23.5395 36.6627 24.2291 36.4868C24.6094 36.5309 24.986 36.5595 25.3126 36.3715C25.5325 36.3796 25.7527 36.3876 25.9725 36.3957C26.2298 36.3719 26.4867 36.3476 26.7436 36.3234C26.9234 36.3395 23.9681 36.3557 24.1479 36.3715C24.4459 36.4971 24.7088 36.5294 24.8285 36.1776L24.8329 36.1717L24.8259 36.2073C25.1581 36.5724 25.3986 36.1728 25.6941 36.2297C25.7341 36.2058 25.7742 36.182 25.8146 36.1581C26.1438 36.2158 26.4652 36.2462 26.711 36.0068C27.0472 36.0685 27.3994 36.2382 27.6922 36.0024L27.7475 36.0068L27.789 35.9748C28.0504 36.1754 28.2987 36.1493 28.5445 36.0516L28.5438 36.0512ZM22.572 36.604L22.5738 36.5819L22.5935 36.611L22.5716 36.604H22.572ZM20.9616 36.6411L20.962 36.6352L20.9638 36.6341L20.9657 36.6429L20.9612 36.6411H20.9616ZM21.2945 36.7604C21.3241 36.7597 21.352 36.7667 21.376 36.7898L21.2945 36.7604ZM10.8089 32.4596C11.1088 32.4603 11.4124 32.4798 11.6823 32.3556C11.8009 32.3288 11.9195 32.2987 12.0378 32.2719C12.1824 32.2586 12.3277 32.2487 12.4726 32.2355C12.582 32.2373 12.6906 32.2388 12.8 32.2436L12.8156 32.2432H12.817H12.8178C13.1844 32.2392 13.5685 32.3181 13.9021 32.1547C14.2291 32.154 14.5557 32.1529 14.8827 32.1521C15.5929 32.2796 16.1753 31.9817 16.7889 31.7841C17.0198 31.8521 17.2441 31.8734 17.4484 31.7694C17.7041 31.7331 17.9603 31.6934 18.2161 31.6574C18.3929 31.6761 18.5698 31.6949 18.7466 31.7136C18.8597 31.7276 18.972 31.7415 19.0847 31.7555C19.4913 31.6993 19.8988 31.646 20.3054 31.5902C20.6187 31.6894 20.88 31.5472 21.1647 31.5149C21.5799 31.57 21.9844 31.5542 22.3788 31.4804C22.9004 31.4536 23.4216 31.4264 23.9429 31.3996C24.0578 31.4315 24.1746 31.4763 24.2728 31.4326C25.4524 31.3673 25.8728 31.3279 27.3568 31.163C27.6077 31.13 27.8294 31.4436 28.0856 31.3548C28.4081 31.3044 28.7417 31.278 28.9668 31.0143C29.2144 31.0716 29.4116 31.0363 29.4765 30.7557C30.126 30.5758 37.1365 29.9514 28.5256 30.5486C27.9573 30.5354 27.3786 30.4762 26.8748 30.7344C26.4974 30.4843 26.1816 30.6055 25.8721 30.7634C25.7178 30.7866 25.6341 31.022 25.4216 30.8659C24.9434 30.5361 24.5645 30.9192 24.1241 30.863C23.5896 30.8351 23.0417 30.7487 22.5816 31.0352C22.1319 30.9081 21.7175 30.9247 21.3634 31.188C21.065 31.1748 20.7618 31.1399 20.4886 31.2519C20.1938 31.26 19.8988 31.2648 19.604 31.2729C19.5607 31.2541 19.5229 31.26 19.4921 31.2901C19.194 31.3511 18.896 31.4154 18.5983 31.4763C18.4537 31.4951 18.3091 31.5112 18.1646 31.5296C18.1538 31.5274 18.1449 31.5281 18.1379 31.5329C17.9095 31.437 17.6982 31.4796 17.4858 31.516C17.2682 31.5219 17.0502 31.5307 16.8326 31.5366C16.1623 31.5333 15.5351 31.6791 14.9212 31.8737C14.6369 31.8778 14.3525 31.8851 14.0686 31.8925C13.8443 31.7312 13.6678 31.6996 11.5537 31.9707C11.3813 31.8976 11.2152 31.9145 11.0569 32.0361L11.0969 32.0923L11.0992 32.1147C10.0905 32.3185 5.21002 33.388 10.8093 32.4599L10.8089 32.4596ZM13.934 27.9471L13.9295 27.9394L13.9359 27.9453L13.934 27.9471ZM32.9552 6.20136L32.9497 6.18226L32.9842 6.1841L32.9552 6.20136ZM25.2556 36.3502C25.2745 36.3553 25.293 36.3623 25.3115 36.3711C25.2911 36.3704 25.2726 36.3627 25.2556 36.3502ZM18.2365 13.4581L18.2402 13.4688L18.232 13.4592L18.2361 13.4581H18.2365ZM18.8252 33.654L18.8237 33.6466L18.913 33.6804C18.8815 33.6822 18.8519 33.6767 18.8252 33.654ZM22.7521 36.712C22.7699 36.72 22.787 36.7303 22.8022 36.7439L22.7521 36.712ZM23.9221 36.409L23.9225 36.3979L23.9306 36.4042L23.9399 36.4005L23.0465 36.3994L23.9277 36.4053C23.9277 36.4053 23.9332 36.4056 23.9329 36.4056L23.9317 36.4049H23.9343L23.9332 36.4056L23.9221 36.409ZM13.8343 14.131C13.8521 14.1358 13.8695 14.1431 13.8851 14.1549L13.8343 14.131ZM17.2971 37.3536L17.6908 37.2636C17.8317 37.2772 17.9673 37.2787 18.0993 37.2691C17.8346 37.3121 17.5722 37.3676 17.2971 37.354V37.3536ZM24.7629 14.391L24.7922 14.4127C24.7673 14.4149 24.7429 14.4179 24.718 14.4212L24.7625 14.391H24.7629ZM20.0878 36.4413L20.1004 36.4303C20.0945 36.4383 20.0882 36.4457 20.0815 36.453L20.0878 36.4413ZM29.4772 30.7554C29.4694 30.7252 29.4757 30.6995 29.4891 30.6764L29.4772 30.7554ZM45.9454 1.55486C45.9428 1.56625 45.9395 1.57763 45.9354 1.58792C45.9276 1.57433 45.9187 1.56037 45.9087 1.54568C45.9209 1.54898 45.9332 1.55192 45.9454 1.55486ZM16.0415 27.127L16.0445 27.1365L16.0333 27.1325H16.033L16.0415 27.127ZM47.3838 1.81894L47.3867 1.81416L47.3908 1.82151L47.3838 1.81894ZM19.0899 31.6974L19.0858 31.7555C19.0847 31.736 19.0862 31.7162 19.0899 31.6974ZM27.9373 6.51576C27.9299 6.5422 27.9158 6.5635 27.8984 6.58224L27.9373 6.51576ZM21.61 20.1669C21.2871 20.0435 21.0472 20.2992 20.7403 20.2459C20.5208 20.2551 20.301 20.2668 20.0815 20.276C19.8832 20.2558 19.6919 20.2628 19.528 20.3671C19.0936 20.3972 18.6587 20.4273 18.2243 20.4575C18.2424 20.5372 18.261 20.6161 18.2791 20.6958C18.6639 20.5728 19.0988 20.7943 19.4747 20.6036C19.6218 20.5963 19.769 20.5864 19.9169 20.579C20.1379 20.5544 20.3592 20.5328 20.5809 20.5111C20.8393 20.4993 21.098 20.4909 21.356 20.4821C21.5102 20.4435 21.7735 20.5089 21.6103 20.1666L21.61 20.1669ZM17.0743 20.7142C17.4328 20.8567 17.7301 20.7928 17.9547 20.4854C17.6471 20.5192 17.2548 20.2764 17.0724 20.7234C16.7759 20.2878 16.4834 20.5937 16.1887 20.5831C16.2276 20.6639 16.2665 20.745 16.3051 20.8262C16.5794 20.8567 16.843 20.8479 17.0739 20.7142H17.0743ZM34.4944 45.9374C34.5122 45.8063 34.5056 45.674 34.4681 45.5517C34.4533 45.5022 34.4288 45.4614 34.3999 45.4302L34.5512 45.3993L34.5623 45.4243C34.7547 45.5877 34.9575 45.6296 35.1695 45.5932C35.1962 45.5866 35.2222 45.5778 35.2466 45.5675C35.3152 45.641 35.3486 45.695 35.3571 45.7346C35.224 45.7662 35.1035 45.8235 34.9908 45.897C34.9767 45.9036 34.9645 45.9117 34.9552 45.9212L34.936 45.9348L34.9156 45.9513C34.7666 45.9194 34.6272 45.9164 34.4948 45.9366L34.4944 45.9374ZM34.0626 45.4996C33.9117 45.6454 33.726 45.7559 33.5625 45.8834C33.4665 45.8694 33.3705 45.861 33.2748 45.8614C33.0824 45.8628 32.8941 45.8812 32.7076 45.9084L32.6891 45.7717C32.8548 45.45 33.3074 45.76 33.4828 45.4592C33.6652 45.4342 33.8416 45.3288 34.0388 45.5047L34.0626 45.4999V45.4996ZM32.0288 46.0039L32.0196 46.0042C31.7267 46.0215 31.4275 46.0079 31.148 46.0832C31.0806 46.1049 31.0109 46.114 30.9412 46.1151C30.9304 46.0949 30.9237 46.0685 30.923 46.0336C30.9163 45.7912 31.1399 45.7728 31.2718 45.6649L31.2941 45.6788C31.4012 45.7023 31.4998 45.6891 31.5929 45.652L31.6077 45.6366C31.7471 45.7725 31.9388 45.8154 32.0859 45.937C32.0481 45.9554 32.0314 45.9774 32.0292 46.0035L32.0288 46.0039ZM28.8014 46.1633C28.6242 46.2162 28.4511 46.2826 28.2613 46.2958C28.0218 46.3216 27.7831 46.3476 27.5859 46.4854C27.5588 46.5383 27.5302 46.5831 27.5006 46.6202C27.2318 46.6367 26.9627 46.6529 26.6935 46.669C26.5397 46.6113 26.3866 46.5559 26.2446 46.5599C26.1049 46.5261 25.9718 46.5291 25.8498 46.5842C25.8005 46.6216 25.7538 46.6686 25.7071 46.7171C25.4509 46.7046 25.1833 46.6209 24.9456 46.7208C24.9327 46.7043 24.9197 46.6866 24.9067 46.6683C24.7214 46.582 24.5512 46.5908 24.3925 46.676C24.3484 46.7035 24.3099 46.7362 24.2784 46.7752C24.096 46.7561 23.9214 46.7781 23.7542 46.8376L23.7464 46.8358C23.696 46.8299 23.6467 46.8291 23.5981 46.8339C23.1243 46.7179 22.6869 46.7957 22.2598 46.9327C22.2031 46.9088 22.146 46.8817 22.0886 46.8574C21.5933 46.9786 21.0973 47.0969 20.602 47.2214L20.5924 47.2126C20.2161 47.1579 19.8354 47.0727 19.4913 47.2299C19.3175 47.2108 19.1444 47.1917 18.9705 47.1759C18.46 46.8369 18.5286 46.8097 19.1188 46.6617C19.1788 46.6767 19.2382 46.6944 19.2978 46.7157C19.5017 46.7326 19.7108 46.7616 19.8168 46.543L19.8398 46.5184C19.8432 46.5386 19.8483 46.5596 19.8565 46.5809C20.4663 46.8923 20.9568 46.5728 21.4932 46.492C21.5395 46.4655 21.5811 46.4351 21.6163 46.3994C21.7234 46.4112 21.8291 46.4171 21.9284 46.3891C21.9666 46.4123 22.007 46.4321 22.0489 46.4505C23.5399 46.5518 24.9716 46.3656 26.3885 46.1063C26.4856 46.0601 26.5831 46.0149 26.6809 45.9741C27.415 46.0553 28.1163 45.8874 28.8466 45.9392C28.8559 46.0421 28.837 46.1126 28.801 46.1636L28.8014 46.1633ZM24.2443 46.961L24.2635 46.986L24.232 46.9694L24.2446 46.9614L24.2443 46.961ZM24.7084 49.3836C24.7177 49.3843 24.7273 49.3829 24.7369 49.3825L24.7469 49.3865C24.734 49.3843 24.721 49.3832 24.708 49.3829V49.3836H24.7084ZM31.2626 44.2633L31.2615 44.2736L31.2607 44.2725L31.2589 44.2666L31.2626 44.2637V44.2633ZM37.3389 43.3385C37.3471 43.3389 37.3556 43.34 37.3634 43.3414L37.3389 43.3385ZM16.9338 37.5725L16.9631 37.5942C16.9386 37.5964 16.9138 37.5993 16.8893 37.603L16.9338 37.5725ZM32.9237 58.7853C32.9434 58.7919 32.9623 58.8008 32.9797 58.8136L32.9237 58.7853ZM26.0719 29.6968C26.0644 29.7233 26.0504 29.7446 26.0329 29.7633L26.0719 29.6968ZM13.7805 43.348C13.4576 43.2246 13.2178 43.4803 12.9108 43.427C12.6914 43.4362 12.4715 43.4479 12.2521 43.4571C12.0537 43.4369 11.8625 43.4439 11.6986 43.5482C11.2641 43.5783 10.8293 43.6084 10.3948 43.6386C10.413 43.7179 10.4315 43.7972 10.4497 43.8769C10.8345 43.7539 11.2693 43.9754 11.6452 43.7847C11.7924 43.7774 11.9396 43.7675 12.0871 43.7601C12.3081 43.7355 12.5294 43.7138 12.7511 43.6922C13.0094 43.6804 13.2682 43.672 13.5262 43.6632C13.6804 43.6246 13.9436 43.69 13.7805 43.3477V43.348ZM32.8707 43.9001L32.8793 43.9507L32.8722 43.9493L32.8707 43.8997V43.9001ZM9.24486 43.8953C9.60334 44.0378 9.90065 43.9739 10.1253 43.6665C9.81724 43.7003 9.42539 43.4575 9.243 43.9045C8.94643 43.4689 8.65394 43.7748 8.35922 43.7642C8.39815 43.845 8.43707 43.9261 8.476 44.0073C8.75033 44.0378 9.01353 44.029 9.24486 43.8953Z" fill="#104236"/>
</g>

</svg>
