<?xml version="1.0" encoding="utf-8"?>
<!-- Generator: Adobe Illustrator 24.1.2, SVG Export Plug-In . SVG Version: 6.00 Build 0)  -->
<svg version="1.1" id="Слой_1" xmlns="http://www.w3.org/2000/svg" xmlns:xlink="http://www.w3.org/1999/xlink" x="0px" y="0px"
	 viewBox="0 0 1024 1024" style="enable-background:new 0 0 1024 1024;" xml:space="preserve">
<style type="text/css">
	.st0{fill:#ED5338;}
	.st1{fill:#C59368;}
</style>
<path class="st0" d="M582.9,859.1l-79-78.9l-79,78.9l78.9,164.9L582.9,859.1z"/>
<path class="st1" d="M503.9,326.6c-30.3,0-54.9,24.6-54.9,54.9s24.6,54.9,54.9,54.9c30.3,0,54.9-24.6,54.9-54.9
	C558.8,351.2,534.2,326.6,503.9,326.6z"/>
<path class="st1" d="M574.3,607.1l-70.4-70.5l-70.4,70.5c-3.6-9.8-50.8-137.4-50.8-220.7c0-112.3,112.7-175.3,121.1-179.9
	c8.5,4.6,121.1,67.5,121.1,179.9C625,469.7,577.9,597.3,574.3,607.1z M503.9,80.4c-16.7,8.6-235.2,124-235.2,308.5
	c0,157.8,128.6,397.1,128.6,397.1l106.6-106.8l106.6,106.8c0,0,128.6-239.3,128.6-397.1C739.1,204.4,520.6,88.9,503.9,80.4
	L503.9,80.4z"/>
<path class="st1" d="M739.1,160.8l-80.4-80.4L739.1,0l80.4,80.4v0L739.1,160.8z"/>
</svg>
