<?xml version="1.0" encoding="utf-8"?><svg viewBox="0 0 22 21" xmlns="http://www.w3.org/2000/svg" width="22" height="21"><path d="M.002 5.684c-.02-.537.079-1.092.249-1.628.118-.368.386-.437.673-.162l2.55 2.432c.582.55 1.32.555 1.909.007.418-.393.837-.786 1.249-1.192.582-.567.575-1.266-.007-1.821-.837-.805-1.674-1.603-2.51-2.402-.327-.311-.262-.573.19-.692 2.53-.655 5.524.063 7.047 2.813.778 1.404.536 2.726-.477 3.942-.138.169-.118.237.039.368 1.772 1.454 3.537 2.913 5.302 4.373 1.608 1.328 3.223 2.644 4.812 3.979 1.176.992 1.3 2.92.287 4.11a3.319 3.319 0 01-4.7.393c-.4-.336-.726-.76-1.079-1.147-1.85-2.04-3.694-4.08-5.544-6.12-.758-.835-1.523-1.67-2.275-2.513-.144-.162-.222-.18-.405-.043-.759.586-1.615.941-2.615.873-.91-.063-1.68-.443-2.374-.967C.773 9.127.003 7.592.003 5.684zm20 12.113c.006-.699-.615-1.291-1.367-1.298-.713-.006-1.347.593-1.347 1.285-.006.705.628 1.304 1.36 1.298.732 0 1.353-.593 1.353-1.285z"/><path d="M5.136 13.482c.628 0 1.255.006 1.89 0 .274-.007.47.093.607.318.635 1.035 1.269 2.07 1.91 3.106a.582.582 0 010 .661L7.62 20.692c-.124.206-.307.306-.562.306a398.599 398.599 0 00-3.85 0c-.275 0-.465-.106-.602-.325-.628-1.023-1.249-2.046-1.883-3.062-.157-.256-.15-.493.007-.749a290.831 290.831 0 001.856-3.025c.15-.25.353-.362.66-.355.628.006 1.256 0 1.89 0zm-.026 1.902c-1.026-.013-1.916.83-1.935 1.834-.02.998.863 1.858 1.915 1.871 1.079.012 1.968-.836 1.968-1.871.007-.992-.882-1.828-1.948-1.834z"/></svg>