<?xml version="1.0" encoding="utf-8"?><svg viewBox="0 0 17 22" xmlns="http://www.w3.org/2000/svg" width="17" height="22"><path d="M3.206 18.342c-.035-.435-.07-.864-.097-1.293-.104-1.567.007-3.113.562-4.597.52-1.417 1.401-2.588 2.511-3.616.652-.6 1.367-1.13 2.046-1.696.333-.279.646-.565.91-.912.221-.3.346-.634.332-1.001-.014-.681.257-1.24.756-1.696 1.228-1.13 2.456-2.254 3.684-3.378.118-.109.236-.204.416-.122.174.081.201.231.174.388-.097.606.152 1.09.506 1.566.618.824 1.18 1.682 1.783 2.513.222.306.243.633.18.974-.208 1.048-1.04 1.743-2.178 1.825-.784.054-1.186.551-1.103 1.32.042.403.167.784.278 1.165.347 1.213.34 2.438.083 3.664-.056.266-.09.538-.09.81.007 2.227 0 4.46 0 6.688 0 .231-.014.463-.146.66-.215.32-.59.457-.978.354a.829.829 0 01-.61-.824c-.008-.919 0-1.838-.008-2.758 0-.088.028-.183-.027-.279-.292.307-.507.613-.472 1.076.049.66.014 1.328.007 1.989a.82.82 0 01-.59.79.87.87 0 01-.957-.286c-.146-.177-.187-.382-.187-.6-.007-.585 0-1.17 0-1.763 0-.143.041-.266.097-.395.555-1.335.596-2.718.284-4.107-.222-1-.888-1.668-1.79-2.131-.215-.11-.437-.055-.548.13-.104.17-.055.387.16.496 1.11.566 1.526 1.498 1.568 2.677.034.994-.042 1.954-.486 2.86-.291.592-.721 1.055-1.346 1.457h.68c.465.007.84.327.874.742.042.484-.229.845-.721.933-.118.02-.243.027-.361.027-.93 0-1.852-.013-2.782.007-.479.014-.84-.17-1.145-.497a3.37 3.37 0 01-.534-.749.395.395 0 00-.263-.225c-1.464-.395-2.352-1.402-2.928-2.724-.444-1.021-.624-2.097-.714-3.2-.084-1.001-.035-1.989.298-2.949.312-.824.742-1.587 1.103-2.377.194-.429.41-.85.513-1.307.104-.45.07-.872-.284-1.233-.354-.367-.333-.844.02-1.185.34-.326.854-.32 1.208.035.714.728.957 1.593.756 2.58-.132.647-.389 1.253-.673 1.846-.298.627-.617 1.24-.881 1.88-.333.81-.389 1.647-.326 2.505.07.872.173 1.73.492 2.547.209.531.472 1.022.944 1.396z"/></svg>