<?xml version="1.0" encoding="utf-8"?><svg width="30" height="30" fill="none" xmlns="http://www.w3.org/2000/svg" viewBox="0 0 30 30"><circle cx="15" cy="15" r="15" fill="#CCC"/><path d="M10.815 14.657c.29-.017.554.16.813.323.36.227.74.412 1.142.559.429.16.874.235 1.329.277.8.071 1.587-.005 2.349-.256.493-.164.938-.425 1.375-.702.35-.222.727-.298 1.12-.1.667.336.74 1.184.191 1.667-.982.856-2.159 1.247-3.44 1.406-.047.004-.112-.012-.129.038-.022.059.048.088.082.126.935.911 1.869 1.818 2.803 2.73.2.192.338.407.35.688.014.403-.276.819-.691 1-.385.163-.783.092-1.103-.215-.693-.668-1.385-1.344-2.073-2.015l-.103-.101c-.152-.13-.23-.13-.373.008-.58.559-1.15 1.121-1.73 1.68-.182.176-.359.365-.558.525-.489.399-1.146.155-1.419-.21-.368-.492-.285-1.054.186-1.462.329-.285.632-.6.948-.907l1.18-1.146c.204-.197.403-.395.606-.592.03-.03.078-.059.065-.1-.013-.051-.07-.034-.112-.038-.805-.097-1.588-.27-2.31-.639-.502-.256-.991-.541-1.354-.978-.256-.302-.269-.642-.083-.987.182-.348.455-.588.939-.58z" fill="#fff"/><path d="M14.644 6.75c2.25 0 4.118 1.768 4.105 4.044-.013 2.17-1.79 3.934-4.131 3.947-2.241.012-4.101-1.751-4.101-3.99-.005-2.321 1.985-4.026 4.127-4zm-.009 2.087c-1.099-.004-1.968.832-1.973 1.898-.004 1.138.874 1.923 1.977 1.923 1.16-.004 1.951-.873 1.964-1.894.018-1.062-.873-1.923-1.968-1.927z" fill="#fff"/></svg>