<?xml version="1.0" encoding="utf-8"?><svg viewBox="0 0 22 22" xmlns="http://www.w3.org/2000/svg" width="22" height="22"><path d="M9.66 10.977V.702c0-.086-.005-.171.006-.257.023-.27.195-.435.464-.44a88.062 88.062 0 011.738 0c.286 0 .463.177.475.474.011.258 0 .515 0 .772V21.31c0 .092.006.189-.006.28-.034.247-.2.407-.446.407-.583.005-1.172.005-1.756 0-.268 0-.434-.172-.463-.44-.006-.087-.006-.172-.006-.258-.005-3.439-.005-6.877-.005-10.32zM16.14 4.387c.864 0 1.728.005 2.597-.006.217 0 .4.063.566.2.818.687 1.636 1.362 2.454 2.048.332.28.32.56-.012.841-.806.67-1.618 1.339-2.419 2.02a.903.903 0 01-.606.223c-1.75-.006-3.5 0-5.256 0-.28 0-.286-.012-.286-.292V4.678c0-.291 0-.297.303-.297.887.006 1.773.006 2.66.006zM5.874 7.064c-.886 0-1.773-.006-2.659 0a.748.748 0 01-.509-.177C1.888 6.2 1.059 5.514.241 4.827c-.326-.275-.32-.56.011-.84.807-.67 1.613-1.34 2.42-2.02a.836.836 0 01.583-.212c1.756.006 3.512.006 5.273.006.292 0 .292 0 .292.28v4.737c0 .28 0 .286-.292.286H5.874z"/></svg>