<?xml version="1.0" encoding="utf-8"?><svg width="50" height="50" fill="none" xmlns="http://www.w3.org/2000/svg" viewBox="0 0 50 50"><circle cx="25" cy="25" r="25" fill="#ccc"/><path d="M25.467 15.012c-1.834 0-3.169-.031-4.502.007-2.355.067-4.711.127-7.057.374-1.628.172-2.886 1.201-3.311 2.72-.288 1.035-.41 2.095-.49 3.158-.145 1.97-.12 3.945-.073 5.916.036 1.529.167 3.056.531 4.555.38 1.564 1.764 2.668 3.431 2.82 1.953.18 3.907.273 5.864.351 3.23.13 6.462.091 9.69.036a72.259 72.259 0 006.477-.386c1.71-.184 2.99-1.172 3.405-2.75.269-1.024.395-2.069.47-3.123.146-2.045.087-4.091.064-6.136-.017-1.406-.157-2.811-.486-4.19-.413-1.742-1.681-2.806-3.534-2.98-1.887-.178-3.781-.241-5.676-.32-1.768-.076-3.536-.009-4.803-.052zM21.2 25.27v-4.19c0-.448.007-.452.437-.24.535.266 1.067.536 1.601.8 2.287 1.133 4.574 2.263 6.86 3.397.108.053.268.077.268.229 0 .113-.128.143-.216.186-2.864 1.424-5.731 2.844-8.593 4.272-.312.156-.363.058-.361-.23.008-1.406.004-2.815.004-4.224z" fill="#fff"/></svg>