<?xml version="1.0" encoding="utf-8"?><svg viewBox="0 0 21 22" xmlns="http://www.w3.org/2000/svg" width="21" height="22"><path d="M10.486 15.143h8.634c.32 0 .32 0 .32-.324 0-2.95 0-5.901-.006-8.852 0-.198.054-.336.212-.462.38-.307.75-.631 1.118-.95.14-.12.206-.09.218.084.006.09.018.18.018.27v12.44c0 .769-.38 1.148-1.155 1.148h-7.14c-.314 0-.314 0-.314.306 0 .367.006.733 0 1.106-.006.174.048.24.23.234.447-.012.888-.006 1.336 0 .393 0 .568.174.574.559 0 .264.006.523 0 .787-.006.283-.145.445-.43.493-.096.018-.193.018-.29.018H7.168c-.09 0-.181-.006-.272-.018-.29-.042-.447-.21-.453-.499a9.078 9.078 0 010-.811c.012-.337.205-.529.544-.529.46-.006.919-.012 1.384 0 .194.006.248-.066.242-.246a17.412 17.412 0 010-1.124c.012-.216-.066-.282-.284-.282-2.243.006-4.486.006-6.735.006h-.52c-.665-.018-1.064-.415-1.07-1.082-.006-1.484 0-2.975 0-4.459V4.843c0-.582.266-.973.755-1.087.097-.024.194-.024.29-.024h11.7c.036 0 .078-.006.114 0 .043.006.103.006.121.036.042.054-.012.096-.048.132-.182.21-.393.403-.544.631-.375.583-.877.74-1.578.733-2.993-.042-5.986-.018-8.978-.018-.32 0-.32 0-.32.319v9.194c0 .384 0 .384.398.384h8.573zm-.024 2.29a.632.632 0 00.64-.601.636.636 0 00-.604-.637.62.62 0 00-.634.601c-.007.349.26.63.598.637z"/><path d="M20.782 1.893c.012.625-.26 1.112-.725 1.508-.901.775-1.796 1.55-2.703 2.332-.991.853-1.983 1.713-2.98 2.566-.206.174-.2.174-.333-.066-.357-.655-.846-1.19-1.535-1.509-.188-.09-.164-.162-.049-.294 1.506-1.73 3.005-3.467 4.51-5.204.17-.192.327-.39.502-.577.532-.559 1.18-.781 1.935-.57.731.203 1.179.696 1.354 1.43.006.035.018.071.018.108.012.096.006.186.006.276zM9.071 12.728a8.603 8.603 0 01-1.396-.144c-.175-.037-.302-.133-.357-.307-.054-.18.018-.33.163-.439.678-.504 1.016-1.207 1.228-1.995.078-.282.157-.565.266-.835.363-.883 1.282-1.448 2.17-1.346.998.12 1.79.865 1.935 1.833.109.715-.09 1.34-.599 1.857-.792.805-1.777 1.213-2.896 1.328-.205.024-.405.06-.514.048z"/></svg>