<?xml version="1.0" encoding="utf-8"?><svg viewBox="0 0 17 22" xmlns="http://www.w3.org/2000/svg" width="17" height="22"><path d="M8.521 6.925h4.55c.633 0 .909.273.909.909 0 .71.014 1.42-.007 2.124-.007.267.097.438.29.609.482.423.95.86 1.406 1.318.827.834 1.247 1.859 1.288 3.02.035 1.1.09 2.207-.034 3.3-.234 1.996-2.116 3.69-4.142 3.751-2.66.082-5.321.02-7.982.035-1.358.006-2.557-.41-3.515-1.408-.82-.847-1.227-1.865-1.254-3.027-.028-1.052-.049-2.097.076-3.143.117-.977.544-1.803 1.226-2.514.455-.471.938-.902 1.434-1.332a.657.657 0 00.255-.554c-.014-.71-.007-1.414-.007-2.125 0-.676.297-.963.986-.963H8.52zm-.007 13.521c1.337 0 2.668.007 4.005 0 1.613-.013 2.88-1.27 2.902-2.87a77.61 77.61 0 00-.007-2.534 3.037 3.037 0 00-.958-2.22 32.843 32.843 0 00-1.613-1.476 1.098 1.098 0 01-.414-.916c0-.547-.007-1.093.007-1.64.007-.246-.083-.328-.33-.328-2.406.007-4.805.007-7.21 0-.255 0-.324.089-.317.328.013.608 0 1.21.007 1.818a.849.849 0 01-.31.67c-.614.539-1.22 1.079-1.8 1.653-.51.505-.771 1.113-.847 1.824-.09.868-.035 1.742-.042 2.61-.013 1.797 1.275 3.075 3.081 3.075 1.275.013 2.557.006 3.846.006zM.002 4.622c0-.779.469-1.503 1.179-1.756 1.068-.382 2.15-.738 3.225-1.1C6.02 1.22 7.632.673 9.252.133c1.178-.396 2.198.11 2.605 1.278.152.437.303.868.448 1.312.124.376.007.587-.365.717L1.34 6.986c-.414.137-.614.034-.759-.369-.158-.457-.317-.922-.469-1.38-.069-.212-.124-.43-.11-.615z"/><path d="M8.81 19.633H4.924c-.255 0-.517-.013-.772-.054a2.071 2.071 0 01-1.723-1.913c-.062-.991-.062-1.982.042-2.966.055-.498.29-.909.654-1.243.559-.52 1.117-1.046 1.682-1.551.372-.328.58-.71.586-1.203.007-.328.048-.355.365-.32.22.026.448.04.669.067.834.11 1.489.5 1.964 1.19.255.375.524.744.951.956 1.041.52 2.061.464 3.033-.171.207-.137.324-.137.496.041.317.328.655.629.993.936.503.458.717 1.039.73 1.695.014.833.021 1.673.007 2.507-.02 1.046-.868 1.927-1.923 1.995-1.378.089-2.757.007-3.866.034zm-2.467-3.225c.53 0 .938-.403.938-.922 0-.506-.428-.916-.952-.916-.53.007-.93.404-.93.93.007.519.42.915.944.908zm4.418 1.025a.733.733 0 00-.758-.738.764.764 0 00-.73.745.77.77 0 00.75.752c.421 0 .745-.335.738-.759zm.269-2.746a.53.53 0 00.51.533.526.526 0 00.53-.513.52.52 0 00-.502-.533.537.537 0 00-.538.513z"/></svg>