<?xml version="1.0" encoding="utf-8"?><svg viewBox="0 0 23 24" xmlns="http://www.w3.org/2000/svg" width="23" height="24"><path d="M.5 14.478V5.434c0-.519 0-.519.529-.519 1.412 0 2.825-.008 4.246.009.24 0 .339-.065.397-.3C6.258 2.308 7.737.826 10.075.187c2.553-.689 5.452.583 6.683 2.882.265.494.48 1.012.595 1.555.05.227.157.291.38.291 1.446-.008 2.892 0 4.337 0 .43 0 .43.009.43.422v7.83c0 .485-.24.834-.653.963-.388.13-.81.016-1.074-.283-.181-.21-.23-.462-.23-.737V7.247c0-.429 0-.429-.447-.429H17.93c-.446 0-.446 0-.446.454v3.49c0 .437-.247.777-.644.906a.969.969 0 01-1.082-.307c-.174-.219-.223-.47-.223-.745 0-1.142-.009-2.284.008-3.433 0-.292-.083-.38-.38-.38-2.445.007-4.89.007-7.344 0-.281 0-.372.08-.372.363.016 1.166.008 2.324.008 3.49 0 .64-.388 1.07-.958 1.07-.57-.009-.975-.438-.983-1.07-.009-1.141 0-2.283 0-3.433 0-.405 0-.413-.405-.413H2.912c-.43 0-.43 0-.43.421v14.356c0 .494 0 .494.488.494h8.303c.173 0 .347 0 .52.057.48.146.752.559.686 1.053-.058.437-.438.777-.909.801-.074.008-.14 0-.215 0H.98c-.462 0-.462 0-.462-.453C.5 20.527.5 17.507.5 14.479zm10.996-9.57h3.527c.414 0 .422-.009.29-.381-.579-1.563-2.14-2.64-3.834-2.624-1.71.025-3.23 1.11-3.792 2.697-.099.283-.008.324.248.315 1.19-.008 2.371-.008 3.56-.008z"/><path d="M18.733 16.89c0 .381.016.77-.009 1.15-.016.276.075.38.364.373a71.84 71.84 0 012.288 0c.463.008.86.154 1.041.607.232.583-.107 1.182-.743 1.28-.587.088-1.173.024-1.76.04-.256.008-.512 0-.777 0-.42 0-.42 0-.42.43v2.185c0 .632-.364 1.037-.95 1.045-.554.008-.984-.413-1-1.02-.017-.697-.009-1.393-.009-2.098 0-.55 0-.55-.553-.55-.694 0-1.38.008-2.074-.008-.669-.016-1.082-.365-1.107-.907-.025-.526.298-.923.835-.996.62-.081 1.239-.016 1.858-.032.223-.009.455-.009.678 0 .264.016.363-.081.363-.349a67.355 67.355 0 010-2.243c.009-.655.422-1.085 1.008-1.068.52.008.925.388.934.898.041.43.033.85.033 1.264z"/></svg>