<?xml version="1.0" encoding="utf-8"?><svg viewBox="0 0 24 20" xmlns="http://www.w3.org/2000/svg" width="24" height="20"><path fill-rule="evenodd" clip-rule="evenodd" d="M8.672.006a8.996 8.996 0 018.808 6.002h.518a6 6 0 015.722 4.185 5.997 5.997 0 01-2.267 6.717 1 1 0 11-1.15-1.636A3.998 3.998 0 0018 8.008h-1.26a1 1 0 01-.969-.752 6.994 6.994 0 00-10.054-4.44 6.995 6.995 0 00-1.96 10.814 1 1 0 01-1.498 1.326A8.995 8.995 0 018.672.006zm3.33 9a1 1 0 011 1v6.58l2.291-2.29a1 1 0 111.414 1.414l-3.997 3.997a1 1 0 01-1.415 0L7.298 15.71a1 1 0 111.414-1.415l2.29 2.29v-6.58a1 1 0 011-1z"/></svg>