<?xml version="1.0" encoding="utf-8"?><svg width="30" height="30" fill="none" xmlns="http://www.w3.org/2000/svg" viewBox="0 0 30 30"><path d="M30 15.04C30 23.315 23.27 30 14.945 30 6.684 29.984-.015 23.253 0 14.93.016 6.668 6.747-.016 15.086 0 23.316.016 30 6.747 30 15.04zm-8.34-5.108c.032-.734-.202-.89-.92-.609-3.967 1.546-7.918 3.108-11.87 4.654-.25.094-.53.219-.515.562.016.328.281.453.547.547.734.265 1.483.484 2.202.765.406.156.718.14 1.093-.11a369.78 369.78 0 016.668-4.231c.234-.156.578-.547.781-.266.187.25-.281.469-.5.672-1.718 1.561-3.451 3.107-5.169 4.654-.265.234-.36.405 0 .671 1.437 1.078 2.842 2.186 4.28 3.264.733.547 1.264.328 1.451-.593.438-2.187.86-4.358 1.297-6.544.203-1.171.453-2.358.656-3.436z" fill="#45A4D0"/></svg>