<?xml version="1.0" encoding="utf-8"?><svg viewBox="0 0 20 20" xmlns="http://www.w3.org/2000/svg" width="20" height="20"><path d="M19.629 19.628a1.212 1.212 0 01-.889.372c-.345 0-.641-.124-.888-.372l-3.868-3.87c-1.562 1.16-3.307 1.74-5.234 1.74a8.546 8.546 0 01-3.398-.695 8.79 8.79 0 01-2.793-1.867A8.829 8.829 0 01.693 12.15 8.523 8.523 0 010 8.75c0-1.193.231-2.33.693-3.412A8.683 8.683 0 012.56 2.551 8.874 8.874 0 015.352.694 8.546 8.546 0 018.75 0c1.185 0 2.318.231 3.398.694a8.873 8.873 0 012.793 1.857 8.682 8.682 0 011.866 2.786A8.568 8.568 0 0117.5 8.74c0 1.942-.58 3.688-1.738 5.24l3.867 3.87c.247.248.371.545.371.89s-.124.642-.371.89zM8.75 2.502a6.148 6.148 0 00-3.135.831A6.157 6.157 0 003.34 5.611c-.56.964-.84 2.01-.84 3.138 0 1.127.28 2.173.84 3.138a6.156 6.156 0 002.275 2.277c.957.554 2.002.831 3.135.831a6.149 6.149 0 003.135-.83 6.156 6.156 0 002.275-2.278c.56-.965.84-2.01.84-3.138 0-1.128-.28-2.174-.84-3.138a6.157 6.157 0 00-2.275-2.278 6.148 6.148 0 00-3.135-.83z"/></svg>