<?xml version="1.0" encoding="utf-8"?><svg width="31" height="30" fill="none" xmlns="http://www.w3.org/2000/svg" viewBox="0 0 31 30"><path d="M14.879 25.984c-1.121-.459-1.817.323-2.497 1.19-.56.696-1.154 1.359-1.766 2.005-.662.73-1.46 1.02-2.411.68-.883-.307-1.376-1.088-1.376-2.142 0-.781-.017-1.563 0-2.361 0-.34-.101-.561-.424-.68-3.6-1.461-5.4-4.299-6.063-7.986A20.597 20.597 0 01.41 8.857C1.412 4.05 4.163 1.364 8.986.481c2.513-.46 5.044-.561 7.59-.425 1.614.085 3.227.136 4.807.492 4.975 1.122 7.743 4.146 8.405 9.21.306 2.31.323 4.604-.084 6.898-.867 4.996-3.685 7.85-8.678 8.802-1.97.39-3.99.424-6.147.526zm6.86-8.19c.221-.849-.22-1.359-1.07-1.699-.628-.237-1.222-.594-1.834-.9-.594-.289-1.188-.272-1.783 0-.407.187-.798.408-1.104.73-.305.306-.577.34-.967.153-1.444-.696-2.565-1.699-3.397-3.058-.441-.748-.611-1.342.085-2.073.595-.629.917-1.461.51-2.345-.391-.866-.85-1.716-1.274-2.565-.102-.187-.22-.408-.441-.408-1.036-.051-2.09-.221-3.023.425C5.912 7.09 5.165 9.06 5.777 10.828c1.052 3.042 2.7 5.726 5.264 7.731 1.766 1.376 3.668 2.532 5.858 3.11 2.293.56 5.18-1.513 4.84-3.874zm-6.402-13.61c-.05 0-.22 0-.39.018-.34.068-.527.254-.527.611 0 .323.187.51.493.578.17.034.34.034.51.051 2.427.22 4.278 1.376 5.535 3.466.611 1.02.832 2.158.917 3.33.034.374.22.663.645.63.391-.035.595-.324.595-.697 0-.408-.051-.8-.102-1.207-.493-3.619-3.923-6.711-7.676-6.78zm5.027 7.783c-.034-2.515-1.987-4.622-4.704-5.047-.764-.119-1.206.051-1.24.51-.05.748.544.697 1.02.748 2.088.305 3.48 1.733 3.684 3.84.051.458.17.883.713.85.544-.018.544-.477.527-.901zm-5.112-2.328c-.373 0-.747.017-.815.493-.068.441.22.662.629.73.832.12 1.273.612 1.392 1.41.05.391.289.646.696.578.39-.05.544-.34.544-.73-.017-1.258-1.172-2.447-2.446-2.481z" fill="#4C4E9B"/></svg>