<?xml version="1.0" encoding="utf-8"?><svg width="50" height="50" fill="none" xmlns="http://www.w3.org/2000/svg" viewBox="0 0 50 50"><circle cx="25" cy="25" r="25" fill="#ccc"/><path d="M26.154 20.522v2.723c0 .244.01.499.253.636.265.15.502.016.723-.13.662-.443 1.103-1.086 1.55-1.715.996-1.405 1.862-2.89 2.52-4.48.234-.566.576-.84 1.215-.811.866.038 1.734.001 2.6.012.874.011 1.234.52.917 1.33-.716 1.817-1.806 3.425-2.934 5.009-.229.322-.438.657-.667.98-.324.454-.243.843.133 1.236.846.883 1.665 1.79 2.509 2.673.65.681 1.153 1.456 1.57 2.287.332.666-.029 1.344-.782 1.372-1.125.04-2.254.018-3.38.001-.392-.005-.65-.238-.876-.559-.96-1.356-2.165-2.483-3.469-3.511-.068-.054-.143-.098-.218-.142-.807-.468-1.2-.265-1.23.652-.02.581-.003 1.165-.009 1.747-.01 1.057-.685 1.709-1.745 1.75-2.576.1-4.67-.99-6.544-2.585-1.871-1.592-3.106-3.667-4.323-5.744-.921-1.577-1.697-3.218-2.187-4.982-.32-1.156.02-1.601 1.242-1.603.729-.001 1.456.006 2.184-.001.575-.006.942.242 1.137.786.509 1.421 1.042 2.834 1.747 4.174.57 1.082 1.22 2.111 2.098 2.981.122.12.25.24.397.329.388.24.649.137.786-.297.036-.114.066-.235.064-.352-.02-1.54.089-3.08-.097-4.618-.091-.75-.518-1.33-.935-1.92-.157-.221-.385-.432-.233-.736.152-.309.46-.258.732-.26 1.37-.002 2.74-.004 4.11 0 .872.003 1.134.27 1.138 1.149.005.873.002 1.747.002 2.62h.002z" fill="#fff"/></svg>