<?xml version="1.0" encoding="utf-8"?><svg viewBox="0 0 17 22" xmlns="http://www.w3.org/2000/svg" width="17" height="22"><path d="M8.493 5.748h6.474c.55 0 .66.105.597.639-.133 1.134-.283 2.269-.424 3.403l-.566 4.494a954.186 954.186 0 00-.62 4.943c-.087.714-.181 1.436-.26 2.15-.063.548-.141.623-.707.623H3.944c-.48 0-.573-.068-.628-.51-.228-1.79-.448-3.577-.668-5.366-.22-1.78-.448-3.554-.676-5.334-.189-1.473-.377-2.938-.558-4.41-.063-.534.047-.64.597-.64 2.169.008 4.322.008 6.482.008zm-.346 11.105a2.859 2.859 0 001.155-.3c.998-.534 1.792-1.278 2.334-2.24.346-.608.408-1.262.141-1.93-.07-.18-.157-.248-.369-.18-2.153.69-3.7 2.05-4.816 3.906-.079.128-.055.203.07.278.44.278.92.444 1.485.466zm2.334-5.996c-.747-.556-1.532-.766-2.35-.473-1.476.526-2.498 1.525-3 2.96-.205.564-.087 1.12.22 1.683 1.272-1.893 2.914-3.32 5.13-4.17zM8.501 4.26H.644C.055 4.26 0 4.208 0 3.66v-.933c0-.36.11-.458.495-.465.228 0 .456-.008.676 0 .212.015.298-.076.337-.263.134-.541.283-1.075.417-1.616C1.988.12 2.137 0 2.435 0c4.047.008 8.085.008 12.131 0 .291 0 .432.12.495.376.134.54.283 1.074.417 1.608.047.195.141.285.361.278.236-.015.472-.008.707 0 .33.007.448.12.448.428.008.368.008.729 0 1.097 0 .368-.11.473-.487.473H8.501z"/></svg>