<?xml version="1.0" encoding="utf-8"?><svg viewBox="0 0 19 22" xmlns="http://www.w3.org/2000/svg" width="19" height="22"><path d="M17.897 20.624h-.506c-.253 0-.264-.012-.182-.24a4.9 4.9 0 00.323-2.23c-.13-1.333-1-2.51-2.406-2.74-.9-.148-1.735.07-2.518.51-.835.474-1.47 1.149-2.082 1.864-1.13 1.332-2.4 2.51-3.97 3.356-1.042.56-2.136.898-3.348.852-1.383-.052-2.612-.852-3.024-2.03-.376-1.07-.147-2.07.43-3.02.258-.422.576-.794.935-1.137.123-.12.147-.194.006-.326-.336-.314-.33-.217-.053-.617 1.994-2.91 3.988-5.816 5.983-8.72a.818.818 0 00.158-.52c-.047-.95.189-1.842.63-2.682.13-.246.141-.246.347-.052l7.33 7.125c.212.206.212.217-.053.349-.906.451-1.87.674-2.894.611a.424.424 0 00-.271.075c-1.53.995-3.07 1.967-4.583 2.979a224.019 224.019 0 01-3.676 2.407c-.347.223-.712.423-1.06.652-.1.063-.17.051-.252-.029-.1-.103-.212-.2-.312-.303-.065-.068-.13-.085-.206-.011-.576.543-1.047 1.143-1.165 1.944-.153 1.035.536 1.652 1.336 1.818.83.172 1.617.012 2.388-.303 1.077-.44 1.983-1.115 2.818-1.881.588-.537 1.118-1.132 1.635-1.738.818-.967 1.765-1.79 2.977-2.259 1.753-.675 3.406-.526 4.86.72.864.738 1.3 1.716 1.458 2.814.124.858.006 1.692-.223 2.521-.053.183-.136.27-.336.246-.153-.017-.323-.005-.494-.005zm-9.848-9.12c.036-.023.07-.04.094-.063l.795-.772c.082-.075.03-.126-.03-.178-.24-.234-.488-.468-.73-.709-.093-.091-.164-.091-.252 0-.23.229-.465.452-.706.675-.1.091-.118.16-.012.263.241.229.477.463.718.692.035.028.076.057.123.091zM18.968 5.511c-.041 1.395-.512 2.63-1.47 3.677-.213.234-.219.234-.436.023-2.53-2.465-5.06-4.924-7.595-7.382-.218-.212-.218-.212.012-.412 2.206-1.933 5.641-1.904 7.8.183.989.96 1.548 2.121 1.654 3.482l.035.429z"/></svg>