<?xml version="1.0" encoding="utf-8"?><svg width="30" height="30" fill="none" xmlns="http://www.w3.org/2000/svg" viewBox="0 0 30 30"><path d="M30 13.557c0 9.011-5.62 15.403-13.091 16.323-3.44.42-6.663-.265-9.62-2.058-.359-.218-.654-.234-1.043-.11-1.417.484-2.85.936-4.281 1.388-.234.078-.498.281-.716.094-.218-.203 0-.468.078-.702a434.27 434.27 0 011.385-4.162c.125-.359.109-.64-.109-.982C-.401 18.67-.853 13.698 1.498 8.66 3.786 3.751 7.756.866 13.126.15c4.857-.655 9.09.858 12.546 4.319 2.896 2.9 4.297 6.454 4.328 9.089zM19.882 23.3c.171 0 .358.031.53 0 2.194-.374 3.517-1.528 3.595-3.617.015-.359-.031-.655-.405-.826-1.12-.53-2.241-1.076-3.362-1.606-.452-.218-.84-.078-1.121.312-.296.39-.576.78-.872 1.169-.498.639-.825.733-1.572.436-2.475-.997-4.296-2.744-5.682-5.004-.218-.359-.218-.702.063-1.013.295-.36.622-.702.918-1.06.28-.344.39-.702.202-1.139-.482-1.122-.934-2.26-1.416-3.398-.094-.234-.234-.5-.498-.53-.84-.125-1.666-.203-2.366.452-1.292 1.216-1.697 2.712-1.433 4.412.234 1.543 1.075 2.822 1.946 4.069 2.475 3.508 5.62 6.049 9.854 7.125.545.124 1.074.249 1.619.218z" fill="#68B262"/></svg>