<?xml version="1.0" encoding="utf-8"?><svg viewBox="0 0 13 22" xmlns="http://www.w3.org/2000/svg" width="13" height="22"><path d="M6.529 8.737a17.14 17.14 0 00-2.23.196c-.514.085-.805.49-.71.98.04.222.101.45.121.672.034.275-.087.392-.371.405-.264.007-.52 0-.784 0-.358 0-.446-.078-.514-.405-.216-1.09-.432-2.18-.649-3.265C.973 5.224.547 3.127.128 1.03.061.692.142.398.426.176.683-.02.966-.04 1.257.09a.776.776 0 01.466.549c.048.19.129.216.305.144C3.744.136 5.528-.08 7.353.025c1.27.072 2.508.333 3.69.79.156.06.257.079.311-.124.149-.516.568-.77 1.041-.653.453.111.683.516.581 1.045-.236 1.176-.48 2.351-.716 3.527-.399 1.959-.79 3.918-1.19 5.884-.094.457-.148.503-.635.503-.23 0-.46.006-.682-.007-.291-.013-.413-.156-.372-.43.034-.216.08-.432.121-.647.088-.484-.196-.875-.696-.967-.75-.137-1.507-.19-2.277-.209zm.121-7.144c-.703 0-1.236.039-1.777.097-.79.085-1.561.262-2.318.497-.318.098-.44.313-.379.62.054.294.108.595.176.888.074.334.27.47.622.425.115-.013.23-.046.344-.072a12.868 12.868 0 012.602-.366 13.831 13.831 0 014.11.451c.419.111.642-.026.736-.444.054-.235.095-.477.142-.718.095-.477.007-.627-.48-.778a13.203 13.203 0 00-3.778-.6zm-.243 3.67c-.284-.02-.683.013-1.075.052-.696.065-1.392.163-2.068.346-.31.085-.439.288-.392.588.027.176.061.353.095.529.095.529.297.666.838.555A13.7 13.7 0 016.11 7.06a14.403 14.403 0 013.345.3c.338.072.554-.072.642-.392.054-.189.088-.378.129-.574.087-.438-.048-.64-.494-.751a14.658 14.658 0 00-3.325-.38zM6.495 15.7H.845c-.629 0-.845-.21-.845-.804v-1.613c0-.49.243-.732.743-.732h11.503c.487 0 .737.235.744.706a73.97 73.97 0 010 1.737c-.007.47-.25.705-.744.705H6.495zM12.03 19.291v2.175c0 .365-.074.476-.331.496-.44.04-.561-.04-.622-.438-.182-1.24-.351-2.488-.527-3.729-.034-.26-.081-.516-.101-.777-.02-.307.074-.405.385-.405.264-.006.52-.006.784 0 .304.007.405.098.405.399.007.764.007 1.521.007 2.279zM1.602 16.613h.378c.338.007.446.105.413.438-.041.372-.102.744-.15 1.117a591.174 591.174 0 01-.493 3.409c-.054.359-.452.535-.777.346-.155-.091-.155-.235-.155-.385v-3.912c0-.21-.007-.425 0-.634.007-.268.108-.366.385-.372.135-.013.264-.007.399-.007z"/></svg>