<?xml version="1.0" encoding="utf-8"?><svg viewBox="0 0 22 21" xmlns="http://www.w3.org/2000/svg" width="22" height="21"><path d="M4.038 8.75a7.993 7.993 0 00-.662 1.028c-.138.254-.355.347-.62.322-.938-.099-1.75-.539-2.525-1.047-.21-.142-.283-.39-.193-.638.56-1.549 1.107-3.097 1.72-4.621.139-.347.41-.607.68-.855.439-.415.926-.768 1.425-1.097.433-.29.872-.576 1.311-.86.247-.162.355-.162.56.036 1.371 1.345 3.975.83 4.781-.762.12-.241.27-.303.523-.223.915.304 1.829.614 2.695 1.047.745.372 1.287 1.01 1.846 1.611.764.812 1.474 1.673 2.195 2.528.043.05.09.105.133.16.204.28.204.552-.03.8a18.554 18.554 0 01-1.973 1.765c-.217.174-.475.149-.704-.05-.258-.222-.505-.458-.806-.73.03.446.048.836.079 1.226.018.26.036.527.078.787.036.223-.06.248-.235.21-.625-.123-1.257-.222-1.87-.414-.95-.298-1.714.198-2.105.972-.313.62-.524 1.283-.752 1.94-.553 1.56-1.125 3.116-1.612 4.708-.042.13-.09.223-.24.229-.452.03-.897.074-1.348.093-.499.024-.83-.273-.884-.787-.258-2.404-.764-4.758-1.371-7.087-.03-.093-.054-.174-.096-.291z"/><path d="M17.48 20.997c-.277 0-.554.006-.836 0-.385-.006-.56-.167-.59-.551-.084-.991-.156-1.989-.234-2.98-.012-.18-.03-.353-.042-.533-.006-.08 0-.173-.097-.192-.108-.018-.132.08-.156.161-.21.638-.415 1.276-.626 1.915-.156.483-.312.966-.475 1.45-.138.408-.294.513-.697.396-1.636-.459-3.23-1.029-4.697-1.92-.385-.236-.44-.41-.301-.85a151.07 151.07 0 012.315-6.882c.103-.273.205-.551.385-.78.175-.224.391-.317.674-.242 1.678.458 3.392.737 5.118.929 1.065.118 2.135.204 3.212.198.433 0 .62.155.685.595.229 1.549.457 3.104.59 4.665l.288 3.37c.024.297-.072.465-.342.576-.945.384-1.931.558-2.941.626-.41.03-.818.05-1.233.05z"/></svg>