<?xml version="1.0" encoding="utf-8"?><svg viewBox="0 0 23 24" xmlns="http://www.w3.org/2000/svg" width="23" height="24"><path fill-rule="evenodd" clip-rule="evenodd" d="M19.44 2.94c-.298 0-.583.118-.793.328l-9.305 9.304-.528 2.114 2.114-.528 9.304-9.304a1.121 1.121 0 00-.793-1.915zm-2.208-1.086a3.121 3.121 0 014.415 4.414l-9.5 9.5a1 1 0 01-.465.263l-4 1a1 1 0 01-1.213-1.213l1-4a1 1 0 01.263-.464l9.5-9.5zM1.318 3.939a3 3 0 012.121-.878h7a1 1 0 010 2h-7a1 1 0 00-1 1v14a1 1 0 001 1h14a1 1 0 001-1v-7a1 1 0 112 0v7a3 3 0 01-3 3h-14a3 3 0 01-3-3v-14a3 3 0 01.88-2.122z"/></svg>