<?xml version="1.0" encoding="utf-8"?><svg viewBox="0 0 18 20" xmlns="http://www.w3.org/2000/svg" width="18" height="20"><path d="M17.998 15.193v1.288c0 1.61-1.276 2.816-2.779 2.636a16.044 16.044 0 01-3.457-.808 16.754 16.754 0 01-3.659-1.817 17.078 17.078 0 01-3.195-2.685C3.122 11.881 1.8 9.643.925 7.111A18.777 18.777 0 01.02 3.018C-.145 1.523.74.284 2.14.028a1.13 1.13 0 01.19-.022c.926 0 1.852-.016 2.778.005C6.184.033 7.172.94 7.372 2.112c.155.879.355 1.741.608 2.598.283.971.066 1.86-.618 2.598-.144.152-.288.31-.437.463-.103.099-.113.186-.036.317.782 1.244 1.723 2.325 2.85 3.22.206.164.422.31.628.475.129.103.216.092.33-.033.216-.235.416-.48.668-.677.71-.551 1.482-.71 2.316-.398.736.273 1.487.47 2.259.595 1.183.196 2.053 1.282 2.058 2.559.005.447 0 .906 0 1.364zm-1.662 0v-1.206c0-.633-.211-.911-.808-1.01a12.214 12.214 0 01-2.351-.632c-.35-.137-.654-.06-.916.223-.299.322-.597.639-.9.955-.407.431-.747.47-1.246.159a14.082 14.082 0 01-3.108-2.63 14.99 14.99 0 01-1.97-2.817c-.201-.376-.165-.758.118-1.07.319-.349.633-.698.962-1.03.314-.317.37-.683.226-1.103a12.82 12.82 0 01-.576-2.412c-.087-.59-.355-.851-.916-.857-.772-.005-1.543-.005-2.315 0-.571.011-.916.426-.854 1.032.077.73.19 1.457.365 2.171a17.25 17.25 0 002.079 5.01c.895 1.457 1.97 2.74 3.252 3.82 1.852 1.567 3.92 2.663 6.236 3.236.628.153 1.255.3 1.898.322.484.017.814-.338.819-.851.005-.436.005-.873.005-1.31z"/></svg>