<?xml version="1.0" encoding="utf-8"?><svg width="29" height="29" fill="none" xmlns="http://www.w3.org/2000/svg" viewBox="0 0 29 29"><path d="M29 14.5C29 22.508 22.508 29 14.5 29S0 22.508 0 14.5 6.492 0 14.5 0 29 6.492 29 14.5z" fill="#E9E8E5"/><path d="M13.672 18.481h1.998c0-.366.012-.657.036-.873.024-.222.117-.47.279-.747a2.82 2.82 0 01.702-.774c.306-.24.606-.516.9-.828.378-.396.687-.837.927-1.323a3.476 3.476 0 00.369-1.593 3.58 3.58 0 00-.216-1.233 3.136 3.136 0 00-.621-1.07 3.216 3.216 0 00-1.422-.964 5.395 5.395 0 00-1.8-.297c-.444 0-.888.07-1.332.207-.444.132-.84.336-1.188.612a3.228 3.228 0 00-.972 1.206 4.426 4.426 0 00-.432 1.575h1.98c-.006-.27.033-.519.117-.747a1.41 1.41 0 01.414-.585c.174-.162.39-.282.648-.36.258-.078.534-.117.828-.117.318 0 .624.048.918.144.294.096.537.267.729.513.234.288.35.672.35 1.152 0 .312-.041.603-.125.873-.078.27-.237.537-.477.801a6.58 6.58 0 01-.828.756c-.258.192-.498.39-.72.594a2.662 2.662 0 00-.567.783 3.55 3.55 0 00-.396 1.08 7.066 7.066 0 00-.1 1.215zm.009 3.52h1.989v-2.179h-1.99V22z" fill="#fff"/></svg>