<?xml version="1.0" encoding="utf-8"?><svg viewBox="0 0 32 32" xmlns="http://www.w3.org/2000/svg" width="32" height="32"><path d="M31.406 31.406c-.396.396-.87.594-1.422.594a1.939 1.939 0 01-1.422-.594l-6.187-6.194c-2.5 1.856-5.292 2.784-8.375 2.784-1.896 0-3.708-.37-5.438-1.11-1.729-.74-3.218-1.736-4.468-2.988-1.25-1.25-2.245-2.737-2.985-4.457A13.637 13.637 0 010 13.998C0 12.09.37 10.27 1.11 8.54c.739-1.731 1.734-3.217 2.984-4.458 1.25-1.24 2.74-2.231 4.468-2.972C10.293.37 12.104 0 14 0s3.708.37 5.438 1.11c1.729.74 3.218 1.731 4.468 2.972 1.25 1.24 2.245 2.727 2.985 4.458A13.71 13.71 0 0128 13.982c0 3.108-.927 5.902-2.781 8.384l6.187 6.193c.396.396.594.87.594 1.423s-.198 1.027-.594 1.424zM14 4.004c-1.813 0-3.484.443-5.016 1.33a9.85 9.85 0 00-3.64 3.644A9.828 9.828 0 004 13.998c0 1.804.448 3.477 1.344 5.02a9.851 9.851 0 003.64 3.645c1.532.886 3.204 1.33 5.016 1.33 1.813 0 3.484-.444 5.016-1.33a9.85 9.85 0 003.64-3.644A9.827 9.827 0 0024 13.998a9.827 9.827 0 00-1.344-5.02 9.85 9.85 0 00-3.64-3.645c-1.532-.886-3.203-1.33-5.016-1.33z"/></svg>