<?xml version="1.0" encoding="utf-8"?><svg viewBox="0 0 17 19" xmlns="http://www.w3.org/2000/svg" width="17" height="19"><path fill-rule="evenodd" clip-rule="evenodd" d="M13.5 1.5a2 2 0 100 4 2 2 0 000-4zm-2.304 3.922a3 3 0 10-.504-.863L5.804 7.41a3 3 0 100 3.844l4.89 2.85a3 3 0 10.505-.863l-4.891-2.85a2.994 2.994 0 000-2.117l4.888-2.853zm-5.988 2.87a.506.506 0 00.04.069c.16.288.252.62.252.972a1.991 1.991 0 01-.292 1.042A1.999 1.999 0 011.5 9.333a2 2 0 013.708-1.041zm6.524 5.94a.508.508 0 00.086-.148 2 2 0 11-.087.148z"/></svg>