<?xml version="1.0" encoding="utf-8"?><svg width="102" height="90" fill="none" xmlns="http://www.w3.org/2000/svg" viewBox="0 0 102 90"><path fill-rule="evenodd" clip-rule="evenodd" d="M69.281 7l24.882.083c3.95.013 7.181 3.22 7.181 7.155V66.65c0 3.936-3.23 7.156-7.18 7.156H76.67v15.307L61.473 73.806H18.18c-3.95 0-7.181-3.22-7.181-7.155V14.238c0-3.936 3.231-7.149 7.18-7.155L69.282 7z" fill="#ECDDD0"/><path fill-rule="evenodd" clip-rule="evenodd" d="M54.517 1.997A1.5 1.5 0 0153.02 3.5l-43.837.083C6.054 3.589 3.5 6.138 3.5 9.238V21.55a1.5 1.5 0 11-3 0V9.238C.5 4.466 4.41.592 9.178.583L53.014.5a1.5 1.5 0 011.503 1.497zm4.265-.002A1.5 1.5 0 0160.287.5l24.882.083c4.764.015 8.675 3.882 8.675 8.655V61.65c0 4.77-3.907 8.656-8.68 8.656H69.17v13.807a1.5 1.5 0 01-2.564 1.057L51.849 70.307H9.18C4.408 70.307.5 66.42.5 61.65V39.057a1.5 1.5 0 013 0V61.65c0 3.102 2.555 5.656 5.68 5.656h43.293c.4 0 .783.16 1.065.443L66.17 80.474V68.807a1.5 1.5 0 011.5-1.5h17.494c3.126 0 5.68-2.553 5.68-5.656V9.238c0-3.098-2.55-5.645-5.685-5.655L60.277 3.5a1.5 1.5 0 01-1.495-1.505zM2 27.448a1.5 1.5 0 011.5 1.5v2.697a1.5 1.5 0 01-3 0v-2.697a1.5 1.5 0 011.5-1.5z" fill="#556269"/><path d="M27.341 39.355c3.367 0 6.096-2.72 6.096-6.073 0-3.355-2.73-6.074-6.095-6.074-3.367 0-6.096 2.72-6.096 6.074 0 3.354 2.73 6.073 6.096 6.073zM47.546 39.355c3.366 0 6.095-2.72 6.095-6.073 0-3.355-2.729-6.074-6.095-6.074-3.367 0-6.096 2.72-6.096 6.074 0 3.354 2.73 6.073 6.096 6.073zM67.754 39.355c3.366 0 6.095-2.72 6.095-6.073 0-3.355-2.729-6.074-6.095-6.074-3.367 0-6.096 2.72-6.096 6.074 0 3.354 2.73 6.073 6.096 6.073z" fill="#FEFEFE"/></svg>