<?xml version="1.0" encoding="utf-8"?><svg width="50" height="50" fill="none" xmlns="http://www.w3.org/2000/svg" viewBox="0 0 50 50"><circle cx="25" cy="25" r="25" fill="#ccc"/><path d="M22.38 31.055c0-1.412-.025-2.824.01-4.234.017-.698-.155-1.02-.937-1.005-1.448.028-1.45-.015-1.453-1.522v-.659c.003-1.598.003-1.628 1.545-1.66.673-.015.855-.297.845-.917-.012-.875-.058-1.749.142-2.62.413-1.82 1.505-2.913 3.323-3.247 1.36-.249 2.735-.183 4.107-.183.607 0 .822.296.802.88-.025.72-.035 1.444.003 2.162.032.643-.225.927-.86.917-.53-.007-1.06.013-1.59.033-.64.023-.975.354-.972 1.008 0 .092-.005.188-.01.28-.053 1.674-.053 1.674 1.58 1.674 1.97 0 1.97 0 1.69 1.98-.266 1.877-.266 1.917-2.155 1.872-.85-.02-1.15.233-1.138 1.11.045 2.822-.007 5.645.03 8.467.01.857-.282 1.19-1.14 1.143-.995-.053-1.997-.023-2.995-.015-.59.005-.837-.259-.83-.86.02-1.534.008-3.072.008-4.61-.003.006-.005.006-.005.006z" fill="#fff"/></svg>