<?xml version="1.0" encoding="utf-8"?><svg viewBox="0 0 20 22" xmlns="http://www.w3.org/2000/svg" width="20" height="22"><path fill-rule="evenodd" clip-rule="evenodd" d="M8 1.879a1.25 1.25 0 00-1.25 1.25v1.25h6.5v-1.25A1.25 1.25 0 0012 1.879H8zm6.75 2.5v-1.25A2.75 2.75 0 0012 .379H8a2.75 2.75 0 00-2.75 2.75v1.25H1a.75.75 0 100 1.5h1.25v13.25A2.75 2.75 0 005 21.879h10a2.75 2.75 0 002.75-2.75V5.879H19a.75.75 0 000-1.5h-4.25zm-11 1.5v13.25A1.25 1.25 0 005 20.379h10a1.25 1.25 0 001.25-1.25V5.879H3.75zM8 9.379a.75.75 0 01.75.75v6a.75.75 0 01-1.5 0v-6a.75.75 0 01.75-.75zm4 0a.75.75 0 01.75.75v6a.75.75 0 01-1.5 0v-6a.75.75 0 01.75-.75z"/></svg>