<?xml version="1.0" encoding="utf-8"?><svg viewBox="0 0 26 25" xmlns="http://www.w3.org/2000/svg" width="26" height="25"><path fill-rule="evenodd" clip-rule="evenodd" d="M24.502.291a1 1 0 01.002 1.415L22.8 3.418l2.91 2.921a1 1 0 010 1.411l-4.215 4.232a1 1 0 01-1.417 0l-2.904-2.916-3.579 3.594a7.659 7.659 0 011.602 4.665 7.672 7.672 0 01-2.232 5.433A7.621 7.621 0 017.548 25a7.6 7.6 0 01-5.402-2.278l-.008-.008A7.663 7.663 0 010 17.335a7.662 7.662 0 012.231-5.34 7.605 7.605 0 019.935-.735L23.087.294a1 1 0 011.415-.003zM11.559 13.366a5.609 5.609 0 00-3.985-1.614 5.61 5.61 0 00-3.926 1.654A5.663 5.663 0 002 17.353a5.664 5.664 0 001.576 3.97A5.621 5.621 0 007.554 23a5.598 5.598 0 003.993-1.653 5.652 5.652 0 001.649-4.015 5.673 5.673 0 00-1.637-3.966zm7.026-5.717l2.2 2.21 2.804-2.814-2.201-2.21-2.803 2.814z"/></svg>