<?xml version="1.0" encoding="utf-8"?><svg viewBox="0 0 40 40" fill="none" xmlns="http://www.w3.org/2000/svg" width="40" height="40"><path d="M40 20c0 11.046-8.954 20-20 20S0 31.046 0 20 8.954 0 20 0s20 8.954 20 20z" fill="#556269"/><path d="M28.998 25.193v1.288c0 1.61-1.276 2.816-2.779 2.636a16.044 16.044 0 01-3.457-.808 16.755 16.755 0 01-3.659-1.817 17.075 17.075 0 01-3.195-2.685c-1.786-1.926-3.108-4.164-3.983-6.696a18.782 18.782 0 01-.905-4.093c-.165-1.495.72-2.734 2.12-2.99.061-.011.128-.022.19-.022.926 0 1.852-.016 2.778.005 1.076.022 2.064.928 2.264 2.101.155.879.355 1.741.608 2.598.283.971.067 1.86-.618 2.598-.144.152-.288.31-.437.463-.103.099-.113.186-.036.317.782 1.244 1.724 2.325 2.85 3.22.206.163.422.31.628.475.129.103.216.092.33-.033.216-.235.416-.48.668-.677.71-.551 1.482-.71 2.316-.398.735.273 1.487.47 2.258.595 1.184.196 2.054 1.282 2.059 2.559.005.447 0 .906 0 1.364zm-1.662 0v-1.206c0-.633-.211-.911-.808-1.01a12.214 12.214 0 01-2.351-.632c-.35-.137-.654-.06-.916.223-.299.322-.597.639-.9.955-.407.431-.747.47-1.246.159a14.083 14.083 0 01-3.108-2.63 14.993 14.993 0 01-1.97-2.817c-.201-.376-.165-.758.118-1.07.319-.348.633-.698.962-1.03.314-.317.37-.683.226-1.103a12.811 12.811 0 01-.576-2.412c-.087-.59-.355-.851-.916-.857-.772-.005-1.543-.005-2.315 0-.571.011-.916.426-.854 1.031.077.732.19 1.458.365 2.172a17.248 17.248 0 002.079 5.01c.895 1.457 1.97 2.74 3.252 3.82 1.852 1.567 3.92 2.663 6.236 3.236.628.153 1.255.3 1.898.322.484.017.814-.338.819-.851.005-.436.005-.873.005-1.31z" fill="#fff"/></svg>