<?xml version="1.0" encoding="utf-8"?><svg width="50" height="50" fill="none" xmlns="http://www.w3.org/2000/svg" viewBox="0 0 50 50"><circle cx="25" cy="25" r="25" fill="#CCC"/><path d="M24.167 36.67c-1.91-.052-3.831.026-5.74-.104-3.78-.234-6.455-2.922-6.65-6.714-.181-3.52-.09-7.04-.065-10.559.013-1.026.156-2.039.494-3.013.909-2.545 2.766-3.96 5.39-4.415a13.335 13.335 0 012.376-.195c2.974 0 5.935-.013 8.91.013 1.064.013 2.142.13 3.155.494 2.559.896 3.974 2.753 4.442 5.376.142.78.194 1.572.194 2.377 0 2.974.013 5.935-.013 8.909-.012 1.09-.13 2.169-.493 3.208-.91 2.545-2.766 3.974-5.39 4.415-2.195.35-4.415.143-6.61.208zM13.985 23.605c0 1.403.013 2.338 0 3.273-.013.96.04 1.909.104 2.87.13 2.195 1.312 3.714 3.35 4.26a7.34 7.34 0 001.676.233c3.39.078 6.78.091 10.169 0 1.48-.038 2.87-.39 3.883-1.597.857-1.013 1.078-2.247 1.117-3.506.09-3.351.104-6.715 0-10.065-.04-1.416-.35-2.767-1.48-3.793-.975-.883-2.17-1.181-3.416-1.194-3.585-.065-7.17-.247-10.754-.013-1.272.077-2.454.441-3.363 1.428-.818.883-1.091 1.961-1.195 3.117-.156 1.805-.052 3.623-.09 4.987z" fill="#fff"/><path d="M30.647 24.164a6.463 6.463 0 01-6.48 6.467c-3.546 0-6.442-2.896-6.442-6.454a6.463 6.463 0 016.48-6.468c3.56 0 6.442 2.896 6.442 6.455zm-6.428-4.078c-2.286-.013-4.091 1.753-4.104 4.026-.013 2.299 1.74 4.104 4.013 4.13 2.325.013 4.13-1.754 4.143-4.052 0-2.299-1.767-4.091-4.052-4.104zM30.83 19.034c-.884 0-1.52-.65-1.52-1.546 0-.87.675-1.545 1.545-1.532.831 0 1.546.727 1.546 1.558-.013.87-.689 1.52-1.572 1.52z" fill="#fff"/></svg>