<?xml version="1.0" encoding="utf-8"?><svg viewBox="0 0 22 22" xmlns="http://www.w3.org/2000/svg" width="22" height="22"><path d="M.084 21.993c.578-1.382 1.157-2.731 1.724-4.08.182-.422.354-.843.547-1.264.107-.226.085-.399-.075-.593C-.205 12.979-.548 9.525.716 5.898c.792-2.278 2.474-3.81 4.648-4.771C7.581.144 9.906-.137 12.315.056c1.714.141 3.353.53 4.884 1.329 2.753 1.457 4.306 3.756 4.702 6.854.247 1.922.043 3.79-.739 5.581-.889 2.03-2.388 3.476-4.38 4.361-3.363 1.49-6.823 1.533-10.315.486-.278-.086-.492-.075-.75.076-1.745 1.058-3.502 2.094-5.247 3.13-.108.065-.193.151-.386.119zm5.43-10.978c.846.01 1.35-.475 1.36-1.307.011-.82-.524-1.37-1.35-1.381-.802 0-1.349.518-1.37 1.317-.01.83.514 1.36 1.36 1.37zm5.505 0c.836 0 1.318-.486 1.329-1.328 0-.853-.504-1.35-1.35-1.35-.793 0-1.36.54-1.339 1.296.01.874.504 1.382 1.36 1.382zm6.79-1.339c0-.853-.47-1.339-1.306-1.339-.846 0-1.35.497-1.35 1.35 0 .853.483 1.328 1.318 1.328.878 0 1.339-.465 1.339-1.339z"/></svg>