<?xml version="1.0" encoding="utf-8"?><svg viewBox="0 0 19 18" xmlns="http://www.w3.org/2000/svg" width="19" height="18"><path fill-rule="evenodd" clip-rule="evenodd" d="M15.167 1.75c-.335 0-.655.132-.89.364L2.62 13.648l-.587 2.324 2.364-.585L16.056 3.851a1.23 1.23 0 00.364-.869 1.213 1.213 0 00-.364-.868 1.254 1.254 0 00-.89-.364zm-1.944-.702a2.764 2.764 0 014.486.886 2.715 2.715 0 01-.598 2.983L5.305 16.6a.75.75 0 01-.347.195l-3.778.934a.75.75 0 01-.907-.912l.944-3.738a.75.75 0 01.2-.35l11.806-11.68zM8.75 17a.75.75 0 01.75-.75H18a.75.75 0 010 1.5H9.5a.75.75 0 01-.75-.75z"/></svg>