<?xml version="1.0" encoding="utf-8"?><svg viewBox="0 0 16 19" xmlns="http://www.w3.org/2000/svg" width="16" height="19"><path fill-rule="evenodd" clip-rule="evenodd" d="M1.494.726C2.137.476 3.106.25 4.5.25c1.454 0 2.66.469 3.73.885l.042.016c1.106.43 2.075.799 3.228.799 1.23 0 2.012-.199 2.463-.374.226-.088.371-.17.452-.223a.961.961 0 00.074-.052l.003-.003a.75.75 0 011.258.552v10.2a.75.75 0 01-.227.538L15 12.05c.523.538.522.538.522.539h-.001l-.002.002-.003.004-.009.008a1.718 1.718 0 01-.081.07 2.422 2.422 0 01-.196.14 3.994 3.994 0 01-.724.361c-.643.25-1.611.476-3.006.476-1.454 0-2.66-.469-3.73-.885l-.042-.016c-1.106-.43-2.075-.799-3.228-.799-1.23 0-2.012.199-2.463.374-.116.045-.211.09-.287.128V18a.75.75 0 01-1.5 0V1.85a.75.75 0 01.227-.538L1 1.85a49.376 49.376 0 01-.522-.539H.48l.002-.002.003-.004.009-.008a1.2 1.2 0 01.081-.07 2.42 2.42 0 01.196-.14c.166-.107.403-.236.724-.361zm.256 1.526v8.582c.635-.21 1.53-.384 2.75-.384 1.454 0 2.66.469 3.73.885l.042.016c1.106.43 2.075.799 3.228.799 1.23 0 2.012-.199 2.463-.374.116-.045.211-.09.287-.128V3.066c-.635.21-1.53.384-2.75.384-1.454 0-2.66-.469-3.73-.885l-.042-.016C6.622 2.12 5.653 1.75 4.5 1.75c-1.23 0-2.012.199-2.463.374-.116.045-.211.09-.287.128z"/></svg>