<?xml version="1.0" encoding="utf-8"?><svg viewBox="0 0 20 22" xmlns="http://www.w3.org/2000/svg" width="20" height="22"><path d="M9.989 22H2.346C1.003 22 .006 20.998 0 19.642v-7.183c0-1.39.992-2.398 2.368-2.409 1.44-.006 2.873-.006 4.312.006.283 0 .498-.075.691-.286.334-.367.697-.71 1.048-1.065a1.481 1.481 0 011.122-.47c1.077.012 2.153.006 3.23 0a1.4 1.4 0 011.03.43c.386.39.777.773 1.156 1.168a.655.655 0 00.527.217c.72-.006 1.445-.011 2.165 0 1.121.011 2.011.71 2.277 1.768.051.2.074.407.074.619v7.205C20 20.998 19.003 22 17.66 22H9.99zm5.87-6.187c.045-2.392-1.842-4.779-4.709-4.79-2.793-.011-4.73 2.26-4.748 4.733-.022 2.564 1.983 4.836 4.748 4.825 2.856-.012 4.742-2.381 4.708-4.768zM3.421 14.634a1.13 1.13 0 001.122-1.11c0-.612-.499-1.116-1.11-1.133-.601-.017-1.111.503-1.111 1.116a1.106 1.106 0 001.1 1.127zM15.915 3.33c-.028.459.057 1.031-.04 1.603a1.8 1.8 0 01-1.552 1.488c-.181.023-.283.086-.317.275-.04.189-.097.372-.159.555-.068.218-.176.28-.385.218a3.115 3.115 0 00-.861-.103c-1.015.005-2.023.005-3.037 0-.255 0-.51.028-.754.097-.226.063-.334.006-.402-.217-.057-.184-.119-.367-.159-.556-.034-.171-.124-.246-.3-.269a1.796 1.796 0 01-1.552-1.413 2.037 2.037 0 01-.057-.487c-.006-.87-.006-1.745 0-2.615.006-.962.606-1.7 1.513-1.883C7.96 0 8.079 0 8.193 0h5.88c1.026 0 1.825.807 1.842 1.849.006.452 0 .91 0 1.482zm-4.799 1.226h2.42c.356 0 .52-.16.52-.521.006-.55.006-1.099 0-1.654-.005-.344-.175-.51-.515-.51H8.72c-.357 0-.505.15-.505.504-.005.55 0 1.099 0 1.654 0 .4.13.527.522.527h2.38zM3.643 9.197h-1.19c-.51-.006-.72-.269-.612-.778.13-.607.6-1.036 1.253-1.105.407-.04.821-.046 1.229.017a1.393 1.393 0 011.161 1.317c.017.314-.204.538-.55.543-.424.012-.855.006-1.29.006z"/><path d="M14.09 15.802c0 1.665-1.33 3.01-2.968 3.004-1.626-.005-2.969-1.367-2.963-3.021.005-1.637 1.348-2.994 2.968-2.994 1.638.006 2.964 1.351 2.964 3.01z"/></svg>