<?xml version="1.0" encoding="utf-8"?><svg viewBox="0 0 22 15" xmlns="http://www.w3.org/2000/svg" width="22" height="15"><path d="M2.208 15c-.524-.007-.97-.24-1.396-.529a4.595 4.595 0 01-.652-.553c-.213-.227-.22-.227.018-.415a9.351 9.351 0 002.145-2.548c.494-.849.847-1.755.975-2.748.013-.107.007-.19-.06-.283-.421-.61-.269-1.258.371-1.592a.389.389 0 00.183-.201c.152-.315.299-.635.506-.925.097-.138.08-.182-.08-.232-.926-.283-1.846-.585-2.772-.875-.043-.012-.085-.025-.128-.044-.213-.075-.33-.22-.323-.453.006-.226.128-.358.329-.427.762-.246 1.53-.485 2.291-.724C6.157 1.646 8.698.848 11.233.042a.793.793 0 01.512 0c3.278 1.045 6.55 2.076 9.83 3.108.085.025.176.05.25.113a.482.482 0 01.17.44c-.03.201-.17.302-.347.365-1.079.34-2.151.685-3.23 1.025-2.212.698-4.425 1.396-6.637 2.1a.839.839 0 01-.554 0c-1.408-.452-2.822-.892-4.236-1.339-.073-.025-.195-.012-.207-.113-.006-.094.11-.113.183-.151 1.158-.629 2.401-.994 3.669-1.277.335-.075.67-.126 1.011-.195.311-.063.488-.283.451-.547-.042-.283-.25-.46-.56-.421-1.043.125-2.048.383-3.047.71-.927.309-1.816.686-2.609 1.277a3.317 3.317 0 00-1.005 1.126c-.092.176-.122.327-.006.522a.969.969 0 01-.159 1.189c-.152.15-.17.302-.164.503.091 1.49.067 2.969-.342 4.415-.152.541-.371 1.05-.725 1.485-.335.402-.75.635-1.273.622z"/><path d="M11.105 12.786c-1.316-.032-2.84-.51-4.168-1.58a4.697 4.697 0 01-.652-.66c-.494-.59-.634-1.264-.433-2.025.14-.54.298-1.07.47-1.604.054-.176.133-.207.304-.157 1.408.453 2.827.887 4.235 1.346.433.138.841.138 1.274 0 1.39-.453 2.779-.88 4.168-1.327.213-.07.311-.038.384.195.207.68.439 1.352.53 2.07.055.408-.06.76-.268 1.093-.426.686-1.03 1.177-1.7 1.58-1.176.71-2.432 1.075-4.144 1.069z"/></svg>