<?xml version="1.0" encoding="utf-8"?><svg width="100" height="109" fill="none" xmlns="http://www.w3.org/2000/svg" viewBox="0 0 100 109"><path fill-rule="evenodd" clip-rule="evenodd" d="M25.122 20.317L6.59 17.683l59.645-15.49 9.521 7.162 16.881-.275-58.639 16.469-8.875-5.232z" fill="#F9F4F0"/><path fill-rule="evenodd" clip-rule="evenodd" d="M38.238 106.302L21.124 91.939l4-71.622L34 25.55l4.238 80.753z" fill="#ECDDD0"/><path fill-rule="evenodd" clip-rule="evenodd" d="M65.857.742a1.5 1.5 0 011.288.26l7.979 6.103 18.186.492a1.5 1.5 0 011.457 1.415l4.73 83.589a1.5 1.5 0 01-1.148 1.544L39.21 108.286a1.501 1.501 0 01-.706-.001L1.333 99.193a1.5 1.5 0 01-1.14-1.549l4.9-80.053a1.5 1.5 0 011.12-1.36L65.857.741zM8.02 18.862L3.263 96.576l35.603 8.707L96.43 91.519l-4.582-80.96-17.291-.468a1.5 1.5 0 01-.871-.308L65.903 3.83 8.02 18.861z" fill="#556269"/><path fill-rule="evenodd" clip-rule="evenodd" d="M74.03 21.253a1.5 1.5 0 011.656 1.327c1.197 10.867-3.367 18.48-9.68 20.2-3.156.859-6.531.14-9.396-2.21-2.841-2.331-5.126-6.209-6.379-11.634a1.5 1.5 0 012.923-.675c1.15 4.98 3.17 8.193 5.359 9.99 2.165 1.776 4.548 2.22 6.705 1.634 4.314-1.175 8.596-6.895 7.486-16.977a1.5 1.5 0 011.326-1.655z" fill="#556269"/><path fill-rule="evenodd" clip-rule="evenodd" d="M43.283 22.94l29.44-8.271 1.421-4.401c-.128-2.676-3.128-5.105-9-7.287-4.76-1.924-9.418-2.437-14.02-1.856-2.33.294-2.603 1.2-2.927 2.478L43.283 22.94z" fill="#ECDDD0"/></svg>