<?xml version="1.0" encoding="utf-8"?><svg viewBox="0 0 102 109" xmlns="http://www.w3.org/2000/svg" xmlns:xlink="http://www.w3.org/1999/xlink"><style>:root>svg{display:none}:root>svg:target{display:block}</style><svg fill="none" viewBox="0 0 100 109" id="icon-add-goods" xmlns="http://www.w3.org/2000/svg"><path fill-rule="evenodd" clip-rule="evenodd" d="M25.122 20.317L6.59 17.683l59.645-15.49 9.521 7.162 16.881-.275-58.639 16.469-8.875-5.232z" fill="#F9F4F0"/><path fill-rule="evenodd" clip-rule="evenodd" d="M38.238 106.302L21.124 91.939l4-71.622L34 25.55l4.238 80.753z" fill="#ECDDD0"/><path fill-rule="evenodd" clip-rule="evenodd" d="M65.857.742a1.5 1.5 0 011.288.26l7.979 6.103 18.186.492a1.5 1.5 0 011.457 1.415l4.73 83.589a1.5 1.5 0 01-1.148 1.544L39.21 108.286a1.501 1.501 0 01-.706-.001L1.333 99.193a1.5 1.5 0 01-1.14-1.549l4.9-80.053a1.5 1.5 0 011.12-1.36L65.857.741zM8.02 18.862L3.263 96.576l35.603 8.707L96.43 91.519l-4.582-80.96-17.291-.468a1.5 1.5 0 01-.871-.308L65.903 3.83 8.02 18.861z" fill="#556269"/><path fill-rule="evenodd" clip-rule="evenodd" d="M74.03 21.253a1.5 1.5 0 011.656 1.327c1.197 10.867-3.367 18.48-9.68 20.2-3.156.859-6.531.14-9.396-2.21-2.841-2.331-5.126-6.209-6.379-11.634a1.5 1.5 0 012.923-.675c1.15 4.98 3.17 8.193 5.359 9.99 2.165 1.776 4.548 2.22 6.705 1.634 4.314-1.175 8.596-6.895 7.486-16.977a1.5 1.5 0 011.326-1.655z" fill="#556269"/><path fill-rule="evenodd" clip-rule="evenodd" d="M43.283 22.94l29.44-8.271 1.421-4.401c-.128-2.676-3.128-5.105-9-7.287-4.76-1.924-9.418-2.437-14.02-1.856-2.33.294-2.603 1.2-2.927 2.478L43.283 22.94z" fill="#ECDDD0"/></svg><svg fill="none" viewBox="0 0 102 90" id="icon-add-service" xmlns="http://www.w3.org/2000/svg"><path fill-rule="evenodd" clip-rule="evenodd" d="M69.281 7l24.882.083c3.95.013 7.181 3.22 7.181 7.155V66.65c0 3.936-3.23 7.156-7.18 7.156H76.67v15.307L61.473 73.806H18.18c-3.95 0-7.181-3.22-7.181-7.155V14.238c0-3.936 3.231-7.149 7.18-7.155L69.282 7z" fill="#ECDDD0"/><path fill-rule="evenodd" clip-rule="evenodd" d="M54.517 1.997A1.5 1.5 0 0153.02 3.5l-43.837.083C6.054 3.589 3.5 6.138 3.5 9.238V21.55a1.5 1.5 0 11-3 0V9.238C.5 4.466 4.41.592 9.178.583L53.014.5a1.5 1.5 0 011.503 1.497zm4.265-.002A1.5 1.5 0 0160.287.5l24.882.083c4.764.015 8.675 3.882 8.675 8.655V61.65c0 4.77-3.907 8.656-8.68 8.656H69.17v13.807a1.5 1.5 0 01-2.564 1.057L51.849 70.307H9.18C4.408 70.307.5 66.42.5 61.65V39.057a1.5 1.5 0 013 0V61.65c0 3.102 2.555 5.656 5.68 5.656h43.293c.4 0 .783.16 1.065.443L66.17 80.474V68.807a1.5 1.5 0 011.5-1.5h17.494c3.126 0 5.68-2.553 5.68-5.656V9.238c0-3.098-2.55-5.645-5.685-5.655L60.277 3.5a1.5 1.5 0 01-1.495-1.505zM2 27.448a1.5 1.5 0 011.5 1.5v2.697a1.5 1.5 0 01-3 0v-2.697a1.5 1.5 0 011.5-1.5z" fill="#556269"/><path d="M27.341 39.355c3.367 0 6.096-2.72 6.096-6.073 0-3.355-2.73-6.074-6.095-6.074-3.367 0-6.096 2.72-6.096 6.074 0 3.354 2.73 6.073 6.096 6.073zM47.546 39.355c3.366 0 6.095-2.72 6.095-6.073 0-3.355-2.729-6.074-6.095-6.074-3.367 0-6.096 2.72-6.096 6.074 0 3.354 2.73 6.073 6.096 6.073zM67.754 39.355c3.366 0 6.095-2.72 6.095-6.073 0-3.355-2.729-6.074-6.095-6.074-3.367 0-6.096 2.72-6.096 6.074 0 3.354 2.73 6.073 6.096 6.073z" fill="#FEFEFE"/></svg><svg viewBox="0 0 22 19" id="icon-arrow-back" xmlns="http://www.w3.org/2000/svg"><path fill-rule="evenodd" clip-rule="evenodd" d="M9.858 18.536a.75.75 0 01-1.06-.01l-8.334-8.5a.75.75 0 010-1.051l8.334-8.5a.75.75 0 011.07 1.05L2.787 8.75H21a.75.75 0 010 1.5H2.786l7.083 7.225a.75.75 0 01-.01 1.06z"/></svg><svg fill="none" viewBox="0 0 14 12" id="icon-arrow-double-left" xmlns="http://www.w3.org/2000/svg"><path fill-rule="evenodd" clip-rule="evenodd" d="M6.707.293a1 1 0 010 1.414L2.414 6l4.293 4.293a1 1 0 11-1.414 1.414l-5-5a1 1 0 010-1.414l5-5a1 1 0 011.414 0zm7 0a1 1 0 010 1.414L9.414 6l4.293 4.293a1 1 0 01-1.414 1.414l-5-5a1 1 0 010-1.414l5-5a1 1 0 011.414 0z" fill="#6B6B6B"/></svg><svg fill="none" viewBox="0 0 14 12" id="icon-arrow-double-right" xmlns="http://www.w3.org/2000/svg"><path fill-rule="evenodd" clip-rule="evenodd" d="M7.293.293a1 1 0 000 1.414L11.586 6l-4.293 4.293a1 1 0 101.414 1.414l5-5a1 1 0 000-1.414l-5-5a1 1 0 00-1.414 0z" fill="#6B6B6B"/><path fill-rule="evenodd" clip-rule="evenodd" d="M.293.293a1 1 0 000 1.414L4.586 6 .293 10.293a1 1 0 101.414 1.414l5-5a1 1 0 000-1.414l-5-5a1 1 0 00-1.414 0z" fill="#6B6B6B"/></svg><svg fill="none" viewBox="0 0 16 9" id="icon-arrow-drop" xmlns="http://www.w3.org/2000/svg"><path fill-rule="evenodd" clip-rule="evenodd" d="M.293.293a1 1 0 011.414 0L8 6.586 14.293.293a1 1 0 111.414 1.414l-7 7a1 1 0 01-1.414 0l-7-7a1 1 0 010-1.414z" fill="#556269"/></svg><svg fill="none" viewBox="0 0 7 12" id="icon-arrow-left" xmlns="http://www.w3.org/2000/svg"><path fill-rule="evenodd" clip-rule="evenodd" d="M6.707.293a1 1 0 010 1.414L2.414 6l4.293 4.293a1 1 0 11-1.414 1.414l-5-5a1 1 0 010-1.414l5-5a1 1 0 011.414 0z" fill="#6B6B6B"/></svg><svg viewBox="0 0 19 34" id="icon-arrow-left-slider" xmlns="http://www.w3.org/2000/svg"><path fill-rule="evenodd" clip-rule="evenodd" d="M18.414.586a2 2 0 010 2.828L4.828 17l13.586 13.586a2 2 0 11-2.828 2.828l-15-15a2 2 0 010-2.828l15-15a2 2 0 012.828 0z"/></svg><svg viewBox="0 0 33 18" id="icon-arrow-next" xmlns="http://www.w3.org/2000/svg"><path fill-rule="evenodd" clip-rule="evenodd" d="M0 8.718a1 1 0 011-1h31a1 1 0 110 2H1a1 1 0 01-1-1z"/><path fill-rule="evenodd" clip-rule="evenodd" d="M24.328.26a1 1 0 011.413.068l7 7.718a1 1 0 010 1.343l-7 7.718a1 1 0 11-1.482-1.344l6.39-7.045-6.39-7.046a1 1 0 01.07-1.413z"/></svg><svg viewBox="0 0 33 18" id="icon-arrow-prev" xmlns="http://www.w3.org/2000/svg"><path fill-rule="evenodd" clip-rule="evenodd" d="M33 8.718a1 1 0 00-1-1H1a1 1 0 000 2h31a1 1 0 001-1z"/><path fill-rule="evenodd" clip-rule="evenodd" d="M8.672.26a1 1 0 00-1.413.068l-7 7.718a1 1 0 000 1.343l7 7.718a1 1 0 101.482-1.344L2.35 8.718l6.39-7.046A1 1 0 008.67.259z"/></svg><svg fill="none" viewBox="0 0 7 12" id="icon-arrow-right" xmlns="http://www.w3.org/2000/svg"><path fill-rule="evenodd" clip-rule="evenodd" d="M.293.293a1 1 0 000 1.414L4.586 6 .293 10.293a1 1 0 101.414 1.414l5-5a1 1 0 000-1.414l-5-5a1 1 0 00-1.414 0z" fill="#6B6B6B"/></svg><svg viewBox="0 0 19 34" id="icon-arrow-right-slider" xmlns="http://www.w3.org/2000/svg"><path fill-rule="evenodd" clip-rule="evenodd" d="M.586.586a2 2 0 000 2.828L14.172 17 .586 30.586a2 2 0 102.828 2.828l15-15a2 2 0 000-2.828l-15-15a2 2 0 00-2.828 0z"/></svg><svg viewBox="0 0 26 25" id="icon-auth" xmlns="http://www.w3.org/2000/svg"><path fill-rule="evenodd" clip-rule="evenodd" d="M24.502.291a1 1 0 01.002 1.415L22.8 3.418l2.91 2.921a1 1 0 010 1.411l-4.215 4.232a1 1 0 01-1.417 0l-2.904-2.916-3.579 3.594a7.659 7.659 0 011.602 4.665 7.672 7.672 0 01-2.232 5.433A7.621 7.621 0 017.548 25a7.6 7.6 0 01-5.402-2.278l-.008-.008A7.663 7.663 0 010 17.335a7.662 7.662 0 012.231-5.34 7.605 7.605 0 019.935-.735L23.087.294a1 1 0 011.415-.003zM11.559 13.366a5.609 5.609 0 00-3.985-1.614 5.61 5.61 0 00-3.926 1.654A5.663 5.663 0 002 17.353a5.664 5.664 0 001.576 3.97A5.621 5.621 0 007.554 23a5.598 5.598 0 003.993-1.653 5.652 5.652 0 001.649-4.015 5.673 5.673 0 00-1.637-3.966zm7.026-5.717l2.2 2.21 2.804-2.814-2.201-2.21-2.803 2.814z"/></svg><svg viewBox="0 0 20 20" id="icon-button-search" xmlns="http://www.w3.org/2000/svg"><path d="M19.629 19.628a1.212 1.212 0 01-.889.372c-.345 0-.641-.124-.888-.372l-3.868-3.87c-1.562 1.16-3.307 1.74-5.234 1.74a8.546 8.546 0 01-3.398-.695 8.79 8.79 0 01-2.793-1.867A8.829 8.829 0 01.693 12.15 8.523 8.523 0 010 8.75c0-1.193.231-2.33.693-3.412A8.683 8.683 0 012.56 2.551 8.874 8.874 0 015.352.694 8.546 8.546 0 018.75 0c1.185 0 2.318.231 3.398.694a8.873 8.873 0 012.793 1.857 8.682 8.682 0 011.866 2.786A8.568 8.568 0 0117.5 8.74c0 1.942-.58 3.688-1.738 5.24l3.867 3.87c.247.248.371.545.371.89s-.124.642-.371.89zM8.75 2.502a6.148 6.148 0 00-3.135.831A6.157 6.157 0 003.34 5.611c-.56.964-.84 2.01-.84 3.138 0 1.127.28 2.173.84 3.138a6.156 6.156 0 002.275 2.277c.957.554 2.002.831 3.135.831a6.149 6.149 0 003.135-.83 6.156 6.156 0 002.275-2.278c.56-.965.84-2.01.84-3.138 0-1.128-.28-2.174-.84-3.138a6.157 6.157 0 00-2.275-2.278 6.148 6.148 0 00-3.135-.83z"/></svg><svg viewBox="0 0 23 24" id="icon-buy" xmlns="http://www.w3.org/2000/svg"><path d="M.5 14.478V5.434c0-.519 0-.519.529-.519 1.412 0 2.825-.008 4.246.009.24 0 .339-.065.397-.3C6.258 2.308 7.737.826 10.075.187c2.553-.689 5.452.583 6.683 2.882.265.494.48 1.012.595 1.555.05.227.157.291.38.291 1.446-.008 2.892 0 4.337 0 .43 0 .43.009.43.422v7.83c0 .485-.24.834-.653.963-.388.13-.81.016-1.074-.283-.181-.21-.23-.462-.23-.737V7.247c0-.429 0-.429-.447-.429H17.93c-.446 0-.446 0-.446.454v3.49c0 .437-.247.777-.644.906a.969.969 0 01-1.082-.307c-.174-.219-.223-.47-.223-.745 0-1.142-.009-2.284.008-3.433 0-.292-.083-.38-.38-.38-2.445.007-4.89.007-7.344 0-.281 0-.372.08-.372.363.016 1.166.008 2.324.008 3.49 0 .64-.388 1.07-.958 1.07-.57-.009-.975-.438-.983-1.07-.009-1.141 0-2.283 0-3.433 0-.405 0-.413-.405-.413H2.912c-.43 0-.43 0-.43.421v14.356c0 .494 0 .494.488.494h8.303c.173 0 .347 0 .52.057.48.146.752.559.686 1.053-.058.437-.438.777-.909.801-.074.008-.14 0-.215 0H.98c-.462 0-.462 0-.462-.453C.5 20.527.5 17.507.5 14.479zm10.996-9.57h3.527c.414 0 .422-.009.29-.381-.579-1.563-2.14-2.64-3.834-2.624-1.71.025-3.23 1.11-3.792 2.697-.099.283-.008.324.248.315 1.19-.008 2.371-.008 3.56-.008z"/><path d="M18.733 16.89c0 .381.016.77-.009 1.15-.016.276.075.38.364.373a71.84 71.84 0 012.288 0c.463.008.86.154 1.041.607.232.583-.107 1.182-.743 1.28-.587.088-1.173.024-1.76.04-.256.008-.512 0-.777 0-.42 0-.42 0-.42.43v2.185c0 .632-.364 1.037-.95 1.045-.554.008-.984-.413-1-1.02-.017-.697-.009-1.393-.009-2.098 0-.55 0-.55-.553-.55-.694 0-1.38.008-2.074-.008-.669-.016-1.082-.365-1.107-.907-.025-.526.298-.923.835-.996.62-.081 1.239-.016 1.858-.032.223-.009.455-.009.678 0 .264.016.363-.081.363-.349a67.355 67.355 0 010-2.243c.009-.655.422-1.085 1.008-1.068.52.008.925.388.934.898.041.43.033.85.033 1.264z"/></svg><svg viewBox="0 0 18 20" id="icon-call" xmlns="http://www.w3.org/2000/svg"><path d="M17.998 15.193v1.288c0 1.61-1.276 2.816-2.779 2.636a16.044 16.044 0 01-3.457-.808 16.754 16.754 0 01-3.659-1.817 17.078 17.078 0 01-3.195-2.685C3.122 11.881 1.8 9.643.925 7.111A18.777 18.777 0 01.02 3.018C-.145 1.523.74.284 2.14.028a1.13 1.13 0 01.19-.022c.926 0 1.852-.016 2.778.005C6.184.033 7.172.94 7.372 2.112c.155.879.355 1.741.608 2.598.283.971.066 1.86-.618 2.598-.144.152-.288.31-.437.463-.103.099-.113.186-.036.317.782 1.244 1.723 2.325 2.85 3.22.206.164.422.31.628.475.129.103.216.092.33-.033.216-.235.416-.48.668-.677.71-.551 1.482-.71 2.316-.398.736.273 1.487.47 2.259.595 1.183.196 2.053 1.282 2.058 2.559.005.447 0 .906 0 1.364zm-1.662 0v-1.206c0-.633-.211-.911-.808-1.01a12.214 12.214 0 01-2.351-.632c-.35-.137-.654-.06-.916.223-.299.322-.597.639-.9.955-.407.431-.747.47-1.246.159a14.082 14.082 0 01-3.108-2.63 14.99 14.99 0 01-1.97-2.817c-.201-.376-.165-.758.118-1.07.319-.349.633-.698.962-1.03.314-.317.37-.683.226-1.103a12.82 12.82 0 01-.576-2.412c-.087-.59-.355-.851-.916-.857-.772-.005-1.543-.005-2.315 0-.571.011-.916.426-.854 1.032.077.73.19 1.457.365 2.171a17.25 17.25 0 002.079 5.01c.895 1.457 1.97 2.74 3.252 3.82 1.852 1.567 3.92 2.663 6.236 3.236.628.153 1.255.3 1.898.322.484.017.814-.338.819-.851.005-.436.005-.873.005-1.31z"/></svg><svg viewBox="0 0 40 40" fill="none" id="icon-call-circle" xmlns="http://www.w3.org/2000/svg"><path d="M40 20c0 11.046-8.954 20-20 20S0 31.046 0 20 8.954 0 20 0s20 8.954 20 20z" fill="#556269"/><path d="M28.998 25.193v1.288c0 1.61-1.276 2.816-2.779 2.636a16.044 16.044 0 01-3.457-.808 16.755 16.755 0 01-3.659-1.817 17.075 17.075 0 01-3.195-2.685c-1.786-1.926-3.108-4.164-3.983-6.696a18.782 18.782 0 01-.905-4.093c-.165-1.495.72-2.734 2.12-2.99.061-.011.128-.022.19-.022.926 0 1.852-.016 2.778.005 1.076.022 2.064.928 2.264 2.101.155.879.355 1.741.608 2.598.283.971.067 1.86-.618 2.598-.144.152-.288.31-.437.463-.103.099-.113.186-.036.317.782 1.244 1.724 2.325 2.85 3.22.206.163.422.31.628.475.129.103.216.092.33-.033.216-.235.416-.48.668-.677.71-.551 1.482-.71 2.316-.398.735.273 1.487.47 2.258.595 1.184.196 2.054 1.282 2.059 2.559.005.447 0 .906 0 1.364zm-1.662 0v-1.206c0-.633-.211-.911-.808-1.01a12.214 12.214 0 01-2.351-.632c-.35-.137-.654-.06-.916.223-.299.322-.597.639-.9.955-.407.431-.747.47-1.246.159a14.083 14.083 0 01-3.108-2.63 14.993 14.993 0 01-1.97-2.817c-.201-.376-.165-.758.118-1.07.319-.348.633-.698.962-1.03.314-.317.37-.683.226-1.103a12.811 12.811 0 01-.576-2.412c-.087-.59-.355-.851-.916-.857-.772-.005-1.543-.005-2.315 0-.571.011-.916.426-.854 1.031.077.732.19 1.458.365 2.172a17.248 17.248 0 002.079 5.01c.895 1.457 1.97 2.74 3.252 3.82 1.852 1.567 3.92 2.663 6.236 3.236.628.153 1.255.3 1.898.322.484.017.814-.338.819-.851.005-.436.005-.873.005-1.31z" fill="#fff"/></svg><svg viewBox="0 0 10 7" id="icon-check" xmlns="http://www.w3.org/2000/svg"><path fill-rule="evenodd" clip-rule="evenodd" d="M9.354.647a.5.5 0 010 .707l-5.5 5.5a.5.5 0 01-.708 0l-2.5-2.5a.5.5 0 01.708-.707L3.5 5.793 8.646.647a.5.5 0 01.708 0z"/></svg><svg viewBox="0 0 12 12" id="icon-close" xmlns="http://www.w3.org/2000/svg"><path fill-rule="evenodd" clip-rule="evenodd" d="M.92.9a.662.662 0 01.936 0l4.376 4.377L10.608.9a.662.662 0 11.936.936L7.168 6.213l4.376 4.376a.662.662 0 11-.936.937L6.232 7.15l-4.376 4.376a.662.662 0 11-.937-.937l4.376-4.376L.919 1.837a.662.662 0 010-.936z"/></svg><svg viewBox="0 0 19 19" id="icon-complete" xmlns="http://www.w3.org/2000/svg"><path fill-rule="evenodd" clip-rule="evenodd" d="M12.654 2.42a7.75 7.75 0 104.596 7.084v-.781a.75.75 0 011.5 0v.782a9.25 9.25 0 11-5.485-8.454.75.75 0 01-.61 1.37zm5.876-.246a.75.75 0 010 1.06l-8.5 8.51a.75.75 0 01-1.06 0l-2.55-2.55a.75.75 0 011.06-1.061l2.02 2.02 7.97-7.978a.75.75 0 011.06 0z"/></svg><svg viewBox="0 0 19 18" id="icon-edit" xmlns="http://www.w3.org/2000/svg"><path fill-rule="evenodd" clip-rule="evenodd" d="M15.167 1.75c-.335 0-.655.132-.89.364L2.62 13.648l-.587 2.324 2.364-.585L16.056 3.851a1.23 1.23 0 00.364-.869 1.213 1.213 0 00-.364-.868 1.254 1.254 0 00-.89-.364zm-1.944-.702a2.764 2.764 0 014.486.886 2.715 2.715 0 01-.598 2.983L5.305 16.6a.75.75 0 01-.347.195l-3.778.934a.75.75 0 01-.907-.912l.944-3.738a.75.75 0 01.2-.35l11.806-11.68zM8.75 17a.75.75 0 01.75-.75H18a.75.75 0 010 1.5H9.5a.75.75 0 01-.75-.75z"/></svg><svg fill="none" viewBox="0 0 25 19" id="icon-eye" xmlns="http://www.w3.org/2000/svg"><path d="M0 9.5S4.545 0 12.5 0C20.454 0 25 9.5 25 9.5S20.454 19 12.5 19C4.545 19 0 9.5 0 9.5z" fill="#D6D6D6"/><path d="M12.5 13a3.5 3.5 0 100-7 3.5 3.5 0 000 7z" fill="#D6D6D6"/><path fill-rule="evenodd" clip-rule="evenodd" d="M12.5 7a2.5 2.5 0 100 5 2.5 2.5 0 000-5zM8 9.5a4.5 4.5 0 119 0 4.5 4.5 0 01-9 0z" fill="#FAFAFA"/></svg><svg fill="none" viewBox="0 0 50 50" id="icon-facebook" xmlns="http://www.w3.org/2000/svg"><circle cx="25" cy="25" r="25" fill="#ccc"/><path d="M22.38 31.055c0-1.412-.025-2.824.01-4.234.017-.698-.155-1.02-.937-1.005-1.448.028-1.45-.015-1.453-1.522v-.659c.003-1.598.003-1.628 1.545-1.66.673-.015.855-.297.845-.917-.012-.875-.058-1.749.142-2.62.413-1.82 1.505-2.913 3.323-3.247 1.36-.249 2.735-.183 4.107-.183.607 0 .822.296.802.88-.025.72-.035 1.444.003 2.162.032.643-.225.927-.86.917-.53-.007-1.06.013-1.59.033-.64.023-.975.354-.972 1.008 0 .092-.005.188-.01.28-.053 1.674-.053 1.674 1.58 1.674 1.97 0 1.97 0 1.69 1.98-.266 1.877-.266 1.917-2.155 1.872-.85-.02-1.15.233-1.138 1.11.045 2.822-.007 5.645.03 8.467.01.857-.282 1.19-1.14 1.143-.995-.053-1.997-.023-2.995-.015-.59.005-.837-.259-.83-.86.02-1.534.008-3.072.008-4.61-.003.006-.005.006-.005.006z" fill="#fff"/></svg><svg viewBox="0 0 16 19" id="icon-flag" xmlns="http://www.w3.org/2000/svg"><path fill-rule="evenodd" clip-rule="evenodd" d="M1.494.726C2.137.476 3.106.25 4.5.25c1.454 0 2.66.469 3.73.885l.042.016c1.106.43 2.075.799 3.228.799 1.23 0 2.012-.199 2.463-.374.226-.088.371-.17.452-.223a.961.961 0 00.074-.052l.003-.003a.75.75 0 011.258.552v10.2a.75.75 0 01-.227.538L15 12.05c.523.538.522.538.522.539h-.001l-.002.002-.003.004-.009.008a1.718 1.718 0 01-.081.07 2.422 2.422 0 01-.196.14 3.994 3.994 0 01-.724.361c-.643.25-1.611.476-3.006.476-1.454 0-2.66-.469-3.73-.885l-.042-.016c-1.106-.43-2.075-.799-3.228-.799-1.23 0-2.012.199-2.463.374-.116.045-.211.09-.287.128V18a.75.75 0 01-1.5 0V1.85a.75.75 0 01.227-.538L1 1.85a49.376 49.376 0 01-.522-.539H.48l.002-.002.003-.004.009-.008a1.2 1.2 0 01.081-.07 2.42 2.42 0 01.196-.14c.166-.107.403-.236.724-.361zm.256 1.526v8.582c.635-.21 1.53-.384 2.75-.384 1.454 0 2.66.469 3.73.885l.042.016c1.106.43 2.075.799 3.228.799 1.23 0 2.012-.199 2.463-.374.116-.045.211-.09.287-.128V3.066c-.635.21-1.53.384-2.75.384-1.454 0-2.66-.469-3.73-.885l-.042-.016C6.622 2.12 5.653 1.75 4.5 1.75c-1.23 0-2.012.199-2.463.374-.116.045-.211.09-.287.128z"/></svg><svg viewBox="0 0 32 32" id="icon-glass" xmlns="http://www.w3.org/2000/svg"><path d="M31.406 31.406c-.396.396-.87.594-1.422.594a1.939 1.939 0 01-1.422-.594l-6.187-6.194c-2.5 1.856-5.292 2.784-8.375 2.784-1.896 0-3.708-.37-5.438-1.11-1.729-.74-3.218-1.736-4.468-2.988-1.25-1.25-2.245-2.737-2.985-4.457A13.637 13.637 0 010 13.998C0 12.09.37 10.27 1.11 8.54c.739-1.731 1.734-3.217 2.984-4.458 1.25-1.24 2.74-2.231 4.468-2.972C10.293.37 12.104 0 14 0s3.708.37 5.438 1.11c1.729.74 3.218 1.731 4.468 2.972 1.25 1.24 2.245 2.727 2.985 4.458A13.71 13.71 0 0128 13.982c0 3.108-.927 5.902-2.781 8.384l6.187 6.193c.396.396.594.87.594 1.423s-.198 1.027-.594 1.424zM14 4.004c-1.813 0-3.484.443-5.016 1.33a9.85 9.85 0 00-3.64 3.644A9.828 9.828 0 004 13.998c0 1.804.448 3.477 1.344 5.02a9.851 9.851 0 003.64 3.645c1.532.886 3.204 1.33 5.016 1.33 1.813 0 3.484-.444 5.016-1.33a9.85 9.85 0 003.64-3.644A9.827 9.827 0 0024 13.998a9.827 9.827 0 00-1.344-5.02 9.85 9.85 0 00-3.64-3.645c-1.532-.886-3.203-1.33-5.016-1.33z"/></svg><svg fill="none" viewBox="0 0 50 50" id="icon-inst" xmlns="http://www.w3.org/2000/svg"><circle cx="25" cy="25" r="25" fill="#CCC"/><path d="M24.167 36.67c-1.91-.052-3.831.026-5.74-.104-3.78-.234-6.455-2.922-6.65-6.714-.181-3.52-.09-7.04-.065-10.559.013-1.026.156-2.039.494-3.013.909-2.545 2.766-3.96 5.39-4.415a13.335 13.335 0 012.376-.195c2.974 0 5.935-.013 8.91.013 1.064.013 2.142.13 3.155.494 2.559.896 3.974 2.753 4.442 5.376.142.78.194 1.572.194 2.377 0 2.974.013 5.935-.013 8.909-.012 1.09-.13 2.169-.493 3.208-.91 2.545-2.766 3.974-5.39 4.415-2.195.35-4.415.143-6.61.208zM13.985 23.605c0 1.403.013 2.338 0 3.273-.013.96.04 1.909.104 2.87.13 2.195 1.312 3.714 3.35 4.26a7.34 7.34 0 001.676.233c3.39.078 6.78.091 10.169 0 1.48-.038 2.87-.39 3.883-1.597.857-1.013 1.078-2.247 1.117-3.506.09-3.351.104-6.715 0-10.065-.04-1.416-.35-2.767-1.48-3.793-.975-.883-2.17-1.181-3.416-1.194-3.585-.065-7.17-.247-10.754-.013-1.272.077-2.454.441-3.363 1.428-.818.883-1.091 1.961-1.195 3.117-.156 1.805-.052 3.623-.09 4.987z" fill="#fff"/><path d="M30.647 24.164a6.463 6.463 0 01-6.48 6.467c-3.546 0-6.442-2.896-6.442-6.454a6.463 6.463 0 016.48-6.468c3.56 0 6.442 2.896 6.442 6.455zm-6.428-4.078c-2.286-.013-4.091 1.753-4.104 4.026-.013 2.299 1.74 4.104 4.013 4.13 2.325.013 4.13-1.754 4.143-4.052 0-2.299-1.767-4.091-4.052-4.104zM30.83 19.034c-.884 0-1.52-.65-1.52-1.546 0-.87.675-1.545 1.545-1.532.831 0 1.546.727 1.546 1.558-.013.87-.689 1.52-1.572 1.52z" fill="#fff"/></svg><svg viewBox="0 0 13 22" id="icon-link-aside-1" xmlns="http://www.w3.org/2000/svg"><path d="M6.529 8.737a17.14 17.14 0 00-2.23.196c-.514.085-.805.49-.71.98.04.222.101.45.121.672.034.275-.087.392-.371.405-.264.007-.52 0-.784 0-.358 0-.446-.078-.514-.405-.216-1.09-.432-2.18-.649-3.265C.973 5.224.547 3.127.128 1.03.061.692.142.398.426.176.683-.02.966-.04 1.257.09a.776.776 0 01.466.549c.048.19.129.216.305.144C3.744.136 5.528-.08 7.353.025c1.27.072 2.508.333 3.69.79.156.06.257.079.311-.124.149-.516.568-.77 1.041-.653.453.111.683.516.581 1.045-.236 1.176-.48 2.351-.716 3.527-.399 1.959-.79 3.918-1.19 5.884-.094.457-.148.503-.635.503-.23 0-.46.006-.682-.007-.291-.013-.413-.156-.372-.43.034-.216.08-.432.121-.647.088-.484-.196-.875-.696-.967-.75-.137-1.507-.19-2.277-.209zm.121-7.144c-.703 0-1.236.039-1.777.097-.79.085-1.561.262-2.318.497-.318.098-.44.313-.379.62.054.294.108.595.176.888.074.334.27.47.622.425.115-.013.23-.046.344-.072a12.868 12.868 0 012.602-.366 13.831 13.831 0 014.11.451c.419.111.642-.026.736-.444.054-.235.095-.477.142-.718.095-.477.007-.627-.48-.778a13.203 13.203 0 00-3.778-.6zm-.243 3.67c-.284-.02-.683.013-1.075.052-.696.065-1.392.163-2.068.346-.31.085-.439.288-.392.588.027.176.061.353.095.529.095.529.297.666.838.555A13.7 13.7 0 016.11 7.06a14.403 14.403 0 013.345.3c.338.072.554-.072.642-.392.054-.189.088-.378.129-.574.087-.438-.048-.64-.494-.751a14.658 14.658 0 00-3.325-.38zM6.495 15.7H.845c-.629 0-.845-.21-.845-.804v-1.613c0-.49.243-.732.743-.732h11.503c.487 0 .737.235.744.706a73.97 73.97 0 010 1.737c-.007.47-.25.705-.744.705H6.495zM12.03 19.291v2.175c0 .365-.074.476-.331.496-.44.04-.561-.04-.622-.438-.182-1.24-.351-2.488-.527-3.729-.034-.26-.081-.516-.101-.777-.02-.307.074-.405.385-.405.264-.006.52-.006.784 0 .304.007.405.098.405.399.007.764.007 1.521.007 2.279zM1.602 16.613h.378c.338.007.446.105.413.438-.041.372-.102.744-.15 1.117a591.174 591.174 0 01-.493 3.409c-.054.359-.452.535-.777.346-.155-.091-.155-.235-.155-.385v-3.912c0-.21-.007-.425 0-.634.007-.268.108-.366.385-.372.135-.013.264-.007.399-.007z"/></svg><svg viewBox="0 0 19 22" id="icon-link-aside-10" xmlns="http://www.w3.org/2000/svg"><path d="M17.897 20.624h-.506c-.253 0-.264-.012-.182-.24a4.9 4.9 0 00.323-2.23c-.13-1.333-1-2.51-2.406-2.74-.9-.148-1.735.07-2.518.51-.835.474-1.47 1.149-2.082 1.864-1.13 1.332-2.4 2.51-3.97 3.356-1.042.56-2.136.898-3.348.852-1.383-.052-2.612-.852-3.024-2.03-.376-1.07-.147-2.07.43-3.02.258-.422.576-.794.935-1.137.123-.12.147-.194.006-.326-.336-.314-.33-.217-.053-.617 1.994-2.91 3.988-5.816 5.983-8.72a.818.818 0 00.158-.52c-.047-.95.189-1.842.63-2.682.13-.246.141-.246.347-.052l7.33 7.125c.212.206.212.217-.053.349-.906.451-1.87.674-2.894.611a.424.424 0 00-.271.075c-1.53.995-3.07 1.967-4.583 2.979a224.019 224.019 0 01-3.676 2.407c-.347.223-.712.423-1.06.652-.1.063-.17.051-.252-.029-.1-.103-.212-.2-.312-.303-.065-.068-.13-.085-.206-.011-.576.543-1.047 1.143-1.165 1.944-.153 1.035.536 1.652 1.336 1.818.83.172 1.617.012 2.388-.303 1.077-.44 1.983-1.115 2.818-1.881.588-.537 1.118-1.132 1.635-1.738.818-.967 1.765-1.79 2.977-2.259 1.753-.675 3.406-.526 4.86.72.864.738 1.3 1.716 1.458 2.814.124.858.006 1.692-.223 2.521-.053.183-.136.27-.336.246-.153-.017-.323-.005-.494-.005zm-9.848-9.12c.036-.023.07-.04.094-.063l.795-.772c.082-.075.03-.126-.03-.178-.24-.234-.488-.468-.73-.709-.093-.091-.164-.091-.252 0-.23.229-.465.452-.706.675-.1.091-.118.16-.012.263.241.229.477.463.718.692.035.028.076.057.123.091zM18.968 5.511c-.041 1.395-.512 2.63-1.47 3.677-.213.234-.219.234-.436.023-2.53-2.465-5.06-4.924-7.595-7.382-.218-.212-.218-.212.012-.412 2.206-1.933 5.641-1.904 7.8.183.989.96 1.548 2.121 1.654 3.482l.035.429z"/></svg><svg id="icon-new-icon" viewBox="157.109 11.752 452.433 575.925" xmlns="http://www.w3.org/2000/svg"><path d="M 517.4 184.109 L 462.369 225.045 C 511.346 252.505 544.925 304 544.925 363.692 C 544.925 451.858 472.376 523.634 383.304 523.634 C 294.231 523.634 221.749 451.858 221.749 363.692 C 221.749 304 255.284 252.505 304.282 225.045 L 249.275 184.109 C 193.648 224.979 157.109 289.884 157.109 363.692 C 157.109 487.404 258.399 587.677 383.304 587.677 C 508.253 587.677 609.542 487.404 609.542 363.692 C 609.542 289.884 573.004 224.979 517.4 184.109 Z M 512.561 107.739 L 447.943 11.752 L 318.665 11.752 L 254.046 107.739 L 383.304 203.749 L 512.561 107.739 Z" style="fill: rgb(254, 185, 4);"/></svg><svg viewBox="0 0 17 22" id="icon-link-aside-11" xmlns="http://www.w3.org/2000/svg"><path d="M3.206 18.342c-.035-.435-.07-.864-.097-1.293-.104-1.567.007-3.113.562-4.597.52-1.417 1.401-2.588 2.511-3.616.652-.6 1.367-1.13 2.046-1.696.333-.279.646-.565.91-.912.221-.3.346-.634.332-1.001-.014-.681.257-1.24.756-1.696 1.228-1.13 2.456-2.254 3.684-3.378.118-.109.236-.204.416-.122.174.081.201.231.174.388-.097.606.152 1.09.506 1.566.618.824 1.18 1.682 1.783 2.513.222.306.243.633.18.974-.208 1.048-1.04 1.743-2.178 1.825-.784.054-1.186.551-1.103 1.32.042.403.167.784.278 1.165.347 1.213.34 2.438.083 3.664-.056.266-.09.538-.09.81.007 2.227 0 4.46 0 6.688 0 .231-.014.463-.146.66-.215.32-.59.457-.978.354a.829.829 0 01-.61-.824c-.008-.919 0-1.838-.008-2.758 0-.088.028-.183-.027-.279-.292.307-.507.613-.472 1.076.049.66.014 1.328.007 1.989a.82.82 0 01-.59.79.87.87 0 01-.957-.286c-.146-.177-.187-.382-.187-.6-.007-.585 0-1.17 0-1.763 0-.143.041-.266.097-.395.555-1.335.596-2.718.284-4.107-.222-1-.888-1.668-1.79-2.131-.215-.11-.437-.055-.548.13-.104.17-.055.387.16.496 1.11.566 1.526 1.498 1.568 2.677.034.994-.042 1.954-.486 2.86-.291.592-.721 1.055-1.346 1.457h.68c.465.007.84.327.874.742.042.484-.229.845-.721.933-.118.02-.243.027-.361.027-.93 0-1.852-.013-2.782.007-.479.014-.84-.17-1.145-.497a3.37 3.37 0 01-.534-.749.395.395 0 00-.263-.225c-1.464-.395-2.352-1.402-2.928-2.724-.444-1.021-.624-2.097-.714-3.2-.084-1.001-.035-1.989.298-2.949.312-.824.742-1.587 1.103-2.377.194-.429.41-.85.513-1.307.104-.45.07-.872-.284-1.233-.354-.367-.333-.844.02-1.185.34-.326.854-.32 1.208.035.714.728.957 1.593.756 2.58-.132.647-.389 1.253-.673 1.846-.298.627-.617 1.24-.881 1.88-.333.81-.389 1.647-.326 2.505.07.872.173 1.73.492 2.547.209.531.472 1.022.944 1.396z"/></svg><svg viewBox="0 0 22 22" id="icon-link-aside-12" xmlns="http://www.w3.org/2000/svg"><path d="M.084 21.993c.578-1.382 1.157-2.731 1.724-4.08.182-.422.354-.843.547-1.264.107-.226.085-.399-.075-.593C-.205 12.979-.548 9.525.716 5.898c.792-2.278 2.474-3.81 4.648-4.771C7.581.144 9.906-.137 12.315.056c1.714.141 3.353.53 4.884 1.329 2.753 1.457 4.306 3.756 4.702 6.854.247 1.922.043 3.79-.739 5.581-.889 2.03-2.388 3.476-4.38 4.361-3.363 1.49-6.823 1.533-10.315.486-.278-.086-.492-.075-.75.076-1.745 1.058-3.502 2.094-5.247 3.13-.108.065-.193.151-.386.119zm5.43-10.978c.846.01 1.35-.475 1.36-1.307.011-.82-.524-1.37-1.35-1.381-.802 0-1.349.518-1.37 1.317-.01.83.514 1.36 1.36 1.37zm5.505 0c.836 0 1.318-.486 1.329-1.328 0-.853-.504-1.35-1.35-1.35-.793 0-1.36.54-1.339 1.296.01.874.504 1.382 1.36 1.382zm6.79-1.339c0-.853-.47-1.339-1.306-1.339-.846 0-1.35.497-1.35 1.35 0 .853.483 1.328 1.318 1.328.878 0 1.339-.465 1.339-1.339z"/></svg><svg viewBox="0 0 17 22" id="icon-link-aside-2" xmlns="http://www.w3.org/2000/svg"><path d="M8.493 5.748h6.474c.55 0 .66.105.597.639-.133 1.134-.283 2.269-.424 3.403l-.566 4.494a954.186 954.186 0 00-.62 4.943c-.087.714-.181 1.436-.26 2.15-.063.548-.141.623-.707.623H3.944c-.48 0-.573-.068-.628-.51-.228-1.79-.448-3.577-.668-5.366-.22-1.78-.448-3.554-.676-5.334-.189-1.473-.377-2.938-.558-4.41-.063-.534.047-.64.597-.64 2.169.008 4.322.008 6.482.008zm-.346 11.105a2.859 2.859 0 001.155-.3c.998-.534 1.792-1.278 2.334-2.24.346-.608.408-1.262.141-1.93-.07-.18-.157-.248-.369-.18-2.153.69-3.7 2.05-4.816 3.906-.079.128-.055.203.07.278.44.278.92.444 1.485.466zm2.334-5.996c-.747-.556-1.532-.766-2.35-.473-1.476.526-2.498 1.525-3 2.96-.205.564-.087 1.12.22 1.683 1.272-1.893 2.914-3.32 5.13-4.17zM8.501 4.26H.644C.055 4.26 0 4.208 0 3.66v-.933c0-.36.11-.458.495-.465.228 0 .456-.008.676 0 .212.015.298-.076.337-.263.134-.541.283-1.075.417-1.616C1.988.12 2.137 0 2.435 0c4.047.008 8.085.008 12.131 0 .291 0 .432.12.495.376.134.54.283 1.074.417 1.608.047.195.141.285.361.278.236-.015.472-.008.707 0 .33.007.448.12.448.428.008.368.008.729 0 1.097 0 .368-.11.473-.487.473H8.501z"/></svg><svg viewBox="0 0 22 21" id="icon-link-aside-3" xmlns="http://www.w3.org/2000/svg"><path d="M.002 5.684c-.02-.537.079-1.092.249-1.628.118-.368.386-.437.673-.162l2.55 2.432c.582.55 1.32.555 1.909.007.418-.393.837-.786 1.249-1.192.582-.567.575-1.266-.007-1.821-.837-.805-1.674-1.603-2.51-2.402-.327-.311-.262-.573.19-.692 2.53-.655 5.524.063 7.047 2.813.778 1.404.536 2.726-.477 3.942-.138.169-.118.237.039.368 1.772 1.454 3.537 2.913 5.302 4.373 1.608 1.328 3.223 2.644 4.812 3.979 1.176.992 1.3 2.92.287 4.11a3.319 3.319 0 01-4.7.393c-.4-.336-.726-.76-1.079-1.147-1.85-2.04-3.694-4.08-5.544-6.12-.758-.835-1.523-1.67-2.275-2.513-.144-.162-.222-.18-.405-.043-.759.586-1.615.941-2.615.873-.91-.063-1.68-.443-2.374-.967C.773 9.127.003 7.592.003 5.684zm20 12.113c.006-.699-.615-1.291-1.367-1.298-.713-.006-1.347.593-1.347 1.285-.006.705.628 1.304 1.36 1.298.732 0 1.353-.593 1.353-1.285z"/><path d="M5.136 13.482c.628 0 1.255.006 1.89 0 .274-.007.47.093.607.318.635 1.035 1.269 2.07 1.91 3.106a.582.582 0 010 .661L7.62 20.692c-.124.206-.307.306-.562.306a398.599 398.599 0 00-3.85 0c-.275 0-.465-.106-.602-.325-.628-1.023-1.249-2.046-1.883-3.062-.157-.256-.15-.493.007-.749a290.831 290.831 0 001.856-3.025c.15-.25.353-.362.66-.355.628.006 1.256 0 1.89 0zm-.026 1.902c-1.026-.013-1.916.83-1.935 1.834-.02.998.863 1.858 1.915 1.871 1.079.012 1.968-.836 1.968-1.871.007-.992-.882-1.828-1.948-1.834z"/></svg><svg viewBox="0 0 22 15" id="icon-link-aside-4" xmlns="http://www.w3.org/2000/svg"><path d="M2.208 15c-.524-.007-.97-.24-1.396-.529a4.595 4.595 0 01-.652-.553c-.213-.227-.22-.227.018-.415a9.351 9.351 0 002.145-2.548c.494-.849.847-1.755.975-2.748.013-.107.007-.19-.06-.283-.421-.61-.269-1.258.371-1.592a.389.389 0 00.183-.201c.152-.315.299-.635.506-.925.097-.138.08-.182-.08-.232-.926-.283-1.846-.585-2.772-.875-.043-.012-.085-.025-.128-.044-.213-.075-.33-.22-.323-.453.006-.226.128-.358.329-.427.762-.246 1.53-.485 2.291-.724C6.157 1.646 8.698.848 11.233.042a.793.793 0 01.512 0c3.278 1.045 6.55 2.076 9.83 3.108.085.025.176.05.25.113a.482.482 0 01.17.44c-.03.201-.17.302-.347.365-1.079.34-2.151.685-3.23 1.025-2.212.698-4.425 1.396-6.637 2.1a.839.839 0 01-.554 0c-1.408-.452-2.822-.892-4.236-1.339-.073-.025-.195-.012-.207-.113-.006-.094.11-.113.183-.151 1.158-.629 2.401-.994 3.669-1.277.335-.075.67-.126 1.011-.195.311-.063.488-.283.451-.547-.042-.283-.25-.46-.56-.421-1.043.125-2.048.383-3.047.71-.927.309-1.816.686-2.609 1.277a3.317 3.317 0 00-1.005 1.126c-.092.176-.122.327-.006.522a.969.969 0 01-.159 1.189c-.152.15-.17.302-.164.503.091 1.49.067 2.969-.342 4.415-.152.541-.371 1.05-.725 1.485-.335.402-.75.635-1.273.622z"/><path d="M11.105 12.786c-1.316-.032-2.84-.51-4.168-1.58a4.697 4.697 0 01-.652-.66c-.494-.59-.634-1.264-.433-2.025.14-.54.298-1.07.47-1.604.054-.176.133-.207.304-.157 1.408.453 2.827.887 4.235 1.346.433.138.841.138 1.274 0 1.39-.453 2.779-.88 4.168-1.327.213-.07.311-.038.384.195.207.68.439 1.352.53 2.07.055.408-.06.76-.268 1.093-.426.686-1.03 1.177-1.7 1.58-1.176.71-2.432 1.075-4.144 1.069z"/></svg><svg viewBox="0 0 22 21" id="icon-link-aside-5" xmlns="http://www.w3.org/2000/svg"><path d="M4.038 8.75a7.993 7.993 0 00-.662 1.028c-.138.254-.355.347-.62.322-.938-.099-1.75-.539-2.525-1.047-.21-.142-.283-.39-.193-.638.56-1.549 1.107-3.097 1.72-4.621.139-.347.41-.607.68-.855.439-.415.926-.768 1.425-1.097.433-.29.872-.576 1.311-.86.247-.162.355-.162.56.036 1.371 1.345 3.975.83 4.781-.762.12-.241.27-.303.523-.223.915.304 1.829.614 2.695 1.047.745.372 1.287 1.01 1.846 1.611.764.812 1.474 1.673 2.195 2.528.043.05.09.105.133.16.204.28.204.552-.03.8a18.554 18.554 0 01-1.973 1.765c-.217.174-.475.149-.704-.05-.258-.222-.505-.458-.806-.73.03.446.048.836.079 1.226.018.26.036.527.078.787.036.223-.06.248-.235.21-.625-.123-1.257-.222-1.87-.414-.95-.298-1.714.198-2.105.972-.313.62-.524 1.283-.752 1.94-.553 1.56-1.125 3.116-1.612 4.708-.042.13-.09.223-.24.229-.452.03-.897.074-1.348.093-.499.024-.83-.273-.884-.787-.258-2.404-.764-4.758-1.371-7.087-.03-.093-.054-.174-.096-.291z"/><path d="M17.48 20.997c-.277 0-.554.006-.836 0-.385-.006-.56-.167-.59-.551-.084-.991-.156-1.989-.234-2.98-.012-.18-.03-.353-.042-.533-.006-.08 0-.173-.097-.192-.108-.018-.132.08-.156.161-.21.638-.415 1.276-.626 1.915-.156.483-.312.966-.475 1.45-.138.408-.294.513-.697.396-1.636-.459-3.23-1.029-4.697-1.92-.385-.236-.44-.41-.301-.85a151.07 151.07 0 012.315-6.882c.103-.273.205-.551.385-.78.175-.224.391-.317.674-.242 1.678.458 3.392.737 5.118.929 1.065.118 2.135.204 3.212.198.433 0 .62.155.685.595.229 1.549.457 3.104.59 4.665l.288 3.37c.024.297-.072.465-.342.576-.945.384-1.931.558-2.941.626-.41.03-.818.05-1.233.05z"/></svg><svg viewBox="0 0 21 22" id="icon-link-aside-6" xmlns="http://www.w3.org/2000/svg"><path d="M10.486 15.143h8.634c.32 0 .32 0 .32-.324 0-2.95 0-5.901-.006-8.852 0-.198.054-.336.212-.462.38-.307.75-.631 1.118-.95.14-.12.206-.09.218.084.006.09.018.18.018.27v12.44c0 .769-.38 1.148-1.155 1.148h-7.14c-.314 0-.314 0-.314.306 0 .367.006.733 0 1.106-.006.174.048.24.23.234.447-.012.888-.006 1.336 0 .393 0 .568.174.574.559 0 .264.006.523 0 .787-.006.283-.145.445-.43.493-.096.018-.193.018-.29.018H7.168c-.09 0-.181-.006-.272-.018-.29-.042-.447-.21-.453-.499a9.078 9.078 0 010-.811c.012-.337.205-.529.544-.529.46-.006.919-.012 1.384 0 .194.006.248-.066.242-.246a17.412 17.412 0 010-1.124c.012-.216-.066-.282-.284-.282-2.243.006-4.486.006-6.735.006h-.52c-.665-.018-1.064-.415-1.07-1.082-.006-1.484 0-2.975 0-4.459V4.843c0-.582.266-.973.755-1.087.097-.024.194-.024.29-.024h11.7c.036 0 .078-.006.114 0 .043.006.103.006.121.036.042.054-.012.096-.048.132-.182.21-.393.403-.544.631-.375.583-.877.74-1.578.733-2.993-.042-5.986-.018-8.978-.018-.32 0-.32 0-.32.319v9.194c0 .384 0 .384.398.384h8.573zm-.024 2.29a.632.632 0 00.64-.601.636.636 0 00-.604-.637.62.62 0 00-.634.601c-.007.349.26.63.598.637z"/><path d="M20.782 1.893c.012.625-.26 1.112-.725 1.508-.901.775-1.796 1.55-2.703 2.332-.991.853-1.983 1.713-2.98 2.566-.206.174-.2.174-.333-.066-.357-.655-.846-1.19-1.535-1.509-.188-.09-.164-.162-.049-.294 1.506-1.73 3.005-3.467 4.51-5.204.17-.192.327-.39.502-.577.532-.559 1.18-.781 1.935-.57.731.203 1.179.696 1.354 1.43.006.035.018.071.018.108.012.096.006.186.006.276zM9.071 12.728a8.603 8.603 0 01-1.396-.144c-.175-.037-.302-.133-.357-.307-.054-.18.018-.33.163-.439.678-.504 1.016-1.207 1.228-1.995.078-.282.157-.565.266-.835.363-.883 1.282-1.448 2.17-1.346.998.12 1.79.865 1.935 1.833.109.715-.09 1.34-.599 1.857-.792.805-1.777 1.213-2.896 1.328-.205.024-.405.06-.514.048z"/></svg><svg viewBox="0 0 20 22" id="icon-link-aside-7" xmlns="http://www.w3.org/2000/svg"><path d="M9.989 22H2.346C1.003 22 .006 20.998 0 19.642v-7.183c0-1.39.992-2.398 2.368-2.409 1.44-.006 2.873-.006 4.312.006.283 0 .498-.075.691-.286.334-.367.697-.71 1.048-1.065a1.481 1.481 0 011.122-.47c1.077.012 2.153.006 3.23 0a1.4 1.4 0 011.03.43c.386.39.777.773 1.156 1.168a.655.655 0 00.527.217c.72-.006 1.445-.011 2.165 0 1.121.011 2.011.71 2.277 1.768.051.2.074.407.074.619v7.205C20 20.998 19.003 22 17.66 22H9.99zm5.87-6.187c.045-2.392-1.842-4.779-4.709-4.79-2.793-.011-4.73 2.26-4.748 4.733-.022 2.564 1.983 4.836 4.748 4.825 2.856-.012 4.742-2.381 4.708-4.768zM3.421 14.634a1.13 1.13 0 001.122-1.11c0-.612-.499-1.116-1.11-1.133-.601-.017-1.111.503-1.111 1.116a1.106 1.106 0 001.1 1.127zM15.915 3.33c-.028.459.057 1.031-.04 1.603a1.8 1.8 0 01-1.552 1.488c-.181.023-.283.086-.317.275-.04.189-.097.372-.159.555-.068.218-.176.28-.385.218a3.115 3.115 0 00-.861-.103c-1.015.005-2.023.005-3.037 0-.255 0-.51.028-.754.097-.226.063-.334.006-.402-.217-.057-.184-.119-.367-.159-.556-.034-.171-.124-.246-.3-.269a1.796 1.796 0 01-1.552-1.413 2.037 2.037 0 01-.057-.487c-.006-.87-.006-1.745 0-2.615.006-.962.606-1.7 1.513-1.883C7.96 0 8.079 0 8.193 0h5.88c1.026 0 1.825.807 1.842 1.849.006.452 0 .91 0 1.482zm-4.799 1.226h2.42c.356 0 .52-.16.52-.521.006-.55.006-1.099 0-1.654-.005-.344-.175-.51-.515-.51H8.72c-.357 0-.505.15-.505.504-.005.55 0 1.099 0 1.654 0 .4.13.527.522.527h2.38zM3.643 9.197h-1.19c-.51-.006-.72-.269-.612-.778.13-.607.6-1.036 1.253-1.105.407-.04.821-.046 1.229.017a1.393 1.393 0 011.161 1.317c.017.314-.204.538-.55.543-.424.012-.855.006-1.29.006z"/><path d="M14.09 15.802c0 1.665-1.33 3.01-2.968 3.004-1.626-.005-2.969-1.367-2.963-3.021.005-1.637 1.348-2.994 2.968-2.994 1.638.006 2.964 1.351 2.964 3.01z"/></svg><svg viewBox="0 0 17 22" id="icon-link-aside-8" xmlns="http://www.w3.org/2000/svg"><path d="M8.521 6.925h4.55c.633 0 .909.273.909.909 0 .71.014 1.42-.007 2.124-.007.267.097.438.29.609.482.423.95.86 1.406 1.318.827.834 1.247 1.859 1.288 3.02.035 1.1.09 2.207-.034 3.3-.234 1.996-2.116 3.69-4.142 3.751-2.66.082-5.321.02-7.982.035-1.358.006-2.557-.41-3.515-1.408-.82-.847-1.227-1.865-1.254-3.027-.028-1.052-.049-2.097.076-3.143.117-.977.544-1.803 1.226-2.514.455-.471.938-.902 1.434-1.332a.657.657 0 00.255-.554c-.014-.71-.007-1.414-.007-2.125 0-.676.297-.963.986-.963H8.52zm-.007 13.521c1.337 0 2.668.007 4.005 0 1.613-.013 2.88-1.27 2.902-2.87a77.61 77.61 0 00-.007-2.534 3.037 3.037 0 00-.958-2.22 32.843 32.843 0 00-1.613-1.476 1.098 1.098 0 01-.414-.916c0-.547-.007-1.093.007-1.64.007-.246-.083-.328-.33-.328-2.406.007-4.805.007-7.21 0-.255 0-.324.089-.317.328.013.608 0 1.21.007 1.818a.849.849 0 01-.31.67c-.614.539-1.22 1.079-1.8 1.653-.51.505-.771 1.113-.847 1.824-.09.868-.035 1.742-.042 2.61-.013 1.797 1.275 3.075 3.081 3.075 1.275.013 2.557.006 3.846.006zM.002 4.622c0-.779.469-1.503 1.179-1.756 1.068-.382 2.15-.738 3.225-1.1C6.02 1.22 7.632.673 9.252.133c1.178-.396 2.198.11 2.605 1.278.152.437.303.868.448 1.312.124.376.007.587-.365.717L1.34 6.986c-.414.137-.614.034-.759-.369-.158-.457-.317-.922-.469-1.38-.069-.212-.124-.43-.11-.615z"/><path d="M8.81 19.633H4.924c-.255 0-.517-.013-.772-.054a2.071 2.071 0 01-1.723-1.913c-.062-.991-.062-1.982.042-2.966.055-.498.29-.909.654-1.243.559-.52 1.117-1.046 1.682-1.551.372-.328.58-.71.586-1.203.007-.328.048-.355.365-.32.22.026.448.04.669.067.834.11 1.489.5 1.964 1.19.255.375.524.744.951.956 1.041.52 2.061.464 3.033-.171.207-.137.324-.137.496.041.317.328.655.629.993.936.503.458.717 1.039.73 1.695.014.833.021 1.673.007 2.507-.02 1.046-.868 1.927-1.923 1.995-1.378.089-2.757.007-3.866.034zm-2.467-3.225c.53 0 .938-.403.938-.922 0-.506-.428-.916-.952-.916-.53.007-.93.404-.93.93.007.519.42.915.944.908zm4.418 1.025a.733.733 0 00-.758-.738.764.764 0 00-.73.745.77.77 0 00.75.752c.421 0 .745-.335.738-.759zm.269-2.746a.53.53 0 00.51.533.526.526 0 00.53-.513.52.52 0 00-.502-.533.537.537 0 00-.538.513z"/></svg><svg viewBox="0 0 22 22" id="icon-link-aside-9" xmlns="http://www.w3.org/2000/svg"><path d="M9.66 10.977V.702c0-.086-.005-.171.006-.257.023-.27.195-.435.464-.44a88.062 88.062 0 011.738 0c.286 0 .463.177.475.474.011.258 0 .515 0 .772V21.31c0 .092.006.189-.006.28-.034.247-.2.407-.446.407-.583.005-1.172.005-1.756 0-.268 0-.434-.172-.463-.44-.006-.087-.006-.172-.006-.258-.005-3.439-.005-6.877-.005-10.32zM16.14 4.387c.864 0 1.728.005 2.597-.006.217 0 .4.063.566.2.818.687 1.636 1.362 2.454 2.048.332.28.32.56-.012.841-.806.67-1.618 1.339-2.419 2.02a.903.903 0 01-.606.223c-1.75-.006-3.5 0-5.256 0-.28 0-.286-.012-.286-.292V4.678c0-.291 0-.297.303-.297.887.006 1.773.006 2.66.006zM5.874 7.064c-.886 0-1.773-.006-2.659 0a.748.748 0 01-.509-.177C1.888 6.2 1.059 5.514.241 4.827c-.326-.275-.32-.56.011-.84.807-.67 1.613-1.34 2.42-2.02a.836.836 0 01.583-.212c1.756.006 3.512.006 5.273.006.292 0 .292 0 .292.28v4.737c0 .28 0 .286-.292.286H5.874z"/></svg><svg viewBox="0 0 22 20" id="icon-logout" xmlns="http://www.w3.org/2000/svg"><path fill-rule="evenodd" clip-rule="evenodd" d="M1.055 1.055A2.75 2.75 0 013 .25h4a.75.75 0 010 1.5H3A1.25 1.25 0 001.75 3v14A1.25 1.25 0 003 18.25h4a.75.75 0 010 1.5H3A2.75 2.75 0 01.25 17V3c0-.73.29-1.429.805-1.945zM15.47 4.47a.75.75 0 011.06 0l5 5a.75.75 0 010 1.06l-5 5a.75.75 0 11-1.06-1.06l3.72-3.72H9a.75.75 0 010-1.5h10.19l-3.72-3.72a.75.75 0 010-1.06z"/></svg><svg viewBox="0 0 22 22" id="icon-mail" xmlns="http://www.w3.org/2000/svg"><path fill-rule="evenodd" clip-rule="evenodd" d="M6.3 1.055A11 11 0 0122 10.999v1a4 4 0 01-7.26 2.319A5 5 0 1114 6.999a1 1 0 012 0v5a2 2 0 004 0v-1a9 9 0 10-3.528 7.146 1 1 0 011.216 1.588A11 11 0 116.3 1.055zm7.7 9.944a3 3 0 10-6 0 3 3 0 006 0z"/></svg><svg viewBox="0 0 26 16" id="icon-menu" xmlns="http://www.w3.org/2000/svg"><path fill-rule="evenodd" clip-rule="evenodd" d="M.5 0v2h25V0H.5zM.5 7v2h25V7H.5zM.5 14v2h19v-2H.5z"/></svg><svg fill="none" viewBox="0 0 23 2" id="icon-minus" xmlns="http://www.w3.org/2000/svg"><path fill-rule="evenodd" clip-rule="evenodd" d="M0 1a1 1 0 011-1h20.686a1 1 0 110 2H1a1 1 0 01-1-1z" fill="#556269"/></svg><svg fill="none" viewBox="0 0 30 30" id="icon-ok" xmlns="http://www.w3.org/2000/svg"><circle cx="15" cy="15" r="15" fill="#CCC"/><path d="M10.815 14.657c.29-.017.554.16.813.323.36.227.74.412 1.142.559.429.16.874.235 1.329.277.8.071 1.587-.005 2.349-.256.493-.164.938-.425 1.375-.702.35-.222.727-.298 1.12-.1.667.336.74 1.184.191 1.667-.982.856-2.159 1.247-3.44 1.406-.047.004-.112-.012-.129.038-.022.059.048.088.082.126.935.911 1.869 1.818 2.803 2.73.2.192.338.407.35.688.014.403-.276.819-.691 1-.385.163-.783.092-1.103-.215-.693-.668-1.385-1.344-2.073-2.015l-.103-.101c-.152-.13-.23-.13-.373.008-.58.559-1.15 1.121-1.73 1.68-.182.176-.359.365-.558.525-.489.399-1.146.155-1.419-.21-.368-.492-.285-1.054.186-1.462.329-.285.632-.6.948-.907l1.18-1.146c.204-.197.403-.395.606-.592.03-.03.078-.059.065-.1-.013-.051-.07-.034-.112-.038-.805-.097-1.588-.27-2.31-.639-.502-.256-.991-.541-1.354-.978-.256-.302-.269-.642-.083-.987.182-.348.455-.588.939-.58z" fill="#fff"/><path d="M14.644 6.75c2.25 0 4.118 1.768 4.105 4.044-.013 2.17-1.79 3.934-4.131 3.947-2.241.012-4.101-1.751-4.101-3.99-.005-2.321 1.985-4.026 4.127-4zm-.009 2.087c-1.099-.004-1.968.832-1.973 1.898-.004 1.138.874 1.923 1.977 1.923 1.16-.004 1.951-.873 1.964-1.894.018-1.062-.873-1.923-1.968-1.927z" fill="#fff"/></svg><svg viewBox="0 0 23 24" id="icon-order" xmlns="http://www.w3.org/2000/svg"><path d="M.5 14.478V5.434c0-.519 0-.519.529-.519 1.412 0 2.825-.008 4.246.009.24 0 .339-.065.397-.3C6.258 2.308 7.737.826 10.075.187c2.553-.689 5.452.583 6.683 2.882.265.494.48 1.012.595 1.555.05.227.157.291.38.291 1.446-.008 2.892 0 4.337 0 .43 0 .43.009.43.422v7.83c0 .485-.24.834-.653.963-.388.13-.81.016-1.074-.283-.181-.21-.23-.462-.23-.737V7.247c0-.429 0-.429-.447-.429H17.93c-.446 0-.446 0-.446.454v3.49c0 .437-.247.777-.644.906a.969.969 0 01-1.082-.307c-.174-.219-.223-.47-.223-.745 0-1.142-.009-2.284.008-3.433 0-.292-.083-.38-.38-.38-2.445.007-4.89.007-7.344 0-.281 0-.372.08-.372.363.016 1.166.008 2.324.008 3.49 0 .64-.388 1.07-.958 1.07-.57-.009-.975-.438-.983-1.07-.009-1.141 0-2.283 0-3.433 0-.405 0-.413-.405-.413H2.912c-.43 0-.43 0-.43.421v14.356c0 .494 0 .494.488.494h8.303c.173 0 .347 0 .52.057.48.146.752.559.686 1.053-.058.437-.438.777-.909.801-.074.008-.14 0-.215 0H.98c-.462 0-.462 0-.462-.453C.5 20.527.5 17.507.5 14.479zm10.996-9.57h3.527c.414 0 .422-.009.29-.381-.579-1.563-2.14-2.64-3.834-2.624-1.71.025-3.23 1.11-3.792 2.697-.099.283-.008.324.248.315 1.19-.008 2.371-.008 3.56-.008z"/><path d="M18.733 16.89c0 .381.016.77-.009 1.15-.016.276.075.38.364.373a71.84 71.84 0 012.288 0c.463.008.86.154 1.041.607.232.583-.107 1.182-.743 1.28-.587.088-1.173.024-1.76.04-.256.008-.512 0-.777 0-.42 0-.42 0-.42.43v2.185c0 .632-.364 1.037-.95 1.045-.554.008-.984-.413-1-1.02-.017-.697-.009-1.393-.009-2.098 0-.55 0-.55-.553-.55-.694 0-1.38.008-2.074-.008-.669-.016-1.082-.365-1.107-.907-.025-.526.298-.923.835-.996.62-.081 1.239-.016 1.858-.032.223-.009.455-.009.678 0 .264.016.363-.081.363-.349a67.355 67.355 0 010-2.243c.009-.655.422-1.085 1.008-1.068.52.008.925.388.934.898.041.43.033.85.033 1.264z"/></svg><svg fill="none" viewBox="0 0 30 30" id="icon-photo-add" xmlns="http://www.w3.org/2000/svg"><circle cx="15" cy="15" r="15" fill="#ED5338"/><path fill-rule="evenodd" clip-rule="evenodd" d="M15.013 7.5c.366 0 .663.297.663.662v6.189h6.188a.662.662 0 110 1.325h-6.188v6.188a.662.662 0 01-1.325 0v-6.188H8.162a.662.662 0 010-1.325h6.189V8.162c0-.365.296-.662.662-.662z" fill="#fff"/></svg><svg viewBox="0 0 23 23" id="icon-plus" xmlns="http://www.w3.org/2000/svg"><path fill-rule="evenodd" clip-rule="evenodd" d="M0 11.343a1 1 0 011-1h9.343V1a1 1 0 112 0v9.343h9.343a1 1 0 110 2h-9.343v9.343a1 1 0 01-2 0v-9.343H1a1 1 0 01-1-1z"/></svg><svg fill="none" viewBox="0 0 29 29" id="icon-prompt" xmlns="http://www.w3.org/2000/svg"><path d="M29 14.5C29 22.508 22.508 29 14.5 29S0 22.508 0 14.5 6.492 0 14.5 0 29 6.492 29 14.5z" fill="#E9E8E5"/><path d="M13.672 18.481h1.998c0-.366.012-.657.036-.873.024-.222.117-.47.279-.747a2.82 2.82 0 01.702-.774c.306-.24.606-.516.9-.828.378-.396.687-.837.927-1.323a3.476 3.476 0 00.369-1.593 3.58 3.58 0 00-.216-1.233 3.136 3.136 0 00-.621-1.07 3.216 3.216 0 00-1.422-.964 5.395 5.395 0 00-1.8-.297c-.444 0-.888.07-1.332.207-.444.132-.84.336-1.188.612a3.228 3.228 0 00-.972 1.206 4.426 4.426 0 00-.432 1.575h1.98c-.006-.27.033-.519.117-.747a1.41 1.41 0 01.414-.585c.174-.162.39-.282.648-.36.258-.078.534-.117.828-.117.318 0 .624.048.918.144.294.096.537.267.729.513.234.288.35.672.35 1.152 0 .312-.041.603-.125.873-.078.27-.237.537-.477.801a6.58 6.58 0 01-.828.756c-.258.192-.498.39-.72.594a2.662 2.662 0 00-.567.783 3.55 3.55 0 00-.396 1.08 7.066 7.066 0 00-.1 1.215zm.009 3.52h1.989v-2.179h-1.99V22z" fill="#fff"/></svg><svg viewBox="0 0 23 2" id="icon-remove" xmlns="http://www.w3.org/2000/svg"><path fill-rule="evenodd" clip-rule="evenodd" d="M0 1a1 1 0 011-1h20.686a1 1 0 110 2H1a1 1 0 01-1-1z"/></svg><svg viewBox="0 0 17 19" id="icon-share" xmlns="http://www.w3.org/2000/svg"><path fill-rule="evenodd" clip-rule="evenodd" d="M13.5 1.5a2 2 0 100 4 2 2 0 000-4zm-2.304 3.922a3 3 0 10-.504-.863L5.804 7.41a3 3 0 100 3.844l4.89 2.85a3 3 0 10.505-.863l-4.891-2.85a2.994 2.994 0 000-2.117l4.888-2.853zm-5.988 2.87a.506.506 0 00.04.069c.16.288.252.62.252.972a1.991 1.991 0 01-.292 1.042A1.999 1.999 0 011.5 9.333a2 2 0 013.708-1.041zm6.524 5.94a.508.508 0 00.086-.148 2 2 0 11-.087.148z"/></svg><svg fill="none" viewBox="0 0 30 30" id="icon-telegram" xmlns="http://www.w3.org/2000/svg"><path d="M30 15.04C30 23.315 23.27 30 14.945 30 6.684 29.984-.015 23.253 0 14.93.016 6.668 6.747-.016 15.086 0 23.316.016 30 6.747 30 15.04zm-8.34-5.108c.032-.734-.202-.89-.92-.609-3.967 1.546-7.918 3.108-11.87 4.654-.25.094-.53.219-.515.562.016.328.281.453.547.547.734.265 1.483.484 2.202.765.406.156.718.14 1.093-.11a369.78 369.78 0 016.668-4.231c.234-.156.578-.547.781-.266.187.25-.281.469-.5.672-1.718 1.561-3.451 3.107-5.169 4.654-.265.234-.36.405 0 .671 1.437 1.078 2.842 2.186 4.28 3.264.733.547 1.264.328 1.451-.593.438-2.187.86-4.358 1.297-6.544.203-1.171.453-2.358.656-3.436z" fill="#45A4D0"/></svg><svg viewBox="0 0 20 22" id="icon-trash" xmlns="http://www.w3.org/2000/svg"><path fill-rule="evenodd" clip-rule="evenodd" d="M8 1.879a1.25 1.25 0 00-1.25 1.25v1.25h6.5v-1.25A1.25 1.25 0 0012 1.879H8zm6.75 2.5v-1.25A2.75 2.75 0 0012 .379H8a2.75 2.75 0 00-2.75 2.75v1.25H1a.75.75 0 100 1.5h1.25v13.25A2.75 2.75 0 005 21.879h10a2.75 2.75 0 002.75-2.75V5.879H19a.75.75 0 000-1.5h-4.25zm-11 1.5v13.25A1.25 1.25 0 005 20.379h10a1.25 1.25 0 001.25-1.25V5.879H3.75zM8 9.379a.75.75 0 01.75.75v6a.75.75 0 01-1.5 0v-6a.75.75 0 01.75-.75zm4 0a.75.75 0 01.75.75v6a.75.75 0 01-1.5 0v-6a.75.75 0 01.75-.75z"/></svg><svg viewBox="0 0 24 20" id="icon-upload" xmlns="http://www.w3.org/2000/svg"><path fill-rule="evenodd" clip-rule="evenodd" d="M8.672.006a8.996 8.996 0 018.808 6.002h.518a6 6 0 015.722 4.185 5.997 5.997 0 01-2.267 6.717 1 1 0 11-1.15-1.636A3.998 3.998 0 0018 8.008h-1.26a1 1 0 01-.969-.752 6.994 6.994 0 00-10.054-4.44 6.995 6.995 0 00-1.96 10.814 1 1 0 01-1.498 1.326A8.995 8.995 0 018.672.006zm3.33 9a1 1 0 011 1v6.58l2.291-2.29a1 1 0 111.414 1.414l-3.997 3.997a1 1 0 01-1.415 0L7.298 15.71a1 1 0 111.414-1.415l2.29 2.29v-6.58a1 1 0 011-1z"/></svg><svg fill="none" viewBox="0 0 31 30" id="icon-viber" xmlns="http://www.w3.org/2000/svg"><path d="M14.879 25.984c-1.121-.459-1.817.323-2.497 1.19-.56.696-1.154 1.359-1.766 2.005-.662.73-1.46 1.02-2.411.68-.883-.307-1.376-1.088-1.376-2.142 0-.781-.017-1.563 0-2.361 0-.34-.101-.561-.424-.68-3.6-1.461-5.4-4.299-6.063-7.986A20.597 20.597 0 01.41 8.857C1.412 4.05 4.163 1.364 8.986.481c2.513-.46 5.044-.561 7.59-.425 1.614.085 3.227.136 4.807.492 4.975 1.122 7.743 4.146 8.405 9.21.306 2.31.323 4.604-.084 6.898-.867 4.996-3.685 7.85-8.678 8.802-1.97.39-3.99.424-6.147.526zm6.86-8.19c.221-.849-.22-1.359-1.07-1.699-.628-.237-1.222-.594-1.834-.9-.594-.289-1.188-.272-1.783 0-.407.187-.798.408-1.104.73-.305.306-.577.34-.967.153-1.444-.696-2.565-1.699-3.397-3.058-.441-.748-.611-1.342.085-2.073.595-.629.917-1.461.51-2.345-.391-.866-.85-1.716-1.274-2.565-.102-.187-.22-.408-.441-.408-1.036-.051-2.09-.221-3.023.425C5.912 7.09 5.165 9.06 5.777 10.828c1.052 3.042 2.7 5.726 5.264 7.731 1.766 1.376 3.668 2.532 5.858 3.11 2.293.56 5.18-1.513 4.84-3.874zm-6.402-13.61c-.05 0-.22 0-.39.018-.34.068-.527.254-.527.611 0 .323.187.51.493.578.17.034.34.034.51.051 2.427.22 4.278 1.376 5.535 3.466.611 1.02.832 2.158.917 3.33.034.374.22.663.645.63.391-.035.595-.324.595-.697 0-.408-.051-.8-.102-1.207-.493-3.619-3.923-6.711-7.676-6.78zm5.027 7.783c-.034-2.515-1.987-4.622-4.704-5.047-.764-.119-1.206.051-1.24.51-.05.748.544.697 1.02.748 2.088.305 3.48 1.733 3.684 3.84.051.458.17.883.713.85.544-.018.544-.477.527-.901zm-5.112-2.328c-.373 0-.747.017-.815.493-.068.441.22.662.629.73.832.12 1.273.612 1.392 1.41.05.391.289.646.696.578.39-.05.544-.34.544-.73-.017-1.258-1.172-2.447-2.446-2.481z" fill="#4C4E9B"/></svg><svg fill="none" viewBox="0 0 50 50" id="icon-vk" xmlns="http://www.w3.org/2000/svg"><circle cx="25" cy="25" r="25" fill="#ccc"/><path d="M26.154 20.522v2.723c0 .244.01.499.253.636.265.15.502.016.723-.13.662-.443 1.103-1.086 1.55-1.715.996-1.405 1.862-2.89 2.52-4.48.234-.566.576-.84 1.215-.811.866.038 1.734.001 2.6.012.874.011 1.234.52.917 1.33-.716 1.817-1.806 3.425-2.934 5.009-.229.322-.438.657-.667.98-.324.454-.243.843.133 1.236.846.883 1.665 1.79 2.509 2.673.65.681 1.153 1.456 1.57 2.287.332.666-.029 1.344-.782 1.372-1.125.04-2.254.018-3.38.001-.392-.005-.65-.238-.876-.559-.96-1.356-2.165-2.483-3.469-3.511-.068-.054-.143-.098-.218-.142-.807-.468-1.2-.265-1.23.652-.02.581-.003 1.165-.009 1.747-.01 1.057-.685 1.709-1.745 1.75-2.576.1-4.67-.99-6.544-2.585-1.871-1.592-3.106-3.667-4.323-5.744-.921-1.577-1.697-3.218-2.187-4.982-.32-1.156.02-1.601 1.242-1.603.729-.001 1.456.006 2.184-.001.575-.006.942.242 1.137.786.509 1.421 1.042 2.834 1.747 4.174.57 1.082 1.22 2.111 2.098 2.981.122.12.25.24.397.329.388.24.649.137.786-.297.036-.114.066-.235.064-.352-.02-1.54.089-3.08-.097-4.618-.091-.75-.518-1.33-.935-1.92-.157-.221-.385-.432-.233-.736.152-.309.46-.258.732-.26 1.37-.002 2.74-.004 4.11 0 .872.003 1.134.27 1.138 1.149.005.873.002 1.747.002 2.62h.002z" fill="#fff"/></svg><svg fill="none" viewBox="0 0 30 30" id="icon-whatsapp" xmlns="http://www.w3.org/2000/svg"><path d="M30 13.557c0 9.011-5.62 15.403-13.091 16.323-3.44.42-6.663-.265-9.62-2.058-.359-.218-.654-.234-1.043-.11-1.417.484-2.85.936-4.281 1.388-.234.078-.498.281-.716.094-.218-.203 0-.468.078-.702a434.27 434.27 0 011.385-4.162c.125-.359.109-.64-.109-.982C-.401 18.67-.853 13.698 1.498 8.66 3.786 3.751 7.756.866 13.126.15c4.857-.655 9.09.858 12.546 4.319 2.896 2.9 4.297 6.454 4.328 9.089zM19.882 23.3c.171 0 .358.031.53 0 2.194-.374 3.517-1.528 3.595-3.617.015-.359-.031-.655-.405-.826-1.12-.53-2.241-1.076-3.362-1.606-.452-.218-.84-.078-1.121.312-.296.39-.576.78-.872 1.169-.498.639-.825.733-1.572.436-2.475-.997-4.296-2.744-5.682-5.004-.218-.359-.218-.702.063-1.013.295-.36.622-.702.918-1.06.28-.344.39-.702.202-1.139-.482-1.122-.934-2.26-1.416-3.398-.094-.234-.234-.5-.498-.53-.84-.125-1.666-.203-2.366.452-1.292 1.216-1.697 2.712-1.433 4.412.234 1.543 1.075 2.822 1.946 4.069 2.475 3.508 5.62 6.049 9.854 7.125.545.124 1.074.249 1.619.218z" fill="#68B262"/></svg><svg viewBox="0 0 23 24" id="icon-write" xmlns="http://www.w3.org/2000/svg"><path fill-rule="evenodd" clip-rule="evenodd" d="M19.44 2.94c-.298 0-.583.118-.793.328l-9.305 9.304-.528 2.114 2.114-.528 9.304-9.304a1.121 1.121 0 00-.793-1.915zm-2.208-1.086a3.121 3.121 0 014.415 4.414l-9.5 9.5a1 1 0 01-.465.263l-4 1a1 1 0 01-1.213-1.213l1-4a1 1 0 01.263-.464l9.5-9.5zM1.318 3.939a3 3 0 012.121-.878h7a1 1 0 010 2h-7a1 1 0 00-1 1v14a1 1 0 001 1h14a1 1 0 001-1v-7a1 1 0 112 0v7a3 3 0 01-3 3h-14a3 3 0 01-3-3v-14a3 3 0 01.88-2.122z"/></svg><svg viewBox="0 0 16 16" id="icon-x" xmlns="http://www.w3.org/2000/svg"><path fill-rule="evenodd" clip-rule="evenodd" d="M1.071.927a.882.882 0 011.247 0l5.824 5.825L13.967.927a.882.882 0 111.246 1.247L9.39 7.998l5.824 5.825a.882.882 0 01-1.246 1.246L8.142 9.245l-5.824 5.824a.882.882 0 01-1.247-1.246l5.824-5.825-5.824-5.824a.882.882 0 010-1.247z"/></svg><svg fill="none" viewBox="0 0 50 50" id="icon-youtube" xmlns="http://www.w3.org/2000/svg"><circle cx="25" cy="25" r="25" fill="#ccc"/><path d="M25.467 15.012c-1.834 0-3.169-.031-4.502.007-2.355.067-4.711.127-7.057.374-1.628.172-2.886 1.201-3.311 2.72-.288 1.035-.41 2.095-.49 3.158-.145 1.97-.12 3.945-.073 5.916.036 1.529.167 3.056.531 4.555.38 1.564 1.764 2.668 3.431 2.82 1.953.18 3.907.273 5.864.351 3.23.13 6.462.091 9.69.036a72.259 72.259 0 006.477-.386c1.71-.184 2.99-1.172 3.405-2.75.269-1.024.395-2.069.47-3.123.146-2.045.087-4.091.064-6.136-.017-1.406-.157-2.811-.486-4.19-.413-1.742-1.681-2.806-3.534-2.98-1.887-.178-3.781-.241-5.676-.32-1.768-.076-3.536-.009-4.803-.052zM21.2 25.27v-4.19c0-.448.007-.452.437-.24.535.266 1.067.536 1.601.8 2.287 1.133 4.574 2.263 6.86 3.397.108.053.268.077.268.229 0 .113-.128.143-.216.186-2.864 1.424-5.731 2.844-8.593 4.272-.312.156-.363.058-.361-.23.008-1.406.004-2.815.004-4.224z" fill="#fff"/></svg></svg>