<svg id="icon" viewBox="0 0 20 20" xmlns="http://www.w3.org/2000/svg">
  <path d="M 17.45 8.606 L 14.959 10.459 C 17.176 11.702 18.696 14.033 18.696 16.735 C 18.696 20.726 15.412 23.975 11.38 23.975 C 7.348 23.975 4.067 20.726 4.067 16.735 C 4.067 14.033 5.585 11.702 7.803 10.459 L 5.313 8.606 C 2.795 10.456 1.141 13.394 1.141 16.735 C 1.141 22.335 5.726 26.874 11.38 26.874 C 17.036 26.874 21.621 22.335 21.621 16.735 C 21.621 13.394 19.967 10.456 17.45 8.606 Z M 17.231 5.149 L 14.306 0.804 L 8.454 0.804 L 5.529 5.149 L 11.38 9.495 L 17.231 5.149 Z" style="fill: #FEB904;"/>
</svg>