<svg width="40" height="38" viewBox="0 0 40 38" fill="none" xmlns="http://www.w3.org/2000/svg">
<path d="M37.2123 11.4259C37.4068 11.4259 37.6013 11.4259 37.6985 11.4259C37.9579 11.2964 38.1524 11.167 38.3793 11.1022C38.4765 11.0698 38.6062 11.0698 38.671 11.167C38.5737 11.2317 38.4441 11.2641 38.3468 11.3288V11.6525C38.2172 11.7172 38.0875 11.7819 37.8606 11.9114H37.2771C37.2123 12.2351 36.9854 12.3969 36.8233 12.5588C36.7261 12.5911 36.6613 12.5911 36.564 12.6235C36.7909 12.753 36.7909 12.753 37.2447 12.7206C37.3096 12.6235 37.4068 12.494 37.4716 12.3646C37.7958 12.5264 38.0551 12.6559 38.3468 12.7853C38.3468 12.9148 38.2172 12.9148 38.1848 13.0119C37.9903 13.1414 37.7634 12.9796 37.5689 13.1414C37.731 13.2385 37.893 13.368 38.0551 13.4651V13.6917C37.9579 13.724 37.8606 13.724 37.7958 13.7888C37.6661 13.8859 37.5365 14.0477 37.4068 14.1772C37.4716 14.2419 37.5041 14.2743 37.5365 14.3066C37.4392 14.4037 37.4392 14.4037 37.3096 14.4361C37.1799 14.5332 37.2771 14.6951 37.2447 14.8245C37.342 15.0187 37.5365 15.1158 37.731 15.1806V15.7632C37.6985 15.7956 37.6013 15.7956 37.6013 15.8279C37.5689 15.925 37.5689 16.0545 37.5689 16.2164C37.5365 16.2487 37.4392 16.3458 37.342 16.4106C37.0827 16.3782 36.9206 16.1192 36.6613 16.2811C36.5964 16.3135 36.5964 16.3458 36.6613 16.4106C36.7261 16.4753 36.7261 16.54 36.7585 16.6048C36.7909 16.6371 36.7909 16.7019 36.8233 16.7342H37.1799C37.2123 16.8313 37.2447 16.9284 37.2771 17.0256C37.5689 17.155 37.893 17.2845 38.1199 17.5434C38.3793 17.4787 38.3468 17.155 38.5089 17.0256C38.6062 16.7666 38.4441 16.4753 38.6386 16.184C38.671 16.3782 38.6386 16.5724 38.7358 16.6695C38.8655 16.8313 38.8331 16.9608 38.8655 17.155C39.06 17.3169 39.2869 17.4787 39.5138 17.6405C39.4489 17.7053 39.4165 17.77 39.3517 17.8348C39.5462 18.0613 39.6434 17.8024 39.7731 17.7376C39.8055 17.8024 39.8055 17.8995 39.8379 17.9642C39.7731 18.029 39.7083 18.0937 39.6758 18.1584C39.7407 18.2232 39.7731 18.2879 39.8379 18.3203V18.6116C39.9028 18.7087 39.9676 18.8058 40 18.8382C39.9676 19 39.611 19.1618 39.3517 19.2266C39.2545 19.0647 39.3841 18.8705 39.2545 18.7411C39.1896 18.7734 39.0924 18.8058 39.0276 18.8705C38.9951 18.7734 38.9303 18.6763 38.8979 18.5792C38.8655 18.5792 38.8655 18.6116 38.8331 18.6116V19C38.9951 19.0647 39.1572 19.1618 39.3193 19.2589C39.1248 19.5503 39.1248 19.5503 39.1248 19.9063C39.0275 19.8739 38.9627 19.9387 38.9627 20.0358C38.9627 20.1329 38.9627 20.2624 39.1248 20.23C39.1896 20.4889 38.9627 20.6508 38.8979 20.8773C38.8655 20.9744 38.7682 21.0392 38.671 21.1363V21.6865C38.7682 21.7189 38.8331 21.7189 38.9303 21.7513C38.9627 21.816 38.9627 21.8808 38.9951 21.9455C38.9627 21.9779 38.9627 22.0102 38.9303 22.0426C38.4441 22.5605 37.9254 23.046 37.4392 23.5639C37.3744 23.5639 37.342 23.5639 37.2771 23.5639C36.9854 23.8552 36.6937 24.1141 36.4344 24.4378C36.175 24.7615 35.7861 24.891 35.5267 25.1823C35.2674 25.1499 35.2998 25.3765 35.1702 25.506C35.1053 25.6031 35.0081 25.7649 34.846 25.6678C34.5219 26.0238 34.1977 26.3475 33.8736 26.6712H33.7115C33.4198 26.9302 33.1929 27.2862 32.8039 27.448C32.7715 27.4804 32.7391 27.5128 32.6742 27.5775C32.577 27.6746 32.7066 27.8688 32.4797 27.8688C32.3501 27.8688 32.3177 27.9983 32.2204 28.0307C32.1556 28.063 32.0583 28.063 31.9935 28.0954C31.8639 28.1925 31.7666 28.322 31.637 28.4514C31.5073 28.5486 31.4425 28.678 31.248 28.7104C31.1183 28.7428 31.0211 28.9046 30.8914 29.0341H30.7293C30.6969 29.1312 30.6645 29.2283 30.6321 29.3254C30.5673 29.3254 30.5024 29.3578 30.4052 29.3901C30.3079 29.5843 30.2107 29.8109 30.1135 30.0051C30.0486 30.0051 30.0162 30.0051 29.9838 30.0375C29.6596 30.3612 29.3679 30.6848 29.0113 31.0085V31.0733C28.8493 31.2027 28.6224 31.1704 28.5575 31.4293C28.6548 31.5264 28.752 31.4617 28.8493 31.494C28.6872 31.8177 28.6872 31.8177 28.6872 32.1414C28.6548 32.1738 28.5575 32.1738 28.5575 32.2061C28.5251 32.3032 28.6224 32.3356 28.6872 32.3032V32.5622C28.5575 32.6917 28.4279 32.8211 28.2334 32.8535C28.1037 32.8859 28.0389 33.1124 27.812 33.1448C27.7472 33.1124 27.6823 33.0477 27.5851 32.983C27.5203 33.1448 27.3258 33.1124 27.1961 33.2095V33.4037C27.2285 33.4361 27.2609 33.4685 27.2609 33.4685C27.4878 33.4685 27.7472 33.4685 27.9741 33.4685C27.9092 33.8245 27.5527 33.8245 27.3258 33.954C27.1961 34.0187 27.0016 33.9864 26.9044 34.1482C26.7423 34.1158 26.6775 34.2453 26.5802 34.3101C26.4506 34.4395 26.1264 34.569 25.8023 34.6337C25.7699 34.6337 25.705 34.6985 25.6726 34.7308C25.6402 34.7632 25.6402 34.7632 25.5754 34.8279C25.4781 34.7308 25.4133 34.6337 25.316 34.5366C25.3485 34.4395 25.3809 34.3748 25.4457 34.3101C25.4781 34.2777 25.4781 34.2453 25.5105 34.1806C25.4133 34.1806 25.3485 34.1482 25.2836 34.1482C25.0891 34.3424 25.2836 34.569 25.154 34.7632C25.0243 34.7632 24.9595 34.6014 24.8947 34.569C24.8622 34.4719 24.8622 34.4072 24.8298 34.3101H24.4408C24.376 34.4072 24.2788 34.5366 24.1815 34.6985C24.0519 34.5366 23.9222 34.4395 23.825 34.3101C23.7277 34.1806 23.6953 34.0511 23.5981 33.8569V33.598C23.5332 33.5332 23.5008 33.4685 23.436 33.4361V33.1124C23.5008 33.0477 23.5332 32.983 23.5981 32.9182V32.6593C23.5981 32.6269 23.5981 32.5945 23.5981 32.5945C23.7601 32.4003 23.9222 32.2385 24.0843 32.0443C24.2139 31.8501 24.2464 31.6235 24.4408 31.4293C24.376 31.3969 24.2788 31.3646 24.2139 31.3322C24.0843 31.4617 23.987 31.6235 23.8574 31.6559C23.7277 31.6882 23.5981 31.7206 23.5332 31.8501C23.436 32.0119 23.2415 31.9472 23.1442 32.0767C23.1118 32.1738 23.1118 32.2385 23.0794 32.3032C22.9498 32.3356 22.8201 32.3356 22.658 32.368C22.658 32.4327 22.6256 32.5298 22.5932 32.6269C22.5284 32.6593 22.3987 32.6593 22.3339 32.724C22.2366 32.7888 22.1394 32.9182 22.0421 33.0153H21.3938C21.329 33.0801 21.2642 33.1124 21.1994 33.1772H20.8752C20.8104 33.1124 20.7455 33.0801 20.7131 33.0153C20.5835 33.1124 20.6483 33.2743 20.6483 33.4037C20.4862 33.5009 20.2917 33.598 20.1621 33.7598C20 33.9216 20 34.1482 19.8379 34.2777C19.8703 34.4719 19.6758 34.5366 19.611 34.6661H19.1248C19.06 34.7308 18.9627 34.8279 18.8979 34.8927C18.8979 35.0221 18.8655 35.1516 18.8655 35.3135C18.6386 35.2164 18.4765 35.1192 18.2496 34.9898C18.2496 35.2164 18.2172 35.3782 18.2172 35.5724C18.0875 35.6371 18.0551 35.799 17.893 35.799V35.54C17.6985 35.3458 17.5041 35.54 17.2771 35.4429C17.2447 35.5724 17.2447 35.6371 17.2123 35.7342C17.1475 35.7666 17.0502 35.799 16.9206 35.8313C16.9206 35.9608 16.8882 36.0903 16.8882 36.2198C16.8233 36.2845 16.7261 36.3816 16.6613 36.4463C16.5316 36.414 16.4019 36.5111 16.2723 36.3816C16.3047 36.3169 16.3695 36.2845 16.4019 36.2198C16.2075 36.0903 16.2075 36.0903 15.9481 36.3816C15.9806 36.414 16.013 36.4463 16.0778 36.5111C16.175 36.6729 16.0778 36.8671 16.1426 37.0613C15.9481 37.2555 15.6888 37.0613 15.5267 37.1908C15.4619 37.3526 15.8185 37.385 15.6888 37.5145C15.5267 37.7087 15.4295 37.644 15.3323 37.644V37.385C15.2674 37.3526 15.1702 37.2879 15.1378 37.3203C14.9433 37.4821 14.6515 37.4821 14.5543 37.7411C14.5867 37.8058 14.6515 37.8382 14.684 37.9029C14.5543 38.0324 14.4246 37.9353 14.2626 37.9676C14.2301 37.8705 14.1977 37.7734 14.1653 37.6763C14.0032 37.5792 13.8088 37.644 13.6143 37.644C13.517 37.7411 13.4198 37.8382 13.2901 37.9676C13.2253 37.9676 13.0956 37.9676 12.9335 38C12.9011 37.9353 12.8363 37.8058 12.7715 37.7087C12.8039 37.6763 12.8363 37.644 12.9011 37.5468C12.8687 37.2879 12.6094 37.1908 12.4797 36.9966C12.3825 36.9642 12.3177 36.9642 12.2528 36.9319C12.4149 36.77 12.6094 36.6082 12.7066 36.4787C12.7066 36.3169 12.7066 36.2198 12.7066 36.1227C12.8039 36.0903 12.966 36.1874 13.0308 36.0256C12.9335 35.9608 12.9011 35.8313 12.7391 35.8313C12.7391 35.9284 12.7391 36.0256 12.7066 36.1227C12.5122 36.1227 12.4473 36.3816 12.2853 36.4463C12.188 36.2521 12.0908 36.0256 11.9935 35.8313C11.9287 35.8313 11.8963 35.799 11.8314 35.799C11.637 35.8961 11.4749 35.9932 11.2804 36.1227C11.1831 35.9932 11.0535 35.8637 10.8914 35.6695V35.2164C10.9238 35.0869 11.0535 35.1192 11.1831 35.1192C11.2156 35.0545 11.2156 34.9574 11.248 34.8603C11.2804 34.8279 11.3452 34.7632 11.41 34.6985C11.3452 34.6661 11.248 34.6337 11.1507 34.6014C11.0535 34.7308 10.9562 34.8603 10.859 34.9898C10.7618 34.8927 10.6969 34.8603 10.6645 34.7956H10.47C10.4376 34.8603 10.4376 34.925 10.3728 35.0545C10.5024 35.1516 10.6321 35.2487 10.7618 35.3458C10.7293 35.4106 10.6969 35.4429 10.6645 35.4429C10.4052 35.4753 10.1459 35.4753 9.88655 35.4753C9.7893 35.4106 9.69206 35.3458 9.62723 35.3135C9.40032 35.2487 9.33549 35.6371 9.10859 35.4106C9.10859 35.3782 9.141 35.3458 9.141 35.3135C9.23825 35.184 9.23825 35.184 9.141 34.9898C9.10859 35.0221 9.07617 35.0545 9.01134 35.1192C8.94652 35.0869 8.88169 35.0221 8.78444 34.9898C8.62237 34.925 8.58995 35.1516 8.42788 35.1516C8.2658 35.0869 8.10373 34.9898 7.94165 34.8927C8.0389 34.7956 8.10373 34.7308 8.20097 34.6337C8.33063 34.6985 8.46029 34.7632 8.62237 34.8279C8.81686 34.7308 8.9141 34.5366 9.07617 34.4072V34.2129C9.141 34.1806 9.20583 34.1482 9.30308 34.1158C9.40032 34.1806 9.46515 34.2777 9.5624 34.3424C9.5624 34.4719 9.59481 34.6014 9.59481 34.6985C9.65964 34.7956 9.75689 34.8603 9.85413 34.9574C9.88655 34.7632 9.91896 34.6337 9.95138 34.4719C10.0162 34.4719 10.081 34.4395 10.1783 34.4072C10.2107 34.3424 10.2107 34.2777 10.2431 34.1806C10.1135 34.1158 10.0162 34.0835 9.88655 34.0187V33.8569C9.95138 33.7274 10.0486 33.7598 10.1783 33.7598C10.2755 33.7598 10.4052 33.7598 10.3728 33.598C10.4052 33.5656 10.47 33.5656 10.5024 33.5332C10.5673 33.5009 10.6321 33.4685 10.6969 33.4037C10.7293 33.5009 10.6969 33.6303 10.859 33.5332C10.8266 33.5009 10.7618 33.4685 10.6969 33.4037C10.6969 33.4037 10.7293 33.3714 10.6969 33.339C10.6969 33.3066 10.6645 33.2743 10.6321 33.2743C10.4052 33.3066 10.2107 33.1448 9.98379 33.0801C9.88655 33.0477 9.75689 33.0801 9.69206 33.0801C9.49757 33.2743 9.33549 33.4361 9.141 33.6303C8.94652 33.4037 8.78444 33.2095 8.6872 33.0801H8.39546C8.36305 32.9506 8.52512 32.9182 8.55754 32.8211C8.49271 32.7564 8.39546 32.6593 8.33063 32.5945H8.16856C8.13614 32.6917 8.07131 32.8211 8.00648 32.9182C7.97407 32.8859 7.90924 32.8211 7.87682 32.7564C7.6175 32.8859 7.35818 32.983 7.13128 33.1448C6.96921 33.2419 6.83955 33.2095 6.64506 33.1772C6.67747 33.0801 6.7423 33.0153 6.80713 32.9182C6.64506 32.8859 6.48298 32.8859 6.32091 32.8535C6.38574 32.7564 6.41815 32.724 6.48298 32.6593C6.41815 32.5945 6.38574 32.4974 6.32091 32.4003C6.38574 32.3032 6.45057 32.2385 6.5154 32.1414C6.48298 32.0767 6.41815 32.0443 6.35332 31.9796C6.32091 31.7206 6.61264 31.6559 6.64506 31.4617C6.48298 31.3322 6.28849 31.4293 6.06159 31.3969C6.02917 31.5588 5.99676 31.7206 5.96434 31.9148C5.76985 31.7206 5.96434 31.4293 5.70502 31.3322V30.8143C5.73744 30.7496 5.80227 30.7172 5.8671 30.6525C5.73744 30.523 5.60778 30.3935 5.4457 30.2317H5.15397C5.05673 30.1993 5.02431 30.0375 4.89465 30.0698C4.92707 29.9404 4.76499 29.908 4.73258 29.8109V29.4872C4.76499 29.4549 4.82982 29.3901 4.86224 29.3577V29.0017C4.82982 28.9693 4.79741 28.937 4.73258 28.8722V28.063C4.79741 27.9336 4.86224 27.8041 4.92707 27.6422C5.18639 27.5128 5.47812 27.448 5.67261 27.1891C5.54295 27.1244 5.41329 27.0596 5.2188 26.9625H4.95948C4.86224 27.0596 4.86224 27.2215 4.70016 27.1891C4.70016 27.0596 4.63533 27.0273 4.53809 27.0596C4.50567 26.9625 4.53809 26.833 4.37601 26.9302C4.40843 26.9625 4.47326 26.9949 4.53809 27.0596C4.53809 27.1567 4.5705 27.2215 4.70016 27.1891V27.448C4.63533 27.5128 4.53809 27.6099 4.47326 27.6746C4.40843 27.6099 4.31118 27.5775 4.24635 27.5128C4.11669 27.5775 3.95462 27.6422 3.79254 27.7394C3.76013 27.6099 3.76013 27.5128 3.72771 27.4157C3.85737 27.3509 3.95462 27.3186 4.05186 27.2862C3.76013 27.092 3.43598 27.0273 3.20908 26.7683C3.20908 26.7036 3.24149 26.6388 3.24149 26.5094C3.33874 26.5741 3.37115 26.6065 3.43598 26.6712C3.56564 26.6065 3.6953 26.5417 3.85737 26.477C3.85737 26.3475 3.88979 26.2181 3.88979 26.121C3.95462 26.0238 4.05186 25.9591 4.11669 25.8944H4.63533C4.66775 25.8296 4.66775 25.7325 4.70016 25.7002C4.86224 25.506 5.02431 25.3441 5.18639 25.1499V24.9881C5.28363 24.9233 5.41329 24.891 5.51053 24.8262C5.51053 24.7291 5.51053 24.6644 5.47812 24.5673C5.57536 24.5349 5.70502 24.5673 5.60778 24.4055C5.57536 24.4378 5.54295 24.5026 5.47812 24.5673C5.41329 24.5349 5.34846 24.632 5.31605 24.6644C5.2188 24.7615 5.12156 24.7291 5.02431 24.632C5.08914 24.5673 5.12156 24.5026 5.18639 24.4378C5.12156 24.3731 5.02431 24.3083 4.92707 24.2436C4.76499 24.4378 4.60292 24.632 4.3436 24.9557V25.506C4.18152 25.5707 4.01945 25.6031 3.9222 25.7325H3.43598C3.40357 25.7002 3.33874 25.6354 3.30632 25.6031C3.14425 25.6354 3.07942 25.7973 2.94976 25.8944H2.49595C2.43112 25.7973 2.33387 25.6678 2.23663 25.5707H1.94489V25.3118C2.1718 25.2146 2.3987 25.0852 2.59319 24.9881C2.62561 24.8262 2.52836 24.7615 2.46353 24.6968C2.3987 24.632 2.36629 24.5026 2.33387 24.4055C2.33387 24.3083 2.26904 24.2112 2.26904 24.1465C2.23663 24.0494 2.30146 23.9199 2.1718 23.8552C2.13938 23.9523 2.10697 24.0494 2.07455 24.1789C1.94489 24.1789 1.81523 24.2112 1.68558 24.2112C1.65316 24.3083 1.62075 24.4055 1.58833 24.5349C1.49109 24.5349 1.36143 24.5673 1.2966 24.5349C1.03728 24.3731 0.713128 24.276 0.518639 23.9523C0.518639 23.8876 0.486224 23.7581 0.486224 23.5963C0.421394 23.5963 0.356564 23.5639 0.259319 23.5315C0.162075 23.4668 0.0648298 23.3697 0 23.3049V22.7547C0.0972447 22.7223 0.162075 22.7223 0.259319 22.6899C0.518639 22.431 0.777958 22.1397 1.06969 21.8807H1.23177C1.2966 21.816 1.36143 21.7836 1.42626 21.7189H1.75041C1.78282 21.6218 1.78282 21.5247 1.84765 21.4276C1.91248 21.3305 1.97731 21.2658 1.94489 21.1363C1.91248 21.0716 1.84765 21.0392 1.78282 20.9744V20.7155C1.88006 20.7479 1.94489 20.8126 2.04214 20.8773C2.23663 20.7155 2.04214 20.586 1.94489 20.4566V20.0681H2.20421C2.26904 19.971 2.30146 19.8416 2.36629 19.7445C2.43112 19.7445 2.49595 19.7445 2.52836 19.7445C2.59319 19.7445 2.62561 19.7445 2.69044 19.7445C2.72285 19.7445 2.72285 19.6797 2.75527 19.615C2.56078 19.615 2.36629 19.5826 2.20421 19.5826C2.10697 19.5503 2.07455 19.356 1.94489 19.5179V20.0681H1.68558C1.62075 20.0034 1.55592 19.971 1.49109 19.9063H1.16694C1.06969 19.7445 1.06969 19.7121 1.2966 19.4855C1.23177 19.4208 1.19935 19.356 1.13452 19.2913C1.2966 19.2589 1.45867 19.2266 1.62075 19.1942C1.62075 18.9676 1.39384 19.1295 1.36143 19.0324C1.2966 18.8705 1.13452 18.9676 1.03728 18.8705C0.972447 18.7087 1.06969 18.4821 0.842788 18.3526C0.907617 18.2879 0.940032 18.2232 1.00486 18.1584V17.8348C0.907617 17.77 0.777958 17.7376 0.680713 17.6729C0.777958 17.5758 0.842788 17.5111 0.907617 17.4463C1.13452 17.4787 1.2966 17.3816 1.49109 17.2845C1.65316 17.1874 1.81523 17.1227 1.97731 17.0579C1.81523 16.8313 1.71799 16.6695 1.62075 16.4429V15.9898C1.68558 15.925 1.71799 15.8603 1.78282 15.7956V15.4719C1.94489 15.3101 2.10697 15.1482 2.23663 14.9864C2.23663 14.9864 2.23663 14.954 2.20421 14.9216C2.07455 14.9216 1.94489 14.8893 1.71799 14.8569C2.10697 14.598 2.1718 14.2095 2.36629 13.9182C2.56078 13.8859 2.75527 13.9506 2.94976 13.8535C2.8201 13.724 2.72285 13.5945 2.59319 13.4327C2.65802 13.3356 2.72285 13.2385 2.78768 13.1414C2.78768 12.9472 2.78768 12.7206 2.78768 12.494C2.78768 12.4617 2.75527 12.4617 2.72285 12.4293C2.65802 12.4617 2.62561 12.5264 2.52836 12.5911C2.49595 12.5264 2.46353 12.4617 2.43112 12.4293C2.52836 12.2027 2.72285 12.1056 2.85251 11.9438C3.07942 11.9761 3.14425 11.7496 3.33874 11.6201H3.98703C4.05186 11.4259 4.14911 11.2641 4.27877 11.1346C4.40843 10.9727 4.63533 11.0051 4.73258 10.8433C4.82982 10.6814 5.05673 10.6491 5.18639 10.552C5.12156 10.4872 5.08914 10.4225 5.02431 10.3901V10.0664C5.18639 9.96934 5.31605 9.87223 5.51053 9.83986C5.73744 9.8075 5.76985 9.54855 5.93193 9.51618C6.15883 9.48382 6.22366 9.32198 6.41815 9.1925C6.48298 9.1925 6.61264 9.1925 6.70989 9.1925C6.83955 9.0954 6.96921 9.03066 7.00162 8.83646C7.03404 8.57751 7.26094 8.54515 7.45543 8.48041C7.48784 8.41567 7.48784 8.31857 7.52026 8.25383C7.64992 8.15673 7.77958 8.22146 7.90924 8.1891C8.0389 8.02726 8.0389 7.70358 8.33063 7.70358C8.42788 7.70358 8.49271 7.57411 8.58995 7.50937C8.88169 7.21806 9.17342 6.92675 9.46515 6.63543V6.47359C9.52998 6.40886 9.62723 6.31175 9.69206 6.24702C9.88655 6.24702 10.0486 6.18228 10.2431 6.27939C10.2431 6.40886 10.2755 6.53833 10.2755 6.70017C10.47 6.76491 10.6645 6.76491 10.8914 6.70017C10.8914 6.6678 10.8914 6.63543 10.8914 6.63543C10.7293 6.47359 10.5997 6.31175 10.4376 6.18228C10.5024 6.11755 10.5348 6.05281 10.5997 6.02044C10.5997 5.95571 10.5997 5.92334 10.5997 5.82623C10.6969 5.79387 10.7942 5.7615 10.8914 5.72913C10.9238 5.63203 10.9562 5.53492 10.9887 5.43782C11.0535 5.43782 11.1183 5.43782 11.1831 5.43782C11.248 5.34071 11.2804 5.21124 11.3452 5.11414H11.5073C11.5721 5.17888 11.637 5.21124 11.6694 5.27598C11.799 5.30835 11.8639 5.21124 11.9611 5.14651C12.0259 5.08177 12.1556 5.08177 12.2528 5.0494V4.69336C12.4473 4.49915 12.6418 4.30494 12.8363 4.11073C12.9011 4.17547 12.9984 4.27257 13.0956 4.36968C12.9335 4.53152 12.7391 4.69336 12.577 4.82283C12.6742 4.91993 12.7391 4.98467 12.8039 5.08177C12.9984 4.88756 13.1929 4.69336 13.3874 4.49915V4.17547C13.4522 4.11073 13.4846 4.046 13.5494 4.01363C13.517 3.98126 13.4522 3.91652 13.4198 3.88416C13.4198 3.85179 13.4198 3.81942 13.4198 3.81942C13.7115 3.59284 13.7763 3.13969 14.1653 2.94549H14.6191C14.7164 2.84838 14.8136 2.71891 14.9109 2.58944C15.0081 2.65417 15.0405 2.71891 15.1053 2.78365C15.1378 2.75128 15.1702 2.68654 15.235 2.65417C15.3647 2.62181 15.4619 2.88075 15.624 2.75128C15.624 2.58944 15.6564 2.58944 15.6564 2.55707C15.6564 2.33049 15.6564 2.10392 15.6564 1.90971C15.8833 1.81261 16.0778 1.6184 16.3695 1.65077C16.4668 1.55366 16.5964 1.42419 16.7261 1.32709C16.7909 1.39182 16.8882 1.48893 16.953 1.55366C16.9206 1.6184 16.8558 1.68313 16.7909 1.74787C16.9206 1.81261 17.0502 1.87734 17.2123 1.97445C17.5041 1.74787 17.5689 1.39182 17.6337 1.03578C17.7634 0.971039 17.893 1.00341 18.0227 1.00341C18.0875 1.16525 18.1848 1.32709 18.2496 1.48893C18.1848 1.52129 18.1199 1.55366 18.0875 1.58603C18.0551 1.65077 18.0875 1.74787 18.0875 1.81261C17.9254 1.84497 17.7634 1.78024 17.6013 1.87734C17.6661 1.90971 17.731 1.94208 17.7958 1.97445C17.8606 1.97445 17.9579 1.97445 17.9254 2.10392C17.8282 2.13629 17.731 2.16865 17.6013 2.23339C17.731 2.29813 17.8606 2.36286 17.9579 2.39523C17.893 2.45997 17.8282 2.5247 17.8282 2.5247C17.731 2.71891 17.8606 2.84838 17.6985 2.97785H17.5041C17.4716 2.68654 17.2123 2.5247 17.0502 2.33049C16.7585 2.33049 16.4668 2.33049 16.175 2.33049C16.1426 2.33049 16.0778 2.29813 16.013 2.26576C15.9806 2.26576 15.9481 2.10392 15.8509 2.20102C15.8509 2.36286 15.7536 2.5247 15.9157 2.65417C16.0778 2.71891 16.1426 2.55707 16.2399 2.49233C16.3047 2.58944 16.3371 2.71891 16.4019 2.84838C16.5316 2.78365 16.6288 2.71891 16.7261 2.65417C16.8233 2.75128 16.7585 2.84838 16.7909 2.94549C16.6937 2.97785 16.5316 2.88075 16.4668 3.04259C16.6937 3.10733 16.6937 3.10733 16.7909 2.94549C16.8882 2.88075 16.953 2.84838 16.953 2.84838C17.0827 2.91312 17.2123 2.97785 17.2771 3.01022C17.2771 3.20443 17.2447 3.30153 17.1151 3.26917C16.953 3.26917 16.953 3.36627 16.953 3.52811C17.0827 3.56048 17.0827 3.75468 17.2771 3.75468C17.3096 3.85179 17.2771 3.98126 17.4392 3.88416C17.4068 3.85179 17.342 3.81942 17.2771 3.75468C17.2771 3.68995 17.2771 3.62521 17.2771 3.52811C17.342 3.46337 17.4392 3.36627 17.5041 3.30153C17.6013 3.3339 17.6661 3.52811 17.8282 3.43101C17.893 3.39864 17.9254 3.3339 17.9903 3.26917H18.3144C18.3793 3.20443 18.4441 3.10733 18.5413 3.04259C18.6386 2.94549 18.7358 2.78365 18.8006 2.78365C19.222 2.71891 20 2.29813 20.1621 2.03918C20.1621 2.03918 20.1621 2.00681 20.1621 2.03918C20.0648 1.87734 20 1.74787 19.9352 1.58603C19.8703 1.6184 19.7731 1.6184 19.7083 1.65077C19.7731 1.7155 19.8379 1.78024 19.8703 1.84497C19.7731 1.94208 19.7083 2.07155 19.5138 2.10392C19.3517 2.13629 19.222 2.26576 19.06 2.36286C18.9303 2.4276 18.8006 2.49233 18.6386 2.55707C18.3793 2.36286 18.2172 2.07155 18.0875 1.74787C18.1523 1.7155 18.2172 1.68313 18.2496 1.65077C18.282 1.58603 18.2496 1.48893 18.2496 1.42419C18.3144 1.42419 18.4117 1.39182 18.4765 1.42419C18.5413 1.45656 18.5413 1.52129 18.5737 1.58603C18.4117 1.58603 18.4117 1.68313 18.4117 1.78024C18.4117 1.90971 18.3468 2.07155 18.5737 2.03918C18.6062 2.13629 18.5737 2.26576 18.7358 2.16865C18.7034 2.13629 18.6386 2.10392 18.5737 2.03918C18.5737 1.90971 18.5737 1.7155 18.5737 1.55366C18.7358 1.52129 18.8331 1.39182 18.8979 1.26235C18.8979 1.19762 18.8979 1.13288 18.8655 1.10051C18.7682 1.03578 18.6386 1.03578 18.5089 0.938671C18.3793 0.841567 18.4441 0.679727 18.3468 0.582623C18.3144 0.550255 18.282 0.517888 18.2496 0.48552C18.3793 0.356048 18.5089 0.226576 18.6386 0.0647359C18.7358 0.226576 18.8006 0.291312 18.8331 0.32368H19.1896C19.222 0.226576 19.2545 0.129472 19.2869 0C19.3517 0.0647359 19.4489 0.129472 19.5138 0.16184C19.611 0.194208 19.7083 0.16184 19.8055 0.16184C19.8379 0.194208 19.8703 0.226576 19.9028 0.258944C19.9352 0.388416 19.8703 0.453152 19.8055 0.550256C19.7407 0.614991 19.7407 0.744463 19.7083 0.809199C19.6434 0.809199 19.5786 0.809199 19.5138 0.841567C19.4165 0.971039 19.3193 1.13288 19.2545 1.29472C19.222 1.35945 19.2869 1.42419 19.3193 1.52129C19.3841 1.45656 19.4165 1.42419 19.4489 1.35945C19.5786 1.32709 19.7407 1.32709 19.9028 1.29472C19.8379 1.19761 19.7731 1.13288 19.7083 1.06814C19.8055 1.00341 19.9352 0.971039 20.0324 0.906303C20.1297 0.841567 20.2269 0.712095 20.3241 0.614991C20.4214 0.679727 20.5186 0.744463 20.6159 0.809199C20.6807 0.776831 20.778 0.712095 20.8752 0.679727V1.10051C20.94 1.16525 20.9724 1.22998 21.0373 1.26235C20.9724 1.35945 20.8752 1.42419 20.8104 1.48893H20.3241C20.2269 1.55366 20.1945 1.65077 20.2593 1.78024C20.3566 1.87734 20.5186 1.81261 20.6159 1.84497C20.7131 1.90971 20.8104 1.97445 20.8752 2.03918C21.1021 1.94208 21.1994 1.7155 21.3614 1.6184C21.3938 1.52129 21.3938 1.45656 21.4263 1.35945H21.8152C21.8801 1.22998 21.9773 1.10051 22.0421 1.00341H22.3015C22.3663 0.906303 22.3987 0.776831 22.4635 0.679727C22.5284 0.744463 22.5932 0.776831 22.6256 0.841567C22.6904 0.776831 22.7553 0.744463 22.8201 0.679727C23.047 0.712095 23.2415 0.971039 23.5008 0.809199C23.5981 0.712095 23.436 0.712095 23.436 0.647359C23.2739 0.48552 23.3387 0.356048 23.3387 0.258944C23.436 0.16184 23.5008 0.0971039 23.5656 0C23.7925 0.16184 23.8574 0.420784 23.987 0.679727C23.9222 0.744463 23.8898 0.841567 23.7925 0.938671C23.8898 1.13288 23.987 1.35945 24.1167 1.58603C24.0194 1.68313 23.9222 1.78024 23.825 1.87734V2.26576C23.9546 2.36286 24.0194 2.33049 24.1167 2.26576C24.3112 2.16865 24.2464 1.94208 24.4084 1.81261C24.5381 1.68313 24.7326 1.58603 24.6353 1.39182C24.8622 1.29472 24.9271 1.42419 25.0243 1.52129C25.154 1.52129 25.2836 1.52129 25.4457 1.52129V1.78024C25.3809 1.84497 25.3485 1.90971 25.2512 1.97445C25.4133 2.00681 25.5754 2.03918 25.705 2.03918C25.8023 2.16865 25.7374 2.29813 25.7374 2.45997C25.6402 2.49233 25.5429 2.5247 25.4457 2.55707C25.5105 2.71891 25.6078 2.84838 25.6726 3.01022H25.7374C25.705 3.10733 25.7699 3.2368 25.6726 3.30153C25.5754 3.3339 25.4781 3.36627 25.2836 3.43101C25.5754 3.52811 25.7699 3.52811 25.9643 3.49574C26.0616 3.39864 26.1264 3.3339 26.1912 3.26917V2.97785C26.2885 2.97785 26.3533 2.91312 26.3533 2.81601H26.5802C26.7099 3.04259 26.7747 3.30153 27.0016 3.46337C27.0665 3.43101 27.0989 3.36627 27.1637 3.30153H27.6499C27.6823 3.26917 27.7147 3.2368 27.7796 3.17206C27.8444 3.20443 27.9092 3.26917 28.0065 3.3339C28.2334 3.30153 28.3955 3.04259 28.6872 3.2368C28.6548 3.30153 28.59 3.36627 28.5251 3.46337C28.4927 3.65758 28.6872 3.72232 28.7844 3.85179H29.1086C29.1734 3.78705 29.2383 3.75468 29.2707 3.68995C29.3355 3.68995 29.3679 3.68995 29.4327 3.68995C29.5624 3.78705 29.4652 3.94889 29.4976 4.07836C29.3355 4.30494 29.141 4.1431 28.8817 4.20784C28.8493 4.27257 28.752 4.40204 28.7196 4.46678C28.5575 4.49915 28.4603 4.53152 28.3955 4.53152C28.4279 4.56388 28.4279 4.62862 28.4279 4.66099C28.4927 4.75809 28.5251 4.88756 28.59 5.01704C28.6224 4.98467 28.6872 4.91993 28.7196 4.88756C28.8169 4.79046 28.9789 4.88756 29.0762 4.8552C29.141 4.91993 29.1734 4.9523 29.2382 5.01704C29.4003 5.01704 29.5948 5.0494 29.7893 5.0494C29.8217 5.11414 29.8217 5.21124 29.8541 5.27598C29.7245 5.34071 29.5624 5.43782 29.4327 5.50256C29.4003 5.47019 29.3355 5.43782 29.2707 5.37308C29.2058 5.43782 29.1734 5.47019 29.1086 5.53492C29.0438 5.47019 29.0113 5.43782 28.9141 5.37308C28.8817 5.47019 28.8817 5.53492 28.8493 5.63203C28.6548 5.72913 28.4279 5.82623 28.2334 5.95571C28.3306 6.11755 28.4927 6.02044 28.6224 6.05281C28.6872 5.98807 28.752 5.95571 28.8169 5.89097C28.8493 5.92334 28.8817 5.95571 28.9141 5.98807C28.9465 6.18228 28.8169 6.37649 29.0438 6.5707C29.0762 6.40886 29.0762 6.24702 29.141 6.08518C29.2058 5.95571 29.3031 5.82623 29.4003 5.66439C29.4976 5.72913 29.5948 5.7615 29.7245 5.8586C29.7569 5.7615 29.8217 5.59966 29.8541 5.56729C30.0486 5.56729 30.1135 5.56729 30.2107 5.53492C30.2431 5.43782 30.2755 5.37308 30.3079 5.27598C30.3404 5.24361 30.4052 5.21124 30.4376 5.21124C30.5348 5.21124 30.6645 5.21124 30.7618 5.21124V5.47019C30.6969 5.53492 30.5997 5.63203 30.5348 5.69676C30.4052 5.69676 30.2755 5.72913 30.1135 5.72913C30.1783 5.82624 30.2107 5.8586 30.2755 5.95571C30.2431 5.98807 30.2107 6.05281 30.1459 6.14991V6.79727C30.0162 6.89438 29.919 6.89438 29.8217 6.79727C29.8541 6.73254 29.919 6.70017 29.9514 6.63543C29.919 6.5707 29.8541 6.53833 29.8217 6.47359C29.7893 6.34412 29.8541 6.21465 29.7893 6.08518C29.6272 6.11755 29.5948 6.24702 29.4976 6.31175C29.4327 6.47359 29.5948 6.53833 29.6596 6.63543C29.53 6.76491 29.4003 6.6678 29.2382 6.70017C29.2058 6.76491 29.1734 6.82964 29.1734 6.86201C29.4327 7.12095 29.6596 7.34753 29.8865 7.57411C29.7245 7.73595 29.6272 7.89779 29.4976 7.96252C29.3355 8.05962 29.4003 8.2862 29.2707 8.3833H28.9465C28.8817 8.44804 28.8169 8.48041 28.7844 8.54514H28.4279C28.3955 8.70698 28.363 8.83646 28.363 8.9983C28.1037 9.12777 27.8444 8.96593 27.5851 9.0954C27.6499 9.16014 27.6823 9.22487 27.7472 9.28961C27.6823 9.38671 27.6499 9.45145 27.6175 9.54855C27.5203 9.58092 27.3906 9.54855 27.4878 9.71039C27.5203 9.67802 27.5527 9.61329 27.6175 9.54855C27.7147 9.54855 27.8768 9.54855 28.0065 9.54855C28.1037 9.45145 28.201 9.35434 28.2982 9.25724C28.59 9.25724 28.8169 9.0954 29.0762 9.03066V8.80409C29.141 8.77172 29.2058 8.73935 29.3031 8.73935C29.4003 8.90119 29.4652 9.03066 29.5624 9.1925C29.53 9.22487 29.4976 9.25724 29.4003 9.35434C29.4976 9.38671 29.5948 9.45145 29.6921 9.48382C29.7569 9.61329 29.8865 9.58092 30.0162 9.58092C30.081 9.45145 30.2431 9.41908 30.2431 9.25724C30.3728 9.22487 30.4052 9.38671 30.5024 9.41908C30.5673 9.41908 30.6645 9.45145 30.7293 9.41908C30.9887 9.25724 31.3128 9.25724 31.5721 9.0954C31.7018 9.03066 31.8314 8.90119 31.9611 8.77172C32.0259 8.83646 32.0908 8.93356 32.188 9.06303C32.0908 9.12777 31.9611 9.22487 31.8639 9.28961C31.8963 9.48382 31.8314 9.61329 31.9287 9.74276C32.0583 9.71039 32.1556 9.48382 32.3501 9.67802C32.3177 9.74276 32.2528 9.83986 32.188 9.93697C32.2204 10.0017 32.2528 10.0988 32.2853 10.1312C32.5122 10.1959 32.7066 10.3254 32.9335 10.4549C32.9011 10.4549 32.9335 10.4549 32.9335 10.4549C33.0956 10.293 33.2577 10.1312 33.3874 9.96933C33.4846 9.96933 33.6467 10.0017 33.7115 9.96933C33.906 9.8075 34.1977 9.77513 34.3274 9.51618C34.4571 9.48382 34.5867 9.48382 34.7164 9.45145C34.7488 9.45145 34.7488 9.35434 34.7812 9.32198C35.1054 9.38671 35.2674 9.06303 35.5916 9.03066C35.6564 9.06303 35.7212 9.28961 35.9157 9.28961C35.9481 9.38671 35.9157 9.51618 36.0778 9.41908C36.0454 9.38671 35.9806 9.35434 35.9157 9.28961C35.9157 9.22487 35.9157 9.16014 35.9157 9.06303C35.8509 8.9983 35.8185 8.93356 35.7536 8.90119C35.8509 8.77172 36.013 8.83646 36.1426 8.83646C36.2399 8.67462 36.3695 8.51278 36.4668 8.35094H37.342C37.4068 8.41567 37.4716 8.51278 37.5365 8.57751C37.4716 8.70698 37.4068 8.83646 37.342 8.9983C37.2771 8.9983 37.2123 8.9983 37.1151 9.03066C37.0827 8.86882 37.0827 8.70698 37.0502 8.51278C36.953 8.54514 36.8558 8.54514 36.7261 8.57751C36.7909 8.64225 36.8558 8.67462 36.8558 8.70698C36.9854 8.90119 36.8558 9.0954 36.9206 9.25724C36.7585 9.41908 36.6288 9.54855 36.4992 9.67802C36.4019 9.71039 36.2723 9.61329 36.2723 9.8075C36.4344 9.93697 36.6288 9.8075 36.8558 9.9046C36.8882 9.93697 36.9854 10.0341 37.0502 10.0988C37.0827 10.2606 37.0827 10.3578 36.8882 10.3578C36.8558 10.3578 36.7909 10.3901 36.7261 10.4549C36.8233 10.4872 36.9206 10.5196 37.0178 10.552C37.0502 10.5843 37.0502 10.6491 37.0827 10.6814C36.953 10.6491 36.9206 10.8109 36.8233 10.8433C36.7909 10.8109 36.7585 10.7785 36.6937 10.7138C36.6613 10.7462 36.5964 10.7785 36.5316 10.8433C36.4668 10.8109 36.3695 10.7462 36.3047 10.7138C36.1426 10.7138 36.1426 10.7138 36.1102 10.9727C36.2075 11.1022 36.3695 11.0051 36.4992 11.0698C36.564 11.167 36.6288 11.2964 36.6937 11.4583C36.6613 11.4906 36.6288 11.5554 36.5964 11.5877C36.7909 11.879 36.8882 11.5554 37.0502 11.523C37.1151 11.523 37.2447 11.523 37.342 11.5554C37.1799 11.2964 37.1799 11.3935 37.2123 11.4259C37.1151 11.4259 37.0178 11.4259 36.8882 11.4583C36.8882 11.5877 36.9206 11.6848 36.9206 11.7819C37.0502 11.7496 37.1475 11.7172 37.2123 11.6848V11.4259ZM21.2318 11.3288C21.1994 11.1993 21.1994 11.0698 21.0697 11.1993C21.1021 11.2317 21.1669 11.2641 21.1994 11.2641C21.2318 11.3935 21.2318 11.523 21.3614 11.3935C21.2966 11.3288 21.2642 11.2964 21.2318 11.3288ZM13.4846 34.9898C13.6143 34.9574 13.7439 34.9574 13.6143 34.8279C13.5818 34.8603 13.5494 34.925 13.5494 34.9574C13.4198 34.9898 13.2901 34.9898 13.4198 35.1192C13.4846 35.0869 13.517 35.0221 13.4846 34.9898ZM35.4295 13.4327C35.3323 13.4327 35.2674 13.4974 35.2998 13.5945C35.1702 13.6269 35.0405 13.6269 35.1702 13.7564C35.2026 13.724 35.235 13.6593 35.2674 13.5945C35.3647 13.5945 35.4295 13.5298 35.3971 13.4327C35.5267 13.4003 35.6564 13.4003 35.5267 13.2709C35.4619 13.3356 35.4295 13.368 35.4295 13.4327ZM33.8412 14.4037C33.7115 14.4361 33.5818 14.4361 33.7115 14.5656C33.7439 14.5332 33.7763 14.4685 33.7763 14.4361C33.906 14.4037 34.0357 14.4037 33.906 14.2743C33.8412 14.3066 33.8088 14.3714 33.8412 14.4037ZM7.48784 19.8416C7.52026 19.971 7.52026 20.1005 7.64992 19.971C7.6175 19.9387 7.55267 19.9063 7.52026 19.9063C7.48784 19.7768 7.48784 19.6474 7.35818 19.7768C7.3906 19.8416 7.42301 19.8739 7.48784 19.8416ZM3.53323 19.7445C3.66288 19.7121 3.79254 19.7121 3.66288 19.5826C3.63047 19.615 3.59806 19.6797 3.59806 19.7121C3.4684 19.7445 3.33874 19.7445 3.4684 19.8739C3.50081 19.8416 3.56564 19.7768 3.53323 19.7445ZM36.564 14.6303C36.5316 14.5009 36.5316 14.3714 36.4019 14.5009C36.4344 14.5332 36.4992 14.5656 36.564 14.598C36.6613 14.7598 36.6613 14.7598 36.8882 14.6951C36.8233 14.5009 36.6613 14.6303 36.564 14.6303ZM11.8963 19.0647C11.8314 19.0647 11.7342 19.0324 11.6694 19.0647C11.6045 19.0971 11.6045 19.1618 11.5721 19.2266H11.1831C11.0535 19.1618 10.9887 18.9353 10.7942 19.1295C10.7942 19.1942 10.7942 19.2589 10.7618 19.3237C10.8914 19.3884 10.9887 19.4208 11.0859 19.4855V19.7445H10.6969C10.5673 19.6797 10.5024 19.4531 10.3079 19.615C10.2431 19.7445 10.2755 19.9063 10.2755 20.0681C10.1135 20.1005 9.95138 20.0358 9.7893 20.1329C9.7893 20.1976 9.82172 20.2947 9.82172 20.4242C9.91896 20.3271 9.98379 20.2947 10.0162 20.23C10.081 20.23 10.1783 20.23 10.2431 20.1976C10.2755 20.3271 10.2755 20.4566 10.4052 20.3271C10.3728 20.2947 10.3079 20.2624 10.2431 20.23V20.0681H10.8266C10.8914 19.9387 11.0535 19.9063 11.0535 19.7445C11.2804 19.6474 11.4425 19.4855 11.5397 19.2589C11.6045 19.2589 11.7018 19.2913 11.7666 19.2589C11.8314 19.1942 11.8639 19.1295 11.8963 19.0647C11.9935 19.0647 12.0583 19 12.0583 18.9029C12.188 18.9353 12.2204 18.7411 12.3177 18.7411C12.4797 18.7411 12.5446 18.644 12.6418 18.5468C12.6742 18.5145 12.6742 18.4821 12.6742 18.4497C12.5446 18.385 12.4149 18.3203 12.2853 18.2555C12.2528 18.2879 12.188 18.3526 12.1232 18.385C12.0583 18.3203 11.9935 18.2879 11.9611 18.2555C11.8639 18.3526 11.799 18.4174 11.7018 18.4821C11.8314 18.5468 11.9287 18.5792 12.0259 18.644V18.9029C11.9611 18.9029 11.8963 18.9353 11.8963 19.0647ZM34.4246 11.5877C34.3598 11.5877 34.2626 11.5554 34.1977 11.5877C34.1329 11.6201 34.1329 11.6848 34.2301 12.0085C34.1653 11.9114 34.1329 11.8143 34.0681 11.7496C34.0032 11.6848 33.906 11.6525 33.8412 11.6201C33.5818 11.879 33.3549 12.1056 33.0956 12.3646C33.1605 12.3969 33.2253 12.3969 33.2901 12.4293C33.3549 12.3646 33.4198 12.2998 33.4846 12.2675C33.5494 12.3322 33.6143 12.3646 33.6467 12.4293C33.7763 12.3969 33.906 12.494 34.0357 12.3646C34.0032 12.2998 33.9384 12.2027 33.906 12.138C34.0357 12.1056 34.1329 12.0733 34.0681 11.7496C34.1329 11.7496 34.2301 11.7819 34.295 11.7496C34.3598 11.7172 34.3598 11.6525 34.3598 11.6201C34.4895 11.5877 34.6191 11.5877 34.4895 11.4583C34.4895 11.4906 34.4571 11.5554 34.4246 11.5877ZM15.4619 3.59284C15.4943 3.72232 15.4943 3.85179 15.624 3.72232C15.5916 3.68995 15.5267 3.65758 15.4619 3.62521C15.4295 3.52811 15.5267 3.36627 15.3647 3.30153C15.3323 3.56048 15.3323 3.56048 15.4619 3.59284ZM18.6062 13.5945C18.7034 13.5945 18.8006 13.5945 18.9303 13.5945C18.9303 13.4651 18.9303 13.368 18.9627 13.2709C19.0276 13.2709 19.1248 13.2709 19.222 13.2385C19.2545 12.9796 19.2545 12.9796 18.9627 12.7853C18.9627 12.9472 18.9627 13.109 18.9303 13.2385C18.7682 13.2709 18.6386 13.4003 18.6386 13.5622C18.5089 13.5945 18.3793 13.5945 18.5089 13.724C18.5413 13.6917 18.5737 13.6593 18.6062 13.5945ZM33.6143 13.5945C33.517 13.5945 33.4198 13.5945 33.2901 13.6269C33.2901 13.7564 33.2901 13.8211 33.3225 13.9506C33.4846 13.8535 33.6143 13.7888 33.5818 13.6269C33.7115 13.5945 33.8412 13.5945 33.7115 13.4651C33.6791 13.4974 33.6467 13.5298 33.6143 13.5945ZM25.4457 10.7138C25.4781 10.8433 25.4781 10.9727 25.6078 10.8433C25.5754 10.8109 25.5105 10.7785 25.4457 10.7462C25.4133 10.6491 25.5105 10.4872 25.3485 10.4225C25.2836 10.5196 25.154 10.552 25.154 10.7138C25.2512 10.7785 25.3485 10.7785 25.4457 10.7138ZM16.564 14.0801C16.4992 14.339 16.4992 14.339 16.7585 14.6303C16.7909 14.5656 16.8233 14.4685 16.8558 14.4037C16.7585 14.3066 16.6937 14.2095 16.7261 14.598C16.5964 14.6303 16.4668 14.6303 16.5964 14.7598C16.564 14.6951 16.6288 14.6627 16.564 14.0801ZM26.094 33.8893C26.094 33.9216 26.094 33.954 26.094 33.954C26.1912 34.0187 26.2561 34.0511 26.3533 34.1158C26.4182 34.0187 26.5478 33.9864 26.5478 33.8245C26.3857 33.7922 26.2237 33.7274 26.1588 33.954C26.0292 33.9864 25.8995 33.9864 26.0292 34.1158C26.0616 34.0835 26.094 34.0511 26.094 33.8893ZM38.1848 19.8092C37.9254 19.5826 37.9254 19.5826 37.6985 19.615C37.6985 19.7121 37.731 19.8092 37.731 19.8739C37.9254 19.8739 38.0875 19.971 38.1523 19.7445C38.282 19.7121 38.4117 19.7121 38.282 19.5826C38.2496 19.615 38.2172 19.6797 38.1848 19.8092ZM31.5073 13.5945C31.41 13.5945 31.3128 13.5945 31.2156 13.6269C31.1831 14.0153 31.1831 14.0153 31.248 14.1124C31.3128 14.1124 31.3776 14.1124 31.4425 14.0801C31.5397 13.9182 31.4749 13.7564 31.5073 13.5945C31.6694 13.4974 31.6694 13.4974 31.6045 13.2709C31.41 13.3356 31.5397 13.4974 31.5073 13.5945ZM1.45867 22.8842C1.36143 22.7223 1.36143 22.7223 1.13452 22.7871C1.19935 22.9489 1.36143 22.8518 1.45867 22.8842V23.1431C1.39384 23.5315 1.10211 23.4668 0.972447 23.6286V23.9523C1.10211 24.0494 1.16694 24.2436 1.39384 24.1789C1.45867 24.0818 1.55592 23.9523 1.65316 23.8552H1.88006C1.97731 23.661 2.04214 23.4344 2.13938 23.2402C2.13938 23.2078 2.23663 23.2078 2.26904 23.1431C2.26904 23.2726 2.26904 23.402 2.43112 23.3049C2.3987 23.2726 2.33387 23.2402 2.26904 23.2078C2.23663 23.046 2.10697 22.9813 1.97731 22.8842H1.45867ZM38.3468 18.5145C38.2496 18.5145 38.1848 18.5468 38.0875 18.5468C38.0551 18.4174 38.0227 18.3203 37.9579 18.1584C37.8606 18.2879 37.7634 18.3526 37.6985 18.4497C37.731 18.6116 37.6661 18.7734 37.6985 18.8058C37.9254 18.9353 38.0551 18.8058 38.1848 18.9353C38.2172 19.0324 38.2496 19.1295 38.282 19.2266C38.3793 19.1942 38.4441 19.1942 38.5089 19.1618C38.5413 18.9676 38.4765 18.7411 38.5737 18.5792C38.671 18.4174 38.7358 18.2232 38.8331 18.0613C38.671 17.9966 38.5737 17.9319 38.3793 17.8348V18.5145H38.3468ZM3.6953 23.1431C3.53323 23.2402 3.43598 23.3049 3.30632 23.3697C3.11183 23.3697 2.85251 23.3373 2.62561 23.402C2.62561 23.6934 2.62561 23.9847 2.62561 24.2436C2.62561 24.276 2.69044 24.3083 2.69044 24.3407C2.8201 24.2112 2.98217 24.0818 3.11183 23.9523C3.11183 23.8876 3.11183 23.8228 3.11183 23.7581C3.33874 23.661 3.56564 23.5315 3.76013 23.4344C3.72771 23.3697 3.72771 23.3049 3.6953 23.1431ZM32.1232 12.9472C31.9935 13.0443 31.8963 13.109 31.8314 13.1738C31.9935 13.3356 32.2853 13.1414 32.3825 13.4003C32.4797 13.3356 32.6094 13.2709 32.7715 13.1738C32.7391 12.9796 33.128 12.7853 32.9335 12.4293C32.8039 12.494 32.6418 12.5588 32.5122 12.6235C32.4797 12.7206 32.4797 12.7853 32.4473 12.8825C32.3177 12.9148 32.2204 12.9148 32.1232 12.9472ZM15.9806 4.40204C16.0454 4.46678 16.1426 4.56388 16.2075 4.62862C16.4668 4.46678 16.5964 4.2402 16.7261 3.98126C16.8233 3.94889 16.8882 3.94889 17.0502 3.91652C16.9206 3.78705 16.8233 3.72232 16.7261 3.62521C16.5964 3.85179 16.4019 3.75468 16.2399 3.81942C16.1426 3.91652 16.0778 3.98126 16.013 4.046V4.40204H15.9806ZM27.6175 7.63884C27.9092 7.41227 28.1037 7.18569 28.201 6.82964C28.0713 6.73254 27.9741 6.82964 27.8768 6.89438C27.7796 6.95911 27.6175 6.92675 27.4878 6.95911C27.4554 7.08859 27.2609 7.08859 27.2934 7.34753C27.3582 7.41227 27.3906 7.57411 27.6175 7.63884ZM32.3825 14.0801C32.2528 14.2095 32.1232 14.3714 31.9611 14.5009C31.799 14.6303 31.5721 14.6303 31.4749 14.8893C31.5073 14.954 31.5073 15.0187 31.5397 15.0511C31.799 14.9216 32.0583 14.7922 32.3177 14.6303C32.0908 14.4361 32.7066 14.3714 32.3825 14.0801ZM30.859 10.2606C31.1507 10.0988 31.41 9.96934 31.6694 9.83986C31.5397 9.71039 31.41 9.54855 31.248 9.41908C31.1183 9.58092 30.9238 9.67802 30.8266 9.87223C30.859 10.0341 30.859 10.1312 30.859 10.2606ZM3.6953 21.7189H3.33874C3.24149 21.8484 3.047 21.8807 3.07942 22.075C3.17666 22.2368 3.27391 22.3986 3.50081 22.3663C3.53323 22.2692 3.53323 22.1721 3.59806 22.1073C3.6953 22.0102 3.79254 21.9131 3.6953 21.7189ZM13.5494 5.63203C13.7115 5.63203 13.8088 5.63203 13.906 5.63203C14.0357 5.63203 14.0681 5.43782 14.2301 5.47019C14.3274 5.50255 14.457 5.50256 14.5219 5.40545C14.3598 5.30835 14.2301 5.21124 14.0681 5.14651C13.9708 5.11414 13.8736 5.14651 13.8088 5.14651C13.7115 5.24361 13.6143 5.30835 13.5494 5.37308V5.63203ZM24.6029 2.39523C24.6677 2.55707 24.5705 2.68654 24.7002 2.81601C24.765 2.81601 24.8298 2.81601 24.8947 2.78365C24.9595 2.75128 25.0243 2.68654 25.0891 2.65417C25.154 2.62181 25.2188 2.62181 25.2836 2.58944C25.2836 2.5247 25.2836 2.45997 25.2836 2.39523C25.2836 2.33049 25.2836 2.26576 25.2512 2.10392C25.0891 2.39523 24.8622 2.29813 24.6029 2.39523ZM34.684 18.385C34.5867 18.6116 34.5867 18.6116 34.8136 18.7411C35.0729 18.5792 35.235 18.2232 35.5916 18.1584C35.4619 17.9966 35.3323 18.0937 35.1702 18.0613C35.0729 18.1584 34.9757 18.2879 34.9109 18.385H34.684ZM36.0454 17.4787C36.0454 17.5111 36.0778 17.5434 36.0778 17.5758H36.6288C36.6937 17.5111 36.7909 17.414 36.953 17.2521H36.4019C36.2399 17.3492 36.1426 17.414 36.0454 17.4787ZM35.9157 11.879C36.013 11.9114 36.1102 11.9114 36.175 11.9761C36.2723 12.0409 36.3695 12.1704 36.4668 12.2675C36.4992 12.2027 36.5316 12.138 36.5316 12.1056C36.3695 11.9114 36.2399 11.7172 36.1102 11.5554C36.013 11.5877 35.9481 11.6201 35.8833 11.6525V11.879H35.9157ZM6.80713 20.8126C6.80713 20.8126 6.83955 20.7479 6.83955 20.6831C6.7423 20.5213 6.67747 20.3595 6.58023 20.1976H6.41815C6.38574 20.2624 6.35332 20.3271 6.35332 20.3595C6.5154 20.5537 6.67747 20.6831 6.80713 20.8126ZM24.1491 9.38671C24.3436 9.16014 24.5057 9.03066 24.6353 8.86882C24.376 8.80409 24.376 8.80409 24.1491 8.90119V9.38671ZM1.94489 18.1261C1.88006 18.0937 1.81523 18.0613 1.68558 18.029C1.62075 18.1261 1.55592 18.2232 1.49109 18.3526C1.58833 18.4174 1.75041 18.4821 1.88006 18.5468C1.97731 18.4174 1.91248 18.2879 1.94489 18.1261ZM2.75527 14.6627C2.65802 14.7274 2.52836 14.7598 2.3987 14.8245C2.56078 14.954 2.72285 14.954 2.91734 14.8245C2.85251 14.6951 2.94976 14.5656 2.8201 14.4037C2.75527 14.4037 2.65802 14.4361 2.52836 14.4361C2.65802 14.5656 2.69044 14.598 2.75527 14.6627ZM6.83955 30.7819C6.64506 30.879 6.5154 30.7819 6.38574 30.879C6.41815 31.0085 6.54781 31.0733 6.61264 31.1704C6.67747 31.1704 6.7423 31.138 6.83955 31.138V30.7819ZM2.91734 19.4855C3.01459 19.5826 3.14425 19.615 3.24149 19.4855C3.20908 19.356 3.30632 19.2266 3.17666 19.0971C3.047 19.0971 3.01459 19.2266 2.91734 19.3237V19.4855ZM35.3971 9.8075C35.4295 9.93697 35.4295 10.0341 35.4619 10.1312C35.5592 10.0988 35.6564 10.0988 35.7536 10.0664C35.7212 9.96934 35.7212 9.87223 35.6888 9.8075H35.3971ZM33.0308 26.121C32.966 26.5094 32.966 26.5094 33.0632 26.6712C33.128 26.6065 33.2253 26.5094 33.2253 26.5094C33.1605 26.3799 33.128 26.2828 33.0308 26.121ZM28.363 3.94889C28.2334 3.98126 28.1361 3.98126 28.0389 4.01363C28.0713 4.1431 28.0713 4.20784 28.1037 4.33731C28.201 4.30494 28.2982 4.30494 28.363 4.27257V3.94889ZM24.4733 3.49574C24.6677 3.39864 24.7974 3.30153 24.9271 3.2368C24.8298 3.10733 24.7002 3.17206 24.6029 3.17206C24.5705 3.17206 24.5057 3.20443 24.4408 3.2368V3.49574H24.4733ZM28.6548 7.70358C29.0438 7.76831 29.0438 7.76831 29.2058 7.67121C29.141 7.60647 29.0438 7.50937 29.0438 7.50937C28.9141 7.57411 28.8169 7.63884 28.6548 7.70358ZM13.8736 4.62862C13.7439 4.62862 13.7115 4.62862 13.7115 4.62862C13.6791 4.62862 13.6143 4.66099 13.5818 4.69336C13.6143 4.72572 13.6143 4.75809 13.6467 4.79046C13.7115 4.8552 13.7439 4.88756 13.8412 4.98467C13.8412 4.88756 13.8412 4.79046 13.8736 4.62862ZM24.5705 11.4906C24.6353 11.1022 24.6353 11.1022 24.5381 10.9727C24.4408 11.1022 24.4408 11.2641 24.5705 11.4906ZM12.3501 5.43782C12.2528 5.56729 12.1232 5.63203 12.0908 5.7615C12.188 5.82623 12.2853 5.82624 12.3825 5.72913C12.3825 5.6644 12.3501 5.56729 12.3501 5.43782ZM36.8882 15.5043C36.7585 15.4072 36.6613 15.3748 36.564 15.5043C36.6613 15.569 36.6937 15.6985 36.8558 15.7308C36.8558 15.6337 36.8882 15.569 36.8882 15.5043ZM13.6143 17.7376C13.7115 17.6082 13.7439 17.5111 13.6143 17.3816C13.5818 17.5111 13.4198 17.5111 13.4198 17.7053C13.4846 17.7053 13.5494 17.7376 13.6143 17.7376ZM20.2269 0.971039C20.2269 1.10051 20.2269 1.13288 20.2269 1.16525C20.2269 1.19761 20.2593 1.26235 20.2917 1.29472C20.3241 1.26235 20.3566 1.26235 20.389 1.22998C20.4538 1.16525 20.4862 1.13288 20.5835 1.03578C20.4538 1.03578 20.389 1.00341 20.2269 0.971039ZM13.0632 17.6405C12.966 17.5434 12.8363 17.5111 12.7391 17.6405C12.7391 17.7376 12.6742 17.8348 12.8363 17.8671C12.9011 17.8024 12.966 17.7376 13.0632 17.6405ZM19.1572 1.65077C19.06 1.78024 19.0276 1.87734 19.1572 1.97445C19.2545 1.97445 19.3517 2.03918 19.3841 1.87734C19.3193 1.81261 19.2545 1.74787 19.1572 1.65077ZM32.6742 14.2095C32.8039 14.1772 32.966 14.339 33.128 14.1772C32.966 14.0477 32.8039 14.0477 32.6742 14.2095ZM5.54295 21.9779C5.41329 21.8484 5.31605 21.8484 5.18639 21.9455C5.18639 22.0102 5.2188 22.1073 5.2188 22.1721C5.34846 22.1073 5.4457 22.0426 5.54295 21.9779ZM2.72285 22.2368C2.56078 22.2692 2.52836 22.3986 2.43112 22.4634C2.52836 22.5928 2.65802 22.5928 2.75527 22.4634C2.75527 22.3663 2.75527 22.3015 2.72285 22.2368ZM17.6985 13.9182C17.7958 13.7888 17.8282 13.6917 17.6985 13.5622C17.6661 13.6917 17.5041 13.6917 17.5041 13.8859C17.5365 13.9182 17.6337 13.9182 17.6985 13.9182ZM3.50081 23.046C3.59806 22.9165 3.63047 22.8194 3.50081 22.7223C3.40357 22.7223 3.30632 22.6576 3.27391 22.8194C3.33874 22.8842 3.40357 22.9489 3.50081 23.046ZM5.76985 23.046C5.8671 22.9165 5.89951 22.8194 5.76985 22.7223C5.67261 22.7223 5.57536 22.6576 5.54295 22.8194C5.64019 22.8842 5.70502 22.9489 5.76985 23.046ZM36.1102 15.4719C35.7212 15.4072 35.7212 15.4072 35.5916 15.5366C35.7536 15.6014 35.8833 15.6014 36.1102 15.4719ZM13.6791 30.9114C13.7763 31.0085 13.906 31.0409 14.0032 30.9114C14.0032 30.8143 14.0681 30.7172 13.906 30.6848C13.8412 30.7496 13.7763 30.8467 13.6791 30.9114ZM28.2658 16.0221C28.1361 15.8927 28.0389 15.8927 27.9092 15.9898C27.9092 16.0545 27.9417 16.1516 27.9417 16.2164C28.0389 16.1516 28.1361 16.0869 28.2658 16.0221ZM21.2318 4.11073C21.2642 4.11073 21.2966 4.11073 21.329 4.11073C21.329 4.046 21.3614 3.94889 21.3614 3.88416C21.3614 3.85179 21.329 3.81942 21.2966 3.81942C21.2642 3.81942 21.1994 3.85179 21.1994 3.88416C21.1994 3.98126 21.2318 4.046 21.2318 4.11073ZM23.5008 9.16014C23.5008 9.1925 23.5008 9.22487 23.5008 9.25724C23.5656 9.25724 23.6305 9.28961 23.7277 9.28961C23.7601 9.28961 23.7925 9.25724 23.7925 9.22487C23.7925 9.1925 23.7601 9.12777 23.7277 9.12777C23.6629 9.12777 23.5981 9.12777 23.5008 9.16014ZM5.57536 10.2606C5.60778 10.2606 5.64019 10.2606 5.67261 10.2606C5.67261 10.1959 5.70502 10.0988 5.70502 10.0341C5.70502 10.0017 5.67261 9.96933 5.64019 9.96933C5.60778 9.96933 5.54295 10.0017 5.54295 10.0341C5.54295 10.0988 5.54295 10.1959 5.57536 10.2606ZM27.9741 9.93697C27.8768 10.0664 27.812 10.1959 28.0065 10.2606C28.0713 10.1635 28.1037 10.0664 27.9741 9.93697ZM8.88169 32.6593C8.97893 32.4974 9.04376 32.4003 8.84927 32.3356C8.75203 32.4327 8.78444 32.5298 8.88169 32.6593ZM19.222 3.01022C19.1896 3.01022 19.1572 3.01022 19.1248 3.01022C19.1248 3.07496 19.0924 3.17206 19.0924 3.2368C19.0924 3.26917 19.1248 3.30153 19.1572 3.30153C19.1896 3.30153 19.2545 3.26917 19.2545 3.2368C19.2545 3.13969 19.222 3.07496 19.222 3.01022ZM35.5916 17.4787C35.6888 17.6082 35.8185 17.6082 35.9157 17.4787C35.7861 17.3816 35.6888 17.3816 35.5916 17.4787ZM6.38574 17.2845C6.38574 17.3169 6.38574 17.3492 6.38574 17.3816C6.45057 17.3816 6.5154 17.414 6.61264 17.414C6.64506 17.414 6.67747 17.3816 6.67747 17.3492C6.67747 17.3169 6.64506 17.2521 6.61264 17.2521C6.5154 17.2521 6.45057 17.2521 6.38574 17.2845ZM14.0357 17.155C14.1329 17.2845 14.2626 17.2845 14.3598 17.155C14.2301 17.0256 14.1329 17.0256 14.0357 17.155ZM21.8801 3.52811C21.8801 3.56048 21.8801 3.59284 21.8801 3.62521C21.9449 3.62521 22.0097 3.65758 22.107 3.65758C22.1394 3.65758 22.1718 3.62521 22.1718 3.59284C22.1718 3.56048 22.1394 3.49574 22.107 3.49574C22.0421 3.49574 21.9449 3.49574 21.8801 3.52811ZM3.98703 21.5571C4.08428 21.3952 4.14911 21.2981 3.95462 21.2334C3.85737 21.3305 3.88979 21.4276 3.98703 21.5571ZM15.0405 16.54C15.0729 16.54 15.1053 16.54 15.1378 16.54C15.1378 16.4753 15.1702 16.3782 15.1702 16.3135C15.1702 16.2811 15.1378 16.2487 15.1053 16.2487C15.0729 16.2487 15.0081 16.2811 15.0081 16.3135C15.0081 16.4106 15.0081 16.4753 15.0405 16.54ZM28.2658 6.34412C28.2658 6.37649 28.2658 6.40886 28.2658 6.44123C28.3306 6.44123 28.3955 6.47359 28.4927 6.47359C28.5251 6.47359 28.5575 6.44123 28.5575 6.40886C28.5575 6.37649 28.5251 6.31175 28.4927 6.31175C28.3955 6.31175 28.3306 6.31175 28.2658 6.34412ZM22.8201 2.62181C22.8201 2.58944 22.8201 2.55707 22.8201 2.5247C22.7553 2.5247 22.6904 2.49233 22.5932 2.49233C22.5608 2.49233 22.5284 2.5247 22.5284 2.55707C22.5284 2.58944 22.5608 2.65417 22.5932 2.65417C22.658 2.65417 22.7553 2.62181 22.8201 2.62181ZM20.0972 14.5656C20.1297 14.5656 20.1621 14.5656 20.1945 14.5656C20.1945 14.5009 20.2269 14.4037 20.2269 14.339C20.2269 14.3066 20.1945 14.2743 20.1621 14.2743C20.1297 14.2743 20.0648 14.3066 20.0648 14.339C20.0648 14.4037 20.0972 14.5009 20.0972 14.5656ZM29.7245 21.1363C29.5624 21.0392 29.4652 20.9744 29.4003 21.1687C29.4976 21.2334 29.5624 21.2334 29.7245 21.1363ZM36.2399 13.0119C36.1426 12.8825 36.013 12.8825 35.9157 13.0119C36.013 13.1414 36.1102 13.1414 36.2399 13.0119ZM34.9109 11.0698C34.9109 11.0375 34.9109 11.0051 34.9109 10.9727C34.846 10.9727 34.7812 10.9404 34.684 10.9404C34.6515 10.9404 34.6191 10.9727 34.6191 11.0051C34.6191 11.0375 34.6515 11.1022 34.684 11.1022C34.7488 11.1022 34.8136 11.0698 34.9109 11.0698ZM14.3598 3.2368C14.457 3.36627 14.5867 3.36627 14.684 3.2368C14.5543 3.10733 14.457 3.10733 14.3598 3.2368ZM26.094 4.59625C26.0616 4.56388 26.0616 4.53152 26.0292 4.49915C25.9968 4.53152 25.9643 4.53152 25.9643 4.56388C25.9643 4.59625 25.9968 4.62862 26.0292 4.66099C26.0292 4.62862 26.0616 4.59625 26.094 4.59625ZM28.1686 4.49915C28.1361 4.53152 28.1037 4.53152 28.0713 4.56388C28.1037 4.59625 28.1037 4.62862 28.1361 4.62862C28.1686 4.62862 28.201 4.59625 28.2334 4.56388C28.201 4.53152 28.201 4.53152 28.1686 4.49915ZM22.7877 6.44123C22.8201 6.40886 22.8201 6.40886 22.8525 6.37649C22.8201 6.34412 22.7877 6.34412 22.7553 6.31175C22.7553 6.31175 22.7229 6.34412 22.6904 6.37649C22.7229 6.40886 22.7553 6.40886 22.7877 6.44123ZM22.269 6.63543C22.2366 6.6678 22.2042 6.6678 22.2042 6.70017C22.2042 6.73254 22.2366 6.76491 22.269 6.79727C22.3015 6.76491 22.3339 6.76491 22.3339 6.73254C22.3015 6.70017 22.3015 6.6678 22.269 6.63543ZM28.5251 7.73595C28.4927 7.70358 28.4927 7.67121 28.4603 7.63884C28.4279 7.67121 28.3955 7.67121 28.3955 7.70358C28.3955 7.73594 28.4279 7.76831 28.4603 7.80068C28.4927 7.76831 28.5251 7.76831 28.5251 7.73595ZM27.7147 7.89778C27.6823 7.86542 27.6823 7.83305 27.6499 7.80068C27.6175 7.83305 27.5851 7.83305 27.5851 7.86542C27.5851 7.89778 27.6175 7.93015 27.6499 7.96252C27.6823 7.93015 27.6823 7.93015 27.7147 7.89778ZM14.1977 10.2283C14.2301 10.2606 14.2301 10.2606 14.2626 10.293C14.295 10.2606 14.295 10.2283 14.3274 10.1959C14.3274 10.1959 14.295 10.1635 14.2626 10.1312C14.2626 10.1312 14.2301 10.1959 14.1977 10.2283ZM35.4943 10.7785C35.4619 10.8109 35.4295 10.8109 35.4295 10.8433C35.4295 10.8756 35.4619 10.908 35.4943 10.9404C35.5267 10.908 35.5592 10.908 35.5592 10.8756C35.5267 10.8433 35.5267 10.8109 35.4943 10.7785ZM26.7423 17.1874C26.7099 17.155 26.7099 17.1227 26.6775 17.0903C26.6451 17.1227 26.6126 17.1227 26.6126 17.155C26.6126 17.1874 26.6451 17.2198 26.6775 17.2521C26.7099 17.2198 26.7099 17.1874 26.7423 17.1874ZM10.6321 17.4787C10.6645 17.5111 10.6645 17.5434 10.6969 17.5758C10.7293 17.5434 10.7618 17.5434 10.7618 17.5111C10.7618 17.4787 10.7293 17.4463 10.6969 17.414C10.6645 17.414 10.6321 17.4463 10.6321 17.4787ZM36.6937 14.9864C36.6613 14.954 36.6613 14.954 36.6288 14.9216C36.5964 14.954 36.5964 14.9864 36.564 15.0187C36.564 15.0187 36.5964 15.0511 36.6288 15.0835C36.6613 15.0511 36.6937 15.0187 36.6937 14.9864ZM39.4165 18.0613C39.3841 18.0937 39.3517 18.0937 39.3517 18.1261C39.3517 18.1584 39.3841 18.1908 39.4165 18.2232C39.4489 18.1908 39.4814 18.1908 39.4814 18.1584C39.4489 18.1261 39.4165 18.0937 39.4165 18.0613ZM25.2188 18.2232C25.1864 18.2555 25.154 18.2555 25.154 18.2879C25.154 18.3203 25.1864 18.3526 25.2188 18.385C25.2512 18.3526 25.2836 18.3526 25.2836 18.3203C25.2512 18.3203 25.2188 18.2555 25.2188 18.2232ZM33.3874 18.7411C33.3549 18.7734 33.3225 18.7734 33.2901 18.8058C33.3225 18.8382 33.3225 18.8705 33.3549 18.8705C33.3874 18.8705 33.4198 18.8382 33.4522 18.8058C33.4522 18.8058 33.4198 18.7734 33.3874 18.7411ZM37.5041 19.615C37.4716 19.5826 37.4716 19.5826 37.4392 19.5503C37.4068 19.5826 37.4068 19.615 37.3744 19.6474C37.3744 19.6474 37.4068 19.6797 37.4392 19.7121C37.4716 19.6797 37.5041 19.6474 37.5041 19.615ZM5.64019 20.6831C5.67261 20.6508 5.67261 20.6508 5.70502 20.6184C5.67261 20.586 5.64019 20.586 5.60778 20.5537C5.60778 20.5537 5.57536 20.586 5.54295 20.6184C5.57536 20.6508 5.60778 20.6831 5.64019 20.6831ZM10.1135 20.6508C10.081 20.6184 10.081 20.586 10.0486 20.586C10.0162 20.586 9.98379 20.6184 9.95138 20.6508C9.98379 20.6831 9.98379 20.7155 10.0162 20.7155C10.0486 20.6831 10.081 20.6508 10.1135 20.6508ZM2.59319 21.6218C2.56078 21.5894 2.56078 21.5571 2.52836 21.5571C2.49595 21.5571 2.46353 21.5894 2.43112 21.6218C2.46353 21.6542 2.46353 21.6865 2.49595 21.6865C2.52836 21.6865 2.56078 21.6542 2.59319 21.6218ZM6.19125 21.6218C6.15883 21.5894 6.15883 21.5571 6.12642 21.5571C6.094 21.5571 6.06159 21.5894 6.02917 21.6218C6.06159 21.6542 6.06159 21.6865 6.094 21.6865C6.12642 21.6865 6.15883 21.6542 6.19125 21.6218ZM7.77958 21.6218C7.74716 21.5894 7.74716 21.5894 7.71475 21.5571C7.68233 21.5894 7.68233 21.6218 7.64992 21.6542C7.64992 21.6542 7.68233 21.6865 7.71475 21.7189C7.74716 21.6865 7.77958 21.6542 7.77958 21.6218ZM17.2447 14.1124C17.2123 14.1448 17.1799 14.1448 17.1475 14.1772C17.1799 14.2095 17.1799 14.2419 17.2123 14.2419C17.2447 14.2419 17.2771 14.2095 17.3096 14.1772C17.2771 14.1448 17.2447 14.1448 17.2447 14.1124ZM0.777958 22.9165C0.745543 22.8842 0.745543 22.8842 0.713128 22.8518C0.713128 22.9165 0.680713 22.9489 0.648298 22.9813C0.648298 22.9813 0.680713 23.0136 0.713128 23.046C0.745543 23.0136 0.745543 22.9813 0.777958 22.9165ZM3.79254 13.4003C3.82496 13.368 3.85737 13.368 3.88979 13.3356C3.85737 13.3032 3.85737 13.2709 3.82496 13.2709C3.79254 13.2709 3.76013 13.3032 3.72771 13.3356C3.76013 13.368 3.76013 13.368 3.79254 13.4003ZM2.85251 25.3441C2.88493 25.3118 2.91734 25.2794 2.91734 25.2794C2.88493 25.247 2.85251 25.247 2.8201 25.2147C2.8201 25.2147 2.78768 25.247 2.75527 25.2794C2.78768 25.3118 2.8201 25.3118 2.85251 25.3441ZM3.79254 25.3765C3.76013 25.4089 3.76013 25.4089 3.72771 25.4412C3.76013 25.4736 3.79254 25.4736 3.82496 25.506C3.82496 25.506 3.85737 25.4736 3.88979 25.4412C3.85737 25.4089 3.82496 25.4089 3.79254 25.3765ZM18.6386 28.322C18.671 28.2896 18.7034 28.2896 18.7358 28.2572C18.7034 28.2249 18.7034 28.1925 18.671 28.1925C18.6386 28.1925 18.6062 28.2249 18.5737 28.2572C18.6062 28.2896 18.6386 28.2896 18.6386 28.322ZM18.1199 28.7751C18.1523 28.8075 18.1523 28.8075 18.1848 28.8399C18.2172 28.8075 18.2172 28.7751 18.2496 28.7428C18.2496 28.7428 18.2172 28.7104 18.1848 28.678C18.1523 28.7104 18.1523 28.7428 18.1199 28.7751ZM14.7488 30.0051C14.7164 30.0375 14.684 30.0375 14.684 30.0698C14.684 30.1022 14.7164 30.1346 14.7488 30.1669C14.7812 30.1346 14.8136 30.1346 14.8136 30.1022C14.8136 30.0698 14.7812 30.0375 14.7488 30.0051ZM21.6856 31.7206C21.6532 31.6882 21.6532 31.6882 21.6207 31.6559C21.5883 31.6882 21.5883 31.7206 21.5559 31.753C21.5559 31.753 21.5883 31.7853 21.6207 31.8177C21.6207 31.7853 21.6532 31.753 21.6856 31.7206ZM9.17342 32.1738C9.141 32.2061 9.141 32.2061 9.10859 32.2385C9.141 32.2709 9.17342 32.2709 9.20583 32.3032C9.20583 32.3032 9.23825 32.2709 9.27066 32.2385C9.23825 32.2061 9.20583 32.2061 9.17342 32.1738ZM22.1394 32.3032C22.1718 32.2709 22.1718 32.2709 22.2042 32.2385C22.1718 32.2061 22.1394 32.2061 22.107 32.1738C22.107 32.1738 22.0746 32.2061 22.0421 32.2385C22.0746 32.2709 22.107 32.2709 22.1394 32.3032ZM21.8477 32.4003C21.8152 32.368 21.8152 32.3356 21.7828 32.3356C21.7504 32.3356 21.718 32.368 21.6856 32.4003C21.718 32.4327 21.718 32.4651 21.7504 32.4651C21.7828 32.4327 21.8152 32.4327 21.8477 32.4003ZM3.76013 13.0443C3.79254 13.0767 3.79254 13.0767 3.82496 13.109C3.85737 13.0767 3.85737 13.0443 3.88979 13.0119C3.88979 13.0119 3.85737 12.9796 3.82496 12.9472C3.79254 12.9796 3.79254 13.0119 3.76013 13.0443ZM11.41 33.5656C11.3776 33.5332 11.3776 33.5009 11.3452 33.5009C11.3128 33.5009 11.2804 33.5332 11.248 33.5656C11.2804 33.598 11.2804 33.6303 11.3128 33.6303C11.3452 33.598 11.3776 33.598 11.41 33.5656ZM14.7488 33.8245C14.7164 33.8569 14.7164 33.8569 14.684 33.8893C14.7164 33.9216 14.7488 33.9216 14.7812 33.954C14.7812 33.954 14.8136 33.9216 14.846 33.8893C14.8136 33.8893 14.7812 33.8569 14.7488 33.8245ZM10.081 35.2487C10.0486 35.2164 10.0486 35.184 10.0162 35.1516C9.98379 35.184 9.95138 35.184 9.95138 35.2164C9.95138 35.2487 9.98379 35.2811 10.0162 35.3135C10.0486 35.2811 10.0486 35.2811 10.081 35.2487ZM11.6694 35.4753C11.637 35.5077 11.6045 35.5077 11.6045 35.54C11.6045 35.5724 11.637 35.6048 11.6694 35.6371C11.7018 35.6048 11.7342 35.6048 11.7342 35.5724C11.7018 35.54 11.6694 35.5077 11.6694 35.4753ZM14.0681 37.1584C14.0357 37.1908 14.0357 37.1908 14.0032 37.2232C14.0357 37.2555 14.0681 37.2555 14.1005 37.2879C14.1005 37.2879 14.1329 37.2555 14.1653 37.2232C14.1653 37.1908 14.1005 37.1584 14.0681 37.1584ZM33.906 12.8825C33.8736 12.8501 33.8736 12.8177 33.8412 12.7853C33.8088 12.8177 33.7763 12.8177 33.7763 12.8501C33.7763 12.8825 33.8088 12.9148 33.8412 12.9472C33.8736 12.9148 33.906 12.8825 33.906 12.8825ZM36.3371 12.753C36.3695 12.7206 36.3695 12.7206 36.4019 12.6882C36.3695 12.6559 36.3371 12.6559 36.3047 12.6235C36.3047 12.6235 36.2723 12.6559 36.2399 12.6882C36.2723 12.6882 36.3047 12.7206 36.3371 12.753ZM19.8055 11.9438C19.7731 11.9761 19.7731 11.9761 19.7407 12.0085C19.7731 12.0409 19.8055 12.0409 19.8379 12.0733C19.8379 12.0733 19.8703 12.0409 19.9028 12.0085C19.8703 12.0085 19.8379 11.9761 19.8055 11.9438ZM35.3647 11.6201C35.3323 11.6525 35.2998 11.6525 35.2674 11.6848C35.2998 11.7172 35.2998 11.7496 35.3323 11.7496C35.3647 11.7496 35.3971 11.7172 35.4295 11.6848C35.3971 11.6525 35.3647 11.6525 35.3647 11.6201ZM34.8784 11.5877C34.9109 11.5554 34.9109 11.5554 34.9433 11.523C34.9109 11.4906 34.8784 11.4906 34.846 11.4583C34.846 11.4583 34.8136 11.4906 34.7812 11.523C34.7812 11.5554 34.846 11.5554 34.8784 11.5877ZM35.9805 11.1022C35.9481 11.1346 35.9157 11.1346 35.9157 11.167C35.9157 11.1993 35.9481 11.2317 35.9805 11.2641C36.013 11.2317 36.0454 11.2317 36.0454 11.1993C36.013 11.1669 36.013 11.1346 35.9805 11.1022ZM15.8509 3.52811C15.8833 3.56048 15.8833 3.59284 15.9157 3.62521C15.9481 3.59284 15.9806 3.59284 15.9806 3.56048C15.9806 3.52811 15.9481 3.49574 15.9157 3.46337C15.8833 3.49574 15.8509 3.52811 15.8509 3.52811Z" fill="#1A594A"/>
<path d="M20.0531 14.0261C19.0636 14.0261 18.3437 14.0092 17.6243 14.0298C16.354 14.0658 15.0826 14.0981 13.8172 14.2315C12.939 14.3241 12.2601 14.8794 12.0308 15.6994C11.8752 16.2574 11.8093 16.8291 11.7667 17.4029C11.688 18.4658 11.7019 19.5309 11.7268 20.5944C11.7467 21.4191 11.8171 22.2428 12.0137 23.0517C12.2185 23.8955 12.965 24.491 13.8649 24.5736C14.9181 24.6705 15.9725 24.7202 17.0285 24.7626C18.7712 24.833 20.5144 24.8118 22.2565 24.7816C23.4222 24.7615 24.589 24.6985 25.7508 24.5736C26.6728 24.4746 27.3639 23.9415 27.5876 23.0903C27.7327 22.5377 27.8008 21.9739 27.8412 21.4054C27.9198 20.3022 27.8883 19.1979 27.8755 18.0948C27.8667 17.3362 27.7908 16.5781 27.6136 15.8339C27.3904 14.8948 26.7065 14.3204 25.707 14.2262C24.6887 14.1304 23.667 14.0965 22.6447 14.0536C21.6906 14.0129 20.737 14.0494 20.0531 14.0261ZM17.7512 19.5595C17.7512 18.8062 17.7506 18.0529 17.7512 17.2991C17.7512 17.0572 17.755 17.0551 17.9871 17.17C18.2756 17.3129 18.5624 17.459 18.8509 17.6014C20.0847 18.2123 21.3185 18.8221 22.5517 19.434C22.6098 19.4626 22.6962 19.4753 22.6962 19.5574C22.6962 19.6183 22.6276 19.6347 22.5799 19.658C21.0344 20.4261 19.4877 21.192 17.9439 21.9623C17.7755 22.0464 17.7478 21.994 17.7489 21.8384C17.7534 21.0798 17.7512 20.3197 17.7512 19.5595Z" fill="white"/>
</svg>
