<svg width="60" height="57" viewBox="0 0 60 57" fill="none" xmlns="http://www.w3.org/2000/svg">
<path d="M47.2123 21.4259C47.4068 21.4259 47.6013 21.4259 47.6985 21.4259C47.9579 21.2964 48.1523 21.1669 48.3793 21.1022C48.4765 21.0698 48.6062 21.0698 48.671 21.167C48.5737 21.2317 48.4441 21.2641 48.3468 21.3288V21.6525C48.2172 21.7172 48.0875 21.7819 47.8606 21.9114H47.2771C47.2123 22.2351 46.9854 22.3969 46.8233 22.5588C46.7261 22.5911 46.6613 22.5911 46.564 22.6235C46.7909 22.753 46.7909 22.753 47.2447 22.7206C47.3096 22.6235 47.4068 22.494 47.4716 22.3646C47.7958 22.5264 48.0551 22.6559 48.3468 22.7853C48.3468 22.9148 48.2172 22.9148 48.1848 23.0119C47.9903 23.1414 47.7634 22.9796 47.5689 23.1414C47.731 23.2385 47.893 23.368 48.0551 23.4651V23.6917C47.9579 23.724 47.8606 23.724 47.7958 23.7888C47.6661 23.8859 47.5365 24.0477 47.4068 24.1772C47.4716 24.2419 47.5041 24.2743 47.5365 24.3066C47.4392 24.4037 47.4392 24.4037 47.3096 24.4361C47.1799 24.5332 47.2771 24.6951 47.2447 24.8245C47.342 25.0187 47.5365 25.1158 47.731 25.1806V25.7632C47.6985 25.7956 47.6013 25.7956 47.6013 25.8279C47.5689 25.925 47.5689 26.0545 47.5689 26.2164C47.5365 26.2487 47.4392 26.3458 47.342 26.4106C47.0827 26.3782 46.9206 26.1192 46.6613 26.2811C46.5964 26.3135 46.5964 26.3458 46.6613 26.4106C46.7261 26.4753 46.7261 26.54 46.7585 26.6048C46.7909 26.6371 46.7909 26.7019 46.8233 26.7342H47.1799C47.2123 26.8313 47.2447 26.9284 47.2771 27.0256C47.5689 27.155 47.893 27.2845 48.1199 27.5434C48.3793 27.4787 48.3468 27.155 48.5089 27.0256C48.6062 26.7666 48.4441 26.4753 48.6386 26.184C48.671 26.3782 48.6386 26.5724 48.7358 26.6695C48.8655 26.8313 48.8331 26.9608 48.8655 27.155C49.06 27.3169 49.2869 27.4787 49.5138 27.6405C49.4489 27.7053 49.4165 27.77 49.3517 27.8348C49.5462 28.0613 49.6434 27.8024 49.7731 27.7376C49.8055 27.8024 49.8055 27.8995 49.8379 27.9642C49.7731 28.029 49.7083 28.0937 49.6759 28.1584C49.7407 28.2232 49.7731 28.2879 49.8379 28.3203V28.6116C49.9028 28.7087 49.9676 28.8058 50 28.8382C49.9676 29 49.611 29.1618 49.3517 29.2266C49.2545 29.0647 49.3841 28.8705 49.2545 28.7411C49.1896 28.7734 49.0924 28.8058 49.0276 28.8705C48.9951 28.7734 48.9303 28.6763 48.8979 28.5792C48.8655 28.5792 48.8655 28.6116 48.8331 28.6116V29C48.9951 29.0647 49.1572 29.1618 49.3193 29.2589C49.1248 29.5503 49.1248 29.5503 49.1248 29.9063C49.0276 29.8739 48.9627 29.9387 48.9627 30.0358C48.9627 30.1329 48.9627 30.2624 49.1248 30.23C49.1896 30.4889 48.9627 30.6508 48.8979 30.8773C48.8655 30.9744 48.7682 31.0392 48.671 31.1363V31.6865C48.7682 31.7189 48.8331 31.7189 48.9303 31.7513C48.9627 31.816 48.9627 31.8807 48.9951 31.9455C48.9627 31.9779 48.9627 32.0102 48.9303 32.0426C48.4441 32.5605 47.9254 33.046 47.4392 33.5639C47.3744 33.5639 47.342 33.5639 47.2771 33.5639C46.9854 33.8552 46.6937 34.1141 46.4344 34.4378C46.175 34.7615 45.7861 34.891 45.5267 35.1823C45.2674 35.1499 45.2998 35.3765 45.1702 35.506C45.1053 35.6031 45.0081 35.7649 44.846 35.6678C44.5219 36.0239 44.1977 36.3475 43.8736 36.6712H43.7115C43.4198 36.9302 43.1929 37.2862 42.8039 37.448C42.7715 37.4804 42.7391 37.5128 42.6742 37.5775C42.577 37.6746 42.7066 37.8688 42.4797 37.8688C42.3501 37.8688 42.3177 37.9983 42.2204 38.0307C42.1556 38.063 42.0583 38.063 41.9935 38.0954C41.8639 38.1925 41.7666 38.322 41.637 38.4514C41.5073 38.5486 41.4425 38.678 41.248 38.7104C41.1183 38.7428 41.0211 38.9046 40.8914 39.0341H40.7293C40.6969 39.1312 40.6645 39.2283 40.6321 39.3254C40.5673 39.3254 40.5024 39.3578 40.4052 39.3901C40.3079 39.5843 40.2107 39.8109 40.1135 40.0051C40.0486 40.0051 40.0162 40.0051 39.9838 40.0375C39.6596 40.3612 39.3679 40.6848 39.0113 41.0085V41.0733C38.8493 41.2027 38.6224 41.1704 38.5575 41.4293C38.6548 41.5264 38.752 41.4617 38.8493 41.494C38.6872 41.8177 38.6872 41.8177 38.6872 42.1414C38.6548 42.1738 38.5575 42.1738 38.5575 42.2061C38.5251 42.3032 38.6224 42.3356 38.6872 42.3032V42.5622C38.5575 42.6917 38.4279 42.8211 38.2334 42.8535C38.1037 42.8859 38.0389 43.1124 37.812 43.1448C37.7472 43.1124 37.6823 43.0477 37.5851 42.983C37.5203 43.1448 37.3258 43.1124 37.1961 43.2095V43.4037C37.2285 43.4361 37.2609 43.4685 37.2609 43.4685C37.4878 43.4685 37.7472 43.4685 37.9741 43.4685C37.9092 43.8245 37.5527 43.8245 37.3258 43.954C37.1961 44.0187 37.0016 43.9864 36.9044 44.1482C36.7423 44.1158 36.6775 44.2453 36.5802 44.31C36.4506 44.4395 36.1264 44.569 35.8023 44.6337C35.7699 44.6337 35.705 44.6985 35.6726 44.7308C35.6402 44.7632 35.6402 44.7632 35.5754 44.8279C35.4781 44.7308 35.4133 44.6337 35.316 44.5366C35.3485 44.4395 35.3809 44.3748 35.4457 44.31C35.4781 44.2777 35.4781 44.2453 35.5105 44.1806C35.4133 44.1806 35.3485 44.1482 35.2836 44.1482C35.0891 44.3424 35.2836 44.569 35.154 44.7632C35.0243 44.7632 34.9595 44.6014 34.8947 44.569C34.8622 44.4719 34.8622 44.4072 34.8298 44.31H34.4408C34.376 44.4072 34.2788 44.5366 34.1815 44.6985C34.0519 44.5366 33.9222 44.4395 33.825 44.31C33.7277 44.1806 33.6953 44.0511 33.5981 43.8569V43.598C33.5332 43.5332 33.5008 43.4685 33.436 43.4361V43.1124C33.5008 43.0477 33.5332 42.983 33.5981 42.9182V42.6593C33.5981 42.6269 33.5981 42.5945 33.5981 42.5945C33.7601 42.4003 33.9222 42.2385 34.0843 42.0443C34.2139 41.8501 34.2464 41.6235 34.4408 41.4293C34.376 41.3969 34.2788 41.3646 34.2139 41.3322C34.0843 41.4617 33.987 41.6235 33.8574 41.6559C33.7277 41.6882 33.5981 41.7206 33.5332 41.8501C33.436 42.0119 33.2415 41.9472 33.1442 42.0767C33.1118 42.1738 33.1118 42.2385 33.0794 42.3032C32.9498 42.3356 32.8201 42.3356 32.658 42.368C32.658 42.4327 32.6256 42.5298 32.5932 42.6269C32.5284 42.6593 32.3987 42.6593 32.3339 42.724C32.2366 42.7888 32.1394 42.9182 32.0421 43.0153H31.3938C31.329 43.0801 31.2642 43.1124 31.1994 43.1772H30.8752C30.8104 43.1124 30.7455 43.0801 30.7131 43.0153C30.5835 43.1124 30.6483 43.2743 30.6483 43.4037C30.4862 43.5008 30.2917 43.598 30.1621 43.7598C30 43.9216 30 44.1482 29.8379 44.2777C29.8703 44.4719 29.6759 44.5366 29.611 44.6661H29.1248C29.06 44.7308 28.9627 44.8279 28.8979 44.8927C28.8979 45.0221 28.8655 45.1516 28.8655 45.3135C28.6386 45.2164 28.4765 45.1192 28.2496 44.9898C28.2496 45.2164 28.2172 45.3782 28.2172 45.5724C28.0875 45.6371 28.0551 45.799 27.893 45.799V45.54C27.6985 45.3458 27.5041 45.54 27.2771 45.4429C27.2447 45.5724 27.2447 45.6371 27.2123 45.7342C27.1475 45.7666 27.0502 45.799 26.9206 45.8313C26.9206 45.9608 26.8882 46.0903 26.8882 46.2198C26.8233 46.2845 26.7261 46.3816 26.6613 46.4463C26.5316 46.414 26.4019 46.5111 26.2723 46.3816C26.3047 46.3169 26.3695 46.2845 26.4019 46.2198C26.2075 46.0903 26.2075 46.0903 25.9481 46.3816C25.9806 46.414 26.013 46.4463 26.0778 46.5111C26.175 46.6729 26.0778 46.8671 26.1426 47.0613C25.9481 47.2555 25.6888 47.0613 25.5267 47.1908C25.4619 47.3526 25.8185 47.385 25.6888 47.5145C25.5267 47.7087 25.4295 47.644 25.3323 47.644V47.385C25.2674 47.3526 25.1702 47.2879 25.1378 47.3203C24.9433 47.4821 24.6515 47.4821 24.5543 47.7411C24.5867 47.8058 24.6515 47.8382 24.684 47.9029C24.5543 48.0324 24.4246 47.9353 24.2626 47.9676C24.2301 47.8705 24.1977 47.7734 24.1653 47.6763C24.0032 47.5792 23.8088 47.644 23.6143 47.644C23.517 47.7411 23.4198 47.8382 23.2901 47.9676C23.2253 47.9676 23.0956 47.9676 22.9335 48C22.9011 47.9353 22.8363 47.8058 22.7715 47.7087C22.8039 47.6763 22.8363 47.644 22.9011 47.5468C22.8687 47.2879 22.6094 47.1908 22.4797 46.9966C22.3825 46.9642 22.3177 46.9642 22.2528 46.9319C22.4149 46.77 22.6094 46.6082 22.7066 46.4787C22.7066 46.3169 22.7066 46.2198 22.7066 46.1227C22.8039 46.0903 22.966 46.1874 23.0308 46.0256C22.9335 45.9608 22.9011 45.8313 22.7391 45.8313C22.7391 45.9284 22.7391 46.0256 22.7066 46.1227C22.5122 46.1227 22.4473 46.3816 22.2853 46.4463C22.188 46.2521 22.0908 46.0256 21.9935 45.8313C21.9287 45.8313 21.8963 45.799 21.8314 45.799C21.637 45.8961 21.4749 45.9932 21.2804 46.1227C21.1831 45.9932 21.0535 45.8637 20.8914 45.6695V45.2164C20.9238 45.0869 21.0535 45.1192 21.1831 45.1192C21.2156 45.0545 21.2156 44.9574 21.248 44.8603C21.2804 44.8279 21.3452 44.7632 21.41 44.6985C21.3452 44.6661 21.248 44.6337 21.1507 44.6014C21.0535 44.7308 20.9562 44.8603 20.859 44.9898C20.7618 44.8927 20.6969 44.8603 20.6645 44.7956H20.47C20.4376 44.8603 20.4376 44.925 20.3728 45.0545C20.5024 45.1516 20.6321 45.2487 20.7618 45.3458C20.7293 45.4106 20.6969 45.4429 20.6645 45.4429C20.4052 45.4753 20.1459 45.4753 19.8865 45.4753C19.7893 45.4106 19.6921 45.3458 19.6272 45.3135C19.4003 45.2487 19.3355 45.6371 19.1086 45.4106C19.1086 45.3782 19.141 45.3458 19.141 45.3135C19.2382 45.184 19.2382 45.184 19.141 44.9898C19.1086 45.0221 19.0762 45.0545 19.0113 45.1192C18.9465 45.0869 18.8817 45.0221 18.7844 44.9898C18.6224 44.925 18.59 45.1516 18.4279 45.1516C18.2658 45.0869 18.1037 44.9898 17.9417 44.8927C18.0389 44.7956 18.1037 44.7308 18.201 44.6337C18.3306 44.6985 18.4603 44.7632 18.6224 44.8279C18.8169 44.7308 18.9141 44.5366 19.0762 44.4072V44.2129C19.141 44.1806 19.2058 44.1482 19.3031 44.1158C19.4003 44.1806 19.4652 44.2777 19.5624 44.3424C19.5624 44.4719 19.5948 44.6014 19.5948 44.6985C19.6596 44.7956 19.7569 44.8603 19.8541 44.9574C19.8865 44.7632 19.919 44.6337 19.9514 44.4719C20.0162 44.4719 20.081 44.4395 20.1783 44.4072C20.2107 44.3424 20.2107 44.2777 20.2431 44.1806C20.1135 44.1158 20.0162 44.0835 19.8865 44.0187V43.8569C19.9514 43.7274 20.0486 43.7598 20.1783 43.7598C20.2755 43.7598 20.4052 43.7598 20.3728 43.598C20.4052 43.5656 20.47 43.5656 20.5024 43.5332C20.5673 43.5009 20.6321 43.4685 20.6969 43.4037C20.7293 43.5008 20.6969 43.6303 20.859 43.5332C20.8266 43.5009 20.7618 43.4685 20.6969 43.4037C20.6969 43.4037 20.7293 43.3714 20.6969 43.339C20.6969 43.3066 20.6645 43.2743 20.6321 43.2743C20.4052 43.3066 20.2107 43.1448 19.9838 43.0801C19.8865 43.0477 19.7569 43.0801 19.6921 43.0801C19.4976 43.2743 19.3355 43.4361 19.141 43.6303C18.9465 43.4037 18.7844 43.2095 18.6872 43.0801H18.3955C18.363 42.9506 18.5251 42.9182 18.5575 42.8211C18.4927 42.7564 18.3955 42.6593 18.3306 42.5945H18.1686C18.1361 42.6917 18.0713 42.8211 18.0065 42.9182C17.9741 42.8859 17.9092 42.8211 17.8768 42.7564C17.6175 42.8859 17.3582 42.983 17.1313 43.1448C16.9692 43.2419 16.8395 43.2095 16.6451 43.1772C16.6775 43.0801 16.7423 43.0153 16.8071 42.9182C16.6451 42.8859 16.483 42.8859 16.3209 42.8535C16.3857 42.7564 16.4182 42.724 16.483 42.6593C16.4182 42.5945 16.3857 42.4974 16.3209 42.4003C16.3857 42.3032 16.4506 42.2385 16.5154 42.1414C16.483 42.0767 16.4182 42.0443 16.3533 41.9796C16.3209 41.7206 16.6126 41.6559 16.6451 41.4617C16.483 41.3322 16.2885 41.4293 16.0616 41.3969C16.0292 41.5588 15.9968 41.7206 15.9643 41.9148C15.7699 41.7206 15.9643 41.4293 15.705 41.3322V40.8143C15.7374 40.7496 15.8023 40.7172 15.8671 40.6525C15.7374 40.523 15.6078 40.3935 15.4457 40.2317H15.154C15.0567 40.1993 15.0243 40.0375 14.8947 40.0698C14.9271 39.9404 14.765 39.908 14.7326 39.8109V39.4872C14.765 39.4549 14.8298 39.3901 14.8622 39.3577V39.0017C14.8298 38.9693 14.7974 38.937 14.7326 38.8722V38.063C14.7974 37.9336 14.8622 37.8041 14.9271 37.6422C15.1864 37.5128 15.4781 37.448 15.6726 37.1891C15.5429 37.1244 15.4133 37.0596 15.2188 36.9625H14.9595C14.8622 37.0596 14.8622 37.2215 14.7002 37.1891C14.7002 37.0596 14.6353 37.0273 14.5381 37.0596C14.5057 36.9625 14.5381 36.833 14.376 36.9302C14.4084 36.9625 14.4733 36.9949 14.5381 37.0596C14.5381 37.1567 14.5705 37.2215 14.7002 37.1891V37.448C14.6353 37.5128 14.5381 37.6099 14.4733 37.6746C14.4084 37.6099 14.3112 37.5775 14.2464 37.5128C14.1167 37.5775 13.9546 37.6422 13.7925 37.7394C13.7601 37.6099 13.7601 37.5128 13.7277 37.4157C13.8574 37.3509 13.9546 37.3186 14.0519 37.2862C13.7601 37.092 13.436 37.0273 13.2091 36.7683C13.2091 36.7036 13.2415 36.6388 13.2415 36.5094C13.3387 36.5741 13.3712 36.6065 13.436 36.6712C13.5656 36.6065 13.6953 36.5417 13.8574 36.477C13.8574 36.3475 13.8898 36.2181 13.8898 36.121C13.9546 36.0238 14.0519 35.9591 14.1167 35.8944H14.6353C14.6677 35.8296 14.6677 35.7325 14.7002 35.7002C14.8622 35.506 15.0243 35.3441 15.1864 35.1499V34.9881C15.2836 34.9233 15.4133 34.891 15.5105 34.8262C15.5105 34.7291 15.5105 34.6644 15.4781 34.5673C15.5754 34.5349 15.705 34.5673 15.6078 34.4055C15.5754 34.4378 15.5429 34.5026 15.4781 34.5673C15.4133 34.5349 15.3485 34.632 15.316 34.6644C15.2188 34.7615 15.1216 34.7291 15.0243 34.632C15.0891 34.5673 15.1216 34.5026 15.1864 34.4378C15.1216 34.3731 15.0243 34.3083 14.9271 34.2436C14.765 34.4378 14.6029 34.632 14.3436 34.9557V35.506C14.1815 35.5707 14.0194 35.6031 13.9222 35.7325H13.436C13.4036 35.7002 13.3387 35.6354 13.3063 35.6031C13.1442 35.6354 13.0794 35.7973 12.9498 35.8944H12.4959C12.4311 35.7973 12.3339 35.6678 12.2366 35.5707H11.9449V35.3118C12.1718 35.2146 12.3987 35.0852 12.5932 34.9881C12.6256 34.8262 12.5284 34.7615 12.4635 34.6968C12.3987 34.632 12.3663 34.5026 12.3339 34.4055C12.3339 34.3083 12.269 34.2112 12.269 34.1465C12.2366 34.0494 12.3015 33.9199 12.1718 33.8552C12.1394 33.9523 12.107 34.0494 12.0746 34.1789C11.9449 34.1789 11.8152 34.2112 11.6856 34.2112C11.6532 34.3083 11.6207 34.4055 11.5883 34.5349C11.4911 34.5349 11.3614 34.5673 11.2966 34.5349C11.0373 34.3731 10.7131 34.276 10.5186 33.9523C10.5186 33.8876 10.4862 33.7581 10.4862 33.5963C10.4214 33.5963 10.3566 33.5639 10.2593 33.5315C10.1621 33.4668 10.0648 33.3697 10 33.3049V32.7547C10.0972 32.7223 10.1621 32.7223 10.2593 32.6899C10.5186 32.431 10.778 32.1397 11.0697 31.8807H11.2318C11.2966 31.816 11.3614 31.7836 11.4263 31.7189H11.7504C11.7828 31.6218 11.7828 31.5247 11.8476 31.4276C11.9125 31.3305 11.9773 31.2658 11.9449 31.1363C11.9125 31.0716 11.8476 31.0392 11.7828 30.9744V30.7155C11.8801 30.7479 11.9449 30.8126 12.0421 30.8773C12.2366 30.7155 12.0421 30.586 11.9449 30.4566V30.0681H12.2042C12.269 29.971 12.3015 29.8416 12.3663 29.7445C12.4311 29.7445 12.4959 29.7445 12.5284 29.7445C12.5932 29.7445 12.6256 29.7445 12.6904 29.7445C12.7229 29.7445 12.7229 29.6797 12.7553 29.615C12.5608 29.615 12.3663 29.5826 12.2042 29.5826C12.107 29.5503 12.0746 29.356 11.9449 29.5179V30.0681H11.6856C11.6207 30.0034 11.5559 29.971 11.4911 29.9063H11.1669C11.0697 29.7445 11.0697 29.7121 11.2966 29.4855C11.2318 29.4208 11.1994 29.356 11.1345 29.2913C11.2966 29.2589 11.4587 29.2266 11.6207 29.1942C11.6207 28.9676 11.3938 29.1295 11.3614 29.0324C11.2966 28.8705 11.1345 28.9676 11.0373 28.8705C10.9724 28.7087 11.0697 28.4821 10.8428 28.3526C10.9076 28.2879 10.94 28.2232 11.0049 28.1584V27.8348C10.9076 27.77 10.778 27.7376 10.6807 27.6729C10.778 27.5758 10.8428 27.5111 10.9076 27.4463C11.1345 27.4787 11.2966 27.3816 11.4911 27.2845C11.6532 27.1874 11.8152 27.1227 11.9773 27.0579C11.8152 26.8313 11.718 26.6695 11.6207 26.4429V25.9898C11.6856 25.925 11.718 25.8603 11.7828 25.7956V25.4719C11.9449 25.3101 12.107 25.1482 12.2366 24.9864C12.2366 24.9864 12.2366 24.954 12.2042 24.9216C12.0746 24.9216 11.9449 24.8893 11.718 24.8569C12.107 24.598 12.1718 24.2095 12.3663 23.9182C12.5608 23.8859 12.7553 23.9506 12.9498 23.8535C12.8201 23.724 12.7229 23.5945 12.5932 23.4327C12.658 23.3356 12.7229 23.2385 12.7877 23.1414C12.7877 22.9472 12.7877 22.7206 12.7877 22.494C12.7877 22.4617 12.7553 22.4617 12.7229 22.4293C12.658 22.4617 12.6256 22.5264 12.5284 22.5911C12.4959 22.5264 12.4635 22.4617 12.4311 22.4293C12.5284 22.2027 12.7229 22.1056 12.8525 21.9438C13.0794 21.9761 13.1442 21.7496 13.3387 21.6201H13.987C14.0519 21.4259 14.1491 21.2641 14.2788 21.1346C14.4084 20.9727 14.6353 21.0051 14.7326 20.8433C14.8298 20.6814 15.0567 20.6491 15.1864 20.552C15.1216 20.4872 15.0891 20.4225 15.0243 20.3901V20.0664C15.1864 19.9693 15.316 19.8722 15.5105 19.8399C15.7374 19.8075 15.7699 19.5486 15.9319 19.5162C16.1588 19.4838 16.2237 19.322 16.4182 19.1925C16.483 19.1925 16.6126 19.1925 16.7099 19.1925C16.8395 19.0954 16.9692 19.0307 17.0016 18.8365C17.034 18.5775 17.2609 18.5451 17.4554 18.4804C17.4878 18.4157 17.4878 18.3186 17.5203 18.2538C17.6499 18.1567 17.7796 18.2215 17.9092 18.1891C18.0389 18.0273 18.0389 17.7036 18.3306 17.7036C18.4279 17.7036 18.4927 17.5741 18.59 17.5094C18.8817 17.2181 19.1734 16.9267 19.4652 16.6354V16.4736C19.53 16.4089 19.6272 16.3118 19.6921 16.247C19.8865 16.247 20.0486 16.1823 20.2431 16.2794C20.2431 16.4089 20.2755 16.5383 20.2755 16.7002C20.47 16.7649 20.6645 16.7649 20.8914 16.7002C20.8914 16.6678 20.8914 16.6354 20.8914 16.6354C20.7293 16.4736 20.5997 16.3118 20.4376 16.1823C20.5024 16.1175 20.5348 16.0528 20.5997 16.0204C20.5997 15.9557 20.5997 15.9233 20.5997 15.8262C20.6969 15.7939 20.7942 15.7615 20.8914 15.7291C20.9238 15.632 20.9562 15.5349 20.9887 15.4378C21.0535 15.4378 21.1183 15.4378 21.1831 15.4378C21.248 15.3407 21.2804 15.2112 21.3452 15.1141H21.5073C21.5721 15.1789 21.637 15.2112 21.6694 15.276C21.799 15.3083 21.8639 15.2112 21.9611 15.1465C22.0259 15.0818 22.1556 15.0818 22.2528 15.0494V14.6934C22.4473 14.4991 22.6418 14.3049 22.8363 14.1107C22.9011 14.1755 22.9984 14.2726 23.0956 14.3697C22.9335 14.5315 22.7391 14.6934 22.577 14.8228C22.6742 14.9199 22.7391 14.9847 22.8039 15.0818C22.9984 14.8876 23.1929 14.6934 23.3874 14.4991V14.1755C23.4522 14.1107 23.4846 14.046 23.5494 14.0136C23.517 13.9813 23.4522 13.9165 23.4198 13.8842C23.4198 13.8518 23.4198 13.8194 23.4198 13.8194C23.7115 13.5928 23.7763 13.1397 24.1653 12.9455H24.6191C24.7164 12.8484 24.8136 12.7189 24.9109 12.5894C25.0081 12.6542 25.0405 12.7189 25.1053 12.7836C25.1378 12.7513 25.1702 12.6865 25.235 12.6542C25.3647 12.6218 25.4619 12.8807 25.624 12.7513C25.624 12.5894 25.6564 12.5894 25.6564 12.5571C25.6564 12.3305 25.6564 12.1039 25.6564 11.9097C25.8833 11.8126 26.0778 11.6184 26.3695 11.6508C26.4668 11.5537 26.5964 11.4242 26.7261 11.3271C26.7909 11.3918 26.8882 11.4889 26.953 11.5537C26.9206 11.6184 26.8558 11.6831 26.7909 11.7479C26.9206 11.8126 27.0502 11.8773 27.2123 11.9744C27.5041 11.7479 27.5689 11.3918 27.6337 11.0358C27.7634 10.971 27.893 11.0034 28.0227 11.0034C28.0875 11.1652 28.1848 11.3271 28.2496 11.4889C28.1848 11.5213 28.1199 11.5537 28.0875 11.586C28.0551 11.6508 28.0875 11.7479 28.0875 11.8126C27.9254 11.845 27.7634 11.7802 27.6013 11.8773C27.6661 11.9097 27.731 11.9421 27.7958 11.9744C27.8606 11.9744 27.9579 11.9744 27.9254 12.1039C27.8282 12.1363 27.731 12.1687 27.6013 12.2334C27.731 12.2981 27.8606 12.3629 27.9579 12.3952C27.893 12.46 27.8282 12.5247 27.8282 12.5247C27.731 12.7189 27.8606 12.8484 27.6985 12.9779H27.5041C27.4716 12.6865 27.2123 12.5247 27.0502 12.3305C26.7585 12.3305 26.4668 12.3305 26.175 12.3305C26.1426 12.3305 26.0778 12.2981 26.013 12.2658C25.9806 12.2658 25.9481 12.1039 25.8509 12.201C25.8509 12.3629 25.7536 12.5247 25.9157 12.6542C26.0778 12.7189 26.1426 12.5571 26.2399 12.4923C26.3047 12.5894 26.3371 12.7189 26.4019 12.8484C26.5316 12.7836 26.6288 12.7189 26.7261 12.6542C26.8233 12.7513 26.7585 12.8484 26.7909 12.9455C26.6937 12.9779 26.5316 12.8807 26.4668 13.0426C26.6937 13.1073 26.6937 13.1073 26.7909 12.9455C26.8882 12.8807 26.953 12.8484 26.953 12.8484C27.0827 12.9131 27.2123 12.9779 27.2771 13.0102C27.2771 13.2044 27.2447 13.3015 27.1151 13.2692C26.953 13.2692 26.953 13.3663 26.953 13.5281C27.0827 13.5605 27.0827 13.7547 27.2771 13.7547C27.3096 13.8518 27.2771 13.9813 27.4392 13.8842C27.4068 13.8518 27.342 13.8194 27.2771 13.7547C27.2771 13.6899 27.2771 13.6252 27.2771 13.5281C27.342 13.4634 27.4392 13.3663 27.5041 13.3015C27.6013 13.3339 27.6661 13.5281 27.8282 13.431C27.893 13.3986 27.9254 13.3339 27.9903 13.2692H28.3144C28.3793 13.2044 28.4441 13.1073 28.5413 13.0426C28.6386 12.9455 28.7358 12.7836 28.8006 12.7836C29.222 12.7189 30 12.2981 30.1621 12.0392C30.1621 12.0392 30.1621 12.0068 30.1621 12.0392C30.0648 11.8773 30 11.7479 29.9352 11.586C29.8703 11.6184 29.7731 11.6184 29.7083 11.6508C29.7731 11.7155 29.8379 11.7802 29.8703 11.845C29.7731 11.9421 29.7083 12.0716 29.5138 12.1039C29.3517 12.1363 29.222 12.2658 29.06 12.3629C28.9303 12.4276 28.8006 12.4923 28.6386 12.5571C28.3793 12.3629 28.2172 12.0716 28.0875 11.7479C28.1523 11.7155 28.2172 11.6831 28.2496 11.6508C28.282 11.586 28.2496 11.4889 28.2496 11.4242C28.3144 11.4242 28.4117 11.3918 28.4765 11.4242C28.5413 11.4566 28.5413 11.5213 28.5737 11.586C28.4117 11.586 28.4117 11.6831 28.4117 11.7802C28.4117 11.9097 28.3468 12.0716 28.5737 12.0392C28.6062 12.1363 28.5737 12.2658 28.7358 12.1687C28.7034 12.1363 28.6386 12.1039 28.5737 12.0392C28.5737 11.9097 28.5737 11.7155 28.5737 11.5537C28.7358 11.5213 28.8331 11.3918 28.8979 11.2624C28.8979 11.1976 28.8979 11.1329 28.8655 11.1005C28.7682 11.0358 28.6386 11.0358 28.5089 10.9387C28.3793 10.8416 28.4441 10.6797 28.3468 10.5826C28.3144 10.5503 28.282 10.5179 28.2496 10.4855C28.3793 10.356 28.5089 10.2266 28.6386 10.0647C28.7358 10.2266 28.8006 10.2913 28.8331 10.3237H29.1896C29.222 10.2266 29.2545 10.1295 29.2869 10C29.3517 10.0647 29.4489 10.1295 29.5138 10.1618C29.611 10.1942 29.7083 10.1618 29.8055 10.1618C29.8379 10.1942 29.8703 10.2266 29.9028 10.2589C29.9352 10.3884 29.8703 10.4532 29.8055 10.5503C29.7407 10.615 29.7407 10.7445 29.7083 10.8092C29.6434 10.8092 29.5786 10.8092 29.5138 10.8416C29.4165 10.971 29.3193 11.1329 29.2545 11.2947C29.222 11.3595 29.2869 11.4242 29.3193 11.5213C29.3841 11.4566 29.4165 11.4242 29.4489 11.3595C29.5786 11.3271 29.7407 11.3271 29.9028 11.2947C29.8379 11.1976 29.7731 11.1329 29.7083 11.0681C29.8055 11.0034 29.9352 10.971 30.0324 10.9063C30.1297 10.8416 30.2269 10.7121 30.3241 10.615C30.4214 10.6797 30.5186 10.7445 30.6159 10.8092C30.6807 10.7768 30.778 10.7121 30.8752 10.6797V11.1005C30.94 11.1652 30.9724 11.23 31.0373 11.2624C30.9724 11.3595 30.8752 11.4242 30.8104 11.4889H30.3241C30.2269 11.5537 30.1945 11.6508 30.2593 11.7802C30.3566 11.8773 30.5186 11.8126 30.6159 11.845C30.7131 11.9097 30.8104 11.9744 30.8752 12.0392C31.1021 11.9421 31.1994 11.7155 31.3614 11.6184C31.3938 11.5213 31.3938 11.4566 31.4263 11.3595H31.8152C31.8801 11.23 31.9773 11.1005 32.0421 11.0034H32.3015C32.3663 10.9063 32.3987 10.7768 32.4635 10.6797C32.5284 10.7445 32.5932 10.7768 32.6256 10.8416C32.6904 10.7768 32.7553 10.7445 32.8201 10.6797C33.047 10.7121 33.2415 10.971 33.5008 10.8092C33.5981 10.7121 33.436 10.7121 33.436 10.6474C33.2739 10.4855 33.3387 10.356 33.3387 10.2589C33.436 10.1618 33.5008 10.0971 33.5656 10C33.7925 10.1618 33.8574 10.4208 33.987 10.6797C33.9222 10.7445 33.8898 10.8416 33.7925 10.9387C33.8898 11.1329 33.987 11.3595 34.1167 11.586C34.0194 11.6831 33.9222 11.7802 33.825 11.8773V12.2658C33.9546 12.3629 34.0194 12.3305 34.1167 12.2658C34.3112 12.1687 34.2464 11.9421 34.4084 11.8126C34.5381 11.6831 34.7326 11.586 34.6353 11.3918C34.8622 11.2947 34.9271 11.4242 35.0243 11.5213C35.154 11.5213 35.2836 11.5213 35.4457 11.5213V11.7802C35.3809 11.845 35.3485 11.9097 35.2512 11.9744C35.4133 12.0068 35.5754 12.0392 35.705 12.0392C35.8023 12.1687 35.7374 12.2981 35.7374 12.46C35.6402 12.4923 35.5429 12.5247 35.4457 12.5571C35.5105 12.7189 35.6078 12.8484 35.6726 13.0102H35.7374C35.705 13.1073 35.7699 13.2368 35.6726 13.3015C35.5754 13.3339 35.4781 13.3663 35.2836 13.431C35.5754 13.5281 35.7699 13.5281 35.9643 13.4957C36.0616 13.3986 36.1264 13.3339 36.1912 13.2692V12.9779C36.2885 12.9779 36.3533 12.9131 36.3533 12.816H36.5802C36.7099 13.0426 36.7747 13.3015 37.0016 13.4634C37.0665 13.431 37.0989 13.3663 37.1637 13.3015H37.6499C37.6823 13.2692 37.7147 13.2368 37.7796 13.1721C37.8444 13.2044 37.9092 13.2692 38.0065 13.3339C38.2334 13.3015 38.3955 13.0426 38.6872 13.2368C38.6548 13.3015 38.59 13.3663 38.5251 13.4634C38.4927 13.6576 38.6872 13.7223 38.7844 13.8518H39.1086C39.1734 13.7871 39.2382 13.7547 39.2707 13.6899C39.3355 13.6899 39.3679 13.6899 39.4327 13.6899C39.5624 13.7871 39.4652 13.9489 39.4976 14.0784C39.3355 14.3049 39.141 14.1431 38.8817 14.2078C38.8493 14.2726 38.752 14.402 38.7196 14.4668C38.5575 14.4991 38.4603 14.5315 38.3955 14.5315C38.4279 14.5639 38.4279 14.6286 38.4279 14.661C38.4927 14.7581 38.5251 14.8876 38.5899 15.017C38.6224 14.9847 38.6872 14.9199 38.7196 14.8876C38.8169 14.7905 38.9789 14.8876 39.0762 14.8552C39.141 14.9199 39.1734 14.9523 39.2382 15.017C39.4003 15.017 39.5948 15.0494 39.7893 15.0494C39.8217 15.1141 39.8217 15.2112 39.8541 15.276C39.7245 15.3407 39.5624 15.4378 39.4327 15.5026C39.4003 15.4702 39.3355 15.4378 39.2707 15.3731C39.2058 15.4378 39.1734 15.4702 39.1086 15.5349C39.0438 15.4702 39.0113 15.4378 38.9141 15.3731C38.8817 15.4702 38.8817 15.5349 38.8493 15.632C38.6548 15.7291 38.4279 15.8262 38.2334 15.9557C38.3306 16.1175 38.4927 16.0204 38.6224 16.0528C38.6872 15.9881 38.752 15.9557 38.8169 15.891C38.8493 15.9233 38.8817 15.9557 38.9141 15.9881C38.9465 16.1823 38.8169 16.3765 39.0438 16.5707C39.0762 16.4089 39.0762 16.247 39.141 16.0852C39.2058 15.9557 39.3031 15.8262 39.4003 15.6644C39.4976 15.7291 39.5948 15.7615 39.7245 15.8586C39.7569 15.7615 39.8217 15.5997 39.8541 15.5673C40.0486 15.5673 40.1135 15.5673 40.2107 15.5349C40.2431 15.4378 40.2755 15.3731 40.3079 15.276C40.3404 15.2436 40.4052 15.2112 40.4376 15.2112C40.5348 15.2112 40.6645 15.2112 40.7618 15.2112V15.4702C40.6969 15.5349 40.5997 15.632 40.5348 15.6968C40.4052 15.6968 40.2755 15.7291 40.1135 15.7291C40.1783 15.8262 40.2107 15.8586 40.2755 15.9557C40.2431 15.9881 40.2107 16.0528 40.1459 16.1499V16.7973C40.0162 16.8944 39.919 16.8944 39.8217 16.7973C39.8541 16.7325 39.919 16.7002 39.9514 16.6354C39.919 16.5707 39.8541 16.5383 39.8217 16.4736C39.7893 16.3441 39.8541 16.2147 39.7893 16.0852C39.6272 16.1175 39.5948 16.247 39.4976 16.3118C39.4327 16.4736 39.5948 16.5383 39.6596 16.6354C39.53 16.7649 39.4003 16.6678 39.2382 16.7002C39.2058 16.7649 39.1734 16.8296 39.1734 16.862C39.4327 17.121 39.6596 17.3475 39.8865 17.5741C39.7245 17.7359 39.6272 17.8978 39.4976 17.9625C39.3355 18.0596 39.4003 18.2862 39.2707 18.3833H38.9465C38.8817 18.448 38.8169 18.4804 38.7844 18.5451H38.4279C38.3955 18.707 38.363 18.8365 38.363 18.9983C38.1037 19.1278 37.8444 18.9659 37.5851 19.0954C37.6499 19.1601 37.6823 19.2249 37.7472 19.2896C37.6823 19.3867 37.6499 19.4514 37.6175 19.5486C37.5203 19.5809 37.3906 19.5486 37.4878 19.7104C37.5203 19.678 37.5527 19.6133 37.6175 19.5486C37.7147 19.5486 37.8768 19.5486 38.0065 19.5486C38.1037 19.4514 38.201 19.3543 38.2982 19.2572C38.59 19.2572 38.8169 19.0954 39.0762 19.0307V18.8041C39.141 18.7717 39.2058 18.7394 39.3031 18.7394C39.4003 18.9012 39.4652 19.0307 39.5624 19.1925C39.53 19.2249 39.4976 19.2572 39.4003 19.3543C39.4976 19.3867 39.5948 19.4514 39.6921 19.4838C39.7569 19.6133 39.8865 19.5809 40.0162 19.5809C40.081 19.4514 40.2431 19.4191 40.2431 19.2572C40.3728 19.2249 40.4052 19.3867 40.5024 19.4191C40.5673 19.4191 40.6645 19.4514 40.7293 19.4191C40.9887 19.2572 41.3128 19.2572 41.5721 19.0954C41.7018 19.0307 41.8314 18.9012 41.9611 18.7717C42.0259 18.8365 42.0908 18.9336 42.188 19.063C42.0908 19.1278 41.9611 19.2249 41.8639 19.2896C41.8963 19.4838 41.8314 19.6133 41.9287 19.7428C42.0583 19.7104 42.1556 19.4838 42.3501 19.678C42.3177 19.7428 42.2528 19.8399 42.188 19.937C42.2204 20.0017 42.2528 20.0988 42.2853 20.1312C42.5122 20.1959 42.7066 20.3254 42.9335 20.4549C42.9011 20.4549 42.9335 20.4549 42.9335 20.4549C43.0956 20.293 43.2577 20.1312 43.3874 19.9693C43.4846 19.9693 43.6467 20.0017 43.7115 19.9693C43.906 19.8075 44.1977 19.7751 44.3274 19.5162C44.4571 19.4838 44.5867 19.4838 44.7164 19.4514C44.7488 19.4514 44.7488 19.3543 44.7812 19.322C45.1053 19.3867 45.2674 19.063 45.5916 19.0307C45.6564 19.063 45.7212 19.2896 45.9157 19.2896C45.9481 19.3867 45.9157 19.5162 46.0778 19.4191C46.0454 19.3867 45.9806 19.3543 45.9157 19.2896C45.9157 19.2249 45.9157 19.1601 45.9157 19.063C45.8509 18.9983 45.8185 18.9336 45.7536 18.9012C45.8509 18.7717 46.013 18.8365 46.1426 18.8365C46.2399 18.6746 46.3695 18.5128 46.4668 18.3509H47.342C47.4068 18.4157 47.4716 18.5128 47.5365 18.5775C47.4716 18.707 47.4068 18.8365 47.342 18.9983C47.2771 18.9983 47.2123 18.9983 47.1151 19.0307C47.0827 18.8688 47.0827 18.707 47.0502 18.5128C46.953 18.5451 46.8558 18.5451 46.7261 18.5775C46.7909 18.6422 46.8558 18.6746 46.8558 18.707C46.9854 18.9012 46.8558 19.0954 46.9206 19.2572C46.7585 19.4191 46.6288 19.5486 46.4992 19.678C46.4019 19.7104 46.2723 19.6133 46.2723 19.8075C46.4344 19.937 46.6288 19.8075 46.8558 19.9046C46.8882 19.937 46.9854 20.0341 47.0502 20.0988C47.0827 20.2606 47.0827 20.3578 46.8882 20.3578C46.8558 20.3578 46.7909 20.3901 46.7261 20.4549C46.8233 20.4872 46.9206 20.5196 47.0178 20.552C47.0502 20.5843 47.0502 20.6491 47.0827 20.6814C46.953 20.6491 46.9206 20.8109 46.8233 20.8433C46.7909 20.8109 46.7585 20.7785 46.6937 20.7138C46.6613 20.7462 46.5964 20.7785 46.5316 20.8433C46.4668 20.8109 46.3695 20.7462 46.3047 20.7138C46.1426 20.7138 46.1426 20.7138 46.1102 20.9727C46.2075 21.1022 46.3695 21.0051 46.4992 21.0698C46.564 21.167 46.6288 21.2964 46.6937 21.4583C46.6613 21.4906 46.6288 21.5554 46.5964 21.5877C46.7909 21.879 46.8882 21.5554 47.0502 21.523C47.1151 21.523 47.2447 21.523 47.342 21.5554C47.1799 21.2964 47.1799 21.3935 47.2123 21.4259C47.1151 21.4259 47.0178 21.4259 46.8882 21.4583C46.8882 21.5877 46.9206 21.6848 46.9206 21.7819C47.0502 21.7496 47.1475 21.7172 47.2123 21.6848V21.4259ZM31.2318 21.3288C31.1994 21.1993 31.1994 21.0698 31.0697 21.1993C31.1021 21.2317 31.1669 21.2641 31.1994 21.2641C31.2318 21.3935 31.2318 21.523 31.3614 21.3935C31.2966 21.3288 31.2642 21.2964 31.2318 21.3288ZM23.4846 44.9898C23.6143 44.9574 23.7439 44.9574 23.6143 44.8279C23.5818 44.8603 23.5494 44.925 23.5494 44.9574C23.4198 44.9898 23.2901 44.9898 23.4198 45.1192C23.4846 45.0869 23.517 45.0221 23.4846 44.9898ZM45.4295 23.4327C45.3323 23.4327 45.2674 23.4974 45.2998 23.5945C45.1702 23.6269 45.0405 23.6269 45.1702 23.7564C45.2026 23.724 45.235 23.6593 45.2674 23.5945C45.3647 23.5945 45.4295 23.5298 45.3971 23.4327C45.5267 23.4003 45.6564 23.4003 45.5267 23.2709C45.4619 23.3356 45.4295 23.368 45.4295 23.4327ZM43.8412 24.4037C43.7115 24.4361 43.5818 24.4361 43.7115 24.5656C43.7439 24.5332 43.7763 24.4685 43.7763 24.4361C43.906 24.4037 44.0357 24.4037 43.906 24.2743C43.8412 24.3066 43.8088 24.3714 43.8412 24.4037ZM17.4878 29.8416C17.5203 29.971 17.5203 30.1005 17.6499 29.971C17.6175 29.9387 17.5527 29.9063 17.5203 29.9063C17.4878 29.7768 17.4878 29.6474 17.3582 29.7768C17.3906 29.8416 17.423 29.8739 17.4878 29.8416ZM13.5332 29.7445C13.6629 29.7121 13.7925 29.7121 13.6629 29.5826C13.6305 29.615 13.5981 29.6797 13.5981 29.7121C13.4684 29.7445 13.3387 29.7445 13.4684 29.8739C13.5008 29.8416 13.5656 29.7768 13.5332 29.7445ZM46.564 24.6303C46.5316 24.5009 46.5316 24.3714 46.4019 24.5009C46.4344 24.5332 46.4992 24.5656 46.564 24.598C46.6613 24.7598 46.6613 24.7598 46.8882 24.6951C46.8233 24.5009 46.6613 24.6303 46.564 24.6303ZM21.8963 29.0647C21.8314 29.0647 21.7342 29.0324 21.6694 29.0647C21.6045 29.0971 21.6045 29.1618 21.5721 29.2266H21.1831C21.0535 29.1618 20.9887 28.9353 20.7942 29.1295C20.7942 29.1942 20.7942 29.2589 20.7618 29.3237C20.8914 29.3884 20.9887 29.4208 21.0859 29.4855V29.7445H20.6969C20.5673 29.6797 20.5024 29.4532 20.3079 29.615C20.2431 29.7445 20.2755 29.9063 20.2755 30.0681C20.1135 30.1005 19.9514 30.0358 19.7893 30.1329C19.7893 30.1976 19.8217 30.2947 19.8217 30.4242C19.919 30.3271 19.9838 30.2947 20.0162 30.23C20.081 30.23 20.1783 30.23 20.2431 30.1976C20.2755 30.3271 20.2755 30.4566 20.4052 30.3271C20.3728 30.2947 20.3079 30.2624 20.2431 30.23V30.0681H20.8266C20.8914 29.9387 21.0535 29.9063 21.0535 29.7445C21.2804 29.6474 21.4425 29.4855 21.5397 29.2589C21.6045 29.2589 21.7018 29.2913 21.7666 29.2589C21.8314 29.1942 21.8639 29.1295 21.8963 29.0647C21.9935 29.0647 22.0583 29 22.0583 28.9029C22.188 28.9353 22.2204 28.7411 22.3177 28.7411C22.4797 28.7411 22.5446 28.644 22.6418 28.5468C22.6742 28.5145 22.6742 28.4821 22.6742 28.4497C22.5446 28.385 22.4149 28.3203 22.2853 28.2555C22.2528 28.2879 22.188 28.3526 22.1232 28.385C22.0583 28.3203 21.9935 28.2879 21.9611 28.2555C21.8639 28.3526 21.799 28.4174 21.7018 28.4821C21.8314 28.5468 21.9287 28.5792 22.0259 28.644V28.9029C21.9611 28.9029 21.8963 28.9353 21.8963 29.0647ZM44.4246 21.5877C44.3598 21.5877 44.2626 21.5554 44.1977 21.5877C44.1329 21.6201 44.1329 21.6848 44.2301 22.0085C44.1653 21.9114 44.1329 21.8143 44.0681 21.7496C44.0032 21.6848 43.906 21.6525 43.8412 21.6201C43.5818 21.879 43.3549 22.1056 43.0956 22.3646C43.1605 22.3969 43.2253 22.3969 43.2901 22.4293C43.3549 22.3646 43.4198 22.2998 43.4846 22.2675C43.5494 22.3322 43.6143 22.3646 43.6467 22.4293C43.7763 22.3969 43.906 22.494 44.0357 22.3646C44.0032 22.2998 43.9384 22.2027 43.906 22.138C44.0357 22.1056 44.1329 22.0733 44.0681 21.7496C44.1329 21.7496 44.2301 21.7819 44.295 21.7496C44.3598 21.7172 44.3598 21.6525 44.3598 21.6201C44.4895 21.5877 44.6191 21.5877 44.4895 21.4583C44.4895 21.4906 44.457 21.5554 44.4246 21.5877ZM25.4619 13.5928C25.4943 13.7223 25.4943 13.8518 25.624 13.7223C25.5916 13.6899 25.5267 13.6576 25.4619 13.6252C25.4295 13.5281 25.5267 13.3663 25.3647 13.3015C25.3323 13.5605 25.3323 13.5605 25.4619 13.5928ZM28.6062 23.5945C28.7034 23.5945 28.8006 23.5945 28.9303 23.5945C28.9303 23.4651 28.9303 23.368 28.9627 23.2709C29.0276 23.2709 29.1248 23.2709 29.222 23.2385C29.2545 22.9796 29.2545 22.9796 28.9627 22.7853C28.9627 22.9472 28.9627 23.109 28.9303 23.2385C28.7682 23.2709 28.6386 23.4003 28.6386 23.5622C28.5089 23.5945 28.3793 23.5945 28.5089 23.724C28.5413 23.6917 28.5737 23.6593 28.6062 23.5945ZM43.6143 23.5945C43.517 23.5945 43.4198 23.5945 43.2901 23.6269C43.2901 23.7564 43.2901 23.8211 43.3225 23.9506C43.4846 23.8535 43.6143 23.7888 43.5818 23.6269C43.7115 23.5945 43.8412 23.5945 43.7115 23.4651C43.6791 23.4974 43.6467 23.5298 43.6143 23.5945ZM35.4457 20.7138C35.4781 20.8433 35.4781 20.9727 35.6078 20.8433C35.5754 20.8109 35.5105 20.7785 35.4457 20.7462C35.4133 20.6491 35.5105 20.4872 35.3485 20.4225C35.2836 20.5196 35.154 20.552 35.154 20.7138C35.2512 20.7785 35.3485 20.7785 35.4457 20.7138ZM26.564 24.0801C26.4992 24.339 26.4992 24.339 26.7585 24.6303C26.7909 24.5656 26.8233 24.4685 26.8558 24.4037C26.7585 24.3066 26.6937 24.2095 26.7261 24.598C26.5964 24.6303 26.4668 24.6303 26.5964 24.7598C26.564 24.6951 26.6288 24.6627 26.564 24.0801ZM36.094 43.8893C36.094 43.9216 36.094 43.954 36.094 43.954C36.1912 44.0187 36.2561 44.0511 36.3533 44.1158C36.4182 44.0187 36.5478 43.9864 36.5478 43.8245C36.3857 43.7922 36.2237 43.7274 36.1588 43.954C36.0292 43.9864 35.8995 43.9864 36.0292 44.1158C36.0616 44.0835 36.094 44.0511 36.094 43.8893ZM48.1848 29.8092C47.9254 29.5826 47.9254 29.5826 47.6985 29.615C47.6985 29.7121 47.731 29.8092 47.731 29.8739C47.9254 29.8739 48.0875 29.971 48.1523 29.7445C48.282 29.7121 48.4117 29.7121 48.282 29.5826C48.2496 29.615 48.2172 29.6797 48.1848 29.8092ZM41.5073 23.5945C41.41 23.5945 41.3128 23.5945 41.2156 23.6269C41.1831 24.0153 41.1831 24.0153 41.248 24.1124C41.3128 24.1124 41.3776 24.1124 41.4425 24.0801C41.5397 23.9182 41.4749 23.7564 41.5073 23.5945C41.6694 23.4974 41.6694 23.4974 41.6045 23.2709C41.41 23.3356 41.5397 23.4974 41.5073 23.5945ZM11.4587 32.8842C11.3614 32.7223 11.3614 32.7223 11.1345 32.7871C11.1994 32.9489 11.3614 32.8518 11.4587 32.8842V33.1431C11.3938 33.5315 11.1021 33.4668 10.9724 33.6286V33.9523C11.1021 34.0494 11.1669 34.2436 11.3938 34.1789C11.4587 34.0818 11.5559 33.9523 11.6532 33.8552H11.8801C11.9773 33.661 12.0421 33.4344 12.1394 33.2402C12.1394 33.2078 12.2366 33.2078 12.269 33.1431C12.269 33.2726 12.269 33.402 12.4311 33.3049C12.3987 33.2726 12.3339 33.2402 12.269 33.2078C12.2366 33.046 12.107 32.9813 11.9773 32.8842H11.4587ZM48.3468 28.5145C48.2496 28.5145 48.1848 28.5468 48.0875 28.5468C48.0551 28.4174 48.0227 28.3203 47.9579 28.1584C47.8606 28.2879 47.7634 28.3526 47.6985 28.4497C47.731 28.6116 47.6661 28.7734 47.6985 28.8058C47.9254 28.9353 48.0551 28.8058 48.1848 28.9353C48.2172 29.0324 48.2496 29.1295 48.282 29.2266C48.3793 29.1942 48.4441 29.1942 48.5089 29.1618C48.5413 28.9676 48.4765 28.7411 48.5737 28.5792C48.671 28.4174 48.7358 28.2232 48.8331 28.0613C48.671 27.9966 48.5737 27.9319 48.3793 27.8348V28.5145H48.3468ZM13.6953 33.1431C13.5332 33.2402 13.436 33.3049 13.3063 33.3697C13.1118 33.3697 12.8525 33.3373 12.6256 33.402C12.6256 33.6934 12.6256 33.9847 12.6256 34.2436C12.6256 34.276 12.6904 34.3083 12.6904 34.3407C12.8201 34.2112 12.9822 34.0818 13.1118 33.9523C13.1118 33.8876 13.1118 33.8228 13.1118 33.7581C13.3387 33.661 13.5656 33.5315 13.7601 33.4344C13.7277 33.3697 13.7277 33.3049 13.6953 33.1431ZM42.1232 22.9472C41.9935 23.0443 41.8963 23.109 41.8314 23.1738C41.9935 23.3356 42.2853 23.1414 42.3825 23.4003C42.4797 23.3356 42.6094 23.2709 42.7715 23.1738C42.7391 22.9796 43.128 22.7853 42.9335 22.4293C42.8039 22.494 42.6418 22.5588 42.5122 22.6235C42.4797 22.7206 42.4797 22.7853 42.4473 22.8825C42.3177 22.9148 42.2204 22.9148 42.1232 22.9472ZM25.9806 14.402C26.0454 14.4668 26.1426 14.5639 26.2075 14.6286C26.4668 14.4668 26.5964 14.2402 26.7261 13.9813C26.8233 13.9489 26.8882 13.9489 27.0502 13.9165C26.9206 13.7871 26.8233 13.7223 26.7261 13.6252C26.5964 13.8518 26.4019 13.7547 26.2399 13.8194C26.1426 13.9165 26.0778 13.9813 26.013 14.046V14.402H25.9806ZM37.6175 17.6388C37.9092 17.4123 38.1037 17.1857 38.201 16.8296C38.0713 16.7325 37.9741 16.8296 37.8768 16.8944C37.7796 16.9591 37.6175 16.9267 37.4878 16.9591C37.4554 17.0886 37.2609 17.0886 37.2934 17.3475C37.3582 17.4123 37.3906 17.5741 37.6175 17.6388ZM42.3825 24.0801C42.2528 24.2095 42.1232 24.3714 41.9611 24.5009C41.799 24.6303 41.5721 24.6303 41.4749 24.8893C41.5073 24.954 41.5073 25.0187 41.5397 25.0511C41.799 24.9216 42.0583 24.7922 42.3177 24.6303C42.0908 24.4361 42.7066 24.3714 42.3825 24.0801ZM40.859 20.2606C41.1507 20.0988 41.41 19.9693 41.6694 19.8399C41.5397 19.7104 41.41 19.5486 41.248 19.4191C41.1183 19.5809 40.9238 19.678 40.8266 19.8722C40.859 20.0341 40.859 20.1312 40.859 20.2606ZM13.6953 31.7189H13.3387C13.2415 31.8484 13.047 31.8807 13.0794 32.075C13.1767 32.2368 13.2739 32.3986 13.5008 32.3663C13.5332 32.2692 13.5332 32.1721 13.5981 32.1073C13.6953 32.0102 13.7925 31.9131 13.6953 31.7189ZM23.5494 15.632C23.7115 15.632 23.8088 15.632 23.906 15.632C24.0357 15.632 24.0681 15.4378 24.2301 15.4702C24.3274 15.5026 24.457 15.5026 24.5219 15.4055C24.3598 15.3083 24.2301 15.2112 24.0681 15.1465C23.9708 15.1141 23.8736 15.1465 23.8088 15.1465C23.7115 15.2436 23.6143 15.3083 23.5494 15.3731V15.632V15.632ZM34.6029 12.3952C34.6677 12.5571 34.5705 12.6865 34.7002 12.816C34.765 12.816 34.8298 12.816 34.8947 12.7836C34.9595 12.7513 35.0243 12.6865 35.0891 12.6542C35.154 12.6218 35.2188 12.6218 35.2836 12.5894C35.2836 12.5247 35.2836 12.46 35.2836 12.3952C35.2836 12.3305 35.2836 12.2658 35.2512 12.1039C35.0891 12.3952 34.8622 12.2981 34.6029 12.3952ZM44.684 28.385C44.5867 28.6116 44.5867 28.6116 44.8136 28.7411C45.0729 28.5792 45.235 28.2232 45.5916 28.1584C45.4619 27.9966 45.3323 28.0937 45.1702 28.0613C45.0729 28.1584 44.9757 28.2879 44.9109 28.385H44.684V28.385ZM46.0454 27.4787C46.0454 27.5111 46.0778 27.5434 46.0778 27.5758H46.6288C46.6937 27.5111 46.7909 27.414 46.953 27.2521H46.4019C46.2399 27.3492 46.1426 27.414 46.0454 27.4787ZM45.9157 21.879C46.013 21.9114 46.1102 21.9114 46.175 21.9761C46.2723 22.0409 46.3695 22.1704 46.4668 22.2675C46.4992 22.2027 46.5316 22.138 46.5316 22.1056C46.3695 21.9114 46.2399 21.7172 46.1102 21.5554C46.013 21.5877 45.9481 21.6201 45.8833 21.6525V21.879H45.9157ZM16.8071 30.8126C16.8071 30.8126 16.8395 30.7479 16.8395 30.6831C16.7423 30.5213 16.6775 30.3595 16.5802 30.1976H16.4182C16.3857 30.2624 16.3533 30.3271 16.3533 30.3595C16.5154 30.5537 16.6775 30.6831 16.8071 30.8126ZM34.1491 19.3867C34.3436 19.1601 34.5057 19.0307 34.6353 18.8688C34.376 18.8041 34.376 18.8041 34.1491 18.9012V19.3867ZM11.9449 28.1261C11.8801 28.0937 11.8152 28.0613 11.6856 28.029C11.6207 28.1261 11.5559 28.2232 11.4911 28.3526C11.5883 28.4174 11.7504 28.4821 11.8801 28.5468C11.9773 28.4174 11.9125 28.2879 11.9449 28.1261ZM12.7553 24.6627C12.658 24.7274 12.5284 24.7598 12.3987 24.8245C12.5608 24.954 12.7229 24.954 12.9173 24.8245C12.8525 24.6951 12.9498 24.5656 12.8201 24.4037C12.7553 24.4037 12.658 24.4361 12.5284 24.4361C12.658 24.5656 12.6904 24.598 12.7553 24.6627ZM16.8395 40.7819C16.6451 40.879 16.5154 40.7819 16.3857 40.879C16.4182 41.0085 16.5478 41.0733 16.6126 41.1704C16.6775 41.1704 16.7423 41.138 16.8395 41.138V40.7819ZM12.9173 29.4855C13.0146 29.5826 13.1442 29.615 13.2415 29.4855C13.2091 29.356 13.3063 29.2266 13.1767 29.0971C13.047 29.0971 13.0146 29.2266 12.9173 29.3237V29.4855ZM45.3971 19.8075C45.4295 19.937 45.4295 20.0341 45.4619 20.1312C45.5592 20.0988 45.6564 20.0988 45.7536 20.0664C45.7212 19.9693 45.7212 19.8722 45.6888 19.8075H45.3971ZM43.0308 36.121C42.966 36.5094 42.966 36.5094 43.0632 36.6712C43.128 36.6065 43.2253 36.5094 43.2253 36.5094C43.1605 36.3799 43.128 36.2828 43.0308 36.121ZM38.363 13.9489C38.2334 13.9813 38.1361 13.9813 38.0389 14.0136C38.0713 14.1431 38.0713 14.2078 38.1037 14.3373C38.201 14.3049 38.2982 14.3049 38.363 14.2726V13.9489ZM34.4733 13.4957C34.6677 13.3986 34.7974 13.3015 34.9271 13.2368C34.8298 13.1073 34.7002 13.1721 34.6029 13.1721C34.5705 13.1721 34.5057 13.2044 34.4408 13.2368V13.4957H34.4733ZM38.6548 17.7036C39.0438 17.7683 39.0438 17.7683 39.2058 17.6712C39.141 17.6065 39.0438 17.5094 39.0438 17.5094C38.9141 17.5741 38.8169 17.6388 38.6548 17.7036ZM23.8736 14.6286C23.7439 14.6286 23.7115 14.6286 23.7115 14.6286C23.6791 14.6286 23.6143 14.661 23.5818 14.6934C23.6143 14.7257 23.6143 14.7581 23.6467 14.7905C23.7115 14.8552 23.7439 14.8876 23.8412 14.9847C23.8412 14.8876 23.8412 14.7905 23.8736 14.6286ZM34.5705 21.4906C34.6353 21.1022 34.6353 21.1022 34.5381 20.9727C34.4408 21.1022 34.4408 21.2641 34.5705 21.4906ZM22.3501 15.4378C22.2528 15.5673 22.1232 15.632 22.0908 15.7615C22.188 15.8262 22.2853 15.8262 22.3825 15.7291C22.3825 15.6644 22.3501 15.5673 22.3501 15.4378ZM46.8882 25.5043C46.7585 25.4072 46.6613 25.3748 46.564 25.5043C46.6613 25.569 46.6937 25.6985 46.8558 25.7308C46.8558 25.6337 46.8882 25.569 46.8882 25.5043ZM23.6143 27.7376C23.7115 27.6082 23.7439 27.5111 23.6143 27.3816C23.5818 27.5111 23.4198 27.5111 23.4198 27.7053C23.4846 27.7053 23.5494 27.7376 23.6143 27.7376ZM30.2269 10.971C30.2269 11.1005 30.2269 11.1329 30.2269 11.1652C30.2269 11.1976 30.2593 11.2624 30.2917 11.2947C30.3241 11.2624 30.3566 11.2624 30.389 11.23C30.4538 11.1652 30.4862 11.1329 30.5835 11.0358C30.4538 11.0358 30.389 11.0034 30.2269 10.971ZM23.0632 27.6405C22.966 27.5434 22.8363 27.5111 22.7391 27.6405C22.7391 27.7376 22.6742 27.8348 22.8363 27.8671C22.9011 27.8024 22.966 27.7376 23.0632 27.6405ZM29.1572 11.6508C29.06 11.7802 29.0276 11.8773 29.1572 11.9744C29.2545 11.9744 29.3517 12.0392 29.3841 11.8773C29.3193 11.8126 29.2545 11.7479 29.1572 11.6508ZM42.6742 24.2095C42.8039 24.1772 42.966 24.339 43.128 24.1772C42.966 24.0477 42.8039 24.0477 42.6742 24.2095ZM15.5429 31.9779C15.4133 31.8484 15.316 31.8484 15.1864 31.9455C15.1864 32.0102 15.2188 32.1073 15.2188 32.1721C15.3485 32.1073 15.4457 32.0426 15.5429 31.9779ZM12.7229 32.2368C12.5608 32.2692 12.5284 32.3986 12.4311 32.4634C12.5284 32.5928 12.658 32.5928 12.7553 32.4634C12.7553 32.3663 12.7553 32.3015 12.7229 32.2368ZM27.6985 23.9182C27.7958 23.7888 27.8282 23.6917 27.6985 23.5622C27.6661 23.6917 27.5041 23.6917 27.5041 23.8859C27.5365 23.9182 27.6337 23.9182 27.6985 23.9182ZM13.5008 33.046C13.5981 32.9165 13.6305 32.8194 13.5008 32.7223C13.4036 32.7223 13.3063 32.6576 13.2739 32.8194C13.3387 32.8842 13.4036 32.9489 13.5008 33.046ZM15.7699 33.046C15.8671 32.9165 15.8995 32.8194 15.7699 32.7223C15.6726 32.7223 15.5754 32.6576 15.5429 32.8194C15.6402 32.8842 15.705 32.9489 15.7699 33.046ZM46.1102 25.4719C45.7212 25.4072 45.7212 25.4072 45.5916 25.5366C45.7536 25.6014 45.8833 25.6014 46.1102 25.4719ZM23.6791 40.9114C23.7763 41.0085 23.906 41.0409 24.0032 40.9114C24.0032 40.8143 24.0681 40.7172 23.906 40.6848C23.8412 40.7496 23.7763 40.8467 23.6791 40.9114ZM38.2658 26.0221C38.1361 25.8927 38.0389 25.8927 37.9092 25.9898C37.9092 26.0545 37.9417 26.1516 37.9417 26.2164C38.0389 26.1516 38.1361 26.0869 38.2658 26.0221ZM31.2318 14.1107C31.2642 14.1107 31.2966 14.1107 31.329 14.1107C31.329 14.046 31.3614 13.9489 31.3614 13.8842C31.3614 13.8518 31.329 13.8194 31.2966 13.8194C31.2642 13.8194 31.1994 13.8518 31.1994 13.8842C31.1994 13.9813 31.2318 14.046 31.2318 14.1107ZM33.5008 19.1601C33.5008 19.1925 33.5008 19.2249 33.5008 19.2572C33.5656 19.2572 33.6305 19.2896 33.7277 19.2896C33.7601 19.2896 33.7925 19.2572 33.7925 19.2249C33.7925 19.1925 33.7601 19.1278 33.7277 19.1278C33.6629 19.1278 33.5981 19.1278 33.5008 19.1601ZM15.5754 20.2606C15.6078 20.2606 15.6402 20.2606 15.6726 20.2606C15.6726 20.1959 15.705 20.0988 15.705 20.0341C15.705 20.0017 15.6726 19.9693 15.6402 19.9693C15.6078 19.9693 15.5429 20.0017 15.5429 20.0341C15.5429 20.0988 15.5429 20.1959 15.5754 20.2606ZM37.9741 19.937C37.8768 20.0664 37.812 20.1959 38.0065 20.2606C38.0713 20.1635 38.1037 20.0664 37.9741 19.937ZM18.8817 42.6593C18.9789 42.4974 19.0438 42.4003 18.8493 42.3356C18.752 42.4327 18.7844 42.5298 18.8817 42.6593ZM29.222 13.0102C29.1896 13.0102 29.1572 13.0102 29.1248 13.0102C29.1248 13.075 29.0924 13.1721 29.0924 13.2368C29.0924 13.2692 29.1248 13.3015 29.1572 13.3015C29.1896 13.3015 29.2545 13.2692 29.2545 13.2368C29.2545 13.1397 29.222 13.075 29.222 13.0102ZM45.5916 27.4787C45.6888 27.6082 45.8185 27.6082 45.9157 27.4787C45.7861 27.3816 45.6888 27.3816 45.5916 27.4787ZM16.3857 27.2845C16.3857 27.3169 16.3857 27.3492 16.3857 27.3816C16.4506 27.3816 16.5154 27.414 16.6126 27.414C16.6451 27.414 16.6775 27.3816 16.6775 27.3492C16.6775 27.3169 16.6451 27.2521 16.6126 27.2521C16.5154 27.2521 16.4506 27.2521 16.3857 27.2845ZM24.0357 27.155C24.1329 27.2845 24.2626 27.2845 24.3598 27.155C24.2301 27.0256 24.1329 27.0256 24.0357 27.155ZM31.8801 13.5281C31.8801 13.5605 31.8801 13.5928 31.8801 13.6252C31.9449 13.6252 32.0097 13.6576 32.107 13.6576C32.1394 13.6576 32.1718 13.6252 32.1718 13.5928C32.1718 13.5605 32.1394 13.4957 32.107 13.4957C32.0421 13.4957 31.9449 13.4957 31.8801 13.5281ZM13.987 31.5571C14.0843 31.3952 14.1491 31.2981 13.9546 31.2334C13.8574 31.3305 13.8898 31.4276 13.987 31.5571ZM25.0405 26.54C25.0729 26.54 25.1053 26.54 25.1378 26.54C25.1378 26.4753 25.1702 26.3782 25.1702 26.3135C25.1702 26.2811 25.1378 26.2487 25.1053 26.2487C25.0729 26.2487 25.0081 26.2811 25.0081 26.3135C25.0081 26.4106 25.0081 26.4753 25.0405 26.54ZM38.2658 16.3441C38.2658 16.3765 38.2658 16.4089 38.2658 16.4412C38.3306 16.4412 38.3955 16.4736 38.4927 16.4736C38.5251 16.4736 38.5575 16.4412 38.5575 16.4089C38.5575 16.3765 38.5251 16.3118 38.4927 16.3118C38.3955 16.3118 38.3306 16.3118 38.2658 16.3441ZM32.8201 12.6218C32.8201 12.5894 32.8201 12.5571 32.8201 12.5247C32.7553 12.5247 32.6904 12.4923 32.5932 12.4923C32.5608 12.4923 32.5284 12.5247 32.5284 12.5571C32.5284 12.5894 32.5608 12.6542 32.5932 12.6542C32.658 12.6542 32.7553 12.6218 32.8201 12.6218ZM30.0972 24.5656C30.1297 24.5656 30.1621 24.5656 30.1945 24.5656C30.1945 24.5009 30.2269 24.4037 30.2269 24.339C30.2269 24.3066 30.1945 24.2743 30.1621 24.2743C30.1297 24.2743 30.0648 24.3066 30.0648 24.339C30.0648 24.4037 30.0972 24.5009 30.0972 24.5656ZM39.7245 31.1363C39.5624 31.0392 39.4652 30.9744 39.4003 31.1687C39.4976 31.2334 39.5624 31.2334 39.7245 31.1363ZM46.2399 23.0119C46.1426 22.8825 46.013 22.8825 45.9157 23.0119C46.013 23.1414 46.1102 23.1414 46.2399 23.0119ZM44.9109 21.0698C44.9109 21.0375 44.9109 21.0051 44.9109 20.9727C44.846 20.9727 44.7812 20.9404 44.684 20.9404C44.6515 20.9404 44.6191 20.9727 44.6191 21.0051C44.6191 21.0375 44.6515 21.1022 44.684 21.1022C44.7488 21.1022 44.8136 21.0698 44.9109 21.0698ZM24.3598 13.2368C24.457 13.3663 24.5867 13.3663 24.684 13.2368C24.5543 13.1073 24.457 13.1073 24.3598 13.2368ZM36.094 14.5963C36.0616 14.5639 36.0616 14.5315 36.0292 14.4991C35.9968 14.5315 35.9643 14.5315 35.9643 14.5639C35.9643 14.5963 35.9968 14.6286 36.0292 14.661C36.0292 14.6286 36.0616 14.5963 36.094 14.5963ZM38.1686 14.4991C38.1361 14.5315 38.1037 14.5315 38.0713 14.5639C38.1037 14.5963 38.1037 14.6286 38.1361 14.6286C38.1686 14.6286 38.201 14.5963 38.2334 14.5639C38.201 14.5315 38.201 14.5315 38.1686 14.4991ZM32.7877 16.4412C32.8201 16.4089 32.8201 16.4089 32.8525 16.3765C32.8201 16.3441 32.7877 16.3441 32.7553 16.3118C32.7553 16.3118 32.7229 16.3441 32.6904 16.3765C32.7229 16.4089 32.7553 16.4089 32.7877 16.4412ZM32.269 16.6354C32.2366 16.6678 32.2042 16.6678 32.2042 16.7002C32.2042 16.7325 32.2366 16.7649 32.269 16.7973C32.3015 16.7649 32.3339 16.7649 32.3339 16.7325C32.3015 16.7002 32.3015 16.6678 32.269 16.6354ZM38.5251 17.7359C38.4927 17.7036 38.4927 17.6712 38.4603 17.6388C38.4279 17.6712 38.3955 17.6712 38.3955 17.7036C38.3955 17.7359 38.4279 17.7683 38.4603 17.8007C38.4927 17.7683 38.5251 17.7683 38.5251 17.7359ZM37.7147 17.8978C37.6823 17.8654 37.6823 17.833 37.6499 17.8007C37.6175 17.833 37.5851 17.833 37.5851 17.8654C37.5851 17.8978 37.6175 17.9302 37.6499 17.9625C37.6823 17.9302 37.6823 17.9302 37.7147 17.8978ZM24.1977 20.2283C24.2301 20.2606 24.2301 20.2606 24.2626 20.293C24.295 20.2606 24.295 20.2283 24.3274 20.1959C24.3274 20.1959 24.295 20.1635 24.2626 20.1312C24.2626 20.1312 24.2301 20.1959 24.1977 20.2283ZM45.4943 20.7785C45.4619 20.8109 45.4295 20.8109 45.4295 20.8433C45.4295 20.8756 45.4619 20.908 45.4943 20.9404C45.5267 20.908 45.5592 20.908 45.5592 20.8756C45.5267 20.8433 45.5267 20.8109 45.4943 20.7785ZM36.7423 27.1874C36.7099 27.155 36.7099 27.1227 36.6775 27.0903C36.6451 27.1227 36.6126 27.1227 36.6126 27.155C36.6126 27.1874 36.6451 27.2198 36.6775 27.2521C36.7099 27.2198 36.7099 27.1874 36.7423 27.1874ZM20.6321 27.4787C20.6645 27.5111 20.6645 27.5434 20.6969 27.5758C20.7293 27.5434 20.7618 27.5434 20.7618 27.5111C20.7618 27.4787 20.7293 27.4463 20.6969 27.414C20.6645 27.414 20.6321 27.4463 20.6321 27.4787ZM46.6937 24.9864C46.6613 24.954 46.6613 24.954 46.6288 24.9216C46.5964 24.954 46.5964 24.9864 46.564 25.0187C46.564 25.0187 46.5964 25.0511 46.6288 25.0835C46.6613 25.0511 46.6937 25.0187 46.6937 24.9864ZM49.4165 28.0613C49.3841 28.0937 49.3517 28.0937 49.3517 28.1261C49.3517 28.1584 49.3841 28.1908 49.4165 28.2232C49.4489 28.1908 49.4814 28.1908 49.4814 28.1584C49.4489 28.1261 49.4165 28.0937 49.4165 28.0613ZM35.2188 28.2232C35.1864 28.2555 35.154 28.2555 35.154 28.2879C35.154 28.3203 35.1864 28.3526 35.2188 28.385C35.2512 28.3526 35.2836 28.3526 35.2836 28.3203C35.2512 28.3203 35.2188 28.2555 35.2188 28.2232ZM43.3874 28.7411C43.3549 28.7734 43.3225 28.7734 43.2901 28.8058C43.3225 28.8382 43.3225 28.8705 43.3549 28.8705C43.3874 28.8705 43.4198 28.8382 43.4522 28.8058C43.4522 28.8058 43.4198 28.7734 43.3874 28.7411ZM47.5041 29.615C47.4716 29.5826 47.4716 29.5826 47.4392 29.5503C47.4068 29.5826 47.4068 29.615 47.3744 29.6474C47.3744 29.6474 47.4068 29.6797 47.4392 29.7121C47.4716 29.6797 47.5041 29.6474 47.5041 29.615ZM15.6402 30.6831C15.6726 30.6508 15.6726 30.6508 15.705 30.6184C15.6726 30.586 15.6402 30.586 15.6078 30.5537C15.6078 30.5537 15.5754 30.586 15.5429 30.6184C15.5754 30.6508 15.6078 30.6831 15.6402 30.6831ZM20.1135 30.6508C20.081 30.6184 20.081 30.586 20.0486 30.586C20.0162 30.586 19.9838 30.6184 19.9514 30.6508C19.9838 30.6831 19.9838 30.7155 20.0162 30.7155C20.0486 30.6831 20.081 30.6508 20.1135 30.6508ZM12.5932 31.6218C12.5608 31.5894 12.5608 31.5571 12.5284 31.5571C12.4959 31.5571 12.4635 31.5894 12.4311 31.6218C12.4635 31.6542 12.4635 31.6865 12.4959 31.6865C12.5284 31.6865 12.5608 31.6542 12.5932 31.6218ZM16.1912 31.6218C16.1588 31.5894 16.1588 31.5571 16.1264 31.5571C16.094 31.5571 16.0616 31.5894 16.0292 31.6218C16.0616 31.6542 16.0616 31.6865 16.094 31.6865C16.1264 31.6865 16.1588 31.6542 16.1912 31.6218ZM17.7796 31.6218C17.7472 31.5894 17.7472 31.5894 17.7147 31.5571C17.6823 31.5894 17.6823 31.6218 17.6499 31.6542C17.6499 31.6542 17.6823 31.6865 17.7147 31.7189C17.7472 31.6865 17.7796 31.6542 17.7796 31.6218ZM27.2447 24.1124C27.2123 24.1448 27.1799 24.1448 27.1475 24.1772C27.1799 24.2095 27.1799 24.2419 27.2123 24.2419C27.2447 24.2419 27.2771 24.2095 27.3096 24.1772C27.2771 24.1448 27.2447 24.1448 27.2447 24.1124ZM10.778 32.9165C10.7455 32.8842 10.7455 32.8842 10.7131 32.8518C10.7131 32.9165 10.6807 32.9489 10.6483 32.9813C10.6483 32.9813 10.6807 33.0136 10.7131 33.046C10.7455 33.0136 10.7455 32.9813 10.778 32.9165ZM13.7925 23.4003C13.825 23.368 13.8574 23.368 13.8898 23.3356C13.8574 23.3032 13.8574 23.2709 13.825 23.2709C13.7925 23.2709 13.7601 23.3032 13.7277 23.3356C13.7601 23.368 13.7601 23.368 13.7925 23.4003ZM12.8525 35.3441C12.8849 35.3118 12.9173 35.2794 12.9173 35.2794C12.8849 35.247 12.8525 35.247 12.8201 35.2147C12.8201 35.2147 12.7877 35.247 12.7553 35.2794C12.7877 35.3118 12.8201 35.3118 12.8525 35.3441ZM13.7925 35.3765C13.7601 35.4089 13.7601 35.4089 13.7277 35.4412C13.7601 35.4736 13.7925 35.4736 13.825 35.506C13.825 35.506 13.8574 35.4736 13.8898 35.4412C13.8574 35.4089 13.825 35.4089 13.7925 35.3765ZM28.6386 38.322C28.671 38.2896 28.7034 38.2896 28.7358 38.2572C28.7034 38.2249 28.7034 38.1925 28.671 38.1925C28.6386 38.1925 28.6062 38.2249 28.5737 38.2572C28.6062 38.2896 28.6386 38.2896 28.6386 38.322ZM28.1199 38.7751C28.1524 38.8075 28.1523 38.8075 28.1848 38.8399C28.2172 38.8075 28.2172 38.7751 28.2496 38.7428C28.2496 38.7428 28.2172 38.7104 28.1848 38.678C28.1523 38.7104 28.1524 38.7428 28.1199 38.7751ZM24.7488 40.0051C24.7164 40.0375 24.684 40.0375 24.684 40.0698C24.684 40.1022 24.7164 40.1346 24.7488 40.1669C24.7812 40.1346 24.8136 40.1346 24.8136 40.1022C24.8136 40.0698 24.7812 40.0375 24.7488 40.0051ZM31.6856 41.7206C31.6532 41.6882 31.6532 41.6882 31.6207 41.6559C31.5883 41.6882 31.5883 41.7206 31.5559 41.753C31.5559 41.753 31.5883 41.7853 31.6207 41.8177C31.6207 41.7853 31.6532 41.753 31.6856 41.7206ZM19.1734 42.1738C19.141 42.2061 19.141 42.2061 19.1086 42.2385C19.141 42.2709 19.1734 42.2709 19.2058 42.3032C19.2058 42.3032 19.2382 42.2709 19.2707 42.2385C19.2382 42.2061 19.2058 42.2061 19.1734 42.1738ZM32.1394 42.3032C32.1718 42.2709 32.1718 42.2709 32.2042 42.2385C32.1718 42.2061 32.1394 42.2061 32.107 42.1738C32.107 42.1738 32.0746 42.2061 32.0421 42.2385C32.0746 42.2709 32.107 42.2709 32.1394 42.3032ZM31.8476 42.4003C31.8152 42.368 31.8152 42.3356 31.7828 42.3356C31.7504 42.3356 31.718 42.368 31.6856 42.4003C31.718 42.4327 31.718 42.4651 31.7504 42.4651C31.7828 42.4327 31.8152 42.4327 31.8476 42.4003ZM13.7601 23.0443C13.7925 23.0767 13.7925 23.0767 13.825 23.109C13.8574 23.0767 13.8574 23.0443 13.8898 23.0119C13.8898 23.0119 13.8574 22.9796 13.825 22.9472C13.7925 22.9796 13.7925 23.0119 13.7601 23.0443ZM21.41 43.5656C21.3776 43.5332 21.3776 43.5009 21.3452 43.5009C21.3128 43.5009 21.2804 43.5332 21.248 43.5656C21.2804 43.598 21.2804 43.6303 21.3128 43.6303C21.3452 43.598 21.3776 43.598 21.41 43.5656ZM24.7488 43.8245C24.7164 43.8569 24.7164 43.8569 24.684 43.8893C24.7164 43.9216 24.7488 43.9216 24.7812 43.954C24.7812 43.954 24.8136 43.9216 24.846 43.8893C24.8136 43.8893 24.7812 43.8569 24.7488 43.8245ZM20.081 45.2487C20.0486 45.2164 20.0486 45.184 20.0162 45.1516C19.9838 45.184 19.9514 45.184 19.9514 45.2164C19.9514 45.2487 19.9838 45.2811 20.0162 45.3135C20.0486 45.2811 20.0486 45.2811 20.081 45.2487ZM21.6694 45.4753C21.637 45.5077 21.6045 45.5077 21.6045 45.54C21.6045 45.5724 21.637 45.6048 21.6694 45.6371C21.7018 45.6048 21.7342 45.6048 21.7342 45.5724C21.7018 45.54 21.6694 45.5077 21.6694 45.4753ZM24.0681 47.1584C24.0357 47.1908 24.0357 47.1908 24.0032 47.2232C24.0357 47.2555 24.0681 47.2555 24.1005 47.2879C24.1005 47.2879 24.1329 47.2555 24.1653 47.2232C24.1653 47.1908 24.1005 47.1584 24.0681 47.1584ZM43.906 22.8825C43.8736 22.8501 43.8736 22.8177 43.8412 22.7853C43.8088 22.8177 43.7763 22.8177 43.7763 22.8501C43.7763 22.8825 43.8088 22.9148 43.8412 22.9472C43.8736 22.9148 43.906 22.8825 43.906 22.8825ZM46.3371 22.753C46.3695 22.7206 46.3695 22.7206 46.4019 22.6882C46.3695 22.6559 46.3371 22.6559 46.3047 22.6235C46.3047 22.6235 46.2723 22.6559 46.2399 22.6882C46.2723 22.6882 46.3047 22.7206 46.3371 22.753ZM29.8055 21.9438C29.7731 21.9761 29.7731 21.9761 29.7407 22.0085C29.7731 22.0409 29.8055 22.0409 29.8379 22.0733C29.8379 22.0733 29.8703 22.0409 29.9028 22.0085C29.8703 22.0085 29.8379 21.9761 29.8055 21.9438ZM45.3647 21.6201C45.3323 21.6525 45.2998 21.6525 45.2674 21.6848C45.2998 21.7172 45.2998 21.7496 45.3323 21.7496C45.3647 21.7496 45.3971 21.7172 45.4295 21.6848C45.3971 21.6525 45.3647 21.6525 45.3647 21.6201ZM44.8784 21.5877C44.9109 21.5554 44.9109 21.5554 44.9433 21.523C44.9109 21.4906 44.8784 21.4906 44.846 21.4583C44.846 21.4583 44.8136 21.4906 44.7812 21.523C44.7812 21.5554 44.846 21.5554 44.8784 21.5877ZM45.9806 21.1022C45.9481 21.1346 45.9157 21.1346 45.9157 21.167C45.9157 21.1993 45.9481 21.2317 45.9806 21.2641C46.013 21.2317 46.0454 21.2317 46.0454 21.1993C46.013 21.1669 46.013 21.1346 45.9806 21.1022ZM25.8509 13.5281C25.8833 13.5605 25.8833 13.5928 25.9157 13.6252C25.9481 13.5928 25.9806 13.5928 25.9806 13.5605C25.9806 13.5281 25.9481 13.4957 25.9157 13.4634C25.8833 13.4957 25.8509 13.5281 25.8509 13.5281Z" fill="#104236"/>
<path d="M29.5287 25.7372C28.7853 25.7568 28.0418 25.8156 27.2984 25.9331C26.7848 26.018 26.4941 26.423 26.5888 26.9128C26.6293 27.1348 26.6901 27.3634 26.7104 27.5854C26.7442 27.8597 26.6226 27.9773 26.3387 27.9903C26.0751 27.9969 25.8183 27.9903 25.5547 27.9903C25.1965 27.9903 25.1087 27.912 25.0411 27.5854C24.8248 26.4948 24.6085 25.4041 24.3923 24.32C23.9732 22.2236 23.5474 20.1273 23.1284 18.0309C23.0608 17.6913 23.1419 17.3974 23.4258 17.1753C23.6826 16.9794 23.9665 16.9598 24.2571 17.0904C24.5004 17.1949 24.6626 17.3843 24.7234 17.639C24.7707 17.8284 24.8518 17.8545 25.0276 17.7827C26.7442 17.1362 28.5285 16.9206 30.3532 17.0251C31.6238 17.097 32.8607 17.3582 34.0434 17.8154C34.1988 17.8741 34.3002 17.8937 34.3543 17.6913C34.503 17.1753 34.922 16.9206 35.3951 17.0382C35.8479 17.1492 36.0777 17.5541 35.9763 18.0831C35.7398 19.2587 35.4965 20.4342 35.2599 21.6098C34.8612 23.569 34.4692 25.5282 34.0704 27.494C33.9758 27.9512 33.9217 27.9969 33.4351 27.9969C33.2053 27.9969 32.9755 28.0034 32.7525 27.9903C32.4619 27.9773 32.3402 27.8336 32.3808 27.5593C32.4146 27.3438 32.4619 27.1283 32.5025 26.9128C32.5903 26.4295 32.3065 26.0376 31.8063 25.9462C31.0561 25.8091 30.2992 25.7568 29.5287 25.7372ZM29.6504 18.5925C28.9475 18.5925 28.4136 18.6317 27.8729 18.6905C27.0821 18.7754 26.3117 18.9517 25.5547 19.1868C25.2371 19.2848 25.1154 19.5003 25.1762 19.8072C25.2303 20.1011 25.2844 20.4016 25.352 20.6954C25.4263 21.0285 25.6223 21.1657 25.9737 21.1199C26.0886 21.1069 26.2035 21.0742 26.3184 21.0481C27.17 20.8391 28.0351 20.715 28.9204 20.6824C30.3127 20.6301 31.6847 20.7738 33.0296 21.133C33.4486 21.244 33.6717 21.1069 33.7663 20.6889C33.8204 20.4538 33.8609 20.2122 33.9082 19.9705C34.0028 19.4938 33.915 19.3436 33.4284 19.1934C32.1443 18.7884 30.8331 18.6056 29.6504 18.5925ZM29.4071 22.2628C29.1232 22.2432 28.7245 22.2759 28.3325 22.3151C27.6363 22.3804 26.9402 22.4783 26.2644 22.6612C25.9535 22.7461 25.8251 22.9486 25.8724 23.249C25.8994 23.4253 25.9332 23.6016 25.967 23.778C26.0616 24.307 26.2644 24.4441 26.805 24.3331C27.5687 24.1829 28.3325 24.0784 29.1097 24.0588C30.2384 24.0261 31.3467 24.1306 32.4551 24.3592C32.7931 24.4311 33.0093 24.2874 33.0972 23.9674C33.1513 23.778 33.1851 23.5886 33.2256 23.3927C33.3135 22.9551 33.1783 22.7526 32.7322 22.6416C31.6712 22.4 30.6033 22.2628 29.4071 22.2628Z" fill="#FEB904"/>
<path d="M29.4949 32.6991C27.6093 32.6991 25.7304 32.6991 23.8448 32.6991C23.2163 32.6991 23 32.4901 23 31.8958C23 31.3602 23 30.8182 23 30.2827C23 29.7928 23.2433 29.5512 23.7434 29.5512C27.5755 29.5512 31.4143 29.5512 35.2464 29.5512C35.733 29.5512 35.9831 29.7863 35.9898 30.2565C35.9966 30.8378 35.9966 31.4125 35.9898 31.9937C35.9831 32.4639 35.7398 32.6991 35.2464 32.6991C33.3337 32.6991 31.4143 32.6991 29.4949 32.6991Z" fill="#FEB904"/>
<path d="M35.0301 36.291C35.0301 37.0159 35.0301 37.7408 35.0301 38.4658C35.0301 38.8315 34.9558 38.9425 34.699 38.9621C34.2597 39.0013 34.138 38.9229 34.0772 38.5245C33.8947 37.2837 33.7257 36.0363 33.55 34.7954C33.5162 34.5342 33.4689 34.2795 33.4486 34.0183C33.4284 33.7113 33.523 33.6134 33.8339 33.6134C34.0975 33.6068 34.3543 33.6068 34.6179 33.6134C34.922 33.6199 35.0234 33.7113 35.0234 34.0117C35.0301 34.7759 35.0301 35.5334 35.0301 36.291Z" fill="#FEB904"/>
<path d="M24.6018 33.6134C24.7302 33.6134 24.8518 33.6134 24.9802 33.6134C25.3182 33.6199 25.4263 33.7179 25.3925 34.0509C25.352 34.4232 25.2911 34.7954 25.2438 35.1677C25.0816 36.3041 24.9194 37.4404 24.7505 38.5768C24.6964 38.936 24.2976 39.1123 23.9732 38.9229C23.8178 38.8315 23.8178 38.6878 23.8178 38.5376C23.8178 37.2314 23.8178 35.9318 23.8178 34.6256C23.8178 34.4167 23.811 34.2011 23.8178 33.9922C23.8245 33.7244 23.9259 33.6264 24.203 33.6199C24.3382 33.6068 24.4666 33.6134 24.6018 33.6134Z" fill="#FEB904"/>
</svg>
