<svg width="187" height="53" viewBox="0 0 187 53" fill="none" xmlns="http://www.w3.org/2000/svg">
<path d="M178.548 8.71609V8.71532C178.548 8.71271 178.561 8.71141 178.561 8.7088C178.561 8.71141 178.548 8.714 178.548 8.71609ZM181.59 10.6594C181.577 10.6672 181.552 10.6743 181.526 10.6795C181.526 10.6698 181.526 10.6594 181.513 10.6497C181.539 10.6537 181.564 10.6568 181.59 10.6594ZM186.729 28.5217C186.766 28.3599 186.741 28.1966 186.793 28.0348C186.933 27.5305 186.396 27.0793 186.345 26.5893C186.434 26.4933 186.486 26.3892 186.447 26.2804C186.512 26.1345 186.575 25.989 186.652 25.8431C186.716 25.6406 186.627 25.4588 186.358 25.3015V25.2944C186.281 25.2396 186.243 25.1817 186.218 25.1222C186.218 25.0752 186.218 25.027 186.218 24.9803C186.231 24.8083 186.307 24.6314 186.077 24.4817V24.4843C186 24.4785 185.911 24.4772 185.835 24.4812C185.745 24.4055 185.656 24.3301 185.566 24.2549C185.617 24.2432 185.668 24.2301 185.707 24.2111C185.975 24.0608 185.937 23.8735 185.949 23.6919C186.052 23.3584 185.336 23.1445 185.439 22.8084C185.387 22.476 185.54 22.1285 185.234 21.8185C184.735 21.3141 184.71 20.7996 184.978 20.2681C184.518 19.4945 184.62 18.7243 185.029 17.9564C185.655 17.839 185.796 17.5922 185.565 17.314C185.297 16.9916 185.131 16.6466 184.722 16.356C184.377 16.2941 184.032 16.2333 183.699 16.1715C183.559 16.1245 183.444 16.1297 183.316 16.189V16.1903C183.022 16.1577 182.869 16.0379 182.689 15.9283C182.741 15.9095 182.792 15.8887 182.843 15.8626C183.073 15.6202 182.894 15.4234 182.574 15.2434C181.603 14.2749 181.808 13.3085 182.6 12.3436C182.229 11.7871 182.421 11.1557 181.744 10.6398C181.821 10.6237 181.884 10.6028 181.936 10.5723C182.051 10.4316 182.051 10.3051 181.782 10.2072C181.475 9.3843 181.335 8.47892 178.932 8.68087C178.842 8.67566 178.753 8.67043 178.664 8.66599C178.574 8.41004 178.037 8.45308 177.769 8.31845C177.271 8.25139 176.759 8.18487 176.248 8.11782C176.158 8.07998 176.056 8.04163 175.967 8.00458C175.954 7.74001 175.877 7.49293 175.404 7.3262C175.404 7.28628 175.392 7.24661 175.366 7.208C174.536 7.03658 173.82 7.39586 173.027 7.33637C172.222 7.18739 171.097 7.20488 171.391 6.50093C170.701 6.48736 171.136 5.72469 170.228 5.97543C169.167 6.26739 168.029 6.26506 166.93 6.401C166.329 6.36395 165.691 6.06701 165.166 6.45055C164.898 6.34045 164.553 6.38089 164.246 6.34619C163.837 6.11423 163.402 6.00544 162.852 6.22513C162.277 6.00857 161.523 6.17346 160.935 5.98534C160.539 6.02761 160.079 6.20556 159.887 5.84706C159.248 5.84315 158.621 5.90916 158.046 6.06231C157.624 6.26505 157.178 6.27602 156.717 6.09208C155.848 6.17818 155.451 5.57414 154.595 5.63728C154.62 5.60884 154.646 5.58016 154.659 5.54963C154.698 5.40117 154.659 5.26392 154.442 5.15408C154.097 5.06354 153.931 5.15146 153.828 5.30984C153.535 5.45334 153.24 5.42985 152.934 5.32105C152.717 4.97612 152.256 5.04005 151.783 5.1032C151.758 5.06849 151.733 5.03666 151.694 5.00535C151.655 4.92916 151.63 4.85089 151.591 4.77392C150.25 5.02153 149.138 4.59024 147.923 4.46056C147.898 4.47726 147.885 4.49525 147.873 4.51326C147.86 4.51143 147.86 4.51013 147.86 4.50882L147.924 4.46056C147.886 4.42586 147.847 4.39012 147.822 4.35281C146.428 4.29671 145.035 4.24139 143.629 4.18477C143.258 4.05692 142.913 4.11563 142.555 4.2119C142.108 4.20668 141.699 4.16964 141.494 3.92699C141.29 3.8161 141.047 3.73939 140.778 3.65929C139.757 3.34645 138.478 3.24991 137.724 2.71243C136.881 2.65398 135.756 3.0117 135.346 2.29914C134.733 2.11363 134.094 2.47603 133.493 2.26938C132.292 2.41784 131.193 2.35863 130.259 1.90125C129.467 2.04971 128.521 1.94743 127.818 2.25766C127.192 2.22505 126.873 2.82723 126.221 2.52092C125.185 2.03744 124.099 2.32861 123.013 2.32156C122.041 2.31452 121.057 2.70276 120.124 2.29443C120.124 2.21172 120.124 2.12797 120.124 2.04421C120.047 2.0403 119.97 2.0429 119.894 2.05308C118.552 2.15484 117.235 2.40977 115.868 2.15225C115.599 2.19478 115.344 2.23495 115.075 2.27748C114.909 1.7533 113.708 2.12275 113.401 1.79504C113.03 1.38984 112.634 1.44906 112.097 1.67266C111.816 1.79138 111.522 1.75329 111.266 1.63223C110.55 1.7319 109.796 1.87254 109.144 1.59936C108.428 1.30426 107.635 1.27817 106.792 1.31653C105.999 1.23121 105.194 1.14561 104.401 1.06056C104.209 0.963757 104.031 0.866979 103.852 0.770441C103.174 0.355846 102.215 0.68381 101.436 0.522825C101.346 0.510301 101.27 0.498804 101.18 0.485497C100.925 0.443751 100.682 0.402794 100.439 0.362352C99.8511 -0.0509384 98.8291 -0.108849 97.2437 0.179202C97.2181 0.203988 97.2181 0.227456 97.2053 0.248329C97.1925 0.247024 97.1925 0.245715 97.1797 0.243105C97.1797 0.242323 97.1797 0.241042 97.1797 0.241042C97.0902 0.196686 97.0011 0.152066 96.9116 0.10745C96.3364 0.0591803 95.8252 0.15572 95.3268 0.258521H95.314C94.1253 0.443771 92.9621 0.644922 91.6459 0.536381C90.6619 0.45628 89.7033 0.621709 88.8467 0.891496C87.0321 1.17459 85.153 1.16859 83.2867 1.21739C82.9418 1.19912 82.5964 1.18007 82.2387 1.16311C82.1492 1.12606 82.0601 1.089 81.9834 1.05169C80.5643 0.961934 79.1586 0.986459 77.7524 1.03108C76.7043 0.814516 75.6306 0.827054 74.5442 0.889152C74.3779 0.60919 73.9942 0.514208 73.4323 0.561173C73.3428 0.558564 73.2665 0.548919 73.1892 0.537961C73.1769 0.53222 73.1641 0.525692 73.1514 0.519691C72.7809 0.242599 72.2307 0.263732 71.6816 0.296868C71.2855 0.259557 70.8889 0.212857 70.48 0.234773C68.9203 0.554134 67.2843 0.320085 65.6866 0.389488C65.6738 0.429408 65.6488 0.468815 65.6227 0.508735C65.5459 0.508735 65.4691 0.518372 65.3924 0.536636C65.1749 0.5322 64.9579 0.5257 64.7409 0.520481C64.6002 0.463602 64.3956 0.423939 64.2426 0.373844C62.8491 0.211554 61.4689 0.475601 60.0755 0.399935V0.397311C58.7716 0.874265 57.2251 0.659025 55.7933 0.798876C55.7037 0.804095 55.6147 0.809838 55.5251 0.815056C54.145 1.03553 52.687 0.97212 51.2818 1.04257C50.3873 1.08562 49.4412 1.17614 48.5717 0.954101C47.536 0.841124 46.6798 1.06605 45.8109 1.29383C44.2132 1.71025 42.5 1.39533 40.8517 1.45534C40.8261 1.42195 40.8005 1.38775 40.7872 1.35174C40.7233 1.35435 40.6598 1.34575 40.5953 1.32514C40.0457 1.2273 39.5089 1.37913 38.9593 1.35304C38.8954 1.33817 38.8186 1.32826 38.7418 1.32252C38.7418 1.32252 38.7418 1.32252 38.7546 1.32252C37.8601 1.12709 36.9267 1.2372 36.0066 1.21606C35.9171 1.1691 35.828 1.12032 35.738 1.07414C34.997 0.696853 33.821 1.1258 33.1051 0.700243C33.1179 0.695547 33.1307 0.691638 33.1435 0.685898C32.9899 0.219902 32.1205 0.603169 31.7633 0.386609C31.6733 0.381652 31.5842 0.376967 31.4947 0.373054C31.3667 0.600572 31.1114 0.753733 30.6129 0.774084C29.9994 0.439068 29.2584 0.427324 28.4529 0.536126C28.0568 0.592223 27.6219 0.720606 27.2386 0.509525C26.561 0.21756 26.1265 0.454713 25.7049 0.691886C25.2192 0.808776 24.7336 0.881065 24.1835 0.838014C23.5188 0.78583 22.8289 0.859914 22.3044 1.0496C21.7676 1.24189 21.2948 1.25678 20.7196 1.14354C20.0932 1.017 19.5948 1.07517 19.4797 1.47045C19.1603 1.75485 18.5084 1.9156 18.3293 2.25453C18.2525 2.3088 18.1635 2.36359 18.0739 2.4176C18.0227 2.51675 17.9204 2.59553 17.793 2.66389C17.6139 2.72338 17.4604 2.78835 17.3196 2.85932C16.6042 2.83793 16.3611 3.05944 16.2977 3.37672C16.2721 3.46073 16.2593 3.54371 16.2332 3.62642C16.2588 3.77749 16.2716 3.92674 16.2844 4.0765C16.2199 4.35829 15.8883 4.56858 15.5557 4.78253C14.7502 5.28166 13.9069 5.76513 13.3573 6.35376C12.6925 6.29322 12.8338 6.65302 12.5646 6.79966C12.3471 7.71965 11.0949 8.27306 9.81659 8.82568C9.2542 9.06807 8.7936 9.36995 8.28289 9.64417C7.64374 10.423 6.69805 11.0967 5.50878 11.6811C5.18946 11.8372 4.83127 11.9757 4.89575 12.245C5.02318 12.6898 4.53753 13.0173 4.0391 13.338C3.93675 13.9621 3.8216 14.5851 3.70697 15.209C3.34876 15.3765 2.95271 15.531 2.86316 15.7981C2.54333 16.7513 2.2117 17.7031 1.91745 18.6586C1.84069 18.9226 1.72555 19.2365 1.93025 19.4609C2.62057 20.2436 1.90469 20.7537 0.843861 21.2309C0.434986 21.2954 0.1919 21.4475 0 21.6338C0 21.717 0.0127933 21.7987 0.0127933 21.8801C0.165802 21.9936 0.0895654 22.2263 0.536821 22.1987C0.715416 22.3187 0.881703 22.4397 1.0603 22.5611C1.22661 22.5767 1.39294 22.5932 1.55874 22.6093C2.27465 23.2368 2.99056 23.8651 3.71927 24.4947C3.69368 24.5378 3.70648 24.5787 3.75715 24.616C3.80832 24.6993 3.83392 24.801 3.93575 24.8642C5.70021 25.9355 5.90437 27.1321 5.04772 28.4168C4.99706 28.4452 4.97096 28.4747 4.94538 28.5032C4.70282 28.7946 5.06052 29.0892 5.02214 29.3809V29.3796C4.75399 29.635 4.69001 29.8899 4.97146 30.1446C4.98426 30.1628 5.00984 30.1832 5.03543 30.2001C5.02264 30.5192 5.16338 30.8133 5.55946 31.0669C5.73805 31.3685 5.92997 31.6691 6.10907 31.9707C6.81219 32.4615 7.04245 33.0598 7.19546 33.6228C7.56646 34.9843 7.75838 36.3601 7.97535 37.7312C8.08998 38.4514 8.21793 39.1814 8.12837 39.8992C8.07771 40.3216 8.16676 40.6545 8.75475 40.947C8.77982 41.1153 8.80541 41.2849 8.81871 41.4529C9.13855 41.7172 9.08686 42.0191 9.16413 42.3071C9.25369 42.6382 9.18922 42.9881 9.86727 43.2073C10.6211 43.4541 10.9787 43.8526 11.1195 44.2812C11.2597 44.7057 11.6557 45.034 12.2314 45.326C12.3338 45.566 12.4484 45.8019 12.7678 45.996C12.7933 46.0748 12.8189 46.1557 12.8322 46.2345C12.998 46.3488 13.1516 46.4607 13.3051 46.5737C13.4074 46.6512 13.5098 46.7294 13.6121 46.8069C13.6249 47.0023 13.8931 47.1171 14.1234 47.2533C15.197 47.8761 16.4108 48.4387 17.3314 49.1309C17.4337 49.1792 17.51 49.234 17.5873 49.2919C17.664 49.3733 17.7275 49.4589 17.7275 49.5486C17.7019 49.7112 17.7275 49.8557 17.7919 49.988C17.7919 50.7094 18.5457 51.077 20.0026 51.357C20.1178 51.381 20.2329 51.3982 20.3481 51.417C20.4632 51.4614 20.5656 51.5068 20.6802 51.5538C20.9489 51.6712 21.3321 51.6477 21.6642 51.5459C22.3551 51.5801 23.0449 51.572 23.7353 51.5801C24.3355 51.7168 24.9619 51.722 25.6015 51.6889C25.6783 51.6654 25.7418 51.6503 25.8185 51.6393C26.1639 51.6651 26.4965 51.7233 26.7903 51.8629C26.9054 51.8838 27.02 51.899 27.148 51.9055C27.6592 51.8956 28.171 51.8969 28.6822 51.8943C29.6913 51.9705 30.7015 51.9817 31.7111 51.8272C31.903 51.7993 32.0816 51.7361 32.2479 51.6714C32.5033 51.6284 32.7463 51.5788 33.0017 51.5183C33.0657 51.5021 33.1424 51.4856 33.2064 51.4713C34.4207 51.4108 35.6346 51.3823 36.8489 51.339C37.6032 51.375 38.3186 51.339 39.0345 51.2355C39.533 51.2026 40.0314 51.1645 40.5431 51.1141C42.6392 50.902 44.812 51.2673 46.9337 51.0072C47.2663 50.9667 47.7391 50.9891 48.0712 51.1433C48.9529 51.5 50.6018 51.5084 51.5224 51.2039C51.612 51.2091 51.701 51.2125 51.7906 51.2164C51.9185 51.2125 52.0336 51.1994 52.1616 51.1747C52.2122 51.1486 52.2639 51.1237 52.3274 51.1003C52.4169 51.1211 52.4931 51.1415 52.5826 51.1621C52.5699 51.2138 52.5449 51.2673 52.5321 51.3208C52.5577 51.3599 52.5699 51.4009 52.5699 51.4426C52.6082 51.4684 52.6471 51.4948 52.685 51.5206C52.7873 51.5566 52.9153 51.5788 53.0432 51.5859C53.4265 51.5579 53.8226 51.5368 54.1296 51.3917C54.3471 51.2743 54.4495 51.1472 54.3594 51.0001C54.3722 50.9975 54.3722 50.9944 54.3722 50.9904C54.666 51.1324 54.9858 51.2459 55.408 51.1522C56.3158 50.945 57.2742 51.2702 58.1687 51.1115C58.2583 51.135 58.3474 51.1571 58.4369 51.1806C58.4369 51.1832 58.4369 51.1846 58.4369 51.1864C58.9353 51.4799 59.5105 51.3831 59.9711 51.2065C60.4184 51.0371 60.904 50.9667 61.3897 50.8644C61.8246 50.6852 62.2334 50.6948 62.6295 50.9049C62.7319 50.9346 62.8342 50.9518 62.9622 50.9571C63.0768 50.9492 63.1791 50.9184 63.2431 50.8652C63.3582 50.8498 63.4857 50.8331 63.6136 50.8169C63.7288 50.8508 63.8567 50.8866 63.9713 50.9283C64.9943 51.0619 66.0935 51.0137 67.0397 51.3252C67.333 51.423 67.5893 51.3447 67.8702 51.2412C69.2764 50.7285 69.2893 50.7355 70.6311 51.3278C70.6694 51.3348 70.7078 51.3427 70.759 51.3513C70.759 51.435 70.823 51.5128 70.9376 51.5814C71.7559 51.7612 72.5992 51.8987 73.5065 51.9195C74.184 51.9939 74.8616 52.0036 75.5519 52.0023C75.7945 52.031 76.0119 52.0928 76.2672 52.0941C77.0983 52.1572 77.737 52.6332 78.696 52.4453C78.7215 52.4526 78.7466 52.4597 78.7855 52.4662C78.8495 52.4845 78.9135 52.4983 78.9902 52.5145C79.4247 52.749 80.0639 52.833 80.6007 53C82.0704 52.9447 83.3359 52.6154 84.5374 52.2063C84.8056 52.1051 85.1637 52.0732 85.4319 51.9631C86.3525 51.5897 87.4896 51.4377 88.576 51.2469C88.9465 51.1791 89.4198 51.2148 89.56 50.9714C89.8671 51.1225 90.2887 51.0828 90.6848 51.0794C91.26 51.0124 91.8608 50.9628 92.4616 50.968C93.3561 50.8183 94.2767 50.7739 95.1968 50.8605C96.1174 50.9476 97.0119 50.9515 97.9198 50.8456C100.4 50.7212 102.866 50.4798 105.372 50.6786C105.947 50.7243 106.496 50.592 106.982 50.429C107.097 50.3439 107.225 50.2622 107.314 50.1717C108.196 50.1286 109.078 50.257 109.96 50.1949C110.011 50.2066 110.075 50.2171 110.126 50.2291C110.714 50.3966 111.2 50.6481 111.89 50.716C112.273 50.7739 112.657 50.8357 113.079 50.8221C114.293 50.7976 115.572 50.9917 116.658 50.5315C116.76 50.4736 116.811 50.407 116.85 50.3314C116.85 50.2844 116.824 50.2416 116.799 50.2004C116.837 50.2142 116.875 50.2278 116.927 50.2377C117.17 50.2599 117.387 50.2547 117.566 50.1855C117.591 50.2116 117.63 50.2364 117.693 50.2599C118.064 50.4378 118.524 50.4143 118.971 50.4031C119.176 50.3366 119.355 50.298 119.508 50.2818C119.815 50.3452 120.135 50.407 120.442 50.4689C120.659 50.5711 120.837 50.6951 121.042 50.796C121.208 50.8566 121.375 50.9145 121.566 50.9597C122.243 51.1285 122.946 51.2613 123.739 51.2274C124.084 51.2125 124.455 51.2261 124.608 51.0729C124.62 51.0755 124.646 51.0778 124.659 51.0804C124.864 51.089 125.068 51.0878 125.26 51.0703C125.452 51.0382 125.605 50.9842 125.745 50.902C125.796 50.8493 125.86 50.7971 125.911 50.7389C125.911 50.7389 125.911 50.7389 125.911 50.7376C127.663 50.6601 129.401 50.6745 131.075 51.0246C131.139 51.0259 131.203 51.0269 131.267 51.0283C131.472 51.0246 131.715 50.9677 131.893 51.0504C132.788 51.4721 133.491 51.3894 134.079 50.866C134.194 50.7682 134.411 50.728 134.615 50.6836C134.948 50.5448 135.408 50.4926 135.677 50.3016C135.714 50.2567 135.727 50.2113 135.727 50.1644C135.74 50.1579 135.753 50.1532 135.766 50.1461C136.328 50.3123 136.724 50.1579 137.082 49.9178C137.197 49.8208 137.312 49.7271 137.427 49.6337C137.504 49.6559 137.568 49.6845 137.632 49.7151C137.632 49.7834 137.632 49.8526 137.632 49.9228C137.657 49.9849 137.709 50.0402 137.773 50.0924C137.504 50.2356 137.236 50.3765 137.274 50.6103C137.351 50.6632 137.414 50.7168 137.491 50.7682C137.632 50.8326 137.785 50.8352 137.952 50.7799C138.144 50.7929 138.348 50.8078 138.552 50.8216C138.795 50.9461 139.089 51.0408 139.511 51.0815C140.38 51.0531 142.911 50.1098 143.141 49.7229C143.218 49.588 143.205 49.4615 143.051 49.3592C143.217 49.2953 143.32 49.206 143.447 49.1194C143.665 48.8906 143.946 48.7374 144.329 48.662C144.355 48.6586 144.367 48.656 144.393 48.6524C144.457 48.6412 144.521 48.6315 144.598 48.6236C144.777 48.6067 144.969 48.6015 145.199 48.6093C145.326 48.6127 145.441 48.6127 145.569 48.6106C146.247 48.87 146.784 48.7667 147.205 48.4204C147.231 48.4139 147.27 48.4069 147.295 48.4003C147.832 48.6015 148.369 48.4909 148.918 48.3273C149.084 48.2498 149.289 48.2028 149.493 48.1483C149.596 48.1287 149.711 48.0997 149.813 48.0629C149.979 48.0295 150.159 47.9977 150.324 47.9651C150.401 48.0074 150.477 48.0431 150.592 48.0669C152.037 48.0113 153.392 47.6836 154.888 47.7553C155.181 47.7689 155.475 47.5826 155.667 47.4269C155.68 47.4138 155.68 47.4036 155.68 47.3916C156.83 47.0827 158.018 47.0274 159.246 47.2562C159.566 47.2484 159.834 47.215 159.936 47.073C159.949 47.0717 159.962 47.0691 159.975 47.0683C159.987 47.0743 160 47.0827 160.012 47.0892C161.048 47.3473 162.185 47.3734 163.297 47.4188C163.911 47.4164 164.512 47.4287 165.125 47.4065C165.866 47.3055 166.16 46.8982 166.85 46.7613C167.004 46.6968 167.093 46.6065 167.196 46.5241C167.451 46.2718 167.975 46.0834 168.026 45.7857C168.601 45.9401 169.292 45.8888 169.88 46.0281C170.403 46.0745 170.749 45.8501 171.183 45.7771C171.733 45.6696 172.308 45.6612 172.883 45.6547C173.701 45.6448 174.506 45.8092 175.35 45.65C177.127 45.3153 178.98 45.3249 180.821 45.4173C181.421 45.4473 181.856 45.4006 182.214 45.1582C182.547 44.8602 182.137 44.694 181.856 44.5088C182.623 44.6823 182.815 44.5857 183.518 44.0527C183.582 43.9825 183.62 43.9094 183.633 43.8317C183.748 43.3803 183.045 42.8783 183.952 42.4796C184.387 41.8527 184.63 41.1939 185.563 40.6618C185.946 40.4395 185.729 40.0899 185.243 39.872C184.924 39.7262 184.578 39.591 184.221 39.464C185.218 39.3265 185.768 38.9179 185.921 38.2053C185.896 38.1404 185.832 38.0829 185.755 38.036C185.793 37.9961 185.844 37.9585 185.908 37.9251C185.934 37.8233 185.934 37.7205 185.883 37.6206C185.154 37.0408 185.308 36.4157 185.525 35.7874C185.819 34.9285 186.42 34.0865 186.087 33.1918C185.998 33.0843 185.934 32.9766 185.883 32.8698C186.151 32.6327 186.356 32.3882 185.972 32.0438C185.883 31.9559 186.292 31.6527 186.228 31.3633C186.279 31.2944 186.318 31.2253 186.368 31.1569C186.356 31.0557 186.279 30.9706 186.126 30.9072C186.279 30.8751 186.394 30.8146 186.484 30.7392C186.637 30.6205 186.816 30.5057 186.803 30.3476C186.663 30.1117 186.56 29.8776 186.956 29.6723C187.199 29.2734 186.33 28.93 186.727 28.5227L186.729 28.5217Z" fill="#FEB904"/>
</svg>
