<svg width="390" height="77" viewBox="0 0 390 77" fill="none" xmlns="http://www.w3.org/2000/svg">
<path d="M389.382 53.901C387.431 53.901 386.212 53.7605 384.208 53.9835C382.729 54.1482 381.016 54.7895 379.246 54.7895C373.725 54.7895 368.574 54.3449 363.172 54.3449C363.172 53.4648 365.417 52.1225 365.86 52.0235C367.087 51.7503 367.44 52.223 369.027 51.0342C369.162 50.9348 370.368 49.6364 370.567 49.3073C370.343 49.6757 369.957 47.4494 370.126 47.0463C370.397 46.3976 371.665 46.0717 372.127 45.8982C373.021 45.5603 374.208 45.7264 374.991 45.1596C376.024 44.4112 375.721 43.7432 376.518 42.9878C375.964 42.2576 375.26 42.0423 374.405 42.3412C374.736 40.8149 381.565 41.3754 381.359 40.0138C381.265 39.3922 363.252 39.2292 361.568 39.2292C361.568 38.6505 363.115 38.3997 363.707 38.3407C363.857 38.3256 368.239 38.3923 366.916 37.4511C364.877 35.9996 361.011 38.3965 358.907 36.854C359.143 36.2686 360.014 36.8667 359.961 36.0133C359.887 34.8564 358.727 35.5448 358.327 34.9425C360.826 32.9859 362.792 32.3576 365.847 32.1156C368.724 31.8884 372.313 31.8358 374.912 30.5834C372.564 28.8671 367.448 31.2264 364.777 31.2264C362.103 31.2264 359.428 31.2264 356.754 31.2264C354.819 31.2264 351.372 31.4227 349.809 30.1226C350.925 29.1522 359.297 29.1101 359.339 28.8512C359.685 26.7307 349.737 29.6337 349.266 27.2259C349.924 27.392 350.317 26.0093 350.146 25.545C350.089 25.3937 345.695 25.5531 346.056 24.5578C346.829 24.9494 347.369 24.8019 347.676 24.1192C347.688 23.179 341.991 22.779 341.242 22.779C341.242 21.0082 347.324 20.2939 348.456 20.1116C350.977 19.7056 353.737 19.2094 356.069 18.7781C359.146 18.2099 362.923 18.1656 365.846 17.8885C367.656 17.7168 375.635 18.5231 376.466 16.7415C376.215 16.273 375.884 16.0626 375.475 16.1114C375.475 14.7221 377.754 15.3757 378.392 15.1871C379.197 14.9479 380.131 13.6702 380.823 13.443C383.265 12.6444 386.703 14.1921 388.779 12.3624C387.043 10.7124 380.556 12.3066 378.148 12.1092C374.74 11.8303 370.7 11.5536 367.282 11.2206C360.701 10.5765 354.333 10.0796 347.9 9.44179C342.599 8.91569 337.319 7.82208 331.923 7.22785C325.644 6.53528 319.196 5.58771 312.873 4.99628C299.387 3.73196 285.962 4.23384 272.406 2.74826C266.31 2.08027 259.366 2.02656 253.108 1.43901C244.93 0.671983 236.88 0.549411 228.675 0.549411C212.571 0.549411 194.961 0.11212 179.147 0.106501C171.347 0.104745 162.45 0.953638 155.227 0.104786C151.886 -0.287857 148.789 0.549411 145.387 0.549411C141.022 0.549411 137.176 0.99438 132.959 0.99438C119.685 0.99438 107.634 2.13611 95.0077 3.66172C91.2566 4.11512 87.3862 3.41065 83.617 3.73903C80.2122 4.03474 76.2535 4.54815 72.6934 4.55166C65.9926 4.55798 59.2336 5.65166 52.5954 6.35266C45.7549 7.07403 39.0043 6.77299 32.3698 8.10228C29.6007 8.65753 26.9132 9.56017 24.1 10.3128C21.3767 11.0415 17.703 11.438 15.528 13.653C12.6085 16.6284 16.7097 17.4256 18.9649 17.8941C19.5112 18.0079 21.1323 18.4435 21.3824 18.5537C21.4695 18.5924 22.9629 19.7049 22.3894 18.9544C23.4851 20.3869 22.1369 19.9438 22.4508 20.8168C23.1408 22.7358 25.8339 23.3381 23.5526 24.7478C22.4175 25.4492 20.987 24.6193 19.7785 25.0031C17.3807 25.7652 23.9306 25.892 24.5925 25.892C24.5925 28.0702 19.1207 26.3078 18.2593 27.8282C18.5447 27.3231 29.2616 27.8851 29.4061 29.1701C29.6742 31.5439 23.4285 29.0392 22.5463 30.4858C22.1935 31.0614 25.6718 30.9725 25.7532 30.9672C26.4014 30.9244 27.7063 31.3841 28.3364 31.2275C28.2016 31.9278 17.9908 32.1164 17.1034 32.1164C16.7374 33.1349 20.5038 33.0706 18.9256 34.3394C18.395 34.7662 12.7715 33.5893 12.9111 35.8696C12.9087 35.8201 15.392 37.6826 15.632 37.7855C17.4638 38.5711 20.1606 38.033 21.9202 39.0167C21.5305 39.4627 20.3468 39.4199 19.8215 39.8905C20.8124 41.0003 19.4117 40.8975 20.5283 42.3423C20.7867 42.678 22.3316 42.4508 22.3669 43.4893C22.4295 45.2611 16.3561 45.3636 15.2242 45.4493C13.2603 45.5972 11.0388 45.6474 9.0805 45.4543C8.55351 45.4026 7.77927 44.9303 6.97855 45.0096C5.99721 45.1069 6.72529 45.7356 6.25087 45.8104C4.50774 46.0829 3.3213 46.0871 2.12724 46.753C1.59543 47.0487 0.614893 47.8259 0 48.3383C1.13827 49.3118 0.490469 50.7528 1.0572 51.2343C1.39996 51.5258 2.46358 51.5792 2.8501 51.6867C4.70401 52.2037 6.08069 51.3059 6.84971 53.7556C4.57035 55.6503 7.57739 56.0177 8.76503 57.4144C9.37591 58.133 10.0554 58.7546 10.643 59.3133C11.0183 59.6705 11.9013 59.8454 12.3107 60.4326C13.41 62.0095 12.8144 63.4055 14.5937 64.502C16.3725 65.5977 18.8534 65.735 20.6467 66.7405C21.3181 67.116 22.4857 68.1773 23.0091 68.6265C23.3804 68.9468 24.0763 69.5147 24.5981 69.9052C25.2435 69.7131 25.7581 69.935 26.1426 70.5721C26.1883 70.8935 26.2325 71.2141 26.2774 71.5348C27.8861 72.6681 28.511 72.5445 30.3806 72.3162C31.0308 72.2368 31.6497 72.1308 32.3774 72.1329C33.5879 72.1361 34.8313 72.2379 35.8323 72.3549C37.1115 72.5048 38.5929 72.4655 40.0354 72.5757C40.8944 72.6407 43.8564 72.5585 44.3602 73.2296C42.717 74.7328 46.3594 72.9951 46.2406 73.0263C47.1962 72.7794 49.8689 72.9856 50.9955 73.353C51.9689 73.6726 52.1314 74.3103 53.3403 74.3563C53.903 74.3767 54.2707 74.455 54.5232 74.4258C56.1118 74.2503 56.111 74.1867 57.5185 74.8055C58.5404 73.8394 59.6799 75.1065 60.7837 75.1697C61.9906 75.2382 64.1608 74.8312 65.523 74.7989C67.7245 74.7462 70.3783 75.2199 72.813 75.2424C74.0958 75.2557 75.5134 75.0229 76.4751 75.2424C76.6452 75.2824 76.8086 76.9524 78.3302 76.9998C78.7552 77.0128 79.5724 76.2394 79.9629 76.1323C81.2654 75.7745 82.6477 75.6737 84.2599 75.6951C85.9629 75.7176 87.3842 75.8451 89.0527 75.7036C89.619 75.6554 90.5903 75.7411 91.0679 75.7706C91.8995 75.8247 92.3411 74.389 93.3019 76.1432C94.4719 75.222 95.2634 76.1271 96.5289 76.1229C97.3818 76.1197 98.7051 75.6874 99.7635 75.6874C101.378 75.6874 103.044 75.8226 104.646 75.6059C104.887 75.5736 105.764 74.8438 106.178 74.8009C108.164 74.6004 110.794 75.635 112.634 75.2455C114.614 74.8276 114.109 74.0472 116.34 74.3535C117.66 74.5347 118.741 74.8013 120.083 74.7985C121.322 74.7954 122.013 74.1487 123.017 74.134C125.04 74.1024 126.369 74.3791 128.353 74.5755C130.431 74.7813 132.224 74.3974 134.244 74.5786C134.912 74.6387 135.867 74.8434 136.661 74.7865C135.345 74.8799 139.32 74.0799 138.879 74.2773C139.108 74.1747 139.631 72.9782 140.126 73.0197C141.025 73.0948 140.303 74.0048 140.739 74.1249C141.203 74.2538 141.806 74.2011 142.271 74.3531C144.414 75.051 145.915 74.1905 148.007 74.35C152.495 74.6921 156.711 74.3531 160.986 74.3531C164.19 74.3531 167.689 73.9703 170.367 73.9085C185.63 73.552 202.061 74.3619 216.549 74.3531C220.624 74.351 224.396 74.3531 228.782 74.3531C229.063 74.3531 229.344 74.3531 229.625 74.3531C230.739 74.7208 231.667 74.4273 232.405 73.4741C233.18 73.485 234.488 74.3531 235.636 74.3531C237.438 74.3531 239.761 74.0855 241.219 73.9085C244.61 73.4966 248.754 73.9479 252.359 73.6469C257.539 73.2146 263.162 73.4635 268.498 73.4635C277.036 73.4635 285.697 72.9382 293.463 72.7921C300.439 72.66 308.28 73.2199 315.025 73.2448C317.614 73.2532 351.42 74.3655 351.42 73.4646C351.422 72.8061 339.031 73.1054 337.657 72.8118C334.993 72.2446 332.117 72.6804 329.785 72.5747C328.452 72.5136 327.054 72.2853 325.898 72.1413C324.744 71.9977 324.707 71.808 323.77 71.7589C323.588 71.7494 322.966 72.685 322.52 72.5747C322.52 72.03 322.53 71.7599 321.986 71.6861C322.34 70.1914 331.959 71.2412 333.523 71.2412C337.333 71.2412 341.142 71.2422 344.952 71.2412C345.972 71.2412 346.611 71.2552 347.526 71.1305C347.66 70.8903 347.705 70.6308 347.66 70.3512C348.323 70.0004 348.74 70.1229 348.911 70.7175C349.399 70.6627 349.722 71.139 350.167 71.1583C350.63 71.1787 351.944 70.5293 352.383 70.5353C353.548 70.5514 354.928 71.3535 356.492 71.2246C360.074 70.9321 363.383 71.2889 367.184 71.2331C372.575 71.1527 378.865 70.5209 383.828 69.0023C384.734 68.7245 387.572 68.132 388.314 67.4025C389.538 66.1986 389.209 64.8149 387.552 64.5715C385.966 64.339 384.196 65.9159 385.636 62.8935C386.289 61.5238 387.418 60.8151 387.777 58.7918C387.893 58.1357 386.89 58.2784 387.329 57.6076C387.626 57.1549 388.307 57.1366 388.66 56.5796C389.005 56.0338 389.07 56.437 389.38 55.2352C389.512 54.7302 390.707 53.9013 389.38 53.9013L389.382 53.901Z" fill="#FEB904"/>
</svg>
