<svg width="379" height="413" viewBox="0 0 379 413" fill="none" xmlns="http://www.w3.org/2000/svg">
<path fill-rule="evenodd" clip-rule="evenodd" d="M59.4808 399.083C58.2646 399.638 58.2646 399.638 59.4808 399.083C57.0485 400.194 57.0484 400.194 55.2798 399.514L53.5111 398.834L54.7273 398.278C56.4959 398.958 58.2646 399.638 59.4808 399.083Z" fill="#FED775"/>
<path fill-rule="evenodd" clip-rule="evenodd" d="M65.3392 402.358L64.123 402.914C63.5705 401.678 63.5705 401.678 65.3392 402.358Z" fill="#FED775"/>
<path fill-rule="evenodd" clip-rule="evenodd" d="M256.894 5.30309C257.446 6.53874 256.783 8.33008 258.551 9.01002C258.551 9.01002 258.551 9.01002 259.104 10.2457C260.209 12.717 260.761 13.9526 261.866 16.4239C261.866 16.4239 261.866 16.4239 262.419 17.6596C262.419 17.6596 262.419 17.6596 261.203 18.2153C259.986 18.771 259.986 18.771 261.091 21.2423C261.644 22.4779 261.644 22.4779 261.644 22.4779C262.196 23.7136 262.749 24.9493 263.854 27.4205C264.406 28.6562 264.406 28.6562 264.959 29.8918C265.511 31.1275 266.064 32.3632 266.616 33.5988L267.169 34.8344C267.169 34.8344 267.169 34.8344 267.721 36.0701C268.274 37.3057 268.274 37.3057 268.826 38.5414C269.379 39.7771 269.379 39.7771 268.715 41.5684C269.267 42.804 268.051 43.3598 269.82 44.0397C270.372 45.2754 270.372 45.2754 270.925 46.511C271.477 47.7466 269.709 47.0667 269.709 47.0667C270.261 48.3023 269.045 48.8581 269.045 48.8581C266.06 48.7339 266.613 49.9695 268.381 50.6494C268.934 51.8851 269.486 53.1207 270.039 54.3564C270.591 55.592 271.144 56.8277 271.696 58.0633C271.696 58.0633 272.249 59.299 272.801 60.5346C273.354 61.7703 273.354 61.7703 272.69 63.5616L273.243 64.7973C273.795 66.0329 273.684 69.06 274.236 70.2956C274.789 71.5313 274.789 71.5313 273.573 72.087C273.573 72.087 272.357 72.6427 272.909 73.8783C272.245 75.6697 274.014 76.3496 273.35 78.141C272.687 79.9324 273.792 82.4037 273.681 85.4307C274.233 86.6663 273.569 88.4577 274.122 89.6933C274.674 90.929 274.011 92.7203 274.563 93.956C274.563 93.956 274.563 93.956 275.116 95.1917L275.668 96.4273C276.221 97.6629 275.557 99.4543 276.109 100.69L276.662 101.926C276.662 101.926 276.662 101.926 275.446 102.481L275.998 103.717C277.103 106.188 276.44 107.98 277.544 110.451C278.097 111.687 277.433 113.478 277.986 114.714C278.538 115.949 277.875 117.741 278.427 118.976C278.316 122.003 278.205 125.03 277.541 126.822C277.541 126.822 276.325 127.377 276.877 128.613L277.43 129.849C277.43 129.849 277.43 129.849 277.982 131.084L278.535 132.32C279.087 133.556 277.871 134.111 278.424 135.347C278.424 135.347 278.424 135.347 278.976 136.583C279.529 137.818 278.312 138.374 278.865 139.61C279.417 140.845 278.201 141.401 279.417 140.845C278.201 141.401 278.754 142.637 278.754 142.637C278.754 142.637 279.306 143.872 278.09 144.428C278.09 144.428 278.09 144.428 277.426 146.219C276.763 148.011 276.763 148.011 276.099 149.802C273.444 156.968 272.781 158.759 272.117 160.55C272.117 160.55 271.565 159.315 272.781 158.759C273.333 159.995 272.67 161.786 272.67 161.786C272.67 161.786 272.67 161.786 271.453 162.342C271.453 162.342 270.901 161.106 270.348 159.87C270.348 159.87 269.796 158.635 269.243 157.399C269.243 157.399 270.46 156.843 269.907 155.608C269.355 154.372 269.907 155.608 268.691 156.163C267.364 159.746 266.589 164.564 264.709 166.912L264.045 168.703C264.045 168.703 264.045 168.703 262.829 169.259C262.829 169.259 262.829 169.259 262.165 171.05C262.718 172.286 262.718 172.286 261.502 172.841L260.286 173.397C260.286 173.397 259.069 173.953 259.622 175.188L259.069 173.953C258.517 172.717 259.733 172.161 259.181 170.926C259.181 170.926 259.181 170.926 258.628 169.69L257.964 171.481C257.964 171.481 257.964 171.481 257.301 173.273C257.301 173.273 257.853 174.509 256.637 175.064C256.637 175.064 256.637 175.064 257.19 176.3C257.19 176.3 257.19 176.3 257.742 177.535C257.742 177.535 258.295 178.771 257.078 179.327C257.078 179.327 256.415 181.118 256.967 182.354C256.304 184.145 256.856 185.381 255.64 185.937C254.313 189.519 252.433 191.866 251.105 195.449C251.105 195.449 249.889 196.005 250.442 197.24C250.994 198.476 249.778 199.032 249.778 199.032L248.451 202.615C248.451 202.615 247.235 203.17 247.787 204.406C246.571 204.962 247.123 206.197 245.907 206.753C245.244 208.544 245.244 208.544 244.027 209.1C244.58 210.336 243.364 210.891 242.148 211.447C241.484 213.239 240.268 213.794 240.82 215.03C240.82 215.03 239.604 215.586 240.157 216.821C238.94 217.377 238.277 219.168 237.613 220.96C236.949 222.751 235.733 223.307 235.07 225.098C233.853 225.654 234.406 226.89 233.19 227.445C231.974 228.001 231.974 228.001 230.757 228.557C228.878 230.904 226.998 233.251 225.118 235.598C223.902 236.154 223.238 237.945 221.358 240.292C220.142 240.848 219.478 242.639 218.262 243.195L215.83 244.306C215.83 244.306 215.83 244.306 214.614 244.862C212.734 247.209 210.854 249.556 207.206 251.223C205.989 251.779 205.326 253.57 204.11 254.126C202.893 254.682 202.23 256.473 199.797 257.585L198.581 258.14C196.149 259.252 195.485 261.043 193.053 262.155C190.621 263.266 188.741 265.613 186.309 266.724C185.092 267.28 185.092 267.28 183.876 267.836C182.66 268.392 181.444 268.947 181.444 268.947C180.228 269.503 179.012 270.059 177.795 270.614L176.579 271.17C174.147 272.282 172.931 272.837 170.499 273.949L169.282 274.504L168.066 275.06C168.066 275.06 168.066 275.06 166.85 275.616L165.634 276.172C165.634 276.172 165.634 276.172 164.418 276.727C163.202 277.283 163.202 277.283 161.985 277.839C161.985 277.839 161.985 277.839 160.769 278.394L159.553 278.95C157.121 280.062 155.905 280.617 153.472 281.729L152.256 282.284C153.472 281.729 154.688 281.173 157.121 280.062C158.337 279.506 159.553 278.95 160.769 278.394C163.202 277.283 165.634 276.172 168.066 275.06L169.282 274.504C170.499 273.949 171.715 273.393 172.931 272.837C175.363 271.726 177.795 270.614 180.228 269.503C182.66 268.392 183.876 267.836 185.756 265.489C186.972 264.933 188.188 264.377 188.852 262.586L190.068 262.03C191.284 261.475 192.501 260.919 192.501 260.919C193.717 260.363 194.933 259.807 195.597 258.016C195.597 258.016 195.597 258.016 196.813 257.46L198.029 256.905C199.245 256.349 201.125 254.002 202.341 253.446C203.557 252.89 204.773 252.335 204.221 251.099C206.101 248.752 208.533 247.641 209.197 245.849C210.413 245.293 211.076 243.502 213.509 242.391C214.725 241.835 214.725 241.835 215.389 240.044C216.605 239.488 217.268 237.697 218.485 237.141C219.701 236.585 220.364 234.794 221.581 234.238C221.581 234.238 222.797 233.682 222.244 232.447C222.244 232.447 222.244 232.447 223.46 231.891C222.908 230.655 224.124 230.1 225.34 229.544L226.556 228.988C226.556 228.988 227.773 228.432 227.22 227.197C227.22 227.197 227.22 227.197 228.436 226.641C227.884 225.405 229.1 224.85 230.316 224.294L231.532 223.738C231.532 223.738 231.532 223.738 232.196 221.947C232.196 221.947 232.196 221.947 233.412 221.391C234.076 219.6 235.292 219.044 235.956 217.253C236.619 215.461 239.052 214.35 239.715 212.559C240.931 212.003 240.379 210.767 241.595 210.212C242.811 209.656 242.811 209.656 243.475 207.864C244.691 207.309 244.691 207.309 245.355 205.517C245.355 205.517 246.571 204.962 246.018 203.726C246.018 203.726 245.466 202.49 246.682 201.935C247.898 201.379 247.898 201.379 248.562 199.588L249.226 197.796C249.226 197.796 249.226 197.796 249.889 196.005C250.553 194.213 251.88 190.631 253.76 188.284C254.424 186.492 254.424 186.492 255.087 184.701C255.751 182.91 256.415 181.118 257.631 180.563C258.295 178.771 258.958 176.98 259.622 175.188C256.859 169.01 256.307 167.775 257.523 167.219C257.523 167.219 257.523 167.219 256.971 165.983C257.634 164.192 258.298 162.4 257.746 161.165C257.746 161.165 258.962 160.609 258.409 159.373C258.409 159.373 258.409 159.373 259.625 158.818C259.625 158.818 260.289 157.026 259.073 157.582C259.737 155.791 260.4 153.999 259.848 152.764C259.848 152.764 259.295 151.528 260.511 150.972L261.175 149.181C262.391 148.625 261.839 147.39 262.502 145.598C262.502 145.598 262.502 145.598 261.95 144.363L262.614 142.571C262.725 139.544 264.052 135.961 264.163 132.934C264.163 132.934 264.163 132.934 263.611 131.699L263.058 130.463C263.722 128.672 263.17 127.436 263.833 125.645L263.281 124.409C263.281 124.409 263.944 122.618 262.728 123.174C262.176 121.938 262.839 120.147 262.287 118.911C261.734 117.675 261.846 114.648 261.293 113.413L260.741 112.177C260.741 112.177 260.741 112.177 260.188 110.941C260.188 110.941 260.188 110.941 259.636 109.706L256.873 103.527C256.321 102.292 256.321 102.292 254.552 101.612C255.105 102.847 255.657 104.083 254.993 105.874C255.546 107.11 256.098 108.346 255.435 110.137C255.987 111.373 255.876 114.4 256.428 115.635C256.981 116.871 256.87 119.898 257.422 121.134L257.975 122.369C257.864 125.396 258.416 126.632 258.305 129.659C258.857 130.895 258.194 132.686 258.194 132.686L257.53 134.477C258.083 135.713 256.866 136.269 256.866 136.269C256.755 139.296 256.091 141.087 255.98 144.114C255.98 144.114 256.533 145.35 255.317 145.906C255.869 147.141 254.653 147.697 255.205 148.933C255.205 148.933 255.758 150.168 254.542 150.724C254.542 150.724 254.542 150.724 253.326 151.28C253.878 152.515 252.662 153.071 253.214 154.307C252.551 156.098 251.887 157.889 251.223 159.681C250.007 160.236 250.56 161.472 250.56 161.472L249.896 163.263C250.449 164.499 249.232 165.055 249.232 165.055C248.016 165.611 247.353 167.402 246.689 169.193C247.241 170.429 246.025 170.985 246.025 170.985L244.698 174.567C245.25 175.803 244.034 176.359 243.371 178.15C243.371 178.15 243.923 179.386 242.707 179.941C242.707 179.941 241.491 180.497 242.043 181.733C241.38 183.524 241.38 183.524 240.716 185.315C239.5 185.871 240.052 187.107 240.605 188.343C240.605 188.343 240.605 188.343 239.389 188.898C238.172 189.454 237.509 191.245 238.061 192.481C238.614 193.717 237.398 194.272 237.95 195.508L237.286 197.299C236.623 199.091 236.623 199.091 235.959 200.882C235.959 200.882 234.743 201.438 235.295 202.673C235.295 202.673 234.079 203.229 234.632 204.465L233.415 205.02C232.752 206.812 231.536 207.368 230.872 209.159C230.872 209.159 230.872 209.159 230.208 210.95C228.992 211.506 229.545 212.742 228.328 213.297C228.328 213.297 228.328 213.297 227.112 213.853C227.112 213.853 225.896 214.409 226.449 215.644L225.232 216.2C224.569 217.992 223.353 218.547 222.689 220.339C222.025 222.13 220.809 222.686 220.145 224.477C219.482 226.268 218.266 226.824 217.602 228.615C216.938 230.407 214.506 231.518 213.842 233.31C211.962 235.657 210.083 238.004 208.867 238.56C208.867 238.56 208.867 238.56 207.65 239.115C207.65 239.115 207.65 239.115 206.434 239.671C206.434 239.671 206.434 239.671 205.218 240.227C203.338 242.574 201.458 244.921 199.579 247.268L198.362 247.824C197.146 248.379 195.266 250.726 194.05 251.282L192.834 251.838C191.618 252.394 190.402 252.949 189.738 254.741C188.522 255.296 187.858 257.088 186.642 257.643C184.21 258.755 182.33 261.102 181.114 261.658C178.681 262.769 178.018 264.56 175.586 265.672C174.369 266.228 171.937 267.339 171.273 269.13C170.057 269.686 168.841 270.242 167.625 270.797C165.193 271.909 163.976 272.465 162.097 274.812L160.88 275.367C159.664 275.923 159.664 275.923 158.448 276.479C157.232 277.035 156.016 277.59 153.583 278.702C152.367 279.257 149.935 280.369 148.719 280.925C147.503 281.48 146.287 282.036 145.07 282.592C143.854 283.147 141.422 284.259 139.653 283.579C139.653 283.579 138.437 284.135 137.885 282.899C137.885 282.899 137.885 282.899 136.668 283.455C136.668 283.455 136.668 283.455 135.452 284.01C134.236 284.566 134.236 284.566 133.02 285.122C132.467 283.886 132.467 283.886 133.684 283.33C134.236 284.566 134.236 284.566 135.452 284.01C136.668 283.455 137.885 282.899 139.101 282.343C139.101 282.343 139.101 282.343 140.317 281.788C141.533 281.232 142.749 280.676 142.749 280.676L143.965 280.12C145.182 279.565 145.182 279.565 146.398 279.009C147.614 278.453 148.83 277.898 148.83 277.898C150.046 277.342 150.046 277.342 151.262 276.786C152.478 276.23 152.478 276.23 152.478 276.23C154.911 275.119 156.127 274.563 158.559 273.452C160.992 272.34 163.424 271.229 165.856 270.118C167.072 269.562 167.072 269.562 168.289 269.006L169.505 268.45C173.153 266.783 176.249 263.88 180.561 260.422C181.225 258.631 182.994 259.311 184.873 256.963C184.873 256.963 184.873 256.963 186.09 256.408C187.306 255.852 187.306 255.852 186.753 254.616C186.753 254.616 186.753 254.616 187.969 254.061C189.186 253.505 187.969 254.061 187.417 252.825C187.417 252.825 187.417 252.825 186.864 251.589L185.648 252.145C185.648 252.145 185.648 252.145 184.432 252.701L183.216 253.257C182 253.812 180.784 254.368 180.12 256.159L178.904 256.715C177.688 257.271 177.688 257.271 177.688 257.271L176.472 257.826C176.472 257.826 176.472 257.826 175.255 258.382C175.255 258.382 175.255 258.382 174.039 258.938L172.823 259.494C171.607 260.049 171.607 260.049 170.391 260.605C167.958 261.716 166.742 262.272 164.862 264.619L161.214 266.286C159.998 266.842 158.782 267.398 156.349 268.509C155.133 269.065 153.917 269.621 154.469 270.856C153.253 271.412 152.037 271.968 150.821 272.523C150.821 272.523 150.821 272.523 149.605 273.079C148.389 273.635 148.389 273.635 147.173 274.191L145.956 274.746C144.74 275.302 144.74 275.302 143.524 275.858L142.308 276.413C141.092 276.969 138.659 278.081 137.443 278.636C136.227 279.192 136.227 279.192 136.227 279.192C136.227 279.192 135.011 279.748 133.242 279.068C132.026 279.624 129.041 279.499 127.825 280.055C126.057 279.375 126.057 279.375 124.84 279.931L121.192 281.598C121.192 281.598 121.192 281.598 119.976 282.154L117.543 283.265C115.775 282.585 115.775 282.585 113.342 283.697C112.79 282.461 112.126 284.252 112.126 284.252C110.91 284.808 112.126 284.252 111.574 283.017C111.574 283.017 110.358 283.572 108.589 282.892C105.604 282.768 103.172 283.88 101.403 283.2C98.4185 283.075 97.2023 283.631 94.2175 283.507C93.0013 284.063 91.2327 283.383 91.2327 283.383C90.0165 283.938 90.0165 283.938 88.2479 283.259L87.0317 283.814C87.0317 283.814 88.8004 284.494 87.5842 285.05C87.5842 285.05 87.5842 285.05 88.1367 286.286C88.1367 286.286 89.3529 285.73 89.9054 286.965C89.9054 286.965 89.9053 286.965 91.1215 286.41C92.8901 287.09 94.1063 286.534 95.875 287.214C95.875 287.214 95.875 287.214 94.6588 287.77L93.4426 288.325C92.8902 287.09 91.674 287.645 91.674 287.645C90.4578 288.201 88.6892 287.521 86.9205 286.841C86.9205 286.841 86.9205 286.841 85.7044 287.397L83.9357 286.717C82.7196 287.273 82.7196 287.273 80.9509 286.593L79.7348 287.149C78.5186 287.704 76.75 287.024 74.9813 286.344C74.9813 286.344 73.7652 286.9 73.2127 285.664C73.2127 285.664 71.444 284.984 71.9965 286.22L73.654 289.927L72.4378 290.483C70.6692 289.803 69.453 290.359 66.4682 290.234L64.6995 289.554C64.6995 289.554 63.4834 290.11 64.0359 291.346C64.0359 291.346 64.5884 292.581 65.8045 292.026C67.0207 291.47 67.5732 292.706 68.7893 292.15C71.7742 292.274 73.5428 292.954 76.5276 293.078C76.5276 293.078 76.5276 293.078 77.7438 292.523C77.7438 292.523 77.7438 292.523 78.2963 293.758C78.8487 294.994 80.0649 294.438 81.281 293.882C81.281 293.882 80.0649 294.438 78.2963 293.758C78.2963 293.758 77.0801 294.314 76.5276 293.078C75.3114 293.634 73.5428 292.954 73.5428 292.954C75.3114 293.634 76.5276 293.078 78.2963 293.758C80.0649 294.438 81.281 293.882 82.4972 293.327C82.4972 293.327 82.4972 293.327 83.7134 292.771C85.482 293.451 87.9143 292.34 89.683 293.019C89.683 293.019 91.4516 293.699 92.6678 293.144C92.6678 293.144 93.8839 292.588 94.4364 293.824C96.2051 294.504 97.4212 293.948 97.4212 293.948C97.4212 293.948 97.4212 293.948 96.2051 294.504L93.7728 295.615C93.7728 295.615 93.7727 295.615 92.5566 296.171C92.5566 296.171 92.5566 296.171 91.3405 296.726C89.5718 296.047 88.3556 296.602 87.1395 297.158L85.9233 297.714C84.7072 298.269 84.7072 298.269 85.2597 299.505L84.0435 300.061L82.2748 299.381C82.2748 299.381 84.0435 300.061 82.8273 300.616L80.395 301.728C79.1789 302.284 78.6264 301.048 77.4102 301.604C77.4102 301.604 77.4102 301.604 76.194 302.159C76.194 302.159 76.194 302.159 74.9779 302.715C73.2093 302.035 71.9931 302.591 71.9931 302.591C70.7769 303.147 70.7769 303.147 69.5608 303.702C68.3446 304.258 68.3446 304.258 67.1284 304.814C67.6809 306.049 68.8971 305.494 70.6657 306.174C72.4344 306.854 75.4192 306.978 77.8515 305.866L78.404 307.102C78.404 307.102 78.9565 308.338 80.1726 307.782C81.9413 308.462 81.9413 308.462 83.1574 307.906C84.9261 308.586 86.1423 308.03 87.9109 308.71C87.9109 308.71 87.9109 308.71 89.1271 308.155C90.3432 307.599 92.1118 308.279 93.8805 308.959C93.8805 308.959 93.8805 308.959 95.6491 309.639C96.8653 309.083 96.8653 309.083 98.634 309.763C98.634 309.763 98.634 309.763 99.8501 309.207C101.066 308.651 102.835 309.331 104.051 308.776L105.267 308.22C106.483 307.664 106.483 307.664 108.252 308.344L109.468 307.788C109.468 307.788 110.684 307.233 111.237 308.468C112.453 307.913 114.222 308.593 115.438 308.037C115.438 308.037 115.438 308.037 114.222 308.593C114.222 308.593 114.222 308.593 113.006 309.148C113.006 309.148 113.558 310.384 114.774 309.828L115.99 309.273C115.99 309.273 115.99 309.273 117.206 308.717L118.423 308.161C118.423 308.161 118.423 308.161 119.639 307.605L118.423 308.161L117.759 309.952L116.543 310.508C116.543 310.508 115.327 311.064 115.879 312.3C115.879 312.3 115.879 312.3 116.432 313.535C116.432 313.535 116.432 313.535 115.215 314.091C113.447 313.411 112.231 313.967 111.678 312.731C111.678 312.731 110.462 313.287 109.909 312.051C109.909 312.051 110.462 313.287 111.678 312.731C109.909 312.051 108.693 312.607 107.477 313.163C107.477 313.163 107.477 313.163 106.261 313.718C107.477 313.163 107.477 313.163 105.709 312.483C105.709 312.483 105.709 312.483 104.492 313.038C104.492 313.038 104.492 313.038 103.276 313.594L102.06 314.15C102.06 314.15 100.844 314.705 100.291 313.47C100.291 313.47 100.291 313.47 99.0753 314.026L99.6278 315.261C99.6278 315.261 99.6278 315.261 99.0753 314.026L97.8591 314.581C97.8591 314.581 97.8591 314.581 96.6429 315.137C96.6429 315.137 96.6429 315.137 95.4268 315.693C95.4268 315.693 94.8743 314.457 93.6581 315.013C92.442 315.568 91.8895 314.333 91.8895 314.333C93.6581 315.013 93.6581 315.013 94.8743 314.457C94.8743 314.457 93.6581 315.013 95.4268 315.693C97.1954 316.373 97.1954 316.373 98.4116 315.817C99.6277 315.261 99.6278 315.261 99.0753 314.026C98.5228 312.79 97.3066 313.346 97.3066 313.346C97.3066 313.346 96.7541 312.11 95.5379 312.666C94.3218 313.221 94.3218 313.221 94.3218 313.221C94.3218 313.221 92.5532 312.541 91.337 313.097C91.337 313.097 91.337 313.097 90.7845 311.861L89.0159 311.182C87.7997 311.737 87.7997 311.737 87.7997 311.737C87.7997 311.737 87.7997 311.737 88.3522 312.973L87.1361 313.529C87.1361 313.529 87.136 313.529 87.6885 314.764L88.241 316C87.0248 316.556 87.0248 316.556 86.4724 315.32L84.7037 314.64C84.7037 314.64 83.4876 315.196 82.9351 313.96C82.9351 313.96 81.1664 313.28 81.7189 314.516C79.9503 313.836 78.7341 314.392 78.7341 314.392C78.7341 314.392 78.7341 314.392 77.518 314.947C77.518 314.947 76.9655 313.712 75.7493 314.267C75.7493 314.267 75.7493 314.267 75.1968 313.032C73.9807 313.587 73.9807 313.587 73.9807 313.587C72.7645 314.143 72.7645 314.143 71.5483 314.699C70.9958 313.463 69.7797 314.019 69.2272 312.783C69.2272 312.783 68.6747 311.548 67.4585 312.103C66.2424 312.659 66.2424 312.659 65.6899 311.423C65.6899 311.423 65.6899 311.423 64.4738 311.979C63.9213 310.743 63.9213 310.743 62.7051 311.299C62.7051 311.299 62.7051 311.299 62.1526 310.064C61.6002 308.828 61.6001 308.828 58.6153 308.704C58.6153 308.704 57.3992 309.259 56.8467 308.024C55.6305 308.579 55.078 307.344 53.8619 307.9C54.4144 309.135 55.6305 308.579 55.6305 308.579C55.6305 308.579 55.6305 308.579 54.4144 309.135C53.1982 309.691 53.1982 309.691 51.9821 310.247C51.9821 310.247 51.982 310.247 50.7659 310.802C50.7659 310.802 50.7659 310.802 49.5497 311.358C47.7811 310.678 47.7811 310.678 48.3336 311.914C48.3336 311.914 47.1174 312.469 46.5649 311.234L44.7963 310.554C44.7963 310.554 45.46 308.763 44.2438 309.318C44.2438 309.318 43.0276 309.874 42.4751 308.638C42.4751 308.638 41.259 309.194 40.7065 307.958C38.9379 307.278 38.9379 307.278 38.2742 309.07L40.0428 309.75C40.0428 309.75 40.0428 309.75 38.8267 310.305C37.6105 310.861 37.6105 310.861 35.8419 310.181C34.0732 309.501 32.3046 308.821 31.0884 309.377L29.9834 306.906C29.9834 306.906 28.2148 306.226 28.7673 307.461C30.5359 308.141 31.0884 309.377 32.8571 310.057C32.8571 310.057 32.8571 310.057 31.6409 310.613L32.1934 311.848L30.4247 311.168C29.8723 309.933 29.8723 309.933 28.1036 309.253C26.335 308.573 25.1188 309.129 25.1188 309.129C25.1188 309.129 25.1188 309.129 23.9027 309.684C22.6865 310.24 22.6865 310.24 24.4552 310.92C26.2238 311.6 27.9924 312.28 29.7611 312.96L31.5297 313.64C30.3135 314.195 30.3136 314.195 28.5449 313.515C28.5449 313.515 28.5449 313.516 27.3288 314.071L26.1126 314.627C26.1126 314.627 24.8964 315.183 24.344 313.947L23.7915 312.711C23.239 311.476 22.0228 312.031 22.0228 312.031C22.0228 312.031 20.2542 311.351 19.7017 310.116L21.4703 310.796C21.4703 310.796 20.9179 309.56 19.7017 310.116L17.933 309.436C17.933 309.436 16.7169 309.992 16.1644 308.756L14.3958 308.076C14.3958 308.076 13.1796 308.632 12.6271 307.396C12.6271 307.396 12.6271 307.396 11.411 307.952C11.411 307.952 13.1796 308.632 11.9635 309.187C11.9635 309.187 10.7473 309.743 9.53113 310.299C8.31496 310.855 7.76247 309.619 5.99383 308.939L7.09881 311.41L5.88266 311.966C4.114 311.286 2.89785 311.842 2.34536 310.606L0.576692 309.926C0.576692 309.926 0.576698 309.926 1.12918 311.162C1.68167 312.398 2.89785 311.842 4.66648 312.522C3.45034 313.077 3.45034 313.077 2.23416 313.633C1.01801 314.189 -0.198157 314.745 1.5705 315.425C1.5705 315.425 1.5705 315.425 2.12298 316.66L3.33913 316.104C2.78664 314.869 4.55531 315.549 6.32394 316.229C6.32394 316.229 6.32394 316.229 7.54012 315.673L9.30875 316.353C9.30875 316.353 10.5249 315.797 11.0774 317.033C9.86124 317.589 11.0774 317.033 11.6299 318.269C11.6299 318.269 12.1824 319.504 13.3985 318.948C13.3985 318.948 13.3985 318.948 12.1824 319.504C12.1824 319.504 12.1824 319.504 10.9662 320.06L9.75006 320.616C10.3026 321.851 10.3026 321.851 8.53389 321.171C6.76526 320.491 4.9966 319.811 4.33294 321.603C4.33294 321.603 4.33293 321.603 4.88542 322.838L6.65405 323.518C7.87023 322.963 7.87024 322.963 9.63887 323.643L10.7438 326.114C10.7438 326.114 10.7438 326.114 9.5277 326.67L7.75903 325.99L6.54288 326.545C7.09537 327.781 7.09537 327.781 5.32674 327.101C5.87923 328.337 6.43168 329.572 8.20034 330.252C8.75283 331.488 8.75284 331.488 10.5215 332.168C9.30532 332.724 9.30532 332.724 7.53668 332.044C7.53668 332.044 6.32051 332.599 5.76802 331.364C5.76802 331.364 6.32053 332.599 7.53668 332.044C7.53668 332.044 9.30532 332.724 8.08917 333.279C6.87302 333.835 8.64166 334.515 8.64166 334.515C9.19415 335.751 10.4103 335.195 10.4103 335.195C10.4103 335.195 12.1789 335.875 12.7314 337.11C11.5153 337.666 10.9628 336.431 9.74663 336.986L11.5153 337.666C10.2991 338.222 10.2991 338.222 10.8516 339.458C10.8516 339.458 10.8516 339.458 11.4041 340.693C11.9566 341.929 13.1727 341.373 13.7252 342.609C14.2777 343.844 16.0463 344.524 15.3827 346.316L16.4877 348.787C17.0401 350.023 18.8088 350.703 19.3613 351.938C19.9138 353.174 20.4662 354.41 22.2349 355.09C24.556 357.005 25.1085 358.241 26.8772 358.921C26.8772 358.921 27.4296 360.156 28.6458 359.601C29.1983 360.836 30.4144 360.281 30.9669 361.516C30.9669 361.516 30.9669 361.516 31.5194 362.752L33.2881 363.432C33.2881 363.432 33.8406 364.667 35.0567 364.112C35.6092 365.347 37.3779 366.027 37.9304 367.263C38.4828 368.499 38.4828 368.499 38.4828 368.499C38.4828 368.499 38.4828 368.499 39.0353 369.734C39.5878 370.97 40.1403 372.206 41.9089 372.886L42.4614 374.121C42.4614 374.121 42.4614 374.121 43.6776 373.565C43.6776 373.565 44.2301 374.801 45.9987 375.481L47.6562 379.188C48.2087 380.424 48.2087 380.424 51.1935 380.548C52.9621 381.228 52.9621 381.228 54.7307 381.908C56.4994 382.588 56.4994 382.588 58.268 383.268L60.0367 383.947C61.8053 384.627 61.8053 384.627 63.574 385.307C64.1265 386.543 65.3426 385.987 67.1113 386.667C68.8799 387.347 69.9849 389.818 71.7535 390.498C73.5222 391.178 75.2908 391.858 76.507 391.303C78.2756 391.983 79.4918 391.427 81.2604 392.107L82.4766 391.551C85.4614 391.675 87.23 392.355 90.2149 392.479C91.9835 393.159 93.1997 392.604 93.1997 392.604L94.9683 393.284C94.9683 393.284 96.1844 392.728 96.7369 393.963C97.9531 393.408 98.5056 394.643 99.7218 394.088C99.7218 394.088 100.938 393.532 101.49 394.768L103.259 395.448C103.259 395.448 103.812 396.683 105.028 396.128C108.012 396.252 110.997 396.376 115.198 395.944C116.414 395.389 118.183 396.069 119.399 395.513C119.399 395.513 121.168 396.193 122.384 395.637C121.168 396.193 119.952 396.749 118.183 396.069L116.967 396.624C115.751 397.18 115.751 397.18 117.519 397.86C118.736 397.304 119.288 398.54 120.504 397.984C124.153 396.317 127.138 396.441 131.338 396.01L132.555 395.454C132.555 395.454 133.771 394.898 134.323 396.134C133.107 396.69 131.891 397.245 131.891 397.245C131.891 397.245 131.891 397.245 132.443 398.481L131.227 399.037C130.011 399.593 130.011 399.593 128.795 400.148C128.795 400.148 128.795 400.148 127.579 400.704C126.363 401.26 126.363 401.26 124.594 400.58C123.378 401.135 123.378 401.135 122.162 401.691L120.946 402.247C119.729 402.803 119.729 402.803 119.729 402.803C119.729 402.803 119.729 402.803 120.282 404.038C121.498 403.483 123.267 404.163 124.483 403.607C128.684 403.175 131.669 403.3 135.317 401.632C135.317 401.632 136.533 401.077 137.749 400.521C138.966 399.965 141.95 400.089 143.166 399.534C144.383 398.978 144.383 398.978 145.599 398.422C146.815 397.867 149.8 397.991 151.016 397.435L149.247 396.755C149.247 396.755 149.247 396.755 150.463 396.199C152.896 395.088 155.328 393.977 158.313 394.101C159.529 393.545 160.745 392.989 161.961 392.434C164.394 391.322 165.61 390.767 168.042 389.655C166.826 390.211 166.826 390.211 165.61 390.767C164.394 391.322 163.177 391.878 161.409 391.198L160.193 391.754C160.193 391.754 160.193 391.754 161.409 391.198C162.625 390.642 162.625 390.642 163.841 390.087C166.273 388.975 169.258 389.099 170.474 388.544C171.691 387.988 172.907 387.432 174.675 388.112C175.892 387.556 175.892 387.556 177.108 387.001L178.324 386.445C177.66 388.236 178.876 387.681 180.093 387.125C181.309 386.569 182.525 386.014 183.741 385.458C184.405 383.666 186.173 384.346 187.389 383.791C188.606 383.235 189.822 382.679 191.038 382.124C192.254 381.568 193.47 381.012 193.47 381.012C194.686 380.456 195.903 379.901 198.335 378.789C199.551 378.234 199.551 378.234 200.767 377.678L203.2 376.566C204.416 376.011 205.632 375.455 208.064 374.344C209.28 373.788 210.497 373.232 211.713 372.676C212.929 372.121 212.929 372.121 214.145 371.565L215.361 371.009C219.01 369.342 221.442 368.231 225.09 366.564C226.307 366.008 226.307 366.008 227.523 365.452C228.739 364.896 229.955 364.341 231.171 363.785L232.387 363.229C234.82 362.118 237.252 361.006 240.9 359.339C242.117 358.784 242.117 358.784 243.333 358.228C243.333 358.228 243.333 358.228 244.549 357.672C244.549 357.672 244.549 357.672 243.333 358.228C242.117 358.784 242.117 358.784 240.9 359.339L239.684 359.895C238.468 360.451 237.252 361.006 236.036 361.562C236.036 361.562 236.036 361.562 234.82 362.118C233.604 362.674 233.604 362.674 232.387 363.229L231.171 363.785C229.955 364.341 228.739 364.896 226.859 367.244C228.075 366.688 230.508 365.576 231.724 365.021C232.94 364.465 232.94 364.465 234.156 363.909L235.372 363.354C235.372 363.354 235.372 363.354 236.588 362.798C237.804 362.242 240.237 361.131 241.453 360.575C242.669 360.019 242.669 360.019 243.885 359.464C245.101 358.908 245.101 358.908 246.318 358.352C247.534 357.796 247.534 357.796 248.75 357.241C253.615 355.018 256.711 352.115 261.575 349.892L264.007 348.781C265.224 348.225 265.224 348.225 266.44 347.669C266.44 347.669 267.656 347.114 268.872 346.558C272.521 344.891 274.4 342.544 277.496 339.641C277.496 339.641 277.496 339.641 278.713 339.085C279.929 338.529 280.592 336.738 281.809 336.182C283.025 335.627 284.241 335.071 283.688 333.835C285.568 331.488 289.217 329.821 291.097 327.474C292.313 326.918 294.193 324.571 295.409 324.015C296.625 323.46 296.625 323.46 296.625 323.46C296.625 323.46 295.961 325.251 294.745 325.807C293.529 326.363 292.865 328.154 291.649 328.71L290.433 329.265C289.217 329.821 289.217 329.821 288.001 330.377C286.784 330.932 286.121 332.724 284.905 333.28C283.688 333.835 282.472 334.391 281.809 336.182L280.592 336.738C280.592 336.738 280.592 336.738 279.376 337.294C279.376 337.294 279.376 337.294 278.16 337.85C276.944 338.405 275.728 338.961 274.512 339.517L273.295 340.072C272.079 340.628 271.416 342.419 268.983 343.531C267.767 344.087 267.767 344.087 267.103 345.878C263.455 347.545 261.575 349.892 258.479 352.795C259.695 352.239 260.911 351.684 261.575 349.892C262.791 349.336 262.791 349.336 264.007 348.781C264.007 348.781 265.224 348.225 266.44 347.669C266.44 347.669 266.44 347.669 267.656 347.114C268.872 346.558 270.752 344.211 271.968 343.655C274.4 342.544 275.617 341.988 277.496 339.641C278.713 339.085 279.929 338.529 280.592 336.738L281.809 336.182L283.025 335.627C284.241 335.071 284.241 335.071 284.905 333.28C284.905 333.28 284.905 333.28 283.688 333.835L284.905 333.28C288.001 330.377 291.097 327.474 294.193 324.571L295.409 324.015C296.625 323.46 296.625 323.46 297.288 321.668C299.168 319.321 301.601 318.21 303.48 315.863C304.697 315.307 306.576 312.96 307.24 311.169C307.24 311.169 308.456 310.613 307.904 309.377C309.12 308.822 308.567 307.586 309.784 307.03C312.55 296.838 315.645 293.935 318.189 289.797C320.069 287.449 321.949 285.102 323.828 282.755C324.492 280.964 326.372 278.617 327.036 276.826C327.699 275.034 328.915 274.478 329.579 272.687C333.339 267.993 334.114 263.175 337.21 260.272L337.873 258.48C337.873 258.48 338.537 256.689 339.753 256.133C341.081 252.551 341.744 250.759 342.408 248.968C344.288 246.621 344.951 244.829 346.279 241.247L346.942 239.455C346.942 239.455 346.942 239.455 346.39 238.22C346.39 238.22 347.606 237.664 347.054 236.428C347.054 236.428 347.054 236.428 348.27 235.873C348.27 235.873 349.486 235.317 348.933 234.081C350.813 231.734 351.477 229.943 352.804 226.36L353.468 224.569C353.468 224.569 353.468 224.569 352.915 223.333C354.795 220.986 354.243 219.75 356.123 217.403C355.57 216.168 356.234 214.376 356.897 212.585C355.681 213.141 356.234 214.376 356.234 214.376L355.681 213.141C356.345 211.349 356.345 211.349 357.009 209.558L357.672 207.766C358.336 205.975 359 204.184 359.663 202.392C358.447 202.948 359 204.184 357.783 204.739C358.447 202.948 359.111 201.157 359.774 199.365C359.222 198.13 360.438 197.574 359.886 196.338C361.102 195.783 360.549 194.547 361.766 193.991C362.982 193.436 362.429 192.2 363.093 190.409C362.54 189.173 363.757 188.617 363.204 187.382C363.204 187.382 363.204 187.382 362.652 186.146C363.315 184.355 363.426 181.328 364.09 179.536C365.97 177.189 365.417 175.953 366.081 174.162C366.081 174.162 366.081 174.162 366.634 175.398C366.634 175.398 366.634 175.398 367.186 176.633L367.739 177.869C368.402 176.078 368.402 176.078 369.066 174.286C369.066 174.286 368.513 173.051 369.73 172.495C369.177 171.259 369.841 169.468 369.952 166.441C370.616 164.65 371.279 162.858 370.174 160.387C370.174 160.387 369.622 159.151 370.838 158.596L371.502 156.804C371.502 156.804 371.502 156.804 372.165 155.013C374.045 152.666 374.045 152.666 372.94 150.194C373.604 148.403 373.604 148.403 374.268 146.612C374.268 146.612 374.268 146.612 374.931 144.82C375.595 143.029 376.811 142.473 376.922 139.446L377.586 137.655C377.586 137.655 377.586 137.655 376.37 138.211L375.706 140.002L375.042 141.793C375.595 143.029 374.379 143.585 374.379 143.585C374.379 143.585 374.379 143.585 373.715 145.376C373.715 145.376 373.715 145.376 372.499 145.932C373.163 144.14 374.379 143.585 373.826 142.349C374.49 140.558 374.49 140.558 375.706 140.002C376.922 139.446 376.37 138.211 377.033 136.419C376.481 135.184 377.145 133.392 377.808 131.601C377.256 130.365 378.472 129.809 377.256 130.365L376.592 132.157C376.592 132.157 376.592 132.157 375.928 133.948C374.712 134.504 375.265 135.739 374.049 136.295C374.049 136.295 374.049 136.295 374.601 137.531C373.937 139.322 373.937 139.322 373.274 141.113C367.193 143.892 366.529 145.683 365.866 147.475C364.649 148.03 365.202 149.266 365.754 150.502C366.307 151.737 365.643 153.529 364.98 155.32C364.316 157.111 364.868 158.347 366.085 157.791C366.637 159.027 365.973 160.818 364.757 161.374C364.094 163.165 363.43 164.957 363.982 166.192C363.982 166.192 363.982 166.192 363.319 167.984C363.319 167.984 363.871 169.219 362.655 169.775C362.655 169.775 361.991 171.567 363.207 171.011C363.207 171.011 363.207 171.011 363.76 172.247C364.312 173.482 363.096 174.038 363.649 175.274C362.985 177.065 362.874 180.092 362.21 181.883C362.099 184.91 361.435 186.702 359.556 189.049L360.219 187.257C360.219 187.257 359.667 186.022 360.883 185.466C360.883 185.466 360.883 185.466 360.33 184.23C360.994 182.439 359.889 179.968 360.553 178.176C360 176.941 361.216 176.385 360 176.941C358.784 177.496 358.784 177.496 359.448 175.705C358.895 174.469 359.559 172.678 358.343 173.234L357.79 171.998C357.79 171.998 357.79 171.998 358.454 170.207C359.118 168.415 358.565 167.18 359.229 165.388C359.893 163.597 358.676 164.153 359.34 162.361C358.788 161.126 358.788 161.126 358.235 159.89L357.683 158.654L356.355 162.237C356.244 165.264 355.58 167.055 355.469 170.082C354.806 171.874 356.022 171.318 356.574 172.554C357.127 173.789 355.911 174.345 357.679 175.025C357.679 175.025 357.679 175.025 358.232 176.261C357.568 178.052 357.457 181.079 356.793 182.87C356.129 184.662 356.682 185.897 356.018 187.689C356.571 188.924 355.907 190.716 355.243 192.507C354.58 194.299 355.132 195.534 355.132 195.534C354.469 197.326 354.469 197.326 353.805 199.117C353.805 199.117 353.805 199.117 354.357 200.353C355.021 198.561 355.021 198.561 354.469 197.326C354.469 197.326 354.469 197.326 353.916 196.09C353.916 196.09 353.916 196.09 353.364 194.854L351.706 191.147C351.154 189.912 349.937 190.467 349.826 193.494L350.379 194.73L349.715 196.521C349.715 196.521 348.499 197.077 349.051 198.313C349.051 198.313 348.499 197.077 349.715 196.521C349.715 196.521 349.715 196.521 349.163 195.286L348.058 192.814C347.505 191.579 347.616 188.552 346.511 186.081L345.959 184.845C345.406 183.609 346.07 181.818 346.181 178.791C346.845 176.999 346.292 175.764 345.74 174.528L345.187 173.293C345.187 173.293 345.187 173.293 344.635 172.057C344.969 162.976 345.08 159.949 345.191 156.922C345.191 156.922 345.191 156.922 344.638 155.686C344.638 155.686 344.638 155.686 344.086 154.451C344.197 151.424 344.308 148.397 344.419 145.369L343.867 144.134C343.867 144.134 343.867 144.134 343.315 142.898C343.315 142.898 343.315 142.898 342.762 141.663C342.762 141.663 342.21 140.427 341.657 139.191C342.321 137.4 341.216 134.929 341.879 133.137C341.879 133.137 342.543 131.346 341.327 131.902C341.327 131.902 340.774 130.666 341.991 130.11C341.991 130.11 343.207 129.555 342.654 128.319C342.654 128.319 343.318 126.527 342.102 127.083L341.549 125.848C341.66 122.821 340.556 120.349 340.667 117.322C340.667 117.322 340.667 117.322 340.114 116.087L339.562 114.851C340.225 113.06 340.225 113.06 340.889 111.268C340.889 111.268 340.889 111.268 340.337 110.033C339.784 108.797 339.784 108.797 339.232 107.561C337.463 106.881 337.463 106.881 338.79 103.299C338.238 102.063 339.454 101.507 338.901 100.272C338.349 99.0359 337.133 99.5916 337.133 99.5916C335.917 100.147 336.469 101.383 335.253 101.939C334.037 102.494 334.037 102.494 333.484 101.259C332.932 100.023 332.932 100.023 333.596 98.2318C334.259 96.4404 333.707 95.2048 334.37 93.4134C333.818 92.1777 335.034 91.622 333.265 90.9421C333.265 90.9421 333.265 90.9421 332.713 89.7065C332.16 88.4708 333.377 87.9151 332.824 86.6794L331.608 87.2352C331.608 87.2352 330.392 87.7909 330.944 89.0265L330.281 90.8179C330.281 90.8179 330.281 90.8179 329.728 89.5822L329.176 88.3466C328.623 87.1109 329.287 85.3196 328.734 84.0839L328.182 82.8483C328.182 82.8483 327.518 84.6396 326.966 83.404C326.966 83.404 326.413 82.1683 325.861 80.9327L325.197 82.7241C325.197 82.7241 325.75 83.9597 324.533 84.5154L323.317 85.0711C323.317 85.0711 323.317 85.0711 322.765 83.8355L321.66 81.3642C320.996 83.1556 320.444 81.9199 319.891 80.6843C319.339 79.4486 319.339 79.4486 318.786 78.2129C318.234 76.9773 317.017 77.533 316.465 76.2974C315.913 75.0617 314.808 72.5904 314.255 71.3548C314.255 71.3548 314.255 71.3548 313.703 70.1191C313.703 70.1191 313.703 70.1191 313.15 68.8835C313.15 68.8835 313.15 68.8835 313.703 70.1191C314.255 71.3548 312.486 70.6748 313.15 68.8835C313.15 68.8835 313.15 68.8835 312.598 67.6478C312.045 66.4122 311.493 65.1765 310.94 63.9409C309.724 64.4966 309.171 63.2609 308.619 62.0253C308.067 60.7897 307.514 59.554 307.514 59.554C306.962 58.3183 306.962 58.3183 306.298 60.1097C306.298 60.1097 306.298 60.1097 305.634 61.9011C305.634 61.9011 304.418 62.4568 303.866 61.2211C303.313 59.9855 303.313 59.9855 302.097 60.5412C302.097 60.5412 300.881 61.0969 300.328 59.8613C299.776 58.6256 299.776 58.6256 299.112 60.417C297.896 60.9727 297.343 59.737 295.575 59.0571C295.575 59.0571 295.022 57.8214 293.806 58.3772C293.806 58.3772 293.806 58.3772 292.59 58.9329C292.59 58.9329 292.59 58.9329 292.038 57.6972C290.38 53.9903 289.939 49.7276 288.281 46.0207C287.729 44.785 286.624 42.3137 286.071 41.0781C285.519 39.8424 285.519 39.8424 284.966 38.6068C284.966 38.6068 284.966 38.6068 284.414 37.3711C283.861 36.1355 283.861 36.1355 283.309 34.8998L282.756 33.6642C282.756 33.6642 281.54 34.2199 280.988 32.9843C280.988 32.9843 280.988 32.9843 280.435 31.7486C279.883 30.5129 279.883 30.5129 279.33 29.2773C278.778 28.0417 278.225 26.806 278.225 26.806L277.12 24.3347C274.799 22.4191 273.694 19.9478 272.589 17.4765C272.589 17.4765 272.589 17.4765 272.037 16.2409C270.268 15.5609 270.268 15.5609 269.163 13.0896C268.611 11.854 268.611 11.854 268.058 10.6183C268.058 10.6183 267.506 9.3827 266.953 8.14705C266.953 8.14705 266.953 8.14705 266.401 6.91139C266.401 6.91139 266.401 6.91139 265.185 7.46711L263.968 8.02282C264.521 9.25848 265.073 10.4941 265.626 11.7298C266.178 12.9654 267.283 15.4367 267.836 16.6724C267.836 16.6724 267.836 16.6724 268.388 17.908C268.941 19.1437 268.941 19.1437 269.493 20.3793C270.046 21.615 270.598 22.8506 271.151 24.0862C271.151 24.0862 271.703 25.3219 272.256 26.5576C272.808 27.7932 273.361 29.0289 273.913 30.2645L274.466 31.5001C275.018 32.7358 275.018 32.7358 275.571 33.9715C275.571 33.9715 275.571 33.9715 276.123 35.2071L277.781 38.914C278.333 40.1497 278.333 40.1497 278.886 41.3854L280.543 45.0923C281.096 46.3279 281.096 46.3279 280.432 48.1193C280.984 49.355 281.537 50.5906 282.089 51.8263C282.089 51.8263 282.089 51.8263 280.873 52.382L282.531 56.0889C282.531 56.0889 281.978 54.8533 283.194 54.2976C283.747 55.5332 283.083 57.3246 282.419 59.1159L281.756 60.9073L282.308 62.143L281.645 63.9343C282.197 65.1699 282.197 65.17 281.533 66.9613C280.981 65.7257 280.981 65.7257 280.981 65.7257C280.981 65.7257 280.428 64.49 279.876 63.2544C279.323 62.0187 279.323 62.0187 278.771 60.7831C278.771 60.7831 278.771 60.7831 278.218 59.5474C277.666 58.3118 277.666 58.3118 277.666 58.3118C277.666 58.3118 277.666 58.3118 277.113 57.0761C276.561 55.8405 276.009 54.6048 275.456 53.3692C276.009 54.6048 276.672 52.8135 276.672 52.8135C276.12 51.5778 276.12 51.5778 277.336 51.0221C277.336 51.0221 276.783 49.7865 276.231 48.5508C275.678 47.3152 275.126 46.0795 274.573 44.8438C274.573 44.8438 275.79 44.2882 275.237 43.0525C274.685 41.8168 274.132 40.5812 273.58 39.3455L272.475 36.8743C271.922 35.6386 271.37 34.4029 270.154 34.9587C269.601 33.723 268.385 34.2787 269.049 32.4874C270.265 31.9316 270.265 31.9317 269.16 29.4604C269.16 29.4604 268.607 28.2247 268.055 26.989C266.95 24.5178 266.397 23.2821 264.076 21.3665C264.076 21.3665 264.076 21.3665 263.524 20.1309C262.971 18.8952 262.419 17.6596 261.866 16.4239C261.866 16.4239 261.866 16.4239 261.314 15.1883C260.761 13.9526 260.209 12.717 259.656 11.4813C259.104 10.2457 258.551 9.01002 258.551 9.01002L257.999 7.77437C257.446 6.53871 256.23 7.09446 256.894 5.30309C256.341 4.06743 256.341 4.06743 255.789 2.83178C255.789 2.83178 254.02 2.15184 254.573 3.38749C254.573 3.38749 254.573 3.38749 252.804 2.70755C252.804 2.70755 252.804 2.70758 252.252 1.47192C252.252 1.47192 252.252 1.47192 251.035 2.02764C251.035 2.02764 249.267 1.3477 248.714 0.112041C258.11 4.74737 256.894 5.30309 256.894 5.30309ZM247.012 209.224C246.46 207.989 246.46 207.989 247.012 209.224C247.676 207.433 248.34 205.642 249.003 203.85L250.219 203.295C249.556 205.086 249.556 205.086 248.892 206.877C247.676 207.433 247.676 207.433 247.012 209.224ZM258.625 186.061C258.072 184.825 258.072 184.825 258.625 186.061V186.061ZM83.0463 310.933L83.5988 312.169C83.5988 312.169 83.5988 312.169 82.3826 312.724C81.8301 311.489 83.0463 310.933 83.0463 310.933ZM134.104 385.817C134.657 387.053 134.657 387.053 134.104 385.817V385.817ZM132.224 388.164C134.657 387.053 137.642 387.177 140.074 386.066L141.29 385.51C137.642 387.177 135.209 388.289 132.224 388.164ZM318.411 283.743C316.532 286.09 314.099 287.201 313.988 290.228C312.772 290.784 312.108 292.575 311.445 294.366C311.445 294.366 310.228 294.922 310.781 296.158C309.565 296.714 309.565 296.714 308.349 297.269C308.349 297.269 308.349 297.269 307.132 297.825C307.132 297.825 307.132 297.825 305.916 298.381L305.253 300.172C305.253 300.172 305.253 300.172 304.036 300.728L302.82 301.283C304.036 300.728 303.484 299.492 304.7 298.936C305.916 298.381 305.364 297.145 306.58 296.589C307.796 296.034 307.244 294.798 308.46 294.242C309.676 293.687 309.123 292.451 310.34 291.895C310.34 291.895 310.34 291.895 311.556 291.339C311.556 291.339 311.556 291.339 312.772 290.784C312.772 290.784 312.219 289.548 313.436 288.992C313.436 288.992 313.436 288.992 314.652 288.437C315.315 286.645 315.979 284.854 318.411 283.743C317.859 282.507 319.075 281.951 319.075 281.951C319.075 281.951 319.075 281.951 320.291 281.395C319.186 278.924 320.402 278.368 321.619 277.813C322.835 277.257 322.282 276.021 323.498 275.466C323.498 275.466 322.946 274.23 324.162 273.674C325.378 273.119 324.826 271.883 326.042 271.327C327.258 270.771 327.258 270.771 327.922 268.98C327.369 267.744 329.249 265.397 329.36 262.37C331.793 261.259 331.793 261.259 331.793 261.259C331.793 261.259 331.793 261.259 330.576 261.815C329.913 263.606 328.697 264.162 328.033 265.953L327.369 267.744C326.706 269.536 326.042 271.327 324.826 271.883C323.61 272.439 324.162 273.674 322.946 274.23C321.066 276.577 320.402 278.368 318.523 280.715C319.628 283.187 319.628 283.187 318.411 283.743ZM264.517 25.6292C263.301 26.1849 263.301 26.1849 264.517 25.6292V25.6292ZM319.45 76.4216C318.897 75.1859 318.897 75.1859 319.45 76.4216V76.4216ZM113.986 380.129C115.202 379.574 115.202 379.574 113.986 380.129V380.129ZM152.347 377.482C153.563 376.926 153.563 376.926 152.347 377.482V377.482ZM73.5291 358.437C72.3129 358.993 72.3129 358.993 73.5291 358.437V358.437ZM179.884 327.696C179.331 326.461 179.331 326.461 179.884 327.696V327.696ZM220.681 307.566C221.233 308.802 221.233 308.802 220.681 307.566V307.566ZM292.775 232.957C292.222 231.721 292.222 231.721 292.775 232.957V232.957ZM252.416 273.72C252.968 274.956 252.968 274.956 252.416 273.72V273.72ZM149.702 335.535C150.918 334.979 150.918 334.979 149.702 335.535V335.535ZM318.984 186.754C319.537 187.99 319.537 187.99 318.984 186.754V186.754ZM314.689 108.359C314.137 107.123 314.137 107.123 314.689 108.359V108.359ZM214.273 286.684C213.057 287.24 213.057 287.24 214.273 286.684V286.684ZM264.032 234.186C263.479 232.95 263.479 232.95 264.032 234.186V234.186ZM253.527 243.45C252.975 242.214 252.975 242.214 253.527 243.45V243.45ZM254.744 242.894C253.527 243.45 253.527 243.45 254.744 242.894V242.894ZM159.758 354.75C158.542 355.305 158.542 355.305 159.758 354.75V354.75ZM292.472 94.7013C293.136 92.91 293.136 92.91 292.472 94.7013C291.919 93.4657 291.919 93.4657 292.472 94.7013ZM239.264 257.408C238.047 257.964 238.047 257.964 239.264 257.408V257.408ZM27.1064 320.125C28.875 320.805 28.875 320.805 27.1064 320.125V320.125ZM117.756 326.323C117.203 325.088 117.203 325.088 117.756 326.323V326.323ZM230.181 341.916C231.397 341.36 231.397 341.36 230.181 341.916V341.916ZM197.695 265.986C197.143 264.75 195.927 265.306 197.695 265.986C197.143 264.75 197.143 264.75 197.695 265.986ZM292.034 74.0679C292.587 75.3036 292.587 75.3036 293.139 76.5392C293.139 76.5392 293.692 77.7749 292.475 78.3306C291.923 77.095 290.154 76.415 290.154 76.415C289.602 75.1794 289.602 75.1794 289.049 73.9437L288.497 72.7081L289.16 70.9167C290.929 71.5966 291.482 72.8323 292.034 74.0679ZM310.276 65.7322C310.829 66.9679 310.829 66.9679 310.276 65.7322V65.7322ZM216.049 254.623C214.833 255.179 215.385 256.414 214.169 256.97C214.833 255.179 216.049 254.623 216.049 254.623ZM276.662 101.926C277.214 103.161 277.214 103.161 276.662 101.926V101.926ZM351.261 203.255C351.814 204.491 351.814 204.491 351.261 203.255V203.255ZM357.453 197.45C358.006 198.685 358.006 198.685 357.453 197.45V197.45ZM345.063 241.802C346.279 241.247 346.279 241.247 345.063 241.802V241.802ZM141.29 385.51L142.506 384.954C143.722 384.399 144.939 383.843 145.491 385.079C145.491 385.079 143.059 386.19 141.29 385.51ZM72.7645 314.143L71.5483 314.699C70.9958 313.463 70.9959 313.463 72.7645 314.143ZM80.5028 315.072C81.7189 314.516 81.7189 314.516 80.5028 315.072C82.2714 315.751 82.2714 315.752 82.2714 315.752C82.2714 315.752 82.2714 315.751 84.04 316.431C84.04 316.431 84.04 316.431 84.5925 317.667C86.3612 318.347 87.5773 317.791 88.1298 319.027L89.8985 319.707C89.8985 319.707 89.8985 319.707 88.6823 320.263C88.1298 319.027 86.9137 319.583 85.6975 320.138C84.4814 320.694 82.7127 320.014 82.7127 320.014C81.4966 320.57 80.944 319.334 79.1754 318.654C78.6229 317.419 77.4068 317.974 75.6381 317.294L75.0856 316.059C79.2866 315.627 80.5028 315.072 80.5028 315.072ZM94.8743 314.457C93.6581 315.013 93.6581 315.013 91.8895 314.333C91.8895 314.333 91.8895 314.333 92.5532 312.541C93.1056 313.777 93.1056 313.777 94.8743 314.457C94.3218 313.221 94.3218 313.221 94.8743 314.457ZM119.861 301.551C120.414 302.787 119.197 303.343 119.861 301.551C121.63 302.231 121.63 302.231 122.846 301.676L124.062 301.12C125.278 300.564 125.278 300.564 126.494 300.008C127.047 301.244 127.047 301.244 125.831 301.8C124.615 302.356 124.062 301.12 123.398 302.911C122.182 303.467 122.182 303.467 120.966 304.023C120.966 304.023 120.966 304.023 119.861 301.551C119.197 303.343 119.197 303.343 119.861 301.551ZM98.0849 292.156C99.3011 291.601 99.3011 291.601 98.0849 292.156C101.07 292.281 102.838 292.961 104.054 292.405C105.823 293.085 107.039 292.529 108.255 291.973C111.24 292.098 112.456 291.542 115.441 291.666C116.657 291.11 117.21 292.346 118.426 291.79C119.642 291.235 120.195 292.47 121.411 291.915C123.18 292.595 124.396 292.039 125.612 291.483C126.828 290.927 129.813 291.052 131.029 290.496C132.245 289.94 132.245 289.94 134.014 290.62C131.581 291.732 128.597 291.607 127.38 292.163C126.164 292.719 124.396 292.039 123.179 292.595L121.963 293.15C120.747 293.706 118.979 293.026 117.762 293.582L115.33 294.693C112.345 294.569 111.129 295.125 108.144 295L106.928 295.556C106.928 295.556 106.928 295.556 105.712 296.112C105.712 296.112 104.496 296.668 102.727 295.988C99.3011 291.601 98.0849 292.156 98.0849 292.156C95.1001 292.032 92.6678 293.144 90.8991 292.464C90.8991 292.464 90.8991 292.464 89.683 293.019L87.2506 294.131C87.2506 294.131 87.2507 294.131 86.0345 294.687C86.0345 294.687 86.0345 294.687 84.8183 295.242L86.0345 294.687C86.0345 294.687 86.0345 294.687 87.2506 294.131C87.2506 294.131 88.4668 293.575 89.0193 294.811C89.0193 294.811 90.2355 294.255 90.788 295.491C93.8839 292.588 96.3163 291.477 98.0849 292.156ZM269.021 163.453C269.021 163.453 267.805 164.009 268.357 165.244L268.91 166.48C268.91 166.48 268.91 166.48 269.462 167.716L270.015 168.951L269.351 170.743C269.351 170.743 269.904 171.978 268.688 172.534C268.688 172.534 267.471 173.09 268.024 174.325C268.576 175.561 268.576 175.561 269.129 176.797C269.129 176.797 269.129 176.797 269.681 178.032C269.681 178.032 270.234 179.268 269.018 179.824C269.018 179.824 269.018 179.824 269.57 181.059L268.906 182.851C268.243 184.642 268.243 184.642 268.795 185.878C268.795 185.878 268.795 185.878 268.132 187.669L267.468 189.461C267.468 189.461 266.252 190.016 266.804 191.252C265.588 191.808 266.141 193.043 265.477 194.835C264.813 196.626 264.15 198.417 262.933 198.973C262.933 198.973 261.717 199.529 262.27 200.764C261.717 199.529 262.27 200.764 261.054 201.32C260.39 203.111 259.726 204.903 259.726 204.903C259.726 204.903 258.51 205.459 259.063 206.694C257.183 209.041 255.855 212.624 253.976 214.971L253.312 216.762C252.648 218.554 251.432 219.11 250.768 220.901C249.552 221.457 248.889 223.248 248.889 223.248C247.009 225.595 244.465 229.733 242.585 232.081L241.922 233.872C241.922 233.872 240.706 234.428 241.258 235.663C240.594 237.455 238.715 239.802 237.498 240.357C235.619 242.705 234.955 244.496 232.523 245.607C231.306 246.163 230.09 246.719 229.427 248.51C228.763 250.301 226.331 251.413 225.667 253.204L224.451 253.76C224.451 253.76 224.451 253.76 225.667 253.204C226.883 252.649 226.331 251.413 227.547 250.857C227.547 250.857 228.763 250.301 228.21 249.066C229.427 248.51 230.09 246.719 231.306 246.163C230.09 246.719 230.09 246.719 229.427 248.51L228.874 247.274C228.874 247.274 230.09 246.719 229.538 245.483L230.754 244.927C230.754 244.927 230.754 244.927 231.97 244.372C233.186 243.816 232.634 242.58 233.85 242.025C235.066 241.469 234.514 240.233 235.73 239.677C236.946 239.122 236.946 239.122 236.393 237.886C236.393 237.886 236.393 237.886 237.61 237.33C238.826 236.775 238.273 235.539 238.273 235.539L239.489 234.983C239.489 234.983 240.706 234.428 240.153 233.192C240.153 233.192 241.369 232.636 240.817 231.401L242.033 230.845C242.033 230.845 243.249 230.289 242.697 229.054C244.576 226.706 246.456 224.359 248.336 222.012C249 220.221 250.216 219.665 250.88 217.874C252.096 217.318 251.543 216.083 252.759 215.527L253.423 213.735C254.639 213.18 254.087 211.944 254.75 210.153L255.414 208.361C254.862 207.126 256.078 206.57 256.078 206.57L256.741 204.779C256.741 204.779 256.741 204.779 257.958 204.223L258.621 202.432C258.069 201.196 259.285 200.64 259.285 200.64L259.949 198.849C260.612 197.057 261.828 196.502 261.276 195.266C261.276 195.266 261.828 196.502 262.492 194.71L263.156 192.919C263.819 191.128 263.931 188.101 264.594 186.309C265.81 185.754 265.258 184.518 265.922 182.727C266.585 180.935 266.585 180.935 267.249 179.144C268.465 178.588 267.913 177.352 267.36 176.117C268.024 174.325 268.024 174.325 268.688 172.534L268.135 171.298C268.135 171.298 269.351 170.743 268.799 169.507C268.246 168.271 269.462 167.716 270.679 167.16C266.7 161.537 268.469 162.217 269.021 163.453C267.252 162.773 267.805 164.009 269.021 163.453Z" fill="#FED775"/>
<path fill-rule="evenodd" clip-rule="evenodd" d="M351.053 143.827C351.605 145.062 351.605 145.062 351.053 143.827C350.5 142.591 350.5 142.591 350.5 142.591C351.716 142.035 352.269 143.271 351.053 143.827Z" fill="#FED775"/>
<path fill-rule="evenodd" clip-rule="evenodd" d="M102.484 400.266C103.7 399.71 104.917 399.155 105.469 400.39L106.685 399.834C106.685 399.834 105.469 400.39 102.484 400.266C101.268 400.822 100.052 401.377 97.0671 401.253C97.0671 401.253 96.5146 400.018 97.7307 399.462C99.4994 400.142 101.268 400.822 102.484 400.266Z" fill="#FED775"/>
<path fill-rule="evenodd" clip-rule="evenodd" d="M125.146 401.815C127.579 400.704 129.347 401.384 130.564 400.828C131.78 400.273 131.78 400.273 133.548 400.952C133.548 400.952 133.548 400.952 134.765 400.397C135.981 399.841 137.197 399.285 138.966 399.965C137.749 400.521 136.533 401.077 135.317 401.632C135.87 402.868 135.87 402.868 137.086 402.312C138.302 401.757 138.302 401.757 140.07 402.437C142.503 401.325 145.488 401.449 147.92 400.338C149.136 399.782 149.136 399.782 150.905 400.462C153.89 400.586 157.538 398.919 159.97 397.808C159.97 397.808 159.97 397.808 161.186 397.252C162.403 396.696 163.619 396.141 163.619 396.141C167.267 394.473 170.252 394.598 173.901 392.931C175.117 392.375 176.333 391.819 177.549 391.263L178.765 390.708C181.198 389.596 183.63 388.485 187.278 386.818C188.494 386.262 189.711 385.706 190.927 385.151C192.143 384.595 193.359 384.039 195.791 382.928C197.008 382.372 197.008 382.372 197.008 382.372L195.791 382.928C195.791 382.928 195.791 382.928 197.008 382.372L198.224 381.816C197.008 382.372 195.791 382.928 194.575 383.483C193.359 384.039 192.143 384.595 190.927 385.151C190.927 385.151 190.927 385.151 189.711 385.706C189.711 385.706 189.711 385.706 188.494 386.262C187.278 386.818 186.062 387.373 184.846 387.929L186.062 387.373C187.278 386.818 188.494 386.262 186.726 385.582C186.726 385.582 186.726 385.582 185.51 386.138C185.51 386.138 185.51 386.138 184.293 386.694C183.077 387.249 181.861 387.805 181.861 387.805L179.429 388.916C176.997 390.028 175.78 390.583 173.348 391.695C174.564 391.139 174.564 391.139 175.78 390.584C176.997 390.028 178.213 389.472 179.429 388.916C179.429 388.916 179.429 388.916 178.213 389.472C176.997 390.028 174.564 391.139 173.348 391.695C172.132 392.251 170.916 392.806 170.916 392.806C170.916 392.806 170.916 392.806 169.7 393.362C167.931 392.682 166.715 393.238 166.715 393.238C165.499 393.794 165.499 393.794 164.282 394.349C165.499 393.794 167.931 392.682 169.147 392.126C170.363 391.571 171.579 391.015 172.796 390.459C174.012 389.904 175.228 389.348 176.444 388.792C177.66 388.236 177.66 388.236 178.876 387.681C180.093 387.125 180.093 387.125 181.309 386.569L182.525 386.014C186.173 384.346 188.606 383.235 192.254 381.568L193.47 381.012C193.47 381.012 193.47 381.012 192.254 381.568C192.254 381.568 192.254 381.568 191.038 382.124C189.822 382.679 189.822 382.679 188.606 383.235C186.173 384.346 183.741 385.458 182.525 386.014C182.525 386.014 181.309 386.569 180.093 387.125C178.876 387.681 178.876 387.681 177.66 388.236L176.444 388.792C175.228 389.348 174.012 389.904 171.579 391.015L170.363 391.571C170.363 391.571 168.595 390.891 167.378 391.446C166.162 392.002 163.73 393.114 162.514 393.669L158.865 395.336C158.865 395.336 157.097 394.657 155.881 395.212L154.664 395.768C154.664 395.768 154.664 395.768 153.448 396.324C152.232 396.879 151.016 397.435 149.247 396.755L150.463 396.199C149.911 394.964 149.911 394.964 145.71 395.395C145.71 395.395 145.71 395.395 144.494 395.951L143.278 396.507C142.062 397.062 142.062 397.062 140.293 396.383L139.077 396.938C139.077 396.938 139.077 396.938 137.861 397.494C136.644 398.05 134.876 397.37 133.66 397.925C132.443 398.481 132.443 398.481 130.675 397.801C129.459 398.357 129.459 398.357 129.459 398.357C130.011 399.593 131.227 399.037 132.443 398.481C133.66 397.925 134.876 397.37 135.428 398.605L136.644 398.05C136.644 398.05 136.644 398.05 137.861 397.494C139.077 396.938 140.293 396.383 140.293 396.383C140.293 396.383 140.293 396.383 141.509 395.827C141.509 395.827 143.278 396.507 144.494 395.951C145.71 395.395 145.71 395.395 145.046 397.187C143.278 396.507 140.845 397.618 139.629 398.174C138.413 398.73 137.197 399.285 135.428 398.605C135.428 398.605 135.428 398.605 134.212 399.161C134.212 399.161 134.212 399.161 132.996 399.717C132.996 399.717 132.996 399.717 131.78 400.273C131.78 400.273 130.564 400.828 130.011 399.593C127.579 400.704 124.594 400.58 123.378 401.135L122.162 401.691L120.393 401.011C120.393 401.011 120.393 401.011 119.177 401.567C117.961 402.123 117.961 402.123 116.192 401.443L114.976 401.998C113.76 402.554 111.991 401.874 110.775 402.43L112.544 403.11C113.76 402.554 114.976 401.998 115.528 403.234C115.528 403.234 116.081 404.47 117.297 403.914C117.297 403.914 118.513 403.358 119.729 402.803C123.93 402.371 128.131 401.94 131.78 400.273C131.78 400.273 131.78 400.273 132.996 399.717C135.981 399.841 138.413 398.73 140.845 397.618C140.845 397.618 140.845 397.618 142.062 397.062C142.062 397.062 142.062 397.062 143.278 396.507C144.494 395.951 145.71 395.395 147.479 396.075L146.262 396.631C145.046 397.187 145.046 397.187 143.278 396.507C142.062 397.062 140.845 397.618 139.077 396.938C137.861 397.494 136.092 396.814 135.428 398.605C134.212 399.161 133.66 397.925 132.443 398.481C131.227 399.037 131.227 399.037 131.227 399.037C130.011 399.593 128.795 400.148 127.026 399.468C127.026 399.468 127.026 399.468 125.81 400.024C124.594 400.58 123.378 401.135 122.162 401.691C126.363 401.26 126.363 401.26 125.146 401.815ZM141.398 398.854L142.614 398.298C142.614 398.298 142.614 398.298 141.398 398.854Z" fill="#FED775"/>
<path fill-rule="evenodd" clip-rule="evenodd" d="M120.834 405.274C122.05 404.718 123.819 405.398 123.819 405.398C120.834 405.274 116.633 405.705 114.201 406.817C112.985 407.373 112.432 406.137 112.432 406.137C115.417 406.261 117.85 405.15 120.834 405.274C119.066 404.594 120.282 404.038 120.834 405.274Z" fill="#FED775"/>
<path fill-rule="evenodd" clip-rule="evenodd" d="M66.6666 398.775C65.4504 399.331 64.2342 399.887 63.6817 398.651C63.6817 398.651 63.6817 398.651 62.4656 399.207C63.6817 398.651 65.4504 399.331 66.6666 398.775Z" fill="#FED775"/>
<path fill-rule="evenodd" clip-rule="evenodd" d="M136.863 408.366L135.647 408.922C135.647 408.922 135.647 408.922 134.431 409.478C134.431 409.478 133.215 410.033 132.662 408.798L133.879 408.242C135.647 408.922 135.647 408.922 136.863 408.366Z" fill="#FED775"/>
<path fill-rule="evenodd" clip-rule="evenodd" d="M353.148 168.167C353.701 169.403 353.701 169.403 353.701 169.403C353.701 169.403 354.253 170.638 353.037 171.194C352.373 172.985 351.71 174.777 351.046 176.568C351.046 176.568 352.262 176.012 351.71 174.777C352.926 174.221 352.373 172.985 351.821 171.75C352.484 169.958 351.932 168.723 353.148 168.167Z" fill="#FED775"/>
<path fill-rule="evenodd" clip-rule="evenodd" d="M143.938 411.086C146.37 409.975 149.355 410.099 150.571 409.543C149.355 410.099 146.37 409.975 145.154 410.53L143.938 411.086C143.274 412.877 141.506 412.198 142.722 411.642C142.169 410.406 142.169 410.406 143.938 411.086Z" fill="#FED775"/>
<path fill-rule="evenodd" clip-rule="evenodd" d="M161.958 408.804C160.742 409.36 160.742 409.36 159.526 409.916C159.526 409.916 158.309 410.472 157.757 409.236C157.757 409.236 158.973 408.68 161.958 408.804Z" fill="#FED775"/>
<path fill-rule="evenodd" clip-rule="evenodd" d="M157.757 409.236C158.973 408.68 160.189 408.124 161.958 408.804L163.174 408.249C164.943 408.929 167.375 407.817 169.807 406.706L172.24 405.594C172.24 405.594 172.24 405.594 173.456 405.039C174.672 404.483 174.672 404.483 175.888 403.927C177.104 403.371 179.537 402.26 180.753 401.704C181.969 401.149 184.401 400.037 185.617 399.481C189.266 397.814 192.914 396.147 196.563 394.48C197.779 393.924 198.995 393.369 200.211 392.813C201.427 392.257 202.644 391.701 202.644 391.701C203.86 391.146 205.076 390.59 207.508 389.479C209.941 388.367 212.373 387.256 214.805 386.144C216.021 385.589 216.021 385.589 217.238 385.033C218.454 384.477 219.67 383.921 220.886 383.366C223.318 382.254 225.751 381.143 226.414 379.352C228.847 378.24 231.279 377.129 231.943 375.337L233.159 374.782C234.375 374.226 236.807 373.114 237.471 371.323C238.687 370.767 239.903 370.212 240.567 368.42C247.864 365.086 250.296 363.975 252.728 362.863C253.945 362.307 255.161 361.752 255.824 359.96C255.824 359.96 255.824 359.96 257.041 359.405C258.92 357.058 262.569 355.39 264.449 353.043C265.665 352.488 266.329 350.696 267.545 350.141C267.545 350.141 267.545 350.141 268.761 349.585C269.977 349.029 270.641 347.238 270.641 347.238C271.857 346.682 271.857 346.682 272.521 344.891C275.617 341.988 277.496 339.641 280.592 336.738C282.472 334.391 284.905 333.28 286.784 330.932C288.001 330.377 287.448 329.141 288.664 328.585C289.88 328.03 290.544 326.238 291.76 325.683C292.424 323.891 293.64 323.336 294.856 322.78C295.52 320.988 296.736 320.433 297.952 319.877C297.952 319.877 297.952 319.877 299.168 319.321C299.168 319.321 299.168 319.321 300.384 318.766L301.601 318.21C302.817 317.654 302.817 317.654 303.48 315.863C304.144 314.071 306.024 311.724 307.24 311.169C307.351 308.142 308.015 306.35 307.463 305.115L306.246 305.67C305.583 307.462 303.15 308.573 302.487 310.365C302.487 310.365 302.487 310.365 301.271 310.92C301.271 310.92 301.271 310.92 300.054 311.476C298.838 312.032 299.391 313.267 298.175 313.823C296.958 314.379 296.295 316.17 296.295 316.17C292.535 320.864 287.559 326.114 283.247 329.573C282.031 330.128 282.031 330.128 281.367 331.92C278.935 333.031 278.271 334.822 277.055 335.378C275.839 335.934 274.623 336.49 273.959 338.281C270.863 341.184 267.767 344.087 264.119 345.754C259.807 349.212 255.494 352.671 249.966 356.685C249.966 356.685 249.966 356.685 248.75 357.241C248.75 357.241 248.75 357.241 247.534 357.796C247.534 357.796 247.534 357.796 246.318 358.352L245.101 358.908C243.885 359.464 242.669 360.019 240.789 362.366L239.573 362.922C239.573 362.922 239.573 362.922 238.357 363.478C240.014 367.185 238.135 369.532 235.702 370.643L234.486 371.199C233.27 371.755 232.054 372.31 232.054 372.31C228.958 375.213 224.093 377.436 220.445 379.103C219.229 379.659 218.012 380.215 218.012 380.215C216.796 380.77 215.58 381.326 214.364 381.882L210.715 383.549C207.067 385.216 203.418 386.883 199.77 388.55C194.905 390.773 191.257 392.44 186.392 394.663C185.176 395.219 183.96 395.775 183.96 395.775C182.744 396.33 182.744 396.33 180.975 395.65L179.759 396.206C177.327 397.317 174.894 398.429 173.678 398.985C173.678 398.985 173.678 398.985 174.231 400.22C173.015 400.776 170.582 401.887 169.366 402.443C166.934 403.555 163.949 403.43 162.733 403.986C158.421 407.445 157.204 408 157.757 409.236Z" fill="#FED775"/>
<path fill-rule="evenodd" clip-rule="evenodd" d="M267.926 111.87C267.374 110.634 268.59 110.078 268.038 108.843L266.933 106.371C266.38 105.136 267.044 103.344 266.491 102.109C265.939 100.873 265.386 99.6374 266.603 99.0817L267.155 100.317C266.491 102.109 267.044 103.344 267.596 104.58C268.149 105.816 268.149 105.816 268.701 107.051C268.701 107.051 268.701 107.051 268.149 105.816C268.701 107.051 268.038 108.843 268.038 108.843C267.926 111.87 267.926 111.87 267.926 111.87Z" fill="#FED775"/>
<path fill-rule="evenodd" clip-rule="evenodd" d="M270.029 103.469C270.581 104.704 270.581 104.704 271.134 105.94C271.686 107.175 270.47 107.731 271.022 108.967C271.022 108.967 271.575 110.202 270.359 110.758L269.806 109.523C269.917 106.496 270.581 104.704 270.029 103.469Z" fill="#FED775"/>
<path fill-rule="evenodd" clip-rule="evenodd" d="M376.033 163.662C375.48 162.427 376.144 160.635 375.591 159.4C375.039 158.164 375.039 158.164 374.486 156.928C373.934 155.693 375.15 155.137 374.598 153.901L374.045 152.666C374.045 152.666 373.493 151.43 374.709 150.874C374.709 150.874 374.709 150.874 375.925 150.319C375.925 150.319 375.925 150.319 376.477 151.554C377.582 154.026 377.471 157.053 377.913 161.315L378.465 162.551C377.249 163.107 377.249 163.107 376.033 163.662C376.585 164.898 376.585 164.898 376.033 163.662Z" fill="#FED775"/>
<path fill-rule="evenodd" clip-rule="evenodd" d="M346.515 169.71C347.731 169.154 347.731 169.154 346.515 169.71V169.71Z" fill="#FED775"/>
<path fill-rule="evenodd" clip-rule="evenodd" d="M73.6505 306.298C74.8667 305.742 75.4192 306.978 76.6354 306.422C77.8515 305.866 77.8515 305.866 78.404 307.102C79.6201 306.546 81.3888 307.226 81.3888 307.226L82.605 306.67C82.605 306.67 83.8211 306.115 84.3736 307.35C84.3736 307.35 85.5898 306.795 86.1422 308.03C86.1422 308.03 87.3584 307.475 87.9109 308.71C86.6947 309.266 86.6947 309.266 86.6947 309.266L84.9261 308.586C83.7099 309.142 81.9413 308.462 80.1726 307.782C80.1726 307.782 78.9565 308.338 78.404 307.102C78.404 307.102 77.1878 307.658 76.6354 306.422C74.8667 305.742 71.8819 305.618 70.6657 306.174C70.6657 306.174 71.8819 305.618 73.0981 305.062C71.8819 305.618 73.0981 305.062 73.6505 306.298Z" fill="#FED775"/>
<path fill-rule="evenodd" clip-rule="evenodd" d="M271.568 142.944C272.12 144.18 272.12 144.18 272.12 144.18C272.12 144.18 272.673 145.415 271.457 145.971C271.457 145.971 271.457 145.971 270.904 144.735C270.904 144.735 272.12 144.18 271.568 142.944Z" fill="#FED775"/>
<path fill-rule="evenodd" clip-rule="evenodd" d="M274.553 143.068C274 141.832 274 141.832 274.553 143.068C274.664 140.041 275.216 141.277 274.553 143.068C275.216 141.277 275.769 142.512 274.553 143.068Z" fill="#FED775"/>
<path fill-rule="evenodd" clip-rule="evenodd" d="M270.578 121.075C270.025 119.839 270.025 119.839 270.025 119.839L270.689 118.048C270.136 116.812 270.8 115.021 270.8 115.021C271.353 116.257 272.457 118.728 270.578 121.075Z" fill="#FED775"/>
<path fill-rule="evenodd" clip-rule="evenodd" d="M268.368 116.132C268.368 116.132 267.815 114.897 268.479 113.105C269.031 114.341 268.368 116.132 268.368 116.132Z" fill="#FED775"/>
<path fill-rule="evenodd" clip-rule="evenodd" d="M263.826 158.386C262.61 158.942 262.61 158.942 263.826 158.386C263.274 157.151 263.274 157.151 263.274 157.151C264.49 156.595 263.938 155.359 263.938 155.359C264.601 153.568 264.049 152.332 264.712 150.541C264.824 147.514 266.151 143.931 266.262 140.904C266.262 140.904 266.262 140.904 266.815 142.14C267.367 143.375 266.151 143.931 266.703 145.167C266.703 145.167 266.703 145.167 267.256 146.402C265.929 149.985 265.817 153.012 265.042 157.831C264.49 156.595 263.274 157.151 263.826 158.386Z" fill="#FED775"/>
<path fill-rule="evenodd" clip-rule="evenodd" d="M266.373 137.877C267.589 137.321 267.589 137.321 266.373 137.877V137.877Z" fill="#FED775"/>
<path fill-rule="evenodd" clip-rule="evenodd" d="M368.291 179.105C368.291 179.105 368.844 180.34 367.627 180.896C367.627 180.896 367.075 179.66 368.291 179.105C367.739 177.869 367.186 176.633 367.186 176.633C368.402 176.078 367.739 177.869 368.291 179.105Z" fill="#FED775"/>
<path fill-rule="evenodd" clip-rule="evenodd" d="M167.601 385.392C167.048 384.157 167.048 384.157 167.601 385.392C166.385 385.948 166.385 385.948 165.169 386.504C163.952 387.06 163.952 387.06 162.736 387.615L161.52 388.171C161.52 388.171 160.304 388.727 159.088 389.282C159.088 389.282 158.535 388.047 159.751 387.491C159.751 387.491 158.535 388.047 159.199 386.255C160.415 385.7 162.847 384.588 164.616 385.268C165.832 384.713 167.048 384.157 167.601 385.392C168.264 383.601 170.033 384.281 171.249 383.725C171.249 383.725 170.033 384.281 167.601 385.392Z" fill="#FED775"/>
<path fill-rule="evenodd" clip-rule="evenodd" d="M165.943 381.686C167.16 381.13 168.376 380.574 168.376 380.574C168.376 380.574 167.712 382.365 165.943 381.686C164.727 382.241 163.511 382.797 162.295 383.353C162.295 383.353 162.295 383.353 161.079 383.908C161.079 383.908 161.079 383.908 159.863 384.464C162.295 383.353 163.511 382.797 165.943 381.686Z" fill="#FED775"/>
<path fill-rule="evenodd" clip-rule="evenodd" d="M177.33 380.947C176.114 381.502 174.898 382.058 174.898 382.058L176.114 381.502L177.33 380.947Z" fill="#FED775"/>
<path fill-rule="evenodd" clip-rule="evenodd" d="M175.45 383.294C174.234 383.85 174.234 383.85 174.234 383.85C173.682 382.614 174.898 382.058 175.45 383.294Z" fill="#FED775"/>
<path fill-rule="evenodd" clip-rule="evenodd" d="M151.349 388.354C152.566 387.798 152.566 387.798 153.782 387.243L156.214 386.131C153.118 389.034 152.566 387.798 151.349 388.354Z" fill="#FED775"/>
<path fill-rule="evenodd" clip-rule="evenodd" d="M160.304 388.727C159.088 389.282 159.088 389.282 160.304 388.727C159.088 389.282 159.088 389.282 159.088 389.282C157.872 389.838 156.655 390.394 155.439 390.95C156.655 390.394 158.424 391.074 159.088 389.282C158.535 388.047 158.535 388.047 160.304 388.727Z" fill="#FED775"/>
<path fill-rule="evenodd" clip-rule="evenodd" d="M99.8501 309.207C98.634 309.763 98.634 309.763 99.8501 309.207C98.0815 308.527 98.0815 308.527 98.0815 308.527L97.529 307.292C97.529 307.292 98.7452 306.736 99.2976 307.971L100.514 307.416C100.514 307.416 100.514 307.416 99.9613 306.18C101.177 305.624 104.162 305.749 104.715 306.984C104.715 306.984 104.715 306.984 105.931 306.429C105.931 306.429 105.931 306.429 106.483 307.664C107.7 307.108 106.483 307.664 107.036 308.9C105.82 309.456 104.604 310.011 104.051 308.776C104.051 308.776 104.051 308.776 102.835 309.331L101.619 309.887C102.282 308.096 101.066 308.651 99.8501 309.207Z" fill="#FED775"/>
<path fill-rule="evenodd" clip-rule="evenodd" d="M96.3128 307.847L95.0967 308.403C93.328 307.723 94.5442 307.167 96.3128 307.847C94.5442 307.167 94.5442 307.167 96.3128 307.847Z" fill="#FED775"/>
<path fill-rule="evenodd" clip-rule="evenodd" d="M253.208 187.048C252.544 188.839 252.544 188.839 252.544 188.839C253.208 187.048 253.871 185.257 254.535 183.465C255.751 182.91 255.199 181.674 255.862 179.883C257.078 179.327 256.526 178.091 256.526 178.091C255.862 179.883 256.415 181.118 255.751 182.91C254.535 183.465 253.871 185.257 253.208 187.048Z" fill="#FED775"/>
<path fill-rule="evenodd" clip-rule="evenodd" d="M263.163 160.178C261.946 160.733 261.946 160.733 263.163 160.178V160.178Z" fill="#FED775"/>
<path fill-rule="evenodd" clip-rule="evenodd" d="M244.139 206.073L243.475 207.864C242.922 206.629 242.922 206.629 244.139 206.073C242.37 205.393 243.586 204.837 244.139 206.073C243.586 204.837 243.586 204.837 244.139 206.073C244.802 204.282 244.802 204.282 244.802 204.282C244.802 204.282 243.586 204.837 244.139 206.073C243.586 204.837 243.586 204.837 244.139 206.073Z" fill="#FED775"/>
<path fill-rule="evenodd" clip-rule="evenodd" d="M108.805 309.58C107.588 310.136 107.588 310.136 108.805 309.58V309.58Z" fill="#FED775"/>
<path fill-rule="evenodd" clip-rule="evenodd" d="M102.835 309.331C101.619 309.887 102.282 308.096 101.066 308.651C102.282 308.096 102.282 308.096 102.835 309.331Z" fill="#FED775"/>
<path fill-rule="evenodd" clip-rule="evenodd" d="M183.101 272.654C181.885 273.21 180.669 273.766 180.669 273.766C181.885 273.21 183.101 272.654 183.101 272.654Z" fill="#FED775"/>
<path fill-rule="evenodd" clip-rule="evenodd" d="M257.85 190.879C256.634 191.435 256.634 191.435 257.85 190.879C257.297 189.644 256.081 190.199 257.85 190.879Z" fill="#FED775"/>
<path fill-rule="evenodd" clip-rule="evenodd" d="M264.375 175.993C265.592 175.437 264.375 175.993 263.823 174.757L265.039 174.201C265.039 174.201 265.592 175.437 264.375 175.993C264.928 177.228 264.928 177.228 264.375 175.993Z" fill="#FED775"/>
<path fill-rule="evenodd" clip-rule="evenodd" d="M262.937 182.602C261.168 181.922 261.721 183.158 262.937 182.602C262.384 181.367 262.384 181.367 262.937 182.602Z" fill="#FED775"/>
<path fill-rule="evenodd" clip-rule="evenodd" d="M229.76 239.429C230.424 237.638 230.424 237.638 232.192 238.318C230.976 238.873 229.76 239.429 229.76 239.429C230.313 240.665 229.096 241.22 229.76 239.429C229.096 241.22 227.88 241.776 227.217 243.567C227.217 243.567 227.217 243.567 228.433 243.012C228.433 243.012 229.649 242.456 229.096 241.22C227.328 240.541 227.328 240.541 229.76 239.429C229.208 238.193 230.424 237.638 230.424 237.638C230.424 237.638 230.424 237.638 231.64 237.082C230.424 237.638 230.424 237.638 229.76 239.429Z" fill="#FED775"/>
</svg>
