<svg width="99" height="80" viewBox="0 0 99 80" fill="none" xmlns="http://www.w3.org/2000/svg">
<rect x="9.81665" y="8" width="89" height="72" rx="5" fill="#FBECE9"/>
<path d="M84.8773 47.9393C84.2915 47.3536 83.3418 47.3536 82.756 47.9393C82.1702 48.5251 82.1702 49.4749 82.756 50.0607L84.8773 47.9393ZM93.756 61.0607C94.3418 61.6464 95.2915 61.6464 95.8773 61.0607C96.4631 60.4749 96.4631 59.5251 95.8773 58.9393L93.756 61.0607ZM82.756 50.0607C82.7644 50.0691 82.7728 50.0774 82.7812 50.0859C82.7896 50.0943 82.798 50.1027 82.8064 50.1111C82.8149 50.1195 82.8233 50.128 82.8317 50.1364C82.8402 50.1449 82.8486 50.1533 82.8571 50.1618C82.8656 50.1702 82.874 50.1787 82.8825 50.1872C82.891 50.1957 82.8995 50.2042 82.908 50.2127C82.9165 50.2212 82.925 50.2297 82.9335 50.2382C82.942 50.2467 82.9506 50.2552 82.9591 50.2638C82.9676 50.2723 82.9762 50.2808 82.9847 50.2894C82.9933 50.2979 83.0018 50.3065 83.0104 50.3151C83.019 50.3236 83.0275 50.3322 83.0361 50.3408C83.0447 50.3494 83.0533 50.358 83.0619 50.3666C83.0705 50.3752 83.0791 50.3838 83.0877 50.3924C83.0963 50.401 83.105 50.4096 83.1136 50.4183C83.1222 50.4269 83.1309 50.4355 83.1395 50.4442C83.1482 50.4528 83.1568 50.4615 83.1655 50.4702C83.1742 50.4788 83.1828 50.4875 83.1915 50.4962C83.2002 50.5049 83.2089 50.5136 83.2176 50.5223C83.2263 50.531 83.235 50.5397 83.2437 50.5484C83.2524 50.5571 83.2612 50.5658 83.2699 50.5746C83.2786 50.5833 83.2874 50.592 83.2961 50.6008C83.3048 50.6095 83.3136 50.6183 83.3224 50.627C83.3311 50.6358 83.3399 50.6446 83.3487 50.6533C83.3574 50.6621 83.3662 50.6709 83.375 50.6797C83.3838 50.6885 83.3926 50.6973 83.4014 50.7061C83.4102 50.7149 83.419 50.7237 83.4279 50.7325C83.4367 50.7414 83.4455 50.7502 83.4544 50.759C83.4632 50.7679 83.472 50.7767 83.4809 50.7856C83.4897 50.7944 83.4986 50.8033 83.5075 50.8121C83.5163 50.821 83.5252 50.8299 83.5341 50.8387C83.543 50.8476 83.5518 50.8565 83.5607 50.8654C83.5696 50.8743 83.5785 50.8832 83.5874 50.8921C83.5964 50.901 83.6053 50.9099 83.6142 50.9189C83.6231 50.9278 83.632 50.9367 83.641 50.9457C83.6499 50.9546 83.6589 50.9635 83.6678 50.9725C83.6768 50.9814 83.6857 50.9904 83.6947 50.9994C83.7036 51.0083 83.7126 51.0173 83.7216 51.0263C83.7306 51.0352 83.7396 51.0442 83.7485 51.0532C83.7575 51.0622 83.7665 51.0712 83.7755 51.0802C83.7845 51.0892 83.7935 51.0982 83.8026 51.1072C83.8116 51.1163 83.8206 51.1253 83.8296 51.1343C83.8387 51.1433 83.8477 51.1524 83.8567 51.1614C83.8658 51.1705 83.8748 51.1795 83.8839 51.1886C83.8929 51.1976 83.902 51.2067 83.9111 51.2157C83.9201 51.2248 83.9292 51.2339 83.9383 51.243C83.9474 51.252 83.9565 51.2611 83.9655 51.2702C83.9746 51.2793 83.9837 51.2884 83.9928 51.2975C84.0019 51.3066 84.0111 51.3157 84.0202 51.3248C84.0293 51.334 84.0384 51.3431 84.0475 51.3522C84.0567 51.3613 84.0658 51.3705 84.0749 51.3796C84.0841 51.3887 84.0932 51.3979 84.1024 51.407C84.1115 51.4162 84.1207 51.4253 84.1298 51.4345C84.139 51.4437 84.1482 51.4528 84.1573 51.462C84.1665 51.4712 84.1757 51.4804 84.1849 51.4895C84.1941 51.4987 84.2033 51.5079 84.2124 51.5171C84.2216 51.5263 84.2308 51.5355 84.2401 51.5447C84.2493 51.5539 84.2585 51.5631 84.2677 51.5724C84.2769 51.5816 84.2861 51.5908 84.2954 51.6C84.3046 51.6093 84.3138 51.6185 84.3231 51.6277C84.3323 51.637 84.3415 51.6462 84.3508 51.6555C84.36 51.6647 84.3693 51.674 84.3785 51.6832C84.3878 51.6925 84.3971 51.7017 84.4063 51.711C84.4156 51.7203 84.4249 51.7295 84.4342 51.7388C84.4434 51.7481 84.4527 51.7574 84.462 51.7667C84.4713 51.776 84.4806 51.7853 84.4899 51.7946C84.4992 51.8038 84.5085 51.8132 84.5178 51.8225C84.5271 51.8318 84.5364 51.8411 84.5457 51.8504C84.555 51.8597 84.5644 51.869 84.5737 51.8784C84.583 51.8877 84.5923 51.897 84.6017 51.9063C84.611 51.9157 84.6204 51.925 84.6297 51.9344C84.639 51.9437 84.6484 51.9531 84.6577 51.9624C84.6671 51.9718 84.6764 51.9811 84.6858 51.9905C84.6952 51.9998 84.7045 52.0092 84.7139 52.0186C84.7233 52.0279 84.7327 52.0373 84.742 52.0467C84.7514 52.0561 84.7608 52.0655 84.7702 52.0748C84.7796 52.0842 84.789 52.0936 84.7983 52.103C84.8077 52.1124 84.8171 52.1218 84.8265 52.1312C84.8359 52.1406 84.8454 52.15 84.8548 52.1594C84.8642 52.1688 84.8736 52.1783 84.883 52.1877C84.8924 52.1971 84.9018 52.2065 84.9113 52.2159C84.9207 52.2254 84.9301 52.2348 84.9396 52.2442C84.949 52.2537 84.9584 52.2631 84.9679 52.2725C84.9773 52.282 84.9868 52.2914 84.9962 52.3009C85.0056 52.3103 85.0151 52.3198 85.0246 52.3292C85.034 52.3387 85.0435 52.3481 85.0529 52.3576C85.0624 52.3671 85.0719 52.3765 85.0813 52.386C85.0908 52.3955 85.1003 52.4049 85.1097 52.4144C85.1192 52.4239 85.1287 52.4334 85.1382 52.4428C85.1477 52.4523 85.1571 52.4618 85.1666 52.4713C85.1761 52.4808 85.1856 52.4903 85.1951 52.4998C85.2046 52.5093 85.2141 52.5188 85.2236 52.5283C85.2331 52.5378 85.2426 52.5473 85.2521 52.5568C85.2616 52.5663 85.2711 52.5758 85.2806 52.5853C85.2901 52.5948 85.2997 52.6043 85.3092 52.6138C85.3187 52.6234 85.3282 52.6329 85.3377 52.6424C85.3473 52.6519 85.3568 52.6614 85.3663 52.671C85.3758 52.6805 85.3854 52.69 85.3949 52.6996C85.4044 52.7091 85.414 52.7186 85.4235 52.7282C85.433 52.7377 85.4426 52.7473 85.4521 52.7568C85.4617 52.7663 85.4712 52.7759 85.4808 52.7854C85.4903 52.795 85.4999 52.8045 85.5094 52.8141C85.519 52.8237 85.5285 52.8332 85.5381 52.8428C85.5477 52.8523 85.5572 52.8619 85.5668 52.8714C85.5763 52.881 85.5859 52.8906 85.5955 52.9001C85.605 52.9097 85.6146 52.9193 85.6242 52.9288C85.6337 52.9384 85.6433 52.948 85.6529 52.9576C85.6625 52.9671 85.672 52.9767 85.6816 52.9863C85.6912 52.9959 85.7008 53.0055 85.7104 53.015C85.72 53.0246 85.7295 53.0342 85.7391 53.0438C85.7487 53.0534 85.7583 53.063 85.7679 53.0726C85.7775 53.0821 85.7871 53.0917 85.7967 53.1013C85.8063 53.1109 85.8159 53.1205 85.8254 53.1301C85.835 53.1397 85.8446 53.1493 85.8542 53.1589C85.8638 53.1685 85.8734 53.1781 85.883 53.1877C85.8926 53.1973 85.9023 53.2069 85.9119 53.2165C85.9215 53.2261 85.9311 53.2357 85.9407 53.2453C85.9503 53.255 85.9599 53.2646 85.9695 53.2742C85.9791 53.2838 85.9887 53.2934 85.9983 53.303C86.008 53.3126 86.0176 53.3222 86.0272 53.3319C86.0368 53.3415 86.0464 53.3511 86.056 53.3607C86.0656 53.3703 86.0753 53.3799 86.0849 53.3896C86.0945 53.3992 86.1041 53.4088 86.1137 53.4184C86.1234 53.428 86.133 53.4377 86.1426 53.4473C86.1522 53.4569 86.1619 53.4665 86.1715 53.4762C86.1811 53.4858 86.1907 53.4954 86.2004 53.505C86.21 53.5147 86.2196 53.5243 86.2292 53.5339C86.2389 53.5435 86.2485 53.5532 86.2581 53.5628C86.2678 53.5724 86.2774 53.5821 86.287 53.5917C86.2966 53.6013 86.3063 53.6109 86.3159 53.6206C86.3255 53.6302 86.3352 53.6398 86.3448 53.6495C86.3544 53.6591 86.3641 53.6687 86.3737 53.6784C86.3833 53.688 86.393 53.6976 86.4026 53.7073C86.4122 53.7169 86.4219 53.7265 86.4315 53.7362C86.4411 53.7458 86.4508 53.7554 86.4604 53.7651C86.47 53.7747 86.4797 53.7843 86.4893 53.794C86.4989 53.8036 86.5086 53.8132 86.5182 53.8229C86.5278 53.8325 86.5375 53.8421 86.5471 53.8518C86.5567 53.8614 86.5664 53.871 86.576 53.8807C86.5856 53.8903 86.5953 53.8999 86.6049 53.9096C86.6145 53.9192 86.6242 53.9288 86.6338 53.9385C86.6434 53.9481 86.6531 53.9577 86.6627 53.9674C86.6723 53.977 86.6819 53.9866 86.6916 53.9962C86.7012 54.0059 86.7108 54.0155 86.7205 54.0251C86.7301 54.0348 86.7397 54.0444 86.7494 54.054C86.759 54.0636 86.7686 54.0733 86.7782 54.0829C86.7879 54.0925 86.7975 54.1022 86.8071 54.1118C86.8167 54.1214 86.8264 54.131 86.836 54.1407C86.8456 54.1503 86.8552 54.1599 86.8649 54.1695C86.8745 54.1792 86.8841 54.1888 86.8937 54.1984C86.9033 54.208 86.913 54.2176 86.9226 54.2273C86.9322 54.2369 86.9418 54.2465 86.9514 54.2561C86.9611 54.2657 86.9707 54.2753 86.9803 54.285C86.9899 54.2946 86.9995 54.3042 87.0091 54.3138C87.0187 54.3234 87.0283 54.333 87.038 54.3426C87.0476 54.3522 87.0572 54.3618 87.0668 54.3715C87.0764 54.3811 87.086 54.3907 87.0956 54.4003C87.1052 54.4099 87.1148 54.4195 87.1244 54.4291C87.134 54.4387 87.1436 54.4483 87.1532 54.4579C87.1628 54.4675 87.1724 54.4771 87.182 54.4867C87.1916 54.4963 87.2012 54.5059 87.2108 54.5154C87.2204 54.525 87.23 54.5346 87.2396 54.5442C87.2491 54.5538 87.2587 54.5634 87.2683 54.573C87.2779 54.5826 87.2875 54.5921 87.2971 54.6017C87.3066 54.6113 87.3162 54.6209 87.3258 54.6305C87.3354 54.64 87.345 54.6496 87.3545 54.6592C87.3641 54.6688 87.3737 54.6783 87.3832 54.6879C87.3928 54.6975 87.4024 54.707 87.4119 54.7166C87.4215 54.7262 87.4311 54.7357 87.4406 54.7453C87.4502 54.7549 87.4598 54.7644 87.4693 54.774C87.4789 54.7835 87.4884 54.7931 87.498 54.8026C87.5075 54.8122 87.5171 54.8217 87.5266 54.8313C87.5362 54.8408 87.5457 54.8504 87.5553 54.8599C87.5648 54.8695 87.5743 54.879 87.5839 54.8885C87.5934 54.8981 87.6029 54.9076 87.6125 54.9171C87.622 54.9267 87.6315 54.9362 87.6411 54.9457C87.6506 54.9553 87.6601 54.9648 87.6696 54.9743C87.6792 54.9838 87.6887 54.9933 87.6982 55.0029C87.7077 55.0124 87.7172 55.0219 87.7267 55.0314C87.7362 55.0409 87.7457 55.0504 87.7552 55.0599C87.7648 55.0694 87.7743 55.0789 87.7838 55.0884C87.7932 55.0979 87.8027 55.1074 87.8122 55.1169C87.8217 55.1264 87.8312 55.1359 87.8407 55.1454C87.8502 55.1549 87.8597 55.1643 87.8691 55.1738C87.8786 55.1833 87.8881 55.1928 87.8976 55.2022C87.907 55.2117 87.9165 55.2212 87.926 55.2307C87.9354 55.2401 87.9449 55.2496 87.9544 55.259C87.9638 55.2685 87.9733 55.278 87.9827 55.2874C87.9922 55.2969 88.0016 55.3063 88.0111 55.3158C88.0205 55.3252 88.03 55.3346 88.0394 55.3441C88.0488 55.3535 88.0583 55.3629 88.0677 55.3724C88.0771 55.3818 88.0866 55.3912 88.096 55.4007C88.1054 55.4101 88.1148 55.4195 88.1242 55.4289C88.1337 55.4383 88.1431 55.4477 88.1525 55.4572C88.1619 55.4666 88.1713 55.476 88.1807 55.4854C88.1901 55.4948 88.1995 55.5042 88.2089 55.5135C88.2183 55.5229 88.2277 55.5323 88.237 55.5417C88.2464 55.5511 88.2558 55.5605 88.2652 55.5698C88.2746 55.5792 88.2839 55.5886 88.2933 55.598C88.3027 55.6073 88.312 55.6167 88.3214 55.626C88.3307 55.6354 88.3401 55.6448 88.3494 55.6541C88.3588 55.6635 88.3681 55.6728 88.3775 55.6821C88.3868 55.6915 88.3962 55.7008 88.4055 55.7102C88.4148 55.7195 88.4241 55.7288 88.4335 55.7381C88.4428 55.7475 88.4521 55.7568 88.4614 55.7661C88.4707 55.7754 88.48 55.7847 88.4893 55.794C88.4986 55.8033 88.5079 55.8126 88.5172 55.8219C88.5265 55.8312 88.5358 55.8405 88.5451 55.8498C88.5544 55.8591 88.5637 55.8683 88.5729 55.8776C88.5822 55.8869 88.5915 55.8962 88.6008 55.9054C88.61 55.9147 88.6193 55.924 88.6285 55.9332C88.6378 55.9425 88.647 55.9517 88.6563 55.961C88.6655 55.9702 88.6748 55.9794 88.684 55.9887C88.6932 55.9979 88.7025 56.0071 88.7117 56.0164C88.7209 56.0256 88.7301 56.0348 88.7393 56.044C88.7486 56.0532 88.7578 56.0624 88.767 56.0716C88.7762 56.0808 88.7854 56.09 88.7946 56.0992C88.8038 56.1084 88.8129 56.1176 88.8221 56.1268C88.8313 56.136 88.8405 56.1451 88.8496 56.1543C88.8588 56.1635 88.868 56.1726 88.8771 56.1818C88.8863 56.191 88.8954 56.2001 88.9046 56.2093C88.9137 56.2184 88.9229 56.2276 88.932 56.2367C88.9411 56.2458 88.9503 56.2549 88.9594 56.2641C88.9685 56.2732 88.9776 56.2823 88.9868 56.2914C88.9959 56.3005 89.005 56.3096 89.0141 56.3187C89.0232 56.3278 89.0323 56.3369 89.0414 56.346C89.0504 56.3551 89.0595 56.3642 89.0686 56.3733C89.0777 56.3823 89.0867 56.3914 89.0958 56.4005C89.1049 56.4095 89.1139 56.4186 89.123 56.4276C89.132 56.4367 89.1411 56.4457 89.1501 56.4548C89.1591 56.4638 89.1682 56.4728 89.1772 56.4819C89.1862 56.4909 89.1952 56.4999 89.2043 56.5089C89.2133 56.5179 89.2223 56.5269 89.2313 56.5359C89.2403 56.5449 89.2493 56.5539 89.2582 56.5629C89.2672 56.5719 89.2762 56.5809 89.2852 56.5899C89.2942 56.5988 89.3031 56.6078 89.3121 56.6167C89.321 56.6257 89.33 56.6347 89.3389 56.6436C89.3479 56.6526 89.3568 56.6615 89.3658 56.6704C89.3747 56.6794 89.3836 56.6883 89.3925 56.6972C89.4014 56.7061 89.4104 56.715 89.4193 56.7239C89.4282 56.7328 89.4371 56.7417 89.4459 56.7506C89.4548 56.7595 89.4637 56.7684 89.4726 56.7773C89.4815 56.7861 89.4903 56.795 89.4992 56.8039C89.5081 56.8127 89.5169 56.8216 89.5258 56.8304C89.5346 56.8393 89.5434 56.8481 89.5523 56.8569C89.5611 56.8658 89.5699 56.8746 89.5787 56.8834C89.5876 56.8922 89.5964 56.901 89.6052 56.9098C89.614 56.9186 89.6228 56.9274 89.6316 56.9362C89.6403 56.945 89.6491 56.9538 89.6579 56.9626C89.6667 56.9713 89.6754 56.9801 89.6842 56.9889C89.6929 56.9976 89.7017 57.0064 89.7104 57.0151C89.7192 57.0238 89.7279 57.0326 89.7366 57.0413C89.7454 57.05 89.7541 57.0587 89.7628 57.0674C89.7715 57.0762 89.7802 57.0849 89.7889 57.0936C89.7976 57.1022 89.8063 57.1109 89.8149 57.1196C89.8236 57.1283 89.8323 57.137 89.8409 57.1456C89.8496 57.1543 89.8583 57.1629 89.8669 57.1716C89.8755 57.1802 89.8842 57.1889 89.8928 57.1975C89.9014 57.2061 89.9101 57.2147 89.9187 57.2233C89.9273 57.232 89.9359 57.2406 89.9445 57.2492C89.9531 57.2577 89.9617 57.2663 89.9702 57.2749C89.9788 57.2835 89.9874 57.2921 89.9959 57.3006C90.0045 57.3092 90.0131 57.3177 90.0216 57.3263C90.0302 57.3348 90.0387 57.3434 90.0472 57.3519C90.0557 57.3604 90.0643 57.3689 90.0728 57.3774C90.0813 57.3859 90.0898 57.3944 90.0983 57.4029C90.1068 57.4114 90.1152 57.4199 90.1237 57.4284C90.1322 57.4369 90.1407 57.4453 90.1491 57.4538C90.1576 57.4622 90.166 57.4707 90.1745 57.4791C90.1829 57.4876 90.1913 57.496 90.1997 57.5044C90.2082 57.5128 90.2166 57.5212 90.225 57.5296C90.2334 57.538 90.2418 57.5464 90.2502 57.5548C90.2585 57.5632 90.2669 57.5716 90.2753 57.5799C90.2836 57.5883 90.292 57.5967 90.3003 57.605C90.3087 57.6134 90.317 57.6217 90.3254 57.63C90.3337 57.6384 90.342 57.6467 90.3503 57.655C90.3586 57.6633 90.3669 57.6716 90.3752 57.6799C90.3835 57.6882 90.3918 57.6964 90.4 57.7047C90.4083 57.713 90.4166 57.7212 90.4248 57.7295C90.4331 57.7378 90.4413 57.746 90.4496 57.7542C90.4578 57.7625 90.466 57.7707 90.4742 57.7789C90.4824 57.7871 90.4906 57.7953 90.4988 57.8035C90.507 57.8117 90.5152 57.8199 90.5234 57.828C90.5315 57.8362 90.5397 57.8444 90.5479 57.8525C90.556 57.8607 90.5642 57.8688 90.5723 57.877C90.5804 57.8851 90.5885 57.8932 90.5967 57.9013C90.6048 57.9094 90.6129 57.9175 90.621 57.9256C90.6291 57.9337 90.6371 57.9418 90.6452 57.9499C90.6533 57.958 90.6613 57.966 90.6694 57.9741C90.6774 57.9821 90.6855 57.9902 90.6935 57.9982C90.7015 58.0062 90.7096 58.0142 90.7176 58.0222C90.7256 58.0303 90.7336 58.0382 90.7416 58.0462C90.7496 58.0542 90.7575 58.0622 90.7655 58.0702C90.7735 58.0781 90.7814 58.0861 90.7894 58.094C90.7973 58.102 90.8052 58.1099 90.8132 58.1178C90.8211 58.1258 90.829 58.1337 90.8369 58.1416C90.8448 58.1495 90.8527 58.1574 90.8606 58.1653C90.8685 58.1731 90.8763 58.181 90.8842 58.1889C90.8921 58.1967 90.8999 58.2046 90.9077 58.2124C90.9156 58.2202 90.9234 58.2281 90.9312 58.2359C90.939 58.2437 90.9468 58.2515 90.9546 58.2593C90.9624 58.2671 90.9702 58.2749 90.978 58.2826C90.9857 58.2904 90.9935 58.2982 91.0012 58.3059C91.009 58.3137 91.0167 58.3214 91.0245 58.3291C91.0322 58.3368 91.0399 58.3446 91.0476 58.3523C91.0553 58.36 91.063 58.3677 91.0707 58.3753C91.0783 58.383 91.086 58.3907 91.0937 58.3983C91.1013 58.406 91.109 58.4136 91.1166 58.4213C91.1242 58.4289 91.1318 58.4365 91.1395 58.4441C91.1471 58.4517 91.1547 58.4593 91.1622 58.4669C91.1698 58.4745 91.1774 58.4821 91.185 58.4896C91.1925 58.4972 91.2001 58.5047 91.2076 58.5123C91.2152 58.5198 91.2227 58.5274 91.2302 58.5349C91.2377 58.5424 91.2452 58.5499 91.2527 58.5574C91.2602 58.5649 91.2677 58.5723 91.2751 58.5798C91.2826 58.5873 91.2901 58.5947 91.2975 58.6022C91.3049 58.6096 91.3124 58.617 91.3198 58.6245C91.3272 58.6319 91.3346 58.6393 91.342 58.6467C91.3494 58.6541 91.3568 58.6614 91.3641 58.6688C91.3715 58.6762 91.3789 58.6835 91.3862 58.6909C91.3935 58.6982 91.4009 58.7055 91.4082 58.7129C91.4155 58.7202 91.4228 58.7275 91.4301 58.7348C91.4374 58.7421 91.4447 58.7494 91.452 58.7566C91.4592 58.7639 91.4665 58.7711 91.4737 58.7784C91.481 58.7856 91.4882 58.7929 91.4954 58.8001C91.5026 58.8073 91.5098 58.8145 91.517 58.8217C91.5242 58.8289 91.5314 58.8361 91.5385 58.8432C91.5457 58.8504 91.5529 58.8575 91.56 58.8647C91.5671 58.8718 91.5743 58.8789 91.5814 58.886C91.5885 58.8932 91.5956 58.9003 91.6027 58.9073C91.6098 58.9144 91.6168 58.9215 91.6239 58.9286C91.631 58.9356 91.638 58.9427 91.645 58.9497C91.6521 58.9567 91.6591 58.9638 91.6661 58.9708C91.6731 58.9778 91.6801 58.9848 91.6871 58.9918C91.6941 58.9987 91.701 59.0057 91.708 59.0127C91.7149 59.0196 91.7219 59.0265 91.7288 59.0335C91.7357 59.0404 91.7426 59.0473 91.7495 59.0542C91.7564 59.0611 91.7633 59.068 91.7702 59.0749C91.7771 59.0817 91.7839 59.0886 91.7908 59.0954C91.7976 59.1023 91.8044 59.1091 91.8113 59.1159C91.8181 59.1227 91.8249 59.1296 91.8317 59.1363C91.8385 59.1431 91.8452 59.1499 91.852 59.1567C91.8588 59.1634 91.8655 59.1702 91.8722 59.1769C91.879 59.1836 91.8857 59.1904 91.8924 59.1971C91.8991 59.2038 91.9058 59.2105 91.9125 59.2171C91.9191 59.2238 91.9258 59.2305 91.9325 59.2371C91.9391 59.2438 91.9457 59.2504 91.9524 59.257C91.959 59.2636 91.9656 59.2703 91.9722 59.2768C91.9788 59.2834 91.9853 59.29 91.9919 59.2966C91.9985 59.3031 92.005 59.3097 92.0115 59.3162C92.0181 59.3228 92.0246 59.3293 92.0311 59.3358C92.0376 59.3423 92.0441 59.3488 92.0506 59.3552C92.0571 59.3617 92.0635 59.3682 92.07 59.3746C92.0764 59.3811 92.0828 59.3875 92.0892 59.3939C92.0957 59.4003 92.1021 59.4067 92.1085 59.4131C92.1148 59.4195 92.1212 59.4259 92.1276 59.4322C92.1339 59.4386 92.1403 59.4449 92.1466 59.4513C92.1529 59.4576 92.1592 59.4639 92.1655 59.4702C92.1718 59.4765 92.1781 59.4828 92.1844 59.489C92.1906 59.4953 92.1969 59.5016 92.2031 59.5078C92.2094 59.514 92.2156 59.5203 92.2218 59.5265C92.228 59.5327 92.2342 59.5389 92.2404 59.545C92.2465 59.5512 92.2527 59.5574 92.2588 59.5635C92.265 59.5697 92.2711 59.5758 92.2772 59.5819C92.2833 59.588 92.2894 59.5941 92.2955 59.6002C92.3016 59.6063 92.3077 59.6124 92.3137 59.6184C92.3198 59.6245 92.3258 59.6305 92.3318 59.6365C92.3379 59.6425 92.3439 59.6485 92.3499 59.6545C92.3558 59.6605 92.3618 59.6665 92.3678 59.6724C92.3737 59.6784 92.3797 59.6843 92.3856 59.6903C92.3915 59.6962 92.3974 59.7021 92.4033 59.708C92.4092 59.7139 92.4151 59.7198 92.421 59.7256C92.4268 59.7315 92.4327 59.7373 92.4385 59.7432C92.4443 59.749 92.4502 59.7548 92.4559 59.7606C92.4617 59.7664 92.4675 59.7722 92.4733 59.778C92.4791 59.7837 92.4848 59.7895 92.4905 59.7952C92.4963 59.8009 92.502 59.8067 92.5077 59.8124C92.5134 59.8181 92.5191 59.8237 92.5247 59.8294C92.5304 59.8351 92.5361 59.8407 92.5417 59.8464C92.5473 59.852 92.553 59.8576 92.5586 59.8632C92.5642 59.8688 92.5697 59.8744 92.5753 59.88C92.5809 59.8855 92.5864 59.8911 92.592 59.8966C92.5975 59.9022 92.603 59.9077 92.6085 59.9132C92.614 59.9187 92.6195 59.9242 92.625 59.9296C92.6304 59.9351 92.6359 59.9406 92.6413 59.946C92.6468 59.9514 92.6522 59.9569 92.6576 59.9623C92.663 59.9677 92.6684 59.973 92.6737 59.9784C92.6791 59.9838 92.6845 59.9891 92.6898 59.9945C92.6951 59.9998 92.7004 60.0051 92.7057 60.0104C92.711 60.0157 92.7163 60.021 92.7216 60.0262C92.7268 60.0315 92.7321 60.0368 92.7373 60.042C92.7425 60.0472 92.7478 60.0524 92.753 60.0576C92.7582 60.0628 92.7633 60.068 92.7685 60.0732C92.7736 60.0783 92.7788 60.0835 92.7839 60.0886C92.789 60.0937 92.7942 60.0988 92.7992 60.1039C92.8043 60.109 92.8094 60.1141 92.8145 60.1191C92.8195 60.1242 92.8246 60.1292 92.8296 60.1342C92.8346 60.1393 92.8396 60.1443 92.8446 60.1492C92.8496 60.1542 92.8545 60.1592 92.8595 60.1641C92.8644 60.1691 92.8694 60.174 92.8743 60.1789C92.8792 60.1839 92.8841 60.1887 92.889 60.1936C92.8938 60.1985 92.8987 60.2034 92.9035 60.2082C92.9084 60.213 92.9132 60.2179 92.918 60.2227C92.9228 60.2275 92.9276 60.2323 92.9324 60.237C92.9371 60.2418 92.9419 60.2465 92.9466 60.2513C92.9513 60.256 92.9561 60.2607 92.9608 60.2654C92.9654 60.2701 92.9701 60.2748 92.9748 60.2795C92.9794 60.2841 92.9841 60.2888 92.9887 60.2934C92.9933 60.298 92.9979 60.3026 93.0025 60.3072C93.0071 60.3118 93.0117 60.3163 93.0162 60.3209C93.0208 60.3254 93.0253 60.33 93.0298 60.3345C93.0343 60.339 93.0388 60.3435 93.0433 60.348C93.0478 60.3524 93.0522 60.3569 93.0566 60.3613C93.0611 60.3658 93.0655 60.3702 93.0699 60.3746C93.0743 60.379 93.0787 60.3833 93.083 60.3877C93.0874 60.3921 93.0917 60.3964 93.0961 60.4007C93.1004 60.4051 93.1047 60.4094 93.109 60.4136C93.1133 60.4179 93.1175 60.4222 93.1218 60.4264C93.126 60.4307 93.1302 60.4349 93.1344 60.4391C93.1387 60.4433 93.1428 60.4475 93.147 60.4517C93.1512 60.4559 93.1553 60.46 93.1595 60.4641C93.1636 60.4683 93.1677 60.4724 93.1718 60.4765C93.1759 60.4806 93.18 60.4846 93.184 60.4887C93.1881 60.4927 93.1921 60.4968 93.1961 60.5008C93.2001 60.5048 93.2041 60.5088 93.2081 60.5128C93.2121 60.5168 93.216 60.5207 93.22 60.5246C93.2239 60.5286 93.2278 60.5325 93.2317 60.5364C93.2356 60.5403 93.2395 60.5442 93.2434 60.548C93.2472 60.5519 93.2511 60.5557 93.2549 60.5595C93.2587 60.5634 93.2625 60.5672 93.2663 60.5709C93.27 60.5747 93.2738 60.5785 93.2775 60.5822C93.2813 60.5859 93.285 60.5897 93.2887 60.5934C93.2924 60.5971 93.2961 60.6007 93.2997 60.6044C93.3034 60.608 93.307 60.6117 93.3106 60.6153C93.3142 60.6189 93.3178 60.6225 93.3214 60.6261C93.325 60.6297 93.3286 60.6332 93.3321 60.6368C93.3356 60.6403 93.3391 60.6438 93.3426 60.6473C93.3461 60.6508 93.3496 60.6543 93.3531 60.6577C93.3565 60.6612 93.3599 60.6646 93.3634 60.668C93.3668 60.6714 93.3702 60.6748 93.3735 60.6782C93.3769 60.6816 93.3803 60.6849 93.3836 60.6883C93.3869 60.6916 93.3902 60.6949 93.3935 60.6982C93.3968 60.7015 93.4001 60.7048 93.4033 60.708C93.4066 60.7112 93.4098 60.7145 93.413 60.7177C93.4162 60.7209 93.4194 60.7241 93.4226 60.7272C93.4257 60.7304 93.4289 60.7335 93.432 60.7367C93.4351 60.7398 93.4382 60.7429 93.4413 60.746C93.4444 60.7491 93.4474 60.7521 93.4505 60.7551C93.4535 60.7582 93.4565 60.7612 93.4595 60.7642C93.4625 60.7672 93.4655 60.7702 93.4684 60.7731C93.4714 60.7761 93.4743 60.779 93.4772 60.7819C93.4802 60.7848 93.483 60.7877 93.4859 60.7906C93.4888 60.7934 93.4916 60.7963 93.4944 60.7991C93.4973 60.8019 93.5001 60.8047 93.5029 60.8075C93.5056 60.8103 93.5084 60.8131 93.5111 60.8158C93.5139 60.8185 93.5166 60.8213 93.5193 60.824C93.522 60.8267 93.5247 60.8293 93.5273 60.832C93.53 60.8346 93.5326 60.8373 93.5352 60.8399C93.5378 60.8425 93.5404 60.8451 93.543 60.8476C93.5455 60.8502 93.5481 60.8527 93.5506 60.8553C93.5531 60.8578 93.5556 60.8603 93.5581 60.8627C93.5606 60.8652 93.563 60.8677 93.5654 60.8701C93.5679 60.8725 93.5703 60.8749 93.5727 60.8773C93.5751 60.8797 93.5774 60.8821 93.5798 60.8844C93.5821 60.8868 93.5844 60.8891 93.5867 60.8914C93.589 60.8937 93.5913 60.896 93.5936 60.8982C93.5958 60.9005 93.598 60.9027 93.6003 60.9049C93.6025 60.9071 93.6046 60.9093 93.6068 60.9115C93.609 60.9136 93.6111 60.9158 93.6132 60.9179C93.6154 60.92 93.6175 60.9221 93.6195 60.9242C93.6216 60.9263 93.6237 60.9283 93.6257 60.9303C93.6277 60.9324 93.6297 60.9344 93.6317 60.9364C93.6337 60.9383 93.6356 60.9403 93.6376 60.9422C93.6395 60.9442 93.6414 60.9461 93.6433 60.948C93.6452 60.9499 93.6471 60.9518 93.6489 60.9536C93.6508 60.9554 93.6526 60.9573 93.6544 60.9591C93.6562 60.9609 93.658 60.9626 93.6597 60.9644C93.6615 60.9661 93.6632 60.9679 93.6649 60.9696C93.6666 60.9713 93.6683 60.973 93.67 60.9746C93.6716 60.9763 93.6733 60.9779 93.6749 60.9795C93.6765 60.9812 93.6781 60.9828 93.6796 60.9843C93.6812 60.9859 93.6828 60.9874 93.6843 60.989C93.6858 60.9905 93.6873 60.992 93.6888 60.9934C93.6902 60.9949 93.6917 60.9964 93.6931 60.9978C93.6945 60.9992 93.6959 61.0006 93.6973 61.002C93.6987 61.0034 93.7001 61.0047 93.7014 61.0061C93.7027 61.0074 93.704 61.0087 93.7053 61.01C93.7066 61.0113 93.7079 61.0125 93.7091 61.0138C93.7103 61.015 93.7115 61.0162 93.7127 61.0174C93.7139 61.0186 93.7151 61.0198 93.7162 61.0209C93.7174 61.022 93.7185 61.0232 93.7196 61.0242C93.7207 61.0253 93.7217 61.0264 93.7228 61.0275C93.7238 61.0285 93.7248 61.0295 93.7258 61.0305C93.7268 61.0315 93.7278 61.0325 93.7288 61.0334C93.7297 61.0344 93.7306 61.0353 93.7315 61.0362C93.7324 61.0371 93.7333 61.038 93.7341 61.0388C93.735 61.0397 93.7358 61.0405 93.7366 61.0413C93.7374 61.0421 93.7382 61.0429 93.739 61.0436C93.7397 61.0444 93.7404 61.0451 93.7411 61.0458C93.7418 61.0465 93.7425 61.0472 93.7432 61.0478C93.7438 61.0485 93.7445 61.0491 93.7451 61.0497C93.7457 61.0503 93.7462 61.0509 93.7468 61.0515C93.7474 61.052 93.7479 61.0526 93.7484 61.0531C93.7489 61.0536 93.7494 61.054 93.7498 61.0545C93.7503 61.0549 93.7507 61.0554 93.7511 61.0558C93.7515 61.0562 93.7519 61.0566 93.7523 61.0569C93.7526 61.0573 93.7529 61.0576 93.7532 61.0579C93.7535 61.0582 93.7538 61.0585 93.7541 61.0588C93.7543 61.059 93.7546 61.0592 93.7548 61.0594C93.755 61.0596 93.7551 61.0598 93.7553 61.06C93.7555 61.0601 93.7556 61.0603 93.7557 61.0604C93.7558 61.0605 93.7559 61.0605 93.7559 61.0606C93.756 61.0606 93.756 61.0607 94.8167 60C95.8773 58.9393 95.8773 58.9393 95.8772 58.9393C95.8772 58.9392 95.8771 58.9391 95.877 58.939C95.8769 58.9389 95.8768 58.9388 95.8766 58.9387C95.8765 58.9385 95.8763 58.9383 95.8761 58.9381C95.8759 58.9379 95.8757 58.9377 95.8754 58.9374C95.8751 58.9372 95.8749 58.9369 95.8746 58.9366C95.8743 58.9363 95.8739 58.936 95.8736 58.9356C95.8732 58.9352 95.8728 58.9349 95.8724 58.9345C95.872 58.9341 95.8716 58.9336 95.8711 58.9332C95.8707 58.9327 95.8702 58.9322 95.8697 58.9317C95.8692 58.9312 95.8687 58.9307 95.8681 58.9301C95.8676 58.9296 95.867 58.929 95.8664 58.9284C95.8658 58.9278 95.8651 58.9272 95.8645 58.9265C95.8638 58.9259 95.8632 58.9252 95.8625 58.9245C95.8618 58.9238 95.861 58.9231 95.8603 58.9223C95.8595 58.9216 95.8587 58.9208 95.8579 58.92C95.8571 58.9192 95.8563 58.9184 95.8555 58.9175C95.8546 58.9166 95.8537 58.9158 95.8528 58.9149C95.8519 58.914 95.851 58.9131 95.8501 58.9121C95.8491 58.9112 95.8482 58.9102 95.8472 58.9092C95.8462 58.9082 95.8451 58.9072 95.8441 58.9061C95.8431 58.9051 95.842 58.904 95.8409 58.9029C95.8398 58.9018 95.8387 58.9007 95.8375 58.8996C95.8364 58.8984 95.8352 58.8973 95.8341 58.8961C95.8329 58.8949 95.8317 58.8937 95.8304 58.8924C95.8292 58.8912 95.8279 58.89 95.8266 58.8887C95.8254 58.8874 95.824 58.8861 95.8227 58.8847C95.8214 58.8834 95.82 58.8821 95.8186 58.8807C95.8173 58.8793 95.8159 58.8779 95.8144 58.8765C95.813 58.875 95.8116 58.8736 95.8101 58.8721C95.8086 58.8706 95.8071 58.8692 95.8056 58.8676C95.8041 58.8661 95.8025 58.8646 95.801 58.863C95.7994 58.8614 95.7978 58.8598 95.7962 58.8582C95.7946 58.8566 95.7929 58.855 95.7913 58.8533C95.7896 58.8517 95.7879 58.85 95.7862 58.8483C95.7845 58.8466 95.7828 58.8448 95.781 58.8431C95.7793 58.8413 95.7775 58.8395 95.7757 58.8377C95.7739 58.8359 95.7721 58.8341 95.7702 58.8323C95.7684 58.8304 95.7665 58.8286 95.7646 58.8267C95.7627 58.8248 95.7608 58.8229 95.7589 58.8209C95.757 58.819 95.755 58.817 95.753 58.815C95.751 58.8131 95.749 58.8111 95.747 58.809C95.745 58.807 95.7429 58.8049 95.7408 58.8029C95.7388 58.8008 95.7367 58.7987 95.7346 58.7966C95.7324 58.7945 95.7303 58.7923 95.7281 58.7902C95.726 58.788 95.7238 58.7858 95.7216 58.7836C95.7194 58.7814 95.7171 58.7792 95.7149 58.7769C95.7126 58.7747 95.7103 58.7724 95.708 58.7701C95.7057 58.7678 95.7034 58.7655 95.7011 58.7631C95.6987 58.7608 95.6964 58.7584 95.694 58.756C95.6916 58.7536 95.6892 58.7512 95.6868 58.7488C95.6843 58.7464 95.6819 58.7439 95.6794 58.7414C95.6769 58.7389 95.6744 58.7365 95.6719 58.7339C95.6694 58.7314 95.6668 58.7289 95.6643 58.7263C95.6617 58.7237 95.6591 58.7212 95.6565 58.7185C95.6539 58.7159 95.6513 58.7133 95.6486 58.7107C95.646 58.708 95.6433 58.7053 95.6406 58.7026C95.6379 58.6999 95.6352 58.6972 95.6325 58.6945C95.6297 58.6917 95.627 58.689 95.6242 58.6862C95.6214 58.6834 95.6186 58.6806 95.6158 58.6778C95.6129 58.675 95.6101 58.6721 95.6072 58.6693C95.6044 58.6664 95.6015 58.6635 95.5986 58.6606C95.5957 58.6577 95.5927 58.6548 95.5898 58.6518C95.5868 58.6488 95.5838 58.6459 95.5808 58.6429C95.5779 58.6399 95.5748 58.6369 95.5718 58.6338C95.5688 58.6308 95.5657 58.6277 95.5626 58.6247C95.5595 58.6216 95.5564 58.6185 95.5533 58.6153C95.5502 58.6122 95.5471 58.6091 95.5439 58.6059C95.5407 58.6028 95.5375 58.5996 95.5343 58.5964C95.5311 58.5932 95.5279 58.5899 95.5247 58.5867C95.5214 58.5834 95.5181 58.5802 95.5148 58.5769C95.5116 58.5736 95.5082 58.5703 95.5049 58.5669C95.5016 58.5636 95.4982 58.5603 95.4949 58.5569C95.4915 58.5535 95.4881 58.5501 95.4847 58.5467C95.4813 58.5433 95.4778 58.5399 95.4744 58.5364C95.4709 58.533 95.4675 58.5295 95.464 58.526C95.4605 58.5225 95.4569 58.519 95.4534 58.5154C95.4499 58.5119 95.4463 58.5083 95.4427 58.5048C95.4392 58.5012 95.4356 58.4976 95.432 58.494C95.4283 58.4904 95.4247 58.4867 95.421 58.4831C95.4174 58.4794 95.4137 58.4757 95.41 58.472C95.4063 58.4683 95.4026 58.4646 95.3989 58.4609C95.3951 58.4571 95.3914 58.4534 95.3876 58.4496C95.3838 58.4458 95.38 58.442 95.3762 58.4382C95.3724 58.4344 95.3685 58.4306 95.3647 58.4267C95.3608 58.4228 95.3569 58.419 95.353 58.4151C95.3491 58.4112 95.3452 58.4073 95.3413 58.4033C95.3374 58.3994 95.3334 58.3954 95.3294 58.3915C95.3255 58.3875 95.3215 58.3835 95.3174 58.3795C95.3134 58.3755 95.3094 58.3714 95.3053 58.3674C95.3013 58.3633 95.2972 58.3592 95.2931 58.3552C95.289 58.3511 95.2849 58.3469 95.2808 58.3428C95.2767 58.3387 95.2725 58.3345 95.2683 58.3304C95.2642 58.3262 95.26 58.322 95.2558 58.3178C95.2516 58.3136 95.2473 58.3094 95.2431 58.3051C95.2388 58.3009 95.2346 58.2966 95.2303 58.2923C95.226 58.288 95.2217 58.2837 95.2174 58.2794C95.2131 58.2751 95.2087 58.2707 95.2044 58.2664C95.2 58.262 95.1956 58.2576 95.1912 58.2532C95.1868 58.2488 95.1824 58.2444 95.178 58.24C95.1735 58.2356 95.1691 58.2311 95.1646 58.2266C95.1601 58.2222 95.1556 58.2177 95.1511 58.2132C95.1466 58.2086 95.1421 58.2041 95.1375 58.1996C95.133 58.195 95.1284 58.1905 95.1238 58.1859C95.1193 58.1813 95.1146 58.1767 95.11 58.1721C95.1054 58.1674 95.1008 58.1628 95.0961 58.1581C95.0914 58.1535 95.0868 58.1488 95.0821 58.1441C95.0774 58.1394 95.0727 58.1347 95.0679 58.13C95.0632 58.1252 95.0584 58.1205 95.0537 58.1157C95.0489 58.1109 95.0441 58.1062 95.0393 58.1013C95.0345 58.0965 95.0297 58.0917 95.0249 58.0869C95.02 58.082 95.0152 58.0772 95.0103 58.0723C95.0054 58.0674 95.0005 58.0625 94.9956 58.0576C94.9907 58.0527 94.9857 58.0478 94.9808 58.0428C94.9758 58.0379 94.9709 58.0329 94.9659 58.0279C94.9609 58.0229 94.9559 58.0179 94.9509 58.0129C94.9459 58.0079 94.9408 58.0029 94.9358 57.9978C94.9307 57.9928 94.9257 57.9877 94.9206 57.9826C94.9155 57.9775 94.9104 57.9724 94.9052 57.9673C94.9001 57.9621 94.895 57.957 94.8898 57.9518C94.8846 57.9467 94.8795 57.9415 94.8743 57.9363C94.8691 57.9311 94.8639 57.9259 94.8586 57.9207C94.8534 57.9154 94.8482 57.9102 94.8429 57.9049C94.8376 57.8997 94.8324 57.8944 94.8271 57.8891C94.8218 57.8838 94.8164 57.8785 94.8111 57.8731C94.8058 57.8678 94.8004 57.8625 94.7951 57.8571C94.7897 57.8517 94.7843 57.8463 94.7789 57.8409C94.7735 57.8355 94.7681 57.8301 94.7627 57.8247C94.7572 57.8192 94.7518 57.8138 94.7463 57.8083C94.7408 57.8029 94.7353 57.7974 94.7298 57.7919C94.7243 57.7864 94.7188 57.7809 94.7133 57.7753C94.7078 57.7698 94.7022 57.7642 94.6966 57.7587C94.6911 57.7531 94.6855 57.7475 94.6799 57.7419C94.6743 57.7363 94.6687 57.7307 94.663 57.725C94.6574 57.7194 94.6517 57.7138 94.6461 57.7081C94.6404 57.7024 94.6347 57.6967 94.629 57.691C94.6233 57.6853 94.6176 57.6796 94.6119 57.6739C94.6061 57.6682 94.6004 57.6624 94.5946 57.6566C94.5888 57.6509 94.5831 57.6451 94.5773 57.6393C94.5715 57.6335 94.5657 57.6277 94.5598 57.6219C94.554 57.616 94.5482 57.6102 94.5423 57.6043C94.5364 57.5985 94.5305 57.5926 94.5247 57.5867C94.5188 57.5808 94.5128 57.5749 94.5069 57.569C94.501 57.563 94.4951 57.5571 94.4891 57.5511C94.4831 57.5452 94.4772 57.5392 94.4712 57.5332C94.4652 57.5272 94.4592 57.5212 94.4532 57.5152C94.4471 57.5092 94.4411 57.5031 94.4351 57.4971C94.429 57.491 94.4229 57.485 94.4169 57.4789C94.4108 57.4728 94.4047 57.4667 94.3986 57.4606C94.3924 57.4545 94.3863 57.4483 94.3802 57.4422C94.374 57.4361 94.3679 57.4299 94.3617 57.4237C94.3555 57.4175 94.3493 57.4114 94.3431 57.4051C94.3369 57.3989 94.3307 57.3927 94.3245 57.3865C94.3182 57.3802 94.312 57.374 94.3057 57.3677C94.2994 57.3615 94.2931 57.3552 94.2869 57.3489C94.2806 57.3426 94.2742 57.3363 94.2679 57.3299C94.2616 57.3236 94.2552 57.3173 94.2489 57.3109C94.2425 57.3046 94.2362 57.2982 94.2298 57.2918C94.2234 57.2854 94.217 57.279 94.2106 57.2726C94.2042 57.2662 94.1977 57.2598 94.1913 57.2533C94.1848 57.2469 94.1784 57.2404 94.1719 57.2339C94.1654 57.2274 94.1589 57.221 94.1524 57.2145C94.1459 57.208 94.1394 57.2014 94.1329 57.1949C94.1263 57.1884 94.1198 57.1818 94.1132 57.1753C94.1067 57.1687 94.1001 57.1621 94.0935 57.1555C94.0869 57.1489 94.0803 57.1423 94.0737 57.1357C94.0671 57.1291 94.0604 57.1225 94.0538 57.1158C94.0471 57.1092 94.0405 57.1025 94.0338 57.0958C94.0271 57.0891 94.0204 57.0824 94.0137 57.0757C94.007 57.069 94.0003 57.0623 93.9936 57.0556C93.9868 57.0489 93.9801 57.0421 93.9733 57.0353C93.9666 57.0286 93.9598 57.0218 93.953 57.015C93.9462 57.0082 93.9394 57.0014 93.9326 56.9946C93.9258 56.9878 93.9189 56.981 93.9121 56.9741C93.9052 56.9673 93.8984 56.9604 93.8915 56.9535C93.8846 56.9467 93.8778 56.9398 93.8709 56.9329C93.864 56.926 93.857 56.9191 93.8501 56.9122C93.8432 56.9052 93.8363 56.8983 93.8293 56.8913C93.8223 56.8844 93.8154 56.8774 93.8084 56.8704C93.8014 56.8635 93.7944 56.8565 93.7874 56.8494C93.7804 56.8424 93.7734 56.8354 93.7664 56.8284C93.7593 56.8214 93.7523 56.8143 93.7452 56.8072C93.7382 56.8002 93.7311 56.7931 93.724 56.786C93.7169 56.7789 93.7098 56.7718 93.7027 56.7647C93.6956 56.7576 93.6885 56.7505 93.6813 56.7434C93.6742 56.7362 93.667 56.7291 93.6599 56.7219C93.6527 56.7147 93.6455 56.7076 93.6383 56.7004C93.6311 56.6932 93.6239 56.686 93.6167 56.6788C93.6095 56.6715 93.6023 56.6643 93.595 56.6571C93.5878 56.6498 93.5805 56.6426 93.5733 56.6353C93.566 56.628 93.5587 56.6208 93.5514 56.6135C93.5441 56.6062 93.5368 56.5989 93.5295 56.5915C93.5222 56.5842 93.5149 56.5769 93.5075 56.5696C93.5002 56.5622 93.4928 56.5549 93.4855 56.5475C93.4781 56.5401 93.4707 56.5327 93.4633 56.5253C93.4559 56.518 93.4485 56.5106 93.4411 56.5031C93.4337 56.4957 93.4263 56.4883 93.4188 56.4808C93.4114 56.4734 93.4039 56.466 93.3965 56.4585C93.389 56.451 93.3815 56.4435 93.374 56.4361C93.3665 56.4286 93.359 56.4211 93.3515 56.4135C93.344 56.406 93.3365 56.3985 93.3289 56.391C93.3214 56.3834 93.3138 56.3759 93.3063 56.3683C93.2987 56.3608 93.2912 56.3532 93.2836 56.3456C93.276 56.338 93.2684 56.3304 93.2608 56.3228C93.2532 56.3152 93.2455 56.3076 93.2379 56.2999C93.2303 56.2923 93.2226 56.2847 93.215 56.277C93.2073 56.2694 93.1997 56.2617 93.192 56.254C93.1843 56.2463 93.1766 56.2386 93.1689 56.2309C93.1612 56.2232 93.1535 56.2155 93.1458 56.2078C93.138 56.2001 93.1303 56.1923 93.1226 56.1846C93.1148 56.1768 93.1071 56.1691 93.0993 56.1613C93.0915 56.1535 93.0837 56.1458 93.0759 56.138C93.0682 56.1302 93.0603 56.1224 93.0525 56.1146C93.0447 56.1067 93.0369 56.0989 93.0291 56.0911C93.0212 56.0833 93.0134 56.0754 93.0055 56.0675C92.9977 56.0597 92.9898 56.0518 92.9819 56.0439C92.974 56.0361 92.9661 56.0282 92.9582 56.0203C92.9503 56.0124 92.9424 56.0044 92.9345 55.9965C92.9266 55.9886 92.9186 55.9807 92.9107 55.9727C92.9027 55.9648 92.8948 55.9568 92.8868 55.9488C92.8789 55.9409 92.8709 55.9329 92.8629 55.9249C92.8549 55.9169 92.8469 55.9089 92.8389 55.9009C92.8309 55.8929 92.8229 55.8849 92.8148 55.8769C92.8068 55.8688 92.7988 55.8608 92.7907 55.8527C92.7827 55.8447 92.7746 55.8366 92.7665 55.8286C92.7585 55.8205 92.7504 55.8124 92.7423 55.8043C92.7342 55.7962 92.7261 55.7881 92.718 55.78C92.7099 55.7719 92.7017 55.7638 92.6936 55.7556C92.6855 55.7475 92.6773 55.7394 92.6692 55.7312C92.661 55.7231 92.6529 55.7149 92.6447 55.7067C92.6365 55.6986 92.6283 55.6904 92.6201 55.6822C92.612 55.674 92.6038 55.6658 92.5955 55.6576C92.5873 55.6494 92.5791 55.6411 92.5709 55.6329C92.5626 55.6247 92.5544 55.6164 92.5461 55.6082C92.5379 55.5999 92.5296 55.5917 92.5214 55.5834C92.5131 55.5751 92.5048 55.5668 92.4965 55.5586C92.4882 55.5503 92.4799 55.542 92.4716 55.5337C92.4633 55.5253 92.455 55.517 92.4467 55.5087C92.4383 55.5004 92.43 55.492 92.4217 55.4837C92.4133 55.4753 92.405 55.467 92.3966 55.4586C92.3882 55.4503 92.3799 55.4419 92.3715 55.4335C92.3631 55.4251 92.3547 55.4167 92.3463 55.4083C92.3379 55.3999 92.3295 55.3915 92.3211 55.3831C92.3126 55.3747 92.3042 55.3662 92.2958 55.3578C92.2873 55.3494 92.2789 55.3409 92.2704 55.3325C92.262 55.324 92.2535 55.3155 92.245 55.3071C92.2366 55.2986 92.2281 55.2901 92.2196 55.2816C92.2111 55.2731 92.2026 55.2646 92.1941 55.2561C92.1856 55.2476 92.1771 55.2391 92.1685 55.2306C92.16 55.222 92.1515 55.2135 92.1429 55.205C92.1344 55.1964 92.1258 55.1879 92.1173 55.1793C92.1087 55.1707 92.1001 55.1622 92.0916 55.1536C92.083 55.145 92.0744 55.1364 92.0658 55.1278C92.0572 55.1192 92.0486 55.1106 92.04 55.102C92.0314 55.0934 92.0228 55.0848 92.0141 55.0762C92.0055 55.0675 91.9969 55.0589 91.9882 55.0503C91.9796 55.0416 91.9709 55.033 91.9623 55.0243C91.9536 55.0156 91.9449 55.007 91.9363 54.9983C91.9276 54.9896 91.9189 54.9809 91.9102 54.9722C91.9015 54.9635 91.8928 54.9548 91.8841 54.9461C91.8754 54.9374 91.8667 54.9287 91.8579 54.92C91.8492 54.9113 91.8405 54.9025 91.8317 54.8938C91.823 54.885 91.8143 54.8763 91.8055 54.8675C91.7967 54.8588 91.788 54.85 91.7792 54.8412C91.7704 54.8325 91.7617 54.8237 91.7529 54.8149C91.7441 54.8061 91.7353 54.7973 91.7265 54.7885C91.7177 54.7797 91.7089 54.7709 91.7001 54.7621C91.6912 54.7533 91.6824 54.7445 91.6736 54.7356C91.6648 54.7268 91.6559 54.718 91.6471 54.7091C91.6382 54.7003 91.6294 54.6914 91.6205 54.6825C91.6117 54.6737 91.6028 54.6648 91.5939 54.6559C91.585 54.6471 91.5762 54.6382 91.5673 54.6293C91.5584 54.6204 91.5495 54.6115 91.5406 54.6026C91.5317 54.5937 91.5228 54.5848 91.5138 54.5759C91.5049 54.567 91.496 54.558 91.4871 54.5491C91.4781 54.5402 91.4692 54.5312 91.4603 54.5223C91.4513 54.5133 91.4424 54.5044 91.4334 54.4954C91.4244 54.4865 91.4155 54.4775 91.4065 54.4685C91.3975 54.4596 91.3886 54.4506 91.3796 54.4416C91.3706 54.4326 91.3616 54.4236 91.3526 54.4146C91.3436 54.4056 91.3346 54.3966 91.3256 54.3876C91.3166 54.3786 91.3075 54.3696 91.2985 54.3605C91.2895 54.3515 91.2805 54.3425 91.2714 54.3335C91.2624 54.3244 91.2533 54.3154 91.2443 54.3063C91.2352 54.2973 91.2262 54.2882 91.2171 54.2792C91.2081 54.2701 91.199 54.261 91.1899 54.2519C91.1808 54.2429 91.1718 54.2338 91.1627 54.2247C91.1536 54.2156 91.1445 54.2065 91.1354 54.1974C91.1263 54.1883 91.1172 54.1792 91.1081 54.1701C91.099 54.161 91.0898 54.1519 91.0807 54.1428C91.0716 54.1336 91.0625 54.1245 91.0533 54.1154C91.0442 54.1062 91.0351 54.0971 91.0259 54.0879C91.0168 54.0788 91.0076 54.0696 90.9985 54.0605C90.9893 54.0513 90.9801 54.0422 90.971 54.033C90.9618 54.0238 90.9526 54.0146 90.9434 54.0055C90.9343 53.9963 90.9251 53.9871 90.9159 53.9779C90.9067 53.9687 90.8975 53.9595 90.8883 53.9503C90.8791 53.9411 90.8699 53.9319 90.8607 53.9227C90.8515 53.9135 90.8422 53.9043 90.833 53.895C90.8238 53.8858 90.8146 53.8766 90.8053 53.8674C90.7961 53.8581 90.7869 53.8489 90.7776 53.8396C90.7684 53.8304 90.7591 53.8211 90.7499 53.8119C90.7406 53.8026 90.7313 53.7934 90.7221 53.7841C90.7128 53.7748 90.7035 53.7656 90.6943 53.7563C90.685 53.747 90.6757 53.7377 90.6664 53.7285C90.6571 53.7192 90.6479 53.7099 90.6386 53.7006C90.6293 53.6913 90.62 53.682 90.6107 53.6727C90.6014 53.6634 90.5921 53.6541 90.5827 53.6448C90.5734 53.6355 90.5641 53.6261 90.5548 53.6168C90.5455 53.6075 90.5361 53.5982 90.5268 53.5888C90.5175 53.5795 90.5081 53.5702 90.4988 53.5608C90.4895 53.5515 90.4801 53.5421 90.4708 53.5328C90.4614 53.5234 90.4521 53.5141 90.4427 53.5047C90.4333 53.4954 90.424 53.486 90.4146 53.4766C90.4052 53.4673 90.3959 53.4579 90.3865 53.4485C90.3771 53.4392 90.3677 53.4298 90.3584 53.4204C90.349 53.411 90.3396 53.4016 90.3302 53.3922C90.3208 53.3828 90.3114 53.3734 90.302 53.364C90.2926 53.3546 90.2832 53.3452 90.2738 53.3358C90.2644 53.3264 90.255 53.317 90.2456 53.3076C90.2362 53.2982 90.2267 53.2888 90.2173 53.2793C90.2079 53.2699 90.1985 53.2605 90.189 53.2511C90.1796 53.2416 90.1702 53.2322 90.1607 53.2228C90.1513 53.2133 90.1418 53.2039 90.1324 53.1944C90.123 53.185 90.1135 53.1755 90.1041 53.1661C90.0946 53.1566 90.0851 53.1472 90.0757 53.1377C90.0662 53.1283 90.0568 53.1188 90.0473 53.1093C90.0378 53.0999 90.0284 53.0904 90.0189 53.0809C90.0094 53.0715 89.9999 53.062 89.9905 53.0525C89.981 53.043 89.9715 53.0335 89.962 53.0241C89.9525 53.0146 89.943 53.0051 89.9336 52.9956C89.9241 52.9861 89.9146 52.9766 89.9051 52.9671C89.8956 52.9576 89.8861 52.9481 89.8766 52.9386C89.8671 52.9291 89.8576 52.9196 89.848 52.9101C89.8385 52.9006 89.829 52.8911 89.8195 52.8815C89.81 52.872 89.8005 52.8625 89.791 52.853C89.7814 52.8435 89.7719 52.8339 89.7624 52.8244C89.7529 52.8149 89.7433 52.8054 89.7338 52.7958C89.7243 52.7863 89.7147 52.7768 89.7052 52.7672C89.6957 52.7577 89.6861 52.7481 89.6766 52.7386C89.667 52.7291 89.6575 52.7195 89.6479 52.71C89.6384 52.7004 89.6288 52.6909 89.6193 52.6813C89.6097 52.6718 89.6002 52.6622 89.5906 52.6527C89.5811 52.6431 89.5715 52.6335 89.562 52.624C89.5524 52.6144 89.5428 52.6049 89.5333 52.5953C89.5237 52.5857 89.5141 52.5762 89.5046 52.5666C89.495 52.557 89.4854 52.5474 89.4758 52.5379C89.4663 52.5283 89.4567 52.5187 89.4471 52.5091C89.4375 52.4996 89.428 52.49 89.4184 52.4804C89.4088 52.4708 89.3992 52.4612 89.3896 52.4517C89.38 52.4421 89.3705 52.4325 89.3609 52.4229C89.3513 52.4133 89.3417 52.4037 89.3321 52.3941C89.3225 52.3845 89.3129 52.3749 89.3033 52.3653C89.2937 52.3558 89.2841 52.3462 89.2745 52.3366C89.2649 52.327 89.2553 52.3174 89.2457 52.3078C89.2361 52.2982 89.2265 52.2886 89.2169 52.2789C89.2073 52.2693 89.1977 52.2597 89.1881 52.2501C89.1785 52.2405 89.1689 52.2309 89.1593 52.2213C89.1497 52.2117 89.1401 52.2021 89.1304 52.1925C89.1208 52.1829 89.1112 52.1732 89.1016 52.1636C89.092 52.154 89.0824 52.1444 89.0728 52.1348C89.0631 52.1252 89.0535 52.1156 89.0439 52.1059C89.0343 52.0963 89.0247 52.0867 89.015 52.0771C89.0054 52.0675 88.9958 52.0578 88.9862 52.0482C88.9766 52.0386 88.9669 52.029 88.9573 52.0193C88.9477 52.0097 88.9381 52.0001 88.9284 51.9905C88.9188 51.9808 88.9092 51.9712 88.8996 51.9616C88.8899 51.952 88.8803 51.9423 88.8707 51.9327C88.861 51.9231 88.8514 51.9134 88.8418 51.9038C88.8322 51.8942 88.8225 51.8846 88.8129 51.8749C88.8033 51.8653 88.7936 51.8557 88.784 51.846C88.7744 51.8364 88.7647 51.8268 88.7551 51.8171C88.7455 51.8075 88.7358 51.7979 88.7262 51.7882C88.7166 51.7786 88.7069 51.769 88.6973 51.7593C88.6877 51.7497 88.678 51.7401 88.6684 51.7304C88.6588 51.7208 88.6491 51.7112 88.6395 51.7015C88.6299 51.6919 88.6202 51.6823 88.6106 51.6726C88.601 51.663 88.5913 51.6534 88.5817 51.6437C88.5721 51.6341 88.5624 51.6245 88.5528 51.6148C88.5432 51.6052 88.5335 51.5956 88.5239 51.5859C88.5143 51.5763 88.5046 51.5667 88.495 51.557C88.4854 51.5474 88.4758 51.5378 88.4661 51.5282C88.4565 51.5185 88.4469 51.5089 88.4372 51.4993C88.4276 51.4896 88.418 51.48 88.4083 51.4704C88.3987 51.4607 88.3891 51.4511 88.3794 51.4415C88.3698 51.4318 88.3602 51.4222 88.3506 51.4126C88.3409 51.403 88.3313 51.3933 88.3217 51.3837C88.3121 51.3741 88.3024 51.3645 88.2928 51.3548C88.2832 51.3452 88.2736 51.3356 88.2639 51.326C88.2543 51.3163 88.2447 51.3067 88.2351 51.2971C88.2254 51.2875 88.2158 51.2779 88.2062 51.2682C88.1966 51.2586 88.187 51.249 88.1774 51.2394C88.1677 51.2298 88.1581 51.2201 88.1485 51.2105C88.1389 51.2009 88.1293 51.1913 88.1197 51.1817C88.11 51.1721 88.1004 51.1625 88.0908 51.1529C88.0812 51.1432 88.0716 51.1336 88.062 51.124C88.0524 51.1144 88.0428 51.1048 88.0332 51.0952C88.0236 51.0856 88.014 51.076 88.0044 51.0664C87.9948 51.0568 87.9852 51.0472 87.9756 51.0376C87.966 51.028 87.9564 51.0184 87.9468 51.0088C87.9372 50.9992 87.9276 50.9896 87.918 50.98C87.9084 50.9704 87.8988 50.9608 87.8892 50.9512C87.8796 50.9416 87.87 50.9321 87.8604 50.9225C87.8509 50.9129 87.8413 50.9033 87.8317 50.8937C87.8221 50.8841 87.8125 50.8746 87.8029 50.865C87.7934 50.8554 87.7838 50.8458 87.7742 50.8362C87.7646 50.8267 87.7551 50.8171 87.7455 50.8075C87.7359 50.798 87.7264 50.7884 87.7168 50.7788C87.7072 50.7693 87.6977 50.7597 87.6881 50.7501C87.6785 50.7406 87.669 50.731 87.6594 50.7214C87.6499 50.7119 87.6403 50.7023 87.6307 50.6928C87.6212 50.6832 87.6116 50.6737 87.6021 50.6641C87.5925 50.6546 87.583 50.645 87.5735 50.6355C87.5639 50.6259 87.5544 50.6164 87.5448 50.6069C87.5353 50.5973 87.5258 50.5878 87.5162 50.5783C87.5067 50.5687 87.4972 50.5592 87.4876 50.5497C87.4781 50.5401 87.4686 50.5306 87.4591 50.5211C87.4495 50.5116 87.44 50.502 87.4305 50.4925C87.421 50.483 87.4115 50.4735 87.4019 50.464C87.3924 50.4545 87.3829 50.445 87.3734 50.4354C87.3639 50.4259 87.3544 50.4164 87.3449 50.4069C87.3354 50.3974 87.3259 50.3879 87.3164 50.3784C87.3069 50.369 87.2974 50.3595 87.2879 50.35C87.2785 50.3405 87.269 50.331 87.2595 50.3215C87.25 50.312 87.2405 50.3026 87.2311 50.2931C87.2216 50.2836 87.2121 50.2741 87.2026 50.2647C87.1932 50.2552 87.1837 50.2457 87.1742 50.2363C87.1648 50.2268 87.1553 50.2174 87.1459 50.2079C87.1364 50.1984 87.127 50.189 87.1175 50.1796C87.1081 50.1701 87.0986 50.1607 87.0892 50.1512C87.0797 50.1418 87.0703 50.1323 87.0609 50.1229C87.0514 50.1135 87.042 50.104 87.0326 50.0946C87.0232 50.0852 87.0137 50.0758 87.0043 50.0664C86.9949 50.0569 86.9855 50.0475 86.9761 50.0381C86.9667 50.0287 86.9573 50.0193 86.9479 50.0099C86.9385 50.0005 86.9291 49.9911 86.9197 49.9817C86.9103 49.9723 86.9009 49.9629 86.8915 49.9535C86.8821 49.9441 86.8727 49.9348 86.8633 49.9254C86.854 49.916 86.8446 49.9066 86.8352 49.8973C86.8259 49.8879 86.8165 49.8785 86.8071 49.8692C86.7978 49.8598 86.7884 49.8504 86.7791 49.8411C86.7697 49.8317 86.7604 49.8224 86.751 49.813C86.7417 49.8037 86.7323 49.7944 86.723 49.785C86.7137 49.7757 86.7043 49.7664 86.695 49.757C86.6857 49.7477 86.6764 49.7384 86.667 49.7291C86.6577 49.7198 86.6484 49.7104 86.6391 49.7011C86.6298 49.6918 86.6205 49.6825 86.6112 49.6732C86.6019 49.6639 86.5926 49.6546 86.5833 49.6454C86.574 49.6361 86.5648 49.6268 86.5555 49.6175C86.5462 49.6082 86.5369 49.5989 86.5277 49.5897C86.5184 49.5804 86.5091 49.5711 86.4999 49.5619C86.4906 49.5526 86.4813 49.5434 86.4721 49.5341C86.4629 49.5249 86.4536 49.5156 86.4444 49.5064C86.4351 49.4972 86.4259 49.4879 86.4167 49.4787C86.4074 49.4695 86.3982 49.4603 86.389 49.451C86.3798 49.4418 86.3706 49.4326 86.3614 49.4234C86.3522 49.4142 86.343 49.405 86.3338 49.3958C86.3246 49.3866 86.3154 49.3774 86.3062 49.3682C86.297 49.359 86.2878 49.3499 86.2787 49.3407C86.2695 49.3315 86.2603 49.3224 86.2512 49.3132C86.242 49.304 86.2328 49.2949 86.2237 49.2857C86.2145 49.2766 86.2054 49.2674 86.1963 49.2583C86.1871 49.2491 86.178 49.24 86.1689 49.2309C86.1597 49.2218 86.1506 49.2126 86.1415 49.2035C86.1324 49.1944 86.1233 49.1853 86.1142 49.1762C86.1051 49.1671 86.096 49.158 86.0869 49.1489C86.0778 49.1398 86.0687 49.1307 86.0596 49.1216C86.0505 49.1126 86.0415 49.1035 86.0324 49.0944C86.0233 49.0854 86.0143 49.0763 86.0052 49.0672C85.9962 49.0582 85.9871 49.0491 85.9781 49.0401C85.969 49.031 85.96 49.022 85.951 49.013C85.9419 49.004 85.9329 48.9949 85.9239 48.9859C85.9149 48.9769 85.9059 48.9679 85.8969 48.9589C85.8879 48.9499 85.8789 48.9409 85.8699 48.9319C85.8609 48.9229 85.8519 48.9139 85.8429 48.9049C85.8339 48.896 85.825 48.887 85.816 48.878C85.807 48.8691 85.7981 48.8601 85.7891 48.8512C85.7802 48.8422 85.7712 48.8333 85.7623 48.8243C85.7534 48.8154 85.7444 48.8065 85.7355 48.7975C85.7266 48.7886 85.7177 48.7797 85.7088 48.7708C85.6999 48.7619 85.691 48.753 85.6821 48.7441C85.6732 48.7352 85.6643 48.7263 85.6554 48.7174C85.6465 48.7085 85.6376 48.6997 85.6288 48.6908C85.6199 48.6819 85.6111 48.6731 85.6022 48.6642C85.5934 48.6554 85.5845 48.6465 85.5757 48.6377C85.5668 48.6289 85.558 48.62 85.5492 48.6112C85.5404 48.6024 85.5315 48.5936 85.5227 48.5848C85.5139 48.576 85.5051 48.5672 85.4963 48.5584C85.4875 48.5496 85.4788 48.5408 85.47 48.532C85.4612 48.5232 85.4524 48.5145 85.4437 48.5057C85.4349 48.4969 85.4262 48.4882 85.4174 48.4794C85.4087 48.4707 85.3999 48.462 85.3912 48.4532C85.3825 48.4445 85.3737 48.4358 85.365 48.4271C85.3563 48.4183 85.3476 48.4096 85.3389 48.4009C85.3302 48.3922 85.3215 48.3836 85.3128 48.3749C85.3042 48.3662 85.2955 48.3575 85.2868 48.3488C85.2781 48.3402 85.2695 48.3315 85.2608 48.3229C85.2522 48.3142 85.2435 48.3056 85.2349 48.2969C85.2263 48.2883 85.2177 48.2797 85.209 48.2711C85.2004 48.2624 85.1918 48.2538 85.1832 48.2452C85.1746 48.2366 85.166 48.228 85.1574 48.2195C85.1488 48.2109 85.1403 48.2023 85.1317 48.1937C85.1231 48.1852 85.1146 48.1766 85.106 48.1681C85.0975 48.1595 85.0889 48.151 85.0804 48.1424C85.0719 48.1339 85.0633 48.1254 85.0548 48.1169C85.0463 48.1083 85.0378 48.0998 85.0293 48.0913C85.0208 48.0828 85.0123 48.0744 85.0038 48.0659C84.9954 48.0574 84.9869 48.0489 84.9784 48.0405C84.97 48.032 84.9615 48.0235 84.9531 48.0151C84.9446 48.0067 84.9362 47.9982 84.9278 47.9898C84.9193 47.9814 84.9109 47.9729 84.9025 47.9645C84.8941 47.9561 84.8857 47.9477 84.8773 47.9393L82.756 50.0607Z" fill="#ED5338"/>
<path d="M93.756 47.9393C94.3418 47.3536 95.2915 47.3536 95.8773 47.9393C96.4631 48.5251 96.4631 49.4749 95.8773 50.0607L93.756 47.9393ZM84.8773 61.0607C84.2915 61.6464 83.3418 61.6464 82.756 61.0607C82.1702 60.4749 82.1702 59.5251 82.756 58.9393L84.8773 61.0607ZM95.8773 50.0607C95.8689 50.0691 95.8605 50.0774 95.8521 50.0859C95.8437 50.0943 95.8353 50.1027 95.8269 50.1111C95.8184 50.1195 95.81 50.128 95.8016 50.1364C95.7931 50.1449 95.7847 50.1533 95.7762 50.1618C95.7677 50.1702 95.7593 50.1787 95.7508 50.1872C95.7423 50.1957 95.7338 50.2042 95.7253 50.2127C95.7168 50.2212 95.7083 50.2297 95.6998 50.2382C95.6913 50.2467 95.6828 50.2552 95.6742 50.2638C95.6657 50.2723 95.6571 50.2808 95.6486 50.2894C95.64 50.2979 95.6315 50.3065 95.6229 50.3151C95.6143 50.3236 95.6058 50.3322 95.5972 50.3408C95.5886 50.3494 95.58 50.358 95.5714 50.3666C95.5628 50.3752 95.5542 50.3838 95.5456 50.3924C95.537 50.401 95.5283 50.4096 95.5197 50.4183C95.5111 50.4269 95.5024 50.4355 95.4938 50.4442C95.4851 50.4528 95.4765 50.4615 95.4678 50.4702C95.4591 50.4788 95.4505 50.4875 95.4418 50.4962C95.4331 50.5049 95.4244 50.5136 95.4157 50.5223C95.407 50.531 95.3983 50.5397 95.3896 50.5484C95.3809 50.5571 95.3721 50.5658 95.3634 50.5746C95.3547 50.5833 95.3459 50.592 95.3372 50.6008C95.3285 50.6095 95.3197 50.6183 95.3109 50.627C95.3022 50.6358 95.2934 50.6446 95.2846 50.6533C95.2759 50.6621 95.2671 50.6709 95.2583 50.6797C95.2495 50.6885 95.2407 50.6973 95.2319 50.7061C95.2231 50.7149 95.2143 50.7237 95.2054 50.7325C95.1966 50.7414 95.1878 50.7502 95.1789 50.759C95.1701 50.7679 95.1613 50.7767 95.1524 50.7856C95.1436 50.7944 95.1347 50.8033 95.1258 50.8121C95.117 50.821 95.1081 50.8299 95.0992 50.8387C95.0903 50.8476 95.0815 50.8565 95.0726 50.8654C95.0637 50.8743 95.0548 50.8832 95.0459 50.8921C95.0369 50.901 95.028 50.9099 95.0191 50.9189C95.0102 50.9278 95.0013 50.9367 94.9923 50.9457C94.9834 50.9546 94.9744 50.9635 94.9655 50.9725C94.9565 50.9814 94.9476 50.9904 94.9386 50.9994C94.9297 51.0083 94.9207 51.0173 94.9117 51.0263C94.9027 51.0352 94.8937 51.0442 94.8848 51.0532C94.8758 51.0622 94.8668 51.0712 94.8578 51.0802C94.8488 51.0892 94.8398 51.0982 94.8307 51.1072C94.8217 51.1163 94.8127 51.1253 94.8037 51.1343C94.7946 51.1433 94.7856 51.1524 94.7766 51.1614C94.7675 51.1705 94.7585 51.1795 94.7494 51.1886C94.7404 51.1976 94.7313 51.2067 94.7222 51.2157C94.7132 51.2248 94.7041 51.2339 94.695 51.243C94.6859 51.252 94.6768 51.2611 94.6678 51.2702C94.6587 51.2793 94.6496 51.2884 94.6405 51.2975C94.6314 51.3066 94.6222 51.3157 94.6131 51.3248C94.604 51.334 94.5949 51.3431 94.5858 51.3522C94.5766 51.3613 94.5675 51.3705 94.5584 51.3796C94.5492 51.3887 94.5401 51.3979 94.5309 51.407C94.5218 51.4162 94.5126 51.4253 94.5035 51.4345C94.4943 51.4437 94.4851 51.4528 94.476 51.462C94.4668 51.4712 94.4576 51.4804 94.4484 51.4895C94.4392 51.4987 94.43 51.5079 94.4209 51.5171C94.4117 51.5263 94.4025 51.5355 94.3932 51.5447C94.384 51.5539 94.3748 51.5631 94.3656 51.5724C94.3564 51.5816 94.3472 51.5908 94.3379 51.6C94.3287 51.6093 94.3195 51.6185 94.3102 51.6277C94.301 51.637 94.2918 51.6462 94.2825 51.6555C94.2733 51.6647 94.264 51.674 94.2548 51.6832C94.2455 51.6925 94.2362 51.7017 94.227 51.711C94.2177 51.7203 94.2084 51.7295 94.1991 51.7388C94.1899 51.7481 94.1806 51.7574 94.1713 51.7667C94.162 51.776 94.1527 51.7853 94.1434 51.7946C94.1341 51.8038 94.1248 51.8132 94.1155 51.8225C94.1062 51.8318 94.0969 51.8411 94.0876 51.8504C94.0783 51.8597 94.0689 51.869 94.0596 51.8784C94.0503 51.8877 94.041 51.897 94.0316 51.9063C94.0223 51.9157 94.0129 51.925 94.0036 51.9344C93.9943 51.9437 93.9849 51.9531 93.9756 51.9624C93.9662 51.9718 93.9569 51.9811 93.9475 51.9905C93.9381 51.9998 93.9288 52.0092 93.9194 52.0186C93.91 52.0279 93.9007 52.0373 93.8913 52.0467C93.8819 52.0561 93.8725 52.0655 93.8631 52.0748C93.8537 52.0842 93.8443 52.0936 93.835 52.103C93.8256 52.1124 93.8162 52.1218 93.8068 52.1312C93.7974 52.1406 93.7879 52.15 93.7785 52.1594C93.7691 52.1688 93.7597 52.1783 93.7503 52.1877C93.7409 52.1971 93.7315 52.2065 93.722 52.2159C93.7126 52.2254 93.7032 52.2348 93.6937 52.2442C93.6843 52.2537 93.6749 52.2631 93.6654 52.2725C93.656 52.282 93.6465 52.2914 93.6371 52.3009C93.6277 52.3103 93.6182 52.3198 93.6087 52.3292C93.5993 52.3387 93.5898 52.3481 93.5804 52.3576C93.5709 52.3671 93.5614 52.3765 93.552 52.386C93.5425 52.3955 93.533 52.4049 93.5236 52.4144C93.5141 52.4239 93.5046 52.4334 93.4951 52.4428C93.4856 52.4523 93.4762 52.4618 93.4667 52.4713C93.4572 52.4808 93.4477 52.4903 93.4382 52.4998C93.4287 52.5093 93.4192 52.5188 93.4097 52.5283C93.4002 52.5378 93.3907 52.5473 93.3812 52.5568C93.3717 52.5663 93.3622 52.5758 93.3527 52.5853C93.3432 52.5948 93.3336 52.6043 93.3241 52.6138C93.3146 52.6234 93.3051 52.6329 93.2956 52.6424C93.286 52.6519 93.2765 52.6614 93.267 52.671C93.2575 52.6805 93.2479 52.69 93.2384 52.6996C93.2289 52.7091 93.2193 52.7186 93.2098 52.7282C93.2003 52.7377 93.1907 52.7473 93.1812 52.7568C93.1716 52.7663 93.1621 52.7759 93.1525 52.7854C93.143 52.795 93.1334 52.8045 93.1239 52.8141C93.1143 52.8237 93.1048 52.8332 93.0952 52.8428C93.0856 52.8523 93.0761 52.8619 93.0665 52.8714C93.057 52.881 93.0474 52.8906 93.0378 52.9001C93.0283 52.9097 93.0187 52.9193 93.0091 52.9288C92.9996 52.9384 92.99 52.948 92.9804 52.9576C92.9708 52.9671 92.9613 52.9767 92.9517 52.9863C92.9421 52.9959 92.9325 53.0055 92.9229 53.015C92.9133 53.0246 92.9038 53.0342 92.8942 53.0438C92.8846 53.0534 92.875 53.063 92.8654 53.0726C92.8558 53.0821 92.8462 53.0917 92.8366 53.1013C92.827 53.1109 92.8175 53.1205 92.8079 53.1301C92.7983 53.1397 92.7887 53.1493 92.7791 53.1589C92.7695 53.1685 92.7599 53.1781 92.7503 53.1877C92.7407 53.1973 92.7311 53.2069 92.7214 53.2165C92.7118 53.2261 92.7022 53.2357 92.6926 53.2453C92.683 53.255 92.6734 53.2646 92.6638 53.2742C92.6542 53.2838 92.6446 53.2934 92.635 53.303C92.6253 53.3126 92.6157 53.3222 92.6061 53.3319C92.5965 53.3415 92.5869 53.3511 92.5773 53.3607C92.5677 53.3703 92.558 53.3799 92.5484 53.3896C92.5388 53.3992 92.5292 53.4088 92.5196 53.4184C92.5099 53.428 92.5003 53.4377 92.4907 53.4473C92.4811 53.4569 92.4714 53.4665 92.4618 53.4762C92.4522 53.4858 92.4426 53.4954 92.4329 53.505C92.4233 53.5147 92.4137 53.5243 92.4041 53.5339C92.3944 53.5435 92.3848 53.5532 92.3752 53.5628C92.3655 53.5724 92.3559 53.5821 92.3463 53.5917C92.3367 53.6013 92.327 53.6109 92.3174 53.6206C92.3078 53.6302 92.2981 53.6398 92.2885 53.6495C92.2789 53.6591 92.2692 53.6687 92.2596 53.6784C92.25 53.688 92.2403 53.6976 92.2307 53.7073C92.2211 53.7169 92.2114 53.7265 92.2018 53.7362C92.1922 53.7458 92.1825 53.7554 92.1729 53.7651C92.1633 53.7747 92.1536 53.7843 92.144 53.794C92.1344 53.8036 92.1247 53.8132 92.1151 53.8229C92.1055 53.8325 92.0958 53.8421 92.0862 53.8518C92.0766 53.8614 92.0669 53.871 92.0573 53.8807C92.0477 53.8903 92.038 53.8999 92.0284 53.9096C92.0188 53.9192 92.0091 53.9288 91.9995 53.9385C91.9899 53.9481 91.9803 53.9577 91.9706 53.9674C91.961 53.977 91.9514 53.9866 91.9417 53.9962C91.9321 54.0059 91.9225 54.0155 91.9128 54.0251C91.9032 54.0348 91.8936 54.0444 91.8839 54.054C91.8743 54.0636 91.8647 54.0733 91.8551 54.0829C91.8454 54.0925 91.8358 54.1022 91.8262 54.1118C91.8166 54.1214 91.8069 54.131 91.7973 54.1407C91.7877 54.1503 91.7781 54.1599 91.7684 54.1695C91.7588 54.1792 91.7492 54.1888 91.7396 54.1984C91.73 54.208 91.7203 54.2176 91.7107 54.2273C91.7011 54.2369 91.6915 54.2465 91.6819 54.2561C91.6722 54.2657 91.6626 54.2753 91.653 54.285C91.6434 54.2946 91.6338 54.3042 91.6242 54.3138C91.6146 54.3234 91.605 54.333 91.5953 54.3426C91.5857 54.3522 91.5761 54.3618 91.5665 54.3715C91.5569 54.3811 91.5473 54.3907 91.5377 54.4003C91.5281 54.4099 91.5185 54.4195 91.5089 54.4291C91.4993 54.4387 91.4897 54.4483 91.4801 54.4579C91.4705 54.4675 91.4609 54.4771 91.4513 54.4867C91.4417 54.4963 91.4321 54.5059 91.4225 54.5154C91.4129 54.525 91.4033 54.5346 91.3937 54.5442C91.3842 54.5538 91.3746 54.5634 91.365 54.573C91.3554 54.5826 91.3458 54.5921 91.3362 54.6017C91.3267 54.6113 91.3171 54.6209 91.3075 54.6305C91.2979 54.64 91.2883 54.6496 91.2788 54.6592C91.2692 54.6688 91.2596 54.6783 91.2501 54.6879C91.2405 54.6975 91.2309 54.707 91.2214 54.7166C91.2118 54.7262 91.2022 54.7357 91.1927 54.7453C91.1831 54.7549 91.1735 54.7644 91.164 54.774C91.1544 54.7835 91.1449 54.7931 91.1353 54.8026C91.1258 54.8122 91.1162 54.8217 91.1067 54.8313C91.0971 54.8408 91.0876 54.8504 91.078 54.8599C91.0685 54.8695 91.059 54.879 91.0494 54.8885C91.0399 54.8981 91.0304 54.9076 91.0208 54.9171C91.0113 54.9267 91.0018 54.9362 90.9922 54.9457C90.9827 54.9553 90.9732 54.9648 90.9637 54.9743C90.9541 54.9838 90.9446 54.9933 90.9351 55.0029C90.9256 55.0124 90.9161 55.0219 90.9066 55.0314C90.8971 55.0409 90.8876 55.0504 90.8781 55.0599C90.8685 55.0694 90.859 55.0789 90.8496 55.0884C90.8401 55.0979 90.8306 55.1074 90.8211 55.1169C90.8116 55.1264 90.8021 55.1359 90.7926 55.1454C90.7831 55.1549 90.7736 55.1643 90.7642 55.1738C90.7547 55.1833 90.7452 55.1928 90.7357 55.2022C90.7263 55.2117 90.7168 55.2212 90.7073 55.2307C90.6979 55.2401 90.6884 55.2496 90.6789 55.259C90.6695 55.2685 90.66 55.278 90.6506 55.2874C90.6411 55.2969 90.6317 55.3063 90.6222 55.3158C90.6128 55.3252 90.6033 55.3346 90.5939 55.3441C90.5845 55.3535 90.575 55.3629 90.5656 55.3724C90.5562 55.3818 90.5467 55.3912 90.5373 55.4007C90.5279 55.4101 90.5185 55.4195 90.5091 55.4289C90.4996 55.4383 90.4902 55.4477 90.4808 55.4572C90.4714 55.4666 90.462 55.476 90.4526 55.4854C90.4432 55.4948 90.4338 55.5042 90.4244 55.5135C90.415 55.5229 90.4056 55.5323 90.3963 55.5417C90.3869 55.5511 90.3775 55.5605 90.3681 55.5698C90.3587 55.5792 90.3494 55.5886 90.34 55.598C90.3306 55.6073 90.3213 55.6167 90.3119 55.626C90.3026 55.6354 90.2932 55.6448 90.2839 55.6541C90.2745 55.6635 90.2652 55.6728 90.2558 55.6821C90.2465 55.6915 90.2371 55.7008 90.2278 55.7102C90.2185 55.7195 90.2092 55.7288 90.1998 55.7381C90.1905 55.7475 90.1812 55.7568 90.1719 55.7661C90.1626 55.7754 90.1533 55.7847 90.144 55.794C90.1347 55.8033 90.1254 55.8126 90.1161 55.8219C90.1068 55.8312 90.0975 55.8405 90.0882 55.8498C90.0789 55.8591 90.0696 55.8683 90.0604 55.8776C90.0511 55.8869 90.0418 55.8962 90.0325 55.9054C90.0233 55.9147 90.014 55.924 90.0048 55.9332C89.9955 55.9425 89.9863 55.9517 89.977 55.961C89.9678 55.9702 89.9585 55.9794 89.9493 55.9887C89.9401 55.9979 89.9308 56.0071 89.9216 56.0164C89.9124 56.0256 89.9032 56.0348 89.894 56.044C89.8847 56.0532 89.8755 56.0624 89.8663 56.0716C89.8571 56.0808 89.8479 56.09 89.8387 56.0992C89.8295 56.1084 89.8204 56.1176 89.8112 56.1268C89.802 56.136 89.7928 56.1451 89.7837 56.1543C89.7745 56.1635 89.7653 56.1726 89.7562 56.1818C89.747 56.191 89.7379 56.2001 89.7287 56.2093C89.7196 56.2184 89.7104 56.2276 89.7013 56.2367C89.6922 56.2458 89.683 56.2549 89.6739 56.2641C89.6648 56.2732 89.6557 56.2823 89.6465 56.2914C89.6374 56.3005 89.6283 56.3096 89.6192 56.3187C89.6101 56.3278 89.601 56.3369 89.5919 56.346C89.5829 56.3551 89.5738 56.3642 89.5647 56.3733C89.5556 56.3823 89.5466 56.3914 89.5375 56.4005C89.5284 56.4095 89.5194 56.4186 89.5103 56.4276C89.5013 56.4367 89.4922 56.4457 89.4832 56.4548C89.4742 56.4638 89.4651 56.4728 89.4561 56.4819C89.4471 56.4909 89.4381 56.4999 89.429 56.5089C89.42 56.5179 89.411 56.5269 89.402 56.5359C89.393 56.5449 89.384 56.5539 89.3751 56.5629C89.3661 56.5719 89.3571 56.5809 89.3481 56.5899C89.3391 56.5988 89.3302 56.6078 89.3212 56.6167C89.3123 56.6257 89.3033 56.6347 89.2944 56.6436C89.2854 56.6526 89.2765 56.6615 89.2676 56.6704C89.2586 56.6794 89.2497 56.6883 89.2408 56.6972C89.2319 56.7061 89.2229 56.715 89.214 56.7239C89.2051 56.7328 89.1962 56.7417 89.1874 56.7506C89.1785 56.7595 89.1696 56.7684 89.1607 56.7773C89.1518 56.7861 89.143 56.795 89.1341 56.8039C89.1252 56.8127 89.1164 56.8216 89.1075 56.8304C89.0987 56.8393 89.0899 56.8481 89.081 56.8569C89.0722 56.8658 89.0634 56.8746 89.0546 56.8834C89.0457 56.8922 89.0369 56.901 89.0281 56.9098C89.0193 56.9186 89.0105 56.9274 89.0017 56.9362C88.993 56.945 88.9842 56.9538 88.9754 56.9626C88.9666 56.9713 88.9579 56.9801 88.9491 56.9889C88.9404 56.9976 88.9316 57.0064 88.9229 57.0151C88.9141 57.0238 88.9054 57.0326 88.8967 57.0413C88.8879 57.05 88.8792 57.0587 88.8705 57.0674C88.8618 57.0762 88.8531 57.0849 88.8444 57.0936C88.8357 57.1022 88.827 57.1109 88.8184 57.1196C88.8097 57.1283 88.801 57.137 88.7924 57.1456C88.7837 57.1543 88.775 57.1629 88.7664 57.1716C88.7578 57.1802 88.7491 57.1889 88.7405 57.1975C88.7319 57.2061 88.7232 57.2147 88.7146 57.2233C88.706 57.232 88.6974 57.2406 88.6888 57.2492C88.6802 57.2577 88.6716 57.2663 88.6631 57.2749C88.6545 57.2835 88.6459 57.2921 88.6374 57.3006C88.6288 57.3092 88.6202 57.3177 88.6117 57.3263C88.6031 57.3348 88.5946 57.3434 88.5861 57.3519C88.5776 57.3604 88.569 57.3689 88.5605 57.3774C88.552 57.3859 88.5435 57.3944 88.535 57.4029C88.5265 57.4114 88.5181 57.4199 88.5096 57.4284C88.5011 57.4369 88.4926 57.4453 88.4842 57.4538C88.4757 57.4622 88.4673 57.4707 88.4588 57.4791C88.4504 57.4876 88.442 57.496 88.4336 57.5044C88.4251 57.5128 88.4167 57.5212 88.4083 57.5296C88.3999 57.538 88.3915 57.5464 88.3831 57.5548C88.3748 57.5632 88.3664 57.5716 88.358 57.5799C88.3497 57.5883 88.3413 57.5967 88.333 57.605C88.3246 57.6134 88.3163 57.6217 88.3079 57.63C88.2996 57.6384 88.2913 57.6467 88.283 57.655C88.2747 57.6633 88.2664 57.6716 88.2581 57.6799C88.2498 57.6882 88.2415 57.6964 88.2333 57.7047C88.225 57.713 88.2167 57.7212 88.2085 57.7295C88.2002 57.7378 88.192 57.746 88.1837 57.7542C88.1755 57.7625 88.1673 57.7707 88.1591 57.7789C88.1509 57.7871 88.1427 57.7953 88.1345 57.8035C88.1263 57.8117 88.1181 57.8199 88.1099 57.828C88.1018 57.8362 88.0936 57.8444 88.0854 57.8525C88.0773 57.8607 88.0691 57.8688 88.061 57.877C88.0529 57.8851 88.0448 57.8932 88.0366 57.9013C88.0285 57.9094 88.0204 57.9175 88.0123 57.9256C88.0042 57.9337 87.9962 57.9418 87.9881 57.9499C87.98 57.958 87.972 57.966 87.9639 57.9741C87.9559 57.9821 87.9478 57.9902 87.9398 57.9982C87.9318 58.0062 87.9237 58.0142 87.9157 58.0222C87.9077 58.0303 87.8997 58.0382 87.8917 58.0462C87.8837 58.0542 87.8758 58.0622 87.8678 58.0702C87.8598 58.0781 87.8519 58.0861 87.8439 58.094C87.836 58.102 87.8281 58.1099 87.8201 58.1178C87.8122 58.1258 87.8043 58.1337 87.7964 58.1416C87.7885 58.1495 87.7806 58.1574 87.7727 58.1653C87.7648 58.1731 87.757 58.181 87.7491 58.1889C87.7412 58.1967 87.7334 58.2046 87.7256 58.2124C87.7177 58.2202 87.7099 58.2281 87.7021 58.2359C87.6943 58.2437 87.6865 58.2515 87.6787 58.2593C87.6709 58.2671 87.6631 58.2749 87.6553 58.2826C87.6476 58.2904 87.6398 58.2982 87.6321 58.3059C87.6243 58.3137 87.6166 58.3214 87.6089 58.3291C87.6011 58.3368 87.5934 58.3446 87.5857 58.3523C87.578 58.36 87.5703 58.3677 87.5626 58.3753C87.555 58.383 87.5473 58.3907 87.5396 58.3983C87.532 58.406 87.5243 58.4136 87.5167 58.4213C87.5091 58.4289 87.5015 58.4365 87.4938 58.4441C87.4862 58.4517 87.4786 58.4593 87.4711 58.4669C87.4635 58.4745 87.4559 58.4821 87.4483 58.4896C87.4408 58.4972 87.4332 58.5047 87.4257 58.5123C87.4181 58.5198 87.4106 58.5274 87.4031 58.5349C87.3956 58.5424 87.3881 58.5499 87.3806 58.5574C87.3731 58.5649 87.3656 58.5723 87.3582 58.5798C87.3507 58.5873 87.3432 58.5947 87.3358 58.6022C87.3284 58.6096 87.3209 58.617 87.3135 58.6245C87.3061 58.6319 87.2987 58.6393 87.2913 58.6467C87.2839 58.6541 87.2765 58.6614 87.2692 58.6688C87.2618 58.6762 87.2544 58.6835 87.2471 58.6909C87.2398 58.6982 87.2324 58.7055 87.2251 58.7129C87.2178 58.7202 87.2105 58.7275 87.2032 58.7348C87.1959 58.7421 87.1886 58.7494 87.1814 58.7566C87.1741 58.7639 87.1668 58.7711 87.1596 58.7784C87.1523 58.7856 87.1451 58.7929 87.1379 58.8001C87.1307 58.8073 87.1235 58.8145 87.1163 58.8217C87.1091 58.8289 87.1019 58.8361 87.0948 58.8432C87.0876 58.8504 87.0804 58.8575 87.0733 58.8647C87.0662 58.8718 87.059 58.8789 87.0519 58.886C87.0448 58.8932 87.0377 58.9003 87.0306 58.9073C87.0235 58.9144 87.0165 58.9215 87.0094 58.9286C87.0023 58.9356 86.9953 58.9427 86.9883 58.9497C86.9812 58.9567 86.9742 58.9638 86.9672 58.9708C86.9602 58.9778 86.9532 58.9848 86.9462 58.9918C86.9392 58.9987 86.9323 59.0057 86.9253 59.0127C86.9184 59.0196 86.9114 59.0265 86.9045 59.0335C86.8976 59.0404 86.8907 59.0473 86.8838 59.0542C86.8769 59.0611 86.87 59.068 86.8631 59.0749C86.8562 59.0817 86.8494 59.0886 86.8425 59.0954C86.8357 59.1023 86.8289 59.1091 86.822 59.1159C86.8152 59.1227 86.8084 59.1296 86.8016 59.1363C86.7948 59.1431 86.7881 59.1499 86.7813 59.1567C86.7745 59.1634 86.7678 59.1702 86.7611 59.1769C86.7543 59.1836 86.7476 59.1904 86.7409 59.1971C86.7342 59.2038 86.7275 59.2105 86.7208 59.2171C86.7142 59.2238 86.7075 59.2305 86.7008 59.2371C86.6942 59.2438 86.6876 59.2504 86.6809 59.257C86.6743 59.2636 86.6677 59.2703 86.6611 59.2768C86.6545 59.2834 86.648 59.29 86.6414 59.2966C86.6348 59.3031 86.6283 59.3097 86.6218 59.3162C86.6152 59.3228 86.6087 59.3293 86.6022 59.3358C86.5957 59.3423 86.5892 59.3488 86.5827 59.3552C86.5763 59.3617 86.5698 59.3682 86.5633 59.3746C86.5569 59.3811 86.5505 59.3875 86.5441 59.3939C86.5376 59.4003 86.5312 59.4067 86.5248 59.4131C86.5185 59.4195 86.5121 59.4259 86.5057 59.4322C86.4994 59.4386 86.493 59.4449 86.4867 59.4513C86.4804 59.4576 86.4741 59.4639 86.4678 59.4702C86.4615 59.4765 86.4552 59.4828 86.4489 59.489C86.4427 59.4953 86.4364 59.5016 86.4302 59.5078C86.4239 59.514 86.4177 59.5203 86.4115 59.5265C86.4053 59.5327 86.3991 59.5389 86.3929 59.545C86.3868 59.5512 86.3806 59.5574 86.3745 59.5635C86.3683 59.5697 86.3622 59.5758 86.3561 59.5819C86.35 59.588 86.3439 59.5941 86.3378 59.6002C86.3317 59.6063 86.3256 59.6124 86.3196 59.6184C86.3135 59.6245 86.3075 59.6305 86.3015 59.6365C86.2954 59.6425 86.2894 59.6485 86.2834 59.6545C86.2775 59.6605 86.2715 59.6665 86.2655 59.6724C86.2596 59.6784 86.2536 59.6843 86.2477 59.6903C86.2418 59.6962 86.2359 59.7021 86.23 59.708C86.2241 59.7139 86.2182 59.7198 86.2123 59.7256C86.2065 59.7315 86.2006 59.7373 86.1948 59.7432C86.189 59.749 86.1832 59.7548 86.1774 59.7606C86.1716 59.7664 86.1658 59.7722 86.16 59.778C86.1542 59.7837 86.1485 59.7895 86.1428 59.7952C86.137 59.8009 86.1313 59.8067 86.1256 59.8124C86.1199 59.8181 86.1142 59.8237 86.1086 59.8294C86.1029 59.8351 86.0972 59.8407 86.0916 59.8464C86.086 59.852 86.0803 59.8576 86.0747 59.8632C86.0691 59.8688 86.0636 59.8744 86.058 59.88C86.0524 59.8855 86.0469 59.8911 86.0413 59.8966C86.0358 59.9022 86.0303 59.9077 86.0248 59.9132C86.0193 59.9187 86.0138 59.9242 86.0083 59.9296C86.0029 59.9351 85.9974 59.9406 85.992 59.946C85.9865 59.9514 85.9811 59.9569 85.9757 59.9623C85.9703 59.9677 85.9649 59.973 85.9596 59.9784C85.9542 59.9838 85.9488 59.9891 85.9435 59.9945C85.9382 59.9998 85.9329 60.0051 85.9276 60.0104C85.9223 60.0157 85.917 60.021 85.9117 60.0262C85.9065 60.0315 85.9012 60.0368 85.896 60.042C85.8908 60.0472 85.8855 60.0524 85.8803 60.0576C85.8751 60.0628 85.87 60.068 85.8648 60.0732C85.8597 60.0783 85.8545 60.0835 85.8494 60.0886C85.8443 60.0937 85.8392 60.0988 85.8341 60.1039C85.829 60.109 85.8239 60.1141 85.8188 60.1191C85.8138 60.1242 85.8088 60.1292 85.8037 60.1342C85.7987 60.1393 85.7937 60.1443 85.7887 60.1492C85.7837 60.1542 85.7788 60.1592 85.7738 60.1641C85.7689 60.1691 85.7639 60.174 85.759 60.1789C85.7541 60.1839 85.7492 60.1887 85.7443 60.1936C85.7395 60.1985 85.7346 60.2034 85.7298 60.2082C85.7249 60.213 85.7201 60.2179 85.7153 60.2227C85.7105 60.2275 85.7057 60.2323 85.7009 60.237C85.6962 60.2418 85.6914 60.2465 85.6867 60.2513C85.682 60.256 85.6772 60.2607 85.6725 60.2654C85.6679 60.2701 85.6632 60.2748 85.6585 60.2795C85.6539 60.2841 85.6492 60.2888 85.6446 60.2934C85.64 60.298 85.6354 60.3026 85.6308 60.3072C85.6262 60.3118 85.6216 60.3163 85.6171 60.3209C85.6125 60.3254 85.608 60.33 85.6035 60.3345C85.599 60.339 85.5945 60.3435 85.59 60.348C85.5855 60.3524 85.5811 60.3569 85.5767 60.3613C85.5722 60.3658 85.5678 60.3702 85.5634 60.3746C85.559 60.379 85.5546 60.3833 85.5503 60.3877C85.5459 60.3921 85.5416 60.3964 85.5372 60.4007C85.5329 60.4051 85.5286 60.4094 85.5243 60.4136C85.52 60.4179 85.5158 60.4222 85.5115 60.4264C85.5073 60.4307 85.5031 60.4349 85.4989 60.4391C85.4946 60.4433 85.4905 60.4475 85.4863 60.4517C85.4821 60.4559 85.478 60.46 85.4738 60.4641C85.4697 60.4683 85.4656 60.4724 85.4615 60.4765C85.4574 60.4806 85.4533 60.4846 85.4493 60.4887C85.4452 60.4927 85.4412 60.4968 85.4372 60.5008C85.4332 60.5048 85.4292 60.5088 85.4252 60.5128C85.4212 60.5168 85.4173 60.5207 85.4133 60.5246C85.4094 60.5286 85.4055 60.5325 85.4016 60.5364C85.3977 60.5403 85.3938 60.5442 85.3899 60.548C85.3861 60.5519 85.3822 60.5557 85.3784 60.5595C85.3746 60.5634 85.3708 60.5672 85.367 60.5709C85.3633 60.5747 85.3595 60.5785 85.3558 60.5822C85.352 60.5859 85.3483 60.5897 85.3446 60.5934C85.3409 60.5971 85.3372 60.6007 85.3336 60.6044C85.3299 60.608 85.3263 60.6117 85.3227 60.6153C85.3191 60.6189 85.3155 60.6225 85.3119 60.6261C85.3083 60.6297 85.3047 60.6332 85.3012 60.6368C85.2977 60.6403 85.2942 60.6438 85.2907 60.6473C85.2872 60.6508 85.2837 60.6543 85.2802 60.6577C85.2768 60.6612 85.2734 60.6646 85.2699 60.668C85.2665 60.6714 85.2631 60.6748 85.2598 60.6782C85.2564 60.6816 85.253 60.6849 85.2497 60.6883C85.2464 60.6916 85.2431 60.6949 85.2398 60.6982C85.2365 60.7015 85.2332 60.7048 85.23 60.708C85.2267 60.7112 85.2235 60.7145 85.2203 60.7177C85.2171 60.7209 85.2139 60.7241 85.2107 60.7272C85.2076 60.7304 85.2044 60.7335 85.2013 60.7367C85.1982 60.7398 85.1951 60.7429 85.192 60.746C85.1889 60.7491 85.1859 60.7521 85.1828 60.7551C85.1798 60.7582 85.1768 60.7612 85.1738 60.7642C85.1708 60.7672 85.1678 60.7702 85.1649 60.7731C85.1619 60.7761 85.159 60.779 85.1561 60.7819C85.1531 60.7848 85.1503 60.7877 85.1474 60.7906C85.1445 60.7934 85.1417 60.7963 85.1389 60.7991C85.136 60.8019 85.1332 60.8047 85.1304 60.8075C85.1277 60.8103 85.1249 60.8131 85.1222 60.8158C85.1194 60.8185 85.1167 60.8213 85.114 60.824C85.1113 60.8267 85.1086 60.8293 85.106 60.832C85.1033 60.8346 85.1007 60.8373 85.0981 60.8399C85.0955 60.8425 85.0929 60.8451 85.0903 60.8476C85.0878 60.8502 85.0852 60.8527 85.0827 60.8553C85.0802 60.8578 85.0777 60.8603 85.0752 60.8627C85.0727 60.8652 85.0703 60.8677 85.0679 60.8701C85.0654 60.8725 85.063 60.8749 85.0606 60.8773C85.0582 60.8797 85.0559 60.8821 85.0535 60.8844C85.0512 60.8868 85.0489 60.8891 85.0466 60.8914C85.0443 60.8937 85.042 60.896 85.0397 60.8982C85.0375 60.9005 85.0353 60.9027 85.033 60.9049C85.0308 60.9071 85.0287 60.9093 85.0265 60.9115C85.0243 60.9136 85.0222 60.9158 85.0201 60.9179C85.0179 60.92 85.0158 60.9221 85.0138 60.9242C85.0117 60.9263 85.0097 60.9283 85.0076 60.9303C85.0056 60.9324 85.0036 60.9344 85.0016 60.9364C84.9996 60.9383 84.9977 60.9403 84.9957 60.9422C84.9938 60.9442 84.9919 60.9461 84.99 60.948C84.9881 60.9499 84.9862 60.9518 84.9844 60.9536C84.9825 60.9554 84.9807 60.9573 84.9789 60.9591C84.9771 60.9609 84.9753 60.9626 84.9736 60.9644C84.9718 60.9661 84.9701 60.9679 84.9684 60.9696C84.9667 60.9713 84.965 60.973 84.9633 60.9746C84.9617 60.9763 84.96 60.9779 84.9584 60.9795C84.9568 60.9812 84.9552 60.9828 84.9537 60.9843C84.9521 60.9859 84.9505 60.9874 84.949 60.989C84.9475 60.9905 84.946 60.992 84.9445 60.9934C84.9431 60.9949 84.9416 60.9964 84.9402 60.9978C84.9388 60.9992 84.9374 61.0006 84.936 61.002C84.9346 61.0034 84.9332 61.0047 84.9319 61.0061C84.9306 61.0074 84.9293 61.0087 84.928 61.01C84.9267 61.0113 84.9254 61.0125 84.9242 61.0138C84.923 61.015 84.9218 61.0162 84.9206 61.0174C84.9194 61.0186 84.9182 61.0198 84.9171 61.0209C84.9159 61.022 84.9148 61.0232 84.9137 61.0242C84.9126 61.0253 84.9116 61.0264 84.9105 61.0275C84.9095 61.0285 84.9085 61.0295 84.9075 61.0305C84.9065 61.0315 84.9055 61.0325 84.9045 61.0334C84.9036 61.0344 84.9027 61.0353 84.9018 61.0362C84.9009 61.0371 84.9 61.038 84.8992 61.0388C84.8983 61.0397 84.8975 61.0405 84.8967 61.0413C84.8959 61.0421 84.8951 61.0429 84.8943 61.0436C84.8936 61.0444 84.8929 61.0451 84.8922 61.0458C84.8915 61.0465 84.8908 61.0472 84.8901 61.0478C84.8895 61.0485 84.8888 61.0491 84.8882 61.0497C84.8876 61.0503 84.8871 61.0509 84.8865 61.0515C84.886 61.052 84.8854 61.0526 84.8849 61.0531C84.8844 61.0536 84.8839 61.054 84.8835 61.0545C84.883 61.0549 84.8826 61.0554 84.8822 61.0558C84.8818 61.0562 84.8814 61.0566 84.881 61.0569C84.8807 61.0573 84.8804 61.0576 84.8801 61.0579C84.8798 61.0582 84.8795 61.0585 84.8792 61.0588C84.879 61.059 84.8787 61.0592 84.8785 61.0594C84.8783 61.0596 84.8782 61.0598 84.878 61.06C84.8778 61.0601 84.8777 61.0603 84.8776 61.0604C84.8775 61.0605 84.8774 61.0605 84.8774 61.0606C84.8773 61.0606 84.8773 61.0607 83.8167 60C82.756 58.9393 82.756 58.9393 82.7561 58.9393C82.7561 58.9392 82.7562 58.9391 82.7563 58.939C82.7564 58.9389 82.7565 58.9388 82.7567 58.9387C82.7568 58.9385 82.757 58.9383 82.7572 58.9381C82.7574 58.9379 82.7576 58.9377 82.7579 58.9374C82.7582 58.9372 82.7584 58.9369 82.7587 58.9366C82.759 58.9363 82.7594 58.936 82.7597 58.9356C82.7601 58.9352 82.7605 58.9349 82.7609 58.9345C82.7613 58.9341 82.7617 58.9336 82.7622 58.9332C82.7626 58.9327 82.7631 58.9322 82.7636 58.9317C82.7641 58.9312 82.7646 58.9307 82.7652 58.9301C82.7657 58.9296 82.7663 58.929 82.7669 58.9284C82.7675 58.9278 82.7682 58.9272 82.7688 58.9265C82.7695 58.9259 82.7701 58.9252 82.7708 58.9245C82.7715 58.9238 82.7723 58.9231 82.773 58.9223C82.7738 58.9216 82.7746 58.9208 82.7754 58.92C82.7762 58.9192 82.777 58.9184 82.7778 58.9175C82.7787 58.9166 82.7796 58.9158 82.7805 58.9149C82.7814 58.914 82.7823 58.9131 82.7832 58.9121C82.7842 58.9112 82.7851 58.9102 82.7861 58.9092C82.7871 58.9082 82.7882 58.9072 82.7892 58.9061C82.7902 58.9051 82.7913 58.904 82.7924 58.9029C82.7935 58.9018 82.7946 58.9007 82.7958 58.8996C82.7969 58.8984 82.7981 58.8973 82.7992 58.8961C82.8004 58.8949 82.8016 58.8937 82.8029 58.8924C82.8041 58.8912 82.8054 58.89 82.8067 58.8887C82.8079 58.8874 82.8093 58.8861 82.8106 58.8847C82.8119 58.8834 82.8133 58.8821 82.8147 58.8807C82.816 58.8793 82.8174 58.8779 82.8189 58.8765C82.8203 58.875 82.8217 58.8736 82.8232 58.8721C82.8247 58.8706 82.8262 58.8692 82.8277 58.8676C82.8292 58.8661 82.8308 58.8646 82.8323 58.863C82.8339 58.8614 82.8355 58.8598 82.8371 58.8582C82.8387 58.8566 82.8404 58.855 82.842 58.8533C82.8437 58.8517 82.8454 58.85 82.8471 58.8483C82.8488 58.8466 82.8505 58.8448 82.8523 58.8431C82.854 58.8413 82.8558 58.8395 82.8576 58.8377C82.8594 58.8359 82.8612 58.8341 82.8631 58.8323C82.8649 58.8304 82.8668 58.8286 82.8687 58.8267C82.8706 58.8248 82.8725 58.8229 82.8744 58.8209C82.8763 58.819 82.8783 58.817 82.8803 58.815C82.8823 58.8131 82.8843 58.8111 82.8863 58.809C82.8883 58.807 82.8904 58.8049 82.8925 58.8029C82.8945 58.8008 82.8966 58.7987 82.8987 58.7966C82.9009 58.7945 82.903 58.7923 82.9052 58.7902C82.9073 58.788 82.9095 58.7858 82.9117 58.7836C82.9139 58.7814 82.9162 58.7792 82.9184 58.7769C82.9207 58.7747 82.923 58.7724 82.9253 58.7701C82.9276 58.7678 82.9299 58.7655 82.9322 58.7631C82.9346 58.7608 82.9369 58.7584 82.9393 58.756C82.9417 58.7536 82.9441 58.7512 82.9465 58.7488C82.949 58.7464 82.9514 58.7439 82.9539 58.7414C82.9564 58.7389 82.9589 58.7365 82.9614 58.7339C82.9639 58.7314 82.9665 58.7289 82.969 58.7263C82.9716 58.7237 82.9742 58.7212 82.9768 58.7185C82.9794 58.7159 82.982 58.7133 82.9847 58.7107C82.9873 58.708 82.99 58.7053 82.9927 58.7026C82.9954 58.6999 82.9981 58.6972 83.0008 58.6945C83.0036 58.6917 83.0063 58.689 83.0091 58.6862C83.0119 58.6834 83.0147 58.6806 83.0175 58.6778C83.0204 58.675 83.0232 58.6721 83.0261 58.6693C83.0289 58.6664 83.0318 58.6635 83.0347 58.6606C83.0376 58.6577 83.0406 58.6548 83.0435 58.6518C83.0465 58.6488 83.0495 58.6459 83.0525 58.6429C83.0554 58.6399 83.0585 58.6369 83.0615 58.6338C83.0645 58.6308 83.0676 58.6277 83.0707 58.6247C83.0738 58.6216 83.0769 58.6185 83.08 58.6153C83.0831 58.6122 83.0862 58.6091 83.0894 58.6059C83.0926 58.6028 83.0958 58.5996 83.099 58.5964C83.1022 58.5932 83.1054 58.5899 83.1086 58.5867C83.1119 58.5834 83.1152 58.5802 83.1185 58.5769C83.1217 58.5736 83.1251 58.5703 83.1284 58.5669C83.1317 58.5636 83.1351 58.5603 83.1384 58.5569C83.1418 58.5535 83.1452 58.5501 83.1486 58.5467C83.152 58.5433 83.1555 58.5399 83.1589 58.5364C83.1624 58.533 83.1658 58.5295 83.1693 58.526C83.1728 58.5225 83.1764 58.519 83.1799 58.5154C83.1834 58.5119 83.187 58.5083 83.1906 58.5048C83.1941 58.5012 83.1977 58.4976 83.2013 58.494C83.205 58.4904 83.2086 58.4867 83.2123 58.4831C83.2159 58.4794 83.2196 58.4757 83.2233 58.472C83.227 58.4683 83.2307 58.4646 83.2344 58.4609C83.2382 58.4571 83.2419 58.4534 83.2457 58.4496C83.2495 58.4458 83.2533 58.442 83.2571 58.4382C83.2609 58.4344 83.2648 58.4306 83.2686 58.4267C83.2725 58.4228 83.2764 58.419 83.2803 58.4151C83.2842 58.4112 83.2881 58.4073 83.292 58.4033C83.2959 58.3994 83.2999 58.3954 83.3039 58.3915C83.3078 58.3875 83.3118 58.3835 83.3159 58.3795C83.3199 58.3755 83.3239 58.3714 83.328 58.3674C83.332 58.3633 83.3361 58.3592 83.3402 58.3552C83.3443 58.3511 83.3484 58.3469 83.3525 58.3428C83.3566 58.3387 83.3608 58.3345 83.365 58.3304C83.3691 58.3262 83.3733 58.322 83.3775 58.3178C83.3817 58.3136 83.386 58.3094 83.3902 58.3051C83.3945 58.3009 83.3987 58.2966 83.403 58.2923C83.4073 58.288 83.4116 58.2837 83.4159 58.2794C83.4202 58.2751 83.4246 58.2707 83.4289 58.2664C83.4333 58.262 83.4377 58.2576 83.4421 58.2532C83.4465 58.2488 83.4509 58.2444 83.4553 58.24C83.4598 58.2356 83.4642 58.2311 83.4687 58.2266C83.4732 58.2222 83.4777 58.2177 83.4822 58.2132C83.4867 58.2086 83.4912 58.2041 83.4958 58.1996C83.5003 58.195 83.5049 58.1905 83.5095 58.1859C83.514 58.1813 83.5187 58.1767 83.5233 58.1721C83.5279 58.1674 83.5325 58.1628 83.5372 58.1581C83.5419 58.1535 83.5465 58.1488 83.5512 58.1441C83.5559 58.1394 83.5606 58.1347 83.5654 58.13C83.5701 58.1252 83.5749 58.1205 83.5796 58.1157C83.5844 58.1109 83.5892 58.1062 83.594 58.1013C83.5988 58.0965 83.6036 58.0917 83.6084 58.0869C83.6133 58.082 83.6181 58.0772 83.623 58.0723C83.6279 58.0674 83.6328 58.0625 83.6377 58.0576C83.6426 58.0527 83.6476 58.0478 83.6525 58.0428C83.6575 58.0379 83.6624 58.0329 83.6674 58.0279C83.6724 58.0229 83.6774 58.0179 83.6824 58.0129C83.6874 58.0079 83.6925 58.0029 83.6975 57.9978C83.7026 57.9928 83.7077 57.9877 83.7127 57.9826C83.7178 57.9775 83.7229 57.9724 83.7281 57.9673C83.7332 57.9621 83.7383 57.957 83.7435 57.9518C83.7487 57.9467 83.7538 57.9415 83.759 57.9363C83.7642 57.9311 83.7694 57.9259 83.7747 57.9207C83.7799 57.9154 83.7851 57.9102 83.7904 57.9049C83.7957 57.8997 83.8009 57.8944 83.8062 57.8891C83.8115 57.8838 83.8169 57.8785 83.8222 57.8731C83.8275 57.8678 83.8329 57.8625 83.8382 57.8571C83.8436 57.8517 83.849 57.8463 83.8544 57.8409C83.8598 57.8355 83.8652 57.8301 83.8706 57.8247C83.8761 57.8192 83.8815 57.8138 83.887 57.8083C83.8925 57.8029 83.898 57.7974 83.9035 57.7919C83.909 57.7864 83.9145 57.7809 83.92 57.7753C83.9256 57.7698 83.9311 57.7642 83.9367 57.7587C83.9422 57.7531 83.9478 57.7475 83.9534 57.7419C83.959 57.7363 83.9646 57.7307 83.9703 57.725C83.9759 57.7194 83.9816 57.7138 83.9872 57.7081C83.9929 57.7024 83.9986 57.6967 84.0043 57.691C84.01 57.6853 84.0157 57.6796 84.0214 57.6739C84.0272 57.6682 84.0329 57.6624 84.0387 57.6566C84.0445 57.6509 84.0502 57.6451 84.056 57.6393C84.0618 57.6335 84.0676 57.6277 84.0735 57.6219C84.0793 57.616 84.0852 57.6102 84.091 57.6043C84.0969 57.5985 84.1028 57.5926 84.1086 57.5867C84.1145 57.5808 84.1205 57.5749 84.1264 57.569C84.1323 57.563 84.1382 57.5571 84.1442 57.5511C84.1502 57.5452 84.1561 57.5392 84.1621 57.5332C84.1681 57.5272 84.1741 57.5212 84.1801 57.5152C84.1862 57.5092 84.1922 57.5031 84.1982 57.4971C84.2043 57.491 84.2104 57.485 84.2164 57.4789C84.2225 57.4728 84.2286 57.4667 84.2347 57.4606C84.2409 57.4545 84.247 57.4483 84.2531 57.4422C84.2593 57.4361 84.2654 57.4299 84.2716 57.4237C84.2778 57.4175 84.284 57.4114 84.2902 57.4051C84.2964 57.3989 84.3026 57.3927 84.3088 57.3865C84.3151 57.3802 84.3213 57.374 84.3276 57.3677C84.3339 57.3615 84.3402 57.3552 84.3464 57.3489C84.3527 57.3426 84.3591 57.3363 84.3654 57.3299C84.3717 57.3236 84.3781 57.3173 84.3844 57.3109C84.3908 57.3046 84.3971 57.2982 84.4035 57.2918C84.4099 57.2854 84.4163 57.279 84.4227 57.2726C84.4291 57.2662 84.4356 57.2598 84.442 57.2533C84.4485 57.2469 84.4549 57.2404 84.4614 57.2339C84.4679 57.2274 84.4744 57.221 84.4809 57.2145C84.4874 57.208 84.4939 57.2014 84.5004 57.1949C84.507 57.1884 84.5135 57.1818 84.5201 57.1753C84.5266 57.1687 84.5332 57.1621 84.5398 57.1555C84.5464 57.1489 84.553 57.1423 84.5596 57.1357C84.5662 57.1291 84.5729 57.1225 84.5795 57.1158C84.5862 57.1092 84.5928 57.1025 84.5995 57.0958C84.6062 57.0891 84.6129 57.0824 84.6196 57.0757C84.6263 57.069 84.633 57.0623 84.6397 57.0556C84.6465 57.0489 84.6532 57.0421 84.66 57.0353C84.6667 57.0286 84.6735 57.0218 84.6803 57.015C84.6871 57.0082 84.6939 57.0014 84.7007 56.9946C84.7075 56.9878 84.7144 56.981 84.7212 56.9741C84.7281 56.9673 84.7349 56.9604 84.7418 56.9535C84.7487 56.9467 84.7555 56.9398 84.7624 56.9329C84.7693 56.926 84.7763 56.9191 84.7832 56.9122C84.7901 56.9052 84.797 56.8983 84.804 56.8913C84.811 56.8844 84.8179 56.8774 84.8249 56.8704C84.8319 56.8635 84.8389 56.8565 84.8459 56.8494C84.8529 56.8424 84.8599 56.8354 84.8669 56.8284C84.874 56.8214 84.881 56.8143 84.8881 56.8072C84.8951 56.8002 84.9022 56.7931 84.9093 56.786C84.9164 56.7789 84.9235 56.7718 84.9306 56.7647C84.9377 56.7576 84.9448 56.7505 84.952 56.7434C84.9591 56.7362 84.9663 56.7291 84.9734 56.7219C84.9806 56.7147 84.9878 56.7076 84.995 56.7004C85.0022 56.6932 85.0094 56.686 85.0166 56.6788C85.0238 56.6715 85.031 56.6643 85.0383 56.6571C85.0455 56.6498 85.0528 56.6426 85.06 56.6353C85.0673 56.628 85.0746 56.6208 85.0819 56.6135C85.0892 56.6062 85.0965 56.5989 85.1038 56.5915C85.1111 56.5842 85.1184 56.5769 85.1258 56.5696C85.1331 56.5622 85.1405 56.5549 85.1478 56.5475C85.1552 56.5401 85.1626 56.5327 85.17 56.5253C85.1774 56.518 85.1848 56.5106 85.1922 56.5031C85.1996 56.4957 85.207 56.4883 85.2145 56.4808C85.2219 56.4734 85.2294 56.466 85.2368 56.4585C85.2443 56.451 85.2518 56.4435 85.2593 56.4361C85.2668 56.4286 85.2743 56.4211 85.2818 56.4135C85.2893 56.406 85.2968 56.3985 85.3044 56.391C85.3119 56.3834 85.3195 56.3759 85.327 56.3683C85.3346 56.3608 85.3421 56.3532 85.3497 56.3456C85.3573 56.338 85.3649 56.3304 85.3725 56.3228C85.3801 56.3152 85.3878 56.3076 85.3954 56.2999C85.403 56.2923 85.4107 56.2847 85.4183 56.277C85.426 56.2694 85.4336 56.2617 85.4413 56.254C85.449 56.2463 85.4567 56.2386 85.4644 56.2309C85.4721 56.2232 85.4798 56.2155 85.4875 56.2078C85.4953 56.2001 85.503 56.1923 85.5107 56.1846C85.5185 56.1768 85.5262 56.1691 85.534 56.1613C85.5418 56.1535 85.5496 56.1458 85.5574 56.138C85.5651 56.1302 85.573 56.1224 85.5808 56.1146C85.5886 56.1067 85.5964 56.0989 85.6042 56.0911C85.6121 56.0833 85.6199 56.0754 85.6278 56.0675C85.6356 56.0597 85.6435 56.0518 85.6514 56.0439C85.6593 56.0361 85.6672 56.0282 85.6751 56.0203C85.683 56.0124 85.6909 56.0044 85.6988 55.9965C85.7067 55.9886 85.7147 55.9807 85.7226 55.9727C85.7306 55.9648 85.7385 55.9568 85.7465 55.9488C85.7544 55.9409 85.7624 55.9329 85.7704 55.9249C85.7784 55.9169 85.7864 55.9089 85.7944 55.9009C85.8024 55.8929 85.8104 55.8849 85.8185 55.8769C85.8265 55.8688 85.8345 55.8608 85.8426 55.8527C85.8506 55.8447 85.8587 55.8366 85.8668 55.8286C85.8748 55.8205 85.8829 55.8124 85.891 55.8043C85.8991 55.7962 85.9072 55.7881 85.9153 55.78C85.9234 55.7719 85.9316 55.7638 85.9397 55.7556C85.9478 55.7475 85.956 55.7394 85.9641 55.7312C85.9723 55.7231 85.9804 55.7149 85.9886 55.7067C85.9968 55.6986 86.005 55.6904 86.0132 55.6822C86.0213 55.674 86.0295 55.6658 86.0378 55.6576C86.046 55.6494 86.0542 55.6411 86.0624 55.6329C86.0707 55.6247 86.0789 55.6164 86.0872 55.6082C86.0954 55.5999 86.1037 55.5917 86.1119 55.5834C86.1202 55.5751 86.1285 55.5668 86.1368 55.5586C86.1451 55.5503 86.1534 55.542 86.1617 55.5337C86.17 55.5253 86.1783 55.517 86.1866 55.5087C86.195 55.5004 86.2033 55.492 86.2116 55.4837C86.22 55.4753 86.2283 55.467 86.2367 55.4586C86.2451 55.4503 86.2534 55.4419 86.2618 55.4335C86.2702 55.4251 86.2786 55.4167 86.287 55.4083C86.2954 55.3999 86.3038 55.3915 86.3122 55.3831C86.3207 55.3747 86.3291 55.3662 86.3375 55.3578C86.346 55.3494 86.3544 55.3409 86.3629 55.3325C86.3713 55.324 86.3798 55.3155 86.3883 55.3071C86.3967 55.2986 86.4052 55.2901 86.4137 55.2816C86.4222 55.2731 86.4307 55.2646 86.4392 55.2561C86.4477 55.2476 86.4562 55.2391 86.4648 55.2306C86.4733 55.222 86.4818 55.2135 86.4904 55.205C86.4989 55.1964 86.5075 55.1879 86.516 55.1793C86.5246 55.1707 86.5332 55.1622 86.5417 55.1536C86.5503 55.145 86.5589 55.1364 86.5675 55.1278C86.5761 55.1192 86.5847 55.1106 86.5933 55.102C86.6019 55.0934 86.6105 55.0848 86.6192 55.0762C86.6278 55.0675 86.6364 55.0589 86.6451 55.0503C86.6537 55.0416 86.6624 55.033 86.671 55.0243C86.6797 55.0156 86.6884 55.007 86.697 54.9983C86.7057 54.9896 86.7144 54.9809 86.7231 54.9722C86.7318 54.9635 86.7405 54.9548 86.7492 54.9461C86.7579 54.9374 86.7666 54.9287 86.7754 54.92C86.7841 54.9113 86.7928 54.9025 86.8016 54.8938C86.8103 54.885 86.819 54.8763 86.8278 54.8675C86.8366 54.8588 86.8453 54.85 86.8541 54.8412C86.8629 54.8325 86.8716 54.8237 86.8804 54.8149C86.8892 54.8061 86.898 54.7973 86.9068 54.7885C86.9156 54.7797 86.9244 54.7709 86.9332 54.7621C86.9421 54.7533 86.9509 54.7445 86.9597 54.7356C86.9685 54.7268 86.9774 54.718 86.9862 54.7091C86.9951 54.7003 87.0039 54.6914 87.0128 54.6825C87.0216 54.6737 87.0305 54.6648 87.0394 54.6559C87.0483 54.6471 87.0571 54.6382 87.066 54.6293C87.0749 54.6204 87.0838 54.6115 87.0927 54.6026C87.1016 54.5937 87.1105 54.5848 87.1195 54.5759C87.1284 54.567 87.1373 54.558 87.1462 54.5491C87.1552 54.5402 87.1641 54.5312 87.173 54.5223C87.182 54.5133 87.1909 54.5044 87.1999 54.4954C87.2089 54.4865 87.2178 54.4775 87.2268 54.4685C87.2358 54.4596 87.2447 54.4506 87.2537 54.4416C87.2627 54.4326 87.2717 54.4236 87.2807 54.4146C87.2897 54.4056 87.2987 54.3966 87.3077 54.3876C87.3167 54.3786 87.3258 54.3696 87.3348 54.3605C87.3438 54.3515 87.3528 54.3425 87.3619 54.3335C87.3709 54.3244 87.38 54.3154 87.389 54.3063C87.3981 54.2973 87.4071 54.2882 87.4162 54.2792C87.4252 54.2701 87.4343 54.261 87.4434 54.2519C87.4525 54.2429 87.4615 54.2338 87.4706 54.2247C87.4797 54.2156 87.4888 54.2065 87.4979 54.1974C87.507 54.1883 87.5161 54.1792 87.5252 54.1701C87.5343 54.161 87.5435 54.1519 87.5526 54.1428C87.5617 54.1336 87.5708 54.1245 87.58 54.1154C87.5891 54.1062 87.5982 54.0971 87.6074 54.0879C87.6165 54.0788 87.6257 54.0696 87.6348 54.0605C87.644 54.0513 87.6532 54.0422 87.6623 54.033C87.6715 54.0238 87.6807 54.0146 87.6899 54.0055C87.699 53.9963 87.7082 53.9871 87.7174 53.9779C87.7266 53.9687 87.7358 53.9595 87.745 53.9503C87.7542 53.9411 87.7634 53.9319 87.7726 53.9227C87.7818 53.9135 87.7911 53.9043 87.8003 53.895C87.8095 53.8858 87.8187 53.8766 87.828 53.8674C87.8372 53.8581 87.8464 53.8489 87.8557 53.8396C87.8649 53.8304 87.8742 53.8211 87.8834 53.8119C87.8927 53.8026 87.902 53.7934 87.9112 53.7841C87.9205 53.7748 87.9298 53.7656 87.939 53.7563C87.9483 53.747 87.9576 53.7377 87.9669 53.7285C87.9762 53.7192 87.9854 53.7099 87.9947 53.7006C88.004 53.6913 88.0133 53.682 88.0226 53.6727C88.0319 53.6634 88.0412 53.6541 88.0506 53.6448C88.0599 53.6355 88.0692 53.6261 88.0785 53.6168C88.0878 53.6075 88.0972 53.5982 88.1065 53.5888C88.1158 53.5795 88.1252 53.5702 88.1345 53.5608C88.1438 53.5515 88.1532 53.5421 88.1625 53.5328C88.1719 53.5234 88.1812 53.5141 88.1906 53.5047C88.2 53.4954 88.2093 53.486 88.2187 53.4766C88.2281 53.4673 88.2374 53.4579 88.2468 53.4485C88.2562 53.4392 88.2656 53.4298 88.2749 53.4204C88.2843 53.411 88.2937 53.4016 88.3031 53.3922C88.3125 53.3828 88.3219 53.3734 88.3313 53.364C88.3407 53.3546 88.3501 53.3452 88.3595 53.3358C88.3689 53.3264 88.3783 53.317 88.3877 53.3076C88.3971 53.2982 88.4066 53.2888 88.416 53.2793C88.4254 53.2699 88.4348 53.2605 88.4443 53.2511C88.4537 53.2416 88.4631 53.2322 88.4726 53.2228C88.482 53.2133 88.4915 53.2039 88.5009 53.1944C88.5103 53.185 88.5198 53.1755 88.5292 53.1661C88.5387 53.1566 88.5482 53.1472 88.5576 53.1377C88.5671 53.1283 88.5765 53.1188 88.586 53.1093C88.5955 53.0999 88.6049 53.0904 88.6144 53.0809C88.6239 53.0715 88.6334 53.062 88.6428 53.0525C88.6523 53.043 88.6618 53.0335 88.6713 53.0241C88.6808 53.0146 88.6903 53.0051 88.6997 52.9956C88.7092 52.9861 88.7187 52.9766 88.7282 52.9671C88.7377 52.9576 88.7472 52.9481 88.7567 52.9386C88.7662 52.9291 88.7757 52.9196 88.7853 52.9101C88.7948 52.9006 88.8043 52.8911 88.8138 52.8815C88.8233 52.872 88.8328 52.8625 88.8423 52.853C88.8519 52.8435 88.8614 52.8339 88.8709 52.8244C88.8804 52.8149 88.89 52.8054 88.8995 52.7958C88.909 52.7863 88.9186 52.7768 88.9281 52.7672C88.9376 52.7577 88.9472 52.7481 88.9567 52.7386C88.9663 52.7291 88.9758 52.7195 88.9854 52.71C88.9949 52.7004 89.0045 52.6909 89.014 52.6813C89.0236 52.6718 89.0331 52.6622 89.0427 52.6527C89.0522 52.6431 89.0618 52.6335 89.0713 52.624C89.0809 52.6144 89.0905 52.6049 89.1 52.5953C89.1096 52.5857 89.1192 52.5762 89.1287 52.5666C89.1383 52.557 89.1479 52.5474 89.1575 52.5379C89.167 52.5283 89.1766 52.5187 89.1862 52.5091C89.1958 52.4996 89.2053 52.49 89.2149 52.4804C89.2245 52.4708 89.2341 52.4612 89.2437 52.4517C89.2533 52.4421 89.2628 52.4325 89.2724 52.4229C89.282 52.4133 89.2916 52.4037 89.3012 52.3941C89.3108 52.3845 89.3204 52.3749 89.33 52.3653C89.3396 52.3558 89.3492 52.3462 89.3588 52.3366C89.3684 52.327 89.378 52.3174 89.3876 52.3078C89.3972 52.2982 89.4068 52.2886 89.4164 52.2789C89.426 52.2693 89.4356 52.2597 89.4452 52.2501C89.4548 52.2405 89.4644 52.2309 89.474 52.2213C89.4836 52.2117 89.4932 52.2021 89.5029 52.1925C89.5125 52.1829 89.5221 52.1732 89.5317 52.1636C89.5413 52.154 89.5509 52.1444 89.5605 52.1348C89.5702 52.1252 89.5798 52.1156 89.5894 52.1059C89.599 52.0963 89.6086 52.0867 89.6183 52.0771C89.6279 52.0675 89.6375 52.0578 89.6471 52.0482C89.6567 52.0386 89.6664 52.029 89.676 52.0193C89.6856 52.0097 89.6952 52.0001 89.7049 51.9905C89.7145 51.9808 89.7241 51.9712 89.7337 51.9616C89.7434 51.952 89.753 51.9423 89.7626 51.9327C89.7723 51.9231 89.7819 51.9134 89.7915 51.9038C89.8011 51.8942 89.8108 51.8846 89.8204 51.8749C89.83 51.8653 89.8397 51.8557 89.8493 51.846C89.8589 51.8364 89.8686 51.8268 89.8782 51.8171C89.8878 51.8075 89.8975 51.7979 89.9071 51.7882C89.9167 51.7786 89.9264 51.769 89.936 51.7593C89.9456 51.7497 89.9553 51.7401 89.9649 51.7304C89.9745 51.7208 89.9842 51.7112 89.9938 51.7015C90.0034 51.6919 90.0131 51.6823 90.0227 51.6726C90.0323 51.663 90.042 51.6534 90.0516 51.6437C90.0612 51.6341 90.0709 51.6245 90.0805 51.6148C90.0901 51.6052 90.0998 51.5956 90.1094 51.5859C90.119 51.5763 90.1287 51.5667 90.1383 51.557C90.1479 51.5474 90.1575 51.5378 90.1672 51.5282C90.1768 51.5185 90.1864 51.5089 90.1961 51.4993C90.2057 51.4896 90.2153 51.48 90.225 51.4704C90.2346 51.4607 90.2442 51.4511 90.2539 51.4415C90.2635 51.4318 90.2731 51.4222 90.2827 51.4126C90.2924 51.403 90.302 51.3933 90.3116 51.3837C90.3212 51.3741 90.3309 51.3645 90.3405 51.3548C90.3501 51.3452 90.3597 51.3356 90.3694 51.326C90.379 51.3163 90.3886 51.3067 90.3982 51.2971C90.4079 51.2875 90.4175 51.2779 90.4271 51.2682C90.4367 51.2586 90.4463 51.249 90.4559 51.2394C90.4656 51.2298 90.4752 51.2201 90.4848 51.2105C90.4944 51.2009 90.504 51.1913 90.5136 51.1817C90.5233 51.1721 90.5329 51.1625 90.5425 51.1529C90.5521 51.1432 90.5617 51.1336 90.5713 51.124C90.5809 51.1144 90.5905 51.1048 90.6001 51.0952C90.6097 51.0856 90.6193 51.076 90.6289 51.0664C90.6385 51.0568 90.6481 51.0472 90.6577 51.0376C90.6673 51.028 90.6769 51.0184 90.6865 51.0088C90.6961 50.9992 90.7057 50.9896 90.7153 50.98C90.7249 50.9704 90.7345 50.9608 90.7441 50.9512C90.7537 50.9416 90.7633 50.9321 90.7729 50.9225C90.7824 50.9129 90.792 50.9033 90.8016 50.8937C90.8112 50.8841 90.8208 50.8746 90.8304 50.865C90.8399 50.8554 90.8495 50.8458 90.8591 50.8362C90.8687 50.8267 90.8782 50.8171 90.8878 50.8075C90.8974 50.798 90.9069 50.7884 90.9165 50.7788C90.9261 50.7693 90.9356 50.7597 90.9452 50.7501C90.9548 50.7406 90.9643 50.731 90.9739 50.7214C90.9834 50.7119 90.993 50.7023 91.0026 50.6928C91.0121 50.6832 91.0217 50.6737 91.0312 50.6641C91.0408 50.6546 91.0503 50.645 91.0598 50.6355C91.0694 50.6259 91.0789 50.6164 91.0885 50.6069C91.098 50.5973 91.1075 50.5878 91.1171 50.5783C91.1266 50.5687 91.1361 50.5592 91.1457 50.5497C91.1552 50.5401 91.1647 50.5306 91.1742 50.5211C91.1838 50.5116 91.1933 50.502 91.2028 50.4925C91.2123 50.483 91.2218 50.4735 91.2314 50.464C91.2409 50.4545 91.2504 50.445 91.2599 50.4354C91.2694 50.4259 91.2789 50.4164 91.2884 50.4069C91.2979 50.3974 91.3074 50.3879 91.3169 50.3784C91.3264 50.369 91.3359 50.3595 91.3454 50.35C91.3548 50.3405 91.3643 50.331 91.3738 50.3215C91.3833 50.312 91.3928 50.3026 91.4022 50.2931C91.4117 50.2836 91.4212 50.2741 91.4307 50.2647C91.4401 50.2552 91.4496 50.2457 91.4591 50.2363C91.4685 50.2268 91.478 50.2174 91.4874 50.2079C91.4969 50.1984 91.5063 50.189 91.5158 50.1796C91.5252 50.1701 91.5347 50.1607 91.5441 50.1512C91.5536 50.1418 91.563 50.1323 91.5724 50.1229C91.5819 50.1135 91.5913 50.104 91.6007 50.0946C91.6101 50.0852 91.6196 50.0758 91.629 50.0664C91.6384 50.0569 91.6478 50.0475 91.6572 50.0381C91.6666 50.0287 91.676 50.0193 91.6854 50.0099C91.6948 50.0005 91.7042 49.9911 91.7136 49.9817C91.723 49.9723 91.7324 49.9629 91.7418 49.9535C91.7512 49.9441 91.7606 49.9348 91.77 49.9254C91.7793 49.916 91.7887 49.9066 91.7981 49.8973C91.8074 49.8879 91.8168 49.8785 91.8262 49.8692C91.8355 49.8598 91.8449 49.8504 91.8542 49.8411C91.8636 49.8317 91.8729 49.8224 91.8823 49.813C91.8916 49.8037 91.901 49.7944 91.9103 49.785C91.9196 49.7757 91.929 49.7664 91.9383 49.757C91.9476 49.7477 91.9569 49.7384 91.9663 49.7291C91.9756 49.7198 91.9849 49.7104 91.9942 49.7011C92.0035 49.6918 92.0128 49.6825 92.0221 49.6732C92.0314 49.6639 92.0407 49.6546 92.05 49.6454C92.0593 49.6361 92.0686 49.6268 92.0778 49.6175C92.0871 49.6082 92.0964 49.5989 92.1056 49.5897C92.1149 49.5804 92.1242 49.5711 92.1334 49.5619C92.1427 49.5526 92.152 49.5434 92.1612 49.5341C92.1704 49.5249 92.1797 49.5156 92.1889 49.5064C92.1982 49.4972 92.2074 49.4879 92.2166 49.4787C92.2259 49.4695 92.2351 49.4603 92.2443 49.451C92.2535 49.4418 92.2627 49.4326 92.2719 49.4234C92.2811 49.4142 92.2903 49.405 92.2995 49.3958C92.3087 49.3866 92.3179 49.3774 92.3271 49.3682C92.3363 49.359 92.3455 49.3499 92.3546 49.3407C92.3638 49.3315 92.373 49.3224 92.3821 49.3132C92.3913 49.304 92.4005 49.2949 92.4096 49.2857C92.4188 49.2766 92.4279 49.2674 92.437 49.2583C92.4462 49.2491 92.4553 49.24 92.4644 49.2309C92.4736 49.2218 92.4827 49.2126 92.4918 49.2035C92.5009 49.1944 92.51 49.1853 92.5191 49.1762C92.5282 49.1671 92.5373 49.158 92.5464 49.1489C92.5555 49.1398 92.5646 49.1307 92.5737 49.1216C92.5828 49.1126 92.5918 49.1035 92.6009 49.0944C92.61 49.0854 92.619 49.0763 92.6281 49.0672C92.6371 49.0582 92.6462 49.0491 92.6552 49.0401C92.6643 49.031 92.6733 49.022 92.6823 49.013C92.6914 49.004 92.7004 48.9949 92.7094 48.9859C92.7184 48.9769 92.7274 48.9679 92.7364 48.9589C92.7454 48.9499 92.7544 48.9409 92.7634 48.9319C92.7724 48.9229 92.7814 48.9139 92.7904 48.9049C92.7994 48.896 92.8083 48.887 92.8173 48.878C92.8263 48.8691 92.8352 48.8601 92.8442 48.8512C92.8531 48.8422 92.8621 48.8333 92.871 48.8243C92.8799 48.8154 92.8889 48.8065 92.8978 48.7975C92.9067 48.7886 92.9156 48.7797 92.9245 48.7708C92.9334 48.7619 92.9423 48.753 92.9512 48.7441C92.9601 48.7352 92.969 48.7263 92.9779 48.7174C92.9868 48.7085 92.9957 48.6997 93.0045 48.6908C93.0134 48.6819 93.0222 48.6731 93.0311 48.6642C93.0399 48.6554 93.0488 48.6465 93.0576 48.6377C93.0665 48.6289 93.0753 48.62 93.0841 48.6112C93.0929 48.6024 93.1018 48.5936 93.1106 48.5848C93.1194 48.576 93.1282 48.5672 93.137 48.5584C93.1458 48.5496 93.1545 48.5408 93.1633 48.532C93.1721 48.5232 93.1809 48.5145 93.1896 48.5057C93.1984 48.4969 93.2071 48.4882 93.2159 48.4794C93.2246 48.4707 93.2334 48.462 93.2421 48.4532C93.2508 48.4445 93.2596 48.4358 93.2683 48.4271C93.277 48.4183 93.2857 48.4096 93.2944 48.4009C93.3031 48.3922 93.3118 48.3836 93.3205 48.3749C93.3291 48.3662 93.3378 48.3575 93.3465 48.3488C93.3552 48.3402 93.3638 48.3315 93.3725 48.3229C93.3811 48.3142 93.3898 48.3056 93.3984 48.2969C93.407 48.2883 93.4156 48.2797 93.4243 48.2711C93.4329 48.2624 93.4415 48.2538 93.4501 48.2452C93.4587 48.2366 93.4673 48.228 93.4759 48.2195C93.4845 48.2109 93.493 48.2023 93.5016 48.1937C93.5102 48.1852 93.5187 48.1766 93.5273 48.1681C93.5358 48.1595 93.5444 48.151 93.5529 48.1424C93.5614 48.1339 93.57 48.1254 93.5785 48.1169C93.587 48.1083 93.5955 48.0998 93.604 48.0913C93.6125 48.0828 93.621 48.0744 93.6295 48.0659C93.6379 48.0574 93.6464 48.0489 93.6549 48.0405C93.6633 48.032 93.6718 48.0235 93.6802 48.0151C93.6887 48.0067 93.6971 47.9982 93.7055 47.9898C93.714 47.9814 93.7224 47.9729 93.7308 47.9645C93.7392 47.9561 93.7476 47.9477 93.756 47.9393L95.8773 50.0607Z" fill="#ED5338"/>
<path d="M14.6272 18.645L42.8863 40.4209C44.6721 41.7969 47.1579 41.8078 48.9556 40.4472L77.7633 18.645" stroke="#ED5338" stroke-width="3" stroke-linecap="round"/>
<path d="M36.3314 61.1182H16.8167" stroke="white" stroke-width="3" stroke-linecap="round"/>
<path d="M29.4439 51.9351H16.8167" stroke="white" stroke-width="3" stroke-linecap="round"/>
<path d="M89.8166 39L89.8167 16" stroke="#ED5338" stroke-width="3" stroke-linecap="round"/>
<path d="M89.8167 10.0355V7C89.8167 4.23857 87.5781 2 84.8167 2H7.00008C4.23866 2 2.00009 4.23858 2.00009 7V66.4497C2.00009 69.2111 4.23866 71.4497 7.00009 71.4497H79.4853" stroke="#ED5338" stroke-width="3" stroke-linecap="round"/>
</svg>
