<svg width="22" height="22" viewBox="0 0 22 22" fill="none" xmlns="http://www.w3.org/2000/svg">
<path fill-rule="evenodd" clip-rule="evenodd" d="M11 1C11.4869 1 11.8816 1.3947 11.8816 1.88158V10.1184H20.1184C20.6053 10.1184 21 10.5131 21 11C21 11.4869 20.6053 11.8816 20.1184 11.8816H11.8816V20.1184C11.8816 20.6053 11.4869 21 11 21C10.5131 21 10.1184 20.6053 10.1184 20.1184V11.8816H1.88158C1.3947 11.8816 1 11.4869 1 11C1 10.5131 1.3947 10.1184 1.88158 10.1184H10.1184V1.88158C10.1184 1.3947 10.5131 1 11 1Z" fill="#104236"/>
<path fill-rule="evenodd" clip-rule="evenodd" d="M9.61842 1.88158C9.61842 1.11855 10.237 0.5 11 0.5C11.763 0.5 12.3816 1.11855 12.3816 1.88158V9.61842H20.1184C20.8814 9.61842 21.5 10.237 21.5 11C21.5 11.763 20.8814 12.3816 20.1184 12.3816H12.3816V20.1184C12.3816 20.8814 11.763 21.5 11 21.5C10.237 21.5 9.61842 20.8814 9.61842 20.1184V12.3816H1.88158C1.11855 12.3816 0.5 11.763 0.5 11C0.5 10.237 1.11855 9.61842 1.88158 9.61842H9.61842V1.88158ZM11 1.5C10.7893 1.5 10.6184 1.67084 10.6184 1.88158V10.1184C10.6184 10.3946 10.3946 10.6184 10.1184 10.6184H1.88158C1.67084 10.6184 1.5 10.7893 1.5 11C1.5 11.2107 1.67084 11.3816 1.88158 11.3816H10.1184C10.3946 11.3816 10.6184 11.6054 10.6184 11.8816V20.1184C10.6184 20.3292 10.7893 20.5 11 20.5C11.2107 20.5 11.3816 20.3292 11.3816 20.1184V11.8816C11.3816 11.6054 11.6054 11.3816 11.8816 11.3816H20.1184C20.3292 11.3816 20.5 11.2107 20.5 11C20.5 10.7893 20.3292 10.6184 20.1184 10.6184H11.8816C11.6054 10.6184 11.3816 10.3946 11.3816 10.1184V1.88158C11.3816 1.67084 11.2107 1.5 11 1.5Z" fill="#104236"/>
</svg>
