<?xml version="1.0" encoding="utf-8"?>
<!-- Generator: Adobe Illustrator 24.1.2, SVG Export Plug-In . SVG Version: 6.00 Build 0)  -->
<svg version="1.1" id="Слой_1" xmlns="http://www.w3.org/2000/svg" xmlns:xlink="http://www.w3.org/1999/xlink" x="0px" y="0px"
	 viewBox="0 0 1923 1057" style="enable-background:new 0 0 1923 1057;" xml:space="preserve">
<style type="text/css">
	.st0{fill:#FFFFFF;}
	.st1{fill:url(#SVGID_1_);}
	.st2{fill:#314B58;}
	.st3{fill:#29404B;}
	.st4{fill:#E7D6A0;}
</style>
<rect x="1" class="st0" width="1920" height="1185"/>
<linearGradient id="SVGID_1_" gradientUnits="userSpaceOnUse" x1="961" y1="1186" x2="961" y2="1" gradientTransform="matrix(1 0 0 -1 0 1186)">
	<stop  offset="0" style="stop-color:#203642"/>
	<stop  offset="1" style="stop-color:#24516A;stop-opacity:0.71"/>
</linearGradient>
<rect x="1" class="st1" width="1920" height="1185"/>
<path class="st2" d="M1921,1185V775h-16.4v12.4h-10.2v15.7h-0.3v-15.7h-24.6v15.7h-7.9v7.9h-11.3v-57.4h-28.4v45.9h-13.6v7.9h-7.9
	V793h-15.9v-21.3h-11.3v-40.4h-28.4v33.5h-14.6V775h-14.8v-22.3h-17.9v-14.7h-15.9v15.7h-12.5V774h-11.3v-6.9h-11v-66.3h-13.6v-18
	h-55.6v-50.5h-11.3v12.4h-32.8v31.5h-45.3v103.8h-21.5v36.6h-12.5v-11.4h-10V700.9l-11.5-11.2h-6.7v-13.5h-31.7v13.5h-11.8v7.4
	l-6.4,6.1v49.5h-14.6v-9.1h-11.3v-30.7h-27.9l-17.4-17.5h-5.6v26.9h-15.9v12.4h-27.1v42.6h-34v-10.2h-13.6v-76.4h-29.4v-21.3h-7.9
	v29.2h-6.9v-7.9h-25.3v46.7l-12,11.7v-23.6h-54.3V757h-18.2v-9.9h-55.3v23.4h-19.2v-57.1h-28.4v45.9h-13.6v7.9h-7.9v-14.5h-15.9
	v-21.3h-11.3v-40.6h-28.4v33.8h-4.4V618.9h-13.6V610h-27.1v7.9h-18.2V692h-13.6v41.4h-10.2v-6.6l-14.6,14v-61.2h-61.2v89.9h-23.8
	v16.8h-9.2v12.4H662v-14.7h-3.3v-76.2h-14.6v-10.2h-12.5v-37.1h-45.3V776l-4.6,4.6V793h-12.3v-29.2h-12.5v-31.5h-15.9v-16.8h-22.5
	v-48.2h-61.2v105.4H447v-87.6h-21.5v14.7l-15.9,15.7v38.1h-49.7v33.8h-13.6v-71.8h-14.8v-85.8h-46.3L259,655.9v100h-21.5v-39.3
	h-36.1v16.8h-18.2V756h-18.2v-71.8h-46.3v44.9l-14.1,14v55.6H91.6v-21.3H73.4V821H44v20.3H27.1v-40.4H1V1185H1921z"/>
<path class="st3" d="M1910.5,835.6c-3.8,1.5-6.7,5.4-7.2,9.5c-2.3-1.5-5.4,1-5.9,3.6c-1.3-2-4.4-2.6-6.2-1.3
	c-2.1,1.3-2.8,4.1-1.5,6.2c-2-5.9-9.5-8.5-14.9-5.6c-5.4,2.8-7.4,10.8-3.6,15.9c-3.8,0.8-7.7,4.9-7.2,8.7c-1.3-1.8-3.8-2.6-5.9-1.5
	c-2,1-3.1,3.6-2.3,5.6c-1.5-5.4-7.4-8.5-13.1-7.2c-5.6,1.3-9.5,7.4-8.5,13.1c-3.8-0.3-8.7,2-9.2,5.9c-1.3-3.8-5.9-6.2-9.5-4.9
	c-3.8,1-6.4,5.6-5.4,9.5c-2.3-2-5.4-1.8-7.7,0.3c2.6-4.4,0.8-10.5-3.3-13.3c-4.4-2.8-10.3-2.1-14.1,1c-4.1,3.1-5.9,8.5-5.9,13.3
	c-2.1-2.1-4.6,0-7.2,1.3c-2.6,1.3-4.3,4.1-4.3,6.9c-1.5-2.8-5.6-4.1-8.5-2.6c-2.8,1.5-4.4,5.4-2.8,8.5c-2.3-1.8-5.9,0.3-8.7,1.3
	c-2.8,1.3-4.9,3.8-5.1,6.9c-2-3.8-7.2-5.6-11.5-4.9c-1,0.3-2,0.5-2.8,1c-0.5-2.8-1-6.2-1-9.5h0.8c1,0,2.1-0.8,2.1-2.1
	c0-1-0.8-2-2.1-2h-0.8V588h0.8c1,0,2.1-0.8,2.1-2.1c0-1-0.8-2-2.1-2h-0.8V273.8h0.8c1,0,2.1-0.8,2.1-2.1c0-1-0.8-2-2.1-2h-0.8v-15.4
	h1.8c1.3,5.6,3.8,11,8.7,13.8c7.7,4.9,17.2,3.8,23.8-1.3c9.5-7.2,14.6-20.8,22.8-29.2c6.9-7.2,18.2-12.8,27.7-6.9
	c4.4,2.8,7.2,8.2,3.6,12.8c-1,1.5-2.8,2.8-4.9,2.8c-1.8,0-3.8-1-4.6-2.8c-0.5-1.8,0.5-4.1,2.3-4.6c-0.3-2.1-1.8-3.6-3.8-3.6
	s-3.8,1.3-4.6,3.1c-0.8,1.8-1,3.8-0.3,5.6c1.3,3.8,4.9,6.9,9,7.4c0.3,0,0.5,0,0.8,0v2.8c-0.5,0.5-0.5,1.3-2.3,2.6
	c-2.8,2-9.5,4.1-12.3,7.2c-3.1,2.8-7.7,17.2-15.4,20h-8.7c-2.3,0-4.1,1.8-4.1,4.1c0,2.3,1.8,4.1,4.1,4.1h4.9c0,1.3,0.5,2.8,2.6,2.8
	h1c0,0,0,10.5,0,19.7s0.5,24.6,11.8,35.4c7.7,7.4,11,11,12.3,12.3c0.5,0.5,0.8,1.3,0.8,2c0,1.5,1.3,2.8,2.8,2.8c0,1.3,1,2.3,2.3,2.6
	v5.9h-1.3c-1,0-2,1-2,2s1,2.1,2,2.1h1.3V397c0,1,0.8,1.8,1.8,1.8c1,0,1.8-0.8,1.8-1.8v-17.2h1.3c1,0,2.1-1,2.1-2.1s-1-2-2.1-2h-1.3
	v-5.9c1.3-0.3,2.3-1.3,2.3-2.6c1.5,0,2.8-1.3,2.8-2.8c0-0.8,0.3-1.5,0.8-2c1.3-1.3,4.6-4.9,12.3-12.3c11.3-11,11.8-26.1,11.8-35.4
	s0-19.7,0-19.7h1c2.1,0,2.3-1.8,2.6-2.8h4.9c2.3,0,4.1-1.8,4.1-4.1c0-2.3-1.8-4.1-4.1-4.1h-8.5c-7.7-2.8-12.6-16.9-15.4-20
	c-3.1-2.8-9.7-4.9-12.3-7.2c-1.8-1.3-1.8-2.1-2.3-2.6v-3.1c2.8-0.5,5.6-2.1,7.4-4.4c0.5-0.5,0.8-1.3,1.3-1.8c0.3,0.3,0.8,0.3,1,0.5
	c1.5,0.3,3.3-1.3,3.8-2.8c1,1,2.8,1.3,4.1,0.5s2.3-1.8,2.1-3.3c-1,1-2.8,1-4.1,0.3c-1.3-0.8-2.3-1.8-3.6-2.6
	c-0.5-0.5-1.3-0.8-1.8-0.8c0-0.5-0.3-1-0.3-1.5c-1.3-6.2-6.4-10.8-12.5-12.6c-5.9-1.8-12.6-0.5-17.9,2.3c-5.4,2.8-10,7.2-14.1,11.8
	c-4.1,4.6-7.4,9.7-11.3,14.9c-3.3,4.4-7.2,9-12.3,11.3c-5.1,2.3-11.8,2.3-15.6-1.5c-2.1-2.1-3.1-4.9-3.8-7.7h0.5c0.5,0,1-0.5,1-1
	v-14.4c0-0.5-0.5-1-1-1h-0.8c1.3-4.1,4.1-7.9,8.2-9.7c3.8-1.8,9-1.3,12,1.8c3.1,3.1,2.8,9-0.5,11.5c-0.5-1.8-3.1-2.1-4.4-1
	c-1.3,1.3-1.3,3.3-0.3,4.9c1,1.3,3.1,1.8,4.9,1.5c1.8-0.5,3.3-1.5,4.4-3.1c3.3-4.4,2.8-11-0.8-15.1c-3.6-4.1-9.7-5.6-15.1-4.4
	s-9.7,5.4-12.3,10c-0.5,1-1,2.1-1.3,3.1h-2.8v-7.7c0-4.4-3.6-7.9-7.9-7.9h-0.3v-1.5c0-0.5-0.5-1-1-1h-3.6v-4.1
	c2.6-0.5,4.3-2.8,4.3-5.4c0-2.6-1.8-4.9-4.3-5.4V202c0.8-0.3,1.5-0.8,2.3-1.8c1.5-2.1-3.6-8.2-3.6-8.2s-5.1,6.2-3.6,8.2
	c0.8,1,1.8,1.5,2.3,1.8v1.8c-2.6,0.5-4.3,2.8-4.3,5.4c0,2.6,1.8,4.9,4.3,5.4v4.6h-3.6c-0.5,0-1,0.5-1,1v1.5h-0.3
	c-4.4,0-7.9,3.6-7.9,7.9v7.7h-2.8c-0.5-1-0.8-2.1-1.3-3.1c-2.6-4.9-7.2-8.7-12.3-10c-5.4-1.3-11.3,0.3-15.1,4.4
	c-3.6,4.1-4.1,10.8-0.8,15.1c1,1.5,2.6,2.6,4.4,3.1c1.8,0.5,3.8,0,4.9-1.5c1-1.3,1-3.6-0.3-4.9c-1.3-1.3-3.8-0.8-4.4,1
	c-3.3-2.8-3.6-8.5-0.5-11.5c3.1-3.1,8.2-3.6,12.1-1.8c3.8,1.8,6.7,5.6,8.2,9.7h-0.3c-0.5,0-1,0.5-1,1V254c0,0.5,0.5,1,1,1h0.5
	c-0.5,2.8-1.8,5.6-3.8,7.7c-4.1,3.8-10.8,3.8-15.6,1.5c-5.1-2.3-9-6.9-12.3-11.3c-3.8-4.9-7.2-10-11.3-14.9
	c-4.1-4.6-8.7-9-14.1-11.8c-5.4-2.8-12-3.8-17.9-2.3c-5.9,1.8-11,6.4-12.6,12.6c0,0.5-0.3,1-0.3,1.5c-0.8,0.3-1.3,0.5-1.8,0.8
	c-1.3,0.8-2.3,2.1-3.6,2.6c-1.3,0.8-3.1,0.8-4.1-0.3c-0.3,1.5,0.8,2.6,2.1,3.3s3.1,0.5,4.1-0.5c0.5,1.5,2.3,3.1,3.8,2.8
	c0.5,0,0.8-0.3,1-0.5c0.3,0.5,0.8,1.3,1.3,1.8c1.8,2.3,4.6,3.8,7.4,4.4v3.1c-0.5,0.5-0.5,1.3-2.3,2.6c-2.8,2.1-9.5,4.1-12.3,7.2
	c-3.1,2.8-7.7,17.2-15.4,20h-8.5c-2.3,0-4.1,1.8-4.1,4.1c0,2.3,1.8,4.1,4.1,4.1h4.9c0,1.3,0.5,2.8,2.6,2.8h1c0,0,0,10.5,0,19.7
	s0.5,24.6,11.8,35.4c7.7,7.4,11,11,12.3,12.3c0.5,0.5,0.8,1.3,0.8,2.1c0,1.5,1.3,2.8,2.8,2.8c0,1.3,1,2.3,2.3,2.6v5.9h-1.3
	c-1,0-2.1,1-2.1,2.1s1,2,2.1,2h1.3v17.2c0,1,0.8,1.8,1.8,1.8c1,0,1.8-0.8,1.8-1.8v-17.2h1.3c1,0,2.1-1,2.1-2s-1-2.1-2.1-2.1h-1.3
	v-5.9c1.3-0.3,2.3-1.3,2.3-2.6c1.5,0,2.8-1.3,2.8-2.8c0-0.8,0.3-1.5,0.8-2.1c1.3-1.3,4.6-4.9,12.3-12.3c11.3-11,11.8-26.1,11.8-35.4
	s0-19.7,0-19.7h1c2,0,2.3-1.8,2.6-2.8h4.9c2.3,0,4.1-1.8,4.1-4.1c0-2.3-1.8-4.1-4.1-4.1h-8.4c-7.7-2.8-12.6-16.9-15.4-20
	c-3.1-2.8-9.7-4.9-12.3-7.2c-1.8-1.3-1.8-2.1-2.3-2.6v-2.8c0.3,0,0.5,0,0.8,0c4.1-0.5,7.7-3.6,9-7.4c0.5-1.8,0.5-4.1-0.3-5.6
	c-0.8-1.8-2.8-3.1-4.6-3.1c-2.1,0-3.6,1.8-3.8,3.6c1.8,0.5,3.1,2.8,2.3,4.6c-0.5,1.8-2.6,3.1-4.6,2.8c-1.8,0-3.6-1.3-4.9-2.8
	c-3.3-4.6-0.8-10.3,3.6-12.8c9.5-5.9,20.8-0.3,27.7,6.9c8.2,8.5,13.3,22,22.8,29.2c6.7,4.9,16.2,6.2,23.8,1.3
	c4.9-3.1,7.4-8.5,8.7-13.8h1.8v15.4h-0.8c-1,0-2.1,0.8-2.1,2.1c0,1,0.8,2,2.1,2h0.8v310.4h-0.8c-1,0-2.1,0.8-2.1,2c0,1,0.8,2,2.1,2
	h0.8v310.4h-0.8c-1,0-2.1,0.8-2.1,2c0,1,0.8,2.1,2.1,2.1h0.8c0,8.7-2.8,15.9-4.1,18.7h-2.3c-1.5,0-2.8,1.3-2.8,2.8v0.3
	c0,1.5,1.3,2.8,2.8,2.8h1.5l-3.3,28.2c-2-2.6-5.1-4.6-8.4-4.9c-5.1-0.5-10.3,2.3-12.6,6.9c-3.6-3.3-10.5-1.8-12.8,2.3
	c2.8-6.4-1-14.6-7.7-16.7c-6.7-2-14.3,3.3-15.1,10.3c-2-2.8-6.2-4.1-9.2-2.8c-3.3,1.3-5.6,4.9-5.1,8.2c-1.8-2.8-4.4-2.8-7.4-1.8
	c-2.6,0.8-4.6,3.1-5.1,5.9c0-3.6-3.6-6.7-7.2-7.2c-4.1-0.5-8.2,1.8-11.3,4.4c-6.7,5.6-11.3,14.1-12,22.8c-3.8-1.8-8.5-1.3-11.8,1.3
	c-3.3,2.6-4.9,6.9-4.1,11c-1.8-1.5-6.4,0.3-8.5,1c-2.3,1-3.8,3.1-4.1,5.4c-1-6.1-8.7-10.5-14.3-7.9c-3.6,1.5-6.2,5.4-10.3,6.4
	c-2.1,0.5-4.4,0.3-6.7,0.3c-8.2,0.3-15.9,6.2-17.9,14.1c-1.8-2.8-7.4,0.8-9.2,3.6c-1.8,2.8-1.8,6.4-1.5,9.7
	c-4.9-2.6-11.5-1-14.6,3.6c-3.1,4.6-2.3,11.3,1.8,14.9c-4.1-2.3-10.8,2.3-12.3,6.7c-3.3-4.9-10.5-6.9-15.9-4.4
	c-3.1,1.3-5.4,4.1-6.4,7.2H482c-1.3-3.1-3.6-5.6-6.4-7.2c-5.4-2.6-12.6-0.5-15.9,4.4c-1.5-4.4-8.5-9-12.3-6.7
	c4.1-3.6,4.9-10.5,1.8-14.9c-3.1-4.6-9.7-6.2-14.6-3.6c0.3-3.3,0.3-6.9-1.5-9.7c-1.8-2.8-7.4-6.4-9.2-3.6c-2-8-9.7-13.8-17.9-14.1
	c-2.3,0-4.4,0.3-6.7-0.3c-3.8-1-6.4-4.6-10.3-6.4c-5.6-2.6-13.3,1.5-14.4,7.9c-0.3-2.3-2.1-4.6-4.1-5.4c-2.3-1-6.7-2.6-8.5-1
	c0.8-4.1-0.8-8.5-4.1-11c-3.3-2.6-7.9-3.1-11.8-1.3c-0.8-8.7-5.4-17.2-12-22.8c-3.3-2.8-7.2-4.9-11.3-4.4c-3.6,0.5-7.2,3.6-7.2,7.2
	c-0.5-2.8-2.6-5.1-5.1-5.9c-3.1-1-5.9-0.8-7.4,1.8c0.3-3.6-2-6.9-5.1-8.2c-3.3-1.3-7.2,0-9.2,2.8c-0.8-6.9-8.5-12-15.1-10.3
	c-6.7,1.8-10.5,10.3-7.7,16.7c-2.3-4.1-9.2-5.6-12.8-2.3c-2.3-4.6-7.4-7.4-12.6-6.9c-3.3,0.3-6.4,2.3-8.5,4.9l-3.3-28.2h1.5
	c1.5,0,2.8-1.3,2.8-2.8v-0.3c0-1.5-1.3-2.8-2.8-2.8h-2.3c-1.3-2.8-3.8-10-4.1-18.7h0.8c1,0,2.1-0.8,2.1-2.1c0-1-0.8-2-2.1-2H224V588
	h0.8c1,0,2.1-0.8,2.1-2.1c0-1-0.8-2-2.1-2H224V273.8h0.8c1,0,2.1-0.8,2.1-2.1c0-1-0.8-2-2.1-2H224v-15.4h1.8
	c1.3,5.6,3.8,11,8.7,13.8c7.7,4.9,17.2,3.8,23.8-1.3c9.5-7.2,14.6-20.8,22.8-29.2c6.9-7.2,18.2-12.8,27.7-6.9
	c4.4,2.8,7.2,8.2,3.6,12.8c-1,1.5-2.8,2.8-4.9,2.8c-1.8,0-3.8-1-4.6-2.8c-0.5-1.8,0.5-4.1,2.3-4.6c-0.3-2.1-1.8-3.6-3.8-3.6
	c-2,0-3.8,1.3-4.6,3.1c-0.8,1.8-1,3.8-0.3,5.6c1.3,3.8,4.9,6.9,9,7.4c0.3,0,0.5,0,0.8,0v2.8c-0.5,0.5-0.5,1.3-2.3,2.6
	c-2.8,2-9.5,4.1-12.3,7.2s-7.7,17.2-15.4,20h-8.5c-2.3,0-4.1,1.8-4.1,4.1c0,2.3,1.8,4.1,4.1,4.1h4.9c0,1.3,0.5,2.8,2.6,2.8h1
	c0,0,0,10.5,0,19.7s0.5,24.6,11.8,35.4c7.7,7.4,11,11,12.3,12.3c0.5,0.5,0.8,1.3,0.8,2c0,1.5,1.3,2.8,2.8,2.8c0,1.3,1,2.3,2.3,2.6
	v5.9H305c-1,0-2,1-2,2s1,2.1,2,2.1h1.3V397c0,1,0.8,1.8,1.8,1.8c1,0,1.8-0.8,1.8-1.8v-17.2h1.3c1,0,2.1-1,2.1-2.1s-1-2-2.1-2h-1.3
	v-5.9c1.3-0.3,2.3-1.3,2.3-2.6c1.5,0,2.8-1.3,2.8-2.8c0-0.8,0.3-1.5,0.8-2c1.3-1.3,4.6-4.9,12.3-12.3c11.3-11,11.8-26.1,11.8-35.4
	s0-19.7,0-19.7h1c2.1,0,2.3-1.8,2.6-2.8h4.9c2.3,0,4.1-1.8,4.1-4.1c0-2.3-1.8-4.1-4.1-4.1h-8.5c-7.7-2.8-12.6-16.9-15.4-20
	c-3.1-2.8-9.7-4.9-12.3-7.2c-1.8-1.3-1.8-2.1-2.3-2.6v-3.1c2.8-0.5,5.6-2.1,7.4-4.4c0.5-0.5,0.8-1.3,1.3-1.8c0.3,0.3,0.8,0.3,1,0.5
	c1.5,0.3,3.3-1.3,3.8-2.8c1,1,2.8,1.3,4.1,0.5c1.3-0.8,2.3-1.8,2-3.3c-1,1-2.8,1-4.1,0.3c-1.3-0.8-2.3-1.8-3.6-2.6
	c-0.5-0.5-1.3-0.8-1.8-0.8c0-0.5-0.3-1-0.3-1.5c-1.3-6.2-6.4-10.8-12.6-12.6c-5.9-1.8-12.6-0.5-17.9,2.3c-5.4,2.8-10,7.2-14.1,11.8
	c-4.1,4.6-7.4,9.7-11.3,14.9c-3.3,4.4-7.2,9-12.3,11.3c-5.1,2.3-11.8,2.3-15.6-1.5c-2.1-2.1-3.1-4.9-3.8-7.7h0.5c0.5,0,1-0.5,1-1
	v-14.4c0-0.5-0.5-1-1-1h-0.3c1.3-4.1,4.1-7.9,8.2-9.7c3.8-1.8,9-1.3,12,1.8c3.1,3.1,2.8,9-0.5,11.5c-0.5-1.8-3.1-2.1-4.4-1
	c-1.8,1.5-1.8,3.6-0.5,5.1c1,1.3,3.1,1.8,4.9,1.5c1.5-0.5,3.1-1.5,4.1-3.1c3.3-4.4,2.8-11-0.8-15.1c-3.6-4.1-9.7-5.6-15.1-4.4
	c-5.4,1.3-9.7,5.4-12.3,10c-0.5,1-1,2.1-1.3,3.1H224v-7.7c0-4.4-3.6-7.9-7.9-7.9h-0.3v-1.5c0-0.5-0.5-1-1-1h-3.6v-4.4
	c2.6-0.5,4.4-2.8,4.4-5.4c0-2.6-1.8-4.9-4.4-5.4V202c0.8-0.3,1.5-0.8,2.3-1.8c1.5-1.8-3.8-7.9-3.8-7.9s-5.1,6.2-3.6,8.2
	c0.8,1,1.8,1.5,2.3,1.8v1.8c-2.6,0.5-4.4,2.8-4.4,5.4s1.8,4.9,4.4,5.4v4.6h-3.6c-0.5,0-1,0.5-1,1v1.5h-0.3c-4.4,0-7.9,3.6-7.9,7.9
	v7.7h-2.8c-0.5-1-0.8-2.1-1.3-3.1c-2.6-4.9-7.2-8.7-12.3-10c-5.4-1.3-11.3,0.3-15.1,4.4c-3.6,4.1-4.1,10.8-0.8,15.1
	c1,1.5,2.6,2.6,4.4,3.1c1.8,0.5,3.8,0,4.9-1.5c1-1.3,1-3.6-0.3-4.9c-1.3-1.3-3.8-0.8-4.4,1c-3.8-3.3-3.8-9-1-12.3
	c3.1-3.1,8.2-3.6,12-1.8c3.8,1.8,6.7,5.6,8.2,9.7h-0.3c-0.5,0-1,0.5-1,1v15.1c0,0.5,0.5,1,1,1h0.5c-0.5,2.8-1.8,5.6-3.8,7.7
	c-4.1,3.8-10.8,3.8-15.6,1.5c-5.1-2.3-9-6.9-12.3-11.3c-3.8-4.9-7.2-10-11.3-14.9c-4.1-4.6-8.7-9-14.1-11.8
	c-5.4-2.8-12-3.8-17.9-2.3c-5.9,1.8-11,6.4-12.6,12.6c0,0.5-0.3,1-0.3,1.5c-0.8,0.3-1.3,0.5-1.8,0.8c-1.3,0.8-2.3,2.1-3.6,2.6
	c-1.3,0.8-3.1,0.8-4.1-0.3c-0.3,1.5,0.8,2.6,2.1,3.3c1.3,0.8,3.1,0.5,4.1-0.5c0.5,1.5,2.3,3.1,3.8,2.8c0.5,0,0.8-0.3,1-0.5
	c0.3,0.5,0.8,1.3,1.3,1.8c1.8,2.3,4.6,3.8,7.4,4.4v3.1c-0.5,0.5-0.5,1.3-2.3,2.6c-2.8,2.1-9.5,4.1-12.3,7.2
	c-3.1,2.8-7.7,17.2-15.4,20h-8.5c-2.3,0-4.1,1.8-4.1,4.1s1.8,4.1,4.1,4.1h4.9c0,1.3,0.5,2.8,2.6,2.8h1c0,0,0,10.5,0,19.7
	c0,9.2,0.5,24.6,11.8,35.4c7.7,7.4,11,11,12.3,12.3c0.5,0.5,0.8,1.3,0.8,2c0,1.5,1.3,2.8,2.8,2.8c0,1.3,1,2.3,2.3,2.6v5.9h-1.3
	c-1,0-2.1,1-2.1,2.1s1,2.1,2.1,2.1h1.3v17.2c0,1,0.8,1.8,1.8,1.8s1.8-0.8,1.8-1.8v-17.2h1.3c1,0,2-1,2-2.1s-1-2.1-2-2.1h-1.3v-5.9
	c1.3-0.3,2.3-1.3,2.3-2.6c1.5,0,2.8-1.3,2.8-2.8c0-0.8,0.3-1.5,0.8-2c1.3-1.3,4.6-4.9,12.3-12.3c11.3-11,11.8-26.1,11.8-35.4
	c0-9.2,0-19.7,0-19.7h1c2.1,0,2.3-1.8,2.6-2.8h4.4c2.3,0,4.1-1.8,4.1-4.1s-1.8-4.1-4.1-4.1h-8.5c-7.7-2.8-12.6-16.9-15.4-20
	c-3.1-2.8-9.7-4.9-12.3-7.2c-1.8-1.3-1.8-2.1-2.3-2.6v-2.8c0.3,0,0.5,0,0.8,0c4.1-0.5,7.7-3.6,9-7.4c0.5-1.8,0.5-4.1-0.3-5.6
	c-0.8-1.8-2.8-3.1-4.6-3.1c-2.1,0-3.6,1.8-3.8,3.6c1.8,0.5,3.1,2.8,2.3,4.6c-0.8,1.8-2.6,3.1-4.6,2.8c-1.8,0-3.6-1.3-4.9-2.8
	c-3.3-4.6-0.8-10.3,3.6-12.8c9.5-5.9,20.8-0.3,27.7,6.9c8.2,8.5,13.3,22,22.8,29.2c6.7,4.9,16.1,6.2,23.8,1.3
	c4.9-3.1,7.4-8.5,8.7-13.8h1.8v15.4h-0.3c-1,0-2,0.8-2,2.1c0,1,0.8,2.1,2,2.1h0.8v310.4h-0.8c-1,0-2,0.8-2,2c0,1,0.8,2.1,2,2.1h0.8
	v310.4h-0.8c-1,0-2,0.8-2,2.1c0,1,0.8,2.1,2,2.1h0.8c0,3.6-0.5,6.7-1,9.5c-1-0.5-1.8-0.8-2.8-1c-4.4-0.8-9.5,1-11.5,4.9
	c-0.3-3.1-2.3-5.6-5.1-6.9c-2.8-1.3-6.2-3.1-8.7-1.3c1.5-3.1,0-6.9-2.8-8.5c-2.8-1.5-6.9-0.3-8.5,2.6c0-2.8-1.8-5.6-4.4-6.9
	c-2.6-1.3-5.1-3.1-7.2-1.3c0.3-5.1-1.8-10.3-5.9-13.3c-4.1-3.1-10-3.8-14.1-1c-4.4,2.8-6.1,9-3.3,13.3c-2.3-2-5.4-2.3-7.7-0.3
	c1-3.8-1.5-8.2-5.4-9.5c-3.8-1-8.5,1.3-9.5,4.9c-0.5-3.6-5.6-6.2-9.2-5.9c1-5.6-2.8-11.5-8.5-13.1c-5.6-1.3-11.5,1.8-13.1,7.2
	c0.8-2-0.3-4.6-2.3-5.6c-2.1-1-4.6-0.3-5.9,1.5c0.5-3.8-3.3-7.9-7.2-8.7c3.6-4.9,1.8-13.1-3.6-15.9c-5.4-2.8-12.8,0-14.9,5.6
	c1-2.1,0.5-4.9-1.5-6.2c-2.1-1.3-4.9-0.5-6.2,1.3c-0.5-2.6-3.8-5.1-5.9-3.6c-0.3-4.1-3.1-7.9-7.2-9.5c-3.8-1.5-8.7-0.5-11.5,2.3
	V1185h1922V837.6C1918.9,834.8,1914.3,834,1910.5,835.6z M1793.9,350.9c-2.8,1.5-13.1-16.1-13.1-26.9v-21.8c0-2.8,2.3-4.9,4.9-4.9
	c2.8,0,4.9,2.3,4.9,4.9V323C1790.5,331.7,1796.4,349.4,1793.9,350.9z M1830.5,322.7V302c0-2.8,2.3-4.9,4.9-4.9
	c2.8,0,4.9,2.3,4.9,4.9v21.8c0,10.8-10.5,28.4-13.1,26.9C1824.6,349.1,1830.5,331.7,1830.5,322.7z M1826.7,302.2v22
	c0,7.4-5.6,26.9-16.2,26.9c-10.5,0-16.1-19.5-16.1-26.9v-22c0-5.1,7.2-4.9,16.1-4.9S1826.7,297.1,1826.7,302.2z M1597.3,350.9
	c-2.8,1.5-13.1-16.1-13.1-26.9v-21.8c0-2.8,2.3-4.9,4.9-4.9c2.8,0,4.9,2.3,4.9,4.9V323C1594,331.7,1599.9,349.4,1597.3,350.9z
	 M1634,322.7V302c0-2.8,2.3-4.9,4.9-4.9c2.8,0,4.9,2.3,4.9,4.9v21.8c0,10.8-10.5,28.4-13.1,26.9C1628.1,349.1,1634,331.7,1634,322.7
	z M1630.1,302.2v22c0,7.4-5.6,26.9-16.1,26.9c-10.5,0-16.2-19.5-16.2-26.9v-22c0-5.1,7.2-4.9,16.2-4.9S1630.1,297.1,1630.1,302.2z
	 M291.1,350.9c-2.8,1.5-13.1-16.1-13.1-26.9v-21.8c0-2.8,2.3-4.9,4.9-4.9c2.8,0,4.9,2.3,4.9,4.9V323
	C288,331.7,293.9,349.4,291.1,350.9z M328,322.7V302c0-2.8,2.3-4.9,4.9-4.9c2.8,0,4.9,2.3,4.9,4.9v21.8c0,10.8-10.5,28.4-13.1,26.9
	C322.1,349.1,328,331.7,328,322.7z M323.9,302.2v22c0,7.4-5.6,26.9-16.1,26.9s-16.1-19.5-16.1-26.9v-22c0-5.1,7.2-4.9,16.1-4.9
	S323.9,297.1,323.9,302.2z M94.6,350.9c-2.8,1.5-13.1-16.1-13.1-26.9v-21.8c0-2.8,2.3-4.9,4.9-4.9c2.8,0,4.9,2.3,4.9,4.9V323
	C91.5,331.7,97.4,349.4,94.6,350.9z M131.5,322.7V302c0-2.8,2.3-4.9,4.9-4.9c2.8,0,4.9,2.3,4.9,4.9v21.8c0,10.8-10.5,28.4-13.1,26.9
	C125.6,349.1,131.5,331.7,131.5,322.7z M127.6,302.2v22c0,7.4-5.6,26.9-16.1,26.9s-16.1-19.5-16.1-26.9v-22c0-5.1,7.2-4.9,16.1-4.9
	C120.4,297.3,127.6,297.1,127.6,302.2z"/>
<path class="st4" d="M487,249.6c-1.1,0.3-2.2,0.6-3.2,0.9c-0.7,0.2-1.3,0.4-2,0.6c-1.1,0.3-1.8,1.1-2.2,2.2c-0.4,1.3-0.8,2.6-1.3,4
	c-0.1,0.3-0.2,0.5-0.3,0.8c-0.3-0.1-0.2-0.3-0.3-0.4c-0.5-1.4-0.9-2.8-1.3-4.2c-0.4-1.2-1.2-2-2.5-2.4c-1.4-0.4-2.8-0.8-4.2-1.2
	c-0.2-0.1-0.5-0.1-0.7-0.3c0.1-0.2,0.2-0.2,0.4-0.2c1.5-0.4,3-0.8,4.4-1.3c1.4-0.4,2.2-1.2,2.6-2.5c0.4-1.4,0.9-2.9,1.4-4.3
	c0-0.1,0-0.2,0.2-0.3c0.2,0.1,0.2,0.3,0.2,0.4c0.4,1.3,0.9,2.6,1.2,4c0.4,1.5,1.4,2.4,2.9,2.8c1.3,0.4,2.7,0.7,4,1.1
	C486.6,249.3,486.8,249.3,487,249.6z"/>
<path class="st4" d="M1650,538.6c-1.1,0.3-2.2,0.6-3.2,0.9c-0.7,0.2-1.3,0.4-2,0.6c-1.2,0.3-1.9,1.1-2.2,2.2c-0.4,1.3-0.8,2.6-1.3,4
	c-0.1,0.3-0.2,0.5-0.3,0.8c-0.3-0.1-0.3-0.3-0.3-0.4c-0.5-1.4-0.9-2.8-1.3-4.2c-0.4-1.2-1.2-2-2.5-2.4c-1.4-0.4-2.8-0.8-4.2-1.2
	c-0.3-0.1-0.5-0.1-0.7-0.3c0.1-0.2,0.3-0.2,0.4-0.2c1.5-0.4,3-0.8,4.4-1.3c1.4-0.4,2.2-1.2,2.6-2.5c0.4-1.4,0.9-2.9,1.3-4.3
	c0-0.1,0-0.2,0.2-0.3c0.2,0.1,0.2,0.3,0.2,0.4c0.4,1.3,0.9,2.6,1.2,4c0.4,1.5,1.4,2.4,2.9,2.8c1.3,0.4,2.7,0.7,4,1.1
	C1649.6,538.3,1649.8,538.3,1650,538.6z"/>
<path class="st4" d="M1045,567.6c-1.1,0.3-2.2,0.6-3.2,0.9c-0.7,0.2-1.3,0.4-2,0.6c-1.2,0.3-1.9,1.1-2.2,2.2c-0.4,1.3-0.8,2.6-1.3,4
	c-0.1,0.3-0.2,0.5-0.3,0.8c-0.3-0.1-0.3-0.3-0.3-0.4c-0.5-1.4-0.9-2.8-1.3-4.2c-0.4-1.2-1.2-2-2.5-2.4c-1.4-0.4-2.8-0.8-4.2-1.2
	c-0.3-0.1-0.5-0.1-0.7-0.3c0.1-0.2,0.3-0.2,0.4-0.2c1.5-0.4,3-0.8,4.4-1.3c1.4-0.4,2.2-1.2,2.6-2.5c0.4-1.4,0.9-2.9,1.3-4.3
	c0-0.1,0-0.2,0.2-0.3c0.2,0.1,0.2,0.3,0.2,0.4c0.4,1.3,0.9,2.6,1.2,4c0.4,1.5,1.4,2.4,2.9,2.8c1.3,0.4,2.7,0.7,4,1.1
	C1044.6,567.3,1044.8,567.3,1045,567.6z"/>
<path class="st4" d="M883,225.6c-1.6,0.4-3.1,0.9-4.7,1.3c-1,0.3-1.9,0.6-2.8,0.9c-1.7,0.5-2.7,1.6-3.2,3.2
	c-0.6,1.9-1.2,3.9-1.8,5.8c-0.1,0.4-0.3,0.8-0.4,1.2c-0.4-0.1-0.4-0.4-0.4-0.6c-0.7-2.1-1.3-4.1-1.9-6.2c-0.6-1.8-1.8-3-3.7-3.5
	c-2-0.6-4-1.2-6.1-1.8c-0.4-0.1-0.7-0.2-1-0.4c0.1-0.2,0.4-0.2,0.6-0.3c2.1-0.6,4.3-1.2,6.4-1.8c2-0.6,3.2-1.8,3.8-3.7
	c0.6-2.1,1.3-4.2,1.9-6.3c0-0.1,0-0.3,0.2-0.4c0.3,0.1,0.2,0.4,0.3,0.6c0.6,1.9,1.2,3.9,1.8,5.8c0.6,2.2,2,3.5,4.2,4.1
	c1.9,0.5,3.9,1.1,5.8,1.6C882.4,225.2,882.7,225.2,883,225.6z"/>
<path class="st4" d="M393,427.5c-0.5,0.1-1,0.2-1.4,0.4c-0.3,0.1-0.6,0.2-0.9,0.2c-0.5,0.1-0.8,0.5-1,0.9c-0.2,0.5-0.4,1.1-0.6,1.6
	c0,0.1-0.1,0.2-0.1,0.3c-0.1,0-0.1-0.1-0.1-0.2c-0.2-0.6-0.4-1.1-0.6-1.7c-0.2-0.5-0.6-0.8-1.1-1c-0.6-0.2-1.2-0.3-1.9-0.5
	c-0.1,0-0.2,0-0.3-0.1c0-0.1,0.1-0.1,0.2-0.1c0.7-0.2,1.3-0.3,2-0.5c0.6-0.2,1-0.5,1.2-1c0.2-0.6,0.4-1.2,0.6-1.8c0,0,0-0.1,0.1-0.1
	c0.1,0,0.1,0.1,0.1,0.2c0.2,0.5,0.4,1.1,0.6,1.6c0.2,0.6,0.6,1,1.3,1.1c0.6,0.1,1.2,0.3,1.8,0.5C392.8,427.4,392.9,427.4,393,427.5z
	"/>
<path class="st4" d="M482,579.5c-0.5,0.1-1,0.2-1.4,0.4c-0.3,0.1-0.6,0.2-0.9,0.2c-0.5,0.1-0.8,0.5-1,0.9c-0.2,0.5-0.4,1.1-0.6,1.6
	c0,0.1-0.1,0.2-0.1,0.3c-0.1,0-0.1-0.1-0.1-0.2c-0.2-0.6-0.4-1.1-0.6-1.7c-0.2-0.5-0.6-0.8-1.1-1c-0.6-0.2-1.2-0.3-1.9-0.5
	c-0.1,0-0.2,0-0.3-0.1c0-0.1,0.1-0.1,0.2-0.1c0.7-0.2,1.3-0.3,2-0.5c0.6-0.2,1-0.5,1.2-1c0.2-0.6,0.4-1.2,0.6-1.8c0,0,0-0.1,0.1-0.1
	c0.1,0,0.1,0.1,0.1,0.2c0.2,0.5,0.4,1.1,0.6,1.6c0.2,0.6,0.6,1,1.3,1.1c0.6,0.1,1.2,0.3,1.8,0.5C481.8,579.4,481.9,579.4,482,579.5z
	"/>
<path class="st4" d="M1097,179.5c-0.5,0.1-1,0.2-1.4,0.4c-0.3,0.1-0.6,0.2-0.9,0.2c-0.5,0.1-0.8,0.5-1,0.9c-0.2,0.5-0.4,1.1-0.6,1.6
	c0,0.1-0.1,0.2-0.1,0.3c-0.1,0-0.1-0.1-0.1-0.2c-0.2-0.6-0.4-1.1-0.6-1.7c-0.2-0.5-0.6-0.8-1.1-1c-0.6-0.2-1.3-0.3-1.9-0.5
	c-0.1,0-0.2,0-0.3-0.1c0-0.1,0.1-0.1,0.2-0.1c0.7-0.2,1.3-0.3,2-0.5c0.6-0.2,1-0.5,1.2-1c0.2-0.6,0.4-1.2,0.6-1.8c0,0,0-0.1,0.1-0.1
	c0.1,0,0.1,0.1,0.1,0.2c0.2,0.5,0.4,1.1,0.6,1.6c0.2,0.6,0.6,1,1.3,1.1c0.6,0.1,1.2,0.3,1.8,0.5
	C1096.8,179.4,1096.9,179.4,1097,179.5z"/>
</svg>
