<svg width="172" height="91" viewBox="0 0 172 91" fill="none" xmlns="http://www.w3.org/2000/svg">
<path d="M144.868 87.9497C157.879 87.3289 156.871 80.3655 154.467 77.4111C153.523 76.2512 157.748 72.2662 158.526 70.9238C159.838 68.6582 156.477 65.0047 156.693 64.6107C161.904 55.0633 175.814 56.0846 171.006 47.4572C158.602 28.7645 159.338 30.0307 158.362 24.0245C158.362 24.0245 161.223 23.0996 161.15 20.0828C161.131 19.2955 159.362 16.9323 159.127 16.1038C157.474 10.3102 153.603 3.76098 142.364 0.866894C142.285 0.998394 139.062 -0.425088 132.487 1.28276L118.13 1.17208C116.547 0.877852 114.774 0.688274 112.791 0.611018C112.478 0.617045 112.164 0.623072 111.852 0.624168C111.383 0.499244 110.889 0.580335 110.397 0.65266L110.391 0.652112C109.985 0.4713 109.547 0.615949 109.114 0.719505L109.117 0.720601C109.171 0.723341 109.225 0.731559 109.278 0.742518C109.226 0.710739 109.171 0.698685 109.114 0.719505C108.49 0.548008 107.823 0.686082 107.171 0.714026C107.01 0.72608 106.85 0.733203 106.69 0.740874C106.413 0.457602 106.063 0.674028 105.736 0.734299C105.572 0.727724 105.408 0.716218 105.244 0.709095C104.48 0.0866639 103.559 0.27679 102.624 0.540337L100.659 0.988531L100.314 0.984696C100.04 0.877852 99.7495 0.900865 99.4532 0.975381L99.0426 0.971546C98.5061 0.785255 97.9757 0.667453 97.4699 0.918398C97.2962 0.82854 97.1198 0.746901 96.9379 0.682795C96.7713 0.413769 96.5547 0.205561 96.3739 0.20063C95.4741 0.17707 94.522 0.114608 93.7624 0.618141C93.5073 0.582527 93.2435 0.615949 92.962 0.795665C92.685 0.512394 92.3481 0.692657 92.0194 0.803884C90.5281 0.384729 88.4168 0.749093 86.2384 0.726628C86.0422 0.724984 85.8212 0.726628 85.5425 0.588006C84.8472 -0.105654 83.8731 -0.105654 82.8997 0.171591C82.621 0.310213 82.3428 0.310213 81.9256 0.310213C80.535 0.310213 79.1437 0.72608 77.8916 1.55781L77.7596 1.63288C77.5689 1.61973 77.3837 1.64329 77.2083 1.72602C76.8922 1.64658 76.607 1.66137 76.3854 1.88985C76.2755 1.86519 76.1661 1.84492 76.0562 1.82027C74.8964 1.63781 73.7646 1.64219 72.6619 1.84876C72.4025 1.89917 72.2101 2.18134 71.8819 1.98628C71.5027 1.77698 71.1531 1.83342 70.809 1.94519C70.7914 1.88656 70.7556 1.86081 70.7018 1.87834C70.3643 1.68438 70.1428 1.94957 69.8663 1.99669C69.2264 1.94903 68.58 1.8504 67.9759 2.03121C67.9424 2.03231 67.9116 2.03614 67.8847 2.04327C67.6813 2.07066 67.479 2.10025 67.2756 2.12655C67.1283 2.12765 66.9799 2.12381 66.832 2.12491C66.5462 2.03834 66.2631 1.96546 66.0081 2.1134H66.0037C65.5244 2.11888 65.0445 2.12929 64.5646 2.13532C64.4838 2.09477 64.4206 2.10847 64.375 2.17641V2.17696C64.0358 2.0597 63.7066 2.01587 63.4015 2.16545L63.4098 2.15066C62.9865 2.1523 62.5627 2.15449 62.1395 2.15614C61.9245 2.16216 61.6755 1.98026 61.4963 2.18737C61.1693 2.19614 60.8433 2.20929 60.5168 2.2186C59.6483 2.27942 58.7793 2.33531 57.9102 2.39119C57.4661 2.43119 57.022 2.4668 56.5773 2.50242C56.4272 2.50845 56.276 2.51393 56.1254 2.51995C55.6307 2.52653 55.136 2.53803 54.6424 2.54899V2.55009L54.6413 2.54461C53.4699 2.27942 52.4954 3.05088 51.3163 2.74405C51.2234 2.77857 51.1651 2.84706 51.1415 2.95554C51.1481 2.97034 51.1536 2.98513 51.1586 3.00047C51.1184 3.01636 51.0821 3.04102 51.0503 3.0728C51.119 3.30402 50.992 3.401 50.848 3.48976C50.7815 3.69797 50.82 3.83878 51.0745 3.83495C51.1827 3.78563 51.2916 3.74125 51.3999 3.69194C51.7357 3.6777 52.071 3.66838 52.4069 3.65414C52.973 3.83659 53.4864 3.66235 54.0218 3.63879C54.7326 3.63551 55.473 3.76865 56.1106 3.43771C56.7059 3.66455 57.2935 3.72098 57.8734 3.62948C58.5017 3.61304 59.1305 3.60208 59.7588 3.58565H59.7594C60.0963 3.58072 60.4333 3.57085 60.7702 3.56154L60.7752 3.5577C61.1253 3.68044 61.4606 3.72591 61.7486 3.50729C61.9009 3.53359 62.0521 3.55551 62.2043 3.57743C62.7304 3.74892 63.191 3.51332 63.6939 3.54729C64.1133 3.56921 64.5328 3.59496 64.9527 3.61688C65.7025 3.78235 66.3681 3.53633 67.0673 3.45086C67.1344 3.45086 67.1987 3.43716 67.2591 3.41415C67.4532 3.61797 67.5846 3.47497 67.7269 3.39114C67.8319 3.42511 67.9369 3.45524 68.0424 3.48976C68.2062 3.48319 68.3695 3.47606 68.5328 3.46511C69.0747 3.44593 69.6173 3.4262 70.1592 3.40209C70.4841 3.39333 70.8095 3.38456 71.1338 3.37141L71.13 3.36758C71.5576 3.41251 71.9985 3.59277 72.408 3.43935C72.5685 3.44209 72.7295 3.44045 72.89 3.44319C72.9824 3.45415 73.0742 3.46511 73.1665 3.47442C72.4646 3.6766 71.7649 3.8996 71.0624 4.0963C70.5902 4.03548 70.1356 4.27218 69.675 4.42067C69.6288 4.35711 69.5661 4.33903 69.487 4.37026C69.0665 4.33629 68.6597 4.50724 68.2535 4.66833C68.1474 4.7023 68.0408 4.73681 67.9347 4.77079C67.8913 4.72147 67.838 4.71325 67.7753 4.7549C67.4625 4.64531 67.18 4.92146 66.8799 4.97954C65.7717 5.06337 53.5667 5.19925 55.8572 5.82223C55.5752 5.90333 55.2927 5.98442 55.0107 6.0666C54.6919 6.05838 61.7288 6.21235 61.4403 6.40467L61.432 6.40905C60.9071 6.44193 60.4129 6.65287 59.9309 6.93834C59.8204 6.97669 59.7093 7.01504 59.5983 7.05395C59.3163 7.02545 59.0563 7.09942 58.8463 7.37174C58.7491 7.41557 58.6523 7.45995 58.555 7.50378C58.5176 7.50707 58.4808 7.512 58.4451 7.51803C56.8059 7.45885 54.5929 7.25174 53.1852 7.77391C53.1748 7.77281 53.1649 7.77171 53.155 7.77117C52.1045 7.67912 51.0959 7.81829 50.0834 7.93444C49.6497 7.76569 49.31 7.97444 48.9439 8.07855C48.724 8.09389 48.5053 8.11361 48.2859 8.12895C47.7005 7.98924 47.1553 8.0506 46.6386 8.25333C46.1537 8.26429 45.67 8.27908 45.1852 8.29004C44.641 8.31853 44.0556 8.1695 43.5769 8.47633C43.335 8.24785 43.1239 8.36017 42.9095 8.43469C42.4203 8.46428 41.93 8.49387 41.4403 8.52345C41.3067 8.4725 41.2369 8.51907 41.2297 8.66317C41.7772 9.22643 42.3044 8.787 42.8419 8.88836C43.0041 8.88179 43.1668 8.8796 43.329 8.87741C43.8786 8.9963 44.4426 8.75303 45.1231 9.26588C44.4519 9.41436 43.9023 9.54093 43.3526 9.66695C43.1684 9.57819 43.0129 9.59353 42.8931 9.74037C42.4038 9.73763 41.8844 9.50531 41.4221 9.71352C40.9131 9.78585 40.4041 9.85872 39.8951 9.93104C39.7473 9.93214 39.5999 9.93762 39.4526 9.9431C38.9607 9.95899 38.4682 9.96995 37.9767 9.98584C37.598 10.0215 37.2187 10.0571 36.84 10.0927C36.8169 10.2006 36.7933 10.3091 36.7697 10.417C37.155 10.3902 37.5392 10.3633 37.9245 10.3409C38.4808 10.0335 39.1195 10.6559 39.6846 10.4494L39.7637 10.4576L39.8248 10.4116C40.3667 10.6006 40.6179 9.8653 41.1803 10.1223C41.769 10.1464 42.3582 10.1699 42.9475 10.1984C43.9023 10.0806 44.7878 9.46367 45.8597 10.2077C46.6408 10.0193 47.4213 9.83023 48.2013 9.63682C48.231 9.6401 48.2596 9.64229 48.2876 9.64229C49.1418 9.69599 49.9877 9.7064 50.7985 9.52066C50.87 9.53874 50.9304 9.52066 50.9799 9.47573C51.0767 9.48285 51.1734 9.49436 51.2696 9.50148C51.6555 9.47463 52.0413 9.44285 52.4272 9.41601C53.1171 9.32615 53.874 9.61106 54.5259 9.31135C54.8584 9.42696 55.1827 9.46477 55.4889 9.34587L55.4999 9.36176C55.1921 9.64558 54.9052 9.96447 54.6479 10.3294C54.2159 10.5157 53.8096 10.7365 53.4622 11.0707C53.2407 11.0855 53.0198 11.1014 52.7977 11.1123C52.5855 11.1644 50.8353 11.2849 50.9975 11.4685C51.1157 11.4877 51.2328 11.5019 51.3487 11.5118L51.3421 11.5211C50.5099 12.7451 50.6045 13.3489 51.8028 13.8212C52.5899 14.1352 47.4603 14.6765 48.2716 14.9368C49.0989 15.397 50.0834 15.757 51.2267 15.4107L56.9417 15.448C57.2391 15.5313 57.5447 15.4979 57.8553 15.3762L57.8619 15.3735L57.8674 15.3713H57.8685L57.8756 15.3685L57.8822 15.3658C58.7359 15.3099 57.9559 15.7559 58.809 15.6995C58.9227 15.7351 60.674 15.2875 60.7576 15.094C60.8527 15.0639 60.9478 15.0332 61.0429 15.0031C62.1779 14.8415 63.3224 14.5527 64.4492 14.5204C64.4261 14.5713 62.3033 15.8863 62.2313 15.8589C61.7195 15.6611 61.3738 15.9192 61.128 16.4627L59.9792 16.8085L59.9276 16.8046C59.9347 16.694 59.9424 16.5789 59.9484 16.4677C59.0964 16.26 58.3373 16.5219 57.6316 17.0561L57.6123 17.0709C57.5848 17.0698 57.5573 17.0676 57.5293 17.0627C57.3589 16.8709 57.222 16.9542 57.0868 17.0517C56.5382 17.0901 55.9902 17.1284 55.4422 17.1663C54.6974 17.0611 54.0015 17.1975 53.305 17.3295C52.7466 17.2945 52.1865 17.2408 51.6604 17.3887C50.7468 17.1701 49.9537 17.6418 49.0533 17.4966C48.1645 17.3827 49.0841 17.6155 48.2288 17.6709C46.4027 17.7339 44.574 17.787 42.7501 17.8638C41.9756 17.8994 41.2088 17.9755 40.4382 18.0292C40.1749 17.9136 39.9688 18.0347 39.7539 18.1185C39.2003 18.1476 38.6474 18.1772 38.0938 18.2062C37.7849 18.061 37.6365 18.2802 37.4628 18.4402C37.4023 18.444 37.3446 18.4577 37.2902 18.4796C36.6998 18.2895 36.1342 18.2221 35.6489 18.5799C34.7501 18.4763 33.8712 18.4774 33.0379 18.7245C32.6212 18.5804 32.2645 18.7108 31.9061 18.8368C31.1426 18.913 30.3797 18.9897 29.6167 19.0708C29.1149 18.999 28.6086 18.9097 28.1579 19.1305C27.4988 19.1864 26.8282 19.2144 26.2923 19.6171C25.7679 19.1859 25.3463 19.5858 24.8757 19.5913C24.5025 19.4554 24.1908 19.588 23.8748 19.6982C23.8 19.6713 23.7407 19.6845 23.6978 19.7475C23.3196 19.7924 22.942 19.8319 22.5638 19.8762C22.5534 19.8746 22.5446 19.8757 22.5369 19.8795C22.0493 19.7699 21.6178 19.8976 21.1885 20.034C20.6157 19.9584 20.0452 19.8916 19.5857 20.257C19.4218 20.3332 19.2591 20.4187 19.0596 20.2707C18.6968 20.0187 18.4846 20.2598 18.2532 20.4335C17.9943 20.4143 17.7365 20.3957 17.4776 20.3765C17.2924 20.4636 17.1066 20.5502 16.9214 20.6422C16.5553 20.2094 16.2029 20.4932 15.8456 20.4861C15.6632 20.8411 15.2916 20.8159 14.9684 20.8899C14.7271 20.9436 14.5193 21.0504 14.3758 21.2597C14.2725 21.3414 14.1691 21.4225 14.0658 21.5085C13.2209 20.9891 12.6146 21.5912 11.9023 21.6964C11.4752 21.4394 11.13 21.5978 10.7881 21.7698C10.5149 21.8164 10.24 21.8586 9.96685 21.9052C9.50787 21.7753 9.13354 21.9265 8.7768 22.1364C8.12708 21.8624 7.59335 22.1726 7.01509 22.2591C6.62646 22.3282 6.23619 22.3923 5.84702 22.4613C4.9505 22.5561 4.02594 22.5468 3.19923 22.8958C-1.03713 23.5752 -1.12728 23.4815 3.29597 23.1254C3.30806 23.1281 3.31796 23.127 3.3262 23.1232C4.20679 23.3067 4.98128 23.0443 5.76787 22.8322C6.16034 22.7911 6.55226 22.7501 6.94528 22.7133C7.57411 22.7254 8.19744 22.7188 8.75536 22.4575C9.17037 22.544 9.54525 22.4717 9.89704 22.3041C10.1109 22.2849 10.3241 22.2602 10.538 22.2361C10.9925 22.172 11.446 22.1079 11.9001 22.0487C12.5443 22.1473 13.1572 22.1276 13.6783 21.7671C14.9788 21.6761 16.2788 21.5857 17.5793 21.4948C17.9971 21.5441 18.3951 21.5068 18.7661 21.3562C19.4125 21.4312 20.021 21.3567 20.5861 21.109C20.9076 21.0915 21.2303 21.0734 21.5513 21.0559C22.4044 21.1447 23.2102 21.028 23.9869 20.7891C24.1892 20.937 24.3563 20.8789 24.5146 20.7661C24.6965 20.8691 24.8565 20.8669 24.9912 20.7326C25.3133 20.8214 25.6035 20.7825 25.8624 20.6165C25.9476 20.6192 26.0345 20.6274 26.1191 20.6307C26.8436 20.7376 27.5054 20.5946 28.1458 20.3601C28.5229 20.5973 28.7125 20.0012 29.0962 20.2658C29.913 20.4587 30.6353 20.1814 31.3949 20.0916C32.4981 20.1584 33.5705 20.0647 34.6188 19.8576H34.6193C35.1201 20.0028 35.5494 19.885 35.944 19.6445C36.4987 20.0686 36.9445 19.6532 37.4458 19.6647C37.6321 19.7579 37.7976 19.7699 37.9168 19.5995C38.2362 19.5957 38.5561 19.5875 38.8755 19.5837C39.451 19.7053 39.9864 19.5897 40.53 19.5283C41.0049 19.4861 41.4793 19.4483 41.9548 19.4105L42.057 19.422L42.1351 19.3656C43.8226 19.3727 45.5068 19.3568 47.1586 19.1585C47.9847 19.1749 48.7999 19.1366 49.581 18.9431C50.09 18.9262 50.6408 19.1793 51.1124 18.9196C51.6934 18.93 52.2749 18.9453 52.8565 18.9552L52.9445 18.9678L53.0033 18.9031L53.6805 18.8516C53.7316 19.4368 52.735 19.7656 51.1388 20.4499C51.1223 20.377 51.0821 20.3431 51.0167 20.3381C50.1114 20.1513 49.2275 20.0834 48.4278 20.4724C48.3585 20.4494 48.3041 20.4625 48.2645 20.5162C47.4724 20.0998 46.8854 20.7606 46.1499 20.6455C46.1312 20.6444 46.1125 20.6444 46.0949 20.6455C44.1925 20.6461 42.2983 20.6976 40.4366 20.9239C40.1727 20.7896 39.9924 20.9688 39.7791 21.0252C38.8639 20.7606 38.0724 21.2 37.1913 21.1315C36.6976 21.12 36.1716 20.9206 35.7308 21.2011C35.2932 21.2038 34.837 21.1244 34.4429 21.3233C33.554 21.2603 32.6911 21.2931 31.9259 21.6981L31.9341 21.7063C31.258 21.5408 30.6012 21.5353 29.9592 21.6542C29.6849 21.5298 29.509 21.6992 29.3111 21.806C28.5652 21.6772 27.8957 21.9096 27.1965 21.995C27.1223 21.9616 27.0618 21.9676 27.0145 22.0082L24.4272 22.1884C23.8402 22.2476 23.2525 22.303 22.6655 22.3621C22.4583 22.2005 22.3038 22.2947 22.1526 22.4027C21.8965 22.3276 21.6717 22.3758 21.4661 22.5013C20.1216 22.4608 18.8425 22.7073 17.554 22.9177C17.4853 22.8898 17.4293 22.9029 17.3864 22.9572C16.9791 22.9117 16.5789 22.898 16.2211 23.075C15.2086 23.0859 14.2258 23.2196 13.2699 23.4618C13.2088 23.4339 13.1588 23.4465 13.1214 23.4952C12.9582 23.4925 12.7938 23.4952 12.6295 23.4925C12.3404 23.3325 12.1628 23.5204 11.9622 23.641C11.8363 23.6136 11.7324 23.6536 11.6351 23.7138L10.8777 23.8831C10.367 23.7012 9.91573 23.83 9.46775 23.9719C11.9616 23.6404 2.60228 25.5461 16.414 23.8201C16.8026 23.7982 17.1913 23.7801 17.5799 23.7626C18.843 23.5725 20.1067 23.3823 21.3694 23.1928C21.5496 23.2728 21.7162 23.2936 21.8432 23.1407C21.9058 23.1413 21.9641 23.1281 22.0174 23.1013C22.7133 23.2958 23.3933 23.3188 24.0622 23.2191C24.0683 23.2207 24.0732 23.2196 24.0771 23.2169C24.2892 23.2947 24.5003 23.3725 24.7119 23.4459C25.017 23.6629 25.271 23.5314 25.5343 23.4607L25.5332 23.4771C25.5062 23.481 25.4787 23.4859 25.4513 23.4914C25.371 23.5358 25.31 23.5982 25.2699 23.6832C25.0335 23.5527 24.9142 23.7812 24.7565 23.887C24.7048 23.9198 24.657 23.9571 24.6146 24.002C24.6091 23.9664 24.5927 23.9418 24.5657 23.9281C24.5272 23.9078 24.4998 23.9007 24.4822 23.9105C24.0573 24.042 23.5521 23.8831 23.164 24.1412C23.0519 24.1818 22.9403 24.2261 22.8276 24.2667C22.2648 23.9357 21.8415 24.3078 21.3556 24.3648C21.288 24.3785 21.2198 24.3927 21.1522 24.4064C20.9549 24.2859 20.818 24.3697 20.6933 24.4941C20.6289 24.4705 20.5729 24.4793 20.525 24.5193C20.1139 24.4185 19.7363 24.4634 19.3861 24.636C18.3945 24.7653 17.4029 24.899 16.4113 25.0332C16.1892 25.0716 15.9671 25.1105 15.7451 25.1494C15.4691 25.1916 15.1943 25.2387 14.9183 25.2814C14.0669 25.2896 13.2506 25.4299 12.4503 25.6343L12.4096 25.6387L12.4047 25.6392C12.0941 25.6737 11.7835 25.7039 11.473 25.7345C11.4026 25.7208 11.3421 25.7345 11.2888 25.7756C10.4726 25.6474 9.73874 25.8792 8.98568 26.0288C8.39862 25.4496 8.11059 26.0945 7.68954 26.1931C7.42954 26.0589 7.23661 26.1877 7.03487 26.2808C6.6468 26.3263 6.25983 26.3718 5.87121 26.4129C5.07802 26.357 4.3475 26.5055 3.678 26.8578C3.56586 26.8561 3.5043 26.9158 3.48506 27.0287C4.2656 27.2753 4.97304 26.9438 5.73819 27.0704C6.34668 27.0046 6.95572 26.9394 7.56421 26.8737C8.88014 27.1893 10.0004 26.6945 11.1745 26.4227C11.4054 26.4298 11.6802 26.5816 11.8297 26.3077C12.884 26.4704 13.8756 26.369 14.7925 25.9526C14.9585 25.8995 15.1179 25.8052 15.3147 25.9444C16.3893 25.9806 17.4001 25.7526 18.4269 25.5883C19.6972 25.6293 20.9197 25.4376 22.1466 25.2732C22.2115 25.2365 22.2763 25.2042 22.3417 25.1669C22.5022 25.179 22.6627 25.191 22.8238 25.2025C23.1459 25.1894 23.4675 25.1762 23.789 25.1631C24.0716 25.1154 24.3552 25.0683 24.6372 25.0206C25.0302 25.0995 25.4106 25.1149 25.7486 24.9291C26.411 24.911 27.0723 24.888 27.7346 24.8694C27.9517 24.836 28.1689 24.8069 28.386 24.773C28.7026 24.7138 29.0005 24.568 29.3551 24.6869C29.5722 24.6486 29.7893 24.6102 30.0064 24.5719C30.5644 24.4223 31.23 24.6256 31.7132 24.2311C32.0303 24.2135 32.3475 24.196 32.6641 24.1785C33.3622 24.4721 33.9658 24.1615 34.6138 24.1445C35.4092 24.2371 36.1502 24.0607 36.9065 23.9615C37.7596 24.3324 38.5033 23.9933 39.2943 23.9385C39.8775 23.9023 40.4816 23.9714 41.0764 23.9949C41.4639 24.139 44.4976 23.6152 44.7861 23.7631C45.388 24.0727 43.2762 25.1066 42.6419 25.5948C41.8586 26.1975 42.3186 26.2742 40.812 26.7723C40.7477 26.7307 40.7009 26.7427 40.674 26.8096C40.1722 26.8216 39.6692 26.8331 39.1673 26.8452C38.97 26.655 38.8359 26.7805 38.6957 26.878C38.6842 26.8775 38.6732 26.8786 38.6622 26.8797C38.4456 26.8906 38.2296 26.9054 38.0125 26.9164C37.1555 26.9761 36.2991 27.0358 35.4422 27.0956C34.8815 27.0517 34.3263 27.0347 33.8107 27.2145C32.5756 27.2775 31.3048 27.1997 30.1796 27.7037C30.018 27.6961 29.8569 27.689 29.6953 27.6862C29.288 27.6128 28.9164 27.6944 28.5536 27.8122C28.4366 27.89 28.3195 27.9722 28.2029 28.0495C28.0408 28.033 27.8775 28.0166 27.7159 28.0002C27.3806 27.9541 27.0365 27.8577 26.7348 28.0221C26.6276 28.0665 26.5215 28.1158 26.4143 28.1602C25.4809 27.9383 24.6537 28.2599 23.7775 28.3349C23.0112 28.0966 22.4374 28.5163 21.7937 28.6999C21.7937 28.6999 17.6788 28.5596 22.3022 29.5393H22.3027C22.3467 29.5404 22.3907 29.5393 22.4341 29.536C22.7111 29.5278 22.9882 29.5162 23.2652 29.5047L23.357 29.5261L23.4273 29.4752C24.3118 29.3256 25.1962 29.1754 26.0812 29.0259C26.0927 29.0259 26.1043 29.0248 26.1147 29.0242C26.4319 29.0067 26.7496 28.993 27.0673 28.9755C27.44 28.9541 27.8143 28.9371 28.187 28.9157C29.0203 28.7881 29.8525 28.656 30.6853 28.524C31.7368 28.4045 32.8565 28.5437 33.8217 28.0829C34.3467 28.0599 34.8661 28.6111 35.3933 28.353C35.7456 28.467 36.076 28.4621 36.3777 28.3026L36.375 28.2999C36.4036 28.3141 36.4283 28.3092 36.4519 28.2933C36.5872 28.2851 36.7224 28.2785 36.8582 28.2692H36.8615C37.4342 28.3864 37.9537 28.2533 38.4808 28.147C38.6913 28.1371 38.9024 28.1267 39.1135 28.1213C40.0721 28.1596 45.4403 27.7563 46.466 27.6917C47.2789 27.8435 48.0292 27.6895 48.7746 27.5125C48.8779 27.5191 48.9813 27.5301 49.0841 27.5372C49.9575 27.6846 50.6913 27.3925 51.4054 27.0375C51.4279 27.0402 51.4477 27.0408 51.4658 27.0397L52.1865 27.0665C52.6537 26.8813 53.0225 27.1843 53.3831 27.5246C52.7323 27.7416 52.325 28.4544 51.5186 28.3536C50.9574 28.3004 50.5281 28.6308 50.0191 28.7267C49.5128 28.8034 49.0071 28.8807 48.5014 28.9574C48.1381 28.793 47.9759 29.1563 47.6928 29.2039C47.3053 28.7174 46.9502 29.0198 46.5858 29.0774C46.422 29.0746 46.2571 29.0724 46.0933 29.0746C46.0218 29.0472 45.9663 29.0604 45.9278 29.1228C44.9791 29.0779 44.0562 29.1656 43.1531 29.3398C42.7991 29.2439 42.4764 29.29 42.1763 29.4357C41.991 29.5223 41.8063 29.6138 41.6211 29.7014C40.7031 29.3026 39.8209 29.4702 38.926 29.4494C38.4533 29.0845 38.2945 29.6647 37.9471 29.6795C37.565 29.6971 37.183 29.7097 36.801 29.7272C36.7295 29.719 36.6652 29.7272 36.6081 29.7486L35.4636 29.8757C35.1168 29.7376 34.809 29.8099 34.5072 29.9239C34.1906 29.9184 33.8734 29.9129 33.5568 29.9069C33.2171 29.9261 32.8779 29.9453 32.5371 29.9595C32.2409 30.1606 32.3376 30.3392 32.6339 30.5129C32.9148 30.4609 33.1957 30.4088 33.476 30.3567C33.8168 30.4674 34.1307 30.4126 34.439 30.331C34.2609 31.2416 33.3655 30.6789 32.9027 31.0077C32.8334 31.017 32.7664 31.0307 32.7048 31.063C32.132 30.9458 31.5807 30.9425 31.0761 31.172C30.2148 31.1397 29.3897 31.2526 28.6004 31.5068C28.2068 31.4696 27.8099 31.423 27.4763 31.6411C27.2245 31.6126 26.9799 31.6065 26.7947 31.7906C25.9789 31.5189 25.26 31.7676 24.5223 31.9167C24.0936 31.8263 23.6917 31.8591 23.3185 32.0235C23.0701 32.0131 22.8227 32.0027 22.5742 31.9879C22.533 32.0646 22.5347 32.1292 22.5797 32.1819C22.6276 32.2339 22.66 32.2553 22.6781 32.2443C22.9601 32.4005 23.2306 32.4558 23.4752 32.2728L23.4757 32.2723C23.8 32.2772 24.1254 32.2871 24.4497 32.292C25.2902 32.6317 25.9976 32.304 26.7353 32.1282C27.1635 32.1446 27.5917 32.1561 28.0199 32.1682C28.1298 32.1139 28.2398 32.0553 28.3497 32.0016C29.3897 31.9616 30.367 31.6202 31.4416 31.7534C31.8193 31.7134 32.1969 31.6728 32.5751 31.6372C32.6443 31.6465 32.7097 31.6416 32.7702 31.6142C33.7019 31.9336 34.4616 31.2652 35.3801 31.5112C35.7929 31.64 36.1799 31.6454 36.525 31.4312L36.5278 31.4033C36.8862 31.6049 37.1973 31.5096 37.5051 31.3863L37.4919 31.3824C38.0416 31.3397 38.5902 31.292 39.1393 31.2488C39.5692 31.3857 39.8687 31.1797 40.1601 30.9507C40.541 31.177 40.7141 30.8269 40.9774 30.7277C41.7739 31.4071 42.4731 31.0159 43.1921 30.8548C44.132 30.8312 45.111 30.9945 45.9789 30.6236C46.9095 30.8504 47.7506 30.5737 48.6306 30.5129C49.1412 30.6389 49.6101 30.56 50.0636 30.4033L50.157 30.4104L50.2247 30.3502C50.7397 30.5545 51.4207 30.199 51.894 30.1195C53.1819 30.1765 54.4742 30.2532 55.7115 30.0187C55.9429 30.1666 56.1744 30.3157 56.4058 30.4625C56.4772 31.1803 55.9952 31.3644 55.4944 31.5326C55.3388 31.5589 55.1838 31.5802 55.0288 31.6065C66.4748 31.9353 59.3141 32.2399 60.9719 32.79C60.5998 32.8021 60.2271 32.8141 59.8555 32.8262C59.8297 32.8289 59.8044 32.8328 59.7797 32.8383C59.3449 32.9073 58.9101 32.973 58.4759 33.0426C57.996 33.0344 57.493 32.8936 57.0494 33.0958C55.4153 33.5193 38.7633 32.9977 37.1517 33.527L37.1533 33.5242C36.7328 33.4333 36.3673 33.5927 36.0534 33.7675C35.4037 34.1231 49.57 34.2705 48.7625 34.1467C47.8753 34.0091 47.1102 34.3823 46.4385 34.8968C46.2862 34.8749 46.1356 34.8579 45.9844 34.8403C44.9093 34.8694 43.7725 34.4349 42.7397 34.7981C41.7739 34.6064 41.0033 35.1554 40.0985 35.1954C39.0514 34.7313 38.2747 35.5586 37.299 35.4321C36.9549 35.5855 36.4404 35.5565 36.5954 36.2266C36.5982 36.2956 36.6064 36.3646 36.619 36.4331C36.2947 36.6501 35.9704 36.8671 35.6461 37.0846C35.6313 37.1372 35.6241 37.1854 35.6252 37.2281C35.5983 37.2265 35.5714 37.2243 35.5439 37.2216C35.1816 37.1821 34.8914 37.5865 34.8826 38.0128C34.8689 38.7404 34.6298 38.2111 34.4165 38.1612C33.4694 37.9278 32.0518 38.3968 31.5736 39.0396C31.5065 39.0615 31.4389 39.085 31.3718 39.1075C31.3553 39.0637 31.3218 39.0609 31.2514 39.1458C31.0783 39.2319 30.9051 39.3135 30.7326 39.3995C30.1592 39.0182 29.6447 39.2439 29.188 39.4286C28.3129 39.7765 27.3674 39.8614 26.4407 40.0231C26.3665 40.0192 26.2978 40.0329 26.2351 40.0603C26.1433 40.0296 26.0526 39.999 25.9608 39.9639C25.3781 39.8428 24.8647 40.0499 24.3211 40.1063C24.2903 40.1025 24.2612 40.1009 24.2332 40.1014C23.5565 40.0762 22.9563 40.325 22.3192 40.44C21.957 40.1277 21.587 40.6674 21.2253 40.2526C21.1132 40.2285 21.0346 40.2707 20.9912 40.3759L20.9923 40.4044C20.9554 40.4137 20.9208 40.4291 20.8895 40.4515C20.6828 40.0844 20.4261 40.2148 20.1788 40.2499C20.1881 40.1315 20.1375 39.9825 20.0193 39.8001C19.1322 39.2001 18.5929 39.7562 18.0169 40.1896C17.9042 40.2346 17.791 40.2746 17.6783 40.3195C17.4012 40.2137 17.1957 40.3348 16.995 40.4691L16.9972 40.4641C16.6482 40.3452 16.3288 40.3814 16.027 40.5184L16.0133 40.5195C10.9057 39.9869 17.3056 42.4783 20.5778 41.8745C20.8691 41.8865 21.1605 41.8947 21.4524 41.9035C21.9916 41.8569 22.5308 41.8147 23.0712 41.7676C23.2481 41.8849 23.4081 41.8597 23.5598 41.7753C24.9115 41.8153 26.1939 41.5408 27.5048 41.3934C27.7522 41.4411 27.982 41.4296 28.1535 41.2416C28.5311 41.3123 28.9175 41.429 29.2512 41.2208L29.2523 41.2202V41.2208C29.8173 41.172 30.383 41.1233 30.9491 41.0745C31.3158 41.2433 31.6478 40.9052 32.021 41.166C33.8981 41.4608 35.5906 40.8756 37.3743 40.7227C37.3974 40.7211 37.4199 40.7173 37.4425 40.7134C37.8184 40.7951 38.2708 40.8559 38.6479 40.634C38.6957 40.6389 38.7441 40.6449 38.7919 40.6515C38.837 40.703 38.942 40.7063 39.009 40.7129C39.014 40.7414 39.0145 40.7688 39.009 40.794C38.9299 40.857 38.8474 40.9156 38.7622 40.9666C38.7435 40.9704 38.7238 40.9742 38.7029 40.9775C38.3522 41.0274 38.0009 41.08 37.6502 41.1337C37.592 41.1172 37.5321 41.097 37.4716 41.0723C37.371 41.0614 37.2726 41.063 37.1753 41.0789C37.0797 41.1123 36.9857 41.1501 36.8911 41.1879C36.4849 41.1994 36.0793 41.2126 35.711 41.3649C35.6456 41.3474 35.578 41.3233 35.5092 41.2926C34.8843 41.2389 34.2917 41.3496 33.6937 41.4285C33.5865 41.4865 33.4815 41.5495 33.377 41.6142C33.0115 41.6378 32.646 41.6624 32.2799 41.6843C31.9534 41.7627 31.6274 41.846 31.3015 41.9238C29.4287 41.9342 27.6522 42.3544 25.8245 42.5605C25.5628 42.4443 25.4029 42.6273 25.2105 42.7144C24.8488 42.5868 24.5597 42.7736 24.2376 42.8191C23.3619 42.6399 22.5715 42.8563 21.7745 43.0415C21.5716 42.9265 21.4161 43.007 21.2633 43.1001C17.957 42.5736 18.5913 44.8781 21.6849 44.682C21.7734 44.7872 21.8646 44.8129 21.957 44.7324C22.2252 44.7554 22.494 44.7833 22.7622 44.8102C23.1388 45.0989 23.5054 45.0546 23.8704 44.9554C24.0474 44.8787 24.2244 44.8014 24.4008 44.7192C25.6436 44.5308 26.7705 44.7077 27.8621 44.0387C27.8946 44.0387 28.121 43.9242 28.148 43.9187C28.7284 43.865 29.3078 43.8064 29.8877 43.7489C31.13 44.0371 32.2101 43.4064 33.4353 43.5982C34.0938 43.7187 34.6644 43.4892 35.2608 43.3599C35.7159 43.3374 36.2117 43.4645 36.5866 43.1473C36.6773 43.2426 36.7713 43.3144 36.8818 43.2284C37.5617 43.1999 38.2466 43.1884 38.8738 42.9517C39.374 43.0317 39.8649 43.0612 40.3277 42.9089V42.9182C41.8206 42.8234 43.3163 42.7363 44.7713 42.4684C44.8191 42.4629 44.8675 42.4542 44.9164 42.441L44.9126 42.4454C45.9663 42.0673 47.7577 42.207 46.1774 42.6563C45.9575 42.6717 45.7387 42.6914 45.5194 42.7067C44.934 42.567 44.3887 42.6284 43.872 42.8311C43.3872 42.8415 42.9035 42.8569 42.4187 42.8678C41.8745 42.8963 41.2891 42.7478 40.8109 43.0541C40.5685 42.8256 40.3579 42.938 40.143 43.013C39.6538 43.0426 39.1635 43.0717 38.6737 43.1018C38.5396 43.0508 38.4698 43.0974 38.4627 43.2415C39.0101 43.8053 39.5373 43.3659 40.0749 43.4672C40.237 43.4601 40.3992 43.4585 40.5613 43.4563C41.111 43.5752 41.675 43.3319 42.3549 43.8448C41.6843 43.9932 41.1346 44.1198 40.585 44.2458C40.4008 44.1571 40.2453 44.1724 40.126 44.3198C39.6362 44.3171 39.1173 44.0847 38.6545 44.2924C38.1455 44.3653 37.6365 44.4376 37.1275 44.5099C36.9796 44.511 36.8329 44.5165 36.685 44.522C36.1936 44.5379 35.7005 44.5488 35.2091 44.5647C34.8304 44.6003 34.4511 44.6359 34.0724 44.6716C34.0493 44.7795 34.0257 44.888 34.0026 44.9959C34.3874 44.9691 34.7721 44.9422 35.1575 44.9198C35.7137 44.6124 36.353 45.2348 36.9175 45.0283L36.9972 45.0365L37.0577 44.9905C37.5997 45.1795 37.8509 44.4447 38.4137 44.7017C39.0024 44.7258 39.5911 44.7494 40.181 44.7779C41.1352 44.6601 42.0213 44.0431 43.0931 44.7872C43.8737 44.5987 44.6542 44.4097 45.4348 44.2162C45.4639 44.2195 45.4925 44.2217 45.5211 44.2217C46.074 44.2568 50.5528 44.1001 50.5528 44.1001C50.66 44.8184 50.909 45.8397 49.9454 46.0907C48.132 46.563 45.554 46.5361 46.4731 47.238C44.3261 47.8215 50.8953 47.1728 51.5999 47.2818C51.3564 47.4314 51.1976 47.8533 50.8925 47.8002C50.383 47.718 49.8948 47.7459 49.4304 47.8933C49.3672 47.8632 49.3133 47.8703 49.2682 47.9152C48.9186 47.8149 43.1723 47.9481 42.8656 48.0977C42.5424 48.1158 42.2186 48.1338 41.8954 48.1525C41.3496 48.1832 40.8032 48.2144 40.2574 48.2456C39.6928 48.1771 39.1421 48.1766 38.6325 48.3744C38.3088 48.3656 37.985 48.3574 37.6601 48.3486C37.2627 48.336 36.8521 48.2719 36.5207 48.5157C36.3035 48.524 36.0853 48.5316 35.8682 48.5398C35.5879 48.4248 35.3235 48.4341 35.0717 48.5327C34.688 48.5667 34.3038 48.6007 33.9207 48.6352C33.852 48.6001 33.7954 48.61 33.7514 48.6637C33.4249 48.6752 33.0984 48.6867 32.7719 48.6993C31.7973 49.131 37.6101 48.8346 36.6179 49.2039C36.3997 49.211 36.1815 49.2187 35.9627 49.2253C35.5312 49.2412 35.0514 48.9946 34.6737 49.2976C33.7871 49.0236 32.9686 49.3047 32.1084 49.2467C32.0793 49.2472 32.0507 49.2505 32.0221 49.256L31.13 49.3508C31.0706 49.3047 31.0178 49.3047 30.9722 49.3508C30.4143 49.4209 29.8558 49.4905 29.2979 49.5601C28.6965 49.6181 28.0958 49.6757 27.4939 49.7337C25.974 49.8674 30.4291 50.0011 28.9093 50.1348C28.5547 50.0406 28.2139 50.0252 27.9034 50.1759C26.7793 49.7053 25.9284 50.3956 24.9428 50.5173C24.7515 50.3743 24.5921 50.394 24.4591 50.5496V50.5501L24.0166 50.4899C23.1058 50.7929 23.7885 51.509 22.975 51.915C22.2549 52.2744 23.2866 53.3807 23.1371 53.653C22.8183 54.2321 23.4697 54.6518 23.7511 55.06L24.3684 55.2255C24.4959 55.3389 24.5993 55.5027 24.7196 55.631C24.5108 55.6282 24.309 55.6611 24.1221 55.78C23.684 55.7827 23.2284 55.7033 22.8337 55.9022C21.9449 55.8392 21.0819 55.8715 20.3167 56.2769L20.3255 56.2857C19.6489 56.1202 18.9925 56.1148 18.3505 56.2337C18.0757 56.1093 17.9003 56.2786 17.7019 56.3854C16.956 56.2572 16.287 56.489 15.5873 56.5745C15.5131 56.541 15.4526 56.5465 15.4054 56.5871L12.818 56.7673C-9.09155 58.9858 13.1028 58.0253 12.453 57.7985C12.4591 57.8001 12.464 57.799 12.4679 57.7958C12.6801 57.8736 12.8911 57.9514 13.1028 58.0248C13.4078 58.2418 13.6623 58.1103 13.9251 58.0396L13.924 58.056C13.897 58.0599 13.8696 58.0648 13.8426 58.0703C13.7618 58.1146 13.7014 58.1771 13.6607 58.262C13.4243 58.1316 13.305 58.3601 13.1473 58.4659C13.0956 58.4987 13.0478 58.536 13.0055 58.5804C13 58.5453 12.9835 58.5201 12.9565 58.5064C12.9181 58.4861 12.8906 58.479 12.873 58.4889C11.7758 58.5689 8.13368 60.1403 12.1793 59.7409C12.4618 59.6937 12.7455 59.6461 13.0275 59.5984C13.4205 59.6773 13.8008 59.6926 14.1389 59.5069C14.8013 59.4883 15.4625 59.4653 16.1249 59.4472C16.342 59.4132 16.5591 59.3842 16.7763 59.3507C17.0929 59.2916 17.3908 59.1458 17.7453 59.2647C17.9625 59.2264 18.1796 59.188 18.3967 59.1497C18.9546 59.0001 19.6203 59.2034 20.1034 58.8089C20.4206 58.7913 20.7378 58.7738 21.0544 58.7563C21.4238 58.9119 21.7662 58.8982 22.1037 58.8478C21.7629 59.2132 21.2726 59.011 20.834 59.0056C20.6476 59.0877 20.6311 59.2165 20.796 59.3951C21.3083 59.5261 21.7684 59.3655 22.2499 59.3255L22.3467 59.3321L22.4242 59.2839C23.313 59.1842 24.1941 59.0609 24.9648 58.6231C25.1913 58.6275 25.421 58.6478 25.648 58.6549C26.3582 58.8198 27.0041 58.5623 27.6846 58.5152C28.2678 58.479 28.8713 58.548 29.4666 58.5716C30.2835 57.9311 31.4059 58.8341 32.2579 58.3722C30.2873 59.9721 32.8719 58.673 30.2873 59.9721C30.9579 60.4159 31.3839 59.9606 31.8715 60.1441C34.3269 60.4827 34.8326 60.5299 31.9407 60.6537C31.617 60.9446 31.0772 60.829 30.6952 60.9578C30.494 60.8055 30.3401 60.8526 30.2131 61.0148C29.8762 61.126 29.5392 61.2378 29.2017 61.349C29.1374 61.3074 29.0907 61.3194 29.0637 61.3862L28.0182 61.4109C27.7786 61.1961 27.5554 61.1139 27.3971 61.3271C27.28 61.303 27.1844 61.3857 27.0854 61.4542C27.0739 61.4536 27.0629 61.4547 27.0514 61.4558C26.8353 61.4668 26.6188 61.4816 26.4022 61.4925L25.8085 61.5342C25.8107 61.5183 25.8124 61.5013 25.8129 61.4838C25.8217 61.3139 25.6173 61.3649 25.5046 61.4197C25.0489 61.4876 24.5921 61.5555 24.1364 61.6235L23.999 61.6608L23.8319 61.6723C23.2718 61.6279 22.7161 61.6109 22.2005 61.7906C20.9653 61.8536 19.6945 61.7758 18.5693 62.2799C18.4077 62.2728 18.2466 62.2651 18.085 62.2629C17.6777 62.1895 17.3061 62.2711 16.9439 62.3889C16.8268 62.4667 16.7092 62.5489 16.5927 62.6262C16.4305 62.6097 16.2678 62.5933 16.1056 62.5769L16.0677 62.5714L16.2733 62.3128L16.0677 62.5714C15.744 62.5243 15.4147 62.4404 15.1239 62.5988C15.0167 62.6432 14.9106 62.6925 14.8035 62.7369C11.9243 63.4289 3.37018 65.4808 14.4709 63.6026C14.4824 63.6026 14.494 63.6015 14.505 63.6009C14.6682 63.5916 14.8315 63.5839 14.9942 63.5763C14.9964 63.5927 15.0057 63.6048 15.0228 63.6124C15.0629 63.6316 15.0948 63.6343 15.1173 63.6206C15.3707 63.6256 15.6566 63.7779 15.9204 63.5275C16.1392 63.5165 16.3579 63.5056 16.5762 63.493C17.4095 63.3659 18.2417 63.2333 19.0745 63.1012C20.126 62.9818 21.2462 63.1209 22.2109 62.6601C22.7359 62.6371 23.2558 63.1883 23.7824 62.9303C24.1348 63.0442 24.4651 63.0399 24.7669 62.8799L24.7642 62.8771C24.7927 62.8914 24.818 62.8864 24.8411 62.8705C24.9769 62.8623 25.1116 62.8558 25.2473 62.8464H25.2512C25.8239 62.9642 26.3434 62.8306 26.8705 62.7243C27.081 62.7144 27.2921 62.704 27.5032 62.6985C28.4734 62.7374 29.4408 62.7626 30.3164 62.3867L30.4027 62.3807L30.4715 62.3298C30.6776 62.3988 30.8821 62.4678 31.0887 62.5412C36.7207 62.1018 34.444 63.1007 34.9755 63.6541C34.8117 63.6513 34.6468 63.6491 34.483 63.6513C34.4115 63.6239 34.356 63.6371 34.3175 63.7001C33.3683 63.6552 32.4459 63.7428 31.5428 63.9165C31.1888 63.8206 30.8656 63.8667 30.566 64.0124C30.3808 64.099 30.1961 64.191 30.0108 64.2781C29.0929 63.8793 28.2101 64.0475 27.3158 64.0261C26.843 63.6612 26.6836 64.2414 26.3368 64.2562C25.9548 64.2738 25.5727 64.2864 25.1907 64.3039C25.1192 64.2957 25.0555 64.3039 24.9972 64.3253L23.8533 64.4524C23.507 64.3143 23.1987 64.3872 22.8969 64.5006C22.5803 64.4951 22.2631 64.4896 21.9465 64.4836C21.6068 64.5028 21.2677 64.522 20.9269 64.5362C20.6311 64.7373 20.7273 64.9159 21.0236 65.0896L21.0923 65.077L21.1127 65.3668L20.9225 65.6085C20.4113 65.5246 19.9199 65.5427 19.4658 65.7493C18.6045 65.717 17.78 65.8298 16.9901 66.0841C16.5965 66.0468 16.1996 66.0002 15.866 66.2178C15.6142 66.1893 15.3696 66.1832 15.1844 66.3668C14.3687 66.0956 13.6497 66.3443 12.912 66.4928C10.4231 65.9674 10.9222 67.5541 11.8654 66.849L11.866 66.8484C12.1903 66.8533 12.5152 66.8632 12.84 66.8681C13.681 67.2078 14.3885 66.8802 15.1261 66.7038C15.5543 66.7202 15.9825 66.7322 16.4107 66.7438C16.5207 66.6895 16.6306 66.6309 16.7405 66.5772C17.7805 66.5366 18.7578 66.1958 19.8325 66.329C20.2101 66.289 20.5877 66.2484 20.9659 66.2128C21.0352 66.2221 16.4514 66.2178 16.5119 66.1898C17.4436 66.5092 22.8524 65.8408 23.7709 66.0868C24.1832 66.2156 24.5707 66.221 24.9164 66.0068L24.9192 65.9789C25.2776 66.1805 25.5887 66.0852 25.8965 65.9619L25.8833 65.958C26.433 65.9153 26.9816 65.8676 27.5312 65.8249C27.9611 65.9613 28.2607 65.7553 28.552 65.5268C28.9329 65.7531 29.1061 65.4036 29.3694 65.3038C30.1658 65.9832 30.865 65.592 31.5846 65.431C32.5245 65.4074 33.5035 65.5707 34.3714 65.1997C35.3015 65.4266 34.8161 65.1504 35.6961 65.0891C36.2073 65.2151 36.6757 65.1362 37.1291 64.9795C40.4316 65.2403 40.9269 64.7888 44.5042 64.3625C45.6909 64.271 49.8019 64.5088 50.9519 64.1697C51.6604 64.4814 52.3283 64.2727 53.0159 64.3214C53.3655 64.5981 53.6651 64.4611 53.968 64.3477C54.134 64.3455 54.3016 64.3521 54.4676 64.3499C54.7661 64.4491 55.0646 64.5444 55.3625 64.6387C55.794 65.169 55.2976 65.1986 55.1036 65.3882C53.9097 65.2266 52.7713 65.3334 51.6736 65.6457C51.1838 65.666 50.6941 65.6868 50.2043 65.7066C49.8223 65.7367 50.9541 65.552 50.3857 65.3433C50.3687 65.3449 50.3522 65.3471 50.3368 65.3504C49.8091 65.42 49.2149 65.1696 48.7372 65.4764C48.353 65.5126 47.9693 65.5531 47.5846 65.5893C47.2503 65.432 46.942 65.5137 46.6298 65.5542C46.2681 65.4173 45.9586 65.5175 45.6574 65.654C44.8933 65.7257 44.1304 65.8019 43.3663 65.8742C42.9942 65.8863 42.6215 65.8983 42.2499 65.9104C42.2241 65.9131 42.1988 65.9175 42.1741 65.9224C41.7393 65.9915 41.3045 66.0572 40.8702 66.1268C40.3904 66.1186 39.8874 65.9778 39.4438 66.1799C37.8096 66.6035 35.9765 66.0813 34.3654 66.6112L34.367 66.6084C33.9465 66.5175 33.581 66.6769 33.2671 66.8517C32.6174 67.2073 31.9644 67.3547 31.1569 67.2303C30.2703 67.0933 29.5046 67.4659 28.8334 67.9804C28.6812 67.9585 28.5305 67.9409 28.3794 67.924C27.3042 67.9525 26.1675 67.5185 25.1346 67.8818C24.1694 67.69 23.3982 68.239 22.4934 68.279C21.6156 69.1157 21.9113 71.7824 28.9412 72.8015C30.5341 73.0322 26.1021 74.0151 30.5709 75.2655C31.0569 75.2682 31.5422 75.2666 32.0276 75.2655C32.4371 75.3893 32.8191 75.3767 33.1687 75.1904H33.1698C33.5931 75.2951 33.9515 75.1405 34.3192 75.0266C35.0101 75.0249 35.7148 75.0775 36.3184 74.7389C36.4157 74.774 36.5119 74.8041 36.6081 74.8392C37.1044 74.8923 37.5936 74.9044 38.0548 74.7658C38.2807 74.7411 38.5055 74.711 38.7309 74.6863C39.6483 74.6271 38.7518 74.5674 39.6687 74.5082C39.6983 74.5181 41.5398 74.5219 41.5667 74.5203C41.9482 74.5696 40.4948 74.5214 40.8373 74.3943C41.3424 74.4743 41.8278 74.4496 42.2928 74.3154C42.5275 74.4288 42.7348 74.391 42.9299 74.2847C44.5272 74.2798 43.7467 74.2151 45.3067 74.0091L45.305 74.014C46.7699 74.1894 48.1375 73.8628 49.5475 73.7554C52.873 73.6897 47.6093 74.0014 52.3761 73.448C53.3985 73.4234 54.4209 73.3982 55.4433 73.373C55.8418 73.3916 56.2524 73.4552 56.5905 73.2283C58.3307 73.5521 49.8448 74.8721 51.6329 74.8847C52.0782 75.0063 52.5267 75.146 52.9291 74.9148C53.1929 74.9564 53.4573 75.003 53.7211 75.0447C54.0108 75.1099 54.3011 75.1745 54.5907 75.2414C54.588 75.2611 54.5858 75.2825 54.5847 75.3038C54.5561 75.8013 54.8463 76.0758 55.18 76.2912C55.1866 76.3186 55.197 76.3471 55.2124 76.3755C54.6902 76.5553 54.151 76.6577 53.5898 76.7344C53.2347 76.7777 52.1139 76.5503 53.0176 77.7278C53.2935 78.0878 52.8323 78.1064 52.702 78.268C52.4129 78.6264 51.9286 78.5119 51.5378 78.6269C50.8496 78.3371 50.3368 78.7661 49.7398 78.8543C46.7276 78.3245 46.0235 79.2335 41.9476 78.6056C41.7734 78.4417 41.5826 79.028 41.3754 79.0466C40.7785 78.8658 40.2365 78.9918 39.695 79.1272C39.4087 78.971 41.0769 79.1852 40.8845 79.2959C40.2535 79.2844 39.601 79.1913 39.0745 79.5754C38.8282 79.5365 38.5814 79.4981 38.3346 79.463L38.334 79.4603L38.2774 79.4548C37.8833 79.2877 37.5167 79.3135 37.1693 79.4674C36.4519 79.388 35.8132 79.5896 35.1805 79.8143C35.1701 79.8137 35.1596 79.8143 35.1503 79.8143H35.1492H35.1443C34.8232 79.8186 34.5017 79.8236 34.1807 79.8323C33.9047 79.708 33.7244 79.8871 33.5134 79.9715C33.2649 80.0027 33.3017 80.1392 33.4524 80.314C33.6145 80.2981 33.7767 80.2822 33.9383 80.2663C34.2741 80.183 34.6094 80.0992 34.9447 80.0153C35.645 80.3233 36.242 79.9896 36.8878 79.9633C37.3094 79.9852 37.7316 80.0066 38.1537 80.0279C38.262 80.0805 38.3709 80.1288 38.4797 80.1814C38.7617 80.629 38.5737 80.795 38.1988 80.8487C38.0334 80.8925 37.8806 80.9545 37.8311 81.1523C38.5995 81.6492 38.948 80.88 39.5114 80.7572C39.6428 80.9517 39.7742 81.1462 39.9056 81.3457L39.7885 81.5763C39.7137 81.5879 39.6395 81.601 39.5653 81.6147C39.418 81.6481 39.2817 81.6996 39.1531 81.772C39.0464 81.8437 38.9453 81.9204 38.8755 82.0213L38.6803 82.058C38.129 82.1089 37.5782 82.1604 37.0275 82.2114C36.8037 82.2388 36.58 82.2656 36.3568 82.293C35.7544 82.293 35.1179 82.1445 34.5869 82.4667C33.8882 82.4349 33.1896 82.4037 32.491 82.3719C32.1304 82.0832 31.8489 82.4108 31.5186 82.3571C31.2751 82.5067 31.0068 82.5757 30.7018 82.5226C30.1922 82.4404 32.0716 82.4684 31.6071 82.6157C31.5433 82.5856 31.4895 82.5922 31.4449 82.6371C31.0953 82.5374 30.7611 82.5253 30.4544 82.6755C26.8447 82.8771 26.7419 84.311 29.3479 85.7904C30.2268 86.2895 29.305 87.4999 32.1205 87.7218C34.2989 87.8187 36.4168 87.5607 38.566 87.4894C38.9019 87.6582 39.3713 87.4604 39.5395 88.09C39.6626 88.5486 39.8808 88.1941 39.9886 88.1376C40.3486 87.9513 40.6427 87.6242 41.133 87.7661C41.7712 88.1617 42.3951 87.8817 43.0277 88.0275C43.2487 88.0467 43.3735 88.571 43.6577 88.2642C43.855 87.9776 44.2436 88.2001 44.4827 88.0242C45.3221 87.8872 46.1785 87.8565 47.0558 87.948C47.7159 88.0609 48.3321 87.9924 48.9005 87.7234C49.2303 87.8007 49.5535 87.8264 49.8553 87.7113V87.7108C51.9127 88.0067 53.8476 87.5398 55.8621 87.57C56.181 87.5536 56.5003 87.5371 56.8186 87.5207C57.6887 87.4845 58.5583 87.4478 59.4285 87.4116C59.7489 87.4062 60.0699 87.4012 60.3904 87.3963C61.4573 87.5946 62.4616 87.4138 63.479 87.3152L63.4691 87.3042C65.2462 87.2796 69.493 89.1381 71.2701 89.1135C76.1859 89.6455 75.8819 89.5869 80.1194 90.4323C81.6497 90.8482 83.3191 90.9868 84.8494 90.9868C95.7555 90.9868 140.81 88.13 144.87 87.936L144.868 87.9497ZM104.962 0.701972C105.05 0.749641 105.142 0.770461 105.245 0.710191C105.153 0.687726 105.058 0.688822 104.962 0.701972ZM112.791 0.611566C112.813 0.620881 112.836 0.629099 112.859 0.63677C112.836 0.628551 112.813 0.620333 112.791 0.611566ZM39.8407 37.6725L39.8033 37.65C39.944 37.5437 40.1524 37.5257 40.3448 37.4857C40.176 37.5454 40.0089 37.6117 39.8407 37.6725ZM21.1149 65.3789C21.2308 65.323 21.2715 65.2353 21.2143 65.1312C21.2017 65.1082 21.1786 65.0923 21.1533 65.0781L21.8679 64.9455C22.2093 65.0562 22.5231 65.0014 22.8315 64.9197C22.6528 65.8304 21.758 65.2677 21.2951 65.5964C21.2259 65.6057 21.1588 65.6194 21.0973 65.6518C21.0395 65.6403 20.8895 65.6655 20.9252 65.6205L21.1154 65.3789H21.1149ZM60.3112 35.7762C60.0485 35.8545 59.7923 35.9542 59.5109 35.974C59.1558 36.0123 58.8018 36.0512 58.5094 36.2567C58.4693 36.3356 58.4269 36.4019 58.383 36.4578C57.9839 36.4824 57.5854 36.506 57.1863 36.5301C56.9582 36.4441 56.7312 36.3613 56.5207 36.3674C56.3134 36.317 56.1161 36.3214 55.9352 36.4035C55.8627 36.4594 55.7929 36.5296 55.7236 36.6019C55.3438 36.5833 54.9469 36.4583 54.5946 36.6068C54.5753 36.5822 54.5561 36.5564 54.5369 36.529C54.262 36.3997 54.0097 36.4128 53.775 36.5405C53.7091 36.5816 53.6524 36.6304 53.6057 36.6884C53.3353 36.66 53.0764 36.6928 52.8279 36.7816L52.8169 36.7783C52.7427 36.7695 52.6691 36.769 52.5976 36.7756C51.8951 36.6019 51.246 36.7186 50.6133 36.923C50.5292 36.8873 50.4445 36.8468 50.3599 36.8106C49.625 36.9914 48.8895 37.1679 48.1557 37.3536L48.1414 37.341C47.5835 37.2594 47.0189 37.1323 46.5088 37.3668C46.251 37.3383 45.9938 37.3103 45.7365 37.2862C45.5167 37.1394 45.083 37.1372 45.3397 36.6753L45.9564 36.5191C46.0455 36.5422 46.1334 36.5679 46.2219 36.5997C46.5242 36.6249 46.8342 36.6682 46.992 36.3422L47.0255 36.3055C47.0305 36.3356 47.0382 36.3663 47.0503 36.3986C47.9545 36.8632 48.6817 36.3866 49.4771 36.2666C49.5458 36.2271 49.6074 36.1816 49.6596 36.1285C49.8184 36.146 49.9751 36.1548 50.1224 36.1126C50.179 36.1471 50.2389 36.1767 50.3011 36.2041C52.5119 36.3553 54.6353 36.0775 56.7356 35.6907C56.8801 35.6217 57.0242 35.5543 57.1693 35.4934C58.2576 35.6145 59.2976 35.3641 60.3799 35.4408C60.3937 35.5943 60.3656 35.6995 60.3123 35.7762H60.3112ZM53.554 36.9662L53.5826 37.0035L53.5359 36.9788H53.5354L53.554 36.9662ZM42.2384 37.993L42.2356 38.0056L42.2367 38.01L42.24 37.9925L42.2378 37.993H42.2384ZM42.0174 37.495C41.4925 37.2364 41.0341 37.2769 40.5954 37.4046C40.6954 37.352 40.7741 37.2698 40.8092 37.1306L40.8054 37.1076C41.0687 37.0506 41.3314 36.9936 41.5942 36.9323L41.5975 36.9361L41.6315 36.9356C41.6288 37.0287 41.6541 37.1092 41.7376 37.1114C42.1433 37.112 42.0543 37.3158 42.0174 37.4944V37.495ZM42.3236 53.7812C42.7051 53.7543 43.0871 53.728 43.4686 53.7012C44.1106 53.8628 44.6498 53.5582 45.249 53.5281C45.5183 53.5965 45.7712 53.5807 46.0169 53.527C46.1587 53.6513 46.0735 53.7801 46.0262 53.9072C45.9899 53.8464 45.9333 53.8179 45.8597 53.8195C45.6909 53.9006 45.5216 53.9817 45.3529 54.0634C44.8752 54.0409 44.4388 54.1598 44.0177 54.3275C42.5253 54.4962 40.9538 54.185 39.4785 54.459C39.2339 54.328 39.0195 54.408 38.8013 54.4601C38.4236 54.5324 38.0455 54.6053 37.6678 54.6737C37.5205 54.6562 37.3737 54.6337 37.2259 54.6118C36.6339 54.6206 36.0413 54.6294 35.4493 54.6387C34.7617 54.5894 38.7991 54.785 38.206 55.0392C38.1895 54.9663 38.1493 54.9324 38.0839 54.9274C37.1786 54.7406 36.2942 54.6726 35.495 55.0617C35.4257 55.0387 35.3713 55.0518 35.3317 55.1055C34.5396 54.6885 35.2795 55.3499 34.544 55.2343C34.5248 55.2332 34.5066 55.2332 34.489 55.2343C32.5866 55.2348 30.6924 55.2863 28.8301 55.5121C28.5668 55.3778 28.386 55.557 28.1727 55.6134C27.8528 55.5208 27.5477 55.5148 27.2493 55.5422C27.8698 55.42 28.4283 55.1345 28.9538 54.7641C29.0154 54.7384 29.078 54.7126 29.1401 54.6874C29.2995 54.6831 29.4595 54.6781 29.6195 54.6737C29.9844 54.7587 30.35 54.8425 30.7144 54.9269C31.0854 55.1619 31.4054 55.1055 31.6972 54.8825L31.772 54.8935L31.816 54.8359L31.8171 54.8354C32.4563 54.6595 33.1968 55.1586 33.8113 54.8157C33.9064 54.8348 34.0015 54.854 34.0971 54.8732C35.1712 54.8124 34.9035 54.6935 35.9259 54.431C36.4899 54.4968 37.0483 54.5395 37.5326 54.259C37.8586 54.271 38.1851 54.2831 38.511 54.2951C38.8925 54.2595 39.2734 54.2234 39.6544 54.1872C39.921 54.2113 35.5389 54.2354 35.8055 54.259C36.2475 54.4464 36.6372 54.4946 36.8147 53.9697L36.8213 53.9609L36.8109 54.0141C37.3034 54.5587 37.6601 53.9626 38.0982 54.0475C38.1576 54.0119 38.217 53.9762 38.2769 53.9406C38.765 54.0267 39.2416 54.0721 39.606 53.7149C40.1045 53.8069 40.6267 54.0601 41.061 53.7083L41.1429 53.7149L41.2044 53.6672C41.592 53.9664 41.9603 53.9275 42.3247 53.7817L42.3236 53.7812ZM33.4688 54.6058L33.4716 54.5729L33.5007 54.6162L33.4683 54.6058H33.4688ZM31.081 54.6611L31.0816 54.6524L31.0843 54.6507L31.0871 54.6639L31.0805 54.6611H31.081ZM31.5747 54.8392C31.6186 54.8381 31.6599 54.8485 31.6956 54.883L31.5747 54.8392ZM16.027 48.4231C16.4717 48.4242 16.9219 48.4533 17.3221 48.2681C17.498 48.2281 17.6739 48.1831 17.8492 48.1432C18.0636 48.1234 18.2791 48.1086 18.494 48.0889C18.6561 48.0916 18.8172 48.0938 18.9794 48.101L19.0024 48.1004H19.0046H19.0057C19.5494 48.0944 20.1188 48.2122 20.6135 47.9684C21.0984 47.9673 21.5826 47.9656 22.0674 47.9645C23.1206 48.1547 23.9842 47.7103 24.8939 47.4155C25.2363 47.5169 25.5689 47.5487 25.8718 47.3936C26.251 47.3394 26.6309 47.2802 27.0101 47.2265C27.2723 47.2544 27.5345 47.2824 27.7967 47.3103C27.9644 47.3311 28.1309 47.352 28.298 47.3728C28.901 47.289 29.5051 47.2095 30.1081 47.1262C30.5726 47.2742 30.9601 47.0621 31.3823 47.0139C31.9979 47.0961 32.5976 47.0725 33.1825 46.9624C33.9559 46.9224 34.7287 46.8819 35.5015 46.8419C35.672 46.8895 35.8451 46.9564 35.9908 46.8912C37.7398 46.7936 38.3632 46.735 40.5635 46.489C40.9357 46.4397 41.2644 46.9076 41.6442 46.775C42.1224 46.6999 42.6171 46.6605 42.9508 46.2671C43.318 46.3526 43.6104 46.3 43.7066 45.8814C44.6696 45.6129 55.0646 44.6814 42.2967 45.5723C41.454 45.5526 40.596 45.4644 39.8489 45.8496C39.2894 45.4765 38.8211 45.6573 38.3621 45.8929C38.1334 45.9274 38.0092 46.2786 37.6942 46.0457C36.9851 45.5537 36.4234 46.1252 35.7703 46.0414C34.9777 45.9997 34.1653 45.8709 33.4831 46.2983C32.8164 46.1087 32.2018 46.1334 31.6769 46.5263C31.2344 46.5065 30.7848 46.4545 30.3797 46.6216C29.9427 46.6336 29.5051 46.6408 29.0681 46.6528C29.0038 46.6249 28.9478 46.6336 28.9021 46.6786C28.4602 46.7695 28.0182 46.8654 27.5769 46.9564C27.3625 46.9843 27.1481 47.0084 26.9337 47.0358C26.9178 47.0325 26.9046 47.0336 26.8942 47.0407C26.5556 46.8977 26.2422 46.9613 25.9273 47.0155C25.6046 47.0243 25.2814 47.0375 24.9587 47.0462C23.9649 47.0413 23.0349 47.2588 22.1246 47.5492C21.703 47.5552 21.2814 47.5662 20.8604 47.5772C20.5278 47.3366 20.2662 47.2895 17.1313 47.6939C16.8757 47.5848 16.6295 47.61 16.3948 47.7914L16.4541 47.8752L16.4574 47.9086C14.9618 48.2127 7.72527 49.8083 16.0276 48.4237L16.027 48.4231ZM20.6608 41.6915L20.6542 41.68L20.6636 41.6887L20.6608 41.6915ZM48.8647 9.25108L48.8565 9.22259L48.9076 9.22533L48.8647 9.25108ZM37.448 54.2272C37.476 54.2349 37.5035 54.2453 37.531 54.2584C37.5007 54.2573 37.4732 54.2458 37.448 54.2272ZM27.0404 20.0768L27.0459 20.0927L27.0338 20.0784L27.0398 20.0768H27.0404ZM27.9133 50.205L27.9111 50.194L28.0435 50.2444C27.9968 50.2471 27.9528 50.2389 27.9133 50.205ZM33.736 54.7669C33.7624 54.7789 33.7877 54.7943 33.8102 54.8146L33.736 54.7669ZM35.4708 54.3149L35.4713 54.2984L35.4834 54.3077L35.4972 54.3023L34.1724 54.3006L35.479 54.3094C35.479 54.3094 35.4873 54.3099 35.4867 54.3099L35.4851 54.3088H35.4889L35.4873 54.3099L35.4708 54.3149ZM20.513 21.0806C20.5393 21.0877 20.5652 21.0986 20.5883 21.1162L20.513 21.0806ZM25.6475 55.7241L26.2312 55.5899C26.4401 55.6101 26.6413 55.6123 26.837 55.5981C26.4445 55.6622 26.0553 55.7449 25.6475 55.7246V55.7241ZM36.7174 21.4685L36.7609 21.5008C36.724 21.5041 36.6878 21.5085 36.6509 21.5134L36.7169 21.4685H36.7174ZM29.7855 54.3631L29.8041 54.3466C29.7954 54.3587 29.786 54.3697 29.7761 54.3806L29.7855 54.3631ZM43.7077 45.8808C43.6961 45.8359 43.7055 45.7975 43.7253 45.763L43.7077 45.8808ZM68.126 2.31942C68.1221 2.3364 68.1172 2.35339 68.1111 2.36873C68.0996 2.34846 68.0864 2.32763 68.0716 2.30572C68.0897 2.31065 68.1078 2.31503 68.126 2.31942ZM23.7857 40.468L23.7901 40.4822L23.7736 40.4762H23.7731L23.7857 40.468ZM70.2587 2.71337L70.2631 2.70624L70.2692 2.7172L70.2587 2.71337ZM28.3057 47.2862L28.2997 47.3728C28.298 47.3437 28.3002 47.3142 28.3057 47.2862ZM41.4243 9.7201C41.4133 9.75955 41.3924 9.79133 41.3666 9.81927L41.4243 9.7201ZM32.0424 30.085C31.5637 29.9009 31.208 30.2822 30.7529 30.2028C30.4275 30.2165 30.1015 30.234 29.7761 30.2477C29.482 30.2176 29.1984 30.228 28.9554 30.3836C28.3112 30.4285 27.6665 30.4735 27.0222 30.5184C27.0492 30.6373 27.0766 30.7551 27.1036 30.874C27.6741 30.6904 28.3189 31.0208 28.8763 30.7365C29.0945 30.7255 29.3127 30.7107 29.5321 30.6997C29.8597 30.663 30.1878 30.6307 30.5165 30.5984C30.8997 30.5808 31.2833 30.5682 31.6659 30.5551C31.8946 30.4976 32.2848 30.5951 32.043 30.0844L32.0424 30.085ZM25.3171 30.9014C25.8487 31.114 26.2895 31.0186 26.6226 30.56C26.1664 30.6104 25.5848 30.2483 25.3144 30.9151C24.8746 30.2652 24.4409 30.7217 24.004 30.7058C24.0617 30.8263 24.1194 30.9474 24.1766 31.0685C24.5833 31.114 24.9741 31.1008 25.3166 30.9014H25.3171ZM51.147 68.5294C51.1734 68.3338 51.1635 68.1366 51.108 67.9541C51.086 67.8801 51.0497 67.8193 51.0068 67.7727L51.2311 67.7267L51.2476 67.764C51.5329 68.0078 51.8336 68.0703 52.148 68.016C52.1875 68.0061 52.226 67.993 52.2623 67.9777C52.364 68.0872 52.4135 68.1678 52.4261 68.227C52.2288 68.2741 52.0501 68.3596 51.883 68.4691C51.8621 68.479 51.844 68.4911 51.8303 68.5053L51.8017 68.5256L51.7714 68.5502C51.5505 68.5026 51.3438 68.4982 51.1476 68.5283L51.147 68.5294ZM50.5066 67.8763C50.2829 68.0938 50.0075 68.2587 49.7651 68.4489C49.6228 68.428 49.4804 68.4154 49.3386 68.416C49.0533 68.4182 48.7741 68.4456 48.4976 68.4861L48.4701 68.2823C48.7158 67.8023 49.3869 68.2648 49.6469 67.816C49.9174 67.7788 50.179 67.6215 50.4715 67.884L50.5066 67.8768V67.8763ZM47.4911 68.6286L47.4774 68.6291C47.0431 68.6549 46.5995 68.6346 46.1851 68.7469C46.085 68.7793 45.9817 68.793 45.8784 68.7946C45.8624 68.7645 45.8525 68.725 45.8514 68.673C45.8415 68.3113 46.173 68.2839 46.3687 68.1229L46.4016 68.1437C46.5605 68.1787 46.7067 68.159 46.8447 68.1037L46.8667 68.0807C47.0734 68.2834 47.3575 68.3475 47.5758 68.5289C47.5197 68.5563 47.495 68.5891 47.4917 68.628L47.4911 68.6286ZM42.7056 68.8664C42.4429 68.9453 42.1862 69.0444 41.9047 69.0642C41.5496 69.1025 41.1957 69.1414 40.9032 69.3469C40.8631 69.4258 40.8208 69.4926 40.7768 69.548C40.3783 69.5726 39.9792 69.5967 39.5802 69.6209C39.352 69.5348 39.125 69.4521 38.9145 69.4581C38.7073 69.4077 38.5099 69.4121 38.3291 69.4943C38.256 69.5502 38.1867 69.6203 38.1175 69.6926C37.7376 69.674 37.3408 69.5491 36.9884 69.6981C36.9692 69.6735 36.95 69.6472 36.9307 69.6198C36.6559 69.491 36.4036 69.5041 36.1683 69.6313C36.1029 69.6724 36.0457 69.7211 35.999 69.7792C35.7286 69.7507 35.4697 69.7836 35.2218 69.8723L35.2102 69.8696C35.1355 69.8608 35.0624 69.8597 34.9904 69.8669C34.2879 69.6937 33.6392 69.8099 33.006 70.0143C32.9219 69.9786 32.8373 69.9381 32.7521 69.9019C32.0177 70.0827 31.2822 70.2592 30.5479 70.4449L30.5336 70.4318C29.9756 70.3501 29.4111 70.223 28.901 70.4575C28.6432 70.429 28.3865 70.4005 28.1287 70.377C27.3718 69.8712 27.4735 69.8307 28.3486 69.6099C28.4376 69.6324 28.5256 69.6587 28.6141 69.6904C28.9164 69.7156 29.2264 69.7589 29.3836 69.4329L29.4177 69.3962C29.4227 69.4263 29.4304 69.4576 29.4425 69.4894C30.3467 69.954 31.0739 69.4773 31.8693 69.3568C31.938 69.3173 31.9996 69.2718 32.0518 69.2187C32.2106 69.2362 32.3673 69.245 32.5146 69.2033C32.5712 69.2379 32.6311 69.2674 32.6933 69.2948C34.9041 69.4461 37.0269 69.1683 39.1278 68.7814C39.2718 68.7124 39.4164 68.645 39.5615 68.5842C40.6498 68.7053 41.6898 68.4549 42.7727 68.5322C42.7864 68.6856 42.7584 68.7908 42.7051 68.8669L42.7056 68.8664ZM35.9484 70.0564L35.977 70.0937L35.9303 70.069L35.949 70.057L35.9484 70.0564ZM36.6366 73.6705C36.6504 73.6716 36.6647 73.6694 36.679 73.6688L36.6938 73.6749C36.6746 73.6716 36.6553 73.6699 36.6361 73.6694V73.6705H36.6366ZM46.3549 66.032L46.3533 66.0474L46.3522 66.0457L46.3494 66.0369L46.3549 66.0326V66.032ZM55.3647 64.6524C55.3768 64.6529 55.3894 64.6546 55.401 64.6568L55.3647 64.6524ZM25.1088 56.0507L25.1522 56.083C25.116 56.0863 25.0791 56.0907 25.0428 56.0961L25.1088 56.0507ZM48.818 87.696C48.8472 87.7059 48.8752 87.719 48.901 87.7382L48.818 87.696ZM38.6583 44.3017C38.6474 44.3412 38.6265 44.373 38.6006 44.4009L38.6583 44.3017ZM20.4333 64.6666C19.9545 64.4825 19.5988 64.8639 19.1437 64.7844C18.8183 64.7981 18.4923 64.8156 18.1669 64.8293C17.8729 64.7992 17.5892 64.8096 17.3463 64.9652C16.702 65.0102 16.0573 65.0551 15.4131 65.1C15.44 65.2184 15.4675 65.3367 15.4944 65.4556C16.065 65.2721 16.7097 65.6024 17.2671 65.3181C17.4853 65.3071 17.7036 65.2923 17.9223 65.2814C18.2499 65.2447 18.5781 65.2123 18.9068 65.18C19.2899 65.1625 19.6736 65.1499 20.0562 65.1367C20.2848 65.0792 20.6751 65.1767 20.4333 64.6661V64.6666ZM48.7394 65.4901L48.7521 65.5657L48.7416 65.5635L48.7394 65.4896V65.4901ZM13.708 65.483C14.2395 65.6956 14.6803 65.6003 15.0134 65.1417C14.5567 65.1921 13.9756 64.8299 13.7052 65.4967C13.2655 64.8469 12.8318 65.3033 12.3948 65.2874C12.4525 65.4079 12.5102 65.529 12.5679 65.6501C12.9747 65.6956 13.365 65.6824 13.708 65.483Z" fill="#FEB904"/>
<path fill-rule="evenodd" clip-rule="evenodd" d="M115.002 61.8032C115.002 63.3477 114.852 65.0989 114.697 66.6369C114.737 66.9388 114.756 67.2807 114.793 67.3585C114.927 67.6385 114.975 68.0072 114.736 68.2253L114.688 70.1507C114.85 70.7161 114.443 70.641 114.29 70.2224L114.269 70.195C114.121 70.1046 113.487 69.2373 113.781 69.1545C113.736 69.0247 113.693 68.8915 113.65 68.759C113.616 68.6718 113.532 68.4949 113.536 68.4077C113.479 68.2357 113.421 68.068 113.358 67.9097C112.985 66.97 112.736 66.1936 112.415 65.2342C111.011 61.0317 108.556 55.3159 107.617 52.3637C107.445 51.8213 107.317 51.4558 107.141 51.2103C107.079 51.1862 107.013 51.1435 106.944 51.0756C106.753 50.8838 106.288 51.441 106.288 50.7989C106.255 50.8038 106.235 50.8076 106.201 50.8043C106.04 50.8328 105.827 50.8246 105.804 50.8301L104.833 50.806C104.849 51.006 104.728 51.2547 104.519 51.046C104.093 51.046 104.436 50.9988 104.178 50.7627L104.038 50.7687L104.038 50.8526C104.037 51.0317 103.435 51.1347 103.241 50.9117L103.034 50.7874C102.8 50.8805 102.7 51.1216 102.578 51.3249C102.138 52.441 102.415 54.9334 102.415 56.6993V56.8133C102.622 57.0308 102.888 57.6582 102.888 57.7042L103.706 60.303C103.733 60.332 103.749 60.3709 103.744 60.4186L103.928 60.9687C104.154 61.3616 104.415 61.7791 104.584 62.1977C104.619 62.4437 104.658 62.6519 104.737 62.8891C104.817 63.282 104.825 63.6814 104.892 64.0798L106.169 66.6473C106.216 66.1295 106.255 65.4534 106.255 64.1428V59.6762L108.148 64.5948C109.356 68.2423 111.674 75.9191 113.808 79.2603C113.898 79.2219 113.999 79.2038 114.075 79.229C114.195 79.1343 114.354 79.063 114.476 79.0921C114.665 79.0652 114.872 79.0608 114.954 79.0389C115.035 79.017 115.097 79.0132 115.142 79.0214C115.312 78.868 115.344 79.1282 115.351 79.2438L115.473 79.2433C115.54 79.148 115.61 79.068 115.613 79.0608C115.708 78.8669 115.85 78.7924 115.928 78.9463C116.007 78.9584 116.107 79.0181 116.2 79.1507C116.444 78.9743 116.478 79.2855 116.536 79.4389L116.71 79.4559L116.757 79.349L116.732 79.3436C116.744 79.3205 116.76 79.3036 116.779 79.2915C116.818 79.183 116.856 79.0576 116.89 78.9217C117.116 78.0171 117.239 76.5815 117.434 75.7098C118.026 73.0716 118.844 64.9959 118.844 62.2267C118.844 59.5764 118.689 56.8703 118.361 54.4129L116.99 47.6659L116.563 47.3645L116.027 47.4385C115.343 47.5777 115.408 47.2752 115.151 47.1119L114.98 47.2106C114.852 47.3377 114.543 47.3443 114.543 47.1169L114.19 46.9804C114.774 48.3689 114.312 49.137 114.312 48.9694L113.772 47.433L113.478 47.2818C113.425 47.1684 113.39 47.0758 113.372 46.9996C113.312 47.0977 113.209 47.1278 113.151 46.9372L113.136 46.9224L112.885 47.1826C112.974 48.21 113.41 49.3852 113.635 50.4044C113.911 51.658 114.137 52.8081 114.336 53.9581C114.726 56.2035 115.004 59.2806 115.004 61.801L115.002 61.8032ZM104.518 50.7326L104.435 50.7337L104.518 50.7326ZM118.07 60.0592C118.07 60.7024 117.957 61.7215 118.159 61.8076C118.509 61.956 118.362 61.0284 118.362 60.4257L118.266 58.8894C118.266 58.8894 118.329 57.8713 118.012 58.2154L118.07 60.0592ZM102.412 58.7403C102.411 59.7419 102.409 60.7435 102.411 61.7451C102.432 61.7478 102.457 61.7566 102.486 61.7725L102.671 62.7741C102.682 62.7987 102.688 62.8294 102.688 62.8672L102.996 64.5285L103.317 64.9553C103.446 65.014 103.552 65.2326 103.418 65.3471L103.285 68.1891C103.285 68.9644 102.993 68.6422 102.993 68.4894L103.072 68.4236L102.866 67.5881L102.717 67.4752L102.764 67.3251C102.578 67.1399 102.609 67.2105 102.607 66.9771L102.752 65.4167C102.569 65.2342 102.478 64.9822 102.389 64.7345C102.251 68.1573 101.677 74.1943 102.529 76.4621C102.615 76.45 102.681 76.4429 102.733 76.4396L102.699 75.7208C102.699 74.9109 103.038 75.2074 103.038 75.695C103.066 75.5295 103.319 75.5465 103.327 75.7131L103.495 76.455L103.518 76.4287C103.518 75.9701 104.05 76.2177 104.05 76.5251L104.109 76.6801L104.726 76.7185L104.767 76.6237L104.625 76.2966C104.625 75.5536 105.013 75.849 105.013 76.1887L105.038 76.2177C105.224 76.1114 105.438 76.324 105.554 76.4396L105.668 76.4435C106.218 75.6862 106.041 73.6135 106.04 72.8639C106.037 71.4426 105.992 69.9364 106.029 68.5206L105.689 66.9344C105.54 66.8637 105.369 66.6402 105.369 66.4851L104.83 65.4101C104.791 65.2539 104.765 65.1016 104.714 64.9493C104.567 64.8019 104.64 64.6507 104.742 64.6085L104.367 64.0458L104.212 63.1439C104.094 63.0135 103.976 62.7807 103.961 62.75L103.95 62.6601C103.881 62.585 103.877 62.4514 103.994 62.3933L103.907 61.9045C103.751 61.9045 103.741 61.7561 103.751 61.6328L103.481 61.4213C103.429 60.3742 103.288 61.1358 103.288 60.3983L102.41 58.742L102.412 58.7403Z" fill="#104236"/>
<path fill-rule="evenodd" clip-rule="evenodd" d="M93.6663 71.1616C91.5891 71.1616 90.3369 71.4421 88.4608 71.715C87.3368 71.8783 80.4367 71.8547 75.5819 71.8257C74.8965 72.0147 74.1456 71.9791 73.469 71.8421C73.0166 71.7501 71.9975 72.298 71.7144 71.875C71.4769 71.9939 71.1801 72.3352 71.0267 71.9446C70.8866 72.0843 70.7519 71.8985 70.7519 71.7649C70.4001 71.6246 70.7002 70.9397 70.6315 70.6997C70.493 70.2181 70.4595 70.406 70.6073 69.8921L70.6348 69.702C70.5733 69.3255 70.5172 68.9442 70.4677 68.559C70.3314 68.2078 70.2363 67.8511 70.3655 67.6648C70.2676 66.6873 70.2132 65.6918 70.2099 64.6957C70.144 64.4612 70.1066 64.2086 70.1247 64.1401C70.2523 63.6508 70.0082 63.6815 70.2297 63.1801L70.2182 63.1423C70.1665 62.8015 70.0769 62.5424 70.3089 62.241C70.5667 59.2779 71.345 56.4359 72.8583 54.1834C73.3805 54.1571 75.8837 54.2113 76.0783 54.219C77.6872 54.2858 78.6826 54.2305 79.8359 54.1867C79.9969 54.1247 80.3663 54.1401 80.6192 54.1615C80.8621 54.1549 81.1177 54.1505 81.3909 54.1483L81.9901 53.9938C82.0934 53.8908 82.4809 53.8716 82.5276 54.0519L83.4934 53.859C83.8546 53.7259 83.9612 53.9483 84.1448 54.1472H84.806C84.562 53.6289 86.886 53.802 86.9152 53.802C88.4081 53.802 87.5209 53.8223 88.6714 53.996C89.16 54.0694 90.2775 53.9089 90.3792 54.1472H90.6073C90.9091 54.0174 91.4934 53.9708 91.7166 53.9467C91.9777 53.9187 93.1089 53.7023 93.2364 53.8508L93.7702 53.9511C93.8565 54.0552 93.8262 54.1187 93.7383 54.1543C94.6139 54.3039 95.445 57.124 95.7133 58.0621C96.6296 61.2613 96.7274 64.6524 95.5588 67.7333C95.0366 69.1097 94.31 69.9502 93.6657 71.1632L93.6663 71.1616ZM82.9146 75.5871H82.5804H82.9146ZM66.3567 63.9302C66.3567 66.4293 66.5177 72.5111 68.125 74.099C68.955 74.9192 68.6664 74.3537 68.7137 74.831L69.5283 75.1652C69.5569 75.4085 68.1261 75.6304 69.5553 76.0106C69.7257 76.0556 68.9556 75.9416 68.9193 76.4419C69.1452 76.4073 69.3678 76.3958 69.4508 76.3958L71.4934 76.3416L72.5538 76.4501C73.187 76.5997 72.9495 76.2205 74.0291 76.6029L75.2532 76.5586L75.3752 76.5892C75.738 76.5333 76.0942 76.4775 76.7192 76.472L77.3926 76.3958C77.8592 76.3208 78.0104 76.3783 78.0313 76.4594C82.5974 76.3887 93.8405 76.0008 95.1301 75.1718C95.251 75.094 95.4198 74.9181 95.6132 74.6863L94.8987 74.9176C94.7541 75.0617 93.6086 74.9652 93.3574 74.9652L92.5867 75.2534L85.3134 75.9257H81.1963C80.9363 75.643 81.4827 75.6353 81.5805 75.6353L81.7735 75.5871C81.8603 75.5005 82.8294 75.1274 83.002 75.2995L85.5355 75.3953C86.5265 75.2978 87.5225 75.2507 88.5169 75.2036L90.7327 74.9636C90.8778 74.8184 91.2724 74.9159 91.4549 74.9159L91.8886 74.7718C92.1135 74.6973 92.3383 74.654 92.5631 74.58L93.1188 74.4842C93.7213 74.3422 94.5831 74.4359 95.223 74.4359C95.223 74.2261 95.3719 74.2442 95.5489 74.2442L96.7445 73.1023C96.7742 73.0623 96.8033 73.0371 96.8302 73.0251C97.1315 72.5834 97.3849 72.1977 97.508 72.0142C98.6914 70.2488 99.4879 68.2741 99.9156 66.2238L99.9914 65.4129C100.122 64.9143 99.9788 64.139 100.227 64.0404V64.0091C100.227 63.7374 99.6418 63.0503 100.031 63.0503C99.9293 62.8755 100.148 62.601 100.292 62.4465L100.165 61.3665C100.19 61.2986 100.218 61.2613 100.247 61.2487C100.11 59.2954 99.6616 57.3547 98.9097 55.5438L98.7321 55.2622C98.526 54.9253 98.4221 54.9894 98.4221 54.671L98.1813 54.0091C98.0263 53.7204 97.8625 53.4355 97.691 53.1566L97.4481 53.0755C97.3464 52.9018 97.132 52.6109 97.1996 52.4037C97.0397 52.1736 96.9083 52.001 96.8027 51.8662L96.5719 51.9117C96.4641 51.846 96.4235 51.7923 96.4251 51.7473C96.2558 51.7304 96.0788 51.595 96.2492 51.4033C96.0937 51.235 96.3372 51.0723 96.4834 50.9967C96.5565 50.6449 96.6785 50.2904 96.0403 50.1595C96.0063 50.2302 95.9282 50.2904 95.793 50.2992L95.6171 50.3929C95.229 50.4718 94.6233 50.8608 94.6233 50.348L92.9786 50.5765C92.6181 50.423 93.2029 50.2121 93.5965 50.1129L87.8886 50.1343C86.7041 50.1485 86.3287 50.5255 85.1435 50.5403L77.0204 50.5249C75.9337 50.5573 75.7276 50.4587 74.4974 50.4647C73.4877 50.4702 72.756 50.4137 72.1371 50.4965C72.0601 50.5929 71.8606 50.6729 71.6363 50.6729L69.7493 52.2054L68.6659 53.8941C68.4696 54.2272 68.3141 54.4655 68.1327 54.8513C67.8886 55.3696 67.6644 55.9526 67.4626 56.5821C67.5528 56.6446 67.5885 56.8534 67.4066 57.0353L67.1174 57.9717C67.2076 58.1525 67.2241 58.2642 67.262 58.4637C67.262 58.6894 67.0081 58.8127 66.9251 58.8401L66.8772 59.1475C66.8772 59.3091 66.9597 59.6417 66.8289 59.7716L66.6035 60.4663C66.5117 61.1348 66.4441 61.8142 66.404 62.493C66.5243 62.63 66.4435 62.9489 66.4435 63.1084L66.4738 63.1473C66.5925 63.3653 66.4771 63.6289 66.3616 63.6579L66.36 63.9319L66.3567 63.9302Z" fill="#104236"/>
<path fill-rule="evenodd" clip-rule="evenodd" d="M91.7001 19.851C93.8862 19.851 94.1748 19.6921 95.7622 20.365L95.9299 20.4762C96.2003 20.4981 96.7747 21.0274 97.021 21.2652C97.3145 21.5003 97.5965 21.7529 97.8054 21.9961C98.1192 22.2991 98.4073 22.5068 98.5133 22.8273C98.6299 23.1774 98.5656 23.4876 98.3391 23.1769C98.2138 23.2876 98.3842 23.5171 98.1451 23.5906C98.1385 23.6382 98.249 23.9429 98.1995 24.0267C97.8054 25.1105 96.6796 25.951 96.1816 26.4518C95.6517 26.9838 95.0268 27.1871 94.3474 27.6007C93.6504 28.0254 93.193 28.387 92.1723 28.41L91.7952 21.7496C91.6638 20.7058 91.7556 20.7458 91.6996 19.851H91.7001ZM97.4178 31.4674L98.8789 32.9084C99.3818 32.8536 98.3056 32.0021 98.2446 31.9413C98.244 31.9408 97.4283 30.9485 97.4178 31.4674ZM87.2609 15.0316C86.8019 17.0205 87.1059 19.4264 87.2835 21.3726C87.3851 22.4871 87.6913 23.3122 87.6979 24.5757C87.7105 26.9701 88.3476 32.5435 88.335 34.7877L88.4916 38.6379C88.667 37.6018 88.8434 36.5679 89.0248 35.5329C89.0248 35.1176 88.8781 34.1785 89.2068 34.2639C89.431 34.322 89.3261 35.5378 89.3112 35.5926C89.1991 36.0222 89.104 36.7131 89.3013 37.1262L89.2018 38.9864C89.0105 39.3382 89.2387 39.2461 89.0265 39.4576C89.0265 39.6927 89.1073 39.9535 88.9303 40.1299L88.8192 40.5167C88.5922 40.9918 88.8759 42.79 88.7126 43.0317C88.4323 43.4453 88.6521 43.3834 88.4488 43.5867L88.4119 43.6782C88.4927 43.9598 88.6054 44.2579 88.7582 44.5751C88.8632 44.5751 88.7764 44.2721 88.8946 44.236C89.0072 44.202 89.4255 44.545 89.5729 44.5549C89.8092 44.5708 89.7806 44.2754 89.9071 44.2842C90.0648 44.2957 90.039 44.6381 90.1836 44.6524C90.2962 44.6634 90.4062 44.6765 90.5134 44.688C90.7184 44.7105 91.0449 44.6409 91.2472 44.6507C91.3313 44.6546 91.5467 44.3965 91.6105 44.4579C91.7193 44.562 91.6171 44.7828 91.7446 44.7877C92.6626 40.8597 92.385 36.1915 92.385 31.8131C93.3568 32.0717 96.844 35.2343 97.6685 36.1175C99.2554 37.8177 100.453 40.3743 101.56 42.0224L101.719 42.023C101.748 41.8646 101.907 41.7364 102.065 41.8936H102.713C102.628 41.7983 102.568 41.5775 102.762 41.5583L102.751 41.5441C102.628 41.3627 102.178 40.8882 102.417 40.7595C102.583 40.6702 103.002 41.0964 103.254 41.303C103.581 41.5715 104.048 41.7709 104.384 42.0712C104.515 42.0125 104.608 41.909 104.686 41.7375C104.644 41.6898 104.618 41.6312 104.594 41.6082L104.45 41.5594C104.312 41.5512 104.191 41.2696 104.547 41.2696C104.593 41.1699 104.753 40.7551 104.886 40.9036C104.898 40.0762 104.282 39.1568 103.687 38.2023C102.573 36.415 98.7239 31.8526 97.4091 30.8488C96.7813 30.3694 96.8753 30.7233 96.6549 29.8992C97.4899 29.7053 100.571 27.947 101.421 27.4194C108.04 23.3144 102.141 17.5542 96.6466 17.1454C95.627 17.0698 94.4683 17.003 93.4371 16.9882C92.5757 16.9761 92.236 16.9997 92.252 16.7783L92.3229 15.8124C92.3256 15.7762 92.3405 15.7461 92.3652 15.7209C92.3636 15.654 92.3729 15.5844 92.3729 15.5379C92.1943 15.5379 92.0871 15.3297 92.2289 15.1888L92.213 14.8053L91.7122 15.0091C91.6292 15.1056 91.4769 15.2316 91.3511 15.1056C91.2395 15.1056 90.7981 15.1543 90.7843 14.9247L90.5925 14.8289L90.2077 15.1165C90.034 14.8475 90.0022 15.1291 89.8889 15.0168C89.8889 15.3461 89.6388 15.5138 89.5069 15.3461C89.4745 15.3307 89.4437 15.294 89.4217 15.2305L89.3766 15.202C89.4866 15.1899 89.2672 14.9045 89.0507 14.831L88.6961 14.8837C88.7159 15.3861 88.0871 15.2573 88.0871 15.122L87.7034 14.8771L87.2642 15.031L87.2609 15.0316Z" fill="#104236"/>
<path fill-rule="evenodd" clip-rule="evenodd" d="M76.4218 32.4575L78.3049 22.0296L78.5441 22.812C78.6578 22.8405 78.7546 22.9413 78.6963 23.1161L79.501 25.9417C79.8215 27.2282 80.3322 28.8357 80.4382 30.1118L80.3563 30.1206C80.4053 30.2532 80.3915 30.3885 80.2222 30.3902C79.4631 30.3973 79.6934 30.5343 79.4103 30.5343C79.5769 30.8384 79.0393 30.8247 78.8376 31.0252L78.278 31.3797C78.1483 31.5052 78.0334 31.5211 77.9691 31.4811C77.8168 31.8093 77.155 32.4076 77.1528 32.4087C77.1528 32.9183 76.7669 32.6695 76.7669 32.669C76.4206 33.0141 76.2942 32.6136 76.4218 32.4575ZM87.0525 42.2355C87.0234 42.189 86.9981 42.0558 86.9904 42.0838L86.826 41.383C86.7617 40.9244 86.7524 40.5129 86.7425 40.3206C86.3967 37.9448 86.0504 35.5696 85.6992 33.1944L85.2281 30.5814L85.1253 29.7864C84.9923 29.542 84.6625 29.0927 84.8906 28.8648L84.7505 27.5136C84.6015 27.2178 84.419 26.9312 84.413 26.8244L84.2678 25.6721L83.9793 25.2403L83.7885 23.8125L83.163 22.5265C83.0805 22.4454 83.1025 22.3649 83.0646 22.2641L82.6304 20.7272C82.5001 20.5973 82.5825 20.2653 82.5825 20.1036L81.9257 17.9043C81.7915 17.6577 81.5711 17.4084 81.5711 17.1268L81.5239 17.0309L81.5178 17.0254C80.9467 16.4967 80.9934 16.8205 80.9934 16.1669L80.79 15.9159L80.6389 15.9609C80.3646 16.0167 79.5549 15.0897 79.5494 15.0113C79.4741 14.985 79.3174 14.9209 79.3928 14.8201C78.6485 14.4694 77.8888 14.4453 76.8247 14.5467C76.2728 14.608 76.1403 14.7669 76.0353 14.87C75.6071 15.4798 75.5818 15.7565 75.4571 16.5027L75.2647 18.4232C75.2647 18.6533 75.0992 18.8785 74.931 19.1037L72.397 33.9089L72.2497 36.1186C72.2871 36.2748 72.3151 36.5652 72.2107 36.7049L72.2052 36.7865C72.1227 37.0315 72.0073 37.2775 71.8908 37.5092L71.8897 37.5733C71.965 37.8062 71.9946 38.0484 71.9111 38.1317V38.2155C71.9111 38.6527 72.1804 38.6111 72.0683 38.8724L71.6945 40.5441C71.6945 40.9216 71.6467 41.0701 71.5571 41.3134C71.5076 41.9172 71.4521 42.5281 71.3598 43.1802C71.1437 44.7044 70.9041 46.0238 71.4235 47.2194C71.4527 47.2161 71.4796 47.2139 71.5021 47.2128C71.7165 47.2029 72.1711 46.7257 72.2321 47.1487L72.3475 47.2944L72.4712 47.2364C72.4712 46.9893 72.662 46.8671 72.8269 46.7027C73.1622 46.3685 73.0385 47.2895 73.028 47.4166L73.0616 47.4199C73.1385 47.2731 73.891 47.1772 73.9389 47.3733C74.0532 47.3355 74.123 47.3816 74.1395 47.4484C74.5968 47.3405 74.7007 46.883 74.9272 45.4606L75.6363 39.1491C75.8897 38.1289 76.1804 38.3338 77.8289 36.8687C78.4687 36.3 79.805 35.1258 80.7351 34.6047C80.8197 34.5576 80.7807 34.3198 80.8576 34.2842C80.8923 34.2683 81.0473 34.448 81.0803 34.4349C81.1116 34.4223 81.0418 34.1264 81.0044 34.0733C80.8335 33.8283 81.2545 34.3746 81.2919 34.3659C81.3947 34.8069 82.4033 37.301 83.0915 40.0165L84.0656 43.7242L84.7724 43.5259C85.0236 43.3736 85.1231 43.5779 85.1627 43.7637C85.3139 43.7724 85.4557 43.7801 85.5882 43.7845C85.6349 43.7555 85.6921 43.7324 85.7745 43.7324L85.57 43.4486C85.4947 42.7593 86.1516 43.4925 86.1609 43.4925C86.1884 43.4651 86.2214 43.4503 86.2566 43.4459C86.2775 43.4086 86.3005 43.3763 86.3253 43.3516C86.3253 43.1259 86.034 42.5846 86.317 42.4322C86.7447 42.201 86.737 43.0245 86.737 43.184C86.737 43.2147 86.77 43.2585 86.8079 43.3056C86.8315 43.3034 86.8557 43.3029 86.8821 43.304C86.9964 43.07 87.0525 42.7287 87.0525 42.235V42.2355Z" fill="#104236"/>
<path fill-rule="evenodd" clip-rule="evenodd" d="M129.297 21.8164C129.297 23.3527 129.261 24.9329 130.007 26.2621C130.108 26.3339 130.179 26.4829 130.19 26.4966C130.349 26.4966 130.352 26.6303 130.335 26.7618C130.394 26.8385 130.453 26.9125 130.517 26.9843C130.635 26.9936 130.789 27.0687 130.923 27.3728L130.992 27.4265C131.119 27.4528 131.294 27.5744 131.448 27.7169C132.774 28.4116 134.534 28.1974 136.552 28.1974C137.833 28.1974 142.215 24.7389 145.017 29.9671C146.155 32.0898 146.652 33.9203 146.184 35.6178C146.17 35.7663 146.149 35.8901 146.145 35.9169C146.065 36.4128 145.714 36.9169 145.484 37.3645C145.531 37.5579 145.512 37.7377 145.278 37.7431C145.278 37.9886 145.107 38.4631 144.813 38.4631C144.898 38.7075 144.801 38.8483 144.629 39.0253C144.57 39.1573 144.476 39.2713 144.371 39.3162L143.382 39.8795C142.872 39.9041 143.327 39.508 143.451 39.4061L144.125 38.6565C143.933 38.828 143.726 38.999 143.506 39.1699C142.41 40.0208 141.51 40.6378 140.707 41.0235C140.695 41.0405 140.683 41.0586 140.669 41.0772C140.428 41.4114 140.493 41.2766 140.297 41.2032C140.202 41.2405 140.11 41.2744 140.017 41.3046L139.73 41.5079C139.496 41.5955 139.467 41.5446 139.385 41.4624C139.324 41.4722 139.264 41.481 139.203 41.4876C139.139 41.6454 138.769 41.5714 138.639 41.5385C138.534 41.6207 138.369 41.652 138.315 41.4898L138.256 41.4607C137.318 41.3013 136.356 40.7484 135.144 39.8088C134.398 39.2302 134.23 38.9168 133.458 38.759C133.416 38.8165 133.361 38.8686 133.294 38.9075C133.417 39.16 133.137 39.417 132.938 39.2176C132.616 39.2176 132.391 39.2483 132.167 39.0253H132.095C131.955 39.165 131.601 39.3436 131.601 38.9885L130.464 38.6899C130.453 38.714 130.43 38.7371 130.399 38.7595V38.9277C130.399 39.3896 130.022 39.2389 129.952 39.1688L129.584 39.3299C129.683 39.7091 129.788 40.034 129.873 40.3846C130.398 42.5462 131.935 42.6464 133.806 43.2694C134.383 43.4617 134.463 43.5757 135.028 43.7538C137.762 44.6145 141.919 44.2343 144.513 43.15C147.216 42.0196 151.061 38.7502 151.061 35.0019C151.061 34.6721 151.051 34.3417 151.031 34.0118L150.916 33.5779C150.813 33.4754 150.858 33.2316 150.94 33.0481C150.892 32.6601 150.828 32.2755 150.748 31.8958L150.409 31.2016C150.249 31.0547 150.356 30.9265 150.491 30.8728C150.441 30.7046 150.388 30.5381 150.331 30.3737C150.112 30.1315 149.814 30.0203 150 29.834C150 29.6154 149.575 29.6641 149.797 29.1617C149.715 28.8494 149.472 28.4669 149.299 28.1946C149.203 28.1716 149.195 28.1546 149.095 27.9026C148.942 27.9026 148.858 27.7525 148.909 27.6297C148.813 27.5004 148.712 27.375 148.608 27.2517C148.383 27.1081 148.143 27.1777 148.222 26.8627L148.068 26.6747C147.85 26.6232 147.733 26.6172 147.717 26.3575C146.417 25.2556 144.706 24.5806 142.528 24.5806C140.721 24.5806 137.932 24.4392 136.351 24.8041C134.903 25.1389 134.627 25.7723 134.149 24.0146C133.723 22.4432 134.127 20.9331 135.329 19.5305C135.842 18.931 137.31 17.8352 138.047 17.7744C138.268 18.599 138.027 17.7744 138.36 18.5261L139.195 19.9507C139.228 19.8329 139.283 19.7913 139.343 19.7962C139.573 19.4702 139.953 20.24 140.038 20.2526C139.986 20.1019 140.178 20.0028 140.284 20.1085C140.467 20.1693 140.415 20.1754 140.594 20.1123L140.657 20.0493C140.741 19.8641 141.044 19.8548 141.044 20.0981L141.271 20.5649L141.82 20.5731L141.86 20.4104C141.75 20.3008 141.535 19.9792 141.729 19.8477C141.632 19.7507 141.664 19.5809 141.821 19.5809C141.896 19.3951 142.152 19.4844 142.152 19.6658L142.785 20.4888L142.83 20.4652C142.875 20.3995 142.968 20.2411 143.064 20.2756C143.524 19.771 143.587 18.7667 143.369 18.2319L142.172 15.7904C141.325 14.0365 141.909 14.6573 141.377 14.4327C141.295 14.4968 141.182 14.4973 141.147 14.3554C140.865 14.608 140.81 14.2502 140.631 14.2502L140.1 14.2025C139.989 14.1554 139.876 14.1176 139.775 14.082C136.829 13.6952 137.616 14.2557 136.824 14.6414C136.329 14.8825 135.67 14.7844 135.046 14.9959C134.252 15.2644 133.061 16.0682 132.371 16.5832C131.073 17.5541 129.299 19.6976 129.299 21.8158L129.297 21.8164Z" fill="#104236"/>
<path fill-rule="evenodd" clip-rule="evenodd" d="M122.896 54.7372V55.8358C122.923 55.9169 122.941 56.0347 122.941 56.2001C123.244 56.4297 122.979 56.5437 122.979 56.7831C123.134 56.8604 123.349 57.131 123.152 57.2773C122.756 57.5694 123.036 57.7984 122.978 58.1814C122.969 58.2439 122.949 58.2828 122.924 58.3025C122.984 59.6279 123.12 60.7166 123.115 62.0108C123.11 63.0688 123.202 65.9125 123.267 68.5907C123.318 68.6175 123.375 68.6701 123.436 68.754C123.638 69.0323 123.511 69.6356 123.299 69.984L123.315 70.8349L123.414 71.3242L123.606 71.756C123.779 71.9039 123.644 72.128 123.511 72.2606L123.376 73.9783L123.354 74.0013C123.413 74.5657 123.352 75.3876 123.348 75.9157C123.436 75.873 123.583 75.8681 123.799 75.9596C124.305 76.1749 123.735 76.3733 123.583 76.4593L123.807 76.7683C123.941 76.902 123.864 76.9716 123.735 76.982C123.746 77.0801 123.706 77.1809 123.57 77.2488C123.578 77.3195 123.579 77.4302 123.605 77.4943C123.782 77.4126 124.026 77.3831 124.195 77.5321L124.487 77.3957C124.636 77.3201 125.05 77.2581 125.263 77.342C125.449 77.2959 125.654 77.3924 125.517 77.5803L125.688 77.6187C125.783 77.6187 125.863 77.6324 125.927 77.6543C127.673 77.8362 133.417 77.2346 134.844 76.9031C135.544 76.6949 135.462 76.0889 134.64 76.0215C134.721 75.856 135.277 75.8478 135.03 75.6818L135.308 75.4429C135.978 75.2402 135.519 74.8473 135.566 74.6298C135.622 74.3706 136.433 74.1805 136.396 74.0441C136.257 73.5416 134.72 73.9378 134.01 73.8709C130.732 74.0627 132.833 74.1378 127.164 74.1378L127.163 67.7211C127.129 67.6976 127.095 67.6663 127.061 67.6285C126.902 67.6285 127.053 67.3754 127.158 67.2165C127.112 66.8494 126.729 66.6302 127.118 66.2916C127.126 66.2823 127.057 66.1508 127.047 66.1311C126.879 65.8451 127.176 65.6078 127.284 65.7245C127.374 65.7547 127.487 65.8237 127.589 65.9059C127.779 65.9322 128.038 65.9519 128.383 65.9393L132.306 65.4396C134.147 65.0747 134.648 64.9783 134.789 64.7405C134.627 64.7131 134.44 64.3887 134.617 64.2134L134.541 63.7975C134.478 63.6704 134.53 63.5608 134.634 63.4732C134.574 63.4337 134.56 63.351 134.591 63.2885C134.297 63.3767 134.372 63.0759 134.584 62.9735C134.391 62.9576 134.165 62.9252 134.14 62.8535C134.004 62.4568 135.391 61.8026 133.991 61.8026H130.15C128.731 61.8026 128.303 62.0152 126.95 62.0152L126.871 58.9518C126.734 58.8197 126.388 58.5644 126.591 58.3611L126.688 58.0488C126.587 57.9622 126.465 57.8143 126.591 57.6888L126.803 56.2993L126.746 54.0967C130.088 54.0967 131.852 54.1531 134.879 53.4502C134.879 53.2222 135.359 53.3598 135.054 52.8776C134.997 52.7872 134.953 52.7833 134.986 52.6639C134.853 52.562 134.766 52.3489 134.999 52.1165C134.942 52.0064 134.836 51.8371 134.818 51.7177C134.551 51.5494 134.638 51.5697 134.858 51.5133C134.922 51.4081 135.037 51.3489 135.078 51.3078L135.304 50.9615C135.238 50.904 135.183 50.8465 135.198 50.7857C135.231 50.6443 136.172 50.1605 136.197 50.0147C136.226 49.8509 135.504 50.0093 135.518 49.8345C134.5 50.0712 130.374 50.2887 127 50.4153C126.855 50.5796 126.633 50.7402 126.508 50.7402L125.256 50.7884C124.832 50.8585 124.817 50.8536 124.522 51.1243L124.241 50.9807C124.18 50.9878 124.136 50.9698 124.107 50.9128L123.552 50.5188C123.307 50.5232 123.153 50.5933 122.93 50.6706C122.908 50.9473 122.81 51.3089 122.807 51.3358C122.805 51.3632 122.804 51.3977 122.802 51.436C123.03 51.3812 123.035 52.4497 123.046 52.4749L123.28 52.7888C123.513 53.1105 123.404 53.5696 123.404 53.9504C123.581 54.1268 123.596 54.1614 123.484 54.3844C123.573 54.5624 123.695 54.8112 123.602 55.0123L123.771 55.6078C123.945 56.2615 123.373 55.924 123.373 55.8259C123.207 55.4659 123.03 55.1098 122.897 54.7356L122.896 54.7372ZM132.542 64.375C132.879 64.375 133.036 64.0222 132.35 64.1328C132.184 64.1597 131.584 64.0879 131.514 64.2764C131.398 64.592 132.054 64.4391 132.381 64.4232L132.542 64.3756V64.375ZM132.455 64.5646C132.331 64.5646 131.537 64.592 130.95 64.6868C130.886 64.6868 130.807 64.6934 130.713 64.7087L128.808 64.8424C128.355 65.2555 130.06 65.0418 130.313 65.015C130.385 65.1903 130.803 65.0199 131.426 64.9503C131.784 64.9103 132.767 64.884 132.842 64.7246C132.975 64.4463 132.538 64.5482 132.455 64.5646Z" fill="#104236"/>
<path fill-rule="evenodd" clip-rule="evenodd" d="M102.414 16.2862C102.422 16.6462 102.42 16.9251 102.412 17.1432C102.79 17.073 103.266 17.0599 103.355 17.0982C103.755 17.2681 102.976 17.4801 102.936 17.49C102.971 17.701 102.607 17.7267 102.481 17.7766L102.385 18.0708C103.408 18.0708 103.012 18.3853 102.914 18.3853C102.825 18.3853 102.742 18.3875 102.665 18.3902C102.738 18.4724 102.588 18.5891 102.574 18.5941L102.55 18.9447L102.622 19.0253C102.706 19.0707 102.744 19.1502 102.743 19.217C102.925 19.3463 103.109 19.5135 103.146 19.5403C103.503 19.8038 103.626 19.8773 103.587 20.1112L103.91 20.2082C104.069 20.1189 104.277 20.074 104.292 20.0696C106.35 19.4274 106.221 20.0762 105.956 20.0893L104.628 20.3337C106.126 20.3611 107.935 19.6893 108.815 19.6893L109.357 39.0039L109.46 37.656V32.2349C109.46 31.6815 109.315 30.5194 109.687 30.7704L109.752 34.9718C109.752 37.8242 109.665 40.2027 109.422 42.8458C109.416 43.1335 109.401 43.3899 109.376 43.5899C109.503 44.0507 109.458 44.1636 109.553 44.2178C109.575 44.2069 109.599 44.2003 109.626 44.2003L109.801 43.5022L109.994 43.3927C110.086 43.4261 110.085 43.5888 110.051 43.7713C110.199 43.8967 110.362 44.2025 110.301 44.3751L110.327 44.3778C110.401 44.3192 110.552 44.2206 110.713 44.3022C110.87 44.0682 110.943 44.0118 111.191 44.1466C111.331 44.2233 111.362 44.3164 111.409 44.4123L111.412 44.4134C111.464 44.1937 111.677 43.9225 111.926 44.1707L112.146 44.1351C112.171 44.037 112.204 43.9762 112.24 43.9422C112.244 43.8458 112.237 43.7477 112.238 43.6502C112.144 43.5505 112.096 43.3242 112.26 43.2584C112.193 43.1625 112.26 42.9752 112.292 42.9395C112.68 42.5171 112.63 43.9724 112.63 43.9855C112.682 44.1044 112.752 44.237 112.777 44.3641L112.868 44.3619C112.895 43.1713 113.357 39.8975 113.302 38.1869L113.081 31.8125C113.081 27.9837 112.654 22.6974 112.654 19.051L118.909 18.4801C120.635 17.9256 121.001 18.0905 121.547 17.7064L121.97 17.2763C122.103 17.1098 122.254 16.8846 122.368 16.6407C122.444 16.478 119.926 16.7109 120.081 16.6429C120.43 16.4884 119.824 16.415 120.197 16.4123C121.175 16.404 122.098 16.2616 122.424 16.0978C122.827 15.8945 122.149 15.7307 122.12 15.6687C122.048 15.5159 122.269 15.306 122.059 15.2068L120.778 15.0715C120.076 14.8271 121.083 14.585 120.122 14.585C119.204 14.585 118.319 14.5899 117.46 14.6019L116.374 14.8551C115.463 14.9926 115.845 15.1115 114.858 15.1208L113.593 15.4085C113.194 15.5197 113.003 15.2994 113.182 15.0973C113.061 15.0973 112.811 15.0189 112.97 14.8518C112.807 14.8984 112.41 15.077 112.312 14.8332C112.182 14.8332 112.049 14.8299 111.916 14.8282C111.651 14.848 111.388 14.8693 111.124 14.8918C111.044 14.911 110.967 14.9351 110.891 14.9663L109.771 15.2825C109.165 15.4671 109.009 15.2173 109.1 15.1005C106.961 15.357 104.79 15.7345 102.413 16.2868L102.414 16.2862ZM116.682 18.3601C116.682 18.3601 117.542 18.2817 117.15 18.0439C117.149 18.0428 114.774 18.1804 114.7 18.3513C114.534 18.7392 115.702 18.4916 116.198 18.4324L116.682 18.3601Z" fill="#104236"/>
<path fill-rule="evenodd" clip-rule="evenodd" d="M122.256 18.2725C122.253 20.9775 122.206 24.3598 122.183 27.8254C122.301 27.7914 122.395 27.941 122.248 28.1607C122.248 28.5684 122.286 28.8177 122.344 29.0659L122.6 29.7508C122.611 29.765 122.621 29.7754 122.626 29.7781C122.949 29.9606 122.709 30.1047 122.705 30.325L122.704 30.3874L122.917 31.1047C122.976 31.3287 123.256 31.492 123.066 31.6811L123.585 34.2053C123.632 34.3154 123.637 34.4102 123.619 34.4853C123.634 34.6617 123.646 34.9077 123.624 35.1318C123.753 35.3658 123.841 35.8655 123.841 35.866C123.876 35.9575 123.946 36.0167 123.926 36.129C124.108 36.4068 124.201 36.7027 124.31 37.0128C124.43 37.2095 124.529 37.421 124.532 37.4265C124.905 38.1886 124.781 37.9788 124.746 38.4155L125.02 39.0752C125.438 39.1371 125.506 39.2565 125.607 39.5765C125.927 39.9365 126.051 40.2685 126.189 40.6115C126.137 38.8094 126.097 36.9504 126.097 35.2146V20.1135C126.097 19.2987 126.237 19.4302 126.222 18.8648C126.216 18.6626 126.15 18.3476 126.117 17.9728C126.076 17.981 126.025 17.9854 125.962 17.9854L125.457 17.7322C125.276 17.9131 125.009 17.8933 124.911 17.6528C124.755 17.8079 124.603 17.6807 124.542 17.5312C124.45 17.5065 124.41 17.478 124.332 17.4293L124.143 17.4577C123.982 17.5892 123.807 17.5487 123.773 17.3783C123.734 17.3975 123.667 17.4205 123.586 17.4419C123.604 17.5092 123.31 17.5432 123.269 17.5827C123.3 17.8139 123.338 18.4215 123.315 18.7026L123.41 19.2883C123.213 19.5267 123.151 19.0631 123.193 18.7914C123.169 18.656 123.155 18.5229 123.149 18.4533C122.972 18.4358 122.978 18.3284 122.978 18.1306C122.888 18.038 122.876 17.9021 122.941 17.815C122.918 17.7262 122.877 17.644 122.864 17.5525L122.818 17.506L122.47 17.97C122.404 18.067 122.338 18.1793 122.256 18.2719V18.2725ZM124.922 38.9349L125 39.0938L124.922 38.9349ZM124.623 38.9875C124.505 38.8248 124.461 38.7612 124.475 38.5442C124.447 38.4609 124.431 38.3442 124.447 38.2571L124.122 37.427C124.035 37.2358 123.972 37.0457 123.896 36.8517C123.834 36.8052 123.783 36.723 123.773 36.6123L123.692 36.2463C123.663 36.2282 123.641 36.197 123.631 36.1531C123.584 35.9186 123.222 35.9093 123.219 35.62L123.298 34.4913C123.159 34.0711 123.061 33.6388 122.921 33.2191C122.825 33.0251 122.681 32.8848 122.584 32.6909C122.444 32.5742 122.52 32.298 122.632 32.1868C122.632 32.0514 122.641 32.0345 122.525 31.9599C122.22 31.9599 122.305 31.3611 122.391 31.2751L122.17 30.8866C122.166 34.8918 122.22 38.7755 122.435 41.6191C122.509 42.5966 122.471 43.5922 122.471 44.5751L122.73 44.5812C122.717 44.4332 122.749 44.2524 122.766 44.213C122.671 44.0053 123.091 43.8985 123.068 44.2365L123.38 44.4064L123.403 44.213C123.212 44.0223 123.644 43.8091 123.692 43.6409C123.741 43.4705 123.994 43.2957 124.007 43.5692L123.935 44.568C124.103 44.6233 124.2 44.4288 124.365 44.5932L124.415 44.5839C124.415 44.4014 124.498 44.1258 124.717 44.3439L125.438 44.5121C125.144 44.1823 125.509 43.7894 126.065 44.3439L126.306 44.431L126.229 41.966C125.819 41.9506 125.182 40.1332 124.979 39.6143C124.872 39.599 124.736 39.4762 124.736 39.2812L124.623 38.988V38.9875Z" fill="#104236"/>
<path fill-rule="evenodd" clip-rule="evenodd" d="M87.0525 42.235L87.2977 41.8202L87.0525 42.235Z" fill="#FEFEFE"/>
</svg>
