<svg width="548" height="10" viewBox="0 0 548 10" fill="none" xmlns="http://www.w3.org/2000/svg">
<g clip-path="url(#clip0_2114_5592)">
<path d="M548.001 0V8.33333C546.517 8.42664 545.72 8.45908 544.079 8.62231C544.025 8.50585 543.971 8.41254 544.236 8.38915C544.025 8.20277 543.814 8.57577 543.708 8.64569C543.494 8.57577 542.963 8.64569 543.071 8.43592C542.857 8.529 542.752 8.66885 542.115 8.62231C542.329 8.27269 541.744 8.66885 541.427 8.27269C541.108 8.50585 540.471 8.36577 540.1 8.48246C540.049 8.31923 540.209 8.22615 540.631 8.22615C540.26 7.993 540.209 8.38915 539.678 8.34261C539.783 8.27269 540.1 8.2493 539.995 8.10946C538.882 8.45907 536.338 8.739 535.225 8.66885C535.277 8.57577 535.542 8.45908 535.596 8.57577C535.596 8.20277 533.581 8.97193 532.891 8.83208C532.733 9.32178 529.711 8.92539 528.227 8.92539C527.961 8.92539 527.696 9.08862 527.696 9.08862C527.696 9.08862 525.524 8.64569 524.939 9.04208C525.045 8.78554 522.342 9.06524 522.607 9.20508C522.025 9.27501 522.13 8.99531 521.388 9.08862C521.548 8.97193 521.97 8.94878 522.342 8.902C520.541 8.66885 519.268 9.06524 518.155 9.36832C517.889 9.34493 517.729 9.29839 517.729 9.15855C517.307 9.15855 517.729 9.43824 517.624 9.53155C517.041 9.32178 516.565 9.46163 516.194 9.27501C514.921 9.74132 512.8 9.46163 512.164 9.64801C512.324 9.53155 511.422 9.50816 511.738 9.43824C510.785 9.29839 510.996 9.6714 509.832 9.6714C509.406 9.64801 510.149 9.41485 510.36 9.34493C510.36 9.15854 509.301 9.71817 508.504 9.71817C508.028 9.6714 508.876 9.48501 508.61 9.25185C507.605 9.53155 508.294 9.55494 507.551 9.81124C507.286 9.78786 507.34 9.62486 507.286 9.50816C506.438 9.83463 505.591 10.021 504.794 9.6714C504.689 10.1143 503.892 9.08862 504.106 9.50816C503.47 9.29839 503.099 9.99786 502.673 9.74132C502.091 9.81124 502.885 9.41485 502.728 9.55494C501.88 9.29839 500.659 9.97448 500.396 9.43824C500.501 9.74132 500.13 9.62486 499.388 9.60147C498.857 9.60147 499.6 9.95109 499.334 9.78785C498.909 9.85801 498.963 9.60147 498.432 9.64801C497.425 9.41485 496.417 9.71817 495.412 9.85802C494.933 9.83463 495.729 9.64801 495.518 9.48501C495.464 9.62486 494.616 9.81124 494.722 9.43824C494.245 9.43824 494.562 9.67139 494.191 9.69478C493.82 9.69478 493.132 9.22847 493.026 9.6714C492.655 9.6714 492.866 9.41485 492.55 9.3917C491.913 9.43824 492.921 9.78786 492.441 9.76471C491.648 9.81124 492.284 9.60147 492.179 9.46163C492.019 9.76471 490.535 9.41485 491.063 9.74132C490.429 9.67139 489.95 9.48501 489.262 9.64801C489.687 9.48501 489.421 9.53155 489.578 9.25185C488.891 9.36832 488.625 9.13516 487.829 9.3917C487.458 9.25186 487.829 9.29839 487.777 9.08862C486.876 8.97193 484.278 9.55494 484.067 9.15855C483.165 9.08862 481.946 9.46162 481.15 9.18169C480.568 9.50816 479.455 9.1817 478.447 9.43824C478.393 9.32178 478.713 9.22847 478.393 9.20508C477.705 9.25186 478.393 9.32178 478.076 9.53155C476.644 9.46163 477.811 9.64801 476.327 9.6714C476.327 9.57832 476.644 9.60147 476.909 9.57832C475.265 9.48501 475.213 9.64801 474.206 9.76471C473.781 9.78786 474.046 9.50816 473.941 9.3917C473.515 9.29839 471.289 9.60147 471.98 9.32178C471.503 9.11177 470.07 9.81124 469.805 9.25185C469.382 9.53155 468.481 9.36832 468.906 9.13516C469.012 9.11177 469.117 9.06524 469.169 9.04208C469.063 9.06524 468.957 9.11177 468.906 9.13516C468.269 9.29839 466.677 9.48501 465.298 9.34493C465.407 9.275 465.724 9.25186 465.618 9.11177C465.141 8.97193 464.505 9.11177 464.293 9.22847C463.974 8.99531 464.927 9.15855 464.61 8.92539C463.868 8.92539 462.861 9.06524 462.809 8.76216C462.278 8.92539 462.595 9.08862 461.907 9.08862C461.431 9.06524 462.544 8.92539 461.853 8.78554C461.322 9.32178 458.619 8.97193 457.346 8.739C458.143 8.31923 455.968 7.92284 454.909 7.89969C454.963 7.82976 455.069 8.2493 455.28 8.22615C454.803 8.27269 454.007 7.73645 453.742 7.94622C453.054 7.94622 454.007 8.08607 453.476 8.13284C453.054 8.38915 451.835 8.13284 452.046 8.22615C451.464 8.27269 451.57 8.48246 451.358 8.36577C450.191 8.78554 447.859 7.59661 447.434 7.94622C447.117 7.89969 447.063 8.20277 446.957 8.06292C446.109 8.06292 445.896 8.22615 445.259 8.27269C444.146 7.80638 442.185 8.27269 441.283 7.96961C441.654 7.80638 442.185 7.68992 442.134 7.57322C441.763 7.36345 441.443 7.75984 441.021 7.75984C441.072 7.66653 441.232 7.59661 441.549 7.59661C441.072 7.5033 440.435 7.5033 439.748 7.5033C439.799 7.68992 438.846 7.64314 439.428 7.82976C439.111 7.80638 437.627 7.8763 438.421 7.71307C438.209 7.55007 437.522 7.78299 437.467 7.89969C437.202 7.85291 437.045 7.75984 436.99 7.61976C436.408 7.80638 435.772 7.52668 435.241 7.68992C435.03 7.71307 434.499 7.5033 434.976 7.48015C434.659 7.31691 434.339 7.73646 434.074 7.80638C433.437 7.80638 433.491 7.52668 432.644 7.64314C432.644 7.57322 432.855 7.57322 433.015 7.55007C432.378 7.57322 431.531 7.24699 431.105 7.68992C430.469 7.59661 431.265 7.38684 430.417 7.17707C431.105 7.17707 431.054 7.24699 431.582 7.13029C429.781 6.96706 428.613 7.68992 427.395 7.73645C427.078 7.73645 427.341 7.57322 427.606 7.52668C426.493 7.64314 424.372 8.06292 424.586 7.55007C423.154 7.82977 422.146 7.5033 420.345 7.92284C420.396 7.68992 419.283 7.92284 418.752 7.82976C419.549 7.66653 418.966 7.61976 418.647 7.38684C418.701 7.64314 417.377 7.43337 416.686 7.45676C415.096 7.55007 413.347 7.8763 412.073 7.78299C411.808 7.71307 412.128 7.66653 411.651 7.57322C409.953 8.03953 408.68 7.48015 407.516 7.43337C407.621 7.43337 407.196 7.71307 406.348 7.55007C404.813 7.27014 402.001 7.5033 399.721 7.71307C399.033 7.73645 398.185 7.43337 397.549 7.71307C397.709 7.48015 396.647 7.73645 396.912 7.57322C396.33 7.52668 395.163 7.94622 394.952 7.57322C394.58 8.03953 393.467 7.75984 392.671 7.8763C393.519 7.75984 391.875 7.59661 393.202 7.55007C391.875 7.59661 389.703 7.89969 388.219 8.10946C387.636 7.92284 386.786 7.8763 386.734 7.64314C386.363 7.66653 386.786 7.96961 386.415 8.03953C385.938 8.15599 385.516 7.82976 385.673 8.13284C385.461 8.03953 384.559 7.89969 385.621 7.89969C384.985 7.68992 383.977 8.01615 383.446 7.89969C383.341 7.78299 383.552 7.75984 383.817 7.73645C382.068 7.94622 380.955 7.40999 377.932 7.64314C377.615 7.66653 378.146 7.78299 377.775 7.80638C377.033 7.92284 377.298 7.57322 376.556 7.68992C376.662 7.45676 376.819 7.59661 377.298 7.59661C376.608 7.15368 374.964 7.73646 373.799 7.80638C372.897 7.68992 373.163 7.57322 372.686 7.31692C371.094 7.29353 369.133 7.52669 366.906 7.75984C366.695 7.78299 366.218 7.68992 366.11 7.71307C365.582 7.78299 364.946 8.01615 365.739 7.73645C364.891 7.92284 363.247 8.13284 362.029 8.48246C361.286 8.43592 360.864 8.24931 360.014 8.24931C360.704 8.34262 359.485 7.80638 359.537 7.80638C359.431 7.75984 358.955 7.82976 358.955 7.82976C358.849 7.80638 358.795 7.78299 358.743 7.75984C358.849 7.66653 358.478 7.66653 358.743 7.75984C358.689 7.78299 358.689 7.80638 358.584 7.82976C358.264 7.94622 356.623 7.73645 357.365 7.57322C354.925 7.82976 353.389 7.71307 350.843 8.20277C350.738 8.10946 351.534 7.993 351.003 7.96961C349.73 8.64569 347.558 7.75984 346.179 8.29608C345.965 8.29608 345.965 8.15599 345.914 8.08607C345.594 8.41254 345.066 8.24931 344.216 8.36577C343.793 8.36577 344.43 8.13284 344.535 8.03953C343.845 8.01615 343.422 8.34261 342.68 8.41254C341.302 8.17938 339.869 8.29608 338.173 8.34261C338.068 8.22615 337.854 8.22615 337.537 8.06292C336.584 8.29608 336.584 7.993 336.158 7.96961C333.615 8.17938 327.625 8.59892 324.973 8.01615C324.707 8.03953 324.071 8.27269 324.02 8.13284C323.754 8.17938 324.071 8.20277 324.071 8.27269C321.368 8.17938 318.56 9.0187 316.385 8.85547C316.545 8.76216 317.604 8.69223 317.709 8.739C317.763 8.66885 317.869 8.59892 318.08 8.57577C317.709 8.41254 317.021 8.62231 317.444 8.29608C315.803 8.69223 314.635 8.13284 313.205 8.529C312.78 8.57577 312.089 8.34262 312.569 8.24931C311.667 8.17938 310.659 8.64569 309.757 8.80893C309.386 8.76216 309.441 8.50585 308.75 8.62231C308.855 8.55238 309.07 8.50585 309.281 8.45908C309.121 8.41254 307.32 8.71562 307.797 8.902C307.531 8.80893 306.683 8.83208 306.418 8.94877C306.047 8.66885 307.266 8.902 306.949 8.62231C306.735 8.71562 305.516 8.87885 305.73 8.50585C304.88 8.78554 302.602 8.85547 301.911 8.94877C300.533 9.1817 299.314 8.99531 297.724 8.64569C297.724 8.57577 297.935 8.57577 298.095 8.55238C296.291 8.38915 296.08 8.902 294.065 8.85547C294.171 8.739 294.436 8.69223 294.807 8.66885C295.127 8.48246 293.643 8.76216 293.483 8.87885C293.112 8.739 292.795 8.76216 293.006 8.529C292.635 8.57577 292.687 8.739 292.264 8.78554C291.945 8.76216 292.315 8.69223 292.21 8.55238C290.566 8.59892 286.484 9.15855 286.696 8.38915C284.736 8.48246 283.622 8.20277 282.138 8.17938C282.191 8.2493 282.35 8.29608 282.509 8.31923C281.449 8.38915 280.494 8.87885 278.957 8.99531C277.314 9.11177 274.716 8.50585 273.921 9.34493C273.709 9.29839 273.444 9.27501 273.126 9.29839C273.02 9.43824 272.542 9.36832 272.967 9.53155C272.278 9.57832 271.111 9.36832 270.21 9.55494C269.521 9.04208 266.87 9.60147 266.393 9.15855C266.075 9.32178 264.59 9.78786 264.273 9.32178C264.113 9.6714 261.091 9.53155 262.841 9.13516C262.523 9.11177 261.569 9.46163 261.197 9.64801C260.509 9.60147 261.144 9.48501 260.72 9.36832C260.455 9.69478 260.243 9.22847 259.183 9.57832C259.236 9.41485 258.229 9.3917 258.07 9.08862C257.221 9.41485 257.063 9.22847 255.79 9.3917C255.472 9.13516 253.14 8.739 252.238 9.22847C249.8 8.71562 246.725 8.80893 244.18 9.15855C243.014 9.1817 241.636 8.76216 240.045 9.08862C239.78 9.08862 239.833 8.94877 239.992 8.94877C238.561 8.94877 235.804 9.04208 234.956 8.529C233.79 8.99531 229.177 8.55238 227.587 8.94877C224.3 8.78554 221.915 8.22615 217.886 8.62231C217.303 8.43592 217.62 8.36577 217.779 8.17938C215.5 8.66885 212.319 8.529 210.835 7.89969C210.941 7.94622 211.047 8.01615 211.1 8.10946C209.191 7.96961 206.7 7.80638 204.844 7.43337C204.102 8.01615 201.769 7.73645 200.709 8.10946C199.649 7.59661 195.461 7.64314 193.234 7.92284C193.075 7.55007 190.796 7.94622 189.841 7.73645C190 7.8763 186.873 8.06292 185.971 7.8763C185.918 8.01615 186.183 8.01615 186.395 8.01615C184.328 8.34261 183.056 8.34261 180.988 8.43592C181.147 8.36577 181.147 8.2493 181.094 8.13284C180.935 8.41254 179.239 8.57577 179.345 8.27269C178.973 8.29608 179.133 8.48246 178.603 8.45908C178.231 8.2493 177.436 8.22616 177.118 7.993C176.641 8.06292 176.482 8.08607 175.793 8.20277C175.316 8.20277 176.005 8.06292 175.74 7.89969C173.938 7.96961 171.923 8.43592 171.446 8.06292C171.075 8.08607 170.809 8.15599 170.226 7.94622C170.226 8.01615 170.28 8.08607 170.28 8.17938C169.166 7.61976 167.417 7.92284 165.508 7.96961C165.296 7.96961 165.296 7.82977 165.243 7.75984C162.752 7.96961 162.062 7.61976 160.207 7.94622C159.942 7.96961 160.048 7.80638 160.26 7.73645C160.366 7.73645 160.472 7.71307 160.525 7.71307C160.419 7.68992 160.313 7.71307 160.26 7.73645C158.511 7.89969 156.867 7.66653 155.223 7.68992C155.118 7.48015 155.595 7.43337 155.489 7.2236C155.118 7.10691 154.906 7.27014 154.535 7.34006C154.587 7.27014 154.693 7.20022 154.906 7.17707C154.799 6.89714 153.368 7.38684 153.262 6.94391C151.831 7.17707 150.028 7.03698 148.279 7.43337C146.847 7.15368 144.727 7.38684 143.243 7.61976C142.341 7.31691 140.857 7.2236 140.433 7.27014C140.009 6.82721 139.107 7.01383 138.471 6.50098C138.259 7.01383 136.828 6.59406 136.616 6.87399C136.404 6.87399 136.404 6.73414 136.351 6.66398C134.389 7.06037 132.587 6.82721 130.785 7.24699C129.777 6.80406 128.929 7.13029 127.604 7.06037C127.551 6.89714 127.709 6.80406 128.134 6.80406C127.604 6.59406 125.589 6.94391 127.551 6.82721C127.392 6.92052 127.339 7.03699 127.444 7.20022C127.074 7.20022 127.286 6.94391 126.967 6.92053C126.437 7.38684 124.9 7.24699 123.733 7.27014C123.998 7.17707 124.158 7.03698 124.635 7.01383C122.514 7.08376 120.182 7.29353 117.955 6.96706C117.69 7.03698 117.372 7.10691 117.425 7.29353C117.16 7.13029 116.683 6.82721 116.206 7.03698C116.63 6.92052 115.941 6.87399 116.365 6.80406C115.251 6.99045 114.722 6.4776 113.025 6.71075C112.707 6.68737 112.972 6.64083 113.184 6.61744C110.48 5.91821 105.921 7.66653 102.263 6.87399C100.832 7.10691 99.1886 6.87399 97.81 7.10691C98.4462 6.68737 95.6365 7.40999 94.6291 6.92053C94.8414 7.15368 94.2582 7.06037 94.2582 6.94391C93.9932 6.99045 94.2582 7.08376 94.4702 7.08376C94.3641 7.15368 94.1521 7.20022 93.9398 7.24699C93.834 7.15368 93.622 6.99045 92.7207 7.06037C92.9327 6.96706 92.8796 6.78068 92.8269 6.59406C92.5087 6.3609 92.7207 6.87399 92.7207 6.96706C90.2288 7.36345 89.1159 6.54752 87.5783 6.71075C87.4194 6.52414 87.9495 6.54752 88.1084 6.45421C87.9495 6.29098 87.1541 6.24444 86.8894 6.33775C86.9952 6.45421 87.2072 6.26783 87.3133 6.40767C87.3133 6.50098 86.9424 6.4776 86.9424 6.57091C85.935 6.38429 85.5638 6.38429 84.3975 6.52413C84.0797 6.43106 83.8146 6.29098 83.7085 6.10459C82.8599 6.12798 83.9204 6.29098 83.8146 6.4776C82.8599 6.03467 82.1709 6.43106 81.4816 5.80151C81.2697 5.91821 81.1638 6.03467 80.8988 5.8249C80.6334 5.87144 81.0049 5.91821 80.9519 6.05806C80.3156 6.10459 80.6334 5.68505 79.7325 5.87144C79.7325 5.73159 80.3687 5.80151 80.4745 5.68505C80.8457 5.42851 79.3616 5.96475 79.0962 5.73159C78.8312 5.75498 78.9901 5.91821 78.9901 6.03467C78.7781 5.98813 78.6192 5.84805 78.5661 5.96475C78.248 5.94136 78.6192 5.87144 78.513 5.73159C78.1422 5.77813 78.4069 6.03467 77.7707 5.98813C77.294 5.98813 77.9302 5.77813 78.0891 5.75498C77.7707 5.75498 76.7635 6.12798 76.6577 6.40767C76.3927 6.24444 75.7037 6.29098 75.5972 6.05806C75.3322 6.17452 75.8626 6.43106 74.9082 6.45421C74.749 6.24444 74.6959 6.50098 74.4839 6.24444C74.325 6.4776 73.7419 6.24444 74.1658 6.4776C73.7949 6.52414 73.5299 6.4776 73.5299 6.33775C73.2118 6.43106 72.9467 6.54752 72.6286 6.66398C71.8332 6.59406 71.5684 6.40767 70.6671 6.59406C70.4548 6.26783 71.0911 6.64083 71.038 6.43106C70.1898 6.08121 68.9704 6.38429 68.5468 5.91821C66.373 6.29098 62.874 6.12798 62.0789 6.8506C61.8141 6.82721 61.8669 6.66398 61.8138 6.54752C61.3368 6.73414 60.9656 6.92053 60.1705 6.99045C61.1779 6.71075 58.7391 6.94391 58.6329 7.13029C58.3679 7.10691 58.4209 6.94391 58.3679 6.82721C57.8909 6.87399 57.4138 7.20022 56.2475 6.99045C56.0355 7.01384 56.1414 7.13029 56.0886 7.2236C55.7171 7.01383 53.5436 7.5033 52.7485 7.13029C52.2715 7.27014 52.2184 7.34007 51.6883 7.55007C51.4763 7.5033 51.3702 7.43337 51.264 7.34006C52.7485 7.29353 50.8401 6.99045 51.6883 6.71075C51.3171 6.61744 50.7339 7.06037 50.6278 7.27014C50.2569 7.08376 49.7796 6.94391 49.5149 6.71075C48.1362 6.68737 46.4929 7.01383 45.8039 7.45676C44.9557 7.5033 44.4256 7.24699 43.4712 7.48015C43.1531 7.17707 43.1 6.89714 43.4712 6.64083C43.5774 6.43106 42.888 7.08376 42.623 7.20022C42.358 6.99045 41.5628 7.08376 41.4036 7.01383C41.1916 7.03698 41.2978 7.15368 41.2447 7.24699C40.8204 7.29353 40.5026 7.24699 40.4492 7.13029C40.1842 7.15368 40.3434 7.31691 40.3434 7.43337C40.0784 7.40999 39.8664 7.34006 39.7072 7.2236C39.4421 7.38684 38.4881 7.61976 38.7 7.17707C37.9577 7.15368 38.5408 7.55007 38.0107 7.57322C37.3745 7.48015 38.647 7.27014 37.9046 7.13029C37.6929 7.20022 37.9577 7.36345 37.5868 7.52668C37.3214 7.5033 37.2687 7.40999 36.9506 7.38684C36.8447 7.20022 37.8518 7.38684 37.4806 7.13029C37.1095 7.31691 36.8447 7.08376 36.5263 7.24699C37.0036 6.96706 36.5794 7.03699 36.4205 6.71075C36.3674 7.1303 34.1939 7.06037 34.671 6.8506C34.3528 6.73414 34.0878 7.20022 33.7697 7.10691C33.4515 7.08376 33.8227 7.01383 33.7166 6.87399C33.2926 6.8506 32.9745 7.36345 32.7626 6.99045C32.5506 7.01384 32.6564 7.13029 32.6033 7.2236C32.3914 7.2236 32.3914 7.08376 32.3383 7.01383C32.0732 7.13029 31.8082 7.27014 31.437 7.34006C31.1719 7.31691 31.225 7.15368 31.172 7.03698C30.96 7.06037 31.0661 7.17707 31.013 7.27014C30.4299 7.2236 30.748 7.17707 30.748 6.96706C30.0587 7.01383 30.3768 7.36345 29.4755 7.31692C29.9525 6.89714 29.4755 7.29353 28.6273 7.13029C29.1574 7.40999 28.3092 7.06037 28.4684 7.36345C27.9914 7.15368 27.3551 7.38684 26.2946 7.36345C23.7503 7.92284 20.9403 8.20277 19.6151 8.83208C17.0174 9.11177 15.586 9.15855 12.9355 9.3917C12.9883 9.22847 13.8895 9.32178 14.2607 9.27501C12.7753 9.29579 10.3242 8.5049 7.26597 8.17726C3.9278 7.81937 0 8.74383 0 8.33333V0H117.247C117.191 0.00968533 117.128 0.0224416 117.054 0.0387413C117.563 0.0848057 118.022 0.060238 118.445 0H548.001Z" fill="#104236"/>
</g>
<defs>
<clipPath id="clip0_2114_5592">
<rect width="548" height="10" fill="white"/>
</clipPath>
</defs>
</svg>
