<?xml version="1.0" encoding="UTF-8"?>
<!DOCTYPE svg PUBLIC "-//W3C//DTD SVG 1.0//EN" "http://www.w3.org/TR/2001/REC-SVG-20010904/DTD/svg10.dtd">
<!-- Creator: CorelDRAW 2021 (64-Bit) -->
<svg xmlns="http://www.w3.org/2000/svg" xml:space="preserve" width="169.333mm" height="4.2332mm" version="1.0" style="shape-rendering:geometricPrecision; text-rendering:geometricPrecision; image-rendering:optimizeQuality; fill-rule:evenodd; clip-rule:evenodd"
viewBox="0 0 16933.32 423.32"
 xmlns:xlink="http://www.w3.org/1999/xlink"
 xmlns:xodm="http://www.corel.com/coreldraw/odm/2003">
 <defs>
  <style type="text/css">
   <![CDATA[
    .fil0 {fill:#104236;fill-rule:nonzero}
   ]]>
  </style>
 </defs>
 <g id="Слой_x0020_1">
  <metadata id="CorelCorpID_0Corel-Layer"/>
  <path class="fil0" d="M16933.33 11.43l0 335.39c-45.86,3.95 -70.47,22.7 -121.18,29.61 -1.68,-4.93 -3.35,-8.88 4.85,-9.87 -6.53,-7.89 -13.05,7.9 -16.32,10.86 -6.61,-2.96 -23.02,0 -19.67,-8.88 -6.61,3.94 -9.87,9.86 -29.54,7.89 6.61,-14.8 -11.47,1.97 -21.26,-14.8 -9.87,9.87 -29.54,3.94 -41.01,8.88 -1.58,-6.91 3.36,-10.85 16.41,-10.85 -11.47,-9.87 -13.05,6.9 -29.46,4.93 3.26,-2.96 13.05,-3.95 9.79,-9.87 -34.39,14.8 -112.98,26.65 -147.37,23.68 1.59,-3.94 9.79,-8.88 11.46,-3.94 0,-15.79 -62.26,16.77 -83.6,10.85 -4.86,20.73 -98.25,3.95 -144.11,3.95 -8.21,0 -16.41,6.91 -16.41,6.91 0,0 -67.11,-18.75 -85.19,-1.97 3.26,-10.86 -80.26,0.98 -72.06,6.9 -17.99,2.96 -14.73,-8.88 -37.66,-4.93 4.94,-4.94 17.99,-5.92 29.46,-7.9 -55.65,-9.87 -94.99,6.91 -129.38,19.74 -8.2,-0.99 -13.14,-2.96 -13.14,-8.88 -13.06,0 0,11.84 -3.27,15.79 -17.99,-8.88 -32.72,-2.96 -44.18,-10.86 -39.34,19.74 -104.87,7.9 -124.53,15.79 4.94,-4.93 -22.93,-5.92 -13.14,-8.88 -29.46,-5.92 -22.93,9.87 -58.92,9.87 -13.14,-0.99 9.79,-10.86 16.32,-13.82 0,-7.89 -32.72,15.8 -57.33,15.8 -14.73,-1.98 11.47,-9.87 3.27,-19.74 -31.05,11.84 -9.79,12.83 -32.72,23.68 -8.21,-0.99 -6.53,-7.89 -8.21,-12.83 -26.19,13.82 -52.38,21.71 -76.99,6.91 -3.26,18.75 -27.87,-24.67 -21.26,-6.91 -19.66,-8.88 -31.13,20.73 -44.27,9.87 -17.99,2.96 6.53,-13.82 1.68,-7.89 -26.2,-10.86 -63.94,17.76 -72.06,-4.94 3.26,12.83 -8.2,7.9 -31.13,6.91 -16.41,0 6.53,14.8 -1.68,7.89 -13.14,2.97 -11.46,-7.89 -27.87,-5.92 -31.13,-9.87 -62.26,2.97 -93.31,8.89 -14.81,-0.99 9.79,-8.89 3.27,-15.79 -1.68,5.92 -27.87,13.81 -24.61,-1.98 -14.73,0 -4.94,9.87 -16.4,10.86 -11.47,0 -32.72,-19.74 -35.99,-0.99 -11.46,0 -4.94,-10.86 -14.72,-11.84 -19.67,1.97 11.46,16.77 -3.36,15.79 -24.51,1.97 -4.85,-6.91 -8.11,-12.83 -4.94,12.83 -50.8,-1.98 -34.48,11.84 -19.58,-2.96 -34.4,-10.85 -55.65,-3.95 13.14,-6.9 4.93,-4.93 9.78,-16.77 -21.25,4.93 -29.45,-4.94 -54.06,5.92 -11.46,-5.92 0,-3.95 -1.59,-12.83 -27.87,-4.94 -108.12,19.74 -114.65,2.96 -27.87,-2.96 -65.53,12.83 -90.13,0.98 -18,13.82 -52.39,0 -83.52,10.86 -1.68,-4.93 8.2,-8.88 -1.68,-9.87 -21.25,1.98 0,4.94 -9.79,13.82 -44.27,-2.96 -8.2,4.93 -54.06,5.92 0,-3.94 9.79,-2.96 17.99,-3.94 -50.8,-3.95 -52.39,2.95 -83.52,7.89 -13.14,0.98 -4.94,-10.86 -8.2,-15.79 -13.14,-3.95 -81.94,8.88 -60.59,-2.96 -14.73,-8.89 -59,20.72 -67.21,-2.96 -13.05,11.84 -40.92,4.93 -27.78,-4.94 3.27,-0.99 6.53,-2.96 8.12,-3.94 -3.27,0.98 -6.53,2.95 -8.12,3.94 -19.67,6.91 -68.88,14.81 -111.48,8.88 3.36,-2.96 13.15,-3.94 9.88,-9.87 -14.73,-5.92 -34.39,0 -40.92,4.94 -9.88,-9.87 19.58,-2.96 9.79,-12.83 -22.93,0 -54.06,5.92 -55.65,-6.91 -16.41,6.91 -6.62,13.82 -27.87,13.82 -14.73,-0.99 19.67,-6.91 -1.68,-12.83 -16.4,22.7 -99.92,7.89 -139.26,-1.97 24.61,-17.77 -42.59,-34.55 -75.31,-35.53 1.67,-2.96 4.94,14.8 11.46,13.82 -14.73,1.97 -39.33,-20.73 -47.53,-11.85 -21.26,0 8.2,5.92 -8.21,7.9 -13.05,10.85 -50.71,0 -44.18,3.95 -17.99,1.97 -14.73,10.85 -21.26,5.91 -36.07,17.77 -108.12,-32.56 -121.26,-17.76 -9.79,-1.97 -11.47,10.86 -14.73,4.94 -26.2,0 -32.81,6.91 -52.48,8.88 -34.39,-19.74 -94.98,0 -122.85,-12.83 11.46,-6.91 27.87,-11.84 26.28,-16.78 -11.47,-8.88 -21.34,7.9 -34.4,7.9 1.59,-3.95 6.53,-6.91 16.32,-6.91 -14.73,-3.95 -34.4,-3.95 -55.65,-3.95 1.59,7.9 -27.87,5.92 -9.88,13.82 -9.79,-0.99 -55.65,1.97 -31.13,-4.94 -6.53,-6.9 -27.78,2.96 -29.46,7.9 -8.2,-1.98 -13.05,-5.92 -14.73,-11.85 -17.99,7.9 -37.66,-3.94 -54.06,2.97 -6.53,0.98 -22.93,-7.9 -8.2,-8.88 -9.79,-6.91 -19.67,10.85 -27.87,13.81 -19.67,0 -17.99,-11.84 -44.19,-6.91 0,-2.96 6.53,-2.96 11.47,-3.94 -19.67,0.98 -45.86,-12.83 -59,5.92 -19.67,-3.95 4.93,-12.83 -21.26,-21.71 21.26,0 19.67,2.96 35.98,-1.98 -55.65,-6.91 -91.72,23.69 -129.38,25.66 -9.79,0 -1.67,-6.91 6.53,-8.88 -34.4,4.93 -99.93,22.7 -93.31,0.99 -44.27,11.84 -75.41,-1.98 -131.06,15.78 1.59,-9.86 -32.81,0 -49.21,-3.94 24.61,-6.91 6.61,-8.89 -3.26,-18.75 1.67,10.85 -39.25,1.97 -60.59,2.96 -49.13,3.95 -103.19,17.76 -142.53,13.81 -8.2,-2.96 1.68,-4.93 -13.05,-8.88 -52.47,19.74 -91.81,-3.94 -127.79,-5.92 3.26,0 -9.88,11.84 -36.07,4.94 -47.45,-11.85 -134.32,-1.98 -204.79,6.9 -21.26,0.99 -47.45,-11.84 -67.12,0 4.94,-9.86 -27.87,0.99 -19.66,-5.92 -18,-1.97 -54.07,15.79 -60.59,0 -11.47,19.74 -45.87,7.9 -70.47,12.83 26.19,-4.93 -24.61,-11.84 16.4,-13.81 -41.01,1.97 -108.12,14.8 -153.98,23.68 -18,-7.9 -44.28,-9.87 -45.87,-19.74 -11.46,0.99 1.59,13.82 -9.87,16.78 -14.73,4.93 -27.78,-8.88 -22.93,3.95 -6.53,-3.95 -34.4,-9.87 -1.59,-9.87 -19.67,-8.88 -50.8,4.93 -67.21,0 -3.26,-4.94 3.27,-5.92 11.47,-6.91 -54.06,8.88 -88.46,-13.82 -181.86,-3.95 -9.79,0.99 6.62,5.92 -4.85,6.91 -22.93,4.93 -14.73,-9.87 -37.66,-4.93 3.27,-9.87 8.12,-3.95 22.93,-3.95 -21.34,-18.75 -72.14,5.92 -108.12,8.88 -27.87,-4.93 -19.67,-9.87 -34.4,-20.72 -49.21,-0.99 -109.8,8.88 -178.59,18.75 -6.53,0.98 -21.26,-2.96 -24.61,-1.98 -16.31,2.96 -35.98,12.83 -11.46,0.99 -26.2,7.89 -77,16.78 -114.66,31.58 -22.93,-1.97 -35.98,-9.87 -62.26,-9.87 21.34,3.95 -16.32,-18.75 -14.73,-18.75 -3.26,-1.97 -17.99,0.99 -17.99,0.99 -3.27,-0.99 -4.94,-1.98 -6.53,-2.96 -8.2,-3.95 3.26,-3.95 0,0 -1.67,0.98 -1.67,1.97 -4.94,2.96 -9.88,4.93 -60.59,-3.95 -37.66,-10.86 -75.4,10.86 -122.85,5.92 -201.52,26.65 -3.26,-3.95 21.34,-8.88 4.94,-9.87 -39.34,28.62 -106.45,-8.88 -149.05,13.82 -6.62,0 -6.62,-5.93 -8.2,-8.89 -9.88,13.82 -26.2,6.91 -52.48,11.84 -13.05,0 6.62,-9.86 9.88,-13.81 -21.34,-0.99 -34.4,12.83 -57.33,15.79 -42.59,-9.87 -86.87,-4.93 -139.26,-2.96 -3.26,-4.93 -9.87,-4.93 -19.66,-11.84 -29.46,9.87 -29.46,-2.96 -42.6,-3.95 -78.58,8.88 -263.7,26.64 -345.64,1.97 -8.2,0.99 -27.86,10.86 -29.45,4.94 -8.2,1.97 1.59,2.96 1.59,5.92 -83.52,-3.95 -170.31,31.58 -237.51,24.67 4.94,-3.95 37.66,-6.91 40.92,-4.93 1.68,-2.97 4.94,-5.93 11.47,-6.91 -11.47,-6.91 -32.73,1.97 -19.67,-11.84 -50.71,16.77 -86.79,-6.91 -130.97,9.86 -13.14,1.98 -34.49,-7.89 -19.67,-11.84 -27.87,-2.96 -59,16.78 -86.87,23.69 -11.47,-1.98 -9.79,-12.83 -31.13,-7.9 3.26,-2.96 9.88,-4.93 16.4,-6.91 -4.94,-1.97 -60.59,10.86 -45.86,18.75 -8.2,-3.94 -34.4,-2.96 -42.6,1.98 -11.46,-11.85 26.2,-1.98 16.41,-13.82 -6.62,3.95 -44.28,10.86 -37.66,-4.93 -26.28,11.84 -96.66,14.8 -118.01,18.75 -42.59,9.86 -80.25,1.97 -129.38,-12.83 0,-2.96 6.53,-2.96 11.47,-3.95 -55.74,-6.91 -62.27,14.8 -124.53,12.83 3.26,-4.93 11.46,-6.91 22.93,-7.9 9.88,-7.89 -35.99,3.95 -40.92,8.89 -11.47,-5.92 -21.26,-4.94 -14.73,-14.81 -11.47,1.98 -9.88,8.89 -22.93,10.86 -9.88,-0.99 1.58,-3.95 -1.68,-9.87 -50.8,1.97 -176.92,25.66 -170.39,-6.91 -60.56,3.95 -94.97,-7.89 -140.84,-8.88 1.64,2.96 6.55,4.94 11.47,5.92 -32.76,2.96 -62.25,23.69 -109.75,28.62 -50.79,4.93 -131.05,-20.72 -155.63,14.8 -6.55,-1.97 -14.74,-2.96 -24.57,-1.97 -3.27,5.92 -18.02,2.96 -4.91,9.87 -21.29,1.98 -57.34,-6.91 -85.18,0.99 -21.3,-21.71 -103.21,1.97 -117.95,-16.78 -9.83,6.91 -55.7,26.64 -65.52,6.91 -4.92,14.8 -98.3,8.88 -44.23,-7.9 -9.84,-0.99 -39.32,13.82 -50.79,21.71 -21.29,-1.97 -1.64,-6.9 -14.74,-11.84 -8.19,13.82 -14.75,-5.92 -47.5,8.89 1.63,-6.92 -29.49,-7.9 -34.41,-20.73 -26.21,13.81 -31.12,5.92 -70.44,12.83 -9.82,-10.86 -81.9,-27.63 -109.75,-6.91 -75.35,-21.71 -170.36,-17.76 -249,-2.96 -36.03,0.98 -78.63,-16.78 -127.77,-2.96 -8.19,0 -6.56,-5.92 -1.63,-5.92 -44.23,0 -129.42,3.95 -155.63,-17.77 -36.04,19.74 -178.56,0.99 -227.7,17.77 -101.57,-6.91 -175.28,-30.59 -299.78,-13.82 -18.01,-7.89 -8.19,-10.86 -3.28,-18.75 -70.44,20.72 -168.72,14.8 -214.59,-11.84 3.28,1.97 6.55,4.93 8.19,8.88 -58.97,-5.92 -135.97,-12.83 -193.3,-28.62 -22.93,24.67 -95.01,12.83 -127.77,28.62 -32.76,-21.71 -162.18,-19.74 -230.98,-7.9 -4.91,-15.78 -75.35,0.99 -104.84,-7.89 4.91,5.92 -91.73,13.82 -119.58,5.92 -1.64,5.92 6.55,5.92 13.1,5.92 -63.88,13.82 -103.2,13.82 -167.09,17.77 4.91,-2.97 4.92,-7.9 3.28,-12.83 -4.91,11.84 -57.33,18.75 -54.06,5.92 -11.47,0.99 -6.55,8.88 -22.93,7.89 -11.47,-8.88 -36.04,-9.86 -45.87,-19.73 -14.74,2.96 -19.66,3.94 -40.95,8.88 -14.75,0 6.55,-5.92 -1.64,-12.83 -55.69,2.96 -117.94,22.7 -132.69,6.91 -11.46,0.98 -19.66,3.94 -37.68,-4.94 0,2.96 1.65,5.92 1.65,9.87 -34.41,-23.69 -88.46,-10.86 -147.44,-8.88 -6.55,0 -6.55,-5.92 -8.19,-8.88 -76.99,8.88 -98.29,-5.93 -155.62,7.89 -8.2,0.99 -4.91,-5.92 1.64,-8.88 3.27,0 6.55,-0.99 8.18,-0.99 -3.27,-0.98 -6.54,0 -8.18,0.99 -54.06,6.91 -104.85,-2.96 -155.63,-1.97 -3.27,-8.88 11.47,-10.86 8.19,-19.74 -11.46,-4.94 -18.01,1.97 -29.48,4.93 1.63,-2.96 4.91,-5.92 11.47,-6.9 -3.29,-11.85 -47.51,8.88 -50.79,-9.87 -44.23,9.87 -99.92,3.94 -153.98,20.72 -44.23,-11.84 -109.75,-1.97 -155.62,7.89 -27.86,-12.82 -73.72,-16.77 -86.82,-14.8 -13.11,-18.75 -40.96,-10.85 -60.62,-32.56 -6.55,21.71 -50.78,3.94 -57.33,15.79 -6.56,0 -6.56,-5.92 -8.19,-8.89 -60.61,16.78 -116.31,6.91 -172,24.68 -31.13,-18.75 -57.34,-4.94 -98.29,-7.9 -1.64,-6.91 3.27,-10.85 16.38,-10.85 -16.38,-8.89 -78.63,5.92 -18.02,0.98 -4.91,3.95 -6.55,8.88 -3.28,15.79 -11.46,0 -4.91,-10.85 -14.74,-11.84 -16.38,19.74 -63.88,13.82 -99.93,14.8 8.19,-3.94 13.11,-9.87 27.85,-10.85 -65.53,2.96 -137.6,11.84 -206.4,-1.98 -8.19,2.96 -18.02,5.92 -16.38,13.82 -8.19,-6.91 -22.94,-19.74 -37.68,-10.86 13.1,-4.93 -8.19,-6.9 4.92,-9.86 -34.41,7.89 -50.78,-13.82 -103.21,-3.95 -9.83,-0.99 -1.64,-2.96 4.92,-3.95 -83.55,-29.6 -224.42,44.41 -337.45,10.86 -44.23,9.86 -95.01,0 -137.61,9.86 19.66,-17.76 -67.16,12.83 -98.29,-7.89 6.56,9.87 -11.46,5.92 -11.46,0.99 -8.19,1.97 0,5.92 6.55,5.92 -3.28,2.96 -9.83,4.93 -16.39,6.91 -3.27,-3.95 -9.82,-10.86 -37.67,-7.9 6.55,-3.95 4.91,-11.84 3.28,-19.74 -9.83,-9.87 -3.28,11.85 -3.28,15.79 -77,16.78 -111.39,-17.76 -158.9,-10.85 -4.91,-7.9 11.47,-6.91 16.38,-10.86 -4.91,-6.91 -29.49,-8.88 -37.67,-4.93 3.27,4.93 9.82,-2.96 13.1,2.96 0,3.95 -11.46,2.96 -11.46,6.91 -31.13,-7.9 -42.6,-7.9 -78.64,-1.98 -9.82,-3.94 -18.01,-9.87 -21.29,-17.76 -26.22,0.99 6.55,7.89 3.28,15.79 -29.5,-18.75 -50.79,-1.97 -72.09,-28.62 -6.55,4.94 -9.82,9.87 -18.01,0.99 -8.2,1.97 3.28,3.95 1.64,9.87 -19.66,1.97 -9.84,-15.79 -37.68,-7.9 0,-5.92 19.66,-2.96 22.93,-7.89 11.47,-10.86 -34.39,11.84 -42.59,1.97 -8.19,0.99 -3.28,7.9 -3.28,12.83 -6.55,-1.97 -11.46,-7.9 -13.1,-2.96 -9.83,-0.99 1.64,-3.95 -1.64,-9.87 -11.46,1.97 -3.28,12.83 -22.94,10.86 -14.73,0 4.93,-8.89 9.84,-9.87 -9.84,0 -40.96,15.79 -44.23,27.63 -8.19,-6.91 -29.48,-4.94 -32.77,-14.8 -8.19,4.93 8.2,15.79 -21.29,16.77 -4.92,-8.88 -6.56,1.98 -13.11,-8.88 -4.91,9.87 -22.93,0 -9.83,9.87 -11.46,1.97 -19.65,0 -19.65,-5.92 -9.83,3.95 -18.02,8.88 -27.85,13.81 -24.58,-2.96 -32.76,-10.85 -60.61,-2.96 -6.56,-13.81 13.1,1.98 11.46,-6.9 -26.21,-14.81 -63.89,-1.98 -76.98,-21.71 -67.17,15.78 -175.29,8.88 -199.86,39.47 -8.18,-0.99 -6.55,-7.9 -8.19,-12.83 -14.74,7.9 -26.21,15.79 -50.78,18.75 31.13,-11.84 -44.23,-1.97 -47.51,5.92 -8.19,-0.99 -6.55,-7.89 -8.19,-12.83 -14.74,1.98 -29.48,15.79 -65.52,6.91 -6.55,0.99 -3.28,5.92 -4.91,9.87 -11.48,-8.88 -78.64,11.84 -103.21,-3.95 -14.74,5.92 -16.38,8.88 -32.76,17.77 -6.55,-1.98 -9.83,-4.94 -13.11,-8.89 45.87,-1.97 -13.1,-14.8 13.11,-26.64 -11.47,-3.95 -29.49,14.8 -32.77,23.68 -11.46,-7.89 -26.21,-13.81 -34.39,-23.68 -42.6,-0.99 -93.38,12.83 -114.67,31.58 -26.21,1.97 -42.59,-8.88 -72.08,0.99 -9.83,-12.83 -11.47,-24.68 0,-35.53 3.28,-8.88 -18.02,18.75 -26.21,23.68 -8.19,-8.88 -32.76,-4.93 -37.68,-7.89 -6.55,0.98 -3.27,5.92 -4.91,9.87 -13.11,1.97 -22.93,0 -24.58,-4.94 -8.19,0.99 -3.27,7.9 -3.27,12.83 -8.19,-0.99 -14.74,-3.95 -19.66,-8.88 -8.19,6.91 -37.67,16.77 -31.12,-1.97 -22.94,-0.99 -4.92,15.79 -21.3,16.77 -19.66,-3.94 19.66,-12.83 -3.28,-18.75 -6.54,2.96 1.64,9.87 -9.82,16.78 -8.2,-0.99 -9.83,-4.94 -19.66,-5.92 -3.27,-7.9 27.85,0 16.38,-10.86 -11.47,7.9 -19.65,-1.97 -29.49,4.94 14.75,-11.85 1.64,-8.89 -3.27,-22.7 -1.64,17.76 -68.8,14.8 -54.06,5.92 -9.83,-4.93 -18.02,14.8 -27.85,10.85 -9.83,-0.98 1.64,-3.94 -1.64,-9.86 -13.1,-0.99 -22.93,20.72 -29.48,4.93 -6.55,0.99 -3.28,5.92 -4.92,9.87 -6.55,0 -6.55,-5.92 -8.19,-8.88 -8.19,4.93 -16.38,10.85 -27.85,13.81 -8.19,-0.98 -6.55,-7.89 -8.19,-12.83 -6.55,0.99 -3.27,5.93 -4.91,9.87 -18.02,-1.97 -8.19,-3.94 -8.19,-12.83 -21.3,1.98 -11.47,16.78 -39.32,14.81 14.74,-17.77 0,-0.99 -26.21,-7.9 16.38,11.84 -9.83,-2.96 -4.91,9.87 -14.74,-8.88 -34.4,0.99 -67.17,0 -78.62,23.68 -165.45,35.53 -206.4,62.17 -80.27,11.84 -124.5,13.82 -206.4,23.69 1.63,-6.91 29.48,-2.96 40.95,-4.94 -45.9,0.88 -121.64,-32.6 -216.14,-46.47 -103.15,-15.15 -223.59,-10.87 -224.52,-10.77l0 -335.39 3622.95 0c-1.71,0.41 -3.66,0.95 -5.96,1.64 15.74,1.95 29.92,0.91 43,-1.64l13273.35 0z"/>
  <path class="fil0" d="M13399.27 1584.63c0,-1.97 0,-3.95 4.94,-3.95 1.68,16.78 -22.93,4.94 -31.13,-1.97 19.67,-3.95 18.08,4.93 26.19,5.92z"/>
  <path class="fil0" d="M14876.88 1573.77c27.87,-4.93 13.14,-0.98 27.87,-10.85 -3.26,11.84 26.19,-0.99 36.07,-1.97 6.53,9.87 -8.2,9.87 -9.88,16.77 -17.99,2.96 -31.13,-5.92 -17.99,3.95 -14.73,0 -17.99,5.92 -29.45,7.9 1.58,-12.83 9.79,-10.86 -6.62,-15.8z"/>
 </g>
</svg>
