<svg width="1920" height="629" viewBox="0 0 1920 629" fill="none" xmlns="http://www.w3.org/2000/svg">
<mask id="mask0_1362_5331" style="mask-type:alpha" maskUnits="userSpaceOnUse" x="0" y="0" width="1920" height="629">
<rect width="1920" height="629" fill="#C4C4C4"/>
</mask>
<g mask="url(#mask0_1362_5331)">
<path d="M0 601.722C1.72507 601.722 3.45013 601.722 5.1752 602.702C13.8005 602.702 6.90027 605.643 20.7008 604.663C25.876 607.603 48.3019 601.722 62.1024 604.663C86.2534 604.663 94.8787 602.702 117.305 604.663C129.38 599.762 156.981 610.544 172.507 604.663C193.208 595.841 208.733 607.603 224.259 610.544C231.159 602.702 244.96 622.305 251.86 610.544C263.935 617.405 284.636 608.583 298.437 610.544C317.412 608.583 334.663 616.424 351.914 615.444C369.164 623.286 386.415 616.424 405.391 619.365C426.092 625.246 445.067 622.305 465.768 616.424C481.294 619.365 495.094 627.206 510.62 613.484C526.146 618.385 539.946 613.484 555.472 610.544C570.997 608.583 586.523 598.782 600.323 610.544C615.849 601.722 631.375 617.405 645.175 610.544C669.326 604.663 684.852 608.583 707.278 616.424C724.528 618.385 726.253 621.325 743.504 623.286C771.105 626.226 798.706 622.305 826.307 624.266C853.908 610.544 881.509 630.147 909.11 623.286C933.261 628.186 962.588 634.067 986.739 621.325C1010.89 609.563 1033.32 610.544 1060.92 610.544C1079.89 602.702 1104.04 609.563 1119.57 608.583C1126.47 613.484 1133.37 605.643 1141.99 601.722C1152.34 597.802 1162.7 598.782 1173.05 593.881C1185.12 601.722 1192.02 589.96 1209.27 585.06C1233.42 584.079 1261.02 585.06 1285.18 585.06C1305.88 586.04 1326.58 576.238 1347.28 580.159C1367.98 580.159 1388.68 585.06 1409.38 577.218C1419.73 570.357 1426.63 569.377 1436.98 579.179C1449.06 570.357 1461.13 573.298 1473.21 580.159C1492.18 588 1514.61 590.94 1531.86 580.159C1554.29 584.079 1573.26 575.258 1597.41 583.099C1606.04 580.159 1625.01 585.06 1631.91 583.099C1637.09 579.179 1638.81 600.742 1642.26 589.96C1657.79 593.881 1687.12 604.663 1700.92 600.742C1719.89 609.563 1725.07 603.682 1766.47 601.722C1785.44 603.682 1804.42 610.544 1830.3 604.663C1851 611.524 1880.32 603.682 1894.12 601.722C1899.3 600.742 1909.65 598.782 1920 596.821V489.985C1918.27 489.985 1918.27 489.005 1920 488.024V-54H3.45013C3.45013 42.6811 1.72507 -51.0595 0 -50.0794V-31.4565C1.72507 -30.4763 3.45013 -29.4962 6.90027 -28.516C3.45013 -26.5557 1.72507 -25.5756 0 -24.5954V601.722Z" fill="#F6F6F6"/>
</g>
</svg>
