<svg width="388" height="251" viewBox="0 0 388 251" fill="none" xmlns="http://www.w3.org/2000/svg">
<path d="M333.405 75.5291C333.297 74.8651 329.475 76.2309 329.208 77.0238C329.154 77.1722 330.105 77.0751 331.318 76.7817C332.638 76.4705 333.475 75.955 333.405 75.5291Z" fill="#FED775"/>
<path d="M54.0583 140.063C53.9413 140.448 52.3264 141.468 50.4697 142.335C48.6103 143.185 46.7772 144.275 46.3978 144.771C45.5225 145.868 54.3431 143.075 55.9022 141.766C56.4832 141.273 57.5266 140.725 58.2232 140.564C59.3453 140.284 59.4127 140.151 58.8202 139.336C58.0736 138.317 54.4136 138.871 54.0583 140.063Z" fill="#FED775"/>
<path d="M59.9761 143.54C60.6136 143.388 60.8496 143.176 60.5043 143.09C60.1563 142.988 59.6367 143.122 59.3447 143.359C59.0555 143.615 59.3387 143.692 59.9761 143.54Z" fill="#FED775"/>
<path d="M69.1109 71.6981C68.882 71.9778 68.9871 72.1193 69.3781 72.0581C69.7314 72.0029 69.9018 71.802 69.7539 71.5976C69.6061 71.3941 69.3167 71.4393 69.1109 71.6981Z" fill="#FED775"/>
<path d="M69.1105 93.8476C68.8213 94.103 69.1046 94.1807 69.7419 94.028C70.3789 93.8768 70.6149 93.6648 70.2701 93.5788C69.9221 93.476 69.3998 93.5928 69.1105 93.8476Z" fill="#FED775"/>
<path d="M69.5876 87.3623C69.4395 87.1588 69.1504 87.204 68.9446 87.4628C68.7162 87.7424 68.8208 87.8839 69.211 87.8229C69.5648 87.7676 69.7352 87.5659 69.5876 87.3623Z" fill="#FED775"/>
<path d="M71.4211 93.7843C71.754 94.0817 72.3868 94.2447 72.8296 94.1575C73.8921 93.9039 73.5608 93.589 72.0444 93.3891C71.1767 93.2628 70.9923 93.3792 71.4211 93.7843Z" fill="#FED775"/>
<path d="M60.3485 51.4255C60.4097 51.8006 60.608 52.0658 60.7924 52.037C60.9741 51.9914 61.0717 51.6439 61.0104 51.2697C60.9462 50.8779 60.7477 50.6119 60.5663 50.6583C60.3843 50.7039 60.2867 51.0514 60.3485 51.4255Z" fill="#FED775"/>
<path d="M28.6038 189.108C28.2297 189.202 27.9749 189.591 28.0364 189.965C28.0978 190.34 28.3655 190.613 28.6258 190.538C28.8888 190.48 29.1438 190.09 29.1962 189.697C29.246 189.287 28.9807 189.032 28.6038 189.108Z" fill="#FED775"/>
<path d="M17.5161 180.344C17.3343 180.389 17.2367 180.736 17.2981 181.111C17.3595 181.486 17.5605 181.769 17.7419 181.723C17.9237 181.677 18.0215 181.33 17.9602 180.955C17.8985 180.58 17.6976 180.297 17.5161 180.344Z" fill="#FED775"/>
<path d="M21.0769 172.695C21.1717 173.273 21.4709 173.682 21.7448 173.622C22.0157 173.543 22.1637 173.032 22.0717 172.47C21.977 171.891 21.6777 171.482 21.4041 171.543C21.1328 171.621 20.9849 172.133 21.0769 172.695Z" fill="#FED775"/>
<path d="M1.08515 174.631C0.495341 174.112 -0.276721 175.158 0.110697 175.937C0.51684 176.764 1.75235 176.501 1.60984 175.632C1.55136 175.274 1.31487 174.823 1.08515 174.631Z" fill="#FED775"/>
<path d="M93.9126 115.056C93.6202 115.294 93.9043 115.372 94.5416 115.22C95.1787 115.068 95.4177 114.873 95.0691 114.771C94.7244 114.684 94.202 114.802 93.9126 115.056Z" fill="#FED775"/>
<path d="M89.9564 114.906C89.2635 114.927 88.8102 115.173 88.9508 115.465L88.9482 115.448C89.0883 115.74 89.8924 115.755 90.7405 115.517C92.3561 115.037 92.0666 114.803 89.9564 114.906Z" fill="#FED775"/>
<path d="M194.214 227.49C193.96 227.355 193.513 227.46 193.219 227.716C192.924 227.954 193.134 228.079 193.683 227.958C194.23 227.837 194.469 227.625 194.214 227.49Z" fill="#FED775"/>
<path d="M187.255 229.137C186.966 229.392 187.25 229.47 187.887 229.318C188.524 229.166 188.76 228.954 188.415 228.869C188.067 228.766 187.547 228.899 187.255 229.137Z" fill="#FED775"/>
<path d="M184.941 229.708C184.683 229.574 184.311 229.667 184.114 229.907C183.92 230.165 184.131 230.271 184.587 230.165C185.041 230.059 185.2 229.842 184.941 229.708Z" fill="#FED775"/>
<path d="M242.253 154.53C242.106 154.326 241.816 154.371 241.61 154.63C241.382 154.91 241.487 155.051 241.877 154.99C242.231 154.935 242.401 154.734 242.253 154.53Z" fill="#FED775"/>
<path d="M198.246 160.359C198.884 160.207 199.12 159.995 198.775 159.91C198.427 159.806 197.907 159.941 197.615 160.179C197.325 160.434 197.609 160.511 198.246 160.359Z" fill="#FED775"/>
<path d="M275.99 126.356C275.701 126.612 275.984 126.689 276.621 126.537C277.259 126.385 277.495 126.173 277.147 126.07C276.801 125.985 276.279 126.101 275.99 126.356Z" fill="#FED775"/>
<path d="M81.5269 173.763C81.2376 174.017 81.5217 174.095 82.1583 173.943C82.7957 173.791 83.0346 173.597 82.6865 173.494C82.3391 173.39 81.8188 173.525 81.5269 173.763Z" fill="#FED775"/>
<path d="M182.017 229.746C181.869 229.542 181.58 229.587 181.374 229.846C181.146 230.127 181.25 230.267 181.641 230.206C181.994 230.151 182.165 229.95 182.017 229.746Z" fill="#FED775"/>
<path d="M153.068 240.157C153.591 240.896 153.963 240.576 153.796 239.555C153.625 238.515 151.329 238.193 149.082 238.894C147.99 239.24 148.204 239.345 150.24 239.517C151.615 239.616 152.89 239.923 153.068 240.157Z" fill="#FED775"/>
<path d="M171.969 231.351C171.263 231.375 170.146 231.636 169.487 231.949C168.829 232.262 169.409 232.259 170.773 231.923C172.137 231.588 172.677 231.346 171.969 231.351Z" fill="#FED775"/>
<path d="M92.6036 250.219C93.1094 250.419 93.5632 250.593 93.615 250.62C93.6668 250.647 93.6569 250.352 93.5956 249.977C93.5342 249.602 93.0802 249.429 92.5839 249.576L91.6867 249.874L92.6036 250.219Z" fill="#FED775"/>
<path d="M81.6949 240.866C81.5169 241.069 83.3009 241.733 85.661 242.36C90.4608 243.636 91.1402 243.722 90.5327 242.943C90.0027 242.258 82.1309 240.414 81.6949 240.866Z" fill="#FED775"/>
<path d="M79.8108 240.374C79.9926 240.329 79.6965 239.939 79.1542 239.516C78.6095 239.077 78.0168 238.768 77.8352 238.814C77.6534 238.86 77.9473 239.233 78.4919 239.673C79.0364 240.111 79.6289 240.421 79.8108 240.374Z" fill="#FED775"/>
<path d="M94.3587 250.433C94.6851 250.697 96.7489 250.654 98.9477 250.363C101.146 250.071 103.051 249.966 103.184 250.155C103.564 250.672 103.986 250.414 103.871 249.716C103.768 249.086 101.997 249.065 96.6359 249.641C94.9415 249.819 94.0062 250.139 94.3587 250.433Z" fill="#FED775"/>
<path d="M96.7736 244.186C97.2152 244.083 97.2038 244.015 96.6644 243.522C96.3315 243.225 95.8368 243.041 95.5634 243.101C95.122 243.205 95.1329 243.273 95.6718 243.765C96.0047 244.063 96.5018 244.264 96.7736 244.186Z" fill="#FED775"/>
<path d="M145.806 240.122L143.735 240.079C141.292 240.024 134.937 240.755 135.969 240.961C136.361 241.04 137.915 241.076 139.423 241.051C140.93 241.007 142.984 240.791 143.984 240.547L145.806 240.122Z" fill="#FED775"/>
<path d="M132.212 174.487C131.957 174.352 131.507 174.44 131.214 174.696C130.921 174.951 131.129 175.058 131.678 174.937C132.227 174.834 132.466 174.622 132.212 174.487Z" fill="#FED775"/>
<path d="M210.339 238.123C210.285 238.272 211.227 238.176 212.43 237.884C213.631 237.592 214.652 237.065 214.697 236.709C214.772 236.104 210.559 237.479 210.339 238.123Z" fill="#FED775"/>
<path d="M328.568 80.861C328.34 81.1414 328.445 81.2822 328.835 81.2212C329.189 81.1659 329.359 80.965 329.211 80.7606C329.063 80.557 328.774 80.6022 328.568 80.861Z" fill="#FED775"/>
<path d="M316.026 61.0042C315.797 61.2846 315.902 61.4253 316.293 61.3643C316.647 61.3089 316.817 61.108 316.669 60.9037C316.521 60.7001 316.232 60.7453 316.026 61.0042Z" fill="#FED775"/>
<path d="M335.465 63.8006C336.103 63.6485 336.339 63.4374 335.994 63.3514C335.646 63.2479 335.126 63.3823 334.834 63.6202C334.545 63.8757 334.829 63.9525 335.465 63.8006Z" fill="#FED775"/>
<path d="M325.789 80.8249C325.592 81.0651 325.803 81.172 326.259 81.0656C326.715 80.9593 326.875 80.7591 326.617 80.6251C326.358 80.4904 325.986 80.5838 325.789 80.8249Z" fill="#FED775"/>
<path d="M337.225 62.3374C336.996 62.6178 337.101 62.7585 337.495 62.7142C337.848 62.659 338.015 62.4413 337.868 62.2368C337.72 62.0332 337.431 62.0785 337.225 62.3374Z" fill="#FED775"/>
<path d="M371.631 165.716C371.026 167.208 371.56 167.055 372.436 165.503C372.822 164.814 372.893 164.366 372.606 164.446C372.332 164.506 371.894 165.082 371.631 165.716Z" fill="#FED775"/>
<path d="M360.814 155.983C359.88 156.338 360.68 156.267 362.592 155.81C364.503 155.353 365.267 155.06 364.288 155.143C363.308 155.226 361.746 155.611 360.814 155.983Z" fill="#FED775"/>
<path d="M214.538 74.6121C213.74 74.6493 212.477 74.9694 211.726 75.2962C210.976 75.623 211.629 75.5906 213.174 75.2091C214.722 74.8445 215.336 74.575 214.538 74.6121Z" fill="#FED775"/>
<path d="M367.639 182.918C368.258 182.192 367.953 181.942 366.845 182.273C365.975 182.514 365.916 182.645 366.526 182.952C366.94 183.167 367.442 183.158 367.639 182.918Z" fill="#FED775"/>
<path d="M376.963 133.336C377.136 133.675 377.642 133.875 378.087 133.771C378.531 133.667 378.844 133.269 378.782 132.894C378.721 132.519 378.215 132.319 377.656 132.442C377.066 132.586 376.778 132.963 376.963 133.336Z" fill="#FED775"/>
<path d="M336.27 98.0702C336.734 97.9618 336.774 96.6635 336.326 96.2792C335.793 95.8209 335.304 96.7884 335.684 97.5499C335.846 97.874 336.111 98.1116 336.27 98.0702Z" fill="#FED775"/>
<path d="M71.6142 101.247C71.7562 100.963 71.8267 100.446 71.7675 100.089C71.7095 99.731 71.5137 99.4825 71.3319 99.5281C71.1502 99.5737 71.0804 100.091 71.1751 100.67C71.2728 101.266 71.4687 101.516 71.6142 101.247Z" fill="#FED775"/>
<path d="M189.428 89.2794C189.17 89.1455 188.795 89.2212 188.601 89.4791C188.404 89.7194 188.615 89.8263 189.071 89.7199C189.526 89.6135 189.687 89.4141 189.428 89.2794Z" fill="#FED775"/>
<path d="M207.559 117.539C207.235 116.891 202.171 118.259 201.943 119.064C201.863 119.339 203.16 119.241 204.828 118.857C206.614 118.438 207.734 117.897 207.559 117.539Z" fill="#FED775"/>
<path d="M201.439 119.002C201.327 118.321 199.416 118.043 199.409 118.708C199.405 118.988 198.504 119.356 197.41 119.545C196.313 119.716 195.045 120.228 194.592 120.684C194.031 121.226 195.018 121.177 197.644 120.504C199.778 119.961 201.483 119.274 201.439 119.002Z" fill="#FED775"/>
<path d="M213.033 84.3159C212.775 84.1812 212.404 84.2744 212.207 84.5147C212.01 84.7557 212.223 84.8787 212.679 84.7731C213.132 84.6492 213.293 84.4497 213.033 84.3159Z" fill="#FED775"/>
<path d="M179.523 82.4085C179.376 82.2048 179.087 82.25 178.881 82.5089C178.653 82.7892 178.757 82.9301 179.148 82.869C179.501 82.8138 179.671 82.6129 179.523 82.4085Z" fill="#FED775"/>
<path d="M224.72 82.1744C224.104 82.1667 223.137 82.4054 222.572 82.7026C222.006 83.0004 222.51 83.0092 223.692 82.719C224.874 82.4294 225.339 82.2004 224.72 82.1744Z" fill="#FED775"/>
<path d="M211.386 84.7126C211.131 84.5774 210.684 84.6832 210.391 84.9385C210.095 85.1769 210.306 85.3012 210.854 85.1804C211.402 85.0595 211.641 84.8478 211.386 84.7126Z" fill="#FED775"/>
<path d="M208.755 76.0928C208.607 75.8884 208.318 75.9337 208.112 76.1933C207.884 76.4729 207.988 76.6145 208.382 76.5702C208.735 76.515 208.902 76.2965 208.755 76.0928Z" fill="#FED775"/>
<path d="M377.372 185.345C377.871 184.358 376.871 184.934 373.004 187.844C367.52 191.967 362.266 194.588 356.334 196.161C354.537 196.652 352.966 197.211 352.851 197.439C352.653 197.819 347.195 198.131 344.302 197.919C343.162 197.835 343.051 197.975 343.414 198.966C343.771 199.941 343.68 200.095 342.787 199.938C342.213 199.853 340.007 200.006 337.884 200.285C335.763 200.565 332.885 200.892 331.489 201.006C330.095 201.136 329.113 201.447 329.308 201.713C329.503 201.98 329.84 202.171 330.06 202.155C330.278 202.121 331.834 202 333.516 201.876C335.202 201.771 337.715 201.57 339.101 201.423C340.49 201.293 341.718 201.31 341.832 201.468C342.207 201.985 356.252 198.323 360.286 196.644C364.71 194.835 366.947 193.804 368.82 192.742C370.63 191.726 376.88 186.329 377.372 185.345Z" fill="#FED775"/>
<path d="M288.726 217.628C288.339 217.88 288.621 217.958 289.35 217.792C290.079 217.626 290.396 217.418 290.05 217.316C289.707 217.23 289.11 217.358 288.726 217.628Z" fill="#FED775"/>
<path d="M295.034 216.799L293.059 217.334L295.448 217.224C296.765 217.175 298.363 217.012 299.003 216.878C300.027 216.665 299.975 216.604 298.587 216.437C297.717 216.328 296.118 216.49 295.034 216.799Z" fill="#FED775"/>
<path d="M326.025 207.972C325.797 208.252 325.901 208.393 326.291 208.332C326.645 208.277 326.815 208.076 326.668 207.871C326.52 207.668 326.23 207.713 326.025 207.972Z" fill="#FED775"/>
<path d="M80.7234 70.8095C77.9681 70.6632 71.9317 71.7294 72.0299 72.3254C72.0772 72.6158 73.881 72.5254 76.0402 72.1356C83.0237 70.8526 82.8111 70.9194 80.7234 70.8095Z" fill="#FED775"/>
<path d="M304.09 215.978C302.72 216.017 301.457 216.319 301.286 216.66C301.111 216.984 302.103 217.109 303.486 216.91C309.574 216.045 312.811 215.12 316.884 213.086C319.28 211.891 321.272 210.81 321.307 210.665C321.345 210.537 319.545 210.889 317.308 211.448C314.843 212.06 313.852 212.477 314.797 212.521L316.356 212.592L314.32 213.592C311.818 214.839 307.408 215.877 304.09 215.978Z" fill="#FED775"/>
<path d="M270.206 219.945C269.978 220.225 270.083 220.366 270.473 220.305C270.827 220.25 270.997 220.048 270.849 219.845C270.702 219.641 270.412 219.686 270.206 219.945Z" fill="#FED775"/>
<path d="M277.082 219.011C276.79 219.248 277.074 219.326 277.711 219.174C278.349 219.022 278.587 218.828 278.239 218.725C277.891 218.622 277.372 218.756 277.082 219.011Z" fill="#FED775"/>
<path d="M323.43 209.583C324.341 209.37 324.733 209.152 324.298 209.081C323.863 209.009 323.119 209.194 322.641 209.462C322.165 209.747 322.519 209.795 323.43 209.583Z" fill="#FED775"/>
<path d="M262.794 221.016C262.599 221.274 262.811 221.38 263.266 221.274C263.721 221.168 263.882 220.968 263.62 220.817C263.363 220.683 262.991 220.776 262.794 221.016Z" fill="#FED775"/>
<path d="M165.539 125.067C165.391 124.864 165.102 124.909 164.896 125.168C164.668 125.448 164.772 125.59 165.163 125.529C165.517 125.473 165.687 125.272 165.539 125.067Z" fill="#FED775"/>
<path d="M253.298 221.837C252.729 222.118 253.234 222.126 254.419 221.854C255.6 221.564 256.063 221.317 255.447 221.309C254.83 221.3 253.864 221.54 253.298 221.837Z" fill="#FED775"/>
<path d="M257.555 221.539C257.262 221.795 257.47 221.901 258.021 221.797C258.568 221.677 258.808 221.465 258.553 221.33C258.298 221.195 257.851 221.301 257.555 221.539Z" fill="#FED775"/>
<path d="M148.727 172.99C145.879 173.505 144.325 173.94 145.275 173.966C147.123 174.044 154.388 172.665 154.089 172.31C153.99 172.185 151.577 172.492 148.727 172.99Z" fill="#FED775"/>
<path d="M72.424 173.875C72.2766 173.671 71.987 173.717 71.781 173.976C71.5528 174.255 71.6577 174.397 72.0489 174.336C72.402 174.28 72.5718 174.079 72.424 173.875Z" fill="#FED775"/>
<path d="M71.706 176.032C71.9609 176.551 73.624 176.431 73.5377 175.902C73.5152 175.767 73.0337 175.615 72.4708 175.58C71.9077 175.546 71.5646 175.757 71.706 176.032Z" fill="#FED775"/>
<path d="M57.0225 175.863C56.9606 175.488 56.7593 175.206 56.5782 175.252C56.3962 175.297 56.2989 175.645 56.3599 176.019C56.4216 176.394 56.6226 176.677 56.8038 176.631C56.986 176.585 57.0838 176.237 57.0225 175.863Z" fill="#FED775"/>
<path d="M35.0738 210.334C35.1282 210.378 35.1214 210.1 35.0598 209.725C34.9981 209.35 34.3955 209.217 33.721 209.428L32.4943 209.812L33.7351 210.036C34.417 210.157 35.0218 210.308 35.0738 210.334Z" fill="#FED775"/>
<path d="M42.9426 172.369C42.7974 172.182 42.5082 172.228 42.3002 172.47C42.0712 172.749 42.1787 172.908 42.5696 172.846C42.9227 172.791 43.09 172.573 42.9426 172.369Z" fill="#FED775"/>
<path d="M67.9886 138.916C68.8688 138.708 69.4473 138.338 69.2766 138.103C68.951 137.665 66.6596 138.354 66.4893 138.958C66.4334 139.141 67.1107 139.141 67.9886 138.916Z" fill="#FED775"/>
<path d="M66.8785 133.762C66.7305 133.558 66.4414 133.603 66.2324 133.846C66.0067 134.143 66.1117 134.284 66.5026 134.223C66.8555 134.167 67.0233 133.95 66.8785 133.762Z" fill="#FED775"/>
<path d="M160.298 125.573C160.039 125.438 159.667 125.532 159.47 125.772C159.274 126.013 159.484 126.119 159.941 126.013C160.396 125.907 160.556 125.707 160.298 125.573Z" fill="#FED775"/>
<path d="M61.7025 137.855C61.5545 137.651 61.2654 137.696 61.0595 137.955C60.8308 138.235 60.9357 138.377 61.3267 138.316C61.68 138.26 61.8498 138.059 61.7025 137.855Z" fill="#FED775"/>
<path d="M64.272 138.274C64.7275 138.169 64.8879 137.968 64.6296 137.834C64.3686 137.683 63.9966 137.776 63.8019 138.033C63.6053 138.274 63.8159 138.381 64.272 138.274Z" fill="#FED775"/>
<path d="M185.784 164.455C185.555 164.735 185.663 164.893 186.053 164.832C186.407 164.777 186.574 164.559 186.427 164.354C186.282 164.168 185.99 164.196 185.784 164.455Z" fill="#FED775"/>
<path d="M161.634 167.566C161.582 167.766 162.001 167.806 162.565 167.664C163.13 167.524 163.636 167.079 163.689 166.669C163.78 165.938 161.858 166.78 161.634 167.566Z" fill="#FED775"/>
<path d="M164.875 170.221C164.619 170.086 164.169 170.174 163.877 170.43C163.584 170.685 163.792 170.792 164.34 170.671C164.888 170.551 165.129 170.356 164.875 170.221Z" fill="#FED775"/>
<path d="M159.173 168.004C158.978 168.261 159.19 168.368 159.645 168.261C160.098 168.138 160.259 167.939 160 167.804C159.742 167.67 159.37 167.763 159.173 168.004Z" fill="#FED775"/>
<path d="M141.667 174.128C141.325 173.85 139.243 173.896 137.042 174.24L133.038 174.848L136.616 174.639C138.585 174.54 140.439 174.513 140.737 174.606C141.033 174.682 141.506 174.73 141.785 174.705C142.212 174.638 142.195 174.552 141.667 174.128Z" fill="#FED775"/>
<path d="M172.721 164.628C172.91 164.878 174.791 164.776 176.901 164.393C179.013 164.028 181.414 163.584 182.239 163.42L183.74 163.133L181.996 162.986C179.532 162.777 172.303 164.047 172.721 164.628Z" fill="#FED775"/>
<path d="M168.652 164.984C168.271 165.254 168.626 165.303 169.446 165.104C170.265 164.907 170.579 164.701 170.142 164.629C169.704 164.558 169.034 164.715 168.652 164.984Z" fill="#FED775"/>
<path d="M71.3288 144.124C71.1809 143.92 70.8918 143.965 70.6858 144.224C70.4574 144.504 70.562 144.645 70.953 144.584C71.3068 144.529 71.4767 144.328 71.3288 144.124Z" fill="#FED775"/>
<path d="M164.712 165.723C164.54 165.766 164.452 166.113 164.513 166.487C164.575 166.862 164.858 167.114 165.142 167.053C165.424 166.973 165.513 166.628 165.34 166.288C165.165 165.931 164.882 165.679 164.712 165.723Z" fill="#FED775"/>
<path d="M166.585 166.932C166.356 167.211 166.461 167.353 166.852 167.292C167.206 167.237 167.376 167.035 167.228 166.831C167.081 166.627 166.791 166.672 166.585 166.932Z" fill="#FED775"/>
<path d="M184.117 169.625C180.785 170.075 175.2 170.931 171.709 171.564C166.24 172.523 159.663 173.569 154.109 174.349C146.166 175.469 141.98 176.018 140.98 176.087C133.055 176.574 129.822 176.609 125.529 176.248C122.749 176.019 120.097 175.892 119.639 175.981C117.023 176.494 109.385 176.85 107.881 176.526C106.897 176.313 105.376 176.533 104.439 177.029C103.391 177.577 102.715 177.648 102.645 177.222C102.467 176.132 101.125 175.869 97.5812 176.231C95.4924 176.435 94.2705 176.819 94.2535 177.275C94.2393 177.697 94.0224 177.626 93.7504 177.127C93.4277 176.531 92.9914 176.478 92.403 176.936C91.763 177.438 91.6335 177.406 91.9145 176.803C92.2092 176.18 92.0288 176.052 91.1351 176.243C89.59 176.589 88.3383 176.191 88.4366 175.373C88.4818 175.016 87.7403 174.922 86.7845 175.142C84.8573 175.6 79.1213 175.676 78.244 175.236C77.8679 175.051 77.983 174.717 78.5938 174.221L79.5043 173.484L78.4558 173.648C77.8794 173.738 77.1907 173.479 76.9237 173.049C76.5383 172.428 76.8431 172.241 78.3691 172.159C79.7995 172.093 80.3187 172.327 80.3601 173.053C80.4047 173.798 80.5024 173.835 80.7342 173.239C80.9365 172.719 81.8333 172.421 83.2263 172.448C85.5083 172.476 86.5747 173.043 85.0347 173.423C84.5162 173.539 84.2674 173.909 84.4503 174.282C84.6235 174.622 85.3908 174.764 86.1557 174.593C88.1551 174.122 90.1649 174.419 90.0721 175.168C90.0258 175.507 90.48 175.664 91.0764 175.483C91.9842 175.237 92.0376 175.106 91.4061 174.751C90.8099 174.407 90.9287 174.232 91.9657 173.964C92.9325 173.709 93.1784 173.81 92.8962 174.395C92.6298 174.926 93.0654 174.946 94.2764 174.424C95.2488 174.01 97.3589 173.663 98.9663 173.656C100.57 173.632 103.646 173.518 105.801 173.391C107.955 173.264 111.558 173.05 113.81 172.942C116.06 172.818 118.966 172.609 120.268 172.475C121.57 172.342 123.358 172.255 124.239 172.273C125.302 172.299 125.879 172.017 125.949 171.429C126.03 170.805 126.155 170.751 126.413 171.27C126.645 171.74 129.674 171.546 135.135 170.71C139.737 170.008 144.293 169.541 145.26 169.669C146.227 169.797 149.496 169.444 152.522 168.865C155.549 168.288 157.41 167.839 156.658 167.869C155.91 167.917 154.948 167.718 154.526 167.451C154.107 167.202 153.364 166.917 152.88 166.853C151.673 166.675 174.286 162.372 179.227 161.827C181.959 161.539 185.648 160.841 208.095 156.441C214.32 155.207 217.956 154.761 218.321 155.193C218.737 155.669 218.917 155.554 219.02 154.769C219.098 154.198 219.218 154.057 219.291 154.483C219.36 154.891 220.256 155.38 221.277 155.552C222.798 155.821 222.31 156.002 218.6 156.53C216.105 156.885 210.108 158.067 205.273 159.154C200.438 160.241 194.744 161.377 192.616 161.674C190.4 161.985 189.421 162.278 190.325 162.382L191.9 162.554L190.444 163.113C189.645 163.43 191.783 163.254 195.195 162.72C204.054 161.371 217.752 160.173 224.362 160.206L227.975 160.217L222.589 161.531C219.625 162.238 217.143 162.749 217.072 162.655C216.998 162.545 210.918 163.897 203.558 165.641C196.197 167.385 187.451 169.191 184.117 169.625ZM100.722 177.435C100.148 177.613 99.5369 177.482 99.3613 177.124C98.9974 176.394 99.5323 176.259 100.851 176.769C101.727 177.104 101.723 177.14 100.722 177.435ZM97.3411 177.562C96.9501 177.623 96.8433 177.466 97.0714 177.185C97.2776 176.926 97.5668 176.881 97.7144 177.085C97.8618 177.289 97.6942 177.507 97.3411 177.562ZM105.778 236.177C105.141 236.329 104.857 236.251 105.147 235.997C105.436 235.741 105.958 235.625 106.304 235.711C106.651 235.814 106.415 236.024 105.778 236.177ZM139.084 169.222C139.471 168.969 140.066 168.825 140.412 168.927C140.755 169.013 140.442 169.237 139.712 169.403C138.983 169.569 138.701 169.492 139.084 169.222ZM145.022 167.7C146.202 167.358 147.121 167.389 147.185 167.782C147.311 168.548 146.522 168.723 144.373 168.465C143.078 168.301 143.128 168.242 145.022 167.7ZM149.478 166.864C150.504 166.896 151.531 167.172 151.759 167.469C152.009 167.797 151.518 168.171 150.533 168.377C149.471 168.63 148.666 168.406 148.251 167.772C147.675 166.901 147.797 166.813 149.478 166.864ZM220.335 154.009C220.625 153.753 221.147 153.637 221.495 153.74C221.84 153.825 221.604 154.037 220.967 154.189C220.33 154.341 220.046 154.263 220.335 154.009ZM223.468 153.239C224.031 152.942 225.073 152.691 225.783 152.668C226.495 152.661 226.036 152.907 224.762 153.212C223.487 153.516 222.907 153.537 223.468 153.239ZM224.597 155.875C224.791 155.618 225.165 155.542 225.424 155.676C225.682 155.81 225.521 156.01 225.066 156.116C224.611 156.223 224.4 156.116 224.597 155.875ZM243.245 154.673C243.198 155.047 243.52 155.415 243.957 155.469C244.692 155.581 244.689 155.616 243.918 155.894C243.455 156.054 242.99 156.074 242.88 155.916C242.772 155.776 239.16 156.323 234.857 157.153C227.295 158.615 216.17 160.004 215.652 159.561C215.514 159.443 213.833 159.636 211.918 159.987C210.007 160.356 207.81 160.577 207.038 160.488C205.576 160.297 207.681 159.881 227.695 156.421C243.735 153.652 243.369 153.693 243.245 154.673ZM227.453 152.319C227.65 152.079 228.021 151.987 228.28 152.12C228.539 152.254 228.378 152.454 227.922 152.56C227.47 152.683 227.256 152.56 227.453 152.319ZM229.458 151.832C229.664 151.572 229.953 151.527 230.101 151.731C230.249 151.935 230.078 152.136 229.725 152.192C229.335 152.253 229.23 152.111 229.458 151.832ZM239.12 149.534C241.253 149.271 244.086 148.794 245.416 148.481C246.748 148.168 247.798 148.196 247.753 148.552C247.655 149.371 238.69 151.575 237.054 151.202C234.585 150.646 235.385 149.996 239.12 149.534ZM236.474 119.763C235.926 119.884 235.716 119.76 236.011 119.522C236.304 119.266 236.751 119.162 237.006 119.296C237.261 119.431 237.022 119.643 236.474 119.763ZM238.115 119.455C237.724 119.516 237.616 119.358 237.845 119.079C238.053 118.836 238.342 118.791 238.488 118.978C238.636 119.182 238.468 119.4 238.115 119.455ZM223.836 97.9477C204.583 101.62 197.312 102.879 197.069 102.549C196.866 102.267 226.492 94.702 228.548 94.5026C229.108 94.4511 235.503 93.2585 242.761 91.8451C254.111 89.6523 256.201 89.4131 257.688 90.1407C259.427 90.9866 260.636 90.4835 259.985 89.1703C259.735 88.6677 260.355 88.4309 262.168 88.3571C264.27 88.2724 264.744 88.042 264.959 87.0469C265.238 85.7283 266.249 85.2037 266.707 86.1281C266.861 86.4353 269.193 86.2115 271.883 85.5981C274.575 85.003 278.042 84.6706 279.586 84.8483C281.133 85.0436 285.931 84.6775 290.254 84.055C294.573 83.4151 298.216 83.0546 298.344 83.2268C298.608 83.5881 292.392 85.1881 292.11 84.8303C291.697 84.3015 276.118 87.4174 265.66 90.0993C249.218 94.3285 244.875 95.2519 241.109 95.2637C239.249 95.2753 231.475 96.4732 223.836 97.9477ZM224.947 111.643C221.976 111.566 212.66 113.791 213.156 114.464C213.294 114.652 214.388 114.569 215.593 114.293C216.794 114.001 217.824 114.049 217.883 114.407C217.941 114.765 217.85 115.076 217.684 115.119C217.517 115.162 217.197 115.335 216.971 115.493C216.745 115.651 214.785 116.114 212.613 116.506C209.697 117.048 208.667 117.018 208.664 116.372C208.663 115.778 209.334 115.411 210.824 115.231C212.013 115.079 212.888 114.838 212.766 114.665C212.443 114.244 209.062 114.37 206.813 114.896C205.733 115.135 204.924 115.087 205.013 114.776C205.353 113.57 225.629 110.034 226.151 111.087C226.336 111.46 225.866 111.674 224.947 111.643ZM223.673 112.489C223.87 112.248 224.242 112.156 224.5 112.29C224.761 112.44 224.6 112.641 224.146 112.747C223.69 112.853 223.479 112.746 223.673 112.489ZM224.411 115.413C223.14 115.735 222.556 115.738 223.118 115.44C223.679 115.143 224.722 114.892 225.434 114.887C226.144 114.863 225.685 115.109 224.411 115.413ZM220.524 113.733C220.004 113.254 220 113.151 220.493 113.021C220.813 112.953 221.121 113.185 221.183 113.56C221.323 114.412 221.285 114.417 220.524 113.733ZM218.71 113.685C218.907 113.444 219.279 113.351 219.537 113.485C219.796 113.619 219.635 113.819 219.182 113.942C218.726 114.049 218.516 113.942 218.71 113.685ZM219.338 116.817C217.993 117.167 216.947 117.261 217.014 117.023C217.249 116.2 220.033 115.276 220.906 115.733C221.578 116.083 221.205 116.334 219.338 116.817ZM200.19 115.582C199.553 115.734 199.27 115.656 199.559 115.402C199.851 115.165 200.37 115.031 200.719 115.133C201.064 115.219 200.827 115.431 200.19 115.582ZM189.592 104.435C180.575 106.508 178.791 106.735 178.637 105.797C178.556 105.304 178.409 105.362 178.187 105.973C177.99 106.493 177.175 106.899 176.197 106.948C175.284 106.986 173.864 107.155 173.039 107.319C172.059 107.507 171.66 107.359 171.893 106.905C172.192 106.316 172.167 106.162 171.733 105.934C171.451 105.785 171.703 105.537 172.288 105.358C172.874 105.179 173.392 105.273 173.439 105.562C173.487 105.852 175.368 105.524 177.62 104.839C180.446 103.995 181.756 103.843 181.842 104.371C182.004 105.359 182.904 105.131 182.899 104.101C182.897 103.525 183.285 103.429 184.333 103.754C185.123 103.998 187.116 103.913 188.762 103.569C190.41 103.241 192.909 102.903 194.32 102.858C196.036 102.799 194.471 103.323 189.592 104.435ZM196.375 116.616C195.985 116.677 195.878 116.519 196.106 116.239C196.312 115.98 196.601 115.935 196.748 116.138C196.897 116.342 196.729 116.56 196.375 116.616ZM270.703 69.4693C268.716 69.4655 266.579 69.1704 265.952 68.8142C264.952 68.2373 265.367 68.0324 269.365 67.1113C271.868 66.5279 273.885 66.2821 273.851 66.5844C273.816 66.869 274.105 66.9638 274.497 66.815C274.887 66.6493 275.467 66.6985 275.789 66.9273C276.11 67.1569 277.829 67.3596 279.607 67.3616C281.384 67.3629 283.156 67.6098 283.539 67.8821C283.925 68.1712 284.87 68.2501 285.642 68.0771C288.194 67.4516 286.903 68.299 283.434 69.5057C281.418 70.2053 280.662 70.3235 281.59 69.7939L283.16 68.884L281.55 69.1708C280.662 69.3096 279.702 69.8263 279.415 70.3081C279.055 70.9062 278.857 70.9551 278.775 70.4605C278.708 70.052 277.893 69.9339 276.906 70.1757C275.94 70.3971 274.963 70.3403 274.732 70.027C274.5 69.7129 272.69 69.4729 270.703 69.4693ZM276.745 66.4637C276.108 66.6156 275.824 66.5372 276.116 66.3C276.405 66.0446 276.925 65.9117 277.273 66.0145C277.621 66.118 277.382 66.3117 276.745 66.4637ZM274.884 60.3617C285.686 58.0974 291.863 57.0445 294.463 57.0571C295.315 57.0638 297.073 56.929 298.369 56.7616C301.551 56.3339 312.583 55.8674 313.057 56.1427C313.264 56.2503 312.382 56.5282 311.093 56.7475C305.587 57.712 296.473 59.1192 293.817 59.4124C292.238 59.5888 287.317 60.2532 282.879 60.8772C278.444 61.518 272.512 62.1481 269.698 62.2917L264.581 62.5497L274.884 60.3617ZM297.009 80.4501C297.681 80.2231 298.284 80.3556 298.348 80.7475C298.409 81.1224 298.416 81.4005 298.362 81.3566C298.307 81.3134 297.705 81.1802 297.024 81.06L295.783 80.8348L297.009 80.4501ZM303.119 100.405C304.022 100.141 305.545 99.5191 306.509 99.0543C307.729 98.4445 308.193 98.4244 308.046 98.9891C307.783 99.9909 303.999 101.455 302.549 101.123C301.639 100.916 301.726 100.814 303.119 100.405ZM300.956 82.4707C301.339 82.2013 301.937 82.0734 302.281 82.1596C302.626 82.2628 302.31 82.4694 301.584 82.6532C300.855 82.8196 300.569 82.7234 300.956 82.4707ZM304.378 82.3901C304.575 82.1498 304.946 82.0573 305.205 82.1912C305.463 82.3251 305.303 82.5246 304.85 82.6485C304.394 82.7542 304.181 82.6304 304.378 82.3901ZM315.347 102.021C317.219 102.253 318.713 102.753 318.666 103.127C318.619 103.501 317.138 104.013 315.331 104.26C313.336 104.537 312.561 104.815 313.327 104.975C316.001 105.553 309.521 106.478 301.9 106.604C296.684 106.703 293.294 107.093 291.437 107.82C289.925 108.405 288.28 108.698 287.781 108.461C286.258 107.739 289.925 106.361 293.973 106.166C295.91 106.055 300.747 104.985 304.721 103.787C310.812 101.927 312.474 101.65 315.347 102.021ZM307.045 81.7465C307.251 81.4868 307.54 81.4416 307.688 81.646C307.835 81.8497 307.666 82.0514 307.312 82.1066C306.921 82.1677 306.817 82.026 307.045 81.7465ZM312.556 96.7279C313.31 96.4881 314.068 96.5798 314.244 96.9362C314.593 97.6329 314.279 97.7172 312.425 97.3784L311.181 97.1359L312.556 96.7279ZM322.368 103.894C322.497 104.066 321.569 104.438 320.307 104.722C318.047 105.198 318.027 105.201 319.025 104.067C319.949 103.014 321.659 102.922 322.368 103.894ZM332.55 115.404C334.082 115.042 335.285 114.906 335.226 115.125C334.999 115.929 332.127 116.727 328.044 117.121C322.314 117.703 321.204 117.474 325.909 116.686C328.027 116.338 331.014 115.749 332.55 115.404ZM315.874 118.936C316.071 118.695 316.443 118.603 316.701 118.737C316.959 118.871 316.801 119.088 316.346 119.193C315.891 119.3 315.679 119.193 315.874 118.936ZM331.487 121.334C329.518 122.202 313.178 126.03 312.522 125.766C312.065 125.575 309.954 125.206 307.828 124.928L303.966 124.449L310.483 123.29C314.071 122.677 317.687 122.077 318.523 121.981C319.359 121.886 322.173 121.516 324.78 121.179C328.933 120.633 332.859 120.719 331.487 121.334ZM324.18 138.652C323.269 138.865 322.915 138.814 323.391 138.531C323.87 138.264 324.614 138.078 325.049 138.149C325.484 138.221 325.091 138.44 324.18 138.652ZM305.247 151.132C304.699 151.252 304.487 151.128 304.783 150.889C305.076 150.634 305.523 150.53 305.778 150.664C306.034 150.799 305.794 151.011 305.247 151.132ZM294.552 108.33C294.757 108.07 295.047 108.025 295.194 108.229C295.342 108.433 295.172 108.634 294.818 108.689C294.427 108.75 294.323 108.609 294.552 108.33ZM310.676 119.224C312.027 119.276 309.66 120.012 303.909 121.331C298.051 122.665 295.215 123.074 295.509 122.539C296.028 121.619 307.552 119.101 310.676 119.224ZM280.528 108.844C280.612 108.185 281.29 108.044 283.382 108.275C284.895 108.458 286.244 108.754 286.382 108.941C286.644 109.302 286.421 109.337 282.705 109.568C281.071 109.667 280.447 109.45 280.528 108.844ZM273.174 111.81C273.301 112.576 271.964 112.907 270.36 112.477C269.474 112.249 269.615 112.087 271.171 111.651C272.237 111.345 273.111 111.418 273.174 111.81ZM267.541 111.014C265.593 111.248 264.207 111.29 264.461 111.11C265.549 110.398 272.94 109.156 273.494 109.611C274.155 110.153 273.46 110.315 267.541 111.014ZM261.644 111.236C261.841 110.995 262.213 110.903 262.472 111.036C262.73 111.171 262.57 111.371 262.116 111.494C261.661 111.6 261.447 111.476 261.644 111.236ZM294.367 122.541C293.879 123.037 291.682 123.73 289.457 124.059C287.065 124.433 285.739 124.851 286.19 125.112C286.859 125.497 286.838 125.57 286.028 125.818C285.491 125.972 285.145 125.782 285.198 125.354C285.256 124.891 284.456 124.823 283.039 125.167C281.463 125.554 280.967 125.876 281.392 126.263C281.883 126.711 281.857 126.854 281.255 127.001C280.846 127.1 280.464 126.898 280.409 126.557C280.35 126.2 279.928 126.213 279.47 126.599C279.01 126.968 277.122 127.491 275.269 127.728C272.824 128.039 272.294 127.965 273.336 127.47C274.124 127.085 272.003 127.364 268.619 128.068C265.235 128.771 260.783 129.467 258.726 129.614C256.255 129.79 260.503 128.672 271.259 126.345C280.211 124.405 288.066 122.757 288.72 122.708C289.372 122.641 291.11 122.387 292.579 122.123C294.837 121.699 295.115 121.778 294.367 122.541ZM283.966 126.228C283.415 126.331 283.207 126.224 283.503 125.986C283.795 125.731 284.243 125.626 284.498 125.76C284.752 125.895 284.513 126.107 283.966 126.228ZM254.959 111.897C254.055 112.806 252.31 113.218 250.657 112.918C249.789 112.756 250.361 112.458 252.557 111.922C254.581 111.414 255.434 111.402 254.959 111.897ZM259.917 146.32C259.461 146.426 259.25 146.319 259.445 146.062C259.642 145.821 260.013 145.729 260.272 145.862C260.53 145.997 260.372 146.213 259.917 146.32ZM249.753 117.898C247.66 118.4 244.871 118.853 243.558 118.919C241.431 119.007 241.587 118.913 244.966 118.07C247.057 117.551 249.846 117.097 251.165 117.066C253.338 117.006 253.206 117.078 249.753 117.898ZM253.564 130.648C252.927 130.8 252.64 130.705 252.932 130.468C253.221 130.212 253.744 130.096 254.089 130.182C254.437 130.285 254.198 130.478 253.564 130.648ZM252.467 148.078C251.919 148.199 251.71 148.091 252.004 147.836C252.297 147.58 252.747 147.492 253.001 147.628C253.257 147.763 253.014 147.957 252.467 148.078ZM248.744 147.926C248.941 147.686 249.313 147.594 249.572 147.727C249.829 147.861 249.669 148.061 249.214 148.167C248.759 148.273 248.547 148.167 248.744 147.926ZM249.275 151.686C248.548 151.87 247.542 151.869 247.037 151.669L246.12 151.323L246.941 151.091C247.394 150.967 248.4 150.967 249.18 151.108L250.597 151.358L249.275 151.686ZM232.303 159.352C231.755 159.472 231.547 159.365 231.84 159.109C232.133 158.854 232.583 158.766 232.838 158.901C233.093 159.036 232.851 159.231 232.303 159.352ZM171.884 131.727C171.428 131.833 171.217 131.727 171.414 131.486C171.608 131.229 171.98 131.135 172.241 131.287C172.499 131.421 172.338 131.621 171.884 131.727ZM144.29 133.349C143.835 133.456 143.624 133.349 143.821 133.109C144.015 132.851 144.389 132.776 144.648 132.909C144.906 133.044 144.745 133.244 144.29 133.349ZM119.788 134.943C119.332 135.049 119.122 134.943 119.318 134.702C119.512 134.445 119.887 134.369 120.145 134.503C120.404 134.637 120.243 134.838 119.788 134.943ZM115.691 135.13C112.964 135.783 105.506 135.953 106.782 135.334C107.221 135.126 107.666 134.951 107.771 134.952C107.876 134.953 109.477 134.808 111.331 134.641C113.184 134.473 115.484 134.393 116.439 134.453C118.065 134.549 118.017 134.591 115.691 135.13ZM103.004 137.462C102.185 137.661 101.828 137.611 102.21 137.342C102.594 137.09 103.262 136.915 103.7 136.987C104.137 137.058 103.823 137.265 103.004 137.462ZM98.5351 138.003C97.5503 138.262 97.3169 137.967 97.9256 137.242C98.1363 136.983 98.5654 137.003 98.8757 137.269C99.2893 137.641 99.1978 137.847 98.5351 138.003ZM96.5676 137.018C96.0731 137.462 95.0727 137.968 94.3455 138.151C93.1801 138.438 93.112 138.396 93.7534 137.685C94.2994 137.075 94.1243 137.05 93.0466 137.569C92.0296 138.077 91.7247 138.037 91.9987 137.47C92.4458 136.527 94.9334 135.771 94.8276 136.591C94.7899 136.911 95.3668 136.943 96.1129 136.688C97.3459 136.25 97.3857 136.278 96.5676 137.018ZM87.3012 137.138C87.2514 137.548 87.1444 137.896 87.0628 137.909C86.9839 137.938 86.8673 137.642 86.806 137.268C86.7423 136.876 86.8489 136.528 87.0444 136.498C87.2368 136.45 87.3509 136.729 87.3012 137.138ZM85.1326 137.548C84.677 137.654 84.4663 137.547 84.6632 137.307C84.8602 137.066 85.2317 136.973 85.4901 137.107C85.7486 137.241 85.5884 137.441 85.1326 137.548ZM170.273 107.874C169.736 108.027 169.389 107.837 169.443 107.41C169.493 107 169.219 106.746 168.834 106.841C168.449 106.936 168.276 107.295 168.45 107.652C168.804 108.365 168.346 108.664 167.881 108.02C167.173 107.048 167.5 106.455 168.907 106.114C169.736 105.914 170.378 106.058 170.33 106.415C170.284 106.789 170.462 107.215 170.721 107.35C170.98 107.483 170.779 107.725 170.273 107.874ZM157.004 110.21C147.438 112.35 145.185 112.668 139.024 112.776C137.892 112.795 133.449 113.542 129.151 114.441C122.674 115.784 112.872 117.632 110.799 117.885C110.522 117.928 109.198 117.873 107.857 117.769C106.515 117.664 105.231 117.62 105.001 117.655C104.773 117.708 104.556 117.568 104.518 117.33C104.481 117.108 103.739 117.067 102.866 117.222C100.153 117.733 95.1805 117.968 94.7618 117.614C94.2917 117.198 94.3513 117.206 91.3376 117.275C89.5881 117.305 88.8557 117.018 88.3955 116.094C88.0602 115.429 87.5602 114.931 87.2867 115.009C86.8502 115.113 86.8631 115.197 87.3804 115.658C88.7458 116.86 87.395 117.106 82.3257 116.553C75.2172 115.778 72.1166 115.091 72.2158 114.29C72.3317 113.346 78.6957 112.753 79.6627 113.599C80.4801 114.309 82.7796 115.016 83.1767 114.691C83.4286 114.477 91.935 113.776 93.4546 113.836C94.0276 113.869 95.9819 113.755 97.7995 113.594C100.305 113.377 101.145 113.543 101.265 114.275C101.382 114.989 101.126 115.205 100.281 115.092C98.274 114.847 96.1902 115.155 96.5643 115.656C97.1183 116.39 103.065 116.107 103.313 115.334C103.44 114.93 103.195 114.724 102.71 114.8C101.938 114.921 101.942 114.885 102.752 114.113C103.249 113.633 103.89 113.48 104.272 113.77C104.631 114.028 106.061 114.154 107.446 114.043C108.83 113.931 110.758 113.962 111.725 114.09C112.694 114.235 115.151 114.114 117.183 113.814C119.217 113.531 123.465 113.006 126.622 112.653C131.856 112.079 134.195 111.766 143.454 110.424C145.116 110.181 150.374 109.238 155.137 108.335C160.46 107.312 163.919 106.928 164.119 107.333C164.297 107.69 164.794 107.682 165.225 107.335C165.654 106.971 166.333 106.952 166.73 107.275C167.253 107.699 164.547 108.506 157.004 110.21ZM152.087 124.271C151.45 124.423 151.167 124.344 151.458 124.107C151.748 123.852 152.27 123.736 152.615 123.822C152.963 123.924 152.724 124.119 152.087 124.271ZM149.279 124.972C148.731 125.092 148.523 124.986 148.815 124.73C149.109 124.474 149.558 124.387 149.813 124.521C150.068 124.657 149.829 124.869 149.279 124.972ZM147.23 125.467C147.073 125.439 145.571 125.535 143.894 125.691L140.845 125.975L143.865 125.119C145.597 124.639 147.022 124.539 147.202 124.895C147.378 125.252 147.39 125.511 147.23 125.467ZM138.304 126.215C137.849 126.322 137.638 126.215 137.832 125.958C138.029 125.717 138.401 125.624 138.659 125.758C138.92 125.909 138.76 126.109 138.304 126.215ZM129.802 115.438C129.411 115.499 129.306 115.358 129.534 115.078C129.74 114.819 130.029 114.774 130.178 114.978C130.325 115.182 130.155 115.383 129.802 115.438ZM256.549 63.5752C254.89 63.6601 253.401 63.5427 253.237 63.3064C252.792 62.6428 259.143 62.1566 259.917 62.7869C260.676 63.4015 260.958 63.3402 256.549 63.5752ZM315.254 94.0534C315.462 93.8106 315.752 93.7653 315.899 93.969C316.044 94.1566 315.877 94.3742 315.524 94.4294C315.133 94.4905 315.028 94.3497 315.254 94.0534ZM318.233 93.3431C318.439 93.0842 318.728 93.039 318.875 93.2426C319.023 93.447 318.856 93.6648 318.502 93.72C318.109 93.7642 318.004 93.6234 318.233 93.3431ZM323.292 92.8667C323.487 92.6096 323.858 92.5164 324.119 92.6679C324.378 92.8018 324.217 93.0019 323.761 93.1075C323.306 93.2138 323.095 93.1077 323.292 92.8667ZM337.023 105.289C337.217 105.032 337.592 104.956 337.85 105.09C338.109 105.224 337.948 105.424 337.493 105.53C337.037 105.636 336.826 105.53 337.023 105.289ZM339.284 105.442C339.573 105.187 340.096 105.071 340.441 105.157C340.789 105.26 340.55 105.455 339.913 105.606C339.276 105.758 338.992 105.679 339.284 105.442ZM344.332 115.955C347.967 114.619 348.991 114.476 348.709 115.376C348.513 116 342.722 117.814 341.541 117.631C340.657 117.49 341.449 117.001 344.332 115.955ZM341.55 105.63C341.747 105.39 342.119 105.297 342.378 105.431C342.636 105.565 342.475 105.765 342.02 105.871C341.564 105.977 341.354 105.871 341.55 105.63ZM344.664 112.009C345.01 112.112 344.693 112.318 343.965 112.485C343.235 112.65 342.953 112.572 343.34 112.32C343.723 112.05 344.318 111.905 344.664 112.009ZM354.102 121.87C354.675 121.902 355.512 121.893 355.96 121.841C357.916 121.588 356.151 122.878 351.921 124.761C346.373 127.235 346.812 127.114 346.118 126.488C345.807 126.223 345.11 126.261 344.571 126.59C343.935 126.987 343.397 126.879 343.031 126.29C342.549 125.509 342.875 125.197 345.269 124.107C348.181 122.76 352.301 121.715 354.102 121.87ZM333.689 148.8C334.445 148.577 334.901 148.715 334.845 149.161C334.743 149.997 334.644 150.012 333.356 149.515C332.542 149.206 332.581 149.131 333.689 148.8ZM342.087 194.372C341.087 194.615 340.657 194.595 341.132 194.311C341.605 194.027 342.424 193.83 342.951 193.87C343.478 193.909 343.091 194.145 342.087 194.372ZM341.264 145.817C343.323 145.391 345.092 145.323 345.193 145.657C345.293 145.991 344.239 146.644 342.846 147.089C341.342 147.569 340.269 147.631 340.205 147.24C340.143 146.865 339.513 146.561 338.805 146.568C338.097 146.574 339.202 146.227 341.264 145.817ZM344.413 148.958C344.023 149.019 343.916 148.862 344.144 148.581C344.35 148.322 344.641 148.294 344.786 148.481C344.934 148.685 344.768 148.903 344.413 148.958ZM342.315 148.745C341.924 148.806 341.82 148.665 342.045 148.368C342.254 148.126 342.543 148.08 342.691 148.285C342.836 148.472 342.668 148.69 342.315 148.745ZM340.512 149.115C340.06 149.237 339.846 149.114 340.043 148.873C340.24 148.633 340.611 148.54 340.87 148.673C341.128 148.808 340.968 149.007 340.512 149.115ZM347.592 145.615C347.88 145.359 348.403 145.243 348.748 145.329C349.096 145.433 348.857 145.626 348.22 145.778C347.583 145.93 347.299 145.852 347.592 145.615ZM350.094 145.013C350.3 144.754 350.588 144.709 350.737 144.913C350.884 145.117 350.714 145.318 350.361 145.373C349.969 145.435 349.865 145.294 350.094 145.013ZM352.35 144.748C353.125 143.928 358.123 142.902 359.588 143.232C360.635 143.488 360.585 143.565 359.069 143.994C358.145 144.243 356.535 144.809 355.492 145.252C354.447 145.678 353.18 145.876 352.677 145.692C351.824 145.372 351.802 145.304 352.35 144.748ZM355.034 131.752L357.562 130.797C360.287 129.778 363.814 129.435 363.384 130.237C362.778 131.345 362.051 131.563 358.631 131.661L355.034 131.752ZM360.065 152.992C359.612 153.116 359.398 152.993 359.596 152.751C359.792 152.511 360.164 152.419 360.423 152.552C360.681 152.687 360.52 152.886 360.065 152.992ZM363.076 148.731C363.61 148.124 366.924 146.924 368.505 146.782C369.129 146.737 369.129 146.789 368.528 147.53C368.171 147.987 366.667 148.589 365.188 148.873C363.595 149.192 362.736 149.134 363.076 148.731ZM210.029 224.881C210.205 225.238 210.497 225.489 210.678 225.443C210.86 225.397 210.889 225.113 210.743 224.822C210.179 223.687 218.737 222.664 229.938 222.538C232.202 222.498 237.271 221.793 241.203 220.969C255.815 217.864 256.806 217.727 269.277 217.035C271.526 216.91 274.05 216.726 274.885 216.631C275.721 216.535 278.026 215.965 280.007 215.358C281.992 214.769 291.262 212.306 300.609 209.903C315.081 206.156 328.714 201.982 324.867 202.443C322.895 202.682 323.786 201.879 327.868 199.755C330.64 198.292 333.036 197.533 336.006 197.139C338.322 196.847 341.796 196.321 343.724 195.968C345.653 195.614 349.652 194.989 352.608 194.562C357.9 193.805 358.957 193.395 367.668 188.871C372.743 186.226 376.008 183.097 375.695 181.189C375.477 179.861 374.467 180.088 372.611 181.898C371.827 182.649 370.709 183.383 370.127 183.526C369.546 183.67 367.727 184.566 366.084 185.504C363.45 187.033 363.296 187.197 364.779 186.983L366.456 186.721L364.229 188.187C359.34 191.413 347.027 195.155 347.252 193.355C347.306 192.928 349.411 192.091 352.357 191.335C357.423 190.054 364.031 187.571 362.141 187.675C361.23 187.729 361.269 187.619 362.496 186.693C363.253 186.121 363.97 185.345 364.086 184.96C364.203 184.575 364.602 184.18 364.975 184.088C365.41 183.985 365.48 183.765 365.171 183.481C364.596 182.977 360.749 183.945 352.193 186.784L345.832 188.896L346.203 187.354C346.502 186.102 347.058 185.648 349.125 184.941C350.915 184.329 351.805 183.684 352.103 182.781C352.338 182.08 353.356 180.943 354.367 180.279C355.462 179.548 356.363 178.447 356.597 177.536C356.812 176.7 357.123 175.97 357.292 175.943C357.607 175.86 359.291 172.574 359.89 170.857C360.081 170.32 361.47 169.352 362.981 168.731C367.117 167.019 368.462 166.127 369.51 164.445C370.31 163.149 371.422 162.626 376.546 161.213C381.907 159.712 387.04 157.338 387.361 156.205C387.532 155.601 386.321 156.035 384.469 157.233C382.194 158.689 373.435 161.333 373.536 160.514C373.579 160.157 373.866 159.798 374.174 159.733C374.481 159.65 375.084 159.031 375.512 158.336C375.94 157.639 376.459 157.035 376.666 156.985C377.438 156.76 378.219 153.965 377.816 152.857C377.443 151.833 377.373 151.861 376.761 153.11C376.399 153.847 375.994 154.312 375.857 154.125C375.344 153.418 375.6 150.811 376.198 150.683C376.538 150.594 376.863 150.16 376.919 149.714C377.018 148.912 376.857 148.973 373.59 151.055C373.119 151.355 372.37 151.734 371.928 151.926C371.484 152.1 371.071 152.602 371.011 153.048C370.946 153.512 370.103 153.923 368.984 154.064C367.929 154.176 366.931 154.647 366.764 155.11C366.596 155.555 365.236 156.344 363.741 156.858C362.244 157.354 360.378 158.099 359.593 158.501C358.481 159.077 358.364 159.06 359.064 158.426C359.584 157.944 359.702 157.627 359.345 157.666C358.648 157.74 357.289 156.083 357.485 155.407C357.553 155.152 358.577 154.625 359.759 154.231C360.941 153.836 362.038 153.176 362.197 152.767C362.358 152.375 363.232 151.854 364.137 151.608C367.658 150.673 370.031 148.747 369.752 147.045C369.704 146.755 369.996 146.412 370.398 146.262C371.69 145.781 367.033 145.653 364.263 146.086C359.298 146.879 359.156 146.868 359.784 146.035C360.097 145.636 360.812 145.158 361.377 145C361.941 144.824 362.523 144.139 362.669 143.453C362.91 142.35 363.746 142.079 370.987 140.79C377.021 139.707 379.222 139.084 379.782 138.298C380.597 137.157 380.61 136.893 379.924 135.533C379.63 134.95 378.551 134.664 376.961 134.738C375.587 134.813 374.973 134.682 375.601 134.478C376.461 134.187 376.593 133.957 376.138 133.556C375.627 133.095 375.623 132.694 376.116 130.957C376.648 129.075 376.928 128.838 379.413 128.171C381.41 127.649 382.13 127.186 382.128 126.471C382.125 125.668 381.737 125.659 380.082 126.406C378.962 126.93 376.511 127.907 374.638 128.602C370.919 129.987 370.004 130.706 372.841 130.053C373.826 129.812 374.893 129.855 375.21 130.137C376.21 131.029 373.841 132.115 370.935 132.114C369.462 132.101 367.607 132.513 366.81 133.004C364.789 134.245 361.916 134.921 361.796 134.188C361.744 133.865 362.002 133.318 362.375 132.997C362.748 132.677 363.516 131.196 364.083 129.708L365.113 127.015L361.254 128.194C359.134 128.857 356.308 129.858 354.975 130.416C352.875 131.321 352.582 131.629 352.769 132.77C352.951 133.876 353.247 134.039 354.665 133.766C355.591 133.604 356.826 133.55 357.415 133.686L358.485 133.92L357.398 134.631C355.808 135.683 352.234 136.487 350.772 136.104C350.075 135.934 347.533 136.034 345.124 136.341C342.715 136.647 340.133 136.946 339.39 137.027C338.646 137.108 335.69 137.483 332.82 137.862C329.953 138.258 327.535 138.478 327.454 138.386C327.373 138.294 327.351 137.826 327.41 137.379C327.48 136.792 329.364 136.131 333.535 135.2C339.535 133.861 347.518 131.058 352.558 128.506C356.705 126.408 363.079 122.285 363.305 121.552C363.422 121.184 363.01 121.196 362.367 121.594C360.751 122.579 360.839 121.815 362.543 120.029C363.337 119.189 364.093 118.023 364.22 117.41C364.523 116.017 364.031 116.146 362.99 117.759C361.727 119.685 359.446 120.688 357.609 120.12C355.835 119.576 355.564 118.465 357.112 118.084C358.252 117.819 358.208 116.952 356.973 115.258C356.486 114.601 356.059 113.882 356.025 113.677C355.989 113.456 357.13 113.102 358.56 112.879C363.35 112.114 369.875 110.045 369.758 109.331C369.696 108.955 369.287 108.74 368.847 108.844C368.407 108.948 367.947 108.74 367.824 108.375C367.682 107.96 366.896 108.171 365.575 108.989C363.556 110.247 356.359 111.582 352.72 111.347C351.076 111.255 351.032 111.209 351.89 110.482C352.387 110.054 353.233 109.276 353.769 108.755C354.537 108.024 354.958 108.01 355.728 108.712C357.012 109.89 357.075 109.846 357.113 107.709C357.135 106.517 357.463 105.68 358.084 105.251C359.096 104.533 359.361 103.671 358.869 102.682C358.67 102.276 358.395 102.372 358.105 102.942C357.772 103.587 356.461 103.775 353.167 103.661C350.697 103.558 347.873 103.527 346.89 103.594C345.906 103.643 345.063 103.46 345.015 103.171C344.965 102.864 343.145 102.851 340.966 103.122C338.788 103.393 336.161 103.629 335.131 103.667C334.101 103.706 333.42 103.952 333.616 104.218C334.008 104.751 334.187 104.793 335.47 104.61C335.944 104.553 336.296 104.778 336.256 105.133C336.212 105.471 335.422 105.665 334.498 105.548C333.576 105.447 331.459 105.376 329.796 105.409C327.574 105.458 326.104 105.024 324.254 103.829C321.308 101.897 317.663 100.702 315.503 100.969C315.179 101.02 315.119 100.715 315.25 99.6814C315.6 96.954 318.546 95.5501 325.106 95.0143C328.372 94.7476 332.444 94.3215 334.154 94.0544C335.862 93.7873 338.375 93.5345 339.737 93.4959C342.762 93.4249 347.615 91.6877 347.45 90.7537C347.383 90.3795 348.31 89.6757 349.511 89.191C352.012 88.1717 351.707 87.4852 348.771 87.508C345.677 87.5194 345.209 86.7014 347.862 85.9202L350.156 85.2301L347.361 85.4574C345.822 85.5753 344.321 85.3386 344.027 84.9483C343.604 84.3671 343.694 84.1264 344.45 83.8864C344.978 83.6991 344.081 83.4717 342.452 83.3433C340.826 83.2301 338.076 82.9783 336.341 82.7782C334.605 82.5781 331.791 82.4066 330.089 82.4107C325.748 82.4075 323.036 82.1677 323.874 81.8623C324.264 81.7139 324.62 81.3089 324.662 80.9528C324.749 80.2585 322.442 80.2345 316.936 80.8502C314.988 81.0844 313.292 81.1228 313.169 80.9504C312.856 80.5101 326.873 78.127 331.406 77.8556C336.239 77.5543 345.512 75.3366 345.622 74.4634C345.668 74.0896 345.078 73.5002 344.312 73.1658L342.92 72.5626L345.759 71.0003L343.92 71.3228C342.909 71.4981 341.433 71.4676 340.642 71.259C339.107 70.8516 338.318 70.8883 329.395 71.8819C320.114 72.8954 320.784 72.0223 330.886 69.9368C337.369 68.6093 340.243 67.7756 340.162 67.2817C340.095 66.8731 339.126 66.3953 338.01 66.2212C336.891 66.0294 334.917 65.5517 333.621 65.1429C332.326 64.7512 329.669 64.5896 327.721 64.8244C325.771 65.0417 322.861 65.2345 321.254 65.241C319.648 65.2481 316.49 65.3399 314.235 65.4305C311.982 65.5379 309.571 65.4598 308.878 65.2718C308.188 65.1007 305.284 65.3278 302.428 65.7913C296.374 66.772 293.094 66.7257 291.537 65.6244C290.923 65.1787 289.752 64.7849 288.93 64.7218C286.056 64.5253 286.953 63.5799 290.531 63.0207C302.685 61.1212 303.691 61.0343 304.226 61.8942C304.524 62.3722 304.936 62.726 305.141 62.6768C305.344 62.6106 305.24 62.3299 304.905 62.0148C303.942 61.1521 307.634 60.4877 310.808 60.9703C312.55 61.2389 314.25 61.0607 315.404 60.4959C316.52 59.9369 317.276 59.8538 317.343 60.2631C317.405 60.638 319.415 60.8648 321.815 60.7868C324.211 60.6914 327.482 60.582 329.08 60.5245C330.678 60.467 334.142 59.8734 336.777 59.2176L341.564 57.9972L337.321 58.5204C334.987 58.7977 332.29 58.8699 331.327 58.6709C330.364 58.4719 328.181 58.2894 326.473 58.2593C324.766 58.2291 323.181 57.9539 322.95 57.6397C322.402 56.9045 323.195 56.7463 328.353 56.6382C331.19 56.5793 333.241 56.1884 334.686 55.4045C335.861 54.7667 337.202 54.2069 337.663 54.1348C340.093 53.8075 344.018 52.6359 344.26 52.1611C344.808 51.0976 342.267 49.5561 340.036 49.5889C338.422 49.6145 337.946 49.427 338.356 48.9259C338.78 48.4227 338.583 48.3307 337.61 48.5704C336.883 48.7544 335.646 48.7546 334.86 48.5812C333.876 48.3684 335.089 47.9694 338.778 47.3052C341.721 46.7929 344.01 46.1904 343.865 45.9684C343.723 45.764 340.133 46.3423 335.885 47.2329C330.192 48.454 328.063 48.6827 327.773 48.0989C327.394 47.3373 322.281 46.7567 314.241 46.5806C312.153 46.5402 307.267 46.9019 303.384 47.3862C299.501 47.8711 296.214 48.1753 296.079 48.0565C295.945 47.9375 293.43 48.2258 290.493 48.7022C287.555 49.1785 284.506 49.4111 283.721 49.2368C282.933 49.0449 281.918 48.9939 281.463 49.1003C280.788 49.2574 280.747 49.4036 281.251 49.9019C281.842 50.4903 278.337 51.1257 273.65 51.2994C272.445 51.3477 272.268 51.4629 272.957 51.7571C274.52 52.439 226.305 64.3232 196.922 70.4883C181.53 73.7146 164.66 77.5566 161.345 78.582C159.255 79.2229 160.56 80.2416 162.789 79.7189C163.928 79.4361 165.086 79.5349 165.374 79.9268C165.722 80.4134 167.826 80.2598 171.651 79.5049C174.814 78.8705 178.394 78.2594 179.603 78.1392C185.982 77.4565 199.776 75.1614 208.731 73.2897C226.492 69.5712 244.841 66.3713 247.187 66.5986C248.436 66.7176 251.666 66.5975 254.363 66.3158C257.059 66.0336 259.807 65.7964 260.467 65.7809C261.126 65.7646 253.866 67.7381 244.336 70.1881C201.345 81.2387 158.108 90.5296 142.841 92.0075C138.932 92.3917 133.616 93.0123 131.034 93.4158C128.449 93.8026 125.397 94.0701 124.249 93.9877C123.097 93.8878 120.867 93.9745 119.288 94.1509C117.709 94.3273 115.102 94.4736 113.495 94.4802C111.888 94.4866 109.575 94.5332 108.353 94.5843C104.96 94.748 103.541 94.7078 101.615 94.3975C99.019 93.9825 87.1706 95.0127 82.9647 96.0195C80.9615 96.4905 77.1637 96.9261 74.523 96.9722C68.8265 97.0761 69.1991 97.0179 69.3333 97.8357C69.5957 99.437 75.885 99.5367 84.8511 98.0831C89.687 97.2921 97.9324 96.8422 102.233 97.1127C107.21 97.4363 120.465 96.7092 129.331 95.6205C132.853 95.1749 137.944 94.6067 140.644 94.3419C145.204 93.873 161.167 91.0295 180.904 87.1232C190.904 85.1586 229.145 76.7195 248.953 72.1212C259.498 69.6867 263.409 69.006 264.001 69.5068C264.769 70.1552 264.768 70.1912 263.99 70.4872C262.768 70.9571 266.382 71.1264 268.671 70.7163C271.242 70.2441 272.865 71.0043 270.719 71.6719C262.933 74.1114 252.416 77.0129 245.875 78.5245C238.125 80.3299 235.874 80.8739 232.151 81.8748C231.153 82.1355 229.882 82.4037 229.326 82.4742C228.767 82.5264 225.327 83.2564 221.68 84.0883C210.309 86.669 185.284 91.5228 184.512 91.2941C184.213 91.2016 177.981 92.3672 170.666 93.8951C150.53 98.0725 119.686 101.81 118.871 100.173C118.631 99.6864 117.939 99.7593 116.767 100.362C115.787 100.882 114.892 101.022 114.73 100.698C114.569 100.374 113.796 100.233 113.013 100.389C112.232 100.564 108.654 100.721 105.066 100.758C98.9622 100.804 91.4564 101.261 87.1814 101.806C86.1641 101.949 83.4874 102.14 81.2375 102.263C74.4573 102.59 72.8203 102.706 70.3557 103.021C69.0593 103.189 67.4438 103.25 66.7652 103.145L65.5354 102.988L66.5469 103.913C67.1024 104.42 67.2688 104.726 66.9153 104.588C66.5645 104.469 66.3201 104.629 66.3732 104.953C66.4233 105.259 67.3092 105.47 68.3373 105.396C70.4047 105.266 70.7732 105.522 70.7418 107.1C70.7259 107.923 70.1218 108.315 68.1671 108.795C66.7592 109.119 65.3365 109.22 65.0001 108.993C64.6634 108.766 63.0084 109.129 61.3229 109.812C59.635 110.477 58.8202 110.936 59.5123 110.828C60.5304 110.686 60.8141 110.904 60.9985 112.028C61.161 113.016 61.4427 113.339 62.0291 113.195C62.474 113.09 62.9802 113.29 63.1554 113.647C63.3313 114.004 63.7996 114.21 64.1985 114.113C64.5969 114.016 66.0616 114.276 67.4561 114.705C70.9423 115.767 77.3433 117.02 82.3785 117.613C88.6697 118.359 89.5653 118.673 86.3946 119.03C83.5887 119.346 80.2359 119.38 76.1206 119.099C74.7998 119.007 72.1197 119.182 70.1656 119.488C66.3387 120.069 61.8517 120.228 58.0752 119.927C55.6443 119.713 55.1706 120.084 54.0886 122.926C53.7782 123.743 53.8033 124.577 54.1815 125.951C54.688 127.776 54.6661 127.831 53.2718 128.189C52.2247 128.44 52.003 128.684 52.4453 129.086C52.7782 129.383 53.8082 129.45 54.7345 129.235C55.6604 129.02 56.5566 129.038 56.7221 129.256C57.2937 130.04 59.7884 130.873 60.8457 130.62C61.4287 130.494 62.0326 130.644 62.1877 130.951C62.3417 131.259 63.8838 131.402 65.6133 131.272C67.3407 131.125 69.3691 130.983 70.1177 130.934C72.4046 130.804 77.271 131.057 78.9624 131.386C81.5626 131.906 83.9586 132.142 85.7811 132.067C86.7222 132.042 89.1093 131.966 91.0874 131.919C94.2852 131.856 104.303 130.64 112.334 129.349C113.9 129.088 116.875 128.831 118.946 128.77C121.017 128.709 125.723 128.148 129.401 127.503C133.081 126.875 136.223 126.612 136.382 126.918C136.699 127.533 138.73 127.32 148.196 125.718C152.509 124.991 154.203 124.5 153.777 124.094C153.318 123.641 153.587 123.408 154.828 123.161C156.279 122.882 156.377 122.937 155.588 123.602C154.809 124.265 154.914 124.319 156.342 124.008C157.55 123.732 157.796 123.519 157.243 123.204C156.502 122.778 156.503 122.778 157.183 122.568C157.564 122.438 158.139 122.767 158.459 123.276C158.778 123.786 159.426 124.086 159.897 123.925L160.755 123.651L159.839 123.305C159.138 123.03 159.368 122.819 160.812 122.419C161.853 122.135 162.751 122.187 162.81 122.544C162.871 122.919 163.725 122.873 164.772 122.448C166.04 121.935 166.505 121.949 166.239 122.48C165.973 123.011 166.684 123.039 168.483 122.531C170.908 121.855 170.978 121.792 169.383 121.727L167.65 121.648L169.554 121.071C170.886 120.688 171.429 120.761 171.357 121.331C171.286 121.901 171.657 121.965 172.578 121.559C173.306 121.235 173.928 121.121 173.961 121.326C174.06 121.922 179.12 120.502 179.473 119.783C179.842 119.045 186.098 117.734 186.204 118.381C186.242 118.62 184.811 119.088 183.026 119.455L179.776 120.085L182.606 119.87C184.735 119.712 185.591 119.928 186.058 120.762C186.835 122.144 187.205 122.104 186.694 120.699C186.343 119.74 187.074 119.521 194.8 118.156C199.468 117.322 204.382 116.414 205.714 116.101C207.867 115.625 208.147 115.704 208.188 116.815C208.228 117.927 208.572 118.013 211.464 117.525C213.237 117.213 209.182 118.301 202.45 119.93C195.718 121.558 190.971 122.579 191.906 122.223C192.838 121.851 193.555 121.267 193.499 120.926C193.443 120.585 192.453 120.74 191.238 121.297C188.198 122.663 176.976 125.359 169.812 126.444C166.49 126.946 161.506 127.707 158.741 128.139C155.974 128.572 153.174 128.957 152.517 128.99C151.863 129.04 148.854 129.44 145.829 129.877C142.512 130.361 140.473 130.4 140.685 129.965C140.951 129.452 140.861 129.308 140.335 129.427C139.946 129.505 139.103 129.549 138.455 129.493C137.541 129.425 137.45 129.511 138.05 129.906C138.67 130.298 138.544 130.458 137.397 130.776C136.617 131.003 135.596 130.901 135.128 130.554C134.659 130.209 132.976 130.244 131.378 130.651C129.781 131.04 128.347 131.108 128.192 130.8C128.032 130.475 127.215 130.586 126.375 131.049C125.533 131.495 123.846 131.758 122.627 131.634C119.876 131.331 108.953 131.675 99.9296 132.352C96.1909 132.622 91.3367 132.944 89.1447 133.077C86.9498 133.193 84.6593 133.62 84.0559 134.029C83.4522 134.438 82.915 134.505 82.862 134.182C82.8092 133.858 81.2747 134.044 79.4541 134.609C76.6053 135.491 76.1498 135.807 76.1905 136.901C76.2308 137.977 76.0232 138.133 74.7668 137.944C73.3033 137.719 69.9832 138.307 70.6986 138.668C71.206 138.92 81.8168 138.991 84.9898 138.774C86.3902 138.66 88.0485 138.628 88.6703 138.671C89.2942 138.713 89.7523 138.45 89.6908 138.075C89.6316 137.718 89.1503 137.372 88.6233 137.334C88.0995 137.311 88.4831 137.058 89.4839 136.814C90.4816 136.554 91.0616 136.551 90.7722 136.805C90.213 137.294 90.2156 138.255 90.7797 138.742C90.9675 138.905 93.939 138.86 97.3836 138.636C100.828 138.412 103.927 138.294 104.269 138.364C104.638 138.445 104.828 138.101 104.734 137.523C104.627 136.876 104.839 136.598 105.37 136.69C105.81 136.778 108.054 136.776 110.356 136.679C112.66 136.598 114.595 136.837 114.656 137.212C114.729 137.655 115.635 137.531 117.099 136.901C118.383 136.368 119.277 136.21 119.088 136.572C118.894 136.952 120.359 137.055 122.505 136.825C124.57 136.589 126.388 136.147 126.545 135.844C126.71 135.521 126.789 135.631 126.729 136.094C126.666 136.628 127.149 136.902 128.094 136.877C128.901 136.872 126.408 137.454 122.557 138.196C118.706 138.937 115.09 139.537 114.523 139.539C113.958 139.557 110.284 139.8 106.362 140.115C102.439 140.414 97.2944 140.659 94.9274 140.645C92.5634 140.648 88.1674 140.74 85.1609 140.862C82.1568 141 78.0548 140.994 76.0482 140.871C74.0415 140.748 72.1094 140.718 71.7542 140.809C71.3995 140.899 70.8897 140.716 70.6227 140.409C70.3552 140.101 69.3811 139.87 68.4606 139.909C67.5403 139.948 67.0736 140.072 67.4271 140.209C67.7775 140.329 68.1199 140.765 68.1841 141.156C68.2564 141.599 68.6721 141.622 69.2436 141.218C69.8275 140.813 70.1496 140.832 70.0955 141.295C70.0444 141.687 70.3164 141.976 70.6988 141.934C73.9266 141.569 77.5586 141.857 77.4833 142.463C77.4387 142.802 77.7479 143.015 78.1689 142.915C78.8859 142.751 84.7597 142.427 87.8216 142.402C88.5756 142.389 90.0427 142.369 91.0768 142.331C92.1133 142.308 94.9668 142.247 97.4232 142.23C106.743 142.136 114.124 141.401 122.649 139.719C132.537 137.772 138.48 136.756 148.066 135.397C151.671 134.886 158.311 133.849 162.819 133.075C168.321 132.144 170.276 131.996 168.762 132.617C166.781 133.433 167.037 133.463 170.861 132.831C173.256 132.439 175.521 131.805 175.893 131.416C176.266 131.026 176.542 130.965 176.504 131.268C176.467 131.571 178.774 131.298 181.627 130.641C184.483 130.004 189.524 129.076 192.83 128.594C197.292 127.931 198.749 127.529 198.481 126.994C198.212 126.443 198.392 126.397 199.161 126.765C199.825 127.098 201.371 126.805 203.404 125.998C206.092 124.931 206.586 124.889 206.487 125.76C206.384 126.615 206.427 126.608 206.767 125.699C207.028 125.013 207.409 124.795 207.85 125.093C208.744 125.669 222.62 122.33 222.495 121.564C222.44 121.223 222.691 121.306 223.046 121.705C223.541 122.291 223.861 122.241 224.378 121.514C224.751 120.984 225.162 120.763 225.29 121.022C225.418 121.281 226.846 121.251 228.46 120.945C230.541 120.568 231.591 120.666 232.064 121.325C232.652 122.124 232.635 122.249 231.921 122.482C229.146 123.37 220.898 125.026 220.586 124.76C219.983 124.226 219.016 125.512 219.195 126.602C219.284 127.147 219.252 127.659 219.122 127.732C218.995 127.822 213.471 129.296 206.848 131.012C196.272 133.766 191.342 134.711 175.84 136.976C173.901 137.262 169.303 138.015 165.623 138.644C161.943 139.271 158.826 139.689 158.701 139.603C158.475 139.411 151.256 140.347 146.265 141.197C142.682 141.792 133.573 142.657 129.16 142.805C127.092 142.884 123.789 143.033 121.822 143.148C115.077 143.574 113.566 143.496 113.919 142.811C114.115 142.414 113.539 142.417 112.558 142.797C111.62 143.153 110.75 143.254 110.618 142.978C110.489 142.719 109.003 142.846 107.312 143.233C105.624 143.636 103.99 143.839 103.677 143.661C103.366 143.5 100.785 143.799 97.9394 144.331C95.0948 144.862 92.4415 145.12 92.0436 144.903C91.5622 144.647 91.4342 144.735 91.6612 145.189C92.0526 145.984 87.9049 146.685 84.1875 146.462C79.3322 146.191 72.3253 146.639 71.9496 147.274C71.7187 147.677 71.0769 147.602 70.4019 147.131C69.6865 146.614 67.6899 146.473 65.1658 146.727C61.5801 147.095 60.1934 146.893 57.0329 145.517C56.2902 145.18 56.2902 145.18 57.1426 146.182C58.2869 147.522 60.7381 148.904 62.3544 149.122C63.3459 149.265 63.7285 149.641 63.896 150.663C64.0803 151.787 63.8659 152.083 62.5628 152.496L61.0115 153L62.6889 152.878C63.6105 152.804 64.594 153.139 64.8768 153.636C65.1596 154.133 66.7343 154.709 68.3774 154.923C71.7354 155.36 75.5438 156.231 76.8019 156.839C77.2635 157.064 79.7318 156.94 82.2869 156.558C90.8622 155.288 98.7079 154.41 101.82 154.361C107.839 154.276 112.802 154.059 114.688 153.834C115.739 153.705 117.817 153.642 119.31 153.706C120.802 153.77 124.231 153.6 126.934 153.353C129.636 153.105 132.54 152.878 133.386 152.85C134.233 152.823 136.443 152.617 138.302 152.414C147.482 151.345 152.919 151.405 148.328 152.506C147.007 152.817 146.54 153.17 146.79 153.672C147.04 154.175 146.749 154.378 145.797 154.317C145.055 154.275 142.191 154.636 139.433 155.12C133.002 156.23 125.806 156.831 118.228 156.897C114.922 156.924 108.263 157.372 103.429 157.882C98.5945 158.394 93.0054 158.76 91.0071 158.688C89.0091 158.616 87.1421 158.559 86.8632 158.585C86.5809 158.594 83.325 158.562 79.6284 158.51C75.9282 158.443 72.4381 158.394 71.8677 158.378C71.3004 158.38 68.9683 158.465 66.6842 158.56C64.4023 158.672 61.9882 158.577 61.3184 158.35C59.4387 157.735 43.5282 161.777 41.7962 163.305C40.3221 164.601 38.8723 167.954 39.1237 169.487C39.2215 170.083 39.3849 169.971 39.6658 169.123C39.8853 168.443 40.6245 167.209 41.3059 166.369C42.5175 164.87 42.5639 164.863 43.4887 166.132C44.2293 167.151 44.3774 167.636 44.1716 168.367C43.7636 169.793 43.9768 170.266 45.1376 170.486C45.7258 170.605 46.4575 171.259 46.7642 171.944C47.2173 172.956 47.6864 173.092 49.2942 172.718C50.3772 172.445 52.2204 172.628 53.3877 173.109C55.8968 174.132 60.7946 174.083 67.7221 172.948C70.4861 172.498 73.1324 172.119 73.6071 172.133C74.0825 172.146 74.6651 172.16 74.9043 172.175C75.5437 172.179 75.6209 173.372 75.0155 173.904C74.6821 174.182 74.822 174.3 75.3925 174.229C77.0003 173.978 77.0271 175.336 75.4207 175.727C74.5915 175.927 73.9559 176.358 74.0094 176.681C74.0648 177.022 73.4399 177.172 72.6088 177.058C70.5127 176.738 68.0132 177.374 67.9028 178.247C67.8531 178.656 66.9583 179.181 65.9176 179.431C64.7623 179.716 63.8151 180.372 63.4797 181.105C63.0372 182.1 62.6461 182.248 61.388 181.921C59.9609 181.567 55.0162 180.628 54.7822 180.682C54.7257 180.691 54.8454 181.039 55.0468 181.445C55.3183 181.996 54.964 182.156 53.7086 182.072C52.7732 182.027 51.6945 181.969 51.3115 181.941C50.9318 181.93 50.2638 181.633 49.8275 181.282C48.9079 180.552 44.8026 179.43 44.6749 179.869C44.63 180.05 45.2605 180.371 46.0805 180.61C47.3858 181 47.5315 181.187 47.2557 182.173C46.9395 183.271 44.9392 184.177 44.406 183.439C44.2542 183.236 42.7971 183.237 41.1671 183.439C39.54 183.658 37.6882 183.493 37.0567 183.103C36.2731 182.614 35.6188 182.629 35.0082 183.196L34.1083 184.001L35.484 184.781C36.24 185.204 37.0196 185.886 37.2141 186.275C37.8028 187.459 39.9167 188.35 42.2548 188.388C43.4699 188.407 44.6014 188.318 44.7662 188.169C45.3946 187.617 50.4727 188.36 50.5812 189.025C50.7907 190.302 49.1419 194.77 48.2059 195.475C47.6994 195.869 47.3198 196.4 47.3667 196.689C47.4116 196.961 47.2552 197.929 47.0213 198.856C46.7111 200.058 46.2062 200.608 45.199 200.853C43.3562 201.298 39.2046 200.602 35.5765 199.247C31.9967 197.902 30.0676 198.309 27.6751 200.867C24.818 203.915 24.6717 205.336 27.495 202.589C29.1477 200.986 32.9596 199.866 34.395 200.568C36.181 201.442 35.6514 202.433 33.07 203.046C30.6753 203.629 28.5311 205.572 28.7601 206.968C28.8104 207.275 29.628 207.304 30.5795 207.05C35.2684 205.829 46.0025 203.662 46.5619 203.836C46.9126 203.956 47.2881 204.597 47.4024 205.295C47.7407 207.356 47.0603 208.406 45.4308 208.346C43.1958 208.241 35.6457 209.631 35.9731 210.087C36.1304 210.306 37.3677 210.393 38.7269 210.302C41.1662 210.13 43.3623 211.447 43.3944 213.083C43.4214 214.547 42.1649 214.708 36.4389 213.944C35.6081 213.83 35.6258 213.879 36.7699 214.887C37.4346 215.465 38.4267 215.851 38.9775 215.764C39.5259 215.662 40.4824 215.844 41.1 216.149L42.2258 216.724L41.5163 217.639C41.125 218.137 39.4731 218.919 37.8443 219.366C35.8513 219.922 34.4118 220.741 33.44 221.871C32.5803 222.879 30.9413 223.904 29.3818 224.392C27.9427 224.843 26.6961 225.265 26.61 225.314C26.5261 225.379 27.0265 225.755 27.7232 226.153C29.5193 227.182 29.3524 228.624 27.3975 228.947C26.5279 229.1 25.8938 229.321 25.9895 229.446C26.0883 229.588 27.4297 229.972 28.9718 230.308C30.5758 230.651 31.9061 231.3 32.0842 231.83C32.276 232.394 32.1988 232.651 31.875 232.491C30.3834 231.782 29.7194 231.693 29.809 232.238C29.9627 233.175 33.4692 234.286 37.0984 234.558C38.8985 234.678 40.9674 235.106 41.6966 235.517C42.423 235.909 43.8708 236.242 44.9155 236.271C45.9578 236.283 47.9226 236.465 49.2834 236.689C50.6447 236.913 54.146 237.03 57.0635 236.941C59.9841 236.869 63.5356 236.819 64.9579 236.842C66.3836 236.881 68.7671 236.787 70.2587 236.659C74.3472 236.299 78.5988 236.438 80.8025 236.985C81.8871 237.252 83.8429 237.383 85.1535 237.3C86.464 237.218 88.1723 237.282 88.9541 237.474C89.8638 237.682 90.4728 237.535 90.652 237.035C90.9115 236.33 97.4956 236.297 98.3145 237.007C99.1554 237.731 117.353 237.961 124.022 237.321C125.699 237.164 128.778 237.067 130.868 237.125C136.53 237.235 145.011 236.294 158.395 234.045C159.406 233.87 162.052 233.491 164.274 233.197C167.523 232.759 167.777 232.667 165.568 232.697C164.062 232.741 158.428 233.307 153.055 233.989C142.693 235.311 136.294 235.84 131.508 235.784C129.899 235.774 126.126 235.892 123.131 236.081C115.167 236.539 107.447 236.627 107.176 236.251C106.832 235.78 115.447 234.767 117.147 235.077C117.944 235.232 121.302 235.039 124.61 234.662C127.919 234.285 130.751 234.087 130.903 234.22C131.054 234.354 132.735 234.125 134.636 233.706C136.538 233.287 139.703 232.845 141.67 232.73C143.638 232.614 146.613 232.359 148.285 232.168C149.953 231.96 152.164 231.754 153.194 231.698C157.052 231.479 162.338 230.741 168.077 229.616C171.334 228.984 174.129 228.566 174.29 228.697C174.453 228.846 178.491 228.233 183.264 227.347C191.638 225.794 196.664 225.323 200.701 225.67C201.758 225.767 204.215 225.471 206.168 225.043C208.146 224.594 209.853 224.524 210.029 224.881Z" fill="#FED775"/>
<path d="M160.158 134.154C159.812 134.069 159.289 134.185 159 134.439C158.711 134.694 158.994 134.772 159.632 134.62C160.269 134.468 160.505 134.257 160.158 134.154Z" fill="#FED775"/>
<path d="M215.269 127.339C216.697 127.553 217.258 127.378 217.157 126.765C217.031 125.998 214.632 125.937 214.539 126.685C214.503 126.988 214.831 127.285 215.269 127.339Z" fill="#FED775"/>
<path d="M205.255 126.546C205.804 126.426 206.042 126.213 205.788 126.078C205.532 125.943 205.085 126.049 204.793 126.304C204.497 126.542 204.708 126.666 205.255 126.546Z" fill="#FED775"/>
<path d="M107.366 137.845C108.274 137.615 108.666 137.398 108.231 137.325C107.799 137.27 107.053 137.439 106.576 137.724C106.097 137.99 106.452 138.041 107.366 137.845Z" fill="#FED775"/>
<path d="M218.468 126.368C218.407 125.992 218.133 125.739 217.859 125.799C217.584 125.859 217.414 126.235 217.476 126.61C217.537 126.985 217.811 127.239 218.085 127.179C218.356 127.1 218.53 126.743 218.468 126.368Z" fill="#FED775"/>
<path d="M73.7575 144.251C73.6093 144.046 73.3196 144.092 73.114 144.351C72.8856 144.631 72.9907 144.772 73.3817 144.711C73.7347 144.656 73.9048 144.454 73.7575 144.251Z" fill="#FED775"/>
<path d="M153.392 126.983C153.22 126.643 152.823 126.408 152.517 126.491C152.037 126.619 152.045 126.723 152.565 127.183C153.356 127.898 153.795 127.794 153.392 126.983Z" fill="#FED775"/>
<path d="M142.936 129.282C143.936 129.038 144.325 128.821 143.799 128.78C143.272 128.74 142.453 128.938 141.979 129.222C141.503 129.488 141.935 129.526 142.936 129.282Z" fill="#FED775"/>
<path d="M137.073 129.761C136.926 129.557 136.637 129.602 136.431 129.861C136.203 130.141 136.307 130.282 136.698 130.222C137.052 130.166 137.221 129.965 137.073 129.761Z" fill="#FED775"/>
<path d="M78.2113 134.314C79.0612 134.129 78.7317 133.796 77.42 133.512C76.641 133.354 76.5195 133.461 76.9653 133.88C77.3003 134.195 77.8605 134.386 78.2113 134.314Z" fill="#FED775"/>
<path d="M87.2264 144.591C87.0791 144.387 86.7895 144.432 86.5835 144.691C86.3554 144.972 86.4601 145.112 86.8511 145.051C87.2039 144.996 87.3744 144.795 87.2264 144.591Z" fill="#FED775"/>
<path d="M79.9388 144.194C79.7914 143.989 79.5017 144.034 79.2958 144.294C79.0674 144.574 79.1725 144.715 79.563 144.654C79.9185 144.615 80.0866 144.397 79.9388 144.194Z" fill="#FED775"/>
<path d="M154.16 135.86C155.434 135.556 155.893 135.31 155.184 135.333C154.472 135.339 153.429 135.59 152.867 135.887C152.305 136.185 152.886 136.163 154.16 135.86Z" fill="#FED775"/>
<path d="M76.0217 144.385C75.7638 144.251 75.3892 144.327 75.1946 144.586C74.998 144.826 75.2087 144.933 75.6646 144.826C76.1196 144.72 76.2805 144.52 76.0217 144.385Z" fill="#FED775"/>
<path d="M84.4657 144.534C84.3177 144.329 84.0286 144.375 83.8227 144.634C83.594 144.914 83.6991 145.055 84.0919 145.011C84.4457 144.956 84.613 144.737 84.4657 144.534Z" fill="#FED775"/>
<path d="M135.99 138.315C135.573 138.083 134.416 138.107 133.422 138.385L131.614 138.894L133.673 138.869C136.648 138.841 136.835 138.794 135.99 138.315Z" fill="#FED775"/>
<path d="M141.07 137.31C140.725 137.225 140.203 137.342 139.913 137.596C139.624 137.852 139.908 137.929 140.545 137.776C141.182 137.625 141.418 137.414 141.07 137.31Z" fill="#FED775"/>
<path d="M115.367 142.115C115.22 141.91 114.93 141.956 114.724 142.215C114.496 142.495 114.604 142.652 114.994 142.591C115.347 142.536 115.515 142.318 115.367 142.115Z" fill="#FED775"/>
<path d="M127.951 141.249C127.803 141.044 127.514 141.089 127.308 141.349C127.079 141.629 127.184 141.77 127.575 141.709C127.929 141.654 128.099 141.452 127.951 141.249Z" fill="#FED775"/>
<path d="M157.82 79.529C158.939 78.8132 158.611 78.7941 156.191 79.4351C154.523 79.87 153.447 80.3877 153.796 80.5607C154.634 81.0057 156.088 80.6212 157.82 79.529Z" fill="#FED775"/>
<path d="M121.33 80.3762C121.922 80.5283 123.227 80.4642 124.228 80.221C126.034 79.7987 126.036 79.7806 124.633 79.5457C123.854 79.4056 122.548 79.4697 121.732 79.6848C120.391 80.0514 120.352 80.1107 121.33 80.3762Z" fill="#FED775"/>
<path d="M385.032 133.822C384.884 133.618 384.595 133.663 384.389 133.922C384.161 134.202 384.265 134.343 384.656 134.282C385.009 134.227 385.18 134.025 385.032 133.822Z" fill="#FED775"/>
<path d="M383.626 128.871C383.564 128.496 383.363 128.213 383.182 128.259C383 128.305 382.902 128.652 382.963 129.026C383.025 129.401 383.226 129.685 383.408 129.639C383.59 129.593 383.687 129.246 383.626 128.871Z" fill="#FED775"/>
<path d="M337.522 42.7618C337.191 42.4641 336.07 42.2375 335.032 42.2606C331.345 42.3123 324.52 42.2088 323.82 42.0736C322.524 41.857 313.643 42.4063 305.949 43.207C302.88 43.5295 298.139 44.0087 295.412 44.277C292.686 44.546 287.951 45.4078 284.896 46.2182L279.337 47.6633L286.53 46.4351C301.521 43.8819 312.829 43.18 325.002 44.0376C327.011 44.1778 330.407 44.1184 332.547 43.9067C338.464 43.3142 338.204 43.3712 337.522 42.7618Z" fill="#FED775"/>
<path d="M336.661 0.343923C336.516 0.157051 336.226 0.202319 336.018 0.444406C335.789 0.724839 335.896 0.882308 336.287 0.821203C336.64 0.76602 336.808 0.54835 336.661 0.343923Z" fill="#FED775"/>
<path d="M346.956 11.1724C347.131 11.5295 347.629 11.7308 348.063 11.6279C348.496 11.525 348.89 11.0968 348.943 10.704C348.996 10.2594 348.551 10.0843 347.836 10.2485C347.121 10.4126 346.768 10.8 346.956 11.1724Z" fill="#FED775"/>
<path d="M331.435 47.6083C332.072 47.4564 332.311 47.262 331.963 47.1593C331.615 47.0557 331.095 47.1901 330.806 47.4448C330.513 47.6821 330.797 47.7604 331.435 47.6083Z" fill="#FED775"/>
<path d="M359.439 77.8538L360.758 76.4595L358.508 77.4224C357.272 77.9649 356.165 78.7149 356.048 79.0997C355.71 80.2181 357.966 79.3933 359.439 77.8538Z" fill="#FED775"/>
<path d="M352.347 91.2426C352.803 91.1362 352.963 90.936 352.705 90.8022C352.447 90.6674 352.072 90.7431 351.878 91.0009C351.681 91.2419 351.892 91.3482 352.347 91.2426Z" fill="#FED775"/>
<path d="M356.786 87.8935C356.548 88.1745 356.374 88.5339 356.397 88.6703C356.422 88.8235 356.665 88.8902 356.939 88.8295C357.21 88.7519 357.386 88.4102 357.324 88.036C357.266 87.6785 357.023 87.611 356.786 87.8935Z" fill="#FED775"/>
<path d="M352.735 70.5342C352.673 70.1592 351.996 70.0384 351.232 70.2806L349.84 70.7077L351.08 70.9327C351.763 71.0528 352.44 71.1744 352.584 71.1871C352.73 71.2165 352.797 70.9099 352.735 70.5342Z" fill="#FED775"/>
<path d="M360.351 66.0772C360.055 66.3157 360.266 66.44 360.814 66.3191C361.361 66.1984 361.601 65.9866 361.346 65.8514C361.091 65.7169 360.644 65.822 360.351 66.0772Z" fill="#FED775"/>
<path d="M351.115 85.8273C351.568 85.7042 351.729 85.5047 351.47 85.37C351.212 85.2361 350.841 85.3293 350.644 85.5695C350.449 85.8274 350.66 85.9336 351.115 85.8273Z" fill="#FED775"/>
<path d="M341.259 2.648C340.756 3.17999 341.071 3.18309 342.267 2.66468C343.225 2.25306 344.114 1.53725 344.24 1.0634C344.488 0.169404 342.699 1.11281 341.259 2.648Z" fill="#FED775"/>
<path d="M264.122 23.4377C263.893 23.7174 263.997 23.8583 264.388 23.7971C264.742 23.7419 264.912 23.5409 264.765 23.3372C264.617 23.1329 264.327 23.1782 264.122 23.4377Z" fill="#FED775"/>
<path d="M307.543 7.30631C307.346 7.54654 307.557 7.65357 308.012 7.54719C308.468 7.44162 308.629 7.24137 308.369 7.1068C308.111 6.97279 307.74 7.06604 307.543 7.30631Z" fill="#FED775"/>
<path d="M311.922 23.3909C311.693 23.6713 311.798 23.812 312.188 23.751C312.542 23.6957 312.712 23.4949 312.565 23.2904C312.416 23.0869 312.128 23.132 311.922 23.3909Z" fill="#FED775"/>
<path d="M303.187 6.92155C302.932 6.78628 302.485 6.89133 302.192 7.14743C301.896 7.3852 302.105 7.49247 302.655 7.38925C303.203 7.26846 303.441 7.05606 303.187 6.92155Z" fill="#FED775"/>
<path d="M306.271 6.89369C306.013 6.75892 305.641 6.85227 305.444 7.09254C305.247 7.33353 305.46 7.45658 305.914 7.33412C306.369 7.22774 306.53 7.02758 306.271 6.89369Z" fill="#FED775"/>
<path d="M315.776 23.4349C317.14 23.099 317.678 22.8406 316.973 22.8633C316.264 22.8693 315.149 23.1483 314.491 23.4607C313.833 23.773 314.41 23.7524 315.776 23.4349Z" fill="#FED775"/>
<path d="M308.242 26.7784C308.773 26.6431 308.721 26.5285 307.985 26.259C306.729 25.7743 305.859 25.9799 306.826 26.5276C307.244 26.7765 307.881 26.8872 308.242 26.7784Z" fill="#FED775"/>
<path d="M283.341 20.6958C284.381 20.6904 286.804 20.3649 288.726 19.977L292.219 19.2559L290.562 18.5885C289.392 18.1077 288.139 18.1997 286.315 18.9029C284.892 19.4575 283.215 20.087 282.589 20.306C281.737 20.597 281.93 20.7069 283.341 20.6958Z" fill="#FED775"/>
<path d="M333.622 26.3405C334.352 26.1741 334.667 25.9668 334.322 25.8645C333.979 25.7782 333.381 25.9067 332.997 26.1762C332.61 26.4282 332.892 26.5061 333.622 26.3405Z" fill="#FED775"/>
<path d="M320.242 31.6108C320.052 32.1993 325.073 30.6282 326.266 29.7257C327.099 29.0891 326.35 29.2061 323.914 30.0582C321.946 30.7503 320.293 31.445 320.242 31.6108Z" fill="#FED775"/>
<path d="M270.712 51.1782C270.515 51.4184 270.726 51.5253 271.182 51.4189C271.638 51.3125 271.798 51.1124 271.539 50.9785C271.278 50.827 270.907 50.9195 270.712 51.1782Z" fill="#FED775"/>
<path d="M270.329 23.8473C271.799 23.7755 273.123 23.7421 273.27 23.7723C273.413 23.785 273.488 23.5287 273.429 23.1713C273.373 22.8306 272.371 22.6206 271.201 22.6987C270.035 22.7935 268.522 22.768 267.84 22.6471C266.867 22.4849 266.716 22.6133 267.126 23.1956C267.416 23.6225 268.855 23.9033 270.329 23.8473Z" fill="#FED775"/>
<path d="M300.252 38.3505C300.057 38.6083 300.268 38.7144 300.724 38.6081C301.179 38.5017 301.34 38.3023 301.079 38.1508C300.82 38.0169 300.449 38.1102 300.252 38.3505Z" fill="#FED775"/>
<path d="M297.83 2.48303C297.602 2.76258 297.707 2.90418 298.098 2.84311C298.452 2.78778 298.621 2.58609 298.473 2.38254C298.326 2.17811 298.036 2.22338 297.83 2.48303Z" fill="#FED775"/>
<path d="M324.786 22.7944C325.333 22.6744 325.573 22.4619 325.318 22.3275C325.063 22.1922 324.616 22.2972 324.323 22.5533C324.03 22.8086 324.238 22.916 324.786 22.7944Z" fill="#FED775"/>
<path d="M148.509 81.6487L149.685 81.3069L148.636 80.93C148.061 80.7407 145.93 80.7759 143.906 81.0399C137.421 81.8439 130.416 82.5549 125.694 82.8731C123.171 83.0572 120.374 83.4608 119.485 83.8084C117.483 84.5583 133.964 83.2567 143.401 81.9044C145.332 81.6378 147.005 81.5335 147.123 81.7073C147.238 81.8644 147.862 81.8364 148.509 81.6487Z" fill="#FED775"/>
<path d="M95.3267 84.3526C95.782 84.2463 95.9426 84.0469 95.6842 83.9121C95.4253 83.7783 95.054 83.8715 94.8566 84.1119C94.66 84.3529 94.8737 84.4758 95.3267 84.3526Z" fill="#FED775"/>
<path d="M92.891 84.5762C92.6628 84.8557 92.7676 84.9972 93.1581 84.9362C93.5114 84.881 93.6817 84.6793 93.5339 84.4757C93.3864 84.2713 93.0968 84.3165 92.891 84.5762Z" fill="#FED775"/>
<path d="M110.894 84.6095C111.054 84.8471 112.457 84.9069 114.012 84.7514C115.571 84.6124 116.923 84.5754 117.026 84.7173C117.276 85.0277 117.469 84.229 117.225 83.8998C116.894 83.4451 110.583 84.1516 110.894 84.6095Z" fill="#FED775"/>
<path d="M99.7155 84.4187C99.5675 84.2144 99.2776 84.2597 99.072 84.5193C98.8438 84.7989 98.9482 84.9404 99.3392 84.8793C99.693 84.824 99.8628 84.6224 99.7155 84.4187Z" fill="#FED775"/>
</svg>
