<svg width="16" height="17" viewBox="0 0 16 17" fill="none" xmlns="http://www.w3.org/2000/svg">
<path d="M10.6667 0.85C10.6667 0.380558 11.0472 0 11.5167 0H11.5944C12.0639 0 12.4444 0.380558 12.4444 0.85C12.4444 1.31944 12.825 1.7 13.2944 1.7H15C15.5523 1.7 16 2.14772 16 2.7V16C16 16.5523 15.5523 17 15 17H1C0.447715 17 0 16.5523 0 16V2.7C0 2.14772 0.447715 1.7 1 1.7H2.70556C3.175 1.7 3.55556 1.31944 3.55556 0.85C3.55556 0.380558 3.93611 0 4.40556 0H4.48333C4.95278 0 5.33333 0.380558 5.33333 0.85C5.33333 1.31944 5.71389 1.7 6.18333 1.7H9.81667C10.2861 1.7 10.6667 1.31944 10.6667 0.85ZM5.33333 3.4H2.62778C2.15834 3.4 1.77778 3.78056 1.77778 4.25C1.77778 4.71944 2.15834 5.1 2.62778 5.1H13.3722C13.8417 5.1 14.2222 4.71944 14.2222 4.25C14.2222 3.78056 13.8417 3.4 13.3722 3.4H5.33333ZM2.77778 6.8C2.22549 6.8 1.77778 7.24772 1.77778 7.8V14.3C1.77778 14.8523 2.22549 15.3 2.77778 15.3H13.2222C13.7745 15.3 14.2222 14.8523 14.2222 14.3V7.8C14.2222 7.24772 13.7745 6.8 13.2222 6.8H2.77778ZM3.55556 9.35C3.55556 8.88056 3.93611 8.5 4.40556 8.5H4.48333C4.95278 8.5 5.33333 8.88056 5.33333 9.35C5.33333 9.81944 4.95278 10.2 4.48333 10.2H4.40556C3.93611 10.2 3.55556 9.81944 3.55556 9.35ZM8.88889 9.35C8.88889 8.88056 8.50833 8.5 8.03889 8.5H7.96111C7.49167 8.5 7.11111 8.88056 7.11111 9.35C7.11111 9.81944 7.49167 10.2 7.96111 10.2H8.03889C8.50833 10.2 8.88889 9.81944 8.88889 9.35ZM10.6667 9.35C10.6667 8.88056 11.0472 8.5 11.5167 8.5H11.5944C12.0639 8.5 12.4444 8.88056 12.4444 9.35C12.4444 9.81944 12.0639 10.2 11.5944 10.2H11.5167C11.0472 10.2 10.6667 9.81944 10.6667 9.35ZM5.33333 12.75C5.33333 12.2806 4.95278 11.9 4.48333 11.9H4.40556C3.93611 11.9 3.55556 12.2806 3.55556 12.75C3.55556 13.2194 3.93611 13.6 4.40556 13.6H4.48333C4.95278 13.6 5.33333 13.2194 5.33333 12.75ZM7.11111 12.75C7.11111 12.2806 7.49167 11.9 7.96111 11.9H8.03889C8.50833 11.9 8.88889 12.2806 8.88889 12.75C8.88889 13.2194 8.50833 13.6 8.03889 13.6H7.96111C7.49167 13.6 7.11111 13.2194 7.11111 12.75ZM12.4444 12.75C12.4444 12.2806 12.0639 11.9 11.5944 11.9H11.5167C11.0472 11.9 10.6667 12.2806 10.6667 12.75C10.6667 13.2194 11.0472 13.6 11.5167 13.6H11.5944C12.0639 13.6 12.4444 13.2194 12.4444 12.75Z" fill="#556269"/>
<path fill-rule="evenodd" clip-rule="evenodd" d="M14.3826 2.7C14.64 2.86814 14.853 3.09868 15 3.37014L15 2.7H14.3826ZM15 5.12986C14.7921 5.51361 14.4525 5.81558 14.0418 5.9751C14.4546 6.16077 14.793 6.48235 15 6.88284V5.12986ZM15 15.2172C14.8337 15.5389 14.5826 15.8097 14.2763 16H15V15.2172ZM1.72369 16C1.41739 15.8097 1.16631 15.5389 1 15.2172V16H1.72369ZM1 6.88284C1.20704 6.48235 1.54543 6.16077 1.95819 5.9751C1.54748 5.81558 1.20787 5.51361 1 5.12986V6.88284ZM1 3.37014C1.14704 3.09868 1.36001 2.86814 1.61744 2.7H1V3.37014ZM3.7159 2.4H5.17299C4.84064 2.18292 4.58239 1.86184 4.44444 1.48295C4.3065 1.86184 4.04825 2.18292 3.7159 2.4ZM10.827 2.4H12.2841C11.9518 2.18292 11.6935 1.86184 11.5556 1.48295C11.4176 1.86184 11.1594 2.18292 10.827 2.4ZM8 9.20509C7.98614 9.2088 7.97308 9.21444 7.96111 9.22171C7.91781 9.24802 7.88889 9.29563 7.88889 9.35C7.88889 9.40437 7.91781 9.45198 7.96111 9.47829C7.97308 9.48556 7.98614 9.4912 8 9.49491C8.01386 9.4912 8.02692 9.48556 8.03889 9.47829C8.08219 9.45198 8.11111 9.40437 8.11111 9.35C8.11111 9.29563 8.08219 9.24802 8.03889 9.22171C8.02692 9.21444 8.01386 9.2088 8 9.20509ZM11.5167 12.6217C11.4734 12.648 11.4444 12.6956 11.4444 12.75C11.4444 12.8044 11.4734 12.852 11.5167 12.8783C11.5286 12.8856 11.5417 12.8912 11.5556 12.8949C11.5694 12.8912 11.5825 12.8856 11.5944 12.8783C11.6377 12.852 11.6667 12.8044 11.6667 12.75C11.6667 12.6956 11.6377 12.648 11.5944 12.6217C11.5825 12.6144 11.5694 12.6088 11.5556 12.6051C11.5417 12.6088 11.5286 12.6144 11.5167 12.6217ZM4.44444 9.49491C4.43059 9.4912 4.41752 9.48556 4.40556 9.47828C4.36226 9.45198 4.33333 9.40437 4.33333 9.35C4.33333 9.29563 4.36226 9.24802 4.40556 9.22171C4.41752 9.21444 4.43059 9.2088 4.44444 9.20509C4.4583 9.2088 4.47137 9.21444 4.48333 9.22171C4.52663 9.24802 4.55556 9.29563 4.55556 9.35C4.55556 9.40437 4.52663 9.45198 4.48333 9.47829C4.47137 9.48556 4.4583 9.4912 4.44444 9.49491ZM8 12.6051C8.01386 12.6088 8.02692 12.6144 8.03889 12.6217C8.08219 12.648 8.11111 12.6956 8.11111 12.75C8.11111 12.8044 8.08219 12.852 8.03889 12.8783C8.02692 12.8856 8.01386 12.8912 8 12.8949C7.98614 12.8912 7.97308 12.8856 7.96111 12.8783C7.91781 12.852 7.88889 12.8044 7.88889 12.75C7.88889 12.6956 7.91781 12.648 7.96111 12.6217C7.97308 12.6144 7.98614 12.6088 8 12.6051ZM11.5556 9.49491C11.5417 9.4912 11.5286 9.48556 11.5167 9.47829C11.4734 9.45198 11.4444 9.40437 11.4444 9.35C11.4444 9.29563 11.4734 9.24802 11.5167 9.22171C11.5286 9.21444 11.5417 9.2088 11.5556 9.20509C11.5694 9.2088 11.5825 9.21444 11.5944 9.22171C11.6377 9.24802 11.6667 9.29563 11.6667 9.35C11.6667 9.40437 11.6377 9.45198 11.5944 9.47829C11.5825 9.48556 11.5694 9.4912 11.5556 9.49491ZM4.44444 12.8949C4.43059 12.8912 4.41752 12.8856 4.40556 12.8783C4.36226 12.852 4.33333 12.8044 4.33333 12.75C4.33333 12.6956 4.36226 12.648 4.40556 12.6217C4.41752 12.6144 4.43059 12.6088 4.44444 12.6051C4.4583 12.6088 4.47137 12.6144 4.48333 12.6217C4.52663 12.648 4.55556 12.6956 4.55556 12.75C4.55556 12.8044 4.52663 12.852 4.48333 12.8783C4.47137 12.8856 4.4583 12.8912 4.44444 12.8949ZM11.5167 0C11.0472 0 10.6667 0.380558 10.6667 0.85C10.6667 1.31944 10.2861 1.7 9.81667 1.7H6.18333C5.71389 1.7 5.33333 1.31944 5.33333 0.85C5.33333 0.380558 4.95278 0 4.48333 0H4.40556C3.93611 0 3.55556 0.380558 3.55556 0.85C3.55556 1.31944 3.175 1.7 2.70556 1.7H1C0.447715 1.7 0 2.14772 0 2.7V16C0 16.5523 0.447715 17 1 17H15C15.5523 17 16 16.5523 16 16V2.7C16 2.14772 15.5523 1.7 15 1.7H13.2944C12.825 1.7 12.4444 1.31944 12.4444 0.85C12.4444 0.380558 12.0639 0 11.5944 0H11.5167ZM2.62778 3.4H13.3722C13.8417 3.4 14.2222 3.78056 14.2222 4.25C14.2222 4.71944 13.8417 5.1 13.3722 5.1H2.62778C2.15834 5.1 1.77778 4.71944 1.77778 4.25C1.77778 3.78056 2.15834 3.4 2.62778 3.4ZM1.77778 7.8C1.77778 7.24772 2.22549 6.8 2.77778 6.8H13.2222C13.7745 6.8 14.2222 7.24772 14.2222 7.8V14.3C14.2222 14.8523 13.7745 15.3 13.2222 15.3H2.77778C2.22549 15.3 1.77778 14.8523 1.77778 14.3V7.8ZM4.40556 8.5C3.93611 8.5 3.55556 8.88056 3.55556 9.35C3.55556 9.81944 3.93611 10.2 4.40556 10.2H4.48333C4.95278 10.2 5.33333 9.81944 5.33333 9.35C5.33333 8.88056 4.95278 8.5 4.48333 8.5H4.40556ZM8.03889 8.5C8.50833 8.5 8.88889 8.88056 8.88889 9.35C8.88889 9.81944 8.50833 10.2 8.03889 10.2H7.96111C7.49167 10.2 7.11111 9.81944 7.11111 9.35C7.11111 8.88056 7.49167 8.5 7.96111 8.5H8.03889ZM11.5167 8.5C11.0472 8.5 10.6667 8.88056 10.6667 9.35C10.6667 9.81944 11.0472 10.2 11.5167 10.2H11.5944C12.0639 10.2 12.4444 9.81944 12.4444 9.35C12.4444 8.88056 12.0639 8.5 11.5944 8.5H11.5167ZM4.48333 11.9C4.95278 11.9 5.33333 12.2806 5.33333 12.75C5.33333 13.2194 4.95278 13.6 4.48333 13.6H4.40556C3.93611 13.6 3.55556 13.2194 3.55556 12.75C3.55556 12.2806 3.93611 11.9 4.40556 11.9H4.48333ZM7.96111 11.9C7.49167 11.9 7.11111 12.2806 7.11111 12.75C7.11111 13.2194 7.49167 13.6 7.96111 13.6H8.03889C8.50833 13.6 8.88889 13.2194 8.88889 12.75C8.88889 12.2806 8.50833 11.9 8.03889 11.9H7.96111ZM11.5944 11.9C12.0639 11.9 12.4444 12.2806 12.4444 12.75C12.4444 13.2194 12.0639 13.6 11.5944 13.6H11.5167C11.0472 13.6 10.6667 13.2194 10.6667 12.75C10.6667 12.2806 11.0472 11.9 11.5167 11.9H11.5944Z" fill="#C59368"/>
</svg>
