<svg viewBox="0 0 1920 103" xmlns="http://www.w3.org/2000/svg">
<path d="M1920 6.52716V87.5066C1914.8 88.2526 1912.01 91.7962 1906.26 93.1018C1906.07 92.1693 1905.88 91.4232 1906.81 91.2367C1906.07 89.7447 1905.33 92.7288 1904.96 93.2883C1904.21 92.7288 1902.35 93.2883 1902.73 91.6097C1901.98 92.3558 1901.61 93.4748 1899.38 93.1018C1900.13 90.3042 1898.08 93.4748 1896.97 90.3042C1895.85 92.1693 1893.62 91.0502 1892.32 91.9827C1892.14 90.6772 1892.7 89.9312 1894.18 89.9312C1892.88 88.0661 1892.7 91.2367 1890.84 90.8637C1891.21 90.3042 1892.32 90.1177 1891.95 88.9986C1888.05 91.7962 1879.14 94.0343 1875.24 93.4748C1875.42 92.7288 1876.35 91.7962 1876.54 92.7288C1876.54 89.7447 1869.48 95.8994 1867.06 94.7803C1866.51 98.697 1855.92 95.5264 1850.72 95.5264C1849.79 95.5264 1848.86 96.8319 1848.86 96.8319C1848.86 96.8319 1841.25 93.2883 1839.2 96.4589C1839.57 94.4073 1830.1 96.6454 1831.03 97.7644C1828.99 98.3239 1829.36 96.0859 1826.76 96.8319C1827.32 95.8994 1828.8 95.7129 1830.1 95.3399C1823.79 93.4748 1819.33 96.6454 1815.43 99.07C1814.5 98.8835 1813.94 98.5105 1813.94 97.3914C1812.46 97.3914 1813.94 99.6295 1813.57 100.376C1811.53 98.697 1809.86 99.816 1808.56 98.3239C1804.1 102.054 1796.67 99.816 1794.44 101.308C1795 100.376 1791.84 100.189 1792.95 99.6295C1789.61 98.5105 1790.35 101.495 1786.27 101.495C1784.78 101.308 1787.38 99.443 1788.12 98.8835C1788.12 97.3914 1784.41 101.868 1781.62 101.868C1779.95 101.495 1782.92 100.003 1781.99 98.1374C1778.47 100.376 1780.88 100.562 1778.28 102.614C1777.35 102.427 1777.54 101.122 1777.35 100.189C1774.38 102.8 1771.41 104.292 1768.62 101.495C1768.25 105.038 1765.46 96.8319 1766.21 100.189C1763.98 98.5105 1762.68 104.106 1761.19 102.054C1759.15 102.614 1761.93 99.443 1761.38 100.562C1758.41 98.5105 1754.13 103.919 1753.21 99.6295C1753.58 102.054 1752.28 101.122 1749.68 100.935C1747.82 100.935 1750.42 103.733 1749.49 102.427C1748 102.987 1748.19 100.935 1746.33 101.308C1742.8 99.443 1739.27 101.868 1735.75 102.987C1734.07 102.8 1736.86 101.308 1736.12 100.003C1735.93 101.122 1732.96 102.614 1733.33 99.6295C1731.66 99.6295 1732.77 101.495 1731.47 101.681C1730.17 101.681 1727.76 97.9509 1727.39 101.495C1726.09 101.495 1726.83 99.443 1725.72 99.2565C1723.49 99.6295 1727.02 102.427 1725.34 102.241C1722.56 102.614 1724.79 100.935 1724.42 99.816C1723.86 102.241 1718.66 99.443 1720.51 102.054C1718.29 101.495 1716.61 100.003 1714.2 101.308C1715.69 100.003 1714.76 100.376 1715.31 98.1374C1712.9 99.07 1711.97 97.2049 1709.18 99.2565C1707.88 98.1374 1709.18 98.5105 1709 96.8319C1705.84 95.8994 1696.74 100.562 1696 97.3914C1692.84 96.8319 1688.57 99.816 1685.78 97.5779C1683.74 100.189 1679.84 97.5779 1676.31 99.6295C1676.12 98.697 1677.24 97.9509 1676.12 97.7644C1673.71 98.1374 1676.12 98.697 1675.01 100.376C1669.99 99.816 1674.08 101.308 1668.88 101.495C1668.88 100.749 1669.99 100.935 1670.92 100.749C1665.16 100.003 1664.98 101.308 1661.45 102.241C1659.96 102.427 1660.89 100.189 1660.52 99.2565C1659.03 98.5105 1651.23 100.935 1653.65 98.697C1651.98 97.0184 1646.96 102.614 1646.03 98.1374C1644.55 100.376 1641.39 99.07 1642.88 97.2049C1643.25 97.0184 1643.62 96.6454 1643.8 96.4589C1643.43 96.6454 1643.06 97.0184 1642.88 97.2049C1640.65 98.5105 1635.07 100.003 1630.24 98.8835C1630.62 98.3239 1631.73 98.1374 1631.36 97.0184C1629.69 95.8994 1627.46 97.0184 1626.72 97.9509C1625.6 96.0859 1628.94 97.3914 1627.83 95.5264C1625.23 95.5264 1621.7 96.6454 1621.52 94.2208C1619.66 95.5264 1620.77 96.8319 1618.36 96.8319C1616.69 96.6454 1620.59 95.5264 1618.17 94.4073C1616.31 98.697 1606.84 95.8994 1602.38 94.0343C1605.17 90.6772 1597.55 87.5066 1593.84 87.3201C1594.03 86.7606 1594.4 90.1177 1595.14 89.9312C1593.47 90.3042 1590.68 86.0146 1589.75 87.6931C1587.34 87.6931 1590.68 88.8121 1588.82 89.1852C1587.34 91.2367 1583.07 89.1852 1583.81 89.9312C1581.77 90.3042 1582.14 91.9827 1581.4 91.0502C1577.31 94.4073 1569.14 84.8955 1567.65 87.6931C1566.54 87.3201 1566.35 89.7447 1565.98 88.6256C1563.01 88.6256 1562.26 89.9312 1560.03 90.3042C1556.13 86.5741 1549.26 90.3042 1546.1 87.8796C1547.4 86.5741 1549.26 85.6415 1549.08 84.709C1547.78 83.0305 1546.66 86.2011 1545.18 86.2011C1545.36 85.455 1545.92 84.8955 1547.03 84.8955C1545.36 84.1495 1543.13 84.1495 1540.72 84.1495C1540.9 85.6415 1537.56 85.2685 1539.6 86.7606C1538.49 86.5741 1533.29 87.1336 1536.07 85.8281C1535.33 84.5225 1532.92 86.3876 1532.73 87.3201C1531.8 86.9471 1531.25 86.2011 1531.06 85.082C1529.02 86.5741 1526.79 84.336 1524.93 85.6415C1524.19 85.828 1522.33 84.1495 1524 83.963C1522.89 82.6574 1521.77 86.0146 1520.84 86.5741C1518.61 86.5741 1518.8 84.336 1515.83 85.2685C1515.83 84.709 1516.57 84.709 1517.13 84.5225C1514.9 84.709 1511.93 82.0979 1510.44 85.6415C1508.21 84.8955 1511 83.217 1508.03 81.5384C1510.44 81.5384 1510.26 82.0979 1512.11 81.1654C1505.8 79.8599 1501.71 85.6415 1497.44 86.0146C1496.33 86.0146 1497.25 84.709 1498.18 84.336C1494.28 85.2685 1486.85 88.6256 1487.6 84.5225C1482.58 86.7606 1479.05 84.1495 1472.74 87.5066C1472.92 85.6415 1469.02 87.5066 1467.16 86.7606C1469.95 85.455 1467.91 85.082 1466.79 83.217C1466.98 85.2685 1462.34 83.59 1459.92 83.7765C1454.35 84.5225 1448.22 87.1336 1443.76 86.3876C1442.83 85.828 1443.95 85.455 1442.28 84.709C1436.33 88.4391 1431.87 83.963 1427.79 83.59C1428.16 83.59 1426.67 85.828 1423.7 84.5225C1418.32 82.2844 1408.47 84.1495 1400.48 85.8281C1398.07 86.0146 1395.1 83.59 1392.87 85.8281C1393.43 83.963 1389.71 86.0146 1390.64 84.709C1388.6 84.336 1384.51 87.6931 1383.77 84.709C1382.47 88.4391 1378.57 86.2011 1375.78 87.1336C1378.75 86.2011 1372.99 84.8955 1377.64 84.5225C1372.99 84.8955 1365.38 87.3201 1360.18 88.9986C1358.14 87.5066 1355.16 87.1336 1354.98 85.2685C1353.68 85.455 1355.16 87.8796 1353.86 88.4391C1352.19 89.3717 1350.71 86.7606 1351.26 89.1852C1350.52 88.4391 1347.36 87.3201 1351.08 87.3201C1348.85 85.6415 1345.32 88.2526 1343.46 87.3201C1343.09 86.3876 1343.83 86.2011 1344.76 86.0146C1338.63 87.6931 1334.73 83.4035 1324.14 85.2685C1323.03 85.455 1324.89 86.3876 1323.59 86.5741C1320.99 87.5066 1321.92 84.709 1319.32 85.6415C1319.69 83.7765 1320.24 84.8955 1321.92 84.8955C1319.5 81.3519 1313.74 86.0146 1309.66 86.5741C1306.5 85.6415 1307.43 84.709 1305.76 82.6574C1300.18 82.4709 1293.31 84.336 1285.51 86.2011C1284.77 86.3876 1283.1 85.6415 1282.72 85.8281C1280.87 86.3876 1278.64 88.2526 1281.42 86.0146C1278.45 87.5066 1272.69 89.1852 1268.42 91.9827C1265.82 91.6097 1264.34 90.1177 1261.36 90.1177C1263.78 90.8637 1259.51 86.5741 1259.69 86.5741C1259.32 86.2011 1257.65 86.7606 1257.65 86.7606C1257.28 86.5741 1257.09 86.3876 1256.91 86.2011C1255.98 85.455 1257.28 85.455 1256.91 86.2011C1256.72 86.3876 1256.72 86.5741 1256.35 86.7606C1255.23 87.6931 1249.48 86.0146 1252.08 84.709C1243.53 86.7606 1238.15 85.828 1229.23 89.7447C1228.86 88.9986 1231.65 88.0661 1229.79 87.8796C1225.33 93.2883 1217.72 86.2011 1212.89 90.4907C1212.14 90.4907 1212.14 89.3717 1211.96 88.8121C1210.84 91.4232 1208.99 90.1177 1206.01 91.0502C1204.53 91.0502 1206.76 89.1852 1207.13 88.4391C1204.71 88.2526 1203.23 90.8637 1200.63 91.4232C1195.8 89.5582 1190.78 90.4907 1184.84 90.8637C1184.47 89.9312 1183.72 89.9312 1182.61 88.6256C1179.27 90.4907 1179.27 88.0661 1177.78 87.8796C1168.87 89.5582 1147.88 92.9153 1138.59 88.2526C1137.66 88.4391 1135.43 90.3042 1135.25 89.1852C1134.32 89.5582 1135.43 89.7447 1135.43 90.3042C1125.96 89.5582 1116.12 96.2724 1108.5 94.9668C1109.06 94.2208 1112.77 93.6613 1113.14 94.0343C1113.33 93.4748 1113.7 92.9153 1114.44 92.7288C1113.14 91.4232 1110.73 93.1018 1112.21 90.4907C1106.46 93.6613 1102.37 89.1852 1097.36 92.3558C1095.87 92.7288 1093.45 90.8637 1095.13 90.1177C1091.97 89.5582 1088.44 93.2883 1085.28 94.5938C1083.98 94.2208 1084.17 92.1693 1081.75 93.1018C1082.12 92.5423 1082.87 92.1693 1083.61 91.7962C1083.05 91.4232 1076.74 93.8478 1078.41 95.3399C1077.48 94.5938 1074.51 94.7803 1073.58 95.7129C1072.28 93.4748 1076.55 95.3399 1075.44 93.1018C1074.69 93.8478 1070.42 95.1533 1071.17 92.1693C1068.19 94.4073 1060.21 94.9668 1057.79 95.7129C1052.96 97.5779 1048.69 96.0859 1043.12 93.2883C1043.12 92.7288 1043.86 92.7288 1044.42 92.5423C1038.1 91.2367 1037.36 95.3399 1030.3 94.9668C1030.67 94.0343 1031.6 93.6613 1032.9 93.4748C1034.02 91.9827 1028.82 94.2208 1028.26 95.1533C1026.96 94.0343 1025.85 94.2208 1026.59 92.3558C1025.29 92.7288 1025.47 94.0343 1023.99 94.4073C1022.87 94.2208 1024.17 93.6613 1023.8 92.5423C1018.04 92.9153 1003.74 97.3914 1004.48 91.2367C997.613 91.9827 993.712 89.7447 988.511 89.5582C988.697 90.1177 989.254 90.4907 989.811 90.6772C986.097 91.2367 982.753 95.1533 977.367 96.0859C971.609 97.0184 962.508 92.1693 959.721 98.8835C958.978 98.5105 958.05 98.3239 956.935 98.5105C956.564 99.6295 954.892 99.07 956.378 100.376C953.964 100.749 949.877 99.07 946.72 100.562C944.305 96.4589 935.018 100.935 933.346 97.3914C932.232 98.697 927.031 102.427 925.917 98.697C925.359 101.495 914.772 100.376 920.902 97.2049C919.787 97.0184 916.444 99.816 915.144 101.308C912.729 100.935 914.958 100.003 913.472 99.07C912.543 101.681 911.8 97.9509 908.086 100.749C908.271 99.443 904.742 99.2565 904.185 96.8319C901.213 99.443 900.656 97.9509 896.198 99.2565C895.084 97.2049 886.911 94.0343 883.754 97.9509C875.21 93.8478 864.437 94.5938 855.521 97.3914C851.435 97.5779 846.605 94.2208 841.033 96.8319C840.105 96.8319 840.29 95.7129 840.848 95.7129C835.833 95.7129 826.174 96.4589 823.202 92.3558C819.116 96.0859 802.956 92.5423 797.384 95.7129C785.868 94.4073 777.51 89.9312 763.394 93.1018C761.351 91.6097 762.465 91.0502 763.022 89.5582C755.035 93.4748 743.891 92.3558 738.69 87.3201C739.062 87.6931 739.433 88.2526 739.619 88.9986C732.932 87.8796 724.202 86.5741 717.701 83.59C715.101 88.2526 706.929 86.0146 703.214 88.9986C699.499 84.8955 684.825 85.2685 677.024 87.5066C676.467 84.5225 668.48 87.6931 665.137 86.0146C665.694 87.1336 654.736 88.6256 651.578 87.1336C651.392 88.2526 652.321 88.2526 653.064 88.2526C645.82 90.8637 641.362 90.8637 634.118 91.6097C634.675 91.0502 634.676 90.1177 634.49 89.1852C633.933 91.4232 627.989 92.7288 628.36 90.3042C627.06 90.4907 627.617 91.9827 625.76 91.7962C624.46 90.1177 621.674 89.9312 620.559 88.0661C618.888 88.6256 618.33 88.8121 615.916 89.7447C614.244 89.7447 616.659 88.6256 615.73 87.3201C609.415 87.8796 602.357 91.6097 600.685 88.6256C599.385 88.8121 598.456 89.3717 596.413 87.6931C596.413 88.2526 596.599 88.8121 596.599 89.5582C592.698 85.082 586.569 87.5066 579.882 87.8796C579.139 87.8796 579.139 86.7606 578.953 86.2011C570.224 87.8796 567.809 85.082 561.308 87.6931C560.379 87.8796 560.751 86.5741 561.494 86.0146C561.865 86.0146 562.237 85.8281 562.422 85.8281C562.051 85.6415 561.68 85.828 561.494 86.0146C555.364 87.3201 549.606 85.455 543.848 85.6415C543.477 83.963 545.149 83.59 544.777 81.9114C543.477 80.9789 542.734 82.2844 541.434 82.844C541.619 82.2844 541.991 81.7249 542.734 81.5384C542.362 79.3003 537.347 83.217 536.976 79.6734C531.961 81.5384 525.646 80.4194 519.516 83.59C514.501 81.3519 507.072 83.217 501.871 85.082C498.713 82.6574 493.513 81.9114 492.027 82.2844C490.541 78.7408 487.383 80.2329 485.154 76.1297C484.411 80.2329 479.396 76.8758 478.653 79.1138C477.91 79.1138 477.91 77.9948 477.725 77.4353C470.852 80.6059 464.537 78.7408 458.222 82.0979C454.693 78.5543 451.721 81.1654 447.078 80.6059C446.892 79.3003 447.449 78.5543 448.935 78.5543C447.078 76.8758 440.019 79.6734 446.892 78.7408C446.335 79.4868 446.149 80.4194 446.52 81.7249C445.22 81.7249 445.963 79.6734 444.849 79.4868C442.991 83.217 437.605 82.0979 433.518 82.2844C434.447 81.5384 435.004 80.4194 436.676 80.2329C429.246 80.7924 421.074 82.4709 413.273 79.8599C412.344 80.4194 411.23 80.9789 411.415 82.4709C410.487 81.1654 408.815 78.7408 407.143 80.4194C408.629 79.4868 406.215 79.1138 407.701 78.5543C403.8 80.0464 401.943 75.9432 395.999 77.8083C394.884 77.6218 395.813 77.2488 396.556 77.0623C387.083 71.4671 371.11 85.455 358.294 79.1138C353.279 80.9789 347.521 79.1138 342.691 80.9789C344.92 77.6218 335.076 83.4035 331.547 79.4868C332.29 81.3519 330.247 80.6059 330.247 79.6734C329.318 80.0464 330.247 80.7924 330.99 80.7924C330.618 81.3519 329.875 81.7249 329.132 82.0979C328.761 81.3519 328.018 80.0464 324.86 80.6059C325.603 79.8599 325.417 78.3678 325.232 76.8758C324.117 75.0107 324.86 79.1138 324.86 79.8599C316.13 83.0305 312.23 76.5028 306.843 77.8083C306.286 76.3162 308.144 76.5028 308.701 75.7567C308.144 74.4512 305.357 74.0782 304.429 74.8242C304.8 75.7567 305.543 74.2647 305.915 75.3837C305.915 76.1297 304.615 75.9432 304.615 76.6893C301.085 75.1972 299.785 75.1972 295.699 76.3162C294.585 75.5702 293.656 74.4512 293.284 72.9591C290.312 73.1456 294.027 74.4512 293.656 75.9432C290.312 72.3996 287.898 75.5702 285.483 70.5346C284.74 71.4671 284.369 72.3996 283.44 70.7211C282.511 71.0941 283.812 71.4671 283.626 72.5861C281.397 72.9591 282.511 69.602 279.354 71.0941C279.354 69.975 281.583 70.5346 281.954 69.602C283.254 67.5505 278.054 71.8401 277.125 69.975C276.196 70.1615 276.753 71.4671 276.753 72.3996C276.01 72.0266 275.453 70.9076 275.268 71.8401C274.153 71.6536 275.453 71.0941 275.082 69.975C273.782 70.3481 274.71 72.3996 272.481 72.0266C270.81 72.0266 273.039 70.3481 273.596 70.1615C272.481 70.1615 268.952 73.1456 268.581 75.3837C267.652 74.0782 265.238 74.4512 264.866 72.5861C263.937 73.5187 265.795 75.5702 262.451 75.7567C261.894 74.0782 261.708 76.1297 260.965 74.0782C260.408 75.9432 258.365 74.0782 259.851 75.9432C258.551 76.3162 257.622 75.9432 257.622 74.8242C256.508 75.5702 255.579 76.5028 254.465 77.4353C251.678 76.8758 250.75 75.3837 247.592 76.8758C246.849 74.2647 249.078 77.2488 248.892 75.5702C245.92 72.7726 241.648 75.1972 240.163 71.4671C232.547 74.4512 220.288 73.1456 217.502 78.9273C216.574 78.7408 216.759 77.4353 216.573 76.5028C214.902 77.9948 213.602 79.4868 210.816 80.0464C214.345 77.8083 205.801 79.6734 205.429 81.1654C204.5 80.9789 204.686 79.6734 204.5 78.7408C202.829 79.1138 201.157 81.7249 197.071 80.0464C196.328 80.2329 196.699 81.1654 196.514 81.9114C195.213 80.2329 187.598 84.1495 184.812 81.1654C183.14 82.2844 182.954 82.844 181.097 84.5225C180.354 84.1495 179.983 83.59 179.611 82.844C184.812 82.4709 178.125 80.0464 181.097 77.8083C179.797 77.0623 177.754 80.6059 177.382 82.2844C176.082 80.7924 174.41 79.6734 173.482 77.8083C168.652 77.6218 162.894 80.2329 160.48 83.7765C157.508 84.1495 155.651 82.0979 152.307 83.963C151.193 81.5384 151.007 79.3003 152.307 77.2488C152.679 75.5702 150.264 80.7924 149.335 81.7249C148.407 80.0464 145.621 80.7924 145.063 80.2329C144.32 80.4194 144.692 81.3519 144.506 82.0979C143.02 82.4709 141.906 82.0979 141.72 81.1654C140.791 81.3519 141.349 82.6574 141.349 83.59C140.42 83.4035 139.677 82.844 139.12 81.9114C138.191 83.217 134.848 85.082 135.591 81.5384C132.99 81.3519 135.033 84.5225 133.176 84.709C130.947 83.963 135.405 82.2844 132.804 81.1654C132.062 81.7249 132.99 83.0305 131.69 84.336C130.761 84.1495 130.576 83.4035 129.461 83.217C129.09 81.7249 132.619 83.217 131.319 81.1654C130.018 82.6574 129.09 80.7924 127.975 82.0979C129.647 79.8599 128.161 80.4194 127.604 77.8083C127.418 81.1654 119.803 80.6059 121.474 78.9273C120.36 77.9948 119.431 81.7249 118.317 80.9789C117.202 80.7924 118.502 80.2329 118.131 79.1138C116.645 78.9273 115.531 83.0305 114.788 80.0464C114.045 80.2329 114.416 81.1654 114.23 81.9114C113.487 81.9114 113.487 80.7924 113.302 80.2329C112.373 81.1654 111.444 82.2844 110.144 82.844C109.215 82.6574 109.401 81.3519 109.215 80.4194C108.472 80.6059 108.844 81.5384 108.658 82.2844C106.615 81.9114 107.73 81.5384 107.73 79.8599C105.315 80.2329 106.429 83.0305 103.272 82.6574C104.943 79.3003 103.272 82.4709 100.3 81.1654C102.157 83.4035 99.1854 80.6059 99.7427 83.0305C98.071 81.3519 95.8421 83.217 92.1273 83.0305C83.2118 87.5066 73.3675 89.7447 68.724 94.7803C59.6227 97.0184 54.6077 97.3914 45.3207 99.2565C45.5064 97.9509 48.664 98.697 49.9642 98.3239C38.2626 98.697 27.6753 101.308 13.0018 100.189C11.3302 100.189 13.9305 99.07 12.8161 97.7644C11.5159 98.697 10.773 100.003 9.10129 100.562C8.72981 99.07 11.7017 99.816 10.9587 97.9509C7.98684 97.9509 2.04315 98.697 0 99.07V17.7176C7.24388 17.9041 10.03 13.4279 16.7167 11.9359C16.9024 12.8684 17.0881 13.6144 16.1594 13.8009C16.9024 15.293 17.6454 12.3089 18.0168 11.7494C18.7598 12.3089 20.6172 11.7494 20.2457 13.4279C20.9887 12.6819 21.3602 11.5629 23.5891 11.9359C22.8461 14.7335 24.8892 11.7494 26.0037 14.7335C27.1181 12.8684 29.347 13.9874 30.6472 13.0549C30.8329 14.3605 30.2757 15.1065 28.7898 15.1065C30.09 16.9716 30.2757 13.8009 32.1331 14.174C31.7616 14.7335 30.6472 14.92 31.0187 16.039C34.9192 13.2414 43.8348 11.0033 47.7353 11.5628C47.5496 12.3089 46.6209 13.2414 46.4351 12.3089C46.4351 15.293 53.4933 9.13829 55.9079 10.2573C55.1649 16.5985 68.3525 9.51129 72.2531 9.51129C73.1818 9.51129 74.1105 8.20573 74.1105 8.20573C74.1105 8.20573 81.7258 11.7494 83.769 8.57876C83.3975 10.6303 92.8703 8.39223 91.9416 7.27319C93.9847 6.90018 93.6132 8.95175 96.2136 8.20573C95.6564 9.13826 94.1705 9.32476 92.8703 9.69777C99.1855 11.5628 103.643 8.39221 107.544 5.96764C108.472 6.15414 109.03 6.71367 109.03 7.6462C110.516 7.6462 109.03 5.40814 109.401 4.66212C111.444 6.34067 113.116 5.22165 114.416 6.7137C118.874 2.98358 126.304 5.22163 128.532 3.72958C127.975 4.66212 131.133 4.8486 130.018 5.40812C133.362 6.52715 132.619 3.54308 136.705 3.54308C138.191 3.72958 135.591 5.59466 134.848 6.15417C134.848 7.64622 138.562 3.17006 141.349 3.17006C143.02 3.54307 140.048 5.03512 140.977 6.90018C144.506 4.66211 142.092 4.47563 144.692 2.42406C145.621 2.61057 145.435 3.91609 145.621 4.84863C148.592 2.23754 151.564 0.745483 154.35 3.54308C154.722 -0.000534058 157.508 4.28912 156.765 0.932007C158.994 2.61056 160.294 0.932014 161.78 2.98358C163.823 2.42406 161.037 1.67802 161.594 0.55899C164.566 2.61056 168.838 0.931976 169.767 5.40812C169.395 2.98354 170.696 -0.000534058 173.296 0.185974C175.153 0.185974 172.553 1.30499 173.482 2.61053C174.968 2.05102 174.782 0.185974 176.639 -0.000534058C180.168 1.86452 183.697 3.35659 187.226 2.05105C188.898 2.23756 186.112 3.72959 186.855 5.03513C187.041 3.9161 190.013 2.42403 189.641 5.40812C191.313 5.40812 190.198 3.54308 191.499 3.35657C192.799 3.35657 195.213 7.08669 195.585 3.54308C196.885 3.54308 196.142 5.59466 197.256 5.78117C199.485 5.40816 195.956 2.61053 197.628 2.79704C200.414 2.42403 198.185 4.10261 198.557 5.22164C199.114 2.79707 204.315 5.59467 202.457 2.98358C204.686 3.5431 206.358 5.03513 208.772 3.72958C207.286 5.03513 208.215 4.66211 207.658 6.90018C210.073 5.96764 211.001 7.83273 213.787 5.78117C215.088 6.9002 213.787 6.52718 213.973 8.20573C217.131 9.13826 226.232 4.4756 226.975 7.6462C230.133 8.20572 234.405 5.22162 237.191 7.45969C239.234 4.84861 243.134 7.45969 246.663 5.40812C246.849 6.34065 245.735 7.08669 246.849 7.27319C249.264 6.90018 247.035 6.34067 247.964 4.66212C252.979 5.22163 248.892 3.72958 254.093 3.54308C254.093 4.2891 252.979 4.10259 252.05 4.2891C257.808 5.03513 257.994 3.72958 261.523 2.79704C263.009 2.61053 262.08 4.84863 262.451 5.78117C263.937 6.52719 271.738 4.10258 269.324 6.34065C270.995 8.0192 276.01 2.42403 276.939 6.90018C278.425 4.66211 281.583 5.96765 280.097 7.83271C279.725 8.01922 279.354 8.39225 279.168 8.57876C279.54 8.39225 279.911 8.01922 280.097 7.83271C282.326 6.52717 287.898 5.03514 292.727 6.15417C292.356 6.71369 291.241 6.90018 291.613 8.01922C293.284 9.13825 295.513 8.01922 296.256 7.08669C297.371 8.95174 294.027 7.6462 295.142 9.69777C297.742 9.69777 301.271 8.57874 301.457 11.0033C303.314 9.69778 302.2 8.39225 304.615 8.39225C306.286 8.57876 302.386 9.69781 304.8 10.8168C306.1 6.71371 315.573 9.51131 320.031 11.3764C317.245 14.7335 324.86 14.1739 328.575 14.3604C328.389 14.92 328.018 15.4795 327.275 15.666C328.947 15.293 331.733 15.666 332.661 13.9874C335.076 13.9874 331.733 16.785 333.59 16.412C335.076 14.3605 339.348 16.412 338.605 15.666C340.648 15.293 340.277 13.6144 341.02 14.547C345.106 11.1899 353.279 16.9715 354.764 13.9874C355.879 14.3605 355.879 15.8525 356.436 16.785C359.408 16.785 360.151 15.4795 362.38 15.1065C366.28 18.8366 373.153 15.1065 376.31 17.531C375.01 18.8366 372.967 19.7691 373.153 20.8882C374.453 22.5667 375.567 19.3961 377.053 19.3961C376.868 20.1421 376.31 20.7017 375.196 20.7017C376.682 21.4477 379.096 21.4477 381.511 21.4477C381.325 19.9556 384.669 20.3287 382.626 18.8366C383.74 19.0231 388.941 18.4636 386.155 19.7691C386.898 21.0747 389.312 19.2096 389.498 18.2771C390.427 18.6501 390.984 19.3961 391.17 20.5151C393.213 19.0231 395.442 21.2612 397.299 19.9556C398.042 19.7691 399.899 21.4477 398.228 21.6342C399.342 22.9397 400.457 19.5826 401.385 19.0231C403.614 19.0231 403.428 21.2612 406.4 20.3286C406.4 20.8882 405.657 20.8882 405.1 21.0747C407.329 20.8882 410.301 23.4992 411.787 19.9556C414.016 20.7017 411.23 22.3802 414.201 24.0588C411.787 24.0588 411.973 23.4993 410.115 24.4318C416.43 25.7374 420.517 19.9556 424.789 19.5826C425.903 19.5826 424.974 20.8882 424.046 21.2612C427.946 20.3286 435.376 16.9715 434.633 21.0747C439.648 18.8366 443.177 21.4477 449.492 17.9041C449.306 19.7691 453.207 17.9041 455.064 18.6501C452.278 19.9557 454.321 20.3286 455.436 22.1937C455.25 20.1421 459.894 21.8207 462.308 21.6342C467.88 20.8882 474.01 18.2771 478.468 19.0231C479.396 19.5826 478.282 19.9556 479.954 20.7017C485.897 16.9715 490.355 21.4477 494.441 21.8207C494.07 21.8207 495.556 19.5826 498.528 20.8882C503.914 23.1262 513.758 21.2612 521.745 19.5826C524.16 19.3961 527.132 21.8207 529.361 19.5826C528.803 21.4477 532.518 19.3961 531.59 20.7017C533.633 21.0747 537.719 17.7176 538.462 20.7017C539.762 16.9715 543.663 19.2096 546.449 18.2771C543.477 19.2096 549.235 20.5152 544.591 20.8882C549.235 20.5152 556.85 18.0906 562.051 16.412C564.094 17.9041 567.066 18.2771 567.252 20.1421C568.738 19.9556 567.066 17.5311 568.366 16.9715C570.038 16.039 571.524 18.6501 570.966 16.2255C571.709 16.9715 574.867 18.0906 571.152 18.0906C573.381 19.7691 577.096 17.158 578.768 18.0906C579.139 19.0231 578.396 19.2096 577.467 19.3961C583.783 17.7176 587.497 22.0072 598.085 20.1421C599.199 19.9556 597.342 19.0231 598.642 18.8366C601.242 17.9041 600.314 20.7017 602.914 19.7691C602.542 21.6342 601.985 20.5151 600.313 20.5151C602.728 24.0588 608.486 19.3961 612.572 18.8366C615.73 19.7691 614.801 20.7017 616.473 22.7532C622.045 22.9397 628.918 21.0747 636.719 19.2096C637.462 19.0231 639.133 19.7691 639.505 19.5826C641.362 19.0231 643.591 17.158 640.805 19.3961C643.777 17.9041 649.535 16.2255 653.992 13.4279C656.593 13.8009 658.079 15.293 661.051 15.293C658.636 14.547 662.908 18.8366 662.722 18.8366C663.094 19.2096 664.765 18.6501 664.765 18.6501C665.137 18.8366 665.323 19.0231 665.508 19.2096C666.437 19.9557 665.137 19.9557 665.508 19.2096C665.508 19.0231 665.694 18.8366 666.066 18.6501C667.18 17.7176 672.938 19.3961 670.338 20.7017C678.882 18.6501 684.268 19.5826 693.184 15.666C693.555 16.412 690.769 17.3445 692.627 17.531C697.084 12.1224 704.7 19.2096 709.529 14.92C710.272 14.92 710.272 16.039 710.458 16.5985C711.572 13.9874 713.429 15.293 716.401 14.3604C717.887 14.3604 715.658 16.2255 715.287 16.9715C717.701 17.1581 719.187 14.547 721.788 13.9874C726.617 15.8525 731.632 14.92 737.576 14.547C737.947 15.4795 738.69 15.4795 739.805 16.785C743.148 14.92 743.148 17.3445 744.634 17.531C753.549 15.8525 774.538 12.4954 783.825 17.158C784.754 16.9715 786.983 15.1065 787.168 16.2255C788.097 15.8525 786.983 15.666 786.983 15.1065C796.456 15.8525 806.3 9.13829 813.915 10.4438C813.358 11.1899 809.643 11.7494 809.272 11.3764C809.086 11.9359 808.714 12.4954 807.971 12.6819C809.272 13.9874 811.686 12.3089 810.2 14.92C815.958 11.7494 820.045 16.2255 825.06 13.0549C826.545 12.6819 828.96 14.547 827.288 15.293C830.446 15.8525 833.975 12.1224 837.133 10.8168C838.433 11.1898 838.247 13.2414 840.662 12.3089C840.29 12.8684 839.547 13.2414 838.804 13.6144C839.362 13.9874 845.677 11.5628 844.005 10.0708C844.934 10.8168 847.906 10.6303 848.834 9.69777C850.134 11.9358 845.862 10.0708 846.977 12.3089C847.72 11.5628 851.992 10.2573 851.249 13.2414C854.221 11.0034 862.208 10.4438 864.622 9.69777C869.452 7.83271 873.724 9.32478 879.296 12.1224C879.296 12.6819 878.553 12.6819 877.996 12.8684C884.311 14.174 885.054 10.0708 892.112 10.4438C891.74 11.3764 890.812 11.7494 889.511 11.9359C888.397 13.4279 893.598 11.1899 894.155 10.2573C895.455 11.3764 896.57 11.1899 895.827 13.0549C897.127 12.6819 896.941 11.3763 898.427 11.0033C899.542 11.1898 898.241 11.7494 898.613 12.8684C904.371 12.4954 918.673 8.01926 917.93 14.174C924.802 13.4279 928.703 15.666 933.904 15.8525C933.718 15.293 933.161 14.92 932.603 14.7335C936.318 14.1739 939.661 10.2573 945.048 9.32478C950.806 8.39225 959.907 13.2414 962.693 6.52716C963.436 6.90017 964.365 7.08669 965.479 6.90018C965.851 5.78114 967.522 6.34068 966.037 5.03513C968.451 4.66212 972.537 6.34068 975.695 4.84863C978.11 8.95176 987.397 4.47561 989.068 8.01922C990.183 6.71368 995.384 2.98358 996.498 6.7137C997.055 3.91611 1007.64 5.03513 1001.51 8.20573C1002.63 8.39223 1005.97 5.59465 1007.27 4.1026C1009.69 4.47561 1007.46 5.40812 1008.94 6.34065C1009.87 3.72957 1010.61 7.45971 1014.33 4.66212C1014.14 5.96766 1017.67 6.15418 1018.23 8.57876C1021.39 5.96767 1021.76 7.45972 1026.22 6.15417C1027.33 8.20574 1035.5 11.3763 1038.66 7.45969C1047.21 11.5628 1057.98 10.8168 1066.89 8.01922C1070.98 7.83271 1075.81 11.1898 1081.38 8.57876C1082.31 8.57876 1082.12 9.69777 1081.57 9.69777C1086.58 9.69777 1096.24 8.95178 1099.21 13.0549C1103.3 9.13829 1119.46 12.8684 1125.03 9.69777C1136.55 11.0033 1144.9 15.4795 1159.02 12.3089C1161.06 13.8009 1159.95 14.3604 1159.39 15.8525C1167.38 11.9359 1178.52 13.0549 1183.72 18.0906C1183.35 17.7175 1182.98 17.158 1182.8 16.412C1189.48 17.5311 1198.21 18.8366 1204.71 21.8207C1207.31 17.1581 1215.49 19.3961 1219.2 16.412C1222.92 20.5152 1237.59 20.1422 1245.39 17.9041C1245.95 20.8882 1253.93 17.7176 1257.28 19.3961C1256.72 18.2771 1267.68 16.785 1270.84 18.2771C1271.02 17.1581 1270.09 17.158 1269.35 17.158C1276.59 14.547 1281.05 14.5469 1288.3 13.8009C1287.74 14.3604 1287.74 15.293 1287.93 16.2255C1288.48 13.9874 1294.43 12.6819 1294.05 15.1065C1295.35 14.92 1294.8 13.4279 1296.65 13.6144C1297.95 15.293 1300.74 15.4795 1301.86 17.3446C1303.53 16.785 1304.08 16.5985 1306.5 15.666C1308.36 15.666 1305.76 16.785 1306.68 18.0906C1313 17.531 1320.06 13.8009 1321.73 16.785C1323.03 16.5985 1323.96 16.039 1326 17.7176C1326 17.1581 1325.82 16.5985 1325.82 15.8525C1329.72 20.3286 1335.85 17.7175 1342.53 17.531C1343.28 17.531 1343.28 18.6501 1343.46 19.2096C1352.5 22.5152 1355.1 13.1901 1361.6 10.579C1362.53 10.3925 1362.16 11.698 1361.42 12.2575C1361.04 12.2575 1360.67 12.4441 1360.49 12.4441C1360.86 12.6306 1361.23 12.4441 1361.42 12.2575C1367.55 10.952 1373.3 12.8171 1379.06 12.6306C1379.43 14.3091 1377.76 14.6822 1378.13 16.3607C1379.43 17.2933 1380.18 15.9877 1381.48 15.4282C1381.29 15.9877 1380.92 16.5472 1380.18 16.7337C1380.55 18.9718 1385.56 15.0552 1385.93 18.5988C1390.95 16.7337 1397.26 25.4995 1403.08 17.3448C1408.1 19.5829 1415.34 17.7178 1420.73 15.8527C1423.89 18.2773 1429.09 19.0234 1430.57 18.6504C1432.06 22.194 1435.22 12.8687 1437.45 16.9718C1438.19 12.8687 1443.2 16.2258 1443.95 13.9877C1444.69 13.9877 1444.69 15.1067 1444.88 15.6662C1451.75 12.4956 1458.06 22.194 1464.38 18.6504C1467.91 22.194 1470.88 11.9362 1475.52 12.3092C1475.71 13.6147 1475.15 14.3607 1473.67 14.3607C1475.52 16.0392 1482.58 13.2417 1475.71 14.1742C1476.27 13.4282 1476.45 12.4956 1476.08 11.1901C1477.38 11.1901 1476.64 13.2417 1477.75 13.4282C1479.61 9.69806 1485 18.4638 1489.08 18.2773C1488.15 19.0234 1487.6 12.4956 1485.92 12.6822C1493.35 12.1226 1501.53 10.4441 1509.33 13.0552C1510.26 12.4956 1511.37 19.7694 1511.19 18.2773C1512.11 19.5829 1513.79 14.1742 1515.46 12.6822C1513.97 13.6147 1516.39 13.9877 1514.9 14.5472C1518.8 13.0552 1520.66 17.1583 1526.6 15.2932C1527.72 15.4797 1526.79 15.8528 1526.04 16.0393C1535.52 21.6345 1551.49 7.6465 1564.31 13.9877C1569.32 12.1226 1575.08 13.9877 1579.91 12.1226C1577.68 15.4797 1587.52 9.69806 1591.05 13.6147C1590.31 11.7496 1592.35 12.4956 1592.35 13.4282C1593.28 13.0552 1592.35 12.3092 1591.61 12.3092C1591.98 11.7496 1592.73 11.3766 1593.47 11.0036C1593.84 11.7496 1594.58 13.0552 1597.74 12.4956C1597 13.2417 1597.18 14.7337 1597.37 16.2258C1598.48 18.0908 1597.74 13.9877 1597.74 13.2417C1606.47 10.0711 1610.37 16.5988 1615.76 15.2932C1616.31 16.7853 1614.46 16.5988 1613.9 17.3448C1614.46 18.6503 1617.24 19.0234 1618.17 18.2773C1617.8 17.3448 1617.06 18.8369 1616.69 17.7178C1616.69 16.9718 1617.99 17.1583 1617.99 16.4123C1621.52 17.9043 1622.82 17.9043 1626.9 16.7853C1628.02 17.5313 1628.94 18.6503 1629.32 20.1424C1632.29 19.9559 1628.57 18.6503 1628.94 17.1583C1632.29 20.7019 1634.7 17.5313 1637.12 22.567C1637.86 21.6344 1638.23 20.7019 1639.16 22.3805C1640.09 22.0075 1638.79 21.6344 1638.97 20.5154C1641.2 20.1424 1640.09 23.4995 1643.25 22.0075C1643.25 23.1265 1641.02 22.567 1640.65 23.4995C1639.35 25.5511 1644.55 21.2614 1645.48 23.1265C1646.4 22.94 1645.85 21.6345 1645.85 20.7019C1646.59 21.0749 1647.15 22.3805 1647.33 21.2614C1648.45 21.4479 1647.15 22.0074 1647.52 23.1265C1648.82 22.7535 1647.89 20.7019 1650.12 21.0749C1651.79 21.0749 1649.56 22.7535 1649 22.94C1650.12 22.94 1653.65 19.9559 1654.02 17.7178C1654.95 19.0234 1657.36 18.6503 1657.73 20.5154C1658.66 19.5829 1656.81 17.5313 1660.15 17.3448C1660.71 19.0234 1660.89 16.9718 1661.64 19.0233C1662.19 17.1583 1664.24 19.0234 1662.75 17.1583C1664.05 16.7853 1664.98 17.1583 1664.98 18.2773C1666.09 17.5313 1667.02 16.5988 1668.14 15.6662C1670.92 16.2258 1671.85 17.7178 1675.01 16.2258C1675.75 18.8368 1673.52 15.8528 1673.71 17.5313C1676.68 20.3289 1680.95 17.9043 1682.44 21.6344C1690.05 18.6503 1702.31 19.9559 1705.1 14.1742C1706.03 14.3607 1705.84 15.6662 1706.03 16.5988C1707.7 15.1067 1709 13.6147 1711.79 13.0552C1708.26 15.2932 1716.8 13.4282 1717.17 11.9361C1718.1 12.1226 1717.91 13.4282 1718.1 14.3607C1719.77 13.9877 1721.44 11.3766 1725.53 13.0552C1726.27 12.8687 1725.9 11.9361 1726.09 11.1901C1727.39 12.8686 1735 8.95203 1737.79 11.9361C1739.46 10.8171 1739.65 10.2575 1741.5 8.57899C1742.25 8.952 1742.62 9.51154 1742.99 10.2576C1737.79 10.6306 1744.48 13.0551 1741.5 15.2932C1742.8 16.0392 1744.85 12.4956 1745.03 10.8171C1746.33 12.3091 1748 13.4282 1748.93 15.2932C1753.76 15.4797 1759.52 12.8686 1761.94 9.32502C1764.91 8.95201 1766.76 11.0036 1770.11 9.13851C1771.22 11.5631 1771.41 13.8012 1770.11 15.8527C1769.74 17.5313 1772.15 12.3091 1773.08 11.3766C1774.01 13.0552 1776.79 12.3091 1777.35 12.8687C1778.09 12.6822 1777.72 11.7496 1777.91 11.0036C1779.39 10.6306 1780.51 11.0036 1780.69 11.9361C1781.62 11.7496 1781.07 10.4441 1781.07 9.51153C1782 9.69804 1782.92 10.2575 1783.3 11.1901C1784.22 9.88454 1787.57 8.01949 1786.82 11.5631C1789.42 11.7496 1787.38 8.57899 1789.24 8.39248C1791.47 9.1385 1787.01 10.8171 1789.61 11.9361C1790.35 11.3766 1789.42 10.071 1790.72 8.7655C1791.65 8.952 1791.84 9.69803 1792.95 9.88454C1793.33 11.3766 1789.8 9.88455 1791.1 11.9361C1792.4 10.4441 1793.33 12.3091 1794.44 11.0036C1792.77 13.2416 1794.25 12.6821 1794.81 15.2932C1795 11.9361 1802.61 12.4957 1800.94 14.1742C1802.06 15.1067 1802.98 11.3766 1804.1 12.1226C1805.21 12.3091 1803.91 12.8687 1804.28 13.9877C1805.77 14.1742 1806.88 10.0711 1807.63 13.0552C1808.37 12.8687 1808 11.9361 1808.18 11.1901C1808.93 11.1901 1808.93 12.3091 1809.11 12.8687C1810.04 11.9361 1810.97 10.8171 1812.27 10.2576C1813.2 10.4441 1813.01 11.7496 1813.2 12.6822C1813.94 12.4956 1813.57 11.5631 1813.76 10.8171C1815.8 11.1901 1814.69 11.5631 1814.69 13.2417C1817.1 12.8687 1815.99 10.0711 1819.14 10.4441C1817.47 13.8012 1819.14 10.6306 1822.11 11.9361C1820.26 9.69804 1823.23 12.4956 1822.67 10.071C1824.34 11.7496 1826.39 22.0072 1830.1 22.1937C1839.2 17.7176 1848.86 15.4795 1853.51 10.4438C1862.98 9.5113 1867.99 8.95174 1877.28 7.27319C1877.09 8.57874 1873.94 7.83272 1872.64 8.20573C1884.34 7.83272 1894.93 5.22162 1909.6 6.34065C1911.46 6.34065 1908.86 7.45972 1909.78 8.76527C1911.27 8.01924 1911.83 6.52715 1913.69 5.96764C1914.06 7.45969 1911.08 6.7137 1911.83 8.57876C1913.69 7.08671 1918.7 6.71367 1920 6.52716Z" fill="#F6F6F6"/>
<!-- <path d="M588.612 17.9041C588.612 18.2771 588.612 18.6501 588.055 18.6501C587.869 15.4795 590.655 17.7175 591.584 19.0231C589.355 19.5826 589.726 17.9041 588.612 17.9041Z"/>
<path d="M1334.17 87.1336C1334.17 86.7606 1334.17 86.3876 1334.73 86.3876C1334.92 89.5582 1332.13 87.3201 1331.2 86.0146C1333.43 85.2685 1333.25 86.9471 1334.17 87.1336Z"/>
<path d="M1501.71 85.082C1504.87 84.1495 1503.2 84.8955 1504.87 83.0305C1504.5 85.2685 1507.84 82.844 1508.96 82.6574C1509.7 84.5225 1508.03 84.5225 1507.84 85.8281C1505.8 86.3876 1504.31 84.709 1505.8 86.5741C1504.13 86.5741 1503.76 87.6931 1502.46 88.0661C1502.64 85.6415 1503.57 86.0146 1501.71 85.082Z"/>
<path d="M421.074 19.9556C417.916 20.8882 419.588 20.1421 417.916 22.0072C418.288 19.7691 414.944 22.1937 413.83 22.3802C413.087 20.5152 414.759 20.5152 414.944 19.2096C416.988 18.6501 418.473 20.3286 416.988 18.4636C418.659 18.4636 419.031 17.3446 420.331 16.9715C420.331 19.2096 419.402 19.0231 421.074 19.9556Z"/> -->
</svg>
