<svg width="133" height="76" viewBox="0 0 133 76" fill="none" xmlns="http://www.w3.org/2000/svg">
<path d="M117.976 50.9341L113.294 46.2581L108.612 50.9341L113.293 60.7098L117.976 50.9341Z" fill="white"/>
<path d="M113.294 19.366C111.497 19.366 110.041 20.823 110.041 22.6197C110.041 24.4164 111.498 25.8723 113.294 25.8723C115.09 25.8723 116.547 24.4152 116.547 22.6197C116.547 20.823 115.09 19.366 113.294 19.366Z" fill="white"/>
<path d="M117.466 35.9916L113.294 31.8116L109.122 35.9916C108.909 35.4117 106.113 27.845 106.113 22.9086C106.113 16.2492 112.792 12.5184 113.294 12.2446C113.796 12.5184 120.475 16.2492 120.475 22.9086C120.475 27.845 117.68 35.4117 117.466 35.9916ZM113.294 4.76514C112.303 5.27241 99.3506 12.1161 99.3506 23.0527C99.3506 32.4071 106.974 46.594 106.974 46.594L113.294 40.2632L119.614 46.594C119.614 46.594 127.237 32.4071 127.237 23.0527C127.237 12.1173 114.284 5.27241 113.293 4.76514H113.294Z" fill="white"/>
<path d="M127.238 9.53095L122.473 4.76547L127.238 0L132.003 4.76436V4.76547L127.238 9.53095Z" fill="white"/>
<path d="M82.2395 9.64722C82.2395 10.6394 81.7903 11.2171 81.0115 11.2171C80.2327 11.2171 79.7847 10.6059 79.7847 9.64722H75.751C75.8638 12.6026 77.5723 14.5971 81.073 14.5971C84.3022 14.5971 86.1458 12.5478 86.271 9.64722H82.2395V9.64722Z" fill="white"/>
<path d="M73.708 29.5693L73.7102 15.6807H78.3708C78.3708 15.6807 78.3685 21.673 78.3685 22.1467C78.3685 22.6194 78.2691 23.1579 78.2691 23.1579H78.4702L83.5431 15.6807H88.0014V29.5693H83.3408V23.0428C83.3408 22.5769 83.4425 22.1344 83.4425 22.1344H83.2403L78.1674 29.5693H73.708Z" fill="white"/>
<path d="M64.0936 25.6061C65.783 25.6061 66.9093 24.291 66.9093 22.644C66.9093 20.9546 65.783 19.6417 64.0936 19.6417C62.4466 19.6417 61.2789 20.9557 61.2789 22.644C61.2789 24.291 62.4466 25.6061 64.0936 25.6061ZM64.0936 15.3254C68.5161 15.3254 71.8146 18.4518 71.8146 22.644C71.8146 26.795 68.5172 29.9235 64.0936 29.9235C59.7146 29.9235 56.415 26.795 56.415 22.644C56.415 18.4518 59.7146 15.3254 64.0936 15.3254V15.3254Z" fill="white"/>
<path d="M50.8319 15.6775C50.8319 15.6775 46.9401 20.7368 46.7826 20.9279C46.5904 21.1648 46.5747 21.2921 46.5747 21.2921H46.3725C46.3725 21.2921 46.3345 21.1547 46.1513 20.9279C45.8775 20.5882 41.8449 15.6775 41.8449 15.6775H38.1699V29.565H42.6617V23.7347C42.6617 23.1056 42.5601 22.7235 42.5601 22.7235H42.7623L46.3736 26.8722H46.568L49.9146 22.7235H50.1157C50.1157 22.7235 50.0151 23.1011 50.0151 23.7347V29.565H54.508V15.6775H50.8308H50.8319Z" fill="white"/>
<path d="M7.69753 44.3609C4.59126 44.3609 2.81129 41.505 2.81129 38.2468C3.5454 36.3495 5.82818 34.8188 7.75228 34.8188C10.5647 34.8188 12.3581 36.5685 12.3581 39.5608C12.3581 42.3396 10.33 44.3609 7.69753 44.3609V44.3609ZM0.00223473 37.2289V37.2769C0.00782156 42.5497 2.64257 46.7073 7.68971 46.7073C12.3335 46.7073 15.1559 43.0815 15.1559 39.4379C15.1559 35.2344 12.4631 32.5014 8.37019 32.5014C6.02037 32.5014 3.56216 33.8065 2.66603 35.754L2.53754 35.7529C2.5867 35.5506 2.67162 35.3506 2.68503 35.1585C2.90292 32.1662 4.09738 29.7851 6.41256 28.9617C7.86849 28.4432 9.31324 28.2343 10.4138 28.0007C11.5916 27.7505 12.8005 27.4577 13.5101 27.2465L12.7257 24.8945C11.4351 25.2498 10.234 25.508 8.21264 25.9203C7.35897 26.0946 6.42597 26.2443 5.3343 26.7046C1.63247 28.2633 0.00558683 31.3729 0 37.2311L0.00223473 37.2289Z" fill="white"/>
<path d="M19.8569 42.2972C19.8569 42.2972 19.8043 42.2961 19.7295 42.2961C19.7898 42.076 19.8569 41.7497 19.8569 41.4279V32.3484H17.0869V46.2359H19.5719L27.5063 36.2524H27.636C27.5723 36.4703 27.5063 36.8379 27.5063 37.1563V46.2359H30.2785V32.3484H27.7935L19.858 42.2983L19.8569 42.2972Z" fill="white"/>
<path d="M40.8201 39.1147V39.0532C42.4593 38.4666 43.2615 37.385 43.2615 35.7772C43.2615 33.4587 41.3765 31.967 38.0378 31.967C36.1193 31.967 34.0991 32.5 32.4343 33.7738L33.5259 35.7437C34.7718 34.7649 36.364 34.2788 37.6669 34.2788C39.4904 34.2788 40.4715 35.0341 40.4715 36.2699C40.4715 37.3828 39.6133 38.1661 38.2233 38.1661H36.0288V40.3248H38.3775C40.0782 40.3248 40.9274 40.9058 40.9274 42.05C40.9274 43.4098 39.5586 44.3372 37.4848 44.3372C36.0232 44.3372 34.3103 43.7081 33.1985 42.812L32.1035 44.812C33.3114 45.9059 35.3942 46.7059 37.8211 46.7059C41.1575 46.7059 43.7096 44.9551 43.7096 42.3896C43.7096 40.689 42.6738 39.3292 40.819 39.1136L40.8201 39.1147Z" fill="white"/>
<path d="M55.8624 38.0443H48.4096V32.3469H45.6396V46.2344H48.4096V40.2019H55.8624V46.2344H58.6357V32.3469H55.8624V38.0443Z" fill="white"/>
<path d="M63.4594 38.1184C63.8114 35.9675 65.3846 34.2982 67.4517 34.2982C69.958 34.2982 71.1748 35.982 71.3938 38.1184H63.4583H63.4594ZM67.3165 31.9685C63.2326 31.9685 60.5654 35.1786 60.5654 39.41C60.5654 43.5878 63.2471 46.7063 68.1143 46.7063C70.463 46.7063 72.462 45.9856 73.9023 44.8124L72.8084 42.8123C71.7413 43.6123 70.1155 44.3576 68.1959 44.3576C65.1567 44.3576 63.6873 42.7051 63.4203 40.2782H63.4292H74.0431C74.0721 39.9933 74.0889 39.7061 74.0889 39.41C74.0889 35.1775 72.0441 31.9685 67.3165 31.9685V31.9685Z" fill="white"/>
<path d="M83.6265 44.3026C80.7985 44.3026 78.7168 42.1775 78.7168 39.1606C78.7168 36.584 80.3772 34.3404 83.4679 34.3404C84.8724 34.3404 86.2881 34.7125 87.9139 35.7583C87.9139 35.7583 88.62 34.4879 89.0402 33.718C87.3764 32.5381 85.4545 31.9526 83.3941 31.9526C78.9202 31.9526 75.9189 35.0935 75.9189 39.3249C75.9189 43.4479 78.9112 46.7061 83.4399 46.7061C85.6601 46.7061 87.5976 46.0681 89.0368 44.8948L87.9418 42.8948C86.8747 43.6948 85.3316 44.3015 83.6265 44.3015V44.3026Z" fill="white"/>
<path d="M36.999 58.8282H36.5923L36.485 57.8214H32.9072V52.3599H33.4983V57.2449H35.7442V52.3599H36.3364V57.2449H36.999V58.8282V58.8282ZM40.1846 57.5097C40.0416 57.6348 39.8628 57.7332 39.6461 57.8058C39.4293 57.8784 39.2002 57.9153 38.9578 57.9153C38.6874 57.9153 38.4516 57.8673 38.2527 57.7712C38.0538 57.6751 37.8896 57.5376 37.7611 57.3577C37.6326 57.1779 37.5376 56.9633 37.4761 56.7142C37.4147 56.4639 37.3834 56.1834 37.3834 55.8717C37.3834 55.2057 37.5186 54.6985 37.789 54.3499C38.0605 54.0012 38.4471 53.8269 38.9511 53.8269C39.1131 53.8269 39.274 53.8471 39.436 53.885C39.598 53.9241 39.7422 53.9979 39.8707 54.1074C39.9991 54.2169 40.1031 54.3711 40.1846 54.5722C40.2651 54.7722 40.3064 55.0359 40.3064 55.3644C40.3064 55.5365 40.2919 55.7264 40.264 55.9343H37.9756C37.9756 56.1633 37.9968 56.3655 38.0404 56.5432C38.0829 56.7197 38.1499 56.8695 38.2393 56.9924C38.3298 57.1142 38.4471 57.208 38.5924 57.2728C38.7376 57.3376 38.9142 57.37 39.1231 57.37C39.2852 57.37 39.4461 57.3388 39.6081 57.2762C39.7701 57.2136 39.8908 57.141 39.9723 57.0583L40.1857 57.5108L40.1846 57.5097ZM38.9589 54.3733C38.6784 54.3733 38.4538 54.4538 38.2851 54.6147C38.1164 54.7756 38.0158 55.0515 37.9823 55.4415H39.75C39.75 55.046 39.6807 54.7689 39.5433 54.6102C39.4058 54.4515 39.2103 54.3722 38.9589 54.3722V54.3733ZM43.3848 56.0974H41.7735V57.8214H41.2037V53.9197H41.7735V55.551H43.3848V53.9197H43.9546V57.8214H43.3848V56.0974V56.0974ZM47.3257 54.4661H46.2072V57.8214H45.6374V54.4661H44.5189V53.9197H47.3268V54.4661H47.3257ZM47.8889 53.9197H48.2811L48.3883 54.3878H48.4174C48.5269 54.2057 48.6677 54.066 48.8409 53.97C49.0141 53.8739 49.2129 53.8258 49.4364 53.8258C49.9113 53.8258 50.2655 53.9789 50.4979 54.2862C50.7303 54.5934 50.8465 55.0951 50.8465 55.7923C50.8465 56.1197 50.8074 56.4147 50.7292 56.6784C50.6499 56.941 50.5404 57.1633 50.3974 57.3455C50.2543 57.5276 50.0823 57.6684 49.88 57.7667C49.6778 57.865 49.4543 57.9153 49.2062 57.9153C49.0308 57.9153 48.8911 57.9041 48.7895 57.8807C48.6867 57.8572 48.5772 57.817 48.4576 57.76V59.3824H47.8877V53.9208L47.8889 53.9197ZM49.3292 54.3722C49.0867 54.3722 48.8956 54.4415 48.7548 54.5789C48.6152 54.7163 48.5157 54.9264 48.4598 55.2069V57.1421C48.5448 57.2147 48.6431 57.2706 48.7515 57.3097C48.861 57.3488 49.0062 57.3678 49.1861 57.3678C49.5135 57.3678 49.7739 57.2337 49.9661 56.9656C50.1582 56.6974 50.2543 56.3041 50.2543 55.7834C50.2543 55.57 50.2376 55.3756 50.2041 55.2024C50.1705 55.0281 50.118 54.8806 50.0443 54.7577C49.9705 54.6359 49.8755 54.5398 49.7593 54.4728C49.6431 54.4046 49.499 54.3711 49.328 54.3711L49.3292 54.3722ZM55.7931 54.4661H54.2187V57.8214H53.6489V53.9197H56.3641V57.8214H55.7942V54.4661H55.7931ZM57.2613 55.8706C57.2613 55.2102 57.3954 54.7041 57.6636 54.3532C57.9317 54.0024 58.3184 53.8269 58.8212 53.8269C59.0871 53.8269 59.3195 53.875 59.5162 53.9711C59.7128 54.0672 59.876 54.2046 60.0045 54.3845C60.133 54.5644 60.2279 54.78 60.2894 55.0326C60.3508 55.2851 60.3821 55.5644 60.3821 55.8717C60.3821 56.532 60.2481 57.0382 59.9788 57.389C59.7106 57.7399 59.324 57.9153 58.8212 57.9153C58.5552 57.9153 58.3228 57.8673 58.1262 57.7712C57.9295 57.6751 57.7664 57.5376 57.6379 57.3577C57.5094 57.1779 57.4144 56.9622 57.353 56.7097C57.2915 56.4572 57.2602 56.1778 57.2602 55.8706H57.2613ZM57.8524 55.8706C57.8524 56.0683 57.8703 56.2583 57.906 56.4404C57.9418 56.6225 57.9977 56.7812 58.0737 56.9164C58.1496 57.0516 58.2491 57.1611 58.3731 57.2438C58.4971 57.3265 58.6469 57.3678 58.8223 57.3678C59.4692 57.3734 59.7922 56.8739 59.7922 55.8694C59.7922 55.6672 59.7743 55.4739 59.7385 55.2918C59.7028 55.1097 59.6469 54.951 59.5709 54.8158C59.4949 54.6806 59.3955 54.5722 59.2715 54.4918C59.1486 54.4113 58.9977 54.3711 58.8223 54.3711C58.1765 54.3655 57.8535 54.865 57.8535 55.8694L57.8524 55.8706ZM64.3879 58.8125H64.0035L63.8963 57.8214H61.2157L61.1084 58.8125H60.7229V57.2751H61.1442C61.1822 57.2181 61.2324 57.1153 61.2939 56.9667C61.3554 56.8181 61.4168 56.6102 61.476 56.3421C61.5353 56.0739 61.5878 55.7409 61.6325 55.3432C61.6772 54.9454 61.7051 54.4705 61.714 53.9186H63.8661V57.2739H64.3868V58.8114L64.3879 58.8125ZM63.2973 57.2751V54.4661H62.228C62.2191 54.6851 62.2023 54.9231 62.1789 55.18C62.1554 55.437 62.123 55.6951 62.0828 55.9521C62.0425 56.2102 61.9911 56.4527 61.9297 56.6818C61.8682 56.9108 61.7967 57.1086 61.7152 57.2751H63.2973V57.2751ZM68.4573 58.8125H68.073L67.9657 57.8214H65.2851L65.1779 58.8125H64.7924V57.2751H65.2136C65.2516 57.2181 65.3008 57.1153 65.3634 56.9667C65.4248 56.8181 65.4863 56.6102 65.5455 56.3421C65.6047 56.0739 65.6572 55.7409 65.7019 55.3432C65.7466 54.9454 65.7745 54.4705 65.7835 53.9186H67.9355V57.2739H68.4562V58.8114L68.4573 58.8125ZM67.3668 57.2751V54.4661H66.2975C66.2885 54.6851 66.2718 54.9231 66.2483 55.18C66.2248 55.437 66.1924 55.6951 66.1522 55.9521C66.112 56.2102 66.0606 56.4527 65.9991 56.6818C65.9377 56.9108 65.8662 57.1086 65.7846 57.2751H67.3668V57.2751ZM71.7647 57.5086C71.6217 57.6337 71.4429 57.7321 71.2262 57.8047C71.0094 57.8773 70.7803 57.9142 70.5379 57.9142C70.2664 57.9142 70.0317 57.8661 69.8328 57.7701C69.6328 57.674 69.4697 57.5365 69.3412 57.3566C69.2127 57.1767 69.1177 56.9622 69.0562 56.713C68.9948 56.4628 68.9635 56.1823 68.9635 55.8706C68.9635 55.2046 69.0987 54.6974 69.3691 54.3487C69.6395 54.0001 70.0272 53.8258 70.5312 53.8258C70.6932 53.8258 70.8541 53.8459 71.0161 53.8839C71.1781 53.923 71.3223 53.9968 71.4508 54.1063C71.5793 54.2158 71.6832 54.37 71.7647 54.5711C71.8452 54.7711 71.8854 55.0348 71.8854 55.3633C71.8854 55.5354 71.8709 55.7253 71.843 55.9331H69.5546C69.5546 56.1622 69.5758 56.3644 69.6194 56.5421C69.6619 56.7186 69.7289 56.8683 69.8183 56.9913C69.9088 57.113 70.0261 57.2069 70.1714 57.2717C70.3166 57.3365 70.4932 57.3689 70.7021 57.3689C70.8641 57.3689 71.025 57.3376 71.1871 57.2751C71.3491 57.2125 71.4698 57.1399 71.5513 57.0572L71.7647 57.5097V57.5086ZM70.539 54.3722C70.2585 54.3722 70.0339 54.4527 69.8652 54.6135C69.6965 54.7744 69.5959 55.0504 69.5624 55.4404H71.3301C71.3301 55.0448 71.2608 54.7677 71.1234 54.6091C70.9859 54.4504 70.7904 54.3711 70.539 54.3711V54.3722ZM72.7838 53.9197H73.176L73.2832 54.3878H73.3123C73.4218 54.2057 73.5626 54.066 73.7358 53.97C73.909 53.8739 74.1079 53.8258 74.3313 53.8258C74.8062 53.8258 75.1604 53.9789 75.3928 54.2862C75.6252 54.5934 75.7414 55.0951 75.7414 55.7923C75.7414 56.1197 75.7023 56.4147 75.6241 56.6784C75.5448 56.941 75.4353 57.1633 75.2923 57.3455C75.1492 57.5276 74.9772 57.6684 74.7749 57.7667C74.5727 57.865 74.3481 57.9153 74.1011 57.9153C73.9257 57.9153 73.7861 57.9041 73.6844 57.8807C73.5816 57.8572 73.4721 57.817 73.3525 57.76V59.3824H72.7827V53.9208L72.7838 53.9197ZM74.2241 54.3722C73.9816 54.3722 73.7905 54.4415 73.6497 54.5789C73.5101 54.7163 73.4106 54.9264 73.3547 55.2069V57.1421C73.4397 57.2147 73.538 57.2706 73.6464 57.3097C73.7559 57.3488 73.9011 57.3678 74.081 57.3678C74.4084 57.3678 74.6688 57.2337 74.861 56.9656C75.0531 56.6974 75.1492 56.3041 75.1492 55.7834C75.1492 55.57 75.1325 55.3756 75.1001 55.2024C75.0666 55.0281 75.0129 54.8806 74.9392 54.7577C74.8654 54.6359 74.7705 54.5398 74.6542 54.4728C74.538 54.4046 74.3939 54.3711 74.2229 54.3711L74.2241 54.3722ZM77.7594 56.0963L76.7113 57.8203H76.0554L77.1817 56.0337L77.4242 55.7991L77.0611 55.503L76.1348 53.9186H76.7404L77.7248 55.6046H78.0957V53.9186H78.6511V55.6817L78.9863 55.5722L79.9774 53.9174H80.5763L79.6075 55.5018L79.3293 55.7521L79.6924 56.0639L80.7472 57.8192H80.0701L79.022 56.0639H78.6511V57.8192H78.0957V55.9856L77.7605 56.0951L77.7594 56.0963ZM82.1931 56.065H81.8657V57.8203H81.2959V53.9186H81.8657V55.6817L82.1719 55.5722L83.3127 53.9174H83.9329L82.8278 55.4862L82.5283 55.7432L82.8993 56.0549L84.0893 57.8181H83.3831L82.1931 56.0627V56.065ZM86.9263 55.5108L86.9475 55.027H86.9263L86.6335 55.5264L85.0301 57.8203H84.7027V53.9186H85.2726V56.2985L85.2513 56.7589H85.2804L85.5586 56.275L87.162 53.9186H87.4972V57.8203H86.9274V55.5108H86.9263Z" fill="white"/>
<path d="M19.6413 62.6507H18.0043V66.0061H17.4121V62.1044H20.2346V66.0061H19.6413V62.6507V62.6507ZM21.3754 62.1044H21.7832L21.8939 62.5725H21.924C22.038 62.3904 22.1844 62.2507 22.3643 62.1546C22.5442 62.0585 22.7509 62.0105 22.9822 62.0105C23.4761 62.0105 23.8437 62.1636 24.0861 62.4708C24.3286 62.7781 24.4493 63.2798 24.4493 63.977C24.4493 64.3044 24.4079 64.5994 24.3275 64.8631C24.2459 65.1257 24.1308 65.348 23.9833 65.5301C23.8347 65.7123 23.6559 65.8531 23.4459 65.9514C23.2358 66.0497 23.0023 66.1 22.7453 66.1C22.562 66.1 22.4179 66.0888 22.3118 66.0653C22.2056 66.0419 22.0905 66.0017 21.9676 65.9447V67.5671H21.3754V62.1055V62.1044ZM22.8716 62.5569C22.6202 62.5569 22.4213 62.6262 22.2749 62.7636C22.1296 62.901 22.0268 63.1111 21.9676 63.3915V65.3268C22.0559 65.3994 22.1576 65.4553 22.2704 65.4944C22.3844 65.5335 22.5352 65.5525 22.7229 65.5525C23.0637 65.5525 23.3341 65.4184 23.5342 65.1502C23.7342 64.8821 23.8347 64.4888 23.8347 63.9681C23.8347 63.7547 23.818 63.5603 23.7833 63.3871C23.7487 63.2128 23.6928 63.0653 23.6168 62.9424C23.5397 62.8206 23.4414 62.7245 23.3207 62.6574C23.2001 62.5893 23.0503 62.5558 22.8727 62.5558L22.8716 62.5569ZM28.0874 65.6933C27.9388 65.8184 27.7522 65.9167 27.5276 65.9894C27.303 66.062 27.0639 66.0989 26.8125 66.0989C26.5309 66.0989 26.2862 66.0508 26.0795 65.9547C25.8728 65.8586 25.7018 65.7212 25.5689 65.5413C25.4348 65.3614 25.3365 65.1469 25.2728 64.8977C25.208 64.6474 25.1767 64.367 25.1767 64.0552C25.1767 63.3893 25.3175 62.882 25.599 62.5334C25.8806 62.1848 26.2829 62.0105 26.8069 62.0105C26.9745 62.0105 27.1421 62.0306 27.3109 62.0686C27.4785 62.1077 27.6293 62.1815 27.7623 62.291C27.8952 62.4005 28.0036 62.5547 28.0885 62.7558C28.1723 62.9558 28.2148 63.2195 28.2148 63.548C28.2148 63.72 28.2003 63.91 28.1701 64.1178H25.7924C25.7924 64.3469 25.8147 64.5491 25.8594 64.7268C25.9041 64.9033 25.9734 65.053 26.0672 65.1759C26.1611 65.2977 26.2829 65.3916 26.4337 65.4564C26.5846 65.5212 26.7678 65.5536 26.9857 65.5536C27.1533 65.5536 27.3209 65.5223 27.4896 65.4597C27.6572 65.3972 27.7835 65.3246 27.8673 65.2419L28.0897 65.6944L28.0874 65.6933ZM26.8136 62.5569C26.522 62.5569 26.2885 62.6373 26.113 62.7982C25.9376 62.9591 25.8326 63.2351 25.7979 63.6251H27.6349C27.6349 63.2295 27.5634 62.9524 27.4204 62.7938C27.2773 62.6351 27.0751 62.5558 26.8125 62.5558L26.8136 62.5569ZM32.2585 66.9972H31.8585L31.7479 66.0061H28.9623L28.8517 66.9972H28.4517V65.4597H28.8886C28.9277 65.4028 28.9802 65.3 29.0439 65.1514C29.1076 65.0028 29.1713 64.7949 29.2327 64.5268C29.2942 64.2586 29.3489 63.9256 29.3959 63.5279C29.4428 63.1301 29.4718 62.6552 29.4808 62.1032H31.7177V65.4586H32.2585V66.9961V66.9972ZM31.1255 65.4597V62.6507H30.0149C30.0048 62.8697 29.9881 63.1077 29.9624 63.3647C29.9378 63.6217 29.9043 63.8798 29.8618 64.1368C29.8205 64.3949 29.7668 64.6374 29.7031 64.8664C29.6394 65.0955 29.5646 65.2933 29.4808 65.4597H31.1255V65.4597ZM35.2218 62.6507H33.5849V66.0061H32.9927V62.1044H35.8151V66.0061H35.2229V62.6507H35.2218ZM36.9548 62.1044H37.3627L37.4733 62.5725H37.5035C37.6174 62.3904 37.7638 62.2507 37.9437 62.1546C38.1236 62.0585 38.3303 62.0105 38.5616 62.0105C39.0555 62.0105 39.4231 62.1636 39.6656 62.4708C39.908 62.7781 40.0287 63.2798 40.0287 63.977C40.0287 64.3044 39.9874 64.5994 39.9069 64.8631C39.8254 65.1257 39.7103 65.348 39.5628 65.5301C39.4142 65.7123 39.2354 65.8531 39.0253 65.9514C38.8153 66.0497 38.5817 66.1 38.3247 66.1C38.1415 66.1 37.9973 66.0888 37.8912 66.0653C37.785 66.0419 37.6711 66.0017 37.547 65.9447V67.5671H36.9537V62.1055L36.9548 62.1044ZM38.451 62.5569C38.1985 62.5569 38.0007 62.6262 37.8543 62.7636C37.7091 62.901 37.6063 63.1111 37.547 63.3915V65.3268C37.6353 65.3994 37.737 65.4553 37.8498 65.4944C37.9638 65.5335 38.1147 65.5525 38.3024 65.5525C38.6432 65.5525 38.9136 65.4184 39.1136 65.1502C39.3136 64.8821 39.4142 64.4888 39.4142 63.9681C39.4142 63.7547 39.3974 63.5603 39.3628 63.3871C39.3281 63.2128 39.2723 63.0653 39.1963 62.9424C39.1192 62.8206 39.0208 62.7245 38.9002 62.6574C38.7795 62.5893 38.6298 62.5558 38.4521 62.5558L38.451 62.5569ZM43.2735 63.6966L43.2959 63.2128H43.2735L42.9696 63.7122L41.3025 66.0061H40.9617V62.1044H41.5539V64.4843L41.5316 64.9446H41.5617L41.8511 64.4608L43.5182 62.1044H43.8657V66.0061H43.2735V63.6966V63.6966ZM47.2737 64.2821H45.5999V66.0061H45.0077V62.1044H45.5999V63.7357H47.2737V62.1044H47.8659V66.0061H47.2737V64.2821ZM51.3186 63.6966L51.3409 63.2128H51.3186L51.0147 63.7122L49.3475 66.0061H49.0067V62.1044H49.6001V64.4843L49.5777 64.9446H49.6079L49.8973 64.4608L51.5644 62.1044H51.913V66.0061H51.3208V63.6966H51.3186ZM56.1121 63.6888L56.1568 62.948H56.1199L55.8528 63.5491L54.9567 65.0787H54.75L53.8159 63.5491L53.5712 62.948H53.5421L53.6014 63.6809V66.0061H53.0527V62.1044H53.6382L54.6751 63.853L54.8897 64.3055H54.9042L55.1266 63.8374L56.0975 62.1044H56.6898V66.0061H56.1121V63.6888V63.6888ZM57.7714 62.3937C57.9591 62.2742 58.1781 62.1859 58.4273 62.1278C58.6764 62.0708 58.9368 62.0418 59.2083 62.0418C59.4653 62.0418 59.672 62.0775 59.8262 62.1513C59.9826 62.2239 60.1011 62.3189 60.1815 62.4362C60.2631 62.5535 60.3178 62.682 60.3447 62.8228C60.3715 62.9636 60.386 63.1033 60.386 63.2441C60.386 63.5558 60.3782 63.8597 60.3637 64.1569C60.3491 64.453 60.3413 64.7346 60.3413 64.9994C60.3413 65.1916 60.3491 65.3737 60.3637 65.5458C60.3782 65.7179 60.405 65.8754 60.4452 66.0218H60.0083L59.853 65.4754H59.8161C59.7726 65.548 59.7167 65.6195 59.6497 65.6899C59.5837 65.7603 59.5033 65.8229 59.4094 65.8776C59.3156 65.9324 59.2072 65.9782 59.0832 66.0139C58.9591 66.0497 58.8194 66.0687 58.6608 66.0687C58.5021 66.0687 58.3557 66.043 58.2194 65.9905C58.0842 65.938 57.9669 65.8642 57.8675 65.7681C57.7691 65.672 57.6909 65.5558 57.6339 65.4206C57.5769 65.2854 57.549 65.1312 57.549 64.9603C57.549 64.7312 57.5937 64.5402 57.682 64.3871C57.7714 64.234 57.8954 64.1111 58.0563 64.0206C58.2172 63.929 58.4094 63.8642 58.634 63.8251C58.8586 63.786 59.1066 63.767 59.3781 63.767C59.4474 63.767 59.5156 63.767 59.5815 63.767C59.6474 63.767 59.7156 63.7726 59.7849 63.7826C59.7994 63.6262 59.8072 63.4865 59.8072 63.3614C59.8072 63.0753 59.7525 62.8753 59.6441 62.7602C59.5357 62.6463 59.3379 62.5882 59.0519 62.5882C58.9681 62.5882 58.8776 62.5949 58.7815 62.6072C58.6854 62.6217 58.587 62.6396 58.4854 62.6641C58.3837 62.6876 58.2876 62.7178 58.196 62.7524C58.1043 62.7859 58.0239 62.825 57.9557 62.8686L57.7702 62.3926L57.7714 62.3937ZM58.8228 65.5223C58.9614 65.5223 59.0843 65.5022 59.1926 65.4642C59.301 65.4251 59.3949 65.3759 59.4742 65.3156C59.5536 65.2553 59.6184 65.1894 59.6709 65.1167C59.7223 65.0441 59.7603 64.9737 59.786 64.9055V64.2575C59.7167 64.2519 59.6463 64.2485 59.5748 64.2452C59.5033 64.243 59.4329 64.2407 59.3636 64.2407C59.2105 64.2407 59.0608 64.2497 58.9155 64.2687C58.7703 64.2865 58.6418 64.3212 58.5301 64.3703C58.4194 64.4195 58.33 64.4877 58.263 64.5737C58.196 64.6597 58.1624 64.767 58.1624 64.8977C58.1624 65.0798 58.2239 65.2296 58.3479 65.3469C58.4708 65.4642 58.6295 65.5223 58.8217 65.5223H58.8228ZM63.8677 62.6507H62.7045V66.0061H62.1123V62.6507H60.9492V62.1044H63.8677V62.6507V62.6507ZM67.0388 65.6944C66.8902 65.8195 66.7047 65.9179 66.479 65.9905C66.2544 66.0631 66.0164 66.1 65.7639 66.1C65.4823 66.1 65.2376 66.0519 65.0309 65.9558C64.8231 65.8598 64.6532 65.7223 64.5191 65.5424C64.3862 65.3625 64.2867 65.148 64.223 64.8988C64.1593 64.6486 64.1269 64.3681 64.1269 64.0564C64.1269 63.3904 64.2677 62.8831 64.5493 62.5345C64.8309 62.1859 65.2331 62.0116 65.7572 62.0116C65.9248 62.0116 66.0924 62.0317 66.2611 62.0697C66.4287 62.1088 66.5796 62.1826 66.7125 62.2921C66.8455 62.4016 66.9539 62.5558 67.0388 62.7569C67.1226 62.9569 67.1651 63.2206 67.1651 63.5491C67.1651 63.7212 67.1505 63.9111 67.1204 64.1189H64.7426C64.7426 64.348 64.765 64.5502 64.8096 64.7279C64.8543 64.9044 64.9236 65.0542 65.0164 65.1771C65.1102 65.2988 65.232 65.3927 65.3829 65.4575C65.5337 65.5223 65.7181 65.5547 65.9348 65.5547C66.1024 65.5547 66.27 65.5234 66.4388 65.4609C66.6075 65.3983 66.7326 65.3257 66.8164 65.243L67.0388 65.6955V65.6944ZM65.765 62.558C65.4734 62.558 65.2398 62.6384 65.0644 62.7993C64.889 62.9602 64.784 63.2362 64.7493 63.6262H66.5863C66.5863 63.2306 66.5147 62.9535 66.3717 62.7949C66.2287 62.6362 66.0253 62.5569 65.7639 62.5569L65.765 62.558ZM69.9283 62.6519H68.8545C68.84 62.8709 68.8255 63.1055 68.8098 63.358C68.7953 63.6105 68.7729 63.8619 68.7428 64.1145C68.7137 64.367 68.6735 64.6083 68.6243 64.8396C68.5752 65.0709 68.5115 65.2754 68.4355 65.4519C68.3595 65.6285 68.2657 65.7704 68.1539 65.8776C68.0433 65.9838 67.9103 66.0374 67.7573 66.0374C67.6634 66.0374 67.5818 66.0329 67.5126 66.0218C67.4433 66.0117 67.3818 65.9927 67.3271 65.967L67.4153 65.4441C67.4746 65.4653 67.5394 65.4754 67.6086 65.4754C67.707 65.4754 67.7964 65.4318 67.8757 65.3424C67.955 65.2542 68.0243 65.0866 68.0824 64.8385C68.1416 64.5916 68.1908 64.2497 68.231 63.8128C68.2701 63.3759 68.2981 62.8061 68.3126 62.1044H70.5205V66.0061H69.9283V62.6507V62.6519ZM72.2547 65.4609C72.4379 65.4921 72.6133 65.5078 72.7809 65.5078C73.0916 65.5078 73.3217 65.4441 73.4692 65.3167C73.6178 65.1893 73.6916 65.0083 73.6916 64.7748C73.6916 64.567 73.6201 64.3949 73.4771 64.2597C73.334 64.1245 73.1094 64.0564 72.8033 64.0564C72.7195 64.0564 72.6279 64.0586 72.5295 64.0642C72.4312 64.0698 72.3396 64.0854 72.2558 64.1111V65.4609H72.2547ZM72.2547 63.596C72.3731 63.5748 72.4871 63.5603 72.5955 63.5536C72.7038 63.5457 72.8078 63.5413 72.9061 63.5413C73.1631 63.5413 73.3798 63.5714 73.5586 63.6306C73.7363 63.691 73.8804 63.7726 73.9922 63.8765C74.1039 63.9804 74.1832 64.1044 74.2335 64.2474C74.2827 64.3904 74.3073 64.5424 74.3073 64.7044C74.3073 65.1782 74.1721 65.5212 73.9039 65.7346C73.6346 65.948 73.2156 66.0542 72.648 66.0542C72.3318 66.0542 72.0033 66.0385 71.6625 66.0072V62.1055H72.2547V63.596V63.596ZM77.5443 65.7491C77.3957 65.8631 77.2202 65.9514 77.018 66.0106C76.8157 66.0709 76.6034 66.1 76.3811 66.1C76.095 66.1 75.8537 66.0519 75.6559 65.9558C75.4581 65.8598 75.2961 65.7223 75.171 65.5424C75.0447 65.3625 74.9531 65.1469 74.8972 64.8944C74.8402 64.6418 74.8123 64.3625 74.8123 64.0552C74.8123 63.3949 74.9497 62.8887 75.2268 62.5379C75.504 62.187 75.9017 62.0116 76.4202 62.0116C76.6571 62.0116 76.8582 62.0317 77.0236 62.0697C77.1889 62.1088 77.3387 62.1647 77.4716 62.2373L77.3018 62.7759C77.1878 62.7088 77.0627 62.6552 76.9241 62.6161C76.7856 62.577 76.6381 62.558 76.4794 62.558C75.7777 62.558 75.4269 63.0575 75.4269 64.0564C75.4269 64.2541 75.4459 64.443 75.4827 64.6217C75.5196 64.8016 75.5811 64.9592 75.6682 65.0977C75.7542 65.2352 75.8682 65.3458 76.009 65.4296C76.1498 65.5123 76.3241 65.5536 76.5308 65.5536C76.7085 65.5536 76.8683 65.5257 77.0079 65.4676C77.1487 65.4106 77.2638 65.3458 77.3521 65.272L77.5454 65.748L77.5443 65.7491ZM80.6036 62.6519H79.4404V66.0072H78.8482V62.6519H77.6851V62.1055H80.6036V62.6519V62.6519ZM81.1891 62.1133C81.3623 62.1032 81.5433 62.0898 81.7333 62.0742C81.9232 62.0585 82.159 62.0507 82.4406 62.0507C82.93 62.0507 83.2808 62.1301 83.492 62.2887C83.7043 62.4474 83.8105 62.6876 83.8105 63.0105C83.8105 63.1927 83.7602 63.3703 83.6585 63.5446C83.5579 63.7189 83.3903 63.8474 83.159 63.9301V63.9614C83.4507 64.0184 83.6551 64.1256 83.7736 64.2809C83.892 64.4374 83.9512 64.6452 83.9512 64.9044C83.9512 65.31 83.8127 65.6039 83.5367 65.786C83.2607 65.9681 82.8451 66.0586 82.292 66.0586C82.0841 66.0586 81.8919 66.0519 81.7143 66.0385C81.5366 66.0262 81.3612 66.0117 81.188 65.9961V62.1099L81.1891 62.1133ZM81.7813 65.4843C81.8752 65.4944 81.9679 65.5022 82.0595 65.5078C82.1512 65.5134 82.2584 65.5156 82.3813 65.5156C82.7121 65.5156 82.9579 65.4665 83.1177 65.367C83.2786 65.2676 83.359 65.0988 83.359 64.8597C83.359 64.672 83.2909 64.5201 83.1557 64.4039C83.0194 64.2865 82.7791 64.2284 82.4327 64.2284H81.7813V65.4854V65.4843ZM82.5076 63.7513C82.597 63.7513 82.683 63.7357 82.7668 63.7044C82.8506 63.6731 82.9255 63.6307 82.9925 63.5759C83.0585 63.5212 83.1132 63.4575 83.1557 63.3848C83.197 63.3122 83.2183 63.234 83.2183 63.1513C83.2183 62.9435 83.159 62.7993 83.0406 62.7178C82.9221 62.6373 82.7143 62.5971 82.4182 62.5971C82.2596 62.5971 82.1355 62.5993 82.0439 62.6049C81.9523 62.6105 81.8651 62.615 81.7802 62.6206V63.7524H82.5065L82.5076 63.7513ZM84.8261 62.3937C85.0139 62.2742 85.2329 62.1859 85.482 62.1278C85.7312 62.0708 85.9916 62.0418 86.2631 62.0418C86.5201 62.0418 86.7268 62.0775 86.881 62.1513C87.0374 62.2239 87.1559 62.3189 87.2363 62.4362C87.3179 62.5535 87.3726 62.682 87.3994 62.8228C87.4262 62.9636 87.4408 63.1033 87.4408 63.2441C87.4408 63.5558 87.433 63.8597 87.4184 64.1569C87.4039 64.453 87.3961 64.7346 87.3961 64.9994C87.3961 65.1916 87.4039 65.3737 87.4184 65.5458C87.433 65.7179 87.4598 65.8754 87.5 66.0218H87.0631L86.9078 65.4754H86.8709C86.8273 65.548 86.7715 65.6195 86.7044 65.6899C86.6385 65.7603 86.5581 65.8229 86.4642 65.8776C86.3703 65.9324 86.262 65.9782 86.1379 66.0139C86.0139 66.0497 85.8742 66.0687 85.7156 66.0687C85.5569 66.0687 85.4105 66.043 85.2742 65.9905C85.139 65.938 85.0217 65.8642 84.9222 65.7681C84.8239 65.672 84.7457 65.5558 84.6887 65.4206C84.6317 65.2854 84.6038 65.1312 84.6038 64.9603C84.6038 64.7312 84.6485 64.5402 84.7368 64.3871C84.8261 64.234 84.9502 64.1111 85.1111 64.0206C85.272 63.929 85.4642 63.8642 85.6887 63.8251C85.9133 63.786 86.1614 63.767 86.4329 63.767C86.5022 63.767 86.5704 63.767 86.6363 63.767C86.7022 63.767 86.7704 63.7726 86.8396 63.7826C86.8542 63.6262 86.862 63.4865 86.862 63.3614C86.862 63.0753 86.8072 62.8753 86.6988 62.7602C86.5905 62.6463 86.3927 62.5882 86.1066 62.5882C86.0228 62.5882 85.9323 62.5949 85.8362 62.6072C85.7401 62.6217 85.6418 62.6396 85.5401 62.6641C85.4385 62.6876 85.3424 62.7178 85.2507 62.7524C85.1591 62.7859 85.0787 62.825 85.0105 62.8686L84.825 62.3926L84.8261 62.3937ZM85.8776 65.5223C86.0161 65.5223 86.139 65.5022 86.2474 65.4642C86.3558 65.4251 86.4497 65.3759 86.529 65.3156C86.6083 65.2553 86.6731 65.1894 86.7257 65.1167C86.7771 65.0441 86.8151 64.9737 86.8407 64.9055V64.2575C86.7715 64.2519 86.7011 64.2485 86.6296 64.2452C86.5581 64.243 86.4877 64.2407 86.4184 64.2407C86.2653 64.2407 86.1156 64.2497 85.9703 64.2687C85.8251 64.2865 85.6966 64.3212 85.5848 64.3703C85.4742 64.4195 85.3848 64.4877 85.3178 64.5737C85.2507 64.6597 85.2172 64.767 85.2172 64.8977C85.2172 65.0798 85.2787 65.2296 85.4027 65.3469C85.5256 65.4642 85.6843 65.5223 85.8765 65.5223H85.8776Z" fill="white"/>
<path d="M1.02043 71.9115H0.653932V74.44H0.00585938V68.9784H0.653932V71.5226L1.00478 71.4131L2.83838 68.9784H3.58813L1.76236 71.3271L1.43497 71.5852L1.83275 71.8969L3.8306 74.4411H3.01157L1.02154 71.9126L1.02043 71.9115ZM4.64069 70.8265C4.83847 70.707 5.06864 70.6187 5.33123 70.5606C5.59381 70.5036 5.86868 70.4746 6.15472 70.4746C6.42513 70.4746 6.6419 70.5103 6.80615 70.5841C6.9704 70.6567 7.09555 70.7517 7.18047 70.869C7.2665 70.9863 7.32349 71.1148 7.35254 71.2556C7.38159 71.3964 7.39612 71.536 7.39612 71.6768C7.39612 71.9886 7.3883 72.2925 7.37265 72.5897C7.35701 72.8858 7.34919 73.1674 7.34919 73.4322C7.34919 73.6244 7.35701 73.8065 7.37265 73.9786C7.3883 74.1506 7.41623 74.3082 7.45869 74.4545H6.99834L6.83408 73.9082H6.79497C6.74805 73.9808 6.68994 74.0523 6.61955 74.1227C6.54915 74.1931 6.46535 74.2556 6.36591 74.3104C6.26646 74.3651 6.15249 74.411 6.02287 74.4467C5.89326 74.4825 5.74465 74.5015 5.57816 74.5015C5.41168 74.5015 5.25636 74.4758 5.11334 74.4233C4.97032 74.3707 4.84741 74.297 4.74237 74.2009C4.63846 74.1048 4.55689 73.9886 4.49655 73.8534C4.43622 73.7182 4.40716 73.564 4.40716 73.3931C4.40716 73.164 4.45409 72.9729 4.54795 72.8199C4.64181 72.6668 4.77254 72.5439 4.94238 72.4534C5.1111 72.3617 5.31446 72.2969 5.55135 72.2578C5.78823 72.2187 6.04969 72.1997 6.33574 72.1997C6.40837 72.1997 6.47988 72.1997 6.55027 72.1997C6.62067 72.1997 6.69218 72.2053 6.76481 72.2154C6.78045 72.0589 6.78827 71.9193 6.78827 71.7941C6.78827 71.5081 6.73128 71.3081 6.6162 71.193C6.50222 71.079 6.29439 71.0209 5.99271 71.0209C5.90443 71.0209 5.80946 71.0276 5.70778 71.0399C5.6061 71.0545 5.50218 71.0723 5.39603 71.0969C5.28877 71.1204 5.1882 71.1506 5.09211 71.1852C4.99602 71.2187 4.9111 71.2578 4.83847 71.3014L4.64293 70.8254L4.64069 70.8265ZM5.74912 73.9551C5.89438 73.9551 6.02511 73.935 6.13908 73.897C6.25305 73.8579 6.3525 73.8087 6.43518 73.7484C6.51899 73.688 6.58714 73.6221 6.6419 73.5495C6.69665 73.4769 6.73687 73.4065 6.76257 73.3383V72.6902C6.68994 72.6847 6.61508 72.6813 6.54022 72.678C6.46423 72.6757 6.39049 72.6735 6.31786 72.6735C6.15696 72.6735 5.99941 72.6824 5.84633 72.7014C5.69325 72.7193 5.55805 72.7539 5.44073 72.8031C5.3234 72.8523 5.22954 72.9204 5.16027 73.0065C5.08987 73.0925 5.05524 73.1998 5.05524 73.3305C5.05524 73.5126 5.12004 73.6623 5.25078 73.7797C5.38039 73.897 5.54688 73.9551 5.75024 73.9551H5.74912ZM10.6722 71.0835H9.54034C9.5247 71.3025 9.50906 71.5371 9.49341 71.7897C9.47777 72.0422 9.45431 72.2936 9.42302 72.5461C9.39173 72.7986 9.35039 73.04 9.29787 73.2713C9.24536 73.5026 9.17943 73.707 9.09898 73.8836C9.01853 74.0601 8.91909 74.202 8.80288 74.3093C8.68556 74.4154 8.547 74.4691 8.38499 74.4691C8.28666 74.4691 8.20062 74.4646 8.12687 74.4534C8.05425 74.4434 7.98944 74.4244 7.93245 74.3987L8.02631 73.8758C8.08888 73.897 8.15593 73.907 8.22967 73.907C8.33359 73.907 8.42745 73.8635 8.51013 73.7741C8.59393 73.6858 8.66656 73.5182 8.72802 73.2702C8.79059 73.0232 8.84311 72.6813 8.88445 72.2444C8.92579 71.8075 8.95484 71.2377 8.97049 70.536H11.2957V74.4378H10.6711V71.0824L10.6722 71.0835ZM14.9327 72.1293L14.9562 71.6455H14.9327L14.6132 72.145L12.8578 74.4389H12.4991V70.5371H13.1237V72.9171L13.1003 73.3774H13.1316L13.4355 72.8936L15.1909 70.5371H15.5574V74.4389H14.9339V72.1293H14.9327ZM19.1463 72.7148H17.3831V74.4389H16.7585V70.5371H17.3831V72.1685H19.1463V70.5371H19.7698V74.4389H19.1463V72.7148ZM23.4069 72.1293L23.4303 71.6455H23.4069L23.0873 72.145L21.3319 74.4389H20.9732V70.5371H21.5978V72.9171L21.5744 73.3774H21.6057L21.9096 72.8936L23.665 70.5371H24.0315V74.4389H23.408V72.1293H23.4069ZM27.6204 72.7148H25.8572V74.4389H25.2326V70.5371H25.8572V72.1685H27.6204V70.5371H28.2439V74.4389H27.6204V72.7148ZM31.7245 71.0835H30.0708V74.4389H29.4462V70.5371H31.7245V71.0835ZM32.3257 70.5371H32.7547L32.8721 71.0053H32.9033C33.0229 70.8232 33.1771 70.6835 33.3671 70.5874C33.557 70.4913 33.7738 70.4433 34.0185 70.4433C34.5381 70.4433 34.9258 70.5963 35.1817 70.9036C35.4364 71.2109 35.5638 71.7126 35.5638 72.4098C35.5638 72.7372 35.5202 73.0322 35.4353 73.2958C35.3493 73.5584 35.2286 73.7808 35.0722 73.9629C34.9157 74.145 34.7269 74.2858 34.5068 74.3841C34.2855 74.4825 34.0397 74.5327 33.7693 74.5327C33.5771 74.5327 33.4252 74.5216 33.3134 74.4981C33.2017 74.4746 33.081 74.4344 32.9503 74.3774V75.9998H32.3257V70.5382V70.5371ZM33.9023 70.9897C33.6363 70.9897 33.4274 71.0589 33.2743 71.1964C33.1212 71.3338 33.0128 71.5439 32.9503 71.8243V73.7595C33.0441 73.8322 33.1503 73.888 33.2698 73.9272C33.3894 73.9663 33.5481 73.9853 33.7458 73.9853C34.1045 73.9853 34.3894 73.8512 34.5995 73.583C34.8107 73.3148 34.9157 72.9215 34.9157 72.4009C34.9157 72.1874 34.8978 71.993 34.861 71.8198C34.8252 71.6455 34.766 71.498 34.6855 71.3751C34.6051 71.2533 34.5012 71.1573 34.3738 71.0902C34.2464 71.0221 34.0889 70.9885 33.9023 70.9885V70.9897ZM36.4845 70.8254C36.6823 70.7058 36.9125 70.6176 37.175 70.5595C37.4376 70.5025 37.7125 70.4734 37.9985 70.4734C38.2689 70.4734 38.4857 70.5092 38.65 70.5829C38.8142 70.6556 38.9394 70.7505 39.0243 70.8679C39.1103 70.9852 39.1673 71.1137 39.1963 71.2545C39.2254 71.3952 39.2399 71.5349 39.2399 71.6757C39.2399 71.9874 39.2321 72.2914 39.2165 72.5886C39.2008 72.8847 39.193 73.1662 39.193 73.431C39.193 73.6232 39.2008 73.8054 39.2165 73.9774C39.2321 74.1495 39.26 74.3071 39.3025 74.4534H38.8421L38.6779 73.907H38.6388C38.5919 73.9797 38.5338 74.0512 38.4634 74.1216C38.393 74.192 38.3092 74.2545 38.2097 74.3093C38.1103 74.364 37.9963 74.4098 37.8667 74.4456C37.7371 74.4814 37.5885 74.5003 37.422 74.5003C37.2555 74.5003 37.1002 74.4746 36.9572 74.4221C36.8141 74.3696 36.6912 74.2959 36.5862 74.1998C36.4823 74.1037 36.4007 73.9875 36.3404 73.8523C36.28 73.7171 36.251 73.5629 36.251 73.3919C36.251 73.1629 36.2979 72.9718 36.3918 72.8187C36.4856 72.6657 36.6164 72.5428 36.7862 72.4523C36.9549 72.3606 37.1583 72.2958 37.3952 72.2567C37.632 72.2176 37.8935 72.1986 38.1795 72.1986C38.2522 72.1986 38.3237 72.1986 38.3941 72.1986C38.4645 72.1986 38.536 72.2042 38.6086 72.2143C38.6243 72.0578 38.6321 71.9182 38.6321 71.793C38.6321 71.507 38.5751 71.307 38.46 71.1919C38.346 71.0779 38.1382 71.0198 37.8365 71.0198C37.7482 71.0198 37.6533 71.0265 37.5516 71.0388C37.4499 71.0533 37.346 71.0712 37.2398 71.0958C37.1326 71.1193 37.032 71.1494 36.9359 71.1841C36.8398 71.2176 36.7549 71.2567 36.6823 71.3003L36.4867 70.8243L36.4845 70.8254ZM37.5929 73.954C37.7382 73.954 37.8689 73.9339 37.9829 73.8959C38.0969 73.8568 38.1963 73.8076 38.279 73.7473C38.3628 73.6869 38.431 73.621 38.4857 73.5484C38.5405 73.4757 38.5807 73.4053 38.6064 73.3372V72.6891C38.5338 72.6835 38.4589 72.6802 38.384 72.6768C38.308 72.6746 38.2343 72.6724 38.1617 72.6724C38.0008 72.6724 37.8432 72.6813 37.6901 72.7003C37.5371 72.7182 37.4019 72.7528 37.2845 72.802C37.1672 72.8511 37.0734 72.9193 37.0041 73.0053C36.9337 73.0914 36.899 73.1986 36.899 73.3294C36.899 73.5115 36.9639 73.6612 37.0946 73.7785C37.2242 73.8959 37.3907 73.954 37.594 73.954H37.5929ZM43.8669 75.4289H43.4457L43.3284 74.4378H40.3942L40.2768 75.4289H39.8556V73.8914H40.316C40.3573 73.8344 40.412 73.7316 40.4802 73.583C40.5484 73.4344 40.6143 73.2266 40.6791 72.9584C40.7439 72.6903 40.8009 72.3573 40.8512 71.9595C40.9003 71.5617 40.9305 71.0869 40.9406 70.5349H43.2971V73.8903H43.8669V75.4277V75.4289ZM42.6736 73.8914V71.0824H41.5026C41.4925 71.3014 41.4747 71.5394 41.4478 71.7964C41.4221 72.0534 41.3864 72.3115 41.3428 72.5685C41.2992 72.8266 41.2422 73.069 41.1752 73.2981C41.107 73.5271 41.0299 73.7249 40.9406 73.8914H42.6736V73.8914ZM47.3006 74.1797C47.1442 74.2936 46.9598 74.3819 46.7464 74.4411C46.533 74.5015 46.3095 74.5305 46.0749 74.5305C45.7732 74.5305 45.5184 74.4825 45.3106 74.3864C45.1027 74.2903 44.9318 74.1529 44.7988 73.973C44.667 73.7931 44.5698 73.5774 44.5105 73.3249C44.4502 73.0724 44.4212 72.793 44.4212 72.4858C44.4212 71.8254 44.5664 71.3193 44.858 70.9684C45.1497 70.6176 45.5687 70.4422 46.1151 70.4422C46.3654 70.4422 46.5766 70.4623 46.7509 70.5003C46.9252 70.5394 47.0827 70.5952 47.2224 70.6679L47.0425 71.2064C46.9229 71.1394 46.79 71.0857 46.6447 71.0466C46.4995 71.0075 46.343 70.9885 46.1765 70.9885C45.438 70.9885 45.0681 71.488 45.0681 72.4869C45.0681 72.6847 45.0882 72.8735 45.1262 73.0523C45.1653 73.2322 45.2301 73.3897 45.3217 73.5283C45.4123 73.6657 45.5318 73.7763 45.6804 73.8601C45.829 73.9428 46.0123 73.9841 46.2302 73.9841C46.4179 73.9841 46.5855 73.9562 46.733 73.8981C46.8816 73.8411 47.0023 73.7763 47.0961 73.7026L47.2995 74.1786L47.3006 74.1797ZM49.142 72.6813H48.7834V74.4367H48.1587V70.5349H48.7834V72.2981L49.1186 72.1886L50.3678 70.5338H51.046L49.837 72.1025L49.5096 72.3595L49.9152 72.6713L51.2181 74.4344H50.446L49.1431 72.6791L49.142 72.6813ZM51.5846 72.4858C51.5846 71.8254 51.731 71.3193 52.0248 70.9684C52.3187 70.6176 52.7422 70.4422 53.293 70.4422C53.5847 70.4422 53.8383 70.4902 54.054 70.5863C54.2696 70.6824 54.4484 70.8198 54.5881 70.9997C54.7289 71.1796 54.8328 71.3952 54.8998 71.6478C54.968 71.9003 55.0015 72.1796 55.0015 72.4869C55.0015 73.1472 54.8551 73.6534 54.5601 74.0042C54.2663 74.3551 53.8439 74.5305 53.2919 74.5305C53.0003 74.5305 52.7466 74.4825 52.531 74.3864C52.3153 74.2903 52.1366 74.1529 51.9969 73.973C51.8561 73.7931 51.7522 73.5774 51.6851 73.3249C51.617 73.0724 51.5835 72.793 51.5835 72.4858H51.5846ZM52.2327 72.4858C52.2327 72.6835 52.2528 72.8735 52.2908 73.0556C52.3299 73.2378 52.3913 73.3964 52.474 73.5316C52.5578 73.6668 52.6662 73.7763 52.8014 73.859C52.9366 73.9417 53.1009 73.983 53.293 73.983C54.0003 73.9886 54.3545 73.4891 54.3545 72.4847C54.3545 72.2824 54.3344 72.0891 54.2964 71.907C54.2573 71.7249 54.1959 71.5662 54.1132 71.431C54.0294 71.2958 53.921 71.1874 53.7858 71.107C53.6506 71.0265 53.4863 70.9863 53.2942 70.9863C52.5869 70.9807 52.2327 71.4802 52.2327 72.4847V72.4858ZM58.4206 72.1271L58.4441 71.6433H58.4206L58.1011 72.1427L56.3457 74.4367H55.987V70.5349H56.6116V72.9148L56.5882 73.3752H56.6194L56.9234 72.8914L58.6787 70.5349H59.0452V74.4367H58.4217V72.1271H58.4206ZM56.8831 68.9594C56.9357 69.1985 57.025 69.365 57.1524 69.4589C57.2798 69.5527 57.4262 69.5997 57.5927 69.5997C57.7591 69.5997 57.9078 69.5505 58.0374 69.4511C58.167 69.3527 58.2564 69.1907 58.3033 68.9673L58.7715 69.1159C58.7246 69.4175 58.5905 69.6488 58.3692 69.8097C58.148 69.9718 57.8843 70.0511 57.577 70.0511C57.4362 70.0511 57.2977 70.0332 57.1591 69.9963C57.0217 69.9606 56.8977 69.9058 56.7882 69.8321C56.6787 69.7595 56.5848 69.6656 56.5066 69.5516C56.4284 69.4377 56.377 69.3013 56.3502 69.146L56.8809 68.9594H56.8831ZM62.1113 72.4858C62.1113 71.8254 62.2577 71.3193 62.5515 70.9684C62.8454 70.6176 63.2689 70.4422 63.8197 70.4422C64.1114 70.4422 64.365 70.4902 64.5807 70.5863C64.7963 70.6824 64.9751 70.8198 65.1148 70.9997C65.2556 71.1796 65.3595 71.3952 65.4265 71.6478C65.4947 71.9003 65.5282 72.1796 65.5282 72.4869C65.5282 73.1472 65.3818 73.6534 65.0868 74.0042C64.793 74.3551 64.3706 74.5305 63.8186 74.5305C63.527 74.5305 63.2733 74.4825 63.0577 74.3864C62.842 74.2903 62.6633 74.1529 62.5236 73.973C62.3828 73.7931 62.2789 73.5774 62.2118 73.3249C62.1437 73.0724 62.1102 72.793 62.1102 72.4858H62.1113ZM62.7594 72.4858C62.7594 72.6835 62.7795 72.8735 62.8175 73.0556C62.8566 73.2378 62.918 73.3964 63.0007 73.5316C63.0845 73.6668 63.1929 73.7763 63.3281 73.859C63.4633 73.9417 63.6276 73.983 63.8197 73.983C64.527 73.9886 64.8812 73.4891 64.8812 72.4847C64.8812 72.2824 64.8611 72.0891 64.8231 71.907C64.784 71.7249 64.7226 71.5662 64.6399 71.431C64.5561 71.2958 64.4477 71.1874 64.3125 71.107C64.1773 71.0265 64.013 70.9863 63.8209 70.9863C63.1136 70.9807 62.7594 71.4802 62.7594 72.4847V72.4858ZM66.8713 71.2299C67.0433 70.9796 67.2333 70.8042 67.4411 70.7036C67.649 70.6019 67.9093 70.5516 68.221 70.5516C68.6993 70.5516 69.068 70.7081 69.325 71.0198C69.582 71.3316 69.7105 71.7919 69.7105 72.4009C69.7105 73.1025 69.5608 73.6333 69.2624 73.992C68.963 74.3506 68.5451 74.5305 68.0099 74.5305C67.4378 74.5305 67.0087 74.3327 66.7227 73.9372C66.4366 73.5417 66.2936 72.9204 66.2936 72.0724C66.2936 71.6254 66.3159 71.2433 66.3595 70.9248C66.4031 70.6075 66.469 70.3394 66.5539 70.1215C66.64 69.9036 66.7439 69.7293 66.8657 69.5986C66.9875 69.4689 67.126 69.3661 67.2791 69.2902C67.4322 69.2142 67.6009 69.1617 67.783 69.1304C67.9652 69.0991 68.1607 69.0734 68.3685 69.0522C68.6389 69.0265 68.8512 68.9963 69.0043 68.9628C69.1574 68.9293 69.2814 68.8678 69.3753 68.7795L69.4457 69.3416C69.3932 69.3885 69.3362 69.4276 69.2736 69.4589C69.211 69.4902 69.1362 69.5159 69.0479 69.5371C68.9596 69.5583 68.8546 69.5762 68.7317 69.5919C68.6099 69.6075 68.468 69.6209 68.306 69.631C68.0825 69.6466 67.8858 69.6745 67.7171 69.7125C67.5484 69.7516 67.402 69.8265 67.2802 69.9382C67.1584 70.05 67.0623 70.2086 66.9919 70.4142C66.9215 70.6198 66.8735 70.8913 66.8478 71.2299H66.8713V71.2299ZM66.9417 72.4936C66.9417 72.6914 66.9629 72.8813 67.0042 73.0634C67.0456 73.2456 67.1093 73.4054 67.1953 73.5428C67.2813 73.6802 67.392 73.7886 67.5272 73.8668C67.6624 73.945 67.821 73.9841 68.0032 73.9841C68.3618 73.9841 68.6289 73.8556 68.8032 73.5987C68.9775 73.3405 69.0647 72.9595 69.0647 72.4556C69.0647 72.2578 69.0468 72.0757 69.0099 71.9092C68.973 71.7427 68.916 71.5986 68.8378 71.4757C68.7596 71.3539 68.6613 71.26 68.5417 71.1952C68.4222 71.1304 68.2791 71.098 68.1127 71.098C67.7071 71.0924 67.4098 71.2109 67.2232 71.4533C67.0355 71.6947 66.9428 72.0422 66.9428 72.4947L66.9417 72.4936ZM72.7475 71.0813H71.6156C71.6 71.3003 71.5843 71.5349 71.5687 71.7874C71.553 72.04 71.5296 72.2914 71.4983 72.5439C71.467 72.7964 71.4256 73.0377 71.3731 73.269C71.3206 73.5003 71.2547 73.7048 71.1742 73.8813C71.0938 74.0579 70.9943 74.1998 70.8781 74.3071C70.7608 74.4132 70.6223 74.4668 70.4602 74.4668C70.3619 74.4668 70.2759 74.4624 70.2021 74.4512C70.1295 74.4411 70.0647 74.4221 70.0077 74.3964L70.1016 73.8735C70.1641 73.8947 70.2312 73.9048 70.3049 73.9048C70.4088 73.9048 70.5027 73.8612 70.5854 73.7718C70.6692 73.6836 70.7418 73.516 70.8033 73.2679C70.8658 73.021 70.9184 72.6791 70.9597 72.2422C71.001 71.8053 71.0301 71.2355 71.0457 70.5338H73.371V74.4355H72.7464V71.0802L72.7475 71.0813ZM74.5107 70.8243C74.7085 70.7047 74.9386 70.6165 75.2012 70.5584C75.4638 70.5014 75.7387 70.4723 76.0247 70.4723C76.2951 70.4723 76.5119 70.5081 76.6762 70.5818C76.8404 70.6544 76.9655 70.7494 77.0505 70.8667C77.1365 70.9841 77.1935 71.1126 77.2225 71.2533C77.2516 71.3941 77.2661 71.5338 77.2661 71.6746C77.2661 71.9863 77.2583 72.2902 77.2427 72.5875C77.227 72.8836 77.2192 73.1651 77.2192 73.4299C77.2192 73.6221 77.227 73.8042 77.2427 73.9763C77.2583 74.1484 77.2862 74.3059 77.3287 74.4523H76.8683L76.7041 73.9059H76.665C76.618 73.9785 76.5599 74.0501 76.4896 74.1204C76.4192 74.1908 76.3354 74.2534 76.2359 74.3082C76.1365 74.3629 76.0225 74.4087 75.8929 74.4445C75.7633 74.4802 75.6147 74.4992 75.4482 74.4992C75.2817 74.4992 75.1264 74.4735 74.9833 74.421C74.8403 74.3685 74.7174 74.2948 74.6124 74.1987C74.5085 74.1026 74.4269 73.9864 74.3666 73.8512C74.3062 73.716 74.2772 73.5618 74.2772 73.3908C74.2772 73.1618 74.3241 72.9707 74.418 72.8176C74.5118 72.6646 74.6425 72.5416 74.8124 72.4511C74.9811 72.3595 75.1845 72.2947 75.4213 72.2556C75.6582 72.2165 75.9197 72.1975 76.2057 72.1975C76.2784 72.1975 76.3499 72.1975 76.4203 72.1975C76.4907 72.1975 76.5622 72.2031 76.6348 72.2131C76.6505 72.0567 76.6583 71.917 76.6583 71.7919C76.6583 71.5059 76.6013 71.3059 76.4862 71.1908C76.3722 71.0768 76.1644 71.0187 75.8627 71.0187C75.7744 71.0187 75.6795 71.0254 75.5778 71.0377C75.4761 71.0522 75.3722 71.0701 75.266 71.0947C75.1588 71.1181 75.0582 71.1483 74.9621 71.183C74.866 71.2165 74.7811 71.2556 74.7085 71.2992L74.5129 70.8232L74.5107 70.8243ZM75.6191 73.9528C75.7644 73.9528 75.8951 73.9327 76.0091 73.8948C76.1231 73.8556 76.2225 73.8065 76.3052 73.7461C76.389 73.6858 76.4571 73.6199 76.5119 73.5473C76.5666 73.4746 76.6069 73.4042 76.6326 73.3361V72.688C76.5599 72.6824 76.4851 72.6791 76.4102 72.6757C76.3342 72.6735 76.2605 72.6713 76.1879 72.6713C76.027 72.6713 75.8694 72.6802 75.7163 72.6992C75.5633 72.7171 75.4281 72.7517 75.3107 72.8009C75.1934 72.85 75.0995 72.9182 75.0303 73.0042C74.9599 73.0903 74.9252 73.1975 74.9252 73.3283C74.9252 73.5104 74.99 73.6601 75.1208 73.7774C75.2504 73.8947 75.4169 73.9528 75.6202 73.9528H75.6191ZM81.1043 74.1786C80.9478 74.2925 80.7635 74.3808 80.5501 74.44C80.3366 74.5003 80.1132 74.5294 79.8785 74.5294C79.5768 74.5294 79.3221 74.4814 79.1142 74.3853C78.9064 74.2892 78.7355 74.1517 78.6025 73.9718C78.4706 73.792 78.3734 73.5763 78.3142 73.3238C78.2539 73.0713 78.2248 72.7919 78.2248 72.4847C78.2248 71.8243 78.3701 71.3182 78.6617 70.9673C78.9533 70.6165 79.3724 70.441 79.9187 70.441C80.169 70.441 80.3802 70.4611 80.5545 70.4991C80.7288 70.5382 80.8864 70.5941 81.0261 70.6667L80.8462 71.2053C80.7266 71.1383 80.5936 71.0846 80.4484 71.0455C80.3031 71.0064 80.1467 70.9874 79.9802 70.9874C79.2416 70.9874 78.8718 71.4869 78.8718 72.4858C78.8718 72.6835 78.8919 72.8724 78.9299 73.0511C78.969 73.231 79.0338 73.3886 79.1254 73.5271C79.2159 73.6646 79.3355 73.7752 79.4841 73.859C79.6327 73.9417 79.8159 73.983 80.0338 73.983C80.2216 73.983 80.3892 73.9551 80.5366 73.897C80.6853 73.84 80.8059 73.7752 80.8998 73.7014L81.1032 74.1774L81.1043 74.1786ZM84.3268 71.0813H83.1021V74.4367H82.4775V71.0813H81.2529V70.5349H84.3268V71.0813V71.0813ZM87.3783 72.1271L87.4017 71.6433H87.3783L87.0587 72.1427L85.3033 74.4367H84.9447V70.5349H85.5693V72.9148L85.5458 73.3752H85.5771L85.881 72.8914L87.6364 70.5349H88.0029V74.4367H87.3794V72.1271H87.3783Z" fill="white"/>
</svg>
