<svg width="133" height="76" viewBox="0 0 133 76" fill="none" xmlns="http://www.w3.org/2000/svg">
<path d="M117.976 50.9341L113.294 46.2581L108.612 50.9341L113.293 60.7098L117.976 50.9341Z" fill="#ED5338"/>
<path d="M113.294 19.366C111.497 19.366 110.042 20.823 110.042 22.6197C110.042 24.4164 111.499 25.8723 113.294 25.8723C115.091 25.8723 116.548 24.4152 116.548 22.6197C116.548 20.823 115.091 19.366 113.294 19.366Z" fill="#C59368"/>
<path d="M117.466 35.9916L113.294 31.8116L109.122 35.9916C108.909 35.4117 106.113 27.845 106.113 22.9086C106.113 16.2492 112.792 12.5184 113.294 12.2446C113.796 12.5184 120.475 16.2492 120.475 22.9086C120.475 27.845 117.68 35.4117 117.466 35.9916ZM113.294 4.76514C112.303 5.27241 99.3506 12.1161 99.3506 23.0527C99.3506 32.4071 106.974 46.594 106.974 46.594L113.294 40.2632L119.614 46.594C119.614 46.594 127.237 32.4071 127.237 23.0527C127.237 12.1173 114.284 5.27241 113.293 4.76514H113.294Z" fill="#C59368"/>
<path d="M127.238 9.53095L122.472 4.76547L127.238 0L132.002 4.76436V4.76547L127.238 9.53095Z" fill="#C59368"/>
<path d="M82.2391 9.64722C82.2391 10.6394 81.79 11.2171 81.0112 11.2171C80.2324 11.2171 79.7843 10.6059 79.7843 9.64722H75.7506C75.8635 12.6026 77.5719 14.5971 81.0726 14.5971C84.3018 14.5971 86.1455 12.5478 86.2706 9.64722H82.2391Z" fill="#562212"/>
<path d="M73.7081 29.5693L73.7104 15.6807H78.3709C78.3709 15.6807 78.3687 21.673 78.3687 22.1467C78.3687 22.6194 78.2692 23.1579 78.2692 23.1579H78.4703L83.5432 15.6807H88.0015V29.5693H83.3409V23.0428C83.3409 22.5769 83.4426 22.1344 83.4426 22.1344H83.2404L78.1675 29.5693H73.7081Z" fill="#562212"/>
<path d="M64.0932 25.6061C65.7827 25.6061 66.909 24.291 66.909 22.644C66.909 20.9546 65.7827 19.6417 64.0932 19.6417C62.4462 19.6417 61.2786 20.9557 61.2786 22.644C61.2786 24.291 62.4462 25.6061 64.0932 25.6061ZM64.0932 15.3254C68.5158 15.3254 71.8142 18.4518 71.8142 22.644C71.8142 26.795 68.5169 29.9235 64.0932 29.9235C59.7143 29.9235 56.4147 26.795 56.4147 22.644C56.4147 18.4518 59.7143 15.3254 64.0932 15.3254Z" fill="#562212"/>
<path d="M50.8323 15.6775C50.8323 15.6775 46.9405 20.7368 46.7829 20.9279C46.5908 21.1648 46.5751 21.2921 46.5751 21.2921H46.3729C46.3729 21.2921 46.3349 21.1547 46.1516 20.9279C45.8779 20.5882 41.8453 15.6775 41.8453 15.6775H38.1703V29.565H42.6621V23.7347C42.6621 23.1056 42.5604 22.7235 42.5604 22.7235H42.7627L46.374 26.8722H46.5684L49.9149 22.7235H50.116C50.116 22.7235 50.0155 23.1011 50.0155 23.7347V29.565H54.5084V15.6775H50.8312H50.8323Z" fill="#562212"/>
<path d="M7.69753 44.3609C4.59126 44.3609 2.81129 41.505 2.81129 38.2468C3.5454 36.3495 5.82818 34.8188 7.75228 34.8188C10.5647 34.8188 12.3581 36.5685 12.3581 39.5608C12.3581 42.3396 10.33 44.3609 7.69753 44.3609ZM0.00223473 37.2289V37.2769C0.00782156 42.5497 2.64257 46.7073 7.68971 46.7073C12.3335 46.7073 15.1559 43.0815 15.1559 39.4379C15.1559 35.2344 12.4631 32.5014 8.37019 32.5014C6.02037 32.5014 3.56216 33.8065 2.66603 35.754L2.53754 35.7529C2.5867 35.5506 2.67162 35.3506 2.68503 35.1585C2.90292 32.1662 4.09738 29.7851 6.41256 28.9617C7.86849 28.4432 9.31324 28.2343 10.4138 28.0007C11.5916 27.7505 12.8005 27.4577 13.5101 27.2465L12.7257 24.8945C11.4351 25.2498 10.234 25.508 8.21264 25.9203C7.35897 26.0946 6.42597 26.2443 5.3343 26.7046C1.63247 28.2633 0.00558683 31.3729 0 37.2311L0.00223473 37.2289Z" fill="#562212"/>
<path d="M19.8567 42.2972C19.8567 42.2972 19.8042 42.2961 19.7294 42.2961C19.7897 42.076 19.8567 41.7497 19.8567 41.4279V32.3484H17.0868V46.2359H19.5718L27.5062 36.2524H27.6358C27.5722 36.4703 27.5062 36.8379 27.5062 37.1563V46.2359H30.2784V32.3484H27.7934L19.8579 42.2983L19.8567 42.2972Z" fill="#562212"/>
<path d="M40.8196 39.1147V39.0532C42.4588 38.4666 43.261 37.385 43.261 35.7772C43.261 33.4587 41.376 31.967 38.0374 31.967C36.1188 31.967 34.0986 32.5 32.4338 33.7738L33.5254 35.7437C34.7713 34.7649 36.3635 34.2788 37.6664 34.2788C39.4899 34.2788 40.471 35.0341 40.471 36.2699C40.471 37.3828 39.6128 38.1661 38.2228 38.1661H36.0283V40.3248H38.377C40.0777 40.3248 40.9269 40.9058 40.9269 42.05C40.9269 43.4098 39.5581 44.3372 37.4843 44.3372C36.0227 44.3372 34.3098 43.7081 33.198 42.812L32.103 44.812C33.3109 45.9059 35.3937 46.7059 37.8206 46.7059C41.157 46.7059 43.7091 44.9551 43.7091 42.3896C43.7091 40.689 42.6733 39.3292 40.8185 39.1136L40.8196 39.1147Z" fill="#562212"/>
<path d="M55.8627 38.0443H48.4098V32.3469H45.6399V46.2344H48.4098V40.2019H55.8627V46.2344H58.636V32.3469H55.8627V38.0443Z" fill="#562212"/>
<path d="M63.4596 38.1184C63.8116 35.9675 65.3849 34.2982 67.452 34.2982C69.9582 34.2982 71.175 35.982 71.3941 38.1184H63.4585H63.4596ZM67.3168 31.9685C63.2328 31.9685 60.5657 35.1786 60.5657 39.41C60.5657 43.5878 63.2473 46.7063 68.1146 46.7063C70.4633 46.7063 72.4623 45.9856 73.9025 44.8124L72.8086 42.8123C71.7416 43.6123 70.1158 44.3576 68.1962 44.3576C65.1569 44.3576 63.6876 42.7051 63.4205 40.2782H63.4295H74.0433C74.0724 39.9933 74.0891 39.7061 74.0891 39.41C74.0891 35.1775 72.0444 31.9685 67.3168 31.9685Z" fill="#562212"/>
<path d="M83.627 44.3026C80.799 44.3026 78.7173 42.1775 78.7173 39.1606C78.7173 36.584 80.3777 34.3404 83.4684 34.3404C84.8729 34.3404 86.2886 34.7125 87.9144 35.7583C87.9144 35.7583 88.6205 34.4879 89.0406 33.718C87.3769 32.5381 85.455 31.9526 83.3946 31.9526C78.9207 31.9526 75.9194 35.0935 75.9194 39.3249C75.9194 43.4479 78.9117 46.7061 83.4404 46.7061C85.6606 46.7061 87.5981 46.0681 89.0373 44.8948L87.9423 42.8948C86.8752 43.6948 85.3321 44.3015 83.627 44.3015V44.3026Z" fill="#562212"/>
<path d="M36.9993 58.8282H36.5925L36.4853 57.8214H32.9075V52.3599H33.4986V57.2449H35.7445V52.3599H36.3367V57.2449H36.9993V58.8282ZM40.1849 57.5097C40.0419 57.6348 39.8631 57.7332 39.6463 57.8058C39.4295 57.8784 39.2005 57.9153 38.958 57.9153C38.6876 57.9153 38.4518 57.8673 38.2529 57.7712C38.0541 57.6751 37.8898 57.5376 37.7613 57.3577C37.6328 57.1779 37.5378 56.9633 37.4764 56.7142C37.4149 56.4639 37.3836 56.1834 37.3836 55.8717C37.3836 55.2057 37.5188 54.6985 37.7892 54.3499C38.0608 54.0012 38.4474 53.8269 38.9513 53.8269C39.1133 53.8269 39.2742 53.8471 39.4362 53.885C39.5983 53.9241 39.7424 53.9979 39.8709 54.1074C39.9994 54.2169 40.1033 54.3711 40.1849 54.5722C40.2653 54.7722 40.3067 55.0359 40.3067 55.3644C40.3067 55.5365 40.2921 55.7264 40.2642 55.9343H37.9758C37.9758 56.1633 37.9971 56.3655 38.0406 56.5432C38.0831 56.7197 38.1502 56.8695 38.2395 56.9924C38.33 57.1142 38.4474 57.208 38.5926 57.2728C38.7379 57.3376 38.9144 57.37 39.1234 57.37C39.2854 57.37 39.4463 57.3388 39.6083 57.2762C39.7703 57.2136 39.891 57.141 39.9726 57.0583L40.186 57.5108L40.1849 57.5097ZM38.9591 54.3733C38.6787 54.3733 38.4541 54.4538 38.2854 54.6147C38.1166 54.7756 38.0161 55.0515 37.9825 55.4415H39.7502C39.7502 55.046 39.6809 54.7689 39.5435 54.6102C39.4061 54.4515 39.2105 54.3722 38.9591 54.3722V54.3733ZM43.385 56.0974H41.7738V57.8214H41.2039V53.9197H41.7738V55.551H43.385V53.9197H43.9549V57.8214H43.385V56.0974ZM47.326 54.4661H46.2075V57.8214H45.6376V54.4661H44.5191V53.9197H47.3271V54.4661H47.326ZM47.8891 53.9197H48.2813L48.3886 54.3878H48.4176C48.5271 54.2057 48.6679 54.066 48.8411 53.97C49.0143 53.8739 49.2132 53.8258 49.4367 53.8258C49.9115 53.8258 50.2658 53.9789 50.4982 54.2862C50.7306 54.5934 50.8468 55.0951 50.8468 55.7923C50.8468 56.1197 50.8077 56.4147 50.7295 56.6784C50.6501 56.941 50.5406 57.1633 50.3976 57.3455C50.2546 57.5276 50.0825 57.6684 49.8803 57.7667C49.678 57.865 49.4545 57.9153 49.2065 57.9153C49.0311 57.9153 48.8914 57.9041 48.7897 57.8807C48.6869 57.8572 48.5774 57.817 48.4579 57.76V59.3824H47.888V53.9208L47.8891 53.9197ZM49.3294 54.3722C49.0869 54.3722 48.8959 54.4415 48.7551 54.5789C48.6154 54.7163 48.516 54.9264 48.4601 55.2069V57.1421C48.545 57.2147 48.6433 57.2706 48.7517 57.3097C48.8612 57.3488 49.0065 57.3678 49.1864 57.3678C49.5138 57.3678 49.7741 57.2337 49.9663 56.9656C50.1585 56.6974 50.2546 56.3041 50.2546 55.7834C50.2546 55.57 50.2378 55.3756 50.2043 55.2024C50.1708 55.0281 50.1183 54.8806 50.0445 54.7577C49.9708 54.6359 49.8758 54.5398 49.7596 54.4728C49.6434 54.4046 49.4992 54.3711 49.3283 54.3711L49.3294 54.3722ZM55.7934 54.4661H54.219V57.8214H53.6491V53.9197H56.3643V57.8214H55.7945V54.4661H55.7934ZM57.2616 55.8706C57.2616 55.2102 57.3957 54.7041 57.6638 54.3532C57.932 54.0024 58.3186 53.8269 58.8214 53.8269C59.0873 53.8269 59.3198 53.875 59.5164 53.9711C59.7131 54.0672 59.8762 54.2046 60.0047 54.3845C60.1332 54.5644 60.2282 54.78 60.2896 55.0326C60.3511 55.2851 60.3824 55.5644 60.3824 55.8717C60.3824 56.532 60.2483 57.0382 59.979 57.389C59.7108 57.7399 59.3242 57.9153 58.8214 57.9153C58.5555 57.9153 58.3231 57.8673 58.1264 57.7712C57.9298 57.6751 57.7666 57.5376 57.6381 57.3577C57.5096 57.1779 57.4147 56.9622 57.3532 56.7097C57.2917 56.4572 57.2605 56.1778 57.2605 55.8706H57.2616ZM57.8527 55.8706C57.8527 56.0683 57.8705 56.2583 57.9063 56.4404C57.942 56.6225 57.9979 56.7812 58.0739 56.9164C58.1499 57.0516 58.2493 57.1611 58.3734 57.2438C58.4974 57.3265 58.6471 57.3678 58.8225 57.3678C59.4695 57.3734 59.7924 56.8739 59.7924 55.8694C59.7924 55.6672 59.7745 55.4739 59.7388 55.2918C59.703 55.1097 59.6472 54.951 59.5712 54.8158C59.4952 54.6806 59.3957 54.5722 59.2717 54.4918C59.1488 54.4113 58.998 54.3711 58.8225 54.3711C58.1767 54.3655 57.8538 54.865 57.8538 55.8694L57.8527 55.8706ZM64.3881 58.8125H64.0038L63.8965 57.8214H61.2159L61.1087 58.8125H60.7232V57.2751H61.1444C61.1824 57.2181 61.2327 57.1153 61.2941 56.9667C61.3556 56.8181 61.4171 56.6102 61.4763 56.3421C61.5355 56.0739 61.588 55.7409 61.6327 55.3432C61.6774 54.9454 61.7053 54.4705 61.7143 53.9186H63.8663V57.2739H64.387V58.8114L64.3881 58.8125ZM63.2976 57.2751V54.4661H62.2283C62.2193 54.6851 62.2026 54.9231 62.1791 55.18C62.1556 55.437 62.1232 55.6951 62.083 55.9521C62.0428 56.2102 61.9914 56.4527 61.9299 56.6818C61.8685 56.9108 61.797 57.1086 61.7154 57.2751H63.2976ZM68.4576 58.8125H68.0732L67.9659 57.8214H65.2854L65.1781 58.8125H64.7926V57.2751H65.2139C65.2519 57.2181 65.301 57.1153 65.3636 56.9667C65.4251 56.8181 65.4865 56.6102 65.5457 56.3421C65.6049 56.0739 65.6575 55.7409 65.7022 55.3432C65.7468 54.9454 65.7748 54.4705 65.7837 53.9186H67.9358V57.2739H68.4565V58.8114L68.4576 58.8125ZM67.367 57.2751V54.4661H66.2977C66.2888 54.6851 66.272 54.9231 66.2485 55.18C66.2251 55.437 66.1927 55.6951 66.1525 55.9521C66.1122 56.2102 66.0608 56.4527 65.9994 56.6818C65.9379 56.9108 65.8664 57.1086 65.7848 57.2751H67.367ZM71.765 57.5086C71.622 57.6337 71.4432 57.7321 71.2264 57.8047C71.0096 57.8773 70.7806 57.9142 70.5381 57.9142C70.2666 57.9142 70.032 57.8661 69.8331 57.7701C69.6331 57.674 69.4699 57.5365 69.3414 57.3566C69.2129 57.1767 69.1179 56.9622 69.0565 56.713C68.995 56.4628 68.9637 56.1823 68.9637 55.8706C68.9637 55.2046 69.0989 54.6974 69.3694 54.3487C69.6398 54.0001 70.0275 53.8258 70.5314 53.8258C70.6934 53.8258 70.8543 53.8459 71.0163 53.8839C71.1784 53.923 71.3225 53.9968 71.451 54.1063C71.5795 54.2158 71.6834 54.37 71.765 54.5711C71.8454 54.7711 71.8857 55.0348 71.8857 55.3633C71.8857 55.5354 71.8711 55.7253 71.8432 55.9331H69.5548C69.5548 56.1622 69.5761 56.3644 69.6196 56.5421C69.6621 56.7186 69.7291 56.8683 69.8185 56.9913C69.909 57.113 70.0264 57.2069 70.1716 57.2717C70.3169 57.3365 70.4934 57.3689 70.7024 57.3689C70.8644 57.3689 71.0253 57.3376 71.1873 57.2751C71.3493 57.2125 71.47 57.1399 71.5516 57.0572L71.765 57.5097V57.5086ZM70.5392 54.3722C70.2588 54.3722 70.0342 54.4527 69.8655 54.6135C69.6967 54.7744 69.5962 55.0504 69.5627 55.4404H71.3303C71.3303 55.0448 71.2611 54.7677 71.1236 54.6091C70.9862 54.4504 70.7906 54.3711 70.5392 54.3711V54.3722ZM72.784 53.9197H73.1762L73.2835 54.3878H73.3125C73.422 54.2057 73.5628 54.066 73.736 53.97C73.9092 53.8739 74.1081 53.8258 74.3316 53.8258C74.8064 53.8258 75.1607 53.9789 75.3931 54.2862C75.6255 54.5934 75.7417 55.0951 75.7417 55.7923C75.7417 56.1197 75.7026 56.4147 75.6244 56.6784C75.545 56.941 75.4355 57.1633 75.2925 57.3455C75.1495 57.5276 74.9774 57.6684 74.7752 57.7667C74.5729 57.865 74.3483 57.9153 74.1014 57.9153C73.926 57.9153 73.7863 57.9041 73.6846 57.8807C73.5818 57.8572 73.4723 57.817 73.3528 57.76V59.3824H72.7829V53.9208L72.784 53.9197ZM74.2243 54.3722C73.9818 54.3722 73.7908 54.4415 73.65 54.5789C73.5103 54.7163 73.4109 54.9264 73.355 55.2069V57.1421C73.4399 57.2147 73.5382 57.2706 73.6466 57.3097C73.7561 57.3488 73.9014 57.3678 74.0813 57.3678C74.4087 57.3678 74.669 57.2337 74.8612 56.9656C75.0534 56.6974 75.1495 56.3041 75.1495 55.7834C75.1495 55.57 75.1327 55.3756 75.1003 55.2024C75.0668 55.0281 75.0132 54.8806 74.9394 54.7577C74.8657 54.6359 74.7707 54.5398 74.6545 54.4728C74.5383 54.4046 74.3941 54.3711 74.2232 54.3711L74.2243 54.3722ZM77.7597 56.0963L76.7116 57.8203H76.0557L77.182 56.0337L77.4244 55.7991L77.0613 55.503L76.135 53.9186H76.7406L77.725 55.6046H78.096V53.9186H78.6513V55.6817L78.9865 55.5722L79.9776 53.9174H80.5765L79.6078 55.5018L79.3296 55.7521L79.6927 56.0639L80.7475 57.8192H80.0704L79.0223 56.0639H78.6513V57.8192H78.096V55.9856L77.7608 56.0951L77.7597 56.0963ZM82.1934 56.065H81.866V57.8203H81.2961V53.9186H81.866V55.6817L82.1721 55.5722L83.313 53.9174H83.9331L82.828 55.4862L82.5286 55.7432L82.8995 56.0549L84.0895 57.8181H83.3834L82.1934 56.0627V56.065ZM86.9265 55.5108L86.9478 55.027H86.9265L86.6338 55.5264L85.0303 57.8203H84.703V53.9186H85.2728V56.2985L85.2516 56.7589H85.2806L85.5589 56.275L87.1623 53.9186H87.4975V57.8203H86.9276V55.5108H86.9265Z" fill="#562212"/>
<path d="M19.641 62.6507H18.0041V66.0061H17.4119V62.1044H20.2343V66.0061H19.641V62.6507ZM21.3752 62.1044H21.783L21.8936 62.5725H21.9238C22.0378 62.3904 22.1841 62.2507 22.364 62.1546C22.5439 62.0585 22.7506 62.0105 22.9819 62.0105C23.4758 62.0105 23.8434 62.1636 24.0859 62.4708C24.3284 62.7781 24.449 63.2798 24.449 63.977C24.449 64.3044 24.4077 64.5994 24.3272 64.8631C24.2457 65.1257 24.1306 65.348 23.9831 65.5301C23.8345 65.7123 23.6557 65.8531 23.4456 65.9514C23.2356 66.0497 23.002 66.1 22.7451 66.1C22.5618 66.1 22.4177 66.0888 22.3115 66.0653C22.2054 66.0419 22.0903 66.0017 21.9674 65.9447V67.5671H21.3752V62.1055V62.1044ZM22.8713 62.5569C22.6199 62.5569 22.421 62.6262 22.2746 62.7636C22.1294 62.901 22.0266 63.1111 21.9674 63.3915V65.3268C22.0556 65.3994 22.1573 65.4553 22.2702 65.4944C22.3841 65.5335 22.535 65.5525 22.7227 65.5525C23.0635 65.5525 23.3339 65.4184 23.5339 65.1502C23.7339 64.8821 23.8345 64.4888 23.8345 63.9681C23.8345 63.7547 23.8177 63.5603 23.7831 63.3871C23.7484 63.2128 23.6926 63.0653 23.6166 62.9424C23.5395 62.8206 23.4412 62.7245 23.3205 62.6574C23.1998 62.5893 23.0501 62.5558 22.8724 62.5558L22.8713 62.5569ZM28.0872 65.6933C27.9386 65.8184 27.752 65.9167 27.5274 65.9894C27.3028 66.062 27.0637 66.0989 26.8123 66.0989C26.5307 66.0989 26.286 66.0508 26.0793 65.9547C25.8726 65.8586 25.7016 65.7212 25.5686 65.5413C25.4346 65.3614 25.3362 65.1469 25.2725 64.8977C25.2077 64.6474 25.1764 64.367 25.1764 64.0552C25.1764 63.3893 25.3172 62.882 25.5988 62.5334C25.8804 62.1848 26.2826 62.0105 26.8067 62.0105C26.9743 62.0105 27.1419 62.0306 27.3106 62.0686C27.4782 62.1077 27.6291 62.1815 27.762 62.291C27.895 62.4005 28.0034 62.5547 28.0883 62.7558C28.1721 62.9558 28.2146 63.2195 28.2146 63.548C28.2146 63.72 28.2 63.91 28.1699 64.1178H25.7921C25.7921 64.3469 25.8145 64.5491 25.8592 64.7268C25.9038 64.9033 25.9731 65.053 26.067 65.1759C26.1608 65.2977 26.2826 65.3916 26.4335 65.4564C26.5843 65.5212 26.7676 65.5536 26.9855 65.5536C27.1531 65.5536 27.3207 65.5223 27.4894 65.4597C27.657 65.3972 27.7833 65.3246 27.8671 65.2419L28.0894 65.6944L28.0872 65.6933ZM26.8134 62.5569C26.5217 62.5569 26.2882 62.6373 26.1128 62.7982C25.9374 62.9591 25.8323 63.2351 25.7977 63.6251H27.6346C27.6346 63.2295 27.5631 62.9524 27.4201 62.7938C27.2771 62.6351 27.0748 62.5558 26.8123 62.5558L26.8134 62.5569ZM32.2583 66.9972H31.8583L31.7477 66.0061H28.9621L28.8515 66.9972H28.4514V65.4597H28.8883C28.9274 65.4028 28.98 65.3 29.0436 65.1514C29.1073 65.0028 29.171 64.7949 29.2325 64.5268C29.2939 64.2586 29.3487 63.9256 29.3956 63.5279C29.4425 63.1301 29.4716 62.6552 29.4805 62.1032H31.7175V65.4586H32.2583V66.9961V66.9972ZM31.1253 65.4597V62.6507H30.0146C30.0046 62.8697 29.9878 63.1077 29.9621 63.3647C29.9375 63.6217 29.904 63.8798 29.8616 64.1368C29.8202 64.3949 29.7666 64.6374 29.7029 64.8664C29.6392 65.0955 29.5643 65.2933 29.4805 65.4597H31.1253ZM35.2216 62.6507H33.5846V66.0061H32.9924V62.1044H35.8149V66.0061H35.2227V62.6507H35.2216ZM36.9546 62.1044H37.3624L37.4731 62.5725H37.5032C37.6172 62.3904 37.7636 62.2507 37.9435 62.1546C38.1234 62.0585 38.3301 62.0105 38.5614 62.0105C39.0552 62.0105 39.4229 62.1636 39.6653 62.4708C39.9078 62.7781 40.0285 63.2798 40.0285 63.977C40.0285 64.3044 39.9871 64.5994 39.9067 64.8631C39.8251 65.1257 39.71 65.348 39.5625 65.5301C39.4139 65.7123 39.2351 65.8531 39.0251 65.9514C38.815 66.0497 38.5815 66.1 38.3245 66.1C38.1412 66.1 37.9971 66.0888 37.8909 66.0653C37.7848 66.0419 37.6708 66.0017 37.5468 65.9447V67.5671H36.9535V62.1055L36.9546 62.1044ZM38.4507 62.5569C38.1982 62.5569 38.0004 62.6262 37.8541 62.7636C37.7088 62.901 37.606 63.1111 37.5468 63.3915V65.3268C37.6351 65.3994 37.7367 65.4553 37.8496 65.4944C37.9636 65.5335 38.1144 65.5525 38.3021 65.5525C38.6429 65.5525 38.9133 65.4184 39.1133 65.1502C39.3134 64.8821 39.4139 64.4888 39.4139 63.9681C39.4139 63.7547 39.3972 63.5603 39.3625 63.3871C39.3279 63.2128 39.272 63.0653 39.196 62.9424C39.1189 62.8206 39.0206 62.7245 38.8999 62.6574C38.7793 62.5893 38.6295 62.5558 38.4519 62.5558L38.4507 62.5569ZM43.2733 63.6966L43.2956 63.2128H43.2733L42.9694 63.7122L41.3023 66.0061H40.9615V62.1044H41.5537V64.4843L41.5313 64.9446H41.5615L41.8509 64.4608L43.518 62.1044H43.8655V66.0061H43.2733V63.6966ZM47.2735 64.2821H45.5997V66.0061H45.0074V62.1044H45.5997V63.7357H47.2735V62.1044H47.8657V66.0061H47.2735V64.2821ZM51.3183 63.6966L51.3407 63.2128H51.3183L51.0144 63.7122L49.3473 66.0061H49.0065V62.1044H49.5998V64.4843L49.5775 64.9446H49.6076L49.897 64.4608L51.5642 62.1044H51.9128V66.0061H51.3206V63.6966H51.3183ZM56.1118 63.6888L56.1565 62.948H56.1197L55.8526 63.5491L54.9565 65.0787H54.7498L53.8156 63.5491L53.5709 62.948H53.5419L53.6011 63.6809V66.0061H53.0525V62.1044H53.638L54.6749 63.853L54.8894 64.3055H54.904L55.1263 63.8374L56.0973 62.1044H56.6895V66.0061H56.1118V63.6888ZM57.7711 62.3937C57.9588 62.2742 58.1778 62.1859 58.427 62.1278C58.6762 62.0708 58.9365 62.0418 59.208 62.0418C59.465 62.0418 59.6718 62.0775 59.826 62.1513C59.9824 62.2239 60.1008 62.3189 60.1813 62.4362C60.2628 62.5535 60.3176 62.682 60.3444 62.8228C60.3712 62.9636 60.3857 63.1033 60.3857 63.2441C60.3857 63.5558 60.3779 63.8597 60.3634 64.1569C60.3489 64.453 60.3411 64.7346 60.3411 64.9994C60.3411 65.1916 60.3489 65.3737 60.3634 65.5458C60.3779 65.7179 60.4048 65.8754 60.445 66.0218H60.0081L59.8528 65.4754H59.8159C59.7723 65.548 59.7165 65.6195 59.6494 65.6899C59.5835 65.7603 59.503 65.8229 59.4092 65.8776C59.3153 65.9324 59.2069 65.9782 59.0829 66.0139C58.9589 66.0497 58.8192 66.0687 58.6605 66.0687C58.5019 66.0687 58.3555 66.043 58.2192 65.9905C58.084 65.938 57.9667 65.8642 57.8672 65.7681C57.7689 65.672 57.6907 65.5558 57.6337 65.4206C57.5767 65.2854 57.5488 65.1312 57.5488 64.9603C57.5488 64.7312 57.5935 64.5402 57.6817 64.3871C57.7711 64.234 57.8951 64.1111 58.056 64.0206C58.2169 63.929 58.4091 63.8642 58.6337 63.8251C58.8583 63.786 59.1064 63.767 59.3779 63.767C59.4472 63.767 59.5153 63.767 59.5813 63.767C59.6472 63.767 59.7153 63.7726 59.7846 63.7826C59.7991 63.6262 59.807 63.4865 59.807 63.3614C59.807 63.0753 59.7522 62.8753 59.6438 62.7602C59.5354 62.6463 59.3377 62.5882 59.0516 62.5882C58.9678 62.5882 58.8773 62.5949 58.7812 62.6072C58.6851 62.6217 58.5868 62.6396 58.4851 62.6641C58.3834 62.6876 58.2873 62.7178 58.1957 62.7524C58.1041 62.7859 58.0236 62.825 57.9555 62.8686L57.77 62.3926L57.7711 62.3937ZM58.8226 65.5223C58.9611 65.5223 59.084 65.5022 59.1924 65.4642C59.3008 65.4251 59.3946 65.3759 59.474 65.3156C59.5533 65.2553 59.6181 65.1894 59.6706 65.1167C59.722 65.0441 59.76 64.9737 59.7857 64.9055V64.2575C59.7164 64.2519 59.6461 64.2485 59.5746 64.2452C59.503 64.243 59.4326 64.2407 59.3634 64.2407C59.2103 64.2407 59.0606 64.2497 58.9153 64.2687C58.77 64.2865 58.6415 64.3212 58.5298 64.3703C58.4192 64.4195 58.3298 64.4877 58.2628 64.5737C58.1957 64.6597 58.1622 64.767 58.1622 64.8977C58.1622 65.0798 58.2236 65.2296 58.3477 65.3469C58.4706 65.4642 58.6293 65.5223 58.8214 65.5223H58.8226ZM63.8675 62.6507H62.7043V66.0061H62.1121V62.6507H60.9489V62.1044H63.8675V62.6507ZM67.0386 65.6944C66.8899 65.8195 66.7045 65.9179 66.4788 65.9905C66.2542 66.0631 66.0162 66.1 65.7636 66.1C65.4821 66.1 65.2374 66.0519 65.0306 65.9558C64.8228 65.8598 64.653 65.7223 64.5189 65.5424C64.3859 65.3625 64.2865 65.148 64.2228 64.8988C64.1591 64.6486 64.1267 64.3681 64.1267 64.0564C64.1267 63.3904 64.2675 62.8831 64.5491 62.5345C64.8306 62.1859 65.2329 62.0116 65.7569 62.0116C65.9245 62.0116 66.0921 62.0317 66.2609 62.0697C66.4285 62.1088 66.5793 62.1826 66.7123 62.2921C66.8452 62.4016 66.9536 62.5558 67.0386 62.7569C67.1224 62.9569 67.1648 63.2206 67.1648 63.5491C67.1648 63.7212 67.1503 63.9111 67.1201 64.1189H64.7424C64.7424 64.348 64.7647 64.5502 64.8094 64.7279C64.8541 64.9044 64.9234 65.0542 65.0161 65.1771C65.11 65.2988 65.2318 65.3927 65.3826 65.4575C65.5335 65.5223 65.7178 65.5547 65.9346 65.5547C66.1022 65.5547 66.2698 65.5234 66.4385 65.4609C66.6073 65.3983 66.7324 65.3257 66.8162 65.243L67.0386 65.6955V65.6944ZM65.7648 62.558C65.4731 62.558 65.2396 62.6384 65.0642 62.7993C64.8887 62.9602 64.7837 63.2362 64.7491 63.6262H66.586C66.586 63.2306 66.5145 62.9535 66.3715 62.7949C66.2285 62.6362 66.0251 62.5569 65.7636 62.5569L65.7648 62.558ZM69.9281 62.6519H68.8543C68.8397 62.8709 68.8252 63.1055 68.8096 63.358C68.795 63.6105 68.7727 63.8619 68.7425 64.1145C68.7135 64.367 68.6733 64.6083 68.6241 64.8396C68.5749 65.0709 68.5112 65.2754 68.4353 65.4519C68.3593 65.6285 68.2654 65.7704 68.1537 65.8776C68.0431 65.9838 67.9101 66.0374 67.757 66.0374C67.6632 66.0374 67.5816 66.0329 67.5123 66.0218C67.443 66.0117 67.3816 65.9927 67.3268 65.967L67.4151 65.4441C67.4743 65.4653 67.5391 65.4754 67.6084 65.4754C67.7067 65.4754 67.7961 65.4318 67.8755 65.3424C67.9548 65.2542 68.0241 65.0866 68.0822 64.8385C68.1414 64.5916 68.1906 64.2497 68.2308 63.8128C68.2699 63.3759 68.2978 62.8061 68.3123 62.1044H70.5203V66.0061H69.9281V62.6507V62.6519ZM72.2544 65.4609C72.4377 65.4921 72.6131 65.5078 72.7807 65.5078C73.0913 65.5078 73.3215 65.4441 73.469 65.3167C73.6176 65.1893 73.6913 65.0083 73.6913 64.7748C73.6913 64.567 73.6198 64.3949 73.4768 64.2597C73.3338 64.1245 73.1092 64.0564 72.803 64.0564C72.7192 64.0564 72.6276 64.0586 72.5293 64.0642C72.431 64.0698 72.3393 64.0854 72.2555 64.1111V65.4609H72.2544ZM72.2544 63.596C72.3729 63.5748 72.4868 63.5603 72.5952 63.5536C72.7036 63.5457 72.8075 63.5413 72.9058 63.5413C73.1628 63.5413 73.3796 63.5714 73.5584 63.6306C73.736 63.691 73.8802 63.7726 73.9919 63.8765C74.1037 63.9804 74.183 64.1044 74.2333 64.2474C74.2824 64.3904 74.307 64.5424 74.307 64.7044C74.307 65.1782 74.1718 65.5212 73.9036 65.7346C73.6344 65.948 73.2154 66.0542 72.6477 66.0542C72.3315 66.0542 72.003 66.0385 71.6622 66.0072V62.1055H72.2544V63.596ZM77.544 65.7491C77.3954 65.8631 77.22 65.9514 77.0177 66.0106C76.8155 66.0709 76.6032 66.1 76.3808 66.1C76.0948 66.1 75.8535 66.0519 75.6557 65.9558C75.4579 65.8598 75.2959 65.7223 75.1707 65.5424C75.0445 65.3625 74.9529 65.1469 74.897 64.8944C74.84 64.6418 74.8121 64.3625 74.8121 64.0552C74.8121 63.3949 74.9495 62.8887 75.2266 62.5379C75.5037 62.187 75.9015 62.0116 76.42 62.0116C76.6568 62.0116 76.858 62.0317 77.0233 62.0697C77.1887 62.1088 77.3384 62.1647 77.4714 62.2373L77.3016 62.7759C77.1876 62.7088 77.0624 62.6552 76.9239 62.6161C76.7853 62.577 76.6378 62.558 76.4792 62.558C75.7775 62.558 75.4266 63.0575 75.4266 64.0564C75.4266 64.2541 75.4456 64.443 75.4825 64.6217C75.5194 64.8016 75.5808 64.9592 75.668 65.0977C75.754 65.2352 75.868 65.3458 76.0088 65.4296C76.1495 65.5123 76.3239 65.5536 76.5306 65.5536C76.7082 65.5536 76.868 65.5257 77.0077 65.4676C77.1485 65.4106 77.2636 65.3458 77.3518 65.272L77.5451 65.748L77.544 65.7491ZM80.6034 62.6519H79.4402V66.0072H78.848V62.6519H77.6848V62.1055H80.6034V62.6519ZM81.1889 62.1133C81.3621 62.1032 81.5431 62.0898 81.733 62.0742C81.923 62.0585 82.1587 62.0507 82.4403 62.0507C82.9297 62.0507 83.2806 62.1301 83.4918 62.2887C83.7041 62.4474 83.8102 62.6876 83.8102 63.0105C83.8102 63.1927 83.7599 63.3703 83.6582 63.5446C83.5577 63.7189 83.3901 63.8474 83.1588 63.9301V63.9614C83.4504 64.0184 83.6549 64.1256 83.7733 64.2809C83.8918 64.4374 83.951 64.6452 83.951 64.9044C83.951 65.31 83.8124 65.6039 83.5365 65.786C83.2605 65.9681 82.8448 66.0586 82.2917 66.0586C82.0839 66.0586 81.8917 66.0519 81.714 66.0385C81.5364 66.0262 81.3609 66.0117 81.1878 65.9961V62.1099L81.1889 62.1133ZM81.7811 65.4843C81.8749 65.4944 81.9677 65.5022 82.0593 65.5078C82.1509 65.5134 82.2582 65.5156 82.3811 65.5156C82.7118 65.5156 82.9577 65.4665 83.1174 65.367C83.2783 65.2676 83.3588 65.0988 83.3588 64.8597C83.3588 64.672 83.2906 64.5201 83.1554 64.4039C83.0191 64.2865 82.7789 64.2284 82.4325 64.2284H81.7811V65.4854V65.4843ZM82.5074 63.7513C82.5968 63.7513 82.6828 63.7357 82.7666 63.7044C82.8504 63.6731 82.9253 63.6307 82.9923 63.5759C83.0582 63.5212 83.113 63.4575 83.1554 63.3848C83.1968 63.3122 83.218 63.234 83.218 63.1513C83.218 62.9435 83.1588 62.7993 83.0403 62.7178C82.9219 62.6373 82.7141 62.5971 82.418 62.5971C82.2593 62.5971 82.1353 62.5993 82.0437 62.6049C81.952 62.6105 81.8649 62.615 81.78 62.6206V63.7524H82.5062L82.5074 63.7513ZM84.8259 62.3937C85.0136 62.2742 85.2326 62.1859 85.4818 62.1278C85.731 62.0708 85.9913 62.0418 86.2628 62.0418C86.5198 62.0418 86.7265 62.0775 86.8807 62.1513C87.0372 62.2239 87.1556 62.3189 87.2361 62.4362C87.3176 62.5535 87.3724 62.682 87.3992 62.8228C87.426 62.9636 87.4405 63.1033 87.4405 63.2441C87.4405 63.5558 87.4327 63.8597 87.4182 64.1569C87.4037 64.453 87.3958 64.7346 87.3958 64.9994C87.3958 65.1916 87.4037 65.3737 87.4182 65.5458C87.4327 65.7179 87.4595 65.8754 87.4998 66.0218H87.0629L86.9076 65.4754H86.8707C86.8271 65.548 86.7712 65.6195 86.7042 65.6899C86.6383 65.7603 86.5578 65.8229 86.464 65.8776C86.3701 65.9324 86.2617 65.9782 86.1377 66.0139C86.0137 66.0497 85.874 66.0687 85.7153 66.0687C85.5566 66.0687 85.4103 66.043 85.274 65.9905C85.1388 65.938 85.0214 65.8642 84.922 65.7681C84.8237 65.672 84.7454 65.5558 84.6885 65.4206C84.6315 65.2854 84.6035 65.1312 84.6035 64.9603C84.6035 64.7312 84.6482 64.5402 84.7365 64.3871C84.8259 64.234 84.9499 64.1111 85.1108 64.0206C85.2717 63.929 85.4639 63.8642 85.6885 63.8251C85.9131 63.786 86.1611 63.767 86.4327 63.767C86.5019 63.767 86.5701 63.767 86.636 63.767C86.702 63.767 86.7701 63.7726 86.8394 63.7826C86.8539 63.6262 86.8617 63.4865 86.8617 63.3614C86.8617 63.0753 86.807 62.8753 86.6986 62.7602C86.5902 62.6463 86.3924 62.5882 86.1064 62.5882C86.0226 62.5882 85.9321 62.5949 85.836 62.6072C85.7399 62.6217 85.6416 62.6396 85.5399 62.6641C85.4382 62.6876 85.3421 62.7178 85.2505 62.7524C85.1589 62.7859 85.0784 62.825 85.0103 62.8686L84.8248 62.3926L84.8259 62.3937ZM85.8773 65.5223C86.0159 65.5223 86.1388 65.5022 86.2472 65.4642C86.3556 65.4251 86.4494 65.3759 86.5288 65.3156C86.6081 65.2553 86.6729 65.1894 86.7254 65.1167C86.7768 65.0441 86.8148 64.9737 86.8405 64.9055V64.2575C86.7712 64.2519 86.7008 64.2485 86.6293 64.2452C86.5578 64.243 86.4874 64.2407 86.4181 64.2407C86.2651 64.2407 86.1153 64.2497 85.9701 64.2687C85.8248 64.2865 85.6963 64.3212 85.5846 64.3703C85.474 64.4195 85.3846 64.4877 85.3175 64.5737C85.2505 64.6597 85.217 64.767 85.217 64.8977C85.217 65.0798 85.2784 65.2296 85.4025 65.3469C85.5254 65.4642 85.684 65.5223 85.8762 65.5223H85.8773Z" fill="#562212"/>
<path d="M1.02006 71.9115H0.653565V74.44H0.00549316V68.9784H0.653565V71.5226L1.00442 71.4131L2.83802 68.9784H3.58777L1.76199 71.3271L1.4346 71.5852L1.83239 71.8969L3.83024 74.4411H3.01121L1.02118 71.9126L1.02006 71.9115ZM4.64033 70.8265C4.8381 70.707 5.06828 70.6187 5.33086 70.5606C5.59344 70.5036 5.86831 70.4746 6.15436 70.4746C6.42476 70.4746 6.64153 70.5103 6.80578 70.5841C6.97003 70.6567 7.09518 70.7517 7.1801 70.869C7.26614 70.9863 7.32312 71.1148 7.35217 71.2556C7.38123 71.3964 7.39575 71.536 7.39575 71.6768C7.39575 71.9886 7.38793 72.2925 7.37229 72.5897C7.35664 72.8858 7.34882 73.1674 7.34882 73.4322C7.34882 73.6244 7.35664 73.8065 7.37229 73.9786C7.38793 74.1506 7.41586 74.3082 7.45832 74.4545H6.99797L6.83372 73.9082H6.79461C6.74768 73.9808 6.68958 74.0523 6.61918 74.1227C6.54879 74.1931 6.46499 74.2556 6.36554 74.3104C6.26609 74.3651 6.15212 74.411 6.02251 74.4467C5.89289 74.4825 5.74428 74.5015 5.5778 74.5015C5.41131 74.5015 5.256 74.4758 5.11297 74.4233C4.96995 74.3707 4.84704 74.297 4.74201 74.2009C4.63809 74.1048 4.55652 73.9886 4.49619 73.8534C4.43585 73.7182 4.4068 73.564 4.4068 73.3931C4.4068 73.164 4.45373 72.9729 4.54759 72.8199C4.64144 72.6668 4.77218 72.5439 4.94202 72.4534C5.11074 72.3617 5.3141 72.2969 5.55098 72.2578C5.78786 72.2187 6.04933 72.1997 6.33537 72.1997C6.408 72.1997 6.47951 72.1997 6.54991 72.1997C6.6203 72.1997 6.69181 72.2053 6.76444 72.2154C6.78008 72.0589 6.7879 71.9193 6.7879 71.7941C6.7879 71.5081 6.73092 71.3081 6.61583 71.193C6.50186 71.079 6.29403 71.0209 5.99234 71.0209C5.90407 71.0209 5.80909 71.0276 5.70741 71.0399C5.60573 71.0545 5.50182 71.0723 5.39567 71.0969C5.2884 71.1204 5.18784 71.1506 5.09174 71.1852C4.99565 71.2187 4.91073 71.2578 4.8381 71.3014L4.64256 70.8254L4.64033 70.8265ZM5.74875 73.9551C5.89401 73.9551 6.02474 73.935 6.13871 73.897C6.25269 73.8579 6.35213 73.8087 6.43482 73.7484C6.51862 73.688 6.58678 73.6221 6.64153 73.5495C6.69628 73.4769 6.73651 73.4065 6.7622 73.3383V72.6902C6.68958 72.6847 6.61471 72.6813 6.53985 72.678C6.46387 72.6757 6.39012 72.6735 6.31749 72.6735C6.15659 72.6735 5.99904 72.6824 5.84596 72.7014C5.69289 72.7193 5.55768 72.7539 5.44036 72.8031C5.32304 72.8523 5.22918 72.9204 5.1599 73.0065C5.08951 73.0925 5.05487 73.1998 5.05487 73.3305C5.05487 73.5126 5.11968 73.6623 5.25041 73.7797C5.38002 73.897 5.54651 73.9551 5.74987 73.9551H5.74875ZM10.6719 71.0835H9.53998C9.52433 71.3025 9.50869 71.5371 9.49305 71.7897C9.4774 72.0422 9.45394 72.2936 9.42265 72.5461C9.39137 72.7986 9.35002 73.04 9.29751 73.2713C9.24499 73.5026 9.17907 73.707 9.09862 73.8836C9.01817 74.0601 8.91872 74.202 8.80252 74.3093C8.68519 74.4154 8.54664 74.4691 8.38462 74.4691C8.28629 74.4691 8.20025 74.4646 8.12651 74.4534C8.05388 74.4434 7.98907 74.4244 7.93209 74.3987L8.02595 73.8758C8.08852 73.897 8.15556 73.907 8.22931 73.907C8.33322 73.907 8.42708 73.8635 8.50976 73.7741C8.59357 73.6858 8.6662 73.5182 8.72765 73.2702C8.79022 73.0232 8.84274 72.6813 8.88408 72.2444C8.92542 71.8075 8.95448 71.2377 8.97012 70.536H11.2954V74.4378H10.6708V71.0824L10.6719 71.0835ZM14.9324 72.1293L14.9558 71.6455H14.9324L14.6128 72.145L12.8574 74.4389H12.4988V70.5371H13.1234V72.9171L13.0999 73.3774H13.1312L13.4351 72.8936L15.1905 70.5371H15.557V74.4389H14.9335V72.1293H14.9324ZM19.146 72.7148H17.3828V74.4389H16.7582V70.5371H17.3828V72.1685H19.146V70.5371H19.7695V74.4389H19.146V72.7148ZM23.4065 72.1293L23.43 71.6455H23.4065L23.0869 72.145L21.3315 74.4389H20.9729V70.5371H21.5975V72.9171L21.574 73.3774H21.6053L21.9092 72.8936L23.6646 70.5371H24.0311V74.4389H23.4076V72.1293H23.4065ZM27.6201 72.7148H25.8569V74.4389H25.2323V70.5371H25.8569V72.1685H27.6201V70.5371H28.2436V74.4389H27.6201V72.7148ZM31.7242 71.0835H30.0705V74.4389H29.4459V70.5371H31.7242V71.0835ZM32.3253 70.5371H32.7544L32.8717 71.0053H32.903C33.0225 70.8232 33.1767 70.6835 33.3667 70.5874C33.5566 70.4913 33.7734 70.4433 34.0181 70.4433C34.5377 70.4433 34.9254 70.5963 35.1813 70.9036C35.436 71.2109 35.5634 71.7126 35.5634 72.4098C35.5634 72.7372 35.5198 73.0322 35.4349 73.2958C35.3489 73.5584 35.2282 73.7808 35.0718 73.9629C34.9154 74.145 34.7265 74.2858 34.5064 74.3841C34.2852 74.4825 34.0393 74.5327 33.7689 74.5327C33.5768 74.5327 33.4248 74.5216 33.3131 74.4981C33.2013 74.4746 33.0806 74.4344 32.9499 74.3774V75.9998H32.3253V70.5382V70.5371ZM33.9019 70.9897C33.636 70.9897 33.427 71.0589 33.2739 71.1964C33.1209 71.3338 33.0125 71.5439 32.9499 71.8243V73.7595C33.0438 73.8322 33.1499 73.888 33.2695 73.9272C33.389 73.9663 33.5477 73.9853 33.7455 73.9853C34.1041 73.9853 34.3891 73.8512 34.5991 73.583C34.8103 73.3148 34.9154 72.9215 34.9154 72.4009C34.9154 72.1874 34.8975 71.993 34.8606 71.8198C34.8248 71.6455 34.7656 71.498 34.6852 71.3751C34.6047 71.2533 34.5008 71.1573 34.3734 71.0902C34.2461 71.0221 34.0885 70.9885 33.9019 70.9885V70.9897ZM36.4841 70.8254C36.6819 70.7058 36.9121 70.6176 37.1747 70.5595C37.4372 70.5025 37.7121 70.4734 37.9982 70.4734C38.2686 70.4734 38.4853 70.5092 38.6496 70.5829C38.8138 70.6556 38.939 70.7505 39.0239 70.8679C39.1099 70.9852 39.1669 71.1137 39.196 71.2545C39.225 71.3952 39.2396 71.5349 39.2396 71.6757C39.2396 71.9874 39.2317 72.2914 39.2161 72.5886C39.2005 72.8847 39.1926 73.1662 39.1926 73.431C39.1926 73.6232 39.2005 73.8054 39.2161 73.9774C39.2317 74.1495 39.2597 74.3071 39.3021 74.4534H38.8418L38.6775 73.907H38.6384C38.5915 73.9797 38.5334 74.0512 38.463 74.1216C38.3926 74.192 38.3088 74.2545 38.2094 74.3093C38.1099 74.364 37.9959 74.4098 37.8663 74.4456C37.7367 74.4814 37.5881 74.5003 37.4216 74.5003C37.2551 74.5003 37.0998 74.4746 36.9568 74.4221C36.8138 74.3696 36.6908 74.2959 36.5858 74.1998C36.4819 74.1037 36.4003 73.9875 36.34 73.8523C36.2797 73.7171 36.2506 73.5629 36.2506 73.3919C36.2506 73.1629 36.2975 72.9718 36.3914 72.8187C36.4853 72.6657 36.616 72.5428 36.7858 72.4523C36.9545 72.3606 37.1579 72.2958 37.3948 72.2567C37.6317 72.2176 37.8931 72.1986 38.1792 72.1986C38.2518 72.1986 38.3233 72.1986 38.3937 72.1986C38.4641 72.1986 38.5356 72.2042 38.6082 72.2143C38.6239 72.0578 38.6317 71.9182 38.6317 71.793C38.6317 71.507 38.5747 71.307 38.4596 71.1919C38.3457 71.0779 38.1378 71.0198 37.8362 71.0198C37.7479 71.0198 37.6529 71.0265 37.5512 71.0388C37.4495 71.0533 37.3456 71.0712 37.2395 71.0958C37.1322 71.1193 37.0316 71.1494 36.9356 71.1841C36.8395 71.2176 36.7545 71.2567 36.6819 71.3003L36.4864 70.8243L36.4841 70.8254ZM37.5926 73.954C37.7378 73.954 37.8686 73.9339 37.9825 73.8959C38.0965 73.8568 38.1959 73.8076 38.2786 73.7473C38.3624 73.6869 38.4306 73.621 38.4853 73.5484C38.5401 73.4757 38.5803 73.4053 38.606 73.3372V72.6891C38.5334 72.6835 38.4585 72.6802 38.3837 72.6768C38.3077 72.6746 38.2339 72.6724 38.1613 72.6724C38.0004 72.6724 37.8429 72.6813 37.6898 72.7003C37.5367 72.7182 37.4015 72.7528 37.2842 72.802C37.1668 72.8511 37.073 72.9193 37.0037 73.0053C36.9333 73.0914 36.8987 73.1986 36.8987 73.3294C36.8987 73.5115 36.9635 73.6612 37.0942 73.7785C37.2238 73.8959 37.3903 73.954 37.5937 73.954H37.5926ZM43.8666 75.4289H43.4453L43.328 74.4378H40.3938L40.2765 75.4289H39.8552V73.8914H40.3156C40.3569 73.8344 40.4117 73.7316 40.4798 73.583C40.548 73.4344 40.6139 73.2266 40.6787 72.9584C40.7435 72.6903 40.8005 72.3573 40.8508 71.9595C40.9 71.5617 40.9301 71.0869 40.9402 70.5349H43.2967V73.8903H43.8666V75.4277V75.4289ZM42.6732 73.8914V71.0824H41.5022C41.4922 71.3014 41.4743 71.5394 41.4475 71.7964C41.4218 72.0534 41.386 72.3115 41.3424 72.5685C41.2989 72.8266 41.2419 73.069 41.1748 73.2981C41.1067 73.5271 41.0296 73.7249 40.9402 73.8914H42.6732ZM47.3002 74.1797C47.1438 74.2936 46.9594 74.3819 46.746 74.4411C46.5326 74.5015 46.3091 74.5305 46.0745 74.5305C45.7728 74.5305 45.518 74.4825 45.3102 74.3864C45.1024 74.2903 44.9314 74.1529 44.7985 73.973C44.6666 73.7931 44.5694 73.5774 44.5102 73.3249C44.4498 73.0724 44.4208 72.793 44.4208 72.4858C44.4208 71.8254 44.566 71.3193 44.8577 70.9684C45.1493 70.6176 45.5683 70.4422 46.1147 70.4422C46.365 70.4422 46.5762 70.4623 46.7505 70.5003C46.9248 70.5394 47.0824 70.5952 47.222 70.6679L47.0421 71.2064C46.9226 71.1394 46.7896 71.0857 46.6443 71.0466C46.4991 71.0075 46.3427 70.9885 46.1762 70.9885C45.4376 70.9885 45.0677 71.488 45.0677 72.4869C45.0677 72.6847 45.0879 72.8735 45.1258 73.0523C45.165 73.2322 45.2298 73.3897 45.3214 73.5283C45.4119 73.6657 45.5314 73.7763 45.6801 73.8601C45.8287 73.9428 46.0119 73.9841 46.2298 73.9841C46.4175 73.9841 46.5851 73.9562 46.7326 73.8981C46.8812 73.8411 47.0019 73.7763 47.0958 73.7026L47.2991 74.1786L47.3002 74.1797ZM49.1417 72.6813H48.783V74.4367H48.1584V70.5349H48.783V72.2981L49.1182 72.1886L50.3674 70.5338H51.0457L49.8367 72.1025L49.5093 72.3595L49.9149 72.6713L51.2177 74.4344H50.4456L49.1428 72.6791L49.1417 72.6813ZM51.5842 72.4858C51.5842 71.8254 51.7306 71.3193 52.0245 70.9684C52.3183 70.6176 52.7418 70.4422 53.2927 70.4422C53.5843 70.4422 53.8379 70.4902 54.0536 70.5863C54.2692 70.6824 54.448 70.8198 54.5877 70.9997C54.7285 71.1796 54.8324 71.3952 54.8994 71.6478C54.9676 71.9003 55.0011 72.1796 55.0011 72.4869C55.0011 73.1472 54.8547 73.6534 54.5598 74.0042C54.2659 74.3551 53.8435 74.5305 53.2916 74.5305C52.9999 74.5305 52.7463 74.4825 52.5306 74.3864C52.315 74.2903 52.1362 74.1529 51.9965 73.973C51.8557 73.7931 51.7518 73.5774 51.6848 73.3249C51.6166 73.0724 51.5831 72.793 51.5831 72.4858H51.5842ZM52.2323 72.4858C52.2323 72.6835 52.2524 72.8735 52.2904 73.0556C52.3295 73.2378 52.391 73.3964 52.4736 73.5316C52.5574 73.6668 52.6658 73.7763 52.801 73.859C52.9362 73.9417 53.1005 73.983 53.2927 73.983C54 73.9886 54.3542 73.4891 54.3542 72.4847C54.3542 72.2824 54.3341 72.0891 54.2961 71.907C54.257 71.7249 54.1955 71.5662 54.1128 71.431C54.029 71.2958 53.9206 71.1874 53.7854 71.107C53.6502 71.0265 53.486 70.9863 53.2938 70.9863C52.5865 70.9807 52.2323 71.4802 52.2323 72.4847V72.4858ZM58.4203 72.1271L58.4437 71.6433H58.4203L58.1007 72.1427L56.3453 74.4367H55.9866V70.5349H56.6112V72.9148L56.5878 73.3752H56.6191L56.923 72.8914L58.6784 70.5349H59.0449V74.4367H58.4214V72.1271H58.4203ZM56.8828 68.9594C56.9353 69.1985 57.0247 69.365 57.1521 69.4589C57.2794 69.5527 57.4258 69.5997 57.5923 69.5997C57.7588 69.5997 57.9074 69.5505 58.037 69.4511C58.1666 69.3527 58.256 69.1907 58.3029 68.9673L58.7711 69.1159C58.7242 69.4175 58.5901 69.6488 58.3689 69.8097C58.1476 69.9718 57.8839 70.0511 57.5767 70.0511C57.4359 70.0511 57.2973 70.0332 57.1588 69.9963C57.0213 69.9606 56.8973 69.9058 56.7878 69.8321C56.6783 69.7595 56.5844 69.6656 56.5062 69.5516C56.428 69.4377 56.3766 69.3013 56.3498 69.146L56.8805 68.9594H56.8828ZM62.1109 72.4858C62.1109 71.8254 62.2573 71.3193 62.5512 70.9684C62.845 70.6176 63.2685 70.4422 63.8194 70.4422C64.111 70.4422 64.3646 70.4902 64.5803 70.5863C64.796 70.6824 64.9747 70.8198 65.1144 70.9997C65.2552 71.1796 65.3591 71.3952 65.4261 71.6478C65.4943 71.9003 65.5278 72.1796 65.5278 72.4869C65.5278 73.1472 65.3814 73.6534 65.0865 74.0042C64.7926 74.3551 64.3702 74.5305 63.8183 74.5305C63.5266 74.5305 63.273 74.4825 63.0573 74.3864C62.8417 74.2903 62.6629 74.1529 62.5232 73.973C62.3824 73.7931 62.2785 73.5774 62.2115 73.3249C62.1433 73.0724 62.1098 72.793 62.1098 72.4858H62.1109ZM62.759 72.4858C62.759 72.6835 62.7791 72.8735 62.8171 73.0556C62.8562 73.2378 62.9177 73.3964 63.0003 73.5316C63.0841 73.6668 63.1925 73.7763 63.3277 73.859C63.4629 73.9417 63.6272 73.983 63.8194 73.983C64.5267 73.9886 64.8809 73.4891 64.8809 72.4847C64.8809 72.2824 64.8608 72.0891 64.8228 71.907C64.7837 71.7249 64.7222 71.5662 64.6395 71.431C64.5557 71.2958 64.4473 71.1874 64.3121 71.107C64.1769 71.0265 64.0127 70.9863 63.8205 70.9863C63.1132 70.9807 62.759 71.4802 62.759 72.4847V72.4858ZM66.8709 71.2299C67.043 70.9796 67.2329 70.8042 67.4408 70.7036C67.6486 70.6019 67.9089 70.5516 68.2207 70.5516C68.6989 70.5516 69.0676 70.7081 69.3246 71.0198C69.5816 71.3316 69.7101 71.7919 69.7101 72.4009C69.7101 73.1025 69.5604 73.6333 69.2621 73.992C68.9626 74.3506 68.5447 74.5305 68.0095 74.5305C67.4374 74.5305 67.0083 74.3327 66.7223 73.9372C66.4362 73.5417 66.2932 72.9204 66.2932 72.0724C66.2932 71.6254 66.3156 71.2433 66.3591 70.9248C66.4027 70.6075 66.4686 70.3394 66.5536 70.1215C66.6396 69.9036 66.7435 69.7293 66.8653 69.5986C66.9871 69.4689 67.1257 69.3661 67.2787 69.2902C67.4318 69.2142 67.6005 69.1617 67.7827 69.1304C67.9648 69.0991 68.1603 69.0734 68.3682 69.0522C68.6386 69.0265 68.8509 68.9963 69.0039 68.9628C69.157 68.9293 69.2811 68.8678 69.3749 68.7795L69.4453 69.3416C69.3928 69.3885 69.3358 69.4276 69.2732 69.4589C69.2107 69.4902 69.1358 69.5159 69.0475 69.5371C68.9593 69.5583 68.8542 69.5762 68.7313 69.5919C68.6095 69.6075 68.4676 69.6209 68.3056 69.631C68.0821 69.6466 67.8855 69.6745 67.7167 69.7125C67.548 69.7516 67.4016 69.8265 67.2799 69.9382C67.1581 70.05 67.062 70.2086 66.9916 70.4142C66.9212 70.6198 66.8731 70.8913 66.8474 71.2299H66.8709ZM66.9413 72.4936C66.9413 72.6914 66.9625 72.8813 67.0039 73.0634C67.0452 73.2456 67.1089 73.4054 67.1949 73.5428C67.281 73.6802 67.3916 73.7886 67.5268 73.8668C67.662 73.945 67.8207 73.9841 68.0028 73.9841C68.3615 73.9841 68.6285 73.8556 68.8028 73.5987C68.9771 73.3405 69.0643 72.9595 69.0643 72.4556C69.0643 72.2578 69.0464 72.0757 69.0095 71.9092C68.9727 71.7427 68.9157 71.5986 68.8375 71.4757C68.7592 71.3539 68.6609 71.26 68.5414 71.1952C68.4218 71.1304 68.2788 71.098 68.1123 71.098C67.7067 71.0924 67.4095 71.2109 67.2229 71.4533C67.0351 71.6947 66.9424 72.0422 66.9424 72.4947L66.9413 72.4936ZM72.7471 71.0813H71.6152C71.5996 71.3003 71.5839 71.5349 71.5683 71.7874C71.5527 72.04 71.5292 72.2914 71.4979 72.5439C71.4666 72.7964 71.4253 73.0377 71.3728 73.269C71.3203 73.5003 71.2543 73.7048 71.1739 73.8813C71.0934 74.0579 70.994 74.1998 70.8778 74.3071C70.7605 74.4132 70.6219 74.4668 70.4599 74.4668C70.3615 74.4668 70.2755 74.4624 70.2018 74.4512C70.1291 74.4411 70.0643 74.4221 70.0073 74.3964L70.1012 73.8735C70.1638 73.8947 70.2308 73.9048 70.3046 73.9048C70.4085 73.9048 70.5023 73.8612 70.585 73.7718C70.6688 73.6836 70.7415 73.516 70.8029 73.2679C70.8655 73.021 70.918 72.6791 70.9593 72.2422C71.0007 71.8053 71.0297 71.2355 71.0454 70.5338H73.3706V74.4355H72.746V71.0802L72.7471 71.0813ZM74.5103 70.8243C74.7081 70.7047 74.9383 70.6165 75.2009 70.5584C75.4634 70.5014 75.7383 70.4723 76.0244 70.4723C76.2948 70.4723 76.5115 70.5081 76.6758 70.5818C76.84 70.6544 76.9652 70.7494 77.0501 70.8667C77.1361 70.9841 77.1931 71.1126 77.2222 71.2533C77.2512 71.3941 77.2658 71.5338 77.2658 71.6746C77.2658 71.9863 77.2579 72.2902 77.2423 72.5875C77.2266 72.8836 77.2188 73.1651 77.2188 73.4299C77.2188 73.6221 77.2266 73.8042 77.2423 73.9763C77.2579 74.1484 77.2859 74.3059 77.3283 74.4523H76.868L76.7037 73.9059H76.6646C76.6177 73.9785 76.5596 74.0501 76.4892 74.1204C76.4188 74.1908 76.335 74.2534 76.2355 74.3082C76.1361 74.3629 76.0221 74.4087 75.8925 74.4445C75.7629 74.4802 75.6143 74.4992 75.4478 74.4992C75.2813 74.4992 75.126 74.4735 74.983 74.421C74.84 74.3685 74.717 74.2948 74.612 74.1987C74.5081 74.1026 74.4265 73.9864 74.3662 73.8512C74.3059 73.716 74.2768 73.5618 74.2768 73.3908C74.2768 73.1618 74.3237 72.9707 74.4176 72.8176C74.5114 72.6646 74.6422 72.5416 74.812 72.4511C74.9807 72.3595 75.1841 72.2947 75.421 72.2556C75.6579 72.2165 75.9193 72.1975 76.2054 72.1975C76.278 72.1975 76.3495 72.1975 76.4199 72.1975C76.4903 72.1975 76.5618 72.2031 76.6344 72.2131C76.6501 72.0567 76.6579 71.917 76.6579 71.7919C76.6579 71.5059 76.6009 71.3059 76.4858 71.1908C76.3719 71.0768 76.164 71.0187 75.8623 71.0187C75.7741 71.0187 75.6791 71.0254 75.5774 71.0377C75.4757 71.0522 75.3718 71.0701 75.2657 71.0947C75.1584 71.1181 75.0578 71.1483 74.9617 71.183C74.8657 71.2165 74.7807 71.2556 74.7081 71.2992L74.5126 70.8232L74.5103 70.8243ZM75.6188 73.9528C75.764 73.9528 75.8947 73.9327 76.0087 73.8948C76.1227 73.8556 76.2221 73.8065 76.3048 73.7461C76.3886 73.6858 76.4568 73.6199 76.5115 73.5473C76.5663 73.4746 76.6065 73.4042 76.6322 73.3361V72.688C76.5596 72.6824 76.4847 72.6791 76.4099 72.6757C76.3339 72.6735 76.2601 72.6713 76.1875 72.6713C76.0266 72.6713 75.869 72.6802 75.716 72.6992C75.5629 72.7171 75.4277 72.7517 75.3104 72.8009C75.193 72.85 75.0992 72.9182 75.0299 73.0042C74.9595 73.0903 74.9249 73.1975 74.9249 73.3283C74.9249 73.5104 74.9897 73.6601 75.1204 73.7774C75.25 73.8947 75.4165 73.9528 75.6199 73.9528H75.6188ZM81.1039 74.1786C80.9475 74.2925 80.7631 74.3808 80.5497 74.44C80.3363 74.5003 80.1128 74.5294 79.8782 74.5294C79.5765 74.5294 79.3217 74.4814 79.1139 74.3853C78.9061 74.2892 78.7351 74.1517 78.6021 73.9718C78.4703 73.792 78.3731 73.5763 78.3138 73.3238C78.2535 73.0713 78.2245 72.7919 78.2245 72.4847C78.2245 71.8243 78.3697 71.3182 78.6613 70.9673C78.953 70.6165 79.372 70.441 79.9184 70.441C80.1687 70.441 80.3799 70.4611 80.5542 70.4991C80.7285 70.5382 80.886 70.5941 81.0257 70.6667L80.8458 71.2053C80.7262 71.1383 80.5933 71.0846 80.448 71.0455C80.3028 71.0064 80.1463 70.9874 79.9798 70.9874C79.2413 70.9874 78.8714 71.4869 78.8714 72.4858C78.8714 72.6835 78.8915 72.8724 78.9295 73.0511C78.9686 73.231 79.0334 73.3886 79.1251 73.5271C79.2156 73.6646 79.3351 73.7752 79.4837 73.859C79.6323 73.9417 79.8156 73.983 80.0335 73.983C80.2212 73.983 80.3888 73.9551 80.5363 73.897C80.6849 73.84 80.8056 73.7752 80.8994 73.7014L81.1028 74.1774L81.1039 74.1786ZM84.3264 71.0813H83.1018V74.4367H82.4771V71.0813H81.2525V70.5349H84.3264V71.0813ZM87.3779 72.1271L87.4014 71.6433H87.3779L87.0583 72.1427L85.303 74.4367H84.9443V70.5349H85.5689V72.9148L85.5454 73.3752H85.5767L85.8806 72.8914L87.636 70.5349H88.0025V74.4367H87.379V72.1271H87.3779Z" fill="#562212"/>
</svg>
