<svg width="99" height="79" viewBox="0 0 99 79" fill="none" xmlns="http://www.w3.org/2000/svg">
<path d="M0 13.3136C0 10.5522 2.23858 8.3136 5 8.3136H84.5385C87.2999 8.3136 89.5385 10.5522 89.5385 13.3136V73.3373C89.5385 76.0987 87.2999 78.3373 84.5385 78.3373H4.99999C2.23857 78.3373 0 76.0987 0 73.3373V13.3136Z" fill="#ECDDD0"/>
<path fill-rule="evenodd" clip-rule="evenodd" d="M86.1428 17.7398C86.6427 18.4003 86.5125 19.3411 85.8519 19.8411L57.0442 41.6433C54.7072 43.4119 51.4757 43.3979 49.1541 41.609L20.895 19.8331C20.2388 19.3275 20.1168 18.3856 20.6225 17.7294C21.1281 17.0732 22.07 16.9512 22.7262 17.4568L50.9853 39.2327C52.2353 40.1959 53.9754 40.2035 55.2338 39.2511L84.0415 17.4489C84.7021 16.949 85.6429 17.0792 86.1428 17.7398Z" fill="#556269"/>
<path fill-rule="evenodd" clip-rule="evenodd" d="M9.18335 26.9023C10.0118 26.9023 10.6833 27.5739 10.6833 28.4023V56.5266C10.6833 57.355 10.0118 58.0266 9.18335 58.0266C8.35492 58.0266 7.68335 57.355 7.68335 56.5266V28.4023C7.68335 27.5739 8.35492 26.9023 9.18335 26.9023Z" fill="#556269"/>
<path fill-rule="evenodd" clip-rule="evenodd" d="M18.0149 61.1183C18.0149 60.2899 18.6865 59.6183 19.5149 59.6183H39.0297C39.8581 59.6183 40.5297 60.2899 40.5297 61.1183C40.5297 61.9467 39.8581 62.6183 39.0297 62.6183H19.5149C18.6865 62.6183 18.0149 61.9467 18.0149 61.1183Z" fill="white"/>
<path fill-rule="evenodd" clip-rule="evenodd" d="M18.0149 51.9349C18.0149 51.1065 18.6865 50.4349 19.5149 50.4349H32.1421C32.9705 50.4349 33.6421 51.1065 33.6421 51.9349C33.6421 52.7634 32.9705 53.4349 32.1421 53.4349H19.5149C18.6865 53.4349 18.0149 52.7634 18.0149 51.9349Z" fill="white"/>
<path fill-rule="evenodd" clip-rule="evenodd" d="M9.18335 14.8491C10.0118 14.8491 10.6833 15.5207 10.6833 16.3491V22.0888C10.6833 22.9172 10.0118 23.5888 9.18335 23.5888C8.35492 23.5888 7.68335 22.9172 7.68335 22.0888V16.3491C7.68335 15.5207 8.35492 14.8491 9.18335 14.8491Z" fill="#556269"/>
<path fill-rule="evenodd" clip-rule="evenodd" d="M14.1833 3.5C12.2504 3.5 10.6833 5.067 10.6833 7V10.0355C10.6833 10.8639 10.0118 11.5355 9.18335 11.5355C8.35492 11.5355 7.68335 10.8639 7.68335 10.0355V7C7.68335 3.41015 10.5935 0.5 14.1833 0.5H91.9999C95.5898 0.5 98.4999 3.41015 98.4999 7V66.4497C98.4999 70.0396 95.5898 72.9497 91.9999 72.9497H19.5147C18.6863 72.9497 18.0147 72.2781 18.0147 71.4497C18.0147 70.6213 18.6863 69.9497 19.5147 69.9497H91.9999C93.9329 69.9497 95.4999 68.3827 95.4999 66.4497V7C95.4999 5.067 93.9329 3.5 91.9999 3.5H14.1833Z" fill="#556269"/>
</svg>
