<svg width="22" height="22" viewBox="0 0 22 22" fill="none" xmlns="http://www.w3.org/2000/svg">
<path fill-rule="evenodd" clip-rule="evenodd" d="M11.8925 1.61409C12.977 0.566684 14.4294 -0.0128836 15.9371 0.000217365C17.4447 0.0133183 18.8869 0.618039 19.953 1.68414C21.0191 2.75023 21.6238 4.1924 21.6369 5.70004C21.65 7.20767 21.0704 8.66013 20.023 9.74459L20.014 9.75397L17.014 12.7538C16.4311 13.3369 15.7296 13.7879 14.957 14.076C14.1845 14.3642 13.359 14.4829 12.5366 14.424C11.7142 14.3651 10.9141 14.13 10.1905 13.7347C9.46695 13.3394 8.83686 12.793 8.34299 12.1328C8.09488 11.8011 8.16264 11.3311 8.49433 11.083C8.82601 10.8349 9.29603 10.9026 9.54413 11.2343C9.90917 11.7223 10.3749 12.1261 10.9097 12.4183C11.4445 12.7105 12.0359 12.8843 12.6438 12.9278C13.2517 12.9713 13.8618 12.8836 14.4328 12.6706C15.0038 12.4576 15.5223 12.1243 15.9531 11.6933L18.9484 8.69802C19.7199 7.89695 20.1466 6.82532 20.137 5.71307C20.1273 4.59873 19.6803 3.53278 18.8923 2.7448C18.1043 1.95681 17.0384 1.50984 15.924 1.50016C14.8114 1.49049 13.7395 1.91752 12.9383 2.68942L11.2223 4.39543C10.9286 4.68747 10.4537 4.68609 10.1617 4.39234C9.86965 4.09859 9.87103 3.62372 10.1648 3.33169L11.8925 1.61409ZM6.93009 7.29108C7.70261 7.0029 8.52807 6.88424 9.35048 6.94314C10.1729 7.00204 10.973 7.23712 11.6966 7.63244C12.4202 8.02777 13.0503 8.57408 13.5441 9.23432C13.7922 9.56601 13.7245 10.036 13.3928 10.2841C13.0611 10.5322 12.5911 10.4645 12.343 10.1328C11.978 9.64478 11.5122 9.24099 10.9774 8.94879C10.4426 8.6566 9.8512 8.48284 9.24333 8.43931C8.63546 8.39578 8.02534 8.48348 7.45434 8.69648C6.88335 8.90948 6.36484 9.24278 5.93399 9.67379L2.9387 12.6691C2.16726 13.4702 1.7405 14.5418 1.75016 15.654C1.75984 16.7684 2.20681 17.8343 2.9948 18.6223C3.78278 19.4103 4.84873 19.8573 5.96307 19.867C7.07532 19.8766 8.14695 19.4499 8.94802 18.6784L10.6532 16.9732C10.9461 16.6803 11.421 16.6803 11.7139 16.9732C12.0068 17.2661 12.0068 17.741 11.7139 18.0339L9.99467 19.7531C8.91021 20.8005 7.45767 21.38 5.95004 21.3669C4.4424 21.3538 3.00023 20.7491 1.93414 19.683C0.86804 18.6169 0.263318 17.1747 0.250217 15.6671C0.237116 14.1595 0.816684 12.707 1.86409 11.6225L1.87315 11.6131L4.87313 8.61333C4.87317 8.61329 4.8731 8.61336 4.87313 8.61333C5.45603 8.03024 6.15761 7.57923 6.93009 7.29108Z" fill="#989898"/>
</svg>
